%TF.GenerationSoftware,KiCad,Pcbnew,5.1.10*%
%TF.CreationDate,2021-09-21T18:47:02-07:00*%
%TF.ProjectId,MainBoard,4d61696e-426f-4617-9264-2e6b69636164,rev?*%
%TF.SameCoordinates,Original*%
%TF.FileFunction,Legend,Top*%
%TF.FilePolarity,Positive*%
%FSLAX46Y46*%
G04 Gerber Fmt 4.6, Leading zero omitted, Abs format (unit mm)*
G04 Created by KiCad (PCBNEW 5.1.10) date 2021-09-21 18:47:02*
%MOMM*%
%LPD*%
G01*
G04 APERTURE LIST*
%ADD10C,0.100000*%
%ADD11C,0.150000*%
%ADD12C,0.120000*%
%ADD13C,0.200000*%
%ADD14C,0.254000*%
G04 APERTURE END LIST*
D10*
%TO.C,Q1*%
X83400000Y-116750000D02*
X83700000Y-116900000D01*
X83400000Y-116750000D02*
X83400000Y-116450000D01*
X83400000Y-112350000D02*
X83400000Y-112050000D01*
X83400000Y-112050000D02*
X83700000Y-111900000D01*
D11*
X86550000Y-116350000D02*
G75*
G03*
X86600000Y-112500000I-1900000J1950000D01*
G01*
D10*
%TO.C,Q2*%
X86700000Y-119850000D02*
X86400000Y-119700000D01*
X86700000Y-119850000D02*
X86700000Y-120150000D01*
X86700000Y-124250000D02*
X86700000Y-124550000D01*
X86700000Y-124550000D02*
X86400000Y-124700000D01*
D11*
X83550000Y-120250000D02*
G75*
G03*
X83500000Y-124100000I1900000J-1950000D01*
G01*
D12*
%TO.C,D2*%
X115926371Y-98800000D02*
G75*
G03*
X115926371Y-98800000I-1326371J0D01*
G01*
X114600000Y-97473629D02*
X114600000Y-94820000D01*
%TO.C,SW1*%
X90200000Y-143726400D02*
X110200000Y-143726400D01*
X110200000Y-143726400D02*
X110200000Y-126426400D01*
X90200000Y-126426400D02*
X90200000Y-143726400D01*
X90200000Y-126426400D02*
X110200000Y-126426400D01*
D10*
%TO.C,R21*%
X103960000Y-82521600D02*
X103460000Y-82521600D01*
X103960000Y-82521600D02*
X103960000Y-83021600D01*
X96060000Y-82521600D02*
X96560000Y-82521600D01*
X96060000Y-82521600D02*
X96060000Y-83021600D01*
X96060000Y-85321600D02*
X96060000Y-84821600D01*
X96060000Y-85321600D02*
X96560000Y-85321600D01*
X103960000Y-85321600D02*
X103460000Y-85321600D01*
X103960000Y-85321600D02*
X103960000Y-84821600D01*
%TO.C,R20*%
X103960000Y-78533800D02*
X103460000Y-78533800D01*
X103960000Y-78533800D02*
X103960000Y-79033800D01*
X96060000Y-78533800D02*
X96560000Y-78533800D01*
X96060000Y-78533800D02*
X96060000Y-79033800D01*
X96060000Y-81333800D02*
X96060000Y-80833800D01*
X96060000Y-81333800D02*
X96560000Y-81333800D01*
X103960000Y-81333800D02*
X103460000Y-81333800D01*
X103960000Y-81333800D02*
X103960000Y-80833800D01*
%TO.C,R19*%
X103960000Y-86509400D02*
X103460000Y-86509400D01*
X103960000Y-86509400D02*
X103960000Y-87009400D01*
X96060000Y-86509400D02*
X96560000Y-86509400D01*
X96060000Y-86509400D02*
X96060000Y-87009400D01*
X96060000Y-89309400D02*
X96060000Y-88809400D01*
X96060000Y-89309400D02*
X96560000Y-89309400D01*
X103960000Y-89309400D02*
X103460000Y-89309400D01*
X103960000Y-89309400D02*
X103960000Y-88809400D01*
%TO.C,J3*%
X104599800Y-68265200D02*
X104099800Y-68265200D01*
X104599800Y-68265200D02*
X104599800Y-67765200D01*
X95399800Y-68265200D02*
X95899800Y-68265200D01*
X95399800Y-68265200D02*
X95399800Y-67765200D01*
X98799800Y-62665200D02*
X101199800Y-62665200D01*
X95399800Y-53665200D02*
X95399800Y-54165200D01*
X95399800Y-53665200D02*
X95899800Y-53665200D01*
X104599800Y-53665200D02*
X104099800Y-53665200D01*
X104599800Y-53665200D02*
X104599800Y-54165200D01*
X95399800Y-60965200D02*
X95399800Y-59965200D01*
X104599800Y-60965200D02*
X104599800Y-59965200D01*
D12*
%TO.C,J2*%
X88689400Y-108277600D02*
X88689400Y-92077600D01*
X88689400Y-92077600D02*
X112289400Y-92077600D01*
X112289400Y-92077600D02*
X112289400Y-108277600D01*
X112289400Y-108277600D02*
X88689400Y-108277600D01*
%TO.C,J1*%
X111335600Y-110289400D02*
X111335600Y-126489400D01*
X111335600Y-126489400D02*
X87735600Y-126489400D01*
X87735600Y-126489400D02*
X87735600Y-110289400D01*
X87735600Y-110289400D02*
X111335600Y-110289400D01*
D13*
%TO.C,C12*%
X103275000Y-73650000D02*
G75*
G03*
X103275000Y-73650000I-3275000J0D01*
G01*
D12*
%TO.C,R18*%
X115027064Y-91935000D02*
X114572936Y-91935000D01*
X115027064Y-90465000D02*
X114572936Y-90465000D01*
%TO.C,R16*%
X96135000Y-74372936D02*
X96135000Y-74827064D01*
X94665000Y-74372936D02*
X94665000Y-74827064D01*
%TO.C,R12*%
X83465000Y-128727064D02*
X83465000Y-128272936D01*
X84935000Y-128727064D02*
X84935000Y-128272936D01*
%TO.C,R11*%
X105865000Y-71627064D02*
X105865000Y-71172936D01*
X107335000Y-71627064D02*
X107335000Y-71172936D01*
%TO.C,R10*%
X92665000Y-71027064D02*
X92665000Y-70572936D01*
X94135000Y-71027064D02*
X94135000Y-70572936D01*
%TO.C,R9*%
X96135000Y-70572936D02*
X96135000Y-71027064D01*
X94665000Y-70572936D02*
X94665000Y-71027064D01*
%TO.C,D5*%
X107800000Y-62192800D02*
X105560000Y-62192800D01*
X105560000Y-62192800D02*
X105560000Y-66432800D01*
X105560000Y-66432800D02*
X107800000Y-66432800D01*
X107800000Y-66432800D02*
X107800000Y-62192800D01*
X106680000Y-61542800D02*
X106680000Y-62192800D01*
X106680000Y-67082800D02*
X106680000Y-66432800D01*
X107800000Y-62912800D02*
X105560000Y-62912800D01*
X107800000Y-63032800D02*
X105560000Y-63032800D01*
X107800000Y-62792800D02*
X105560000Y-62792800D01*
D10*
%TO.C,D4*%
X102610000Y-110883560D02*
X102610000Y-107673560D01*
X102611718Y-110890771D02*
G75*
G02*
X102610000Y-107673560I-2611718J1607211D01*
G01*
D12*
%TO.C,D1*%
X115926371Y-106480000D02*
G75*
G03*
X115926371Y-106480000I-1326371J0D01*
G01*
X114600000Y-105153629D02*
X114600000Y-102500000D01*
%TO.C,C10*%
X89001248Y-118865000D02*
X89523752Y-118865000D01*
X89001248Y-120335000D02*
X89523752Y-120335000D01*
%TO.C,C9*%
X107335000Y-75101248D02*
X107335000Y-75623752D01*
X105865000Y-75101248D02*
X105865000Y-75623752D01*
%TO.C,C7*%
X92065000Y-65861252D02*
X92065000Y-65338748D01*
X93535000Y-65861252D02*
X93535000Y-65338748D01*
%TO.C,Q1*%
D11*
X84604761Y-110347619D02*
X84509523Y-110300000D01*
X84414285Y-110204761D01*
X84271428Y-110061904D01*
X84176190Y-110014285D01*
X84080952Y-110014285D01*
X84128571Y-110252380D02*
X84033333Y-110204761D01*
X83938095Y-110109523D01*
X83890476Y-109919047D01*
X83890476Y-109585714D01*
X83938095Y-109395238D01*
X84033333Y-109300000D01*
X84128571Y-109252380D01*
X84319047Y-109252380D01*
X84414285Y-109300000D01*
X84509523Y-109395238D01*
X84557142Y-109585714D01*
X84557142Y-109919047D01*
X84509523Y-110109523D01*
X84414285Y-110204761D01*
X84319047Y-110252380D01*
X84128571Y-110252380D01*
X85509523Y-110252380D02*
X84938095Y-110252380D01*
X85223809Y-110252380D02*
X85223809Y-109252380D01*
X85128571Y-109395238D01*
X85033333Y-109490476D01*
X84938095Y-109538095D01*
%TO.C,Q2*%
X86604761Y-126947619D02*
X86509523Y-126900000D01*
X86414285Y-126804761D01*
X86271428Y-126661904D01*
X86176190Y-126614285D01*
X86080952Y-126614285D01*
X86128571Y-126852380D02*
X86033333Y-126804761D01*
X85938095Y-126709523D01*
X85890476Y-126519047D01*
X85890476Y-126185714D01*
X85938095Y-125995238D01*
X86033333Y-125900000D01*
X86128571Y-125852380D01*
X86319047Y-125852380D01*
X86414285Y-125900000D01*
X86509523Y-125995238D01*
X86557142Y-126185714D01*
X86557142Y-126519047D01*
X86509523Y-126709523D01*
X86414285Y-126804761D01*
X86319047Y-126852380D01*
X86128571Y-126852380D01*
X86938095Y-125947619D02*
X86985714Y-125900000D01*
X87080952Y-125852380D01*
X87319047Y-125852380D01*
X87414285Y-125900000D01*
X87461904Y-125947619D01*
X87509523Y-126042857D01*
X87509523Y-126138095D01*
X87461904Y-126280952D01*
X86890476Y-126852380D01*
X87509523Y-126852380D01*
%TO.C,D2*%
X116552380Y-97138095D02*
X115552380Y-97138095D01*
X115552380Y-96900000D01*
X115600000Y-96757142D01*
X115695238Y-96661904D01*
X115790476Y-96614285D01*
X115980952Y-96566666D01*
X116123809Y-96566666D01*
X116314285Y-96614285D01*
X116409523Y-96661904D01*
X116504761Y-96757142D01*
X116552380Y-96900000D01*
X116552380Y-97138095D01*
X115647619Y-96185714D02*
X115600000Y-96138095D01*
X115552380Y-96042857D01*
X115552380Y-95804761D01*
X115600000Y-95709523D01*
X115647619Y-95661904D01*
X115742857Y-95614285D01*
X115838095Y-95614285D01*
X115980952Y-95661904D01*
X116552380Y-96233333D01*
X116552380Y-95614285D01*
X114252380Y-95481904D02*
X113252380Y-95481904D01*
X114252380Y-94910476D02*
X113680952Y-95339047D01*
X113252380Y-94910476D02*
X113823809Y-95481904D01*
%TO.C,SW1*%
X111404761Y-136233333D02*
X111452380Y-136090476D01*
X111452380Y-135852380D01*
X111404761Y-135757142D01*
X111357142Y-135709523D01*
X111261904Y-135661904D01*
X111166666Y-135661904D01*
X111071428Y-135709523D01*
X111023809Y-135757142D01*
X110976190Y-135852380D01*
X110928571Y-136042857D01*
X110880952Y-136138095D01*
X110833333Y-136185714D01*
X110738095Y-136233333D01*
X110642857Y-136233333D01*
X110547619Y-136185714D01*
X110500000Y-136138095D01*
X110452380Y-136042857D01*
X110452380Y-135804761D01*
X110500000Y-135661904D01*
X110452380Y-135328571D02*
X111452380Y-135090476D01*
X110738095Y-134900000D01*
X111452380Y-134709523D01*
X110452380Y-134471428D01*
X111452380Y-133566666D02*
X111452380Y-134138095D01*
X111452380Y-133852380D02*
X110452380Y-133852380D01*
X110595238Y-133947619D01*
X110690476Y-134042857D01*
X110738095Y-134138095D01*
%TO.C,R21*%
X95452380Y-84442857D02*
X94976190Y-84776190D01*
X95452380Y-85014285D02*
X94452380Y-85014285D01*
X94452380Y-84633333D01*
X94500000Y-84538095D01*
X94547619Y-84490476D01*
X94642857Y-84442857D01*
X94785714Y-84442857D01*
X94880952Y-84490476D01*
X94928571Y-84538095D01*
X94976190Y-84633333D01*
X94976190Y-85014285D01*
X94547619Y-84061904D02*
X94500000Y-84014285D01*
X94452380Y-83919047D01*
X94452380Y-83680952D01*
X94500000Y-83585714D01*
X94547619Y-83538095D01*
X94642857Y-83490476D01*
X94738095Y-83490476D01*
X94880952Y-83538095D01*
X95452380Y-84109523D01*
X95452380Y-83490476D01*
X95452380Y-82538095D02*
X95452380Y-83109523D01*
X95452380Y-82823809D02*
X94452380Y-82823809D01*
X94595238Y-82919047D01*
X94690476Y-83014285D01*
X94738095Y-83109523D01*
%TO.C,R20*%
X95452380Y-80642857D02*
X94976190Y-80976190D01*
X95452380Y-81214285D02*
X94452380Y-81214285D01*
X94452380Y-80833333D01*
X94500000Y-80738095D01*
X94547619Y-80690476D01*
X94642857Y-80642857D01*
X94785714Y-80642857D01*
X94880952Y-80690476D01*
X94928571Y-80738095D01*
X94976190Y-80833333D01*
X94976190Y-81214285D01*
X94547619Y-80261904D02*
X94500000Y-80214285D01*
X94452380Y-80119047D01*
X94452380Y-79880952D01*
X94500000Y-79785714D01*
X94547619Y-79738095D01*
X94642857Y-79690476D01*
X94738095Y-79690476D01*
X94880952Y-79738095D01*
X95452380Y-80309523D01*
X95452380Y-79690476D01*
X94452380Y-79071428D02*
X94452380Y-78976190D01*
X94500000Y-78880952D01*
X94547619Y-78833333D01*
X94642857Y-78785714D01*
X94833333Y-78738095D01*
X95071428Y-78738095D01*
X95261904Y-78785714D01*
X95357142Y-78833333D01*
X95404761Y-78880952D01*
X95452380Y-78976190D01*
X95452380Y-79071428D01*
X95404761Y-79166666D01*
X95357142Y-79214285D01*
X95261904Y-79261904D01*
X95071428Y-79309523D01*
X94833333Y-79309523D01*
X94642857Y-79261904D01*
X94547619Y-79214285D01*
X94500000Y-79166666D01*
X94452380Y-79071428D01*
%TO.C,R19*%
X95452380Y-88442857D02*
X94976190Y-88776190D01*
X95452380Y-89014285D02*
X94452380Y-89014285D01*
X94452380Y-88633333D01*
X94500000Y-88538095D01*
X94547619Y-88490476D01*
X94642857Y-88442857D01*
X94785714Y-88442857D01*
X94880952Y-88490476D01*
X94928571Y-88538095D01*
X94976190Y-88633333D01*
X94976190Y-89014285D01*
X95452380Y-87490476D02*
X95452380Y-88061904D01*
X95452380Y-87776190D02*
X94452380Y-87776190D01*
X94595238Y-87871428D01*
X94690476Y-87966666D01*
X94738095Y-88061904D01*
X95452380Y-87014285D02*
X95452380Y-86823809D01*
X95404761Y-86728571D01*
X95357142Y-86680952D01*
X95214285Y-86585714D01*
X95023809Y-86538095D01*
X94642857Y-86538095D01*
X94547619Y-86585714D01*
X94500000Y-86633333D01*
X94452380Y-86728571D01*
X94452380Y-86919047D01*
X94500000Y-87014285D01*
X94547619Y-87061904D01*
X94642857Y-87109523D01*
X94880952Y-87109523D01*
X94976190Y-87061904D01*
X95023809Y-87014285D01*
X95071428Y-86919047D01*
X95071428Y-86728571D01*
X95023809Y-86633333D01*
X94976190Y-86585714D01*
X94880952Y-86538095D01*
%TO.C,J3*%
X92752380Y-59633333D02*
X93466666Y-59633333D01*
X93609523Y-59680952D01*
X93704761Y-59776190D01*
X93752380Y-59919047D01*
X93752380Y-60014285D01*
X92752380Y-59252380D02*
X92752380Y-58633333D01*
X93133333Y-58966666D01*
X93133333Y-58823809D01*
X93180952Y-58728571D01*
X93228571Y-58680952D01*
X93323809Y-58633333D01*
X93561904Y-58633333D01*
X93657142Y-58680952D01*
X93704761Y-58728571D01*
X93752380Y-58823809D01*
X93752380Y-59109523D01*
X93704761Y-59204761D01*
X93657142Y-59252380D01*
%TO.C,J2*%
X112566666Y-108552380D02*
X112566666Y-109266666D01*
X112519047Y-109409523D01*
X112423809Y-109504761D01*
X112280952Y-109552380D01*
X112185714Y-109552380D01*
X112995238Y-108647619D02*
X113042857Y-108600000D01*
X113138095Y-108552380D01*
X113376190Y-108552380D01*
X113471428Y-108600000D01*
X113519047Y-108647619D01*
X113566666Y-108742857D01*
X113566666Y-108838095D01*
X113519047Y-108980952D01*
X112947619Y-109552380D01*
X113566666Y-109552380D01*
%TO.C,J1*%
X111966666Y-126152380D02*
X111966666Y-126866666D01*
X111919047Y-127009523D01*
X111823809Y-127104761D01*
X111680952Y-127152380D01*
X111585714Y-127152380D01*
X112966666Y-127152380D02*
X112395238Y-127152380D01*
X112680952Y-127152380D02*
X112680952Y-126152380D01*
X112585714Y-126295238D01*
X112490476Y-126390476D01*
X112395238Y-126438095D01*
%TO.C,C12*%
D14*
X104653571Y-77016428D02*
X104714047Y-77076904D01*
X104774523Y-77258333D01*
X104774523Y-77379285D01*
X104714047Y-77560714D01*
X104593095Y-77681666D01*
X104472142Y-77742142D01*
X104230238Y-77802619D01*
X104048809Y-77802619D01*
X103806904Y-77742142D01*
X103685952Y-77681666D01*
X103565000Y-77560714D01*
X103504523Y-77379285D01*
X103504523Y-77258333D01*
X103565000Y-77076904D01*
X103625476Y-77016428D01*
X104774523Y-75806904D02*
X104774523Y-76532619D01*
X104774523Y-76169761D02*
X103504523Y-76169761D01*
X103685952Y-76290714D01*
X103806904Y-76411666D01*
X103867380Y-76532619D01*
X103625476Y-75323095D02*
X103565000Y-75262619D01*
X103504523Y-75141666D01*
X103504523Y-74839285D01*
X103565000Y-74718333D01*
X103625476Y-74657857D01*
X103746428Y-74597380D01*
X103867380Y-74597380D01*
X104048809Y-74657857D01*
X104774523Y-75383571D01*
X104774523Y-74597380D01*
%TO.C,R18*%
D11*
X116552380Y-89142857D02*
X116076190Y-89476190D01*
X116552380Y-89714285D02*
X115552380Y-89714285D01*
X115552380Y-89333333D01*
X115600000Y-89238095D01*
X115647619Y-89190476D01*
X115742857Y-89142857D01*
X115885714Y-89142857D01*
X115980952Y-89190476D01*
X116028571Y-89238095D01*
X116076190Y-89333333D01*
X116076190Y-89714285D01*
X116552380Y-88190476D02*
X116552380Y-88761904D01*
X116552380Y-88476190D02*
X115552380Y-88476190D01*
X115695238Y-88571428D01*
X115790476Y-88666666D01*
X115838095Y-88761904D01*
X115980952Y-87619047D02*
X115933333Y-87714285D01*
X115885714Y-87761904D01*
X115790476Y-87809523D01*
X115742857Y-87809523D01*
X115647619Y-87761904D01*
X115600000Y-87714285D01*
X115552380Y-87619047D01*
X115552380Y-87428571D01*
X115600000Y-87333333D01*
X115647619Y-87285714D01*
X115742857Y-87238095D01*
X115790476Y-87238095D01*
X115885714Y-87285714D01*
X115933333Y-87333333D01*
X115980952Y-87428571D01*
X115980952Y-87619047D01*
X116028571Y-87714285D01*
X116076190Y-87761904D01*
X116171428Y-87809523D01*
X116361904Y-87809523D01*
X116457142Y-87761904D01*
X116504761Y-87714285D01*
X116552380Y-87619047D01*
X116552380Y-87428571D01*
X116504761Y-87333333D01*
X116457142Y-87285714D01*
X116361904Y-87238095D01*
X116171428Y-87238095D01*
X116076190Y-87285714D01*
X116028571Y-87333333D01*
X115980952Y-87428571D01*
%TO.C,R16*%
X94052380Y-75442857D02*
X93576190Y-75776190D01*
X94052380Y-76014285D02*
X93052380Y-76014285D01*
X93052380Y-75633333D01*
X93100000Y-75538095D01*
X93147619Y-75490476D01*
X93242857Y-75442857D01*
X93385714Y-75442857D01*
X93480952Y-75490476D01*
X93528571Y-75538095D01*
X93576190Y-75633333D01*
X93576190Y-76014285D01*
X94052380Y-74490476D02*
X94052380Y-75061904D01*
X94052380Y-74776190D02*
X93052380Y-74776190D01*
X93195238Y-74871428D01*
X93290476Y-74966666D01*
X93338095Y-75061904D01*
X93052380Y-73633333D02*
X93052380Y-73823809D01*
X93100000Y-73919047D01*
X93147619Y-73966666D01*
X93290476Y-74061904D01*
X93480952Y-74109523D01*
X93861904Y-74109523D01*
X93957142Y-74061904D01*
X94004761Y-74014285D01*
X94052380Y-73919047D01*
X94052380Y-73728571D01*
X94004761Y-73633333D01*
X93957142Y-73585714D01*
X93861904Y-73538095D01*
X93623809Y-73538095D01*
X93528571Y-73585714D01*
X93480952Y-73633333D01*
X93433333Y-73728571D01*
X93433333Y-73919047D01*
X93480952Y-74014285D01*
X93528571Y-74061904D01*
X93623809Y-74109523D01*
%TO.C,R12*%
X83957142Y-131752380D02*
X83623809Y-131276190D01*
X83385714Y-131752380D02*
X83385714Y-130752380D01*
X83766666Y-130752380D01*
X83861904Y-130800000D01*
X83909523Y-130847619D01*
X83957142Y-130942857D01*
X83957142Y-131085714D01*
X83909523Y-131180952D01*
X83861904Y-131228571D01*
X83766666Y-131276190D01*
X83385714Y-131276190D01*
X84909523Y-131752380D02*
X84338095Y-131752380D01*
X84623809Y-131752380D02*
X84623809Y-130752380D01*
X84528571Y-130895238D01*
X84433333Y-130990476D01*
X84338095Y-131038095D01*
X85290476Y-130847619D02*
X85338095Y-130800000D01*
X85433333Y-130752380D01*
X85671428Y-130752380D01*
X85766666Y-130800000D01*
X85814285Y-130847619D01*
X85861904Y-130942857D01*
X85861904Y-131038095D01*
X85814285Y-131180952D01*
X85242857Y-131752380D01*
X85861904Y-131752380D01*
%TO.C,R11*%
X105402380Y-72042857D02*
X104926190Y-72376190D01*
X105402380Y-72614285D02*
X104402380Y-72614285D01*
X104402380Y-72233333D01*
X104450000Y-72138095D01*
X104497619Y-72090476D01*
X104592857Y-72042857D01*
X104735714Y-72042857D01*
X104830952Y-72090476D01*
X104878571Y-72138095D01*
X104926190Y-72233333D01*
X104926190Y-72614285D01*
X105402380Y-71090476D02*
X105402380Y-71661904D01*
X105402380Y-71376190D02*
X104402380Y-71376190D01*
X104545238Y-71471428D01*
X104640476Y-71566666D01*
X104688095Y-71661904D01*
X105402380Y-70138095D02*
X105402380Y-70709523D01*
X105402380Y-70423809D02*
X104402380Y-70423809D01*
X104545238Y-70519047D01*
X104640476Y-70614285D01*
X104688095Y-70709523D01*
%TO.C,R10*%
X92202380Y-71442857D02*
X91726190Y-71776190D01*
X92202380Y-72014285D02*
X91202380Y-72014285D01*
X91202380Y-71633333D01*
X91250000Y-71538095D01*
X91297619Y-71490476D01*
X91392857Y-71442857D01*
X91535714Y-71442857D01*
X91630952Y-71490476D01*
X91678571Y-71538095D01*
X91726190Y-71633333D01*
X91726190Y-72014285D01*
X92202380Y-70490476D02*
X92202380Y-71061904D01*
X92202380Y-70776190D02*
X91202380Y-70776190D01*
X91345238Y-70871428D01*
X91440476Y-70966666D01*
X91488095Y-71061904D01*
X91202380Y-69871428D02*
X91202380Y-69776190D01*
X91250000Y-69680952D01*
X91297619Y-69633333D01*
X91392857Y-69585714D01*
X91583333Y-69538095D01*
X91821428Y-69538095D01*
X92011904Y-69585714D01*
X92107142Y-69633333D01*
X92154761Y-69680952D01*
X92202380Y-69776190D01*
X92202380Y-69871428D01*
X92154761Y-69966666D01*
X92107142Y-70014285D01*
X92011904Y-70061904D01*
X91821428Y-70109523D01*
X91583333Y-70109523D01*
X91392857Y-70061904D01*
X91297619Y-70014285D01*
X91250000Y-69966666D01*
X91202380Y-69871428D01*
%TO.C,R9*%
X97652380Y-69966666D02*
X97176190Y-70300000D01*
X97652380Y-70538095D02*
X96652380Y-70538095D01*
X96652380Y-70157142D01*
X96700000Y-70061904D01*
X96747619Y-70014285D01*
X96842857Y-69966666D01*
X96985714Y-69966666D01*
X97080952Y-70014285D01*
X97128571Y-70061904D01*
X97176190Y-70157142D01*
X97176190Y-70538095D01*
X97652380Y-69490476D02*
X97652380Y-69300000D01*
X97604761Y-69204761D01*
X97557142Y-69157142D01*
X97414285Y-69061904D01*
X97223809Y-69014285D01*
X96842857Y-69014285D01*
X96747619Y-69061904D01*
X96700000Y-69109523D01*
X96652380Y-69204761D01*
X96652380Y-69395238D01*
X96700000Y-69490476D01*
X96747619Y-69538095D01*
X96842857Y-69585714D01*
X97080952Y-69585714D01*
X97176190Y-69538095D01*
X97223809Y-69490476D01*
X97271428Y-69395238D01*
X97271428Y-69204761D01*
X97223809Y-69109523D01*
X97176190Y-69061904D01*
X97080952Y-69014285D01*
%TO.C,D5*%
X109252380Y-65050895D02*
X108252380Y-65050895D01*
X108252380Y-64812800D01*
X108300000Y-64669942D01*
X108395238Y-64574704D01*
X108490476Y-64527085D01*
X108680952Y-64479466D01*
X108823809Y-64479466D01*
X109014285Y-64527085D01*
X109109523Y-64574704D01*
X109204761Y-64669942D01*
X109252380Y-64812800D01*
X109252380Y-65050895D01*
X108252380Y-63574704D02*
X108252380Y-64050895D01*
X108728571Y-64098514D01*
X108680952Y-64050895D01*
X108633333Y-63955657D01*
X108633333Y-63717561D01*
X108680952Y-63622323D01*
X108728571Y-63574704D01*
X108823809Y-63527085D01*
X109061904Y-63527085D01*
X109157142Y-63574704D01*
X109204761Y-63622323D01*
X109252380Y-63717561D01*
X109252380Y-63955657D01*
X109204761Y-64050895D01*
X109157142Y-64098514D01*
X108932380Y-60764704D02*
X107932380Y-60764704D01*
X108932380Y-60193276D02*
X108360952Y-60621847D01*
X107932380Y-60193276D02*
X108503809Y-60764704D01*
%TO.C,D4*%
X104252380Y-110038095D02*
X103252380Y-110038095D01*
X103252380Y-109800000D01*
X103300000Y-109657142D01*
X103395238Y-109561904D01*
X103490476Y-109514285D01*
X103680952Y-109466666D01*
X103823809Y-109466666D01*
X104014285Y-109514285D01*
X104109523Y-109561904D01*
X104204761Y-109657142D01*
X104252380Y-109800000D01*
X104252380Y-110038095D01*
X103585714Y-108609523D02*
X104252380Y-108609523D01*
X103204761Y-108847619D02*
X103919047Y-109085714D01*
X103919047Y-108466666D01*
%TO.C,D1*%
X116452380Y-104638095D02*
X115452380Y-104638095D01*
X115452380Y-104400000D01*
X115500000Y-104257142D01*
X115595238Y-104161904D01*
X115690476Y-104114285D01*
X115880952Y-104066666D01*
X116023809Y-104066666D01*
X116214285Y-104114285D01*
X116309523Y-104161904D01*
X116404761Y-104257142D01*
X116452380Y-104400000D01*
X116452380Y-104638095D01*
X116452380Y-103114285D02*
X116452380Y-103685714D01*
X116452380Y-103400000D02*
X115452380Y-103400000D01*
X115595238Y-103495238D01*
X115690476Y-103590476D01*
X115738095Y-103685714D01*
X114252380Y-103161904D02*
X113252380Y-103161904D01*
X114252380Y-102590476D02*
X113680952Y-103019047D01*
X113252380Y-102590476D02*
X113823809Y-103161904D01*
%TO.C,C10*%
X88619642Y-118277142D02*
X88572023Y-118324761D01*
X88429166Y-118372380D01*
X88333928Y-118372380D01*
X88191071Y-118324761D01*
X88095833Y-118229523D01*
X88048214Y-118134285D01*
X88000595Y-117943809D01*
X88000595Y-117800952D01*
X88048214Y-117610476D01*
X88095833Y-117515238D01*
X88191071Y-117420000D01*
X88333928Y-117372380D01*
X88429166Y-117372380D01*
X88572023Y-117420000D01*
X88619642Y-117467619D01*
X89572023Y-118372380D02*
X89000595Y-118372380D01*
X89286309Y-118372380D02*
X89286309Y-117372380D01*
X89191071Y-117515238D01*
X89095833Y-117610476D01*
X89000595Y-117658095D01*
X90191071Y-117372380D02*
X90286309Y-117372380D01*
X90381547Y-117420000D01*
X90429166Y-117467619D01*
X90476785Y-117562857D01*
X90524404Y-117753333D01*
X90524404Y-117991428D01*
X90476785Y-118181904D01*
X90429166Y-118277142D01*
X90381547Y-118324761D01*
X90286309Y-118372380D01*
X90191071Y-118372380D01*
X90095833Y-118324761D01*
X90048214Y-118277142D01*
X90000595Y-118181904D01*
X89952976Y-117991428D01*
X89952976Y-117753333D01*
X90000595Y-117562857D01*
X90048214Y-117467619D01*
X90095833Y-117420000D01*
X90191071Y-117372380D01*
%TO.C,C9*%
X108637142Y-75529166D02*
X108684761Y-75576785D01*
X108732380Y-75719642D01*
X108732380Y-75814880D01*
X108684761Y-75957738D01*
X108589523Y-76052976D01*
X108494285Y-76100595D01*
X108303809Y-76148214D01*
X108160952Y-76148214D01*
X107970476Y-76100595D01*
X107875238Y-76052976D01*
X107780000Y-75957738D01*
X107732380Y-75814880D01*
X107732380Y-75719642D01*
X107780000Y-75576785D01*
X107827619Y-75529166D01*
X108732380Y-75052976D02*
X108732380Y-74862500D01*
X108684761Y-74767261D01*
X108637142Y-74719642D01*
X108494285Y-74624404D01*
X108303809Y-74576785D01*
X107922857Y-74576785D01*
X107827619Y-74624404D01*
X107780000Y-74672023D01*
X107732380Y-74767261D01*
X107732380Y-74957738D01*
X107780000Y-75052976D01*
X107827619Y-75100595D01*
X107922857Y-75148214D01*
X108160952Y-75148214D01*
X108256190Y-75100595D01*
X108303809Y-75052976D01*
X108351428Y-74957738D01*
X108351428Y-74767261D01*
X108303809Y-74672023D01*
X108256190Y-74624404D01*
X108160952Y-74576785D01*
%TO.C,C7*%
X92633333Y-63357142D02*
X92585714Y-63404761D01*
X92442857Y-63452380D01*
X92347619Y-63452380D01*
X92204761Y-63404761D01*
X92109523Y-63309523D01*
X92061904Y-63214285D01*
X92014285Y-63023809D01*
X92014285Y-62880952D01*
X92061904Y-62690476D01*
X92109523Y-62595238D01*
X92204761Y-62500000D01*
X92347619Y-62452380D01*
X92442857Y-62452380D01*
X92585714Y-62500000D01*
X92633333Y-62547619D01*
X92966666Y-62452380D02*
X93633333Y-62452380D01*
X93204761Y-63452380D01*
%TD*%
M02*
