%TF.GenerationSoftware,KiCad,Pcbnew,5.1.10*%
%TF.CreationDate,2021-09-21T18:47:02-07:00*%
%TF.ProjectId,MainBoard,4d61696e-426f-4617-9264-2e6b69636164,rev?*%
%TF.SameCoordinates,Original*%
%TF.FileFunction,Soldermask,Bot*%
%TF.FilePolarity,Negative*%
%FSLAX46Y46*%
G04 Gerber Fmt 4.6, Leading zero omitted, Abs format (unit mm)*
G04 Created by KiCad (PCBNEW 5.1.10) date 2021-09-21 18:47:02*
%MOMM*%
%LPD*%
G01*
G04 APERTURE LIST*
%ADD10R,1.500000X1.500000*%
%ADD11C,1.500000*%
%ADD12O,1.600000X1.600000*%
%ADD13R,1.600000X1.600000*%
%ADD14R,0.650000X1.700000*%
%ADD15C,2.000000*%
%ADD16C,2.100000*%
%ADD17R,2.600000X2.000000*%
%ADD18R,2.000000X2.600000*%
%ADD19C,2.400000*%
%ADD20C,1.150000*%
%ADD21R,1.150000X1.150000*%
%ADD22R,2.000000X2.000000*%
G04 APERTURE END LIST*
D10*
%TO.C,Q1*%
X85000000Y-111800000D03*
D11*
X85000000Y-117000000D03*
X85000000Y-114400000D03*
%TD*%
D10*
%TO.C,Q2*%
X85100000Y-124800000D03*
D11*
X85100000Y-119600000D03*
X85100000Y-122200000D03*
%TD*%
D12*
%TO.C,D2*%
X114600000Y-98800000D03*
D13*
X114600000Y-93720000D03*
%TD*%
D14*
%TO.C,IC1*%
X102305000Y-91150000D03*
X101035000Y-91150000D03*
X99765000Y-91150000D03*
X98495000Y-91150000D03*
X98495000Y-98450000D03*
X99765000Y-98450000D03*
X101035000Y-98450000D03*
X102305000Y-98450000D03*
%TD*%
D15*
%TO.C,SW1*%
X94800000Y-130226400D03*
X94800000Y-139826400D03*
X94800000Y-135026400D03*
X105400000Y-130226400D03*
X105400000Y-139826400D03*
X105400000Y-135026400D03*
X100100000Y-130225800D03*
X100100000Y-135026400D03*
X100100000Y-139827000D03*
%TD*%
D16*
%TO.C,R21*%
X102540000Y-83921600D03*
X100000000Y-83921600D03*
X97460000Y-83921600D03*
%TD*%
%TO.C,R20*%
X102540000Y-79933800D03*
X100000000Y-79933800D03*
X97460000Y-79933800D03*
%TD*%
%TO.C,R19*%
X102540000Y-87909400D03*
X100000000Y-87909400D03*
X97460000Y-87909400D03*
%TD*%
D17*
%TO.C,J3*%
X99999800Y-61465200D03*
X99999800Y-67465200D03*
D18*
X95299800Y-64465200D03*
%TD*%
D19*
%TO.C,J2*%
X105689400Y-105877600D03*
X92989400Y-105877600D03*
X105689400Y-94477600D03*
X92989400Y-94477600D03*
%TD*%
%TO.C,J1*%
X94335600Y-112689400D03*
X107035600Y-112689400D03*
X94335600Y-124089400D03*
X107035600Y-124089400D03*
%TD*%
D20*
%TO.C,C12*%
X100000000Y-74900000D03*
D21*
X100000000Y-72400000D03*
%TD*%
%TO.C,R23*%
G36*
G01*
X94200000Y-109650001D02*
X94200000Y-108749999D01*
G75*
G02*
X94449999Y-108500000I249999J0D01*
G01*
X95150001Y-108500000D01*
G75*
G02*
X95400000Y-108749999I0J-249999D01*
G01*
X95400000Y-109650001D01*
G75*
G02*
X95150001Y-109900000I-249999J0D01*
G01*
X94449999Y-109900000D01*
G75*
G02*
X94200000Y-109650001I0J249999D01*
G01*
G37*
G36*
G01*
X92200000Y-109650001D02*
X92200000Y-108749999D01*
G75*
G02*
X92449999Y-108500000I249999J0D01*
G01*
X93150001Y-108500000D01*
G75*
G02*
X93400000Y-108749999I0J-249999D01*
G01*
X93400000Y-109650001D01*
G75*
G02*
X93150001Y-109900000I-249999J0D01*
G01*
X92449999Y-109900000D01*
G75*
G02*
X92200000Y-109650001I0J249999D01*
G01*
G37*
%TD*%
%TO.C,R22*%
G36*
G01*
X102400000Y-132749999D02*
X102400000Y-133650001D01*
G75*
G02*
X102150001Y-133900000I-249999J0D01*
G01*
X101449999Y-133900000D01*
G75*
G02*
X101200000Y-133650001I0J249999D01*
G01*
X101200000Y-132749999D01*
G75*
G02*
X101449999Y-132500000I249999J0D01*
G01*
X102150001Y-132500000D01*
G75*
G02*
X102400000Y-132749999I0J-249999D01*
G01*
G37*
G36*
G01*
X104400000Y-132749999D02*
X104400000Y-133650001D01*
G75*
G02*
X104150001Y-133900000I-249999J0D01*
G01*
X103449999Y-133900000D01*
G75*
G02*
X103200000Y-133650001I0J249999D01*
G01*
X103200000Y-132749999D01*
G75*
G02*
X103449999Y-132500000I249999J0D01*
G01*
X104150001Y-132500000D01*
G75*
G02*
X104400000Y-132749999I0J-249999D01*
G01*
G37*
%TD*%
%TO.C,R17*%
G36*
G01*
X106749999Y-90000000D02*
X107650001Y-90000000D01*
G75*
G02*
X107900000Y-90249999I0J-249999D01*
G01*
X107900000Y-90950001D01*
G75*
G02*
X107650001Y-91200000I-249999J0D01*
G01*
X106749999Y-91200000D01*
G75*
G02*
X106500000Y-90950001I0J249999D01*
G01*
X106500000Y-90249999D01*
G75*
G02*
X106749999Y-90000000I249999J0D01*
G01*
G37*
G36*
G01*
X106749999Y-88000000D02*
X107650001Y-88000000D01*
G75*
G02*
X107900000Y-88249999I0J-249999D01*
G01*
X107900000Y-88950001D01*
G75*
G02*
X107650001Y-89200000I-249999J0D01*
G01*
X106749999Y-89200000D01*
G75*
G02*
X106500000Y-88950001I0J249999D01*
G01*
X106500000Y-88249999D01*
G75*
G02*
X106749999Y-88000000I249999J0D01*
G01*
G37*
%TD*%
%TO.C,R15*%
G36*
G01*
X90250001Y-125600000D02*
X89349999Y-125600000D01*
G75*
G02*
X89100000Y-125350001I0J249999D01*
G01*
X89100000Y-124649999D01*
G75*
G02*
X89349999Y-124400000I249999J0D01*
G01*
X90250001Y-124400000D01*
G75*
G02*
X90500000Y-124649999I0J-249999D01*
G01*
X90500000Y-125350001D01*
G75*
G02*
X90250001Y-125600000I-249999J0D01*
G01*
G37*
G36*
G01*
X90250001Y-127600000D02*
X89349999Y-127600000D01*
G75*
G02*
X89100000Y-127350001I0J249999D01*
G01*
X89100000Y-126649999D01*
G75*
G02*
X89349999Y-126400000I249999J0D01*
G01*
X90250001Y-126400000D01*
G75*
G02*
X90500000Y-126649999I0J-249999D01*
G01*
X90500000Y-127350001D01*
G75*
G02*
X90250001Y-127600000I-249999J0D01*
G01*
G37*
%TD*%
%TO.C,R14*%
G36*
G01*
X93600000Y-127050001D02*
X93600000Y-126149999D01*
G75*
G02*
X93849999Y-125900000I249999J0D01*
G01*
X94550001Y-125900000D01*
G75*
G02*
X94800000Y-126149999I0J-249999D01*
G01*
X94800000Y-127050001D01*
G75*
G02*
X94550001Y-127300000I-249999J0D01*
G01*
X93849999Y-127300000D01*
G75*
G02*
X93600000Y-127050001I0J249999D01*
G01*
G37*
G36*
G01*
X91600000Y-127050001D02*
X91600000Y-126149999D01*
G75*
G02*
X91849999Y-125900000I249999J0D01*
G01*
X92550001Y-125900000D01*
G75*
G02*
X92800000Y-126149999I0J-249999D01*
G01*
X92800000Y-127050001D01*
G75*
G02*
X92550001Y-127300000I-249999J0D01*
G01*
X91849999Y-127300000D01*
G75*
G02*
X91600000Y-127050001I0J249999D01*
G01*
G37*
%TD*%
%TO.C,R13*%
G36*
G01*
X96850001Y-127000000D02*
X95949999Y-127000000D01*
G75*
G02*
X95700000Y-126750001I0J249999D01*
G01*
X95700000Y-126049999D01*
G75*
G02*
X95949999Y-125800000I249999J0D01*
G01*
X96850001Y-125800000D01*
G75*
G02*
X97100000Y-126049999I0J-249999D01*
G01*
X97100000Y-126750001D01*
G75*
G02*
X96850001Y-127000000I-249999J0D01*
G01*
G37*
G36*
G01*
X96850001Y-129000000D02*
X95949999Y-129000000D01*
G75*
G02*
X95700000Y-128750001I0J249999D01*
G01*
X95700000Y-128049999D01*
G75*
G02*
X95949999Y-127800000I249999J0D01*
G01*
X96850001Y-127800000D01*
G75*
G02*
X97100000Y-128049999I0J-249999D01*
G01*
X97100000Y-128750001D01*
G75*
G02*
X96850001Y-129000000I-249999J0D01*
G01*
G37*
%TD*%
%TO.C,R8*%
G36*
G01*
X95949999Y-95200000D02*
X96850001Y-95200000D01*
G75*
G02*
X97100000Y-95449999I0J-249999D01*
G01*
X97100000Y-96150001D01*
G75*
G02*
X96850001Y-96400000I-249999J0D01*
G01*
X95949999Y-96400000D01*
G75*
G02*
X95700000Y-96150001I0J249999D01*
G01*
X95700000Y-95449999D01*
G75*
G02*
X95949999Y-95200000I249999J0D01*
G01*
G37*
G36*
G01*
X95949999Y-93200000D02*
X96850001Y-93200000D01*
G75*
G02*
X97100000Y-93449999I0J-249999D01*
G01*
X97100000Y-94150001D01*
G75*
G02*
X96850001Y-94400000I-249999J0D01*
G01*
X95949999Y-94400000D01*
G75*
G02*
X95700000Y-94150001I0J249999D01*
G01*
X95700000Y-93449999D01*
G75*
G02*
X95949999Y-93200000I249999J0D01*
G01*
G37*
%TD*%
%TO.C,R7*%
G36*
G01*
X107000000Y-85850001D02*
X107000000Y-84949999D01*
G75*
G02*
X107249999Y-84700000I249999J0D01*
G01*
X107950001Y-84700000D01*
G75*
G02*
X108200000Y-84949999I0J-249999D01*
G01*
X108200000Y-85850001D01*
G75*
G02*
X107950001Y-86100000I-249999J0D01*
G01*
X107249999Y-86100000D01*
G75*
G02*
X107000000Y-85850001I0J249999D01*
G01*
G37*
G36*
G01*
X105000000Y-85850001D02*
X105000000Y-84949999D01*
G75*
G02*
X105249999Y-84700000I249999J0D01*
G01*
X105950001Y-84700000D01*
G75*
G02*
X106200000Y-84949999I0J-249999D01*
G01*
X106200000Y-85850001D01*
G75*
G02*
X105950001Y-86100000I-249999J0D01*
G01*
X105249999Y-86100000D01*
G75*
G02*
X105000000Y-85850001I0J249999D01*
G01*
G37*
%TD*%
%TO.C,R6*%
G36*
G01*
X113249999Y-78600000D02*
X114150001Y-78600000D01*
G75*
G02*
X114400000Y-78849999I0J-249999D01*
G01*
X114400000Y-79550001D01*
G75*
G02*
X114150001Y-79800000I-249999J0D01*
G01*
X113249999Y-79800000D01*
G75*
G02*
X113000000Y-79550001I0J249999D01*
G01*
X113000000Y-78849999D01*
G75*
G02*
X113249999Y-78600000I249999J0D01*
G01*
G37*
G36*
G01*
X113249999Y-76600000D02*
X114150001Y-76600000D01*
G75*
G02*
X114400000Y-76849999I0J-249999D01*
G01*
X114400000Y-77550001D01*
G75*
G02*
X114150001Y-77800000I-249999J0D01*
G01*
X113249999Y-77800000D01*
G75*
G02*
X113000000Y-77550001I0J249999D01*
G01*
X113000000Y-76849999D01*
G75*
G02*
X113249999Y-76600000I249999J0D01*
G01*
G37*
%TD*%
%TO.C,R5*%
G36*
G01*
X100250001Y-101200000D02*
X99349999Y-101200000D01*
G75*
G02*
X99100000Y-100950001I0J249999D01*
G01*
X99100000Y-100249999D01*
G75*
G02*
X99349999Y-100000000I249999J0D01*
G01*
X100250001Y-100000000D01*
G75*
G02*
X100500000Y-100249999I0J-249999D01*
G01*
X100500000Y-100950001D01*
G75*
G02*
X100250001Y-101200000I-249999J0D01*
G01*
G37*
G36*
G01*
X100250001Y-103200000D02*
X99349999Y-103200000D01*
G75*
G02*
X99100000Y-102950001I0J249999D01*
G01*
X99100000Y-102249999D01*
G75*
G02*
X99349999Y-102000000I249999J0D01*
G01*
X100250001Y-102000000D01*
G75*
G02*
X100500000Y-102249999I0J-249999D01*
G01*
X100500000Y-102950001D01*
G75*
G02*
X100250001Y-103200000I-249999J0D01*
G01*
G37*
%TD*%
%TO.C,R3*%
G36*
G01*
X94050001Y-99000000D02*
X93149999Y-99000000D01*
G75*
G02*
X92900000Y-98750001I0J249999D01*
G01*
X92900000Y-98049999D01*
G75*
G02*
X93149999Y-97800000I249999J0D01*
G01*
X94050001Y-97800000D01*
G75*
G02*
X94300000Y-98049999I0J-249999D01*
G01*
X94300000Y-98750001D01*
G75*
G02*
X94050001Y-99000000I-249999J0D01*
G01*
G37*
G36*
G01*
X94050001Y-101000000D02*
X93149999Y-101000000D01*
G75*
G02*
X92900000Y-100750001I0J249999D01*
G01*
X92900000Y-100049999D01*
G75*
G02*
X93149999Y-99800000I249999J0D01*
G01*
X94050001Y-99800000D01*
G75*
G02*
X94300000Y-100049999I0J-249999D01*
G01*
X94300000Y-100750001D01*
G75*
G02*
X94050001Y-101000000I-249999J0D01*
G01*
G37*
%TD*%
%TO.C,R2*%
G36*
G01*
X90800000Y-133250001D02*
X90800000Y-132349999D01*
G75*
G02*
X91049999Y-132100000I249999J0D01*
G01*
X91750001Y-132100000D01*
G75*
G02*
X92000000Y-132349999I0J-249999D01*
G01*
X92000000Y-133250001D01*
G75*
G02*
X91750001Y-133500000I-249999J0D01*
G01*
X91049999Y-133500000D01*
G75*
G02*
X90800000Y-133250001I0J249999D01*
G01*
G37*
G36*
G01*
X88800000Y-133250001D02*
X88800000Y-132349999D01*
G75*
G02*
X89049999Y-132100000I249999J0D01*
G01*
X89750001Y-132100000D01*
G75*
G02*
X90000000Y-132349999I0J-249999D01*
G01*
X90000000Y-133250001D01*
G75*
G02*
X89750001Y-133500000I-249999J0D01*
G01*
X89049999Y-133500000D01*
G75*
G02*
X88800000Y-133250001I0J249999D01*
G01*
G37*
%TD*%
%TO.C,R1*%
G36*
G01*
X94600000Y-133250001D02*
X94600000Y-132349999D01*
G75*
G02*
X94849999Y-132100000I249999J0D01*
G01*
X95550001Y-132100000D01*
G75*
G02*
X95800000Y-132349999I0J-249999D01*
G01*
X95800000Y-133250001D01*
G75*
G02*
X95550001Y-133500000I-249999J0D01*
G01*
X94849999Y-133500000D01*
G75*
G02*
X94600000Y-133250001I0J249999D01*
G01*
G37*
G36*
G01*
X92600000Y-133250001D02*
X92600000Y-132349999D01*
G75*
G02*
X92849999Y-132100000I249999J0D01*
G01*
X93550001Y-132100000D01*
G75*
G02*
X93800000Y-132349999I0J-249999D01*
G01*
X93800000Y-133250001D01*
G75*
G02*
X93550001Y-133500000I-249999J0D01*
G01*
X92849999Y-133500000D01*
G75*
G02*
X92600000Y-133250001I0J249999D01*
G01*
G37*
%TD*%
D12*
%TO.C,D5*%
X106680000Y-68122800D03*
D13*
X106680000Y-60502800D03*
%TD*%
D22*
%TO.C,D4*%
X98730000Y-109283560D03*
D15*
X101270000Y-109283560D03*
%TD*%
D12*
%TO.C,D1*%
X114600000Y-106480000D03*
D13*
X114600000Y-101400000D03*
%TD*%
%TO.C,C11*%
G36*
G01*
X91412500Y-129475000D02*
X91412500Y-128525000D01*
G75*
G02*
X91662500Y-128275000I250000J0D01*
G01*
X92337500Y-128275000D01*
G75*
G02*
X92587500Y-128525000I0J-250000D01*
G01*
X92587500Y-129475000D01*
G75*
G02*
X92337500Y-129725000I-250000J0D01*
G01*
X91662500Y-129725000D01*
G75*
G02*
X91412500Y-129475000I0J250000D01*
G01*
G37*
G36*
G01*
X89337500Y-129475000D02*
X89337500Y-128525000D01*
G75*
G02*
X89587500Y-128275000I250000J0D01*
G01*
X90262500Y-128275000D01*
G75*
G02*
X90512500Y-128525000I0J-250000D01*
G01*
X90512500Y-129475000D01*
G75*
G02*
X90262500Y-129725000I-250000J0D01*
G01*
X89587500Y-129725000D01*
G75*
G02*
X89337500Y-129475000I0J250000D01*
G01*
G37*
%TD*%
%TO.C,C8*%
G36*
G01*
X109887500Y-93675000D02*
X109887500Y-92725000D01*
G75*
G02*
X110137500Y-92475000I250000J0D01*
G01*
X110812500Y-92475000D01*
G75*
G02*
X111062500Y-92725000I0J-250000D01*
G01*
X111062500Y-93675000D01*
G75*
G02*
X110812500Y-93925000I-250000J0D01*
G01*
X110137500Y-93925000D01*
G75*
G02*
X109887500Y-93675000I0J250000D01*
G01*
G37*
G36*
G01*
X107812500Y-93675000D02*
X107812500Y-92725000D01*
G75*
G02*
X108062500Y-92475000I250000J0D01*
G01*
X108737500Y-92475000D01*
G75*
G02*
X108987500Y-92725000I0J-250000D01*
G01*
X108987500Y-93675000D01*
G75*
G02*
X108737500Y-93925000I-250000J0D01*
G01*
X108062500Y-93925000D01*
G75*
G02*
X107812500Y-93675000I0J250000D01*
G01*
G37*
%TD*%
%TO.C,C5*%
G36*
G01*
X94112500Y-90925000D02*
X94112500Y-91875000D01*
G75*
G02*
X93862500Y-92125000I-250000J0D01*
G01*
X93187500Y-92125000D01*
G75*
G02*
X92937500Y-91875000I0J250000D01*
G01*
X92937500Y-90925000D01*
G75*
G02*
X93187500Y-90675000I250000J0D01*
G01*
X93862500Y-90675000D01*
G75*
G02*
X94112500Y-90925000I0J-250000D01*
G01*
G37*
G36*
G01*
X96187500Y-90925000D02*
X96187500Y-91875000D01*
G75*
G02*
X95937500Y-92125000I-250000J0D01*
G01*
X95262500Y-92125000D01*
G75*
G02*
X95012500Y-91875000I0J250000D01*
G01*
X95012500Y-90925000D01*
G75*
G02*
X95262500Y-90675000I250000J0D01*
G01*
X95937500Y-90675000D01*
G75*
G02*
X96187500Y-90925000I0J-250000D01*
G01*
G37*
%TD*%
%TO.C,C4*%
G36*
G01*
X103250000Y-101275000D02*
X103250000Y-100325000D01*
G75*
G02*
X103500000Y-100075000I250000J0D01*
G01*
X104175000Y-100075000D01*
G75*
G02*
X104425000Y-100325000I0J-250000D01*
G01*
X104425000Y-101275000D01*
G75*
G02*
X104175000Y-101525000I-250000J0D01*
G01*
X103500000Y-101525000D01*
G75*
G02*
X103250000Y-101275000I0J250000D01*
G01*
G37*
G36*
G01*
X101175000Y-101275000D02*
X101175000Y-100325000D01*
G75*
G02*
X101425000Y-100075000I250000J0D01*
G01*
X102100000Y-100075000D01*
G75*
G02*
X102350000Y-100325000I0J-250000D01*
G01*
X102350000Y-101275000D01*
G75*
G02*
X102100000Y-101525000I-250000J0D01*
G01*
X101425000Y-101525000D01*
G75*
G02*
X101175000Y-101275000I0J250000D01*
G01*
G37*
%TD*%
%TO.C,C3*%
G36*
G01*
X113150000Y-81775000D02*
X113150000Y-80825000D01*
G75*
G02*
X113400000Y-80575000I250000J0D01*
G01*
X114075000Y-80575000D01*
G75*
G02*
X114325000Y-80825000I0J-250000D01*
G01*
X114325000Y-81775000D01*
G75*
G02*
X114075000Y-82025000I-250000J0D01*
G01*
X113400000Y-82025000D01*
G75*
G02*
X113150000Y-81775000I0J250000D01*
G01*
G37*
G36*
G01*
X111075000Y-81775000D02*
X111075000Y-80825000D01*
G75*
G02*
X111325000Y-80575000I250000J0D01*
G01*
X112000000Y-80575000D01*
G75*
G02*
X112250000Y-80825000I0J-250000D01*
G01*
X112250000Y-81775000D01*
G75*
G02*
X112000000Y-82025000I-250000J0D01*
G01*
X111325000Y-82025000D01*
G75*
G02*
X111075000Y-81775000I0J250000D01*
G01*
G37*
%TD*%
%TO.C,C2*%
G36*
G01*
X97275000Y-101187500D02*
X96325000Y-101187500D01*
G75*
G02*
X96075000Y-100937500I0J250000D01*
G01*
X96075000Y-100262500D01*
G75*
G02*
X96325000Y-100012500I250000J0D01*
G01*
X97275000Y-100012500D01*
G75*
G02*
X97525000Y-100262500I0J-250000D01*
G01*
X97525000Y-100937500D01*
G75*
G02*
X97275000Y-101187500I-250000J0D01*
G01*
G37*
G36*
G01*
X97275000Y-103262500D02*
X96325000Y-103262500D01*
G75*
G02*
X96075000Y-103012500I0J250000D01*
G01*
X96075000Y-102337500D01*
G75*
G02*
X96325000Y-102087500I250000J0D01*
G01*
X97275000Y-102087500D01*
G75*
G02*
X97525000Y-102337500I0J-250000D01*
G01*
X97525000Y-103012500D01*
G75*
G02*
X97275000Y-103262500I-250000J0D01*
G01*
G37*
%TD*%
%TO.C,C1*%
G36*
G01*
X98650000Y-133275000D02*
X98650000Y-132325000D01*
G75*
G02*
X98900000Y-132075000I250000J0D01*
G01*
X99575000Y-132075000D01*
G75*
G02*
X99825000Y-132325000I0J-250000D01*
G01*
X99825000Y-133275000D01*
G75*
G02*
X99575000Y-133525000I-250000J0D01*
G01*
X98900000Y-133525000D01*
G75*
G02*
X98650000Y-133275000I0J250000D01*
G01*
G37*
G36*
G01*
X96575000Y-133275000D02*
X96575000Y-132325000D01*
G75*
G02*
X96825000Y-132075000I250000J0D01*
G01*
X97500000Y-132075000D01*
G75*
G02*
X97750000Y-132325000I0J-250000D01*
G01*
X97750000Y-133275000D01*
G75*
G02*
X97500000Y-133525000I-250000J0D01*
G01*
X96825000Y-133525000D01*
G75*
G02*
X96575000Y-133275000I0J250000D01*
G01*
G37*
%TD*%
M02*
