%TF.GenerationSoftware,KiCad,Pcbnew,5.1.10*%
%TF.CreationDate,2021-09-21T18:47:02-07:00*%
%TF.ProjectId,MainBoard,4d61696e-426f-4617-9264-2e6b69636164,rev?*%
%TF.SameCoordinates,Original*%
%TF.FileFunction,Copper,L2,Bot*%
%TF.FilePolarity,Positive*%
%FSLAX46Y46*%
G04 Gerber Fmt 4.6, Leading zero omitted, Abs format (unit mm)*
G04 Created by KiCad (PCBNEW 5.1.10) date 2021-09-21 18:47:02*
%MOMM*%
%LPD*%
G01*
G04 APERTURE LIST*
%TA.AperFunction,ComponentPad*%
%ADD10R,1.500000X1.500000*%
%TD*%
%TA.AperFunction,ComponentPad*%
%ADD11C,1.500000*%
%TD*%
%TA.AperFunction,ComponentPad*%
%ADD12O,1.600000X1.600000*%
%TD*%
%TA.AperFunction,ComponentPad*%
%ADD13R,1.600000X1.600000*%
%TD*%
%TA.AperFunction,SMDPad,CuDef*%
%ADD14R,0.650000X1.700000*%
%TD*%
%TA.AperFunction,ComponentPad*%
%ADD15C,2.000000*%
%TD*%
%TA.AperFunction,ComponentPad*%
%ADD16C,2.100000*%
%TD*%
%TA.AperFunction,ComponentPad*%
%ADD17R,2.600000X2.000000*%
%TD*%
%TA.AperFunction,ComponentPad*%
%ADD18R,2.000000X2.600000*%
%TD*%
%TA.AperFunction,ComponentPad*%
%ADD19C,2.400000*%
%TD*%
%TA.AperFunction,ComponentPad*%
%ADD20C,1.150000*%
%TD*%
%TA.AperFunction,ComponentPad*%
%ADD21R,1.150000X1.150000*%
%TD*%
%TA.AperFunction,ComponentPad*%
%ADD22R,2.000000X2.000000*%
%TD*%
%TA.AperFunction,ViaPad*%
%ADD23C,0.800000*%
%TD*%
%TA.AperFunction,Conductor*%
%ADD24C,1.250000*%
%TD*%
%TA.AperFunction,Conductor*%
%ADD25C,1.000000*%
%TD*%
%TA.AperFunction,Conductor*%
%ADD26C,1.500000*%
%TD*%
%TA.AperFunction,Conductor*%
%ADD27C,0.750000*%
%TD*%
%TA.AperFunction,Conductor*%
%ADD28C,0.500000*%
%TD*%
%TA.AperFunction,Conductor*%
%ADD29C,0.250000*%
%TD*%
%TA.AperFunction,Conductor*%
%ADD30C,2.000000*%
%TD*%
%TA.AperFunction,Conductor*%
%ADD31C,0.254000*%
%TD*%
%TA.AperFunction,Conductor*%
%ADD32C,0.100000*%
%TD*%
G04 APERTURE END LIST*
D10*
%TO.P,Q1,1*%
%TO.N,/drive/IN*%
X85000000Y-111800000D03*
D11*
%TO.P,Q1,3*%
%TO.N,+9V*%
X85000000Y-117000000D03*
%TO.P,Q1,2*%
%TO.N,Net-(Q1-Pad2)*%
X85000000Y-114400000D03*
%TD*%
D10*
%TO.P,Q2,1*%
%TO.N,Net-(Q2-Pad1)*%
X85100000Y-124800000D03*
D11*
%TO.P,Q2,3*%
%TO.N,+9V*%
X85100000Y-119600000D03*
%TO.P,Q2,2*%
%TO.N,Net-(C10-Pad1)*%
X85100000Y-122200000D03*
%TD*%
D12*
%TO.P,D2,2*%
%TO.N,Net-(C3-Pad1)*%
X114600000Y-98800000D03*
D13*
%TO.P,D2,1*%
%TO.N,Net-(C4-Pad2)*%
X114600000Y-93720000D03*
%TD*%
D14*
%TO.P,IC1,8*%
%TO.N,+9V*%
X102305000Y-91150000D03*
%TO.P,IC1,7*%
%TO.N,/volume/IN*%
X101035000Y-91150000D03*
%TO.P,IC1,6*%
%TO.N,Net-(IC1-Pad6)*%
X99765000Y-91150000D03*
%TO.P,IC1,5*%
%TO.N,/tone/IN*%
X98495000Y-91150000D03*
%TO.P,IC1,4*%
%TO.N,0*%
X98495000Y-98450000D03*
%TO.P,IC1,3*%
%TO.N,Net-(C2-Pad2)*%
X99765000Y-98450000D03*
%TO.P,IC1,2*%
%TO.N,Net-(C3-Pad1)*%
X101035000Y-98450000D03*
%TO.P,IC1,1*%
%TO.N,Net-(C4-Pad2)*%
X102305000Y-98450000D03*
%TD*%
D15*
%TO.P,SW1,7*%
%TO.N,/EFFECT_OUT*%
X94800000Y-130226400D03*
%TO.P,SW1,9*%
%TO.N,/PassThru*%
X94800000Y-139826400D03*
%TO.P,SW1,8*%
%TO.N,/SIG_OUT*%
X94800000Y-135026400D03*
%TO.P,SW1,1*%
%TO.N,/PassThru*%
X105400000Y-130226400D03*
%TO.P,SW1,3*%
%TO.N,Net-(SW1-Pad3)*%
X105400000Y-139826400D03*
%TO.P,SW1,2*%
%TO.N,/SIG_IN*%
X105400000Y-135026400D03*
%TO.P,SW1,4*%
%TO.N,Net-(D4-Pad1)*%
X100100000Y-130225800D03*
%TO.P,SW1,5*%
%TO.N,0*%
X100100000Y-135026400D03*
%TO.P,SW1,6*%
%TO.N,Net-(SW1-Pad3)*%
X100100000Y-139827000D03*
%TD*%
D16*
%TO.P,R21,3*%
%TO.N,VCC*%
X102540000Y-83921600D03*
%TO.P,R21,2*%
%TO.N,Net-(C10-Pad2)*%
X100000000Y-83921600D03*
%TO.P,R21,1*%
%TO.N,Net-(R18-Pad1)*%
X97460000Y-83921600D03*
%TD*%
%TO.P,R20,3*%
%TO.N,Net-(IC1-Pad6)*%
X102540000Y-79933800D03*
%TO.P,R20,2*%
%TO.N,Net-(C9-Pad2)*%
X100000000Y-79933800D03*
%TO.P,R20,1*%
%TO.N,/tone/IN*%
X97460000Y-79933800D03*
%TD*%
%TO.P,R19,3*%
%TO.N,Net-(R19-Pad3)*%
X102540000Y-87909400D03*
%TO.P,R19,2*%
%TO.N,Net-(C4-Pad2)*%
X100000000Y-87909400D03*
%TO.P,R19,1*%
%TO.N,N/C*%
X97460000Y-87909400D03*
%TD*%
D17*
%TO.P,J3,2*%
%TO.N,+9V*%
X99999800Y-61465200D03*
%TO.P,J3,1*%
%TO.N,0*%
X99999800Y-67465200D03*
D18*
%TO.P,J3,3*%
X95299800Y-64465200D03*
%TD*%
D19*
%TO.P,J2,T*%
%TO.N,/SIG_OUT*%
X105689400Y-105877600D03*
%TO.P,J2,S*%
%TO.N,0*%
X92989400Y-105877600D03*
%TO.P,J2,TN*%
X105689400Y-94477600D03*
%TO.P,J2,SN*%
X92989400Y-94477600D03*
%TD*%
%TO.P,J1,T*%
%TO.N,/PassThru*%
X94335600Y-112689400D03*
%TO.P,J1,S*%
%TO.N,0*%
X107035600Y-112689400D03*
%TO.P,J1,TN*%
X94335600Y-124089400D03*
%TO.P,J1,SN*%
X107035600Y-124089400D03*
%TD*%
D20*
%TO.P,C12,2*%
%TO.N,0*%
X100000000Y-74900000D03*
D21*
%TO.P,C12,1*%
%TO.N,+9V*%
X100000000Y-72400000D03*
%TD*%
%TO.P,R23,2*%
%TO.N,Net-(D4-Pad2)*%
%TA.AperFunction,SMDPad,CuDef*%
G36*
G01*
X94200000Y-109650001D02*
X94200000Y-108749999D01*
G75*
G02*
X94449999Y-108500000I249999J0D01*
G01*
X95150001Y-108500000D01*
G75*
G02*
X95400000Y-108749999I0J-249999D01*
G01*
X95400000Y-109650001D01*
G75*
G02*
X95150001Y-109900000I-249999J0D01*
G01*
X94449999Y-109900000D01*
G75*
G02*
X94200000Y-109650001I0J249999D01*
G01*
G37*
%TD.AperFunction*%
%TO.P,R23,1*%
%TO.N,+9V*%
%TA.AperFunction,SMDPad,CuDef*%
G36*
G01*
X92200000Y-109650001D02*
X92200000Y-108749999D01*
G75*
G02*
X92449999Y-108500000I249999J0D01*
G01*
X93150001Y-108500000D01*
G75*
G02*
X93400000Y-108749999I0J-249999D01*
G01*
X93400000Y-109650001D01*
G75*
G02*
X93150001Y-109900000I-249999J0D01*
G01*
X92449999Y-109900000D01*
G75*
G02*
X92200000Y-109650001I0J249999D01*
G01*
G37*
%TD.AperFunction*%
%TD*%
%TO.P,R22,2*%
%TO.N,0*%
%TA.AperFunction,SMDPad,CuDef*%
G36*
G01*
X102400000Y-132749999D02*
X102400000Y-133650001D01*
G75*
G02*
X102150001Y-133900000I-249999J0D01*
G01*
X101449999Y-133900000D01*
G75*
G02*
X101200000Y-133650001I0J249999D01*
G01*
X101200000Y-132749999D01*
G75*
G02*
X101449999Y-132500000I249999J0D01*
G01*
X102150001Y-132500000D01*
G75*
G02*
X102400000Y-132749999I0J-249999D01*
G01*
G37*
%TD.AperFunction*%
%TO.P,R22,1*%
%TO.N,/SIG_IN*%
%TA.AperFunction,SMDPad,CuDef*%
G36*
G01*
X104400000Y-132749999D02*
X104400000Y-133650001D01*
G75*
G02*
X104150001Y-133900000I-249999J0D01*
G01*
X103449999Y-133900000D01*
G75*
G02*
X103200000Y-133650001I0J249999D01*
G01*
X103200000Y-132749999D01*
G75*
G02*
X103449999Y-132500000I249999J0D01*
G01*
X104150001Y-132500000D01*
G75*
G02*
X104400000Y-132749999I0J-249999D01*
G01*
G37*
%TD.AperFunction*%
%TD*%
%TO.P,R17,2*%
%TO.N,Net-(IC1-Pad6)*%
%TA.AperFunction,SMDPad,CuDef*%
G36*
G01*
X106749999Y-90000000D02*
X107650001Y-90000000D01*
G75*
G02*
X107900000Y-90249999I0J-249999D01*
G01*
X107900000Y-90950001D01*
G75*
G02*
X107650001Y-91200000I-249999J0D01*
G01*
X106749999Y-91200000D01*
G75*
G02*
X106500000Y-90950001I0J249999D01*
G01*
X106500000Y-90249999D01*
G75*
G02*
X106749999Y-90000000I249999J0D01*
G01*
G37*
%TD.AperFunction*%
%TO.P,R17,1*%
%TO.N,/volume/IN*%
%TA.AperFunction,SMDPad,CuDef*%
G36*
G01*
X106749999Y-88000000D02*
X107650001Y-88000000D01*
G75*
G02*
X107900000Y-88249999I0J-249999D01*
G01*
X107900000Y-88950001D01*
G75*
G02*
X107650001Y-89200000I-249999J0D01*
G01*
X106749999Y-89200000D01*
G75*
G02*
X106500000Y-88950001I0J249999D01*
G01*
X106500000Y-88249999D01*
G75*
G02*
X106749999Y-88000000I249999J0D01*
G01*
G37*
%TD.AperFunction*%
%TD*%
%TO.P,R15,2*%
%TO.N,Net-(Q2-Pad1)*%
%TA.AperFunction,SMDPad,CuDef*%
G36*
G01*
X90250001Y-125600000D02*
X89349999Y-125600000D01*
G75*
G02*
X89100000Y-125350001I0J249999D01*
G01*
X89100000Y-124649999D01*
G75*
G02*
X89349999Y-124400000I249999J0D01*
G01*
X90250001Y-124400000D01*
G75*
G02*
X90500000Y-124649999I0J-249999D01*
G01*
X90500000Y-125350001D01*
G75*
G02*
X90250001Y-125600000I-249999J0D01*
G01*
G37*
%TD.AperFunction*%
%TO.P,R15,1*%
%TO.N,Net-(C11-Pad1)*%
%TA.AperFunction,SMDPad,CuDef*%
G36*
G01*
X90250001Y-127600000D02*
X89349999Y-127600000D01*
G75*
G02*
X89100000Y-127350001I0J249999D01*
G01*
X89100000Y-126649999D01*
G75*
G02*
X89349999Y-126400000I249999J0D01*
G01*
X90250001Y-126400000D01*
G75*
G02*
X90500000Y-126649999I0J-249999D01*
G01*
X90500000Y-127350001D01*
G75*
G02*
X90250001Y-127600000I-249999J0D01*
G01*
G37*
%TD.AperFunction*%
%TD*%
%TO.P,R14,2*%
%TO.N,0*%
%TA.AperFunction,SMDPad,CuDef*%
G36*
G01*
X93600000Y-127050001D02*
X93600000Y-126149999D01*
G75*
G02*
X93849999Y-125900000I249999J0D01*
G01*
X94550001Y-125900000D01*
G75*
G02*
X94800000Y-126149999I0J-249999D01*
G01*
X94800000Y-127050001D01*
G75*
G02*
X94550001Y-127300000I-249999J0D01*
G01*
X93849999Y-127300000D01*
G75*
G02*
X93600000Y-127050001I0J249999D01*
G01*
G37*
%TD.AperFunction*%
%TO.P,R14,1*%
%TO.N,Net-(Q2-Pad1)*%
%TA.AperFunction,SMDPad,CuDef*%
G36*
G01*
X91600000Y-127050001D02*
X91600000Y-126149999D01*
G75*
G02*
X91849999Y-125900000I249999J0D01*
G01*
X92550001Y-125900000D01*
G75*
G02*
X92800000Y-126149999I0J-249999D01*
G01*
X92800000Y-127050001D01*
G75*
G02*
X92550001Y-127300000I-249999J0D01*
G01*
X91849999Y-127300000D01*
G75*
G02*
X91600000Y-127050001I0J249999D01*
G01*
G37*
%TD.AperFunction*%
%TD*%
%TO.P,R13,2*%
%TO.N,0*%
%TA.AperFunction,SMDPad,CuDef*%
G36*
G01*
X96850001Y-127000000D02*
X95949999Y-127000000D01*
G75*
G02*
X95700000Y-126750001I0J249999D01*
G01*
X95700000Y-126049999D01*
G75*
G02*
X95949999Y-125800000I249999J0D01*
G01*
X96850001Y-125800000D01*
G75*
G02*
X97100000Y-126049999I0J-249999D01*
G01*
X97100000Y-126750001D01*
G75*
G02*
X96850001Y-127000000I-249999J0D01*
G01*
G37*
%TD.AperFunction*%
%TO.P,R13,1*%
%TO.N,/EFFECT_OUT*%
%TA.AperFunction,SMDPad,CuDef*%
G36*
G01*
X96850001Y-129000000D02*
X95949999Y-129000000D01*
G75*
G02*
X95700000Y-128750001I0J249999D01*
G01*
X95700000Y-128049999D01*
G75*
G02*
X95949999Y-127800000I249999J0D01*
G01*
X96850001Y-127800000D01*
G75*
G02*
X97100000Y-128049999I0J-249999D01*
G01*
X97100000Y-128750001D01*
G75*
G02*
X96850001Y-129000000I-249999J0D01*
G01*
G37*
%TD.AperFunction*%
%TD*%
%TO.P,R8,2*%
%TO.N,Net-(C4-Pad2)*%
%TA.AperFunction,SMDPad,CuDef*%
G36*
G01*
X95949999Y-95200000D02*
X96850001Y-95200000D01*
G75*
G02*
X97100000Y-95449999I0J-249999D01*
G01*
X97100000Y-96150001D01*
G75*
G02*
X96850001Y-96400000I-249999J0D01*
G01*
X95949999Y-96400000D01*
G75*
G02*
X95700000Y-96150001I0J249999D01*
G01*
X95700000Y-95449999D01*
G75*
G02*
X95949999Y-95200000I249999J0D01*
G01*
G37*
%TD.AperFunction*%
%TO.P,R8,1*%
%TO.N,/tone/IN*%
%TA.AperFunction,SMDPad,CuDef*%
G36*
G01*
X95949999Y-93200000D02*
X96850001Y-93200000D01*
G75*
G02*
X97100000Y-93449999I0J-249999D01*
G01*
X97100000Y-94150001D01*
G75*
G02*
X96850001Y-94400000I-249999J0D01*
G01*
X95949999Y-94400000D01*
G75*
G02*
X95700000Y-94150001I0J249999D01*
G01*
X95700000Y-93449999D01*
G75*
G02*
X95949999Y-93200000I249999J0D01*
G01*
G37*
%TD.AperFunction*%
%TD*%
%TO.P,R7,2*%
%TO.N,Net-(C3-Pad1)*%
%TA.AperFunction,SMDPad,CuDef*%
G36*
G01*
X107000000Y-85850001D02*
X107000000Y-84949999D01*
G75*
G02*
X107249999Y-84700000I249999J0D01*
G01*
X107950001Y-84700000D01*
G75*
G02*
X108200000Y-84949999I0J-249999D01*
G01*
X108200000Y-85850001D01*
G75*
G02*
X107950001Y-86100000I-249999J0D01*
G01*
X107249999Y-86100000D01*
G75*
G02*
X107000000Y-85850001I0J249999D01*
G01*
G37*
%TD.AperFunction*%
%TO.P,R7,1*%
%TO.N,Net-(R19-Pad3)*%
%TA.AperFunction,SMDPad,CuDef*%
G36*
G01*
X105000000Y-85850001D02*
X105000000Y-84949999D01*
G75*
G02*
X105249999Y-84700000I249999J0D01*
G01*
X105950001Y-84700000D01*
G75*
G02*
X106200000Y-84949999I0J-249999D01*
G01*
X106200000Y-85850001D01*
G75*
G02*
X105950001Y-86100000I-249999J0D01*
G01*
X105249999Y-86100000D01*
G75*
G02*
X105000000Y-85850001I0J249999D01*
G01*
G37*
%TD.AperFunction*%
%TD*%
%TO.P,R6,2*%
%TO.N,Net-(C3-Pad2)*%
%TA.AperFunction,SMDPad,CuDef*%
G36*
G01*
X113249999Y-78600000D02*
X114150001Y-78600000D01*
G75*
G02*
X114400000Y-78849999I0J-249999D01*
G01*
X114400000Y-79550001D01*
G75*
G02*
X114150001Y-79800000I-249999J0D01*
G01*
X113249999Y-79800000D01*
G75*
G02*
X113000000Y-79550001I0J249999D01*
G01*
X113000000Y-78849999D01*
G75*
G02*
X113249999Y-78600000I249999J0D01*
G01*
G37*
%TD.AperFunction*%
%TO.P,R6,1*%
%TO.N,VCC*%
%TA.AperFunction,SMDPad,CuDef*%
G36*
G01*
X113249999Y-76600000D02*
X114150001Y-76600000D01*
G75*
G02*
X114400000Y-76849999I0J-249999D01*
G01*
X114400000Y-77550001D01*
G75*
G02*
X114150001Y-77800000I-249999J0D01*
G01*
X113249999Y-77800000D01*
G75*
G02*
X113000000Y-77550001I0J249999D01*
G01*
X113000000Y-76849999D01*
G75*
G02*
X113249999Y-76600000I249999J0D01*
G01*
G37*
%TD.AperFunction*%
%TD*%
%TO.P,R5,2*%
%TO.N,Net-(C2-Pad2)*%
%TA.AperFunction,SMDPad,CuDef*%
G36*
G01*
X100250001Y-101200000D02*
X99349999Y-101200000D01*
G75*
G02*
X99100000Y-100950001I0J249999D01*
G01*
X99100000Y-100249999D01*
G75*
G02*
X99349999Y-100000000I249999J0D01*
G01*
X100250001Y-100000000D01*
G75*
G02*
X100500000Y-100249999I0J-249999D01*
G01*
X100500000Y-100950001D01*
G75*
G02*
X100250001Y-101200000I-249999J0D01*
G01*
G37*
%TD.AperFunction*%
%TO.P,R5,1*%
%TO.N,VCC*%
%TA.AperFunction,SMDPad,CuDef*%
G36*
G01*
X100250001Y-103200000D02*
X99349999Y-103200000D01*
G75*
G02*
X99100000Y-102950001I0J249999D01*
G01*
X99100000Y-102249999D01*
G75*
G02*
X99349999Y-102000000I249999J0D01*
G01*
X100250001Y-102000000D01*
G75*
G02*
X100500000Y-102249999I0J-249999D01*
G01*
X100500000Y-102950001D01*
G75*
G02*
X100250001Y-103200000I-249999J0D01*
G01*
G37*
%TD.AperFunction*%
%TD*%
%TO.P,R3,2*%
%TO.N,0*%
%TA.AperFunction,SMDPad,CuDef*%
G36*
G01*
X94050001Y-99000000D02*
X93149999Y-99000000D01*
G75*
G02*
X92900000Y-98750001I0J249999D01*
G01*
X92900000Y-98049999D01*
G75*
G02*
X93149999Y-97800000I249999J0D01*
G01*
X94050001Y-97800000D01*
G75*
G02*
X94300000Y-98049999I0J-249999D01*
G01*
X94300000Y-98750001D01*
G75*
G02*
X94050001Y-99000000I-249999J0D01*
G01*
G37*
%TD.AperFunction*%
%TO.P,R3,1*%
%TO.N,/drive/IN*%
%TA.AperFunction,SMDPad,CuDef*%
G36*
G01*
X94050001Y-101000000D02*
X93149999Y-101000000D01*
G75*
G02*
X92900000Y-100750001I0J249999D01*
G01*
X92900000Y-100049999D01*
G75*
G02*
X93149999Y-99800000I249999J0D01*
G01*
X94050001Y-99800000D01*
G75*
G02*
X94300000Y-100049999I0J-249999D01*
G01*
X94300000Y-100750001D01*
G75*
G02*
X94050001Y-101000000I-249999J0D01*
G01*
G37*
%TD.AperFunction*%
%TD*%
%TO.P,R2,2*%
%TO.N,Net-(Q1-Pad2)*%
%TA.AperFunction,SMDPad,CuDef*%
G36*
G01*
X90800000Y-133250001D02*
X90800000Y-132349999D01*
G75*
G02*
X91049999Y-132100000I249999J0D01*
G01*
X91750001Y-132100000D01*
G75*
G02*
X92000000Y-132349999I0J-249999D01*
G01*
X92000000Y-133250001D01*
G75*
G02*
X91750001Y-133500000I-249999J0D01*
G01*
X91049999Y-133500000D01*
G75*
G02*
X90800000Y-133250001I0J249999D01*
G01*
G37*
%TD.AperFunction*%
%TO.P,R2,1*%
%TO.N,VCC*%
%TA.AperFunction,SMDPad,CuDef*%
G36*
G01*
X88800000Y-133250001D02*
X88800000Y-132349999D01*
G75*
G02*
X89049999Y-132100000I249999J0D01*
G01*
X89750001Y-132100000D01*
G75*
G02*
X90000000Y-132349999I0J-249999D01*
G01*
X90000000Y-133250001D01*
G75*
G02*
X89750001Y-133500000I-249999J0D01*
G01*
X89049999Y-133500000D01*
G75*
G02*
X88800000Y-133250001I0J249999D01*
G01*
G37*
%TD.AperFunction*%
%TD*%
%TO.P,R1,2*%
%TO.N,Net-(C1-Pad1)*%
%TA.AperFunction,SMDPad,CuDef*%
G36*
G01*
X94600000Y-133250001D02*
X94600000Y-132349999D01*
G75*
G02*
X94849999Y-132100000I249999J0D01*
G01*
X95550001Y-132100000D01*
G75*
G02*
X95800000Y-132349999I0J-249999D01*
G01*
X95800000Y-133250001D01*
G75*
G02*
X95550001Y-133500000I-249999J0D01*
G01*
X94849999Y-133500000D01*
G75*
G02*
X94600000Y-133250001I0J249999D01*
G01*
G37*
%TD.AperFunction*%
%TO.P,R1,1*%
%TO.N,Net-(Q1-Pad2)*%
%TA.AperFunction,SMDPad,CuDef*%
G36*
G01*
X92600000Y-133250001D02*
X92600000Y-132349999D01*
G75*
G02*
X92849999Y-132100000I249999J0D01*
G01*
X93550001Y-132100000D01*
G75*
G02*
X93800000Y-132349999I0J-249999D01*
G01*
X93800000Y-133250001D01*
G75*
G02*
X93550001Y-133500000I-249999J0D01*
G01*
X92849999Y-133500000D01*
G75*
G02*
X92600000Y-133250001I0J249999D01*
G01*
G37*
%TD.AperFunction*%
%TD*%
D12*
%TO.P,D5,2*%
%TO.N,0*%
X106680000Y-68122800D03*
D13*
%TO.P,D5,1*%
%TO.N,+9V*%
X106680000Y-60502800D03*
%TD*%
D22*
%TO.P,D4,1*%
%TO.N,Net-(D4-Pad1)*%
X98730000Y-109283560D03*
D15*
%TO.P,D4,2*%
%TO.N,Net-(D4-Pad2)*%
X101270000Y-109283560D03*
%TD*%
D12*
%TO.P,D1,2*%
%TO.N,Net-(C4-Pad2)*%
X114600000Y-106480000D03*
D13*
%TO.P,D1,1*%
%TO.N,Net-(C3-Pad1)*%
X114600000Y-101400000D03*
%TD*%
%TO.P,C11,2*%
%TO.N,/EFFECT_OUT*%
%TA.AperFunction,SMDPad,CuDef*%
G36*
G01*
X91412500Y-129475000D02*
X91412500Y-128525000D01*
G75*
G02*
X91662500Y-128275000I250000J0D01*
G01*
X92337500Y-128275000D01*
G75*
G02*
X92587500Y-128525000I0J-250000D01*
G01*
X92587500Y-129475000D01*
G75*
G02*
X92337500Y-129725000I-250000J0D01*
G01*
X91662500Y-129725000D01*
G75*
G02*
X91412500Y-129475000I0J250000D01*
G01*
G37*
%TD.AperFunction*%
%TO.P,C11,1*%
%TO.N,Net-(C11-Pad1)*%
%TA.AperFunction,SMDPad,CuDef*%
G36*
G01*
X89337500Y-129475000D02*
X89337500Y-128525000D01*
G75*
G02*
X89587500Y-128275000I250000J0D01*
G01*
X90262500Y-128275000D01*
G75*
G02*
X90512500Y-128525000I0J-250000D01*
G01*
X90512500Y-129475000D01*
G75*
G02*
X90262500Y-129725000I-250000J0D01*
G01*
X89587500Y-129725000D01*
G75*
G02*
X89337500Y-129475000I0J250000D01*
G01*
G37*
%TD.AperFunction*%
%TD*%
%TO.P,C8,2*%
%TO.N,Net-(C8-Pad2)*%
%TA.AperFunction,SMDPad,CuDef*%
G36*
G01*
X109887500Y-93675000D02*
X109887500Y-92725000D01*
G75*
G02*
X110137500Y-92475000I250000J0D01*
G01*
X110812500Y-92475000D01*
G75*
G02*
X111062500Y-92725000I0J-250000D01*
G01*
X111062500Y-93675000D01*
G75*
G02*
X110812500Y-93925000I-250000J0D01*
G01*
X110137500Y-93925000D01*
G75*
G02*
X109887500Y-93675000I0J250000D01*
G01*
G37*
%TD.AperFunction*%
%TO.P,C8,1*%
%TO.N,/volume/IN*%
%TA.AperFunction,SMDPad,CuDef*%
G36*
G01*
X107812500Y-93675000D02*
X107812500Y-92725000D01*
G75*
G02*
X108062500Y-92475000I250000J0D01*
G01*
X108737500Y-92475000D01*
G75*
G02*
X108987500Y-92725000I0J-250000D01*
G01*
X108987500Y-93675000D01*
G75*
G02*
X108737500Y-93925000I-250000J0D01*
G01*
X108062500Y-93925000D01*
G75*
G02*
X107812500Y-93675000I0J250000D01*
G01*
G37*
%TD.AperFunction*%
%TD*%
%TO.P,C5,2*%
%TO.N,0*%
%TA.AperFunction,SMDPad,CuDef*%
G36*
G01*
X94112500Y-90925000D02*
X94112500Y-91875000D01*
G75*
G02*
X93862500Y-92125000I-250000J0D01*
G01*
X93187500Y-92125000D01*
G75*
G02*
X92937500Y-91875000I0J250000D01*
G01*
X92937500Y-90925000D01*
G75*
G02*
X93187500Y-90675000I250000J0D01*
G01*
X93862500Y-90675000D01*
G75*
G02*
X94112500Y-90925000I0J-250000D01*
G01*
G37*
%TD.AperFunction*%
%TO.P,C5,1*%
%TO.N,/tone/IN*%
%TA.AperFunction,SMDPad,CuDef*%
G36*
G01*
X96187500Y-90925000D02*
X96187500Y-91875000D01*
G75*
G02*
X95937500Y-92125000I-250000J0D01*
G01*
X95262500Y-92125000D01*
G75*
G02*
X95012500Y-91875000I0J250000D01*
G01*
X95012500Y-90925000D01*
G75*
G02*
X95262500Y-90675000I250000J0D01*
G01*
X95937500Y-90675000D01*
G75*
G02*
X96187500Y-90925000I0J-250000D01*
G01*
G37*
%TD.AperFunction*%
%TD*%
%TO.P,C4,2*%
%TO.N,Net-(C4-Pad2)*%
%TA.AperFunction,SMDPad,CuDef*%
G36*
G01*
X103250000Y-101275000D02*
X103250000Y-100325000D01*
G75*
G02*
X103500000Y-100075000I250000J0D01*
G01*
X104175000Y-100075000D01*
G75*
G02*
X104425000Y-100325000I0J-250000D01*
G01*
X104425000Y-101275000D01*
G75*
G02*
X104175000Y-101525000I-250000J0D01*
G01*
X103500000Y-101525000D01*
G75*
G02*
X103250000Y-101275000I0J250000D01*
G01*
G37*
%TD.AperFunction*%
%TO.P,C4,1*%
%TO.N,Net-(C3-Pad1)*%
%TA.AperFunction,SMDPad,CuDef*%
G36*
G01*
X101175000Y-101275000D02*
X101175000Y-100325000D01*
G75*
G02*
X101425000Y-100075000I250000J0D01*
G01*
X102100000Y-100075000D01*
G75*
G02*
X102350000Y-100325000I0J-250000D01*
G01*
X102350000Y-101275000D01*
G75*
G02*
X102100000Y-101525000I-250000J0D01*
G01*
X101425000Y-101525000D01*
G75*
G02*
X101175000Y-101275000I0J250000D01*
G01*
G37*
%TD.AperFunction*%
%TD*%
%TO.P,C3,2*%
%TO.N,Net-(C3-Pad2)*%
%TA.AperFunction,SMDPad,CuDef*%
G36*
G01*
X113150000Y-81775000D02*
X113150000Y-80825000D01*
G75*
G02*
X113400000Y-80575000I250000J0D01*
G01*
X114075000Y-80575000D01*
G75*
G02*
X114325000Y-80825000I0J-250000D01*
G01*
X114325000Y-81775000D01*
G75*
G02*
X114075000Y-82025000I-250000J0D01*
G01*
X113400000Y-82025000D01*
G75*
G02*
X113150000Y-81775000I0J250000D01*
G01*
G37*
%TD.AperFunction*%
%TO.P,C3,1*%
%TO.N,Net-(C3-Pad1)*%
%TA.AperFunction,SMDPad,CuDef*%
G36*
G01*
X111075000Y-81775000D02*
X111075000Y-80825000D01*
G75*
G02*
X111325000Y-80575000I250000J0D01*
G01*
X112000000Y-80575000D01*
G75*
G02*
X112250000Y-80825000I0J-250000D01*
G01*
X112250000Y-81775000D01*
G75*
G02*
X112000000Y-82025000I-250000J0D01*
G01*
X111325000Y-82025000D01*
G75*
G02*
X111075000Y-81775000I0J250000D01*
G01*
G37*
%TD.AperFunction*%
%TD*%
%TO.P,C2,2*%
%TO.N,Net-(C2-Pad2)*%
%TA.AperFunction,SMDPad,CuDef*%
G36*
G01*
X97275000Y-101187500D02*
X96325000Y-101187500D01*
G75*
G02*
X96075000Y-100937500I0J250000D01*
G01*
X96075000Y-100262500D01*
G75*
G02*
X96325000Y-100012500I250000J0D01*
G01*
X97275000Y-100012500D01*
G75*
G02*
X97525000Y-100262500I0J-250000D01*
G01*
X97525000Y-100937500D01*
G75*
G02*
X97275000Y-101187500I-250000J0D01*
G01*
G37*
%TD.AperFunction*%
%TO.P,C2,1*%
%TO.N,/drive/IN*%
%TA.AperFunction,SMDPad,CuDef*%
G36*
G01*
X97275000Y-103262500D02*
X96325000Y-103262500D01*
G75*
G02*
X96075000Y-103012500I0J250000D01*
G01*
X96075000Y-102337500D01*
G75*
G02*
X96325000Y-102087500I250000J0D01*
G01*
X97275000Y-102087500D01*
G75*
G02*
X97525000Y-102337500I0J-250000D01*
G01*
X97525000Y-103012500D01*
G75*
G02*
X97275000Y-103262500I-250000J0D01*
G01*
G37*
%TD.AperFunction*%
%TD*%
%TO.P,C1,2*%
%TO.N,/SIG_IN*%
%TA.AperFunction,SMDPad,CuDef*%
G36*
G01*
X98650000Y-133275000D02*
X98650000Y-132325000D01*
G75*
G02*
X98900000Y-132075000I250000J0D01*
G01*
X99575000Y-132075000D01*
G75*
G02*
X99825000Y-132325000I0J-250000D01*
G01*
X99825000Y-133275000D01*
G75*
G02*
X99575000Y-133525000I-250000J0D01*
G01*
X98900000Y-133525000D01*
G75*
G02*
X98650000Y-133275000I0J250000D01*
G01*
G37*
%TD.AperFunction*%
%TO.P,C1,1*%
%TO.N,Net-(C1-Pad1)*%
%TA.AperFunction,SMDPad,CuDef*%
G36*
G01*
X96575000Y-133275000D02*
X96575000Y-132325000D01*
G75*
G02*
X96825000Y-132075000I250000J0D01*
G01*
X97500000Y-132075000D01*
G75*
G02*
X97750000Y-132325000I0J-250000D01*
G01*
X97750000Y-133275000D01*
G75*
G02*
X97500000Y-133525000I-250000J0D01*
G01*
X96825000Y-133525000D01*
G75*
G02*
X96575000Y-133275000I0J250000D01*
G01*
G37*
%TD.AperFunction*%
%TD*%
D23*
%TO.N,Net-(C3-Pad1)*%
X102462510Y-102225010D03*
%TO.N,Net-(C4-Pad2)*%
X97900000Y-95400000D03*
X100000000Y-94000000D03*
X111000000Y-99600000D03*
%TO.N,VCC*%
X113700000Y-75500000D03*
X99800000Y-104000000D03*
X89400000Y-134200000D03*
%TO.N,Net-(C8-Pad2)*%
X111000000Y-91400000D03*
%TO.N,+9V*%
X103600000Y-90800000D03*
X92800000Y-96800000D03*
%TO.N,Net-(Q1-Pad2)*%
X90900000Y-131400000D03*
%TO.N,Net-(C10-Pad2)*%
X91400000Y-82800000D03*
X94728401Y-82171599D03*
%TO.N,Net-(R18-Pad1)*%
X105551602Y-83500000D03*
%TD*%
D24*
%TO.N,/SIG_IN*%
X103800000Y-133426400D02*
X105400000Y-135026400D01*
X103800000Y-133200000D02*
X103800000Y-133426400D01*
D25*
X100056480Y-132800000D02*
X101056490Y-131799990D01*
X101056490Y-131799990D02*
X102543510Y-131799990D01*
X102543510Y-131799990D02*
X103800000Y-133056480D01*
X103800000Y-133056480D02*
X103800000Y-133200000D01*
D24*
X99237500Y-132800000D02*
X100056480Y-132800000D01*
D26*
%TO.N,Net-(C1-Pad1)*%
X95200000Y-132800000D02*
X97162500Y-132800000D01*
D25*
%TO.N,Net-(C2-Pad2)*%
X99765000Y-100565000D02*
X99800000Y-100600000D01*
X99765000Y-98450000D02*
X99765000Y-100565000D01*
X96800000Y-100600000D02*
X99800000Y-100600000D01*
%TO.N,/drive/IN*%
X95875000Y-102675000D02*
X96800000Y-102675000D01*
X93600000Y-100400000D02*
X95875000Y-102675000D01*
X89000010Y-107799990D02*
X85000000Y-111800000D01*
X93879012Y-107799990D02*
X89000010Y-107799990D01*
X96800000Y-104879002D02*
X93879012Y-107799990D01*
X96800000Y-102675000D02*
X96800000Y-104879002D01*
%TO.N,Net-(C3-Pad2)*%
X113700000Y-81262500D02*
X113737500Y-81300000D01*
X113700000Y-79200000D02*
X113700000Y-81262500D01*
%TO.N,Net-(C3-Pad1)*%
X101035000Y-99347500D02*
X101035000Y-98450000D01*
X101762500Y-100075000D02*
X101035000Y-99347500D01*
X101762500Y-100800000D02*
X101762500Y-100075000D01*
D24*
X116374990Y-97025010D02*
X114600000Y-98800000D01*
X116374990Y-86270287D02*
X116374990Y-97025010D01*
X111662500Y-81557796D02*
X116374990Y-86270287D01*
X111662500Y-81300000D02*
X111662500Y-81557796D01*
D25*
X114600000Y-98800000D02*
X114600000Y-101400000D01*
X101762500Y-101525000D02*
X102462510Y-102225010D01*
X101762500Y-100800000D02*
X101762500Y-101525000D01*
D27*
X107600000Y-85400000D02*
X109400000Y-85400000D01*
X109400000Y-85400000D02*
X110000000Y-84800000D01*
X110000000Y-82962500D02*
X111662500Y-81300000D01*
X110000000Y-84800000D02*
X110000000Y-82962500D01*
D25*
%TO.N,Net-(C4-Pad2)*%
X103837500Y-99982500D02*
X102327500Y-98472500D01*
X103837500Y-100800000D02*
X103837500Y-99982500D01*
X102327500Y-98472500D02*
X102305000Y-98450000D01*
D27*
X97500000Y-95800000D02*
X97900000Y-95400000D01*
X96400000Y-95800000D02*
X97500000Y-95800000D01*
X102305000Y-96905000D02*
X102305000Y-98450000D01*
X100000000Y-94000000D02*
X102305000Y-96905000D01*
X111000000Y-102880000D02*
X111000000Y-99600000D01*
X114600000Y-106480000D02*
X111000000Y-102880000D01*
D25*
X109600000Y-100800000D02*
X110800000Y-99600000D01*
X110800000Y-99600000D02*
X111000000Y-99600000D01*
X103837500Y-100800000D02*
X109600000Y-100800000D01*
D24*
%TO.N,0*%
X101800000Y-133326400D02*
X100100000Y-135026400D01*
X101800000Y-133200000D02*
X101800000Y-133326400D01*
D25*
X94400000Y-126400000D02*
X94200000Y-126600000D01*
X96400000Y-126400000D02*
X94400000Y-126400000D01*
D27*
%TO.N,/tone/IN*%
X95834999Y-81558801D02*
X97460000Y-79933800D01*
X98495000Y-91150000D02*
X96909999Y-89564999D01*
X95834999Y-89564999D02*
X95834999Y-81558801D01*
X96909999Y-89564999D02*
X95834999Y-89564999D01*
X96400000Y-93245000D02*
X98495000Y-91150000D01*
X96400000Y-93800000D02*
X96400000Y-93245000D01*
D25*
X97326200Y-79800000D02*
X97460000Y-79933800D01*
X98245000Y-91400000D02*
X98495000Y-91150000D01*
X95600000Y-91400000D02*
X98245000Y-91400000D01*
D24*
%TO.N,VCC*%
X89400000Y-134200000D02*
X89400000Y-132800000D01*
X99800000Y-102600000D02*
X99800000Y-104000000D01*
D27*
X113700000Y-77200000D02*
X113700000Y-75500000D01*
D25*
%TO.N,Net-(C8-Pad2)*%
X110475000Y-91925000D02*
X111000000Y-91400000D01*
X110475000Y-93200000D02*
X110475000Y-91925000D01*
D27*
%TO.N,/volume/IN*%
X101035000Y-91150000D02*
X101125012Y-91240012D01*
X101125012Y-91240012D02*
X101125012Y-92180014D01*
X101125012Y-92180014D02*
X101519998Y-92575000D01*
X101519998Y-92575000D02*
X103225000Y-92575000D01*
X105500000Y-90887500D02*
X105500000Y-90300000D01*
X107812500Y-93200000D02*
X105500000Y-90887500D01*
X108400000Y-93200000D02*
X107812500Y-93200000D01*
X105500000Y-90300000D02*
X107200000Y-88600000D01*
X103225000Y-92575000D02*
X105500000Y-90300000D01*
D26*
%TO.N,/EFFECT_OUT*%
X93226400Y-130226400D02*
X92000000Y-129000000D01*
X94800000Y-130226400D02*
X93226400Y-130226400D01*
D25*
X96400000Y-128626400D02*
X94800000Y-130226400D01*
X96400000Y-128400000D02*
X96400000Y-128626400D01*
D26*
%TO.N,Net-(C11-Pad1)*%
X89925000Y-127125000D02*
X89800000Y-127000000D01*
X89925000Y-129000000D02*
X89925000Y-127125000D01*
D25*
%TO.N,+9V*%
X90876331Y-61465200D02*
X99999800Y-61465200D01*
X83549999Y-68791532D02*
X90876331Y-61465200D01*
X85000000Y-117000000D02*
X83549999Y-115549999D01*
X85000000Y-119500000D02*
X85100000Y-119600000D01*
X85000000Y-117000000D02*
X85000000Y-119500000D01*
X92600000Y-109400000D02*
X92800000Y-109200000D01*
X85000000Y-117000000D02*
X86600000Y-117000000D01*
X86600000Y-117000000D02*
X87800000Y-115800000D01*
X87800000Y-115800000D02*
X87800000Y-111000000D01*
X89600000Y-109200000D02*
X92800000Y-109200000D01*
X87800000Y-111000000D02*
X89600000Y-109200000D01*
X103129708Y-91150000D02*
X103539854Y-90739854D01*
X102305000Y-91150000D02*
X103129708Y-91150000D01*
X84499998Y-96800000D02*
X83549999Y-95850001D01*
X92800000Y-96800000D02*
X84499998Y-96800000D01*
X83549999Y-95850001D02*
X83549999Y-68791532D01*
X83549999Y-115549999D02*
X83549999Y-95850001D01*
D27*
%TO.N,Net-(IC1-Pad6)*%
X103602389Y-89534401D02*
X106674990Y-86461800D01*
X100440597Y-89534401D02*
X103602389Y-89534401D01*
X99765000Y-90209998D02*
X100440597Y-89534401D01*
X99765000Y-91150000D02*
X99765000Y-90209998D01*
X106888200Y-86675010D02*
X106674990Y-86461800D01*
X107175010Y-86675010D02*
X106888200Y-86675010D01*
X107924990Y-87424990D02*
X107175010Y-86675010D01*
X108475010Y-87975010D02*
X108475010Y-87908266D01*
X108475010Y-87908266D02*
X107991734Y-87424990D01*
X108700000Y-88200000D02*
X108475010Y-87975010D01*
X108700000Y-89100000D02*
X108700000Y-88200000D01*
X107991734Y-87424990D02*
X107924990Y-87424990D01*
X107200000Y-90600000D02*
X108700000Y-89100000D01*
D28*
X104733800Y-79933800D02*
X106674990Y-81874990D01*
X102540000Y-79933800D02*
X104733800Y-79933800D01*
X106674990Y-83974990D02*
X106674990Y-81874990D01*
D29*
X106674990Y-83974990D02*
X106674990Y-86461800D01*
D26*
%TO.N,Net-(Q1-Pad2)*%
X91400000Y-132800000D02*
X93200000Y-132800000D01*
D28*
X91400000Y-131900000D02*
X90900000Y-131400000D01*
X91400000Y-132800000D02*
X91400000Y-131900000D01*
D25*
%TO.N,Net-(Q2-Pad1)*%
X85660000Y-125000000D02*
X85400000Y-124740000D01*
X89800000Y-125000000D02*
X85660000Y-125000000D01*
X90600000Y-125000000D02*
X92200000Y-126600000D01*
X89800000Y-125000000D02*
X90600000Y-125000000D01*
%TO.N,Net-(C10-Pad2)*%
X92028401Y-82171599D02*
X91400000Y-82800000D01*
X94728401Y-82171599D02*
X92028401Y-82171599D01*
D27*
%TO.N,Net-(R19-Pad3)*%
X104649400Y-85800000D02*
X102540000Y-87909400D01*
X105400000Y-85800000D02*
X104649400Y-85800000D01*
%TO.N,Net-(R18-Pad1)*%
X99110401Y-85572001D02*
X97460000Y-83921600D01*
X103227999Y-85572001D02*
X99110401Y-85572001D01*
X105300000Y-83500000D02*
X103227999Y-85572001D01*
X105551602Y-83500000D02*
X105300000Y-83500000D01*
D25*
%TO.N,Net-(D4-Pad2)*%
X94800000Y-109000000D02*
X94800000Y-109200000D01*
X96800000Y-107000000D02*
X94800000Y-109000000D01*
X100600000Y-107000000D02*
X96800000Y-107000000D01*
X101270000Y-107670000D02*
X100600000Y-107000000D01*
X101270000Y-109283560D02*
X101270000Y-107670000D01*
D30*
%TO.N,/PassThru*%
X94335600Y-119162000D02*
X105400000Y-130226400D01*
X94335600Y-112689400D02*
X94335600Y-119162000D01*
%TO.N,/SIG_OUT*%
X108384279Y-141815721D02*
X108384279Y-139127006D01*
X93027010Y-142027010D02*
X108172990Y-142027010D01*
X108384279Y-139127006D02*
X110800000Y-136711285D01*
X92599992Y-141599992D02*
X93027010Y-142027010D01*
X110800000Y-110988200D02*
X105689400Y-105877600D01*
X108172990Y-142027010D02*
X108384279Y-141815721D01*
X110800000Y-136711285D02*
X110800000Y-110988200D01*
X92599992Y-137226408D02*
X92599992Y-141599992D01*
X94800000Y-135026400D02*
X92599992Y-137226408D01*
%TO.N,Net-(SW1-Pad3)*%
X105399400Y-139827000D02*
X105400000Y-139826400D01*
X100100000Y-139827000D02*
X105399400Y-139827000D01*
%TD*%
D31*
%TO.N,0*%
X110262308Y-56389723D02*
X110273787Y-56393201D01*
X110284389Y-56398866D01*
X110293585Y-56406412D01*
X110301133Y-56415611D01*
X110306798Y-56426214D01*
X110310276Y-56437690D01*
X110315001Y-56485735D01*
X110315000Y-58736104D01*
X110318242Y-58769023D01*
X110318103Y-58788955D01*
X110319104Y-58799168D01*
X110384385Y-59420277D01*
X110397791Y-59485584D01*
X110410264Y-59550970D01*
X110413229Y-59560795D01*
X110597908Y-60157395D01*
X110623746Y-60218862D01*
X110648679Y-60280573D01*
X110653496Y-60289634D01*
X110950538Y-60839001D01*
X110987798Y-60894240D01*
X111024267Y-60949971D01*
X111030753Y-60957924D01*
X111428844Y-61439133D01*
X111476134Y-61486094D01*
X111522722Y-61533668D01*
X111530629Y-61540210D01*
X112014605Y-61934931D01*
X112070113Y-61971811D01*
X112125059Y-62009433D01*
X112134086Y-62014315D01*
X112685514Y-62307514D01*
X112747141Y-62332915D01*
X112808334Y-62359142D01*
X112818137Y-62362177D01*
X113416012Y-62542686D01*
X113481411Y-62555635D01*
X113546520Y-62569475D01*
X113556726Y-62570548D01*
X114178276Y-62631492D01*
X114213894Y-62635000D01*
X116464284Y-62635000D01*
X116512308Y-62639723D01*
X116523787Y-62643201D01*
X116534389Y-62648866D01*
X116543585Y-62656412D01*
X116551133Y-62665611D01*
X116556798Y-62676214D01*
X116560276Y-62687690D01*
X116565001Y-62735735D01*
X116565000Y-84678388D01*
X114458665Y-82572053D01*
X114568386Y-82513405D01*
X114702962Y-82402962D01*
X114813405Y-82268386D01*
X114895472Y-82114850D01*
X114946008Y-81948254D01*
X114963072Y-81775000D01*
X114963072Y-80825000D01*
X114946008Y-80651746D01*
X114895472Y-80485150D01*
X114835000Y-80372015D01*
X114835000Y-80108461D01*
X114888405Y-80043387D01*
X114970472Y-79889851D01*
X115021008Y-79723255D01*
X115038072Y-79550001D01*
X115038072Y-78849999D01*
X115021008Y-78676745D01*
X114970472Y-78510149D01*
X114888405Y-78356613D01*
X114777962Y-78222038D01*
X114751109Y-78200000D01*
X114777962Y-78177962D01*
X114888405Y-78043387D01*
X114970472Y-77889851D01*
X115021008Y-77723255D01*
X115038072Y-77550001D01*
X115038072Y-76849999D01*
X115021008Y-76676745D01*
X114970472Y-76510149D01*
X114888405Y-76356613D01*
X114777962Y-76222038D01*
X114710000Y-76166263D01*
X114710000Y-75727623D01*
X114735000Y-75601939D01*
X114735000Y-75398061D01*
X114695226Y-75198102D01*
X114617205Y-75009744D01*
X114503937Y-74840226D01*
X114359774Y-74696063D01*
X114190256Y-74582795D01*
X114001898Y-74504774D01*
X113801939Y-74465000D01*
X113598061Y-74465000D01*
X113398102Y-74504774D01*
X113209744Y-74582795D01*
X113040226Y-74696063D01*
X112896063Y-74840226D01*
X112782795Y-75009744D01*
X112704774Y-75198102D01*
X112665000Y-75398061D01*
X112665000Y-75601939D01*
X112690001Y-75727628D01*
X112690001Y-76166262D01*
X112622038Y-76222038D01*
X112511595Y-76356613D01*
X112429528Y-76510149D01*
X112378992Y-76676745D01*
X112361928Y-76849999D01*
X112361928Y-77550001D01*
X112378992Y-77723255D01*
X112429528Y-77889851D01*
X112511595Y-78043387D01*
X112622038Y-78177962D01*
X112648891Y-78200000D01*
X112622038Y-78222038D01*
X112511595Y-78356613D01*
X112429528Y-78510149D01*
X112378992Y-78676745D01*
X112361928Y-78849999D01*
X112361928Y-79550001D01*
X112378992Y-79723255D01*
X112429528Y-79889851D01*
X112511595Y-80043387D01*
X112565000Y-80108462D01*
X112565000Y-80145367D01*
X112493386Y-80086595D01*
X112339850Y-80004528D01*
X112173254Y-79953992D01*
X112000000Y-79936928D01*
X111325000Y-79936928D01*
X111151746Y-79953992D01*
X110985150Y-80004528D01*
X110831614Y-80086595D01*
X110697038Y-80197038D01*
X110586595Y-80331614D01*
X110504528Y-80485150D01*
X110453992Y-80651746D01*
X110436928Y-80825000D01*
X110436928Y-80999607D01*
X110420732Y-81052998D01*
X110414131Y-81120014D01*
X109320901Y-82213244D01*
X109282368Y-82244867D01*
X109250745Y-82283400D01*
X109250744Y-82283401D01*
X109156154Y-82398660D01*
X109062368Y-82574121D01*
X109004615Y-82764506D01*
X108985114Y-82962500D01*
X108990001Y-83012117D01*
X108990000Y-84381645D01*
X108981645Y-84390000D01*
X108633737Y-84390000D01*
X108577962Y-84322038D01*
X108443387Y-84211595D01*
X108289851Y-84129528D01*
X108123255Y-84078992D01*
X107950001Y-84061928D01*
X107555710Y-84061928D01*
X107559990Y-84018467D01*
X107559990Y-81918455D01*
X107564271Y-81874989D01*
X107559990Y-81831523D01*
X107559990Y-81831513D01*
X107547185Y-81701500D01*
X107496579Y-81534677D01*
X107414401Y-81380931D01*
X107390200Y-81351442D01*
X107331522Y-81279943D01*
X107331520Y-81279941D01*
X107303807Y-81246173D01*
X107270039Y-81218460D01*
X105390334Y-79338756D01*
X105362617Y-79304983D01*
X105227859Y-79194389D01*
X105074113Y-79112211D01*
X104907290Y-79061605D01*
X104777277Y-79048800D01*
X104777269Y-79048800D01*
X104733800Y-79044519D01*
X104690331Y-79048800D01*
X103975195Y-79048800D01*
X103848825Y-78859675D01*
X103614125Y-78624975D01*
X103338147Y-78440572D01*
X103031496Y-78313554D01*
X102705958Y-78248800D01*
X102374042Y-78248800D01*
X102048504Y-78313554D01*
X101741853Y-78440572D01*
X101465875Y-78624975D01*
X101270000Y-78820850D01*
X101074125Y-78624975D01*
X100798147Y-78440572D01*
X100491496Y-78313554D01*
X100165958Y-78248800D01*
X99834042Y-78248800D01*
X99508504Y-78313554D01*
X99201853Y-78440572D01*
X98925875Y-78624975D01*
X98730000Y-78820850D01*
X98534125Y-78624975D01*
X98258147Y-78440572D01*
X97951496Y-78313554D01*
X97625958Y-78248800D01*
X97294042Y-78248800D01*
X96968504Y-78313554D01*
X96661853Y-78440572D01*
X96385875Y-78624975D01*
X96151175Y-78859675D01*
X95966772Y-79135653D01*
X95839754Y-79442304D01*
X95775000Y-79767842D01*
X95775000Y-80099758D01*
X95790046Y-80175399D01*
X95155900Y-80809545D01*
X95117367Y-80841168D01*
X95085744Y-80879701D01*
X95085743Y-80879702D01*
X94991153Y-80994961D01*
X94958832Y-81055428D01*
X94950900Y-81053022D01*
X94784153Y-81036599D01*
X92084144Y-81036599D01*
X92028400Y-81031109D01*
X91972656Y-81036599D01*
X91972649Y-81036599D01*
X91826894Y-81050955D01*
X91805901Y-81053022D01*
X91756106Y-81068128D01*
X91591954Y-81117923D01*
X91394778Y-81223315D01*
X91221952Y-81365150D01*
X91186405Y-81408464D01*
X90558012Y-82036857D01*
X90451717Y-82166378D01*
X90346324Y-82363554D01*
X90281423Y-82577502D01*
X90259509Y-82800000D01*
X90281423Y-83022498D01*
X90346324Y-83236446D01*
X90451717Y-83433622D01*
X90593552Y-83606448D01*
X90766378Y-83748283D01*
X90963554Y-83853676D01*
X91177502Y-83918577D01*
X91400000Y-83940491D01*
X91622498Y-83918577D01*
X91836446Y-83853676D01*
X92033622Y-83748283D01*
X92163143Y-83641988D01*
X92498532Y-83306599D01*
X94784153Y-83306599D01*
X94825000Y-83302576D01*
X94824999Y-89515391D01*
X94820113Y-89564999D01*
X94839614Y-89762993D01*
X94897367Y-89953379D01*
X94970413Y-90090039D01*
X94922650Y-90104528D01*
X94769114Y-90186595D01*
X94634538Y-90297038D01*
X94629158Y-90303594D01*
X94563685Y-90223815D01*
X94466994Y-90144463D01*
X94356680Y-90085498D01*
X94236982Y-90049188D01*
X94112500Y-90036928D01*
X93810750Y-90040000D01*
X93652000Y-90198750D01*
X93652000Y-91273000D01*
X93672000Y-91273000D01*
X93672000Y-91527000D01*
X93652000Y-91527000D01*
X93652000Y-91547000D01*
X93398000Y-91547000D01*
X93398000Y-91527000D01*
X92461250Y-91527000D01*
X92302500Y-91685750D01*
X92299428Y-92125000D01*
X92311688Y-92249482D01*
X92347998Y-92369180D01*
X92406963Y-92479494D01*
X92486315Y-92576185D01*
X92583006Y-92655537D01*
X92619509Y-92675049D01*
X92576202Y-92680615D01*
X92233567Y-92795754D01*
X92010914Y-92914764D01*
X91891026Y-93199620D01*
X92989400Y-94297995D01*
X94087774Y-93199620D01*
X93967886Y-92914764D01*
X93652002Y-92757783D01*
X93652002Y-92601252D01*
X93810750Y-92760000D01*
X94112500Y-92763072D01*
X94236982Y-92750812D01*
X94356680Y-92714502D01*
X94466994Y-92655537D01*
X94563685Y-92576185D01*
X94629158Y-92496406D01*
X94634538Y-92502962D01*
X94769114Y-92613405D01*
X94922650Y-92695472D01*
X95089246Y-92746008D01*
X95262500Y-92763072D01*
X95393888Y-92763072D01*
X95322038Y-92822038D01*
X95211595Y-92956613D01*
X95129528Y-93110149D01*
X95078992Y-93276745D01*
X95061928Y-93449999D01*
X95061928Y-94150001D01*
X95078992Y-94323255D01*
X95129528Y-94489851D01*
X95211595Y-94643387D01*
X95322038Y-94777962D01*
X95348891Y-94800000D01*
X95322038Y-94822038D01*
X95211595Y-94956613D01*
X95129528Y-95110149D01*
X95078992Y-95276745D01*
X95061928Y-95449999D01*
X95061928Y-96150001D01*
X95078992Y-96323255D01*
X95129528Y-96489851D01*
X95211595Y-96643387D01*
X95322038Y-96777962D01*
X95456613Y-96888405D01*
X95610149Y-96970472D01*
X95776745Y-97021008D01*
X95949999Y-97038072D01*
X96850001Y-97038072D01*
X97023255Y-97021008D01*
X97189851Y-96970472D01*
X97343387Y-96888405D01*
X97438924Y-96810000D01*
X97450392Y-96810000D01*
X97500000Y-96814886D01*
X97697994Y-96795385D01*
X97888380Y-96737632D01*
X98063840Y-96643847D01*
X98217633Y-96517633D01*
X98249262Y-96479093D01*
X98453222Y-96275133D01*
X98559774Y-96203937D01*
X98703937Y-96059774D01*
X98817205Y-95890256D01*
X98895226Y-95701898D01*
X98935000Y-95501939D01*
X98935000Y-95298061D01*
X98895226Y-95098102D01*
X98817205Y-94909744D01*
X98703937Y-94740226D01*
X98559774Y-94596063D01*
X98390256Y-94482795D01*
X98201898Y-94404774D01*
X98001939Y-94365000D01*
X97798061Y-94365000D01*
X97702584Y-94383991D01*
X97721008Y-94323255D01*
X97738072Y-94150001D01*
X97738072Y-93449999D01*
X97727787Y-93345568D01*
X98435283Y-92638072D01*
X98820000Y-92638072D01*
X98944482Y-92625812D01*
X99064180Y-92589502D01*
X99130000Y-92554320D01*
X99195820Y-92589502D01*
X99315518Y-92625812D01*
X99440000Y-92638072D01*
X100090000Y-92638072D01*
X100214482Y-92625812D01*
X100217570Y-92624875D01*
X100233960Y-92655537D01*
X100281166Y-92743854D01*
X100407380Y-92897647D01*
X100445913Y-92929270D01*
X100770737Y-93254094D01*
X100802365Y-93292633D01*
X100956158Y-93418847D01*
X101106328Y-93499114D01*
X101131618Y-93512632D01*
X101322003Y-93570385D01*
X101519998Y-93589886D01*
X101569606Y-93585000D01*
X103175392Y-93585000D01*
X103225000Y-93589886D01*
X103422994Y-93570385D01*
X103613380Y-93512632D01*
X103788840Y-93418847D01*
X103942633Y-93292633D01*
X103974261Y-93254094D01*
X105206250Y-92022105D01*
X105832231Y-92648086D01*
X105634716Y-92634533D01*
X105276202Y-92680615D01*
X104933567Y-92795754D01*
X104710914Y-92914764D01*
X104591026Y-93199620D01*
X105689400Y-94297995D01*
X105703542Y-94283852D01*
X105883148Y-94463458D01*
X105869005Y-94477600D01*
X106967380Y-95575974D01*
X107252236Y-95456086D01*
X107413099Y-95132390D01*
X107507722Y-94783531D01*
X107532467Y-94422916D01*
X107526779Y-94378662D01*
X107569114Y-94413405D01*
X107722650Y-94495472D01*
X107889246Y-94546008D01*
X108062500Y-94563072D01*
X108737500Y-94563072D01*
X108910754Y-94546008D01*
X109077350Y-94495472D01*
X109230886Y-94413405D01*
X109365462Y-94302962D01*
X109437500Y-94215183D01*
X109509538Y-94302962D01*
X109644114Y-94413405D01*
X109797650Y-94495472D01*
X109964246Y-94546008D01*
X110137500Y-94563072D01*
X110812500Y-94563072D01*
X110985754Y-94546008D01*
X111152350Y-94495472D01*
X111305886Y-94413405D01*
X111440462Y-94302962D01*
X111550905Y-94168386D01*
X111632972Y-94014850D01*
X111683508Y-93848254D01*
X111700572Y-93675000D01*
X111700572Y-92725000D01*
X111683508Y-92551746D01*
X111632972Y-92385150D01*
X111628447Y-92376684D01*
X111841988Y-92163143D01*
X111948283Y-92033622D01*
X112053675Y-91836447D01*
X112118577Y-91622500D01*
X112140491Y-91400001D01*
X112118577Y-91177502D01*
X112053675Y-90963554D01*
X111948283Y-90766378D01*
X111806448Y-90593552D01*
X111633622Y-90451717D01*
X111436446Y-90346325D01*
X111222498Y-90281423D01*
X110999999Y-90259509D01*
X110777500Y-90281423D01*
X110563553Y-90346325D01*
X110366378Y-90451717D01*
X110236857Y-90558012D01*
X109711860Y-91083009D01*
X109668552Y-91118551D01*
X109526717Y-91291377D01*
X109421324Y-91488553D01*
X109356423Y-91702501D01*
X109346441Y-91803852D01*
X109334509Y-91925000D01*
X109340000Y-91980751D01*
X109340000Y-92076142D01*
X109230886Y-91986595D01*
X109077350Y-91904528D01*
X108910754Y-91853992D01*
X108737500Y-91836928D01*
X108062500Y-91836928D01*
X107894345Y-91853490D01*
X107852878Y-91812022D01*
X107989851Y-91770472D01*
X108143387Y-91688405D01*
X108277962Y-91577962D01*
X108388405Y-91443387D01*
X108470472Y-91289851D01*
X108521008Y-91123255D01*
X108538072Y-90950001D01*
X108538072Y-90690283D01*
X109379094Y-89849261D01*
X109417633Y-89817633D01*
X109543847Y-89663840D01*
X109637632Y-89488380D01*
X109695385Y-89297994D01*
X109710000Y-89149608D01*
X109710000Y-89149606D01*
X109714886Y-89100001D01*
X109710000Y-89050396D01*
X109710000Y-88249608D01*
X109712474Y-88224490D01*
X109811268Y-88463000D01*
X110056861Y-88830557D01*
X110369443Y-89143139D01*
X110737000Y-89388732D01*
X111145408Y-89557900D01*
X111578971Y-89644142D01*
X112021029Y-89644142D01*
X112454592Y-89557900D01*
X112863000Y-89388732D01*
X113230557Y-89143139D01*
X113543139Y-88830557D01*
X113788732Y-88463000D01*
X113957900Y-88054592D01*
X114044142Y-87621029D01*
X114044142Y-87178971D01*
X113957900Y-86745408D01*
X113788732Y-86337000D01*
X113543139Y-85969443D01*
X113230557Y-85656861D01*
X112863000Y-85411268D01*
X112454592Y-85242100D01*
X112021029Y-85155858D01*
X111578971Y-85155858D01*
X111145408Y-85242100D01*
X110839905Y-85368643D01*
X110843847Y-85363840D01*
X110937632Y-85188380D01*
X110995385Y-84997994D01*
X111010000Y-84849608D01*
X111010000Y-84849606D01*
X111014886Y-84800001D01*
X111010000Y-84750396D01*
X111010000Y-83380855D01*
X111356825Y-83034030D01*
X115114990Y-86792196D01*
X115114991Y-92281928D01*
X113800000Y-92281928D01*
X113675518Y-92294188D01*
X113555820Y-92330498D01*
X113445506Y-92389463D01*
X113348815Y-92468815D01*
X113269463Y-92565506D01*
X113210498Y-92675820D01*
X113174188Y-92795518D01*
X113161928Y-92920000D01*
X113161928Y-94520000D01*
X113174188Y-94644482D01*
X113210498Y-94764180D01*
X113269463Y-94874494D01*
X113348815Y-94971185D01*
X113445506Y-95050537D01*
X113555820Y-95109502D01*
X113675518Y-95145812D01*
X113800000Y-95158072D01*
X115114991Y-95158072D01*
X115114991Y-96503100D01*
X114202046Y-97416045D01*
X114181426Y-97420147D01*
X113920273Y-97528320D01*
X113685241Y-97685363D01*
X113485363Y-97885241D01*
X113328320Y-98120273D01*
X113220147Y-98381426D01*
X113165000Y-98658665D01*
X113165000Y-98941335D01*
X113220147Y-99218574D01*
X113328320Y-99479727D01*
X113465000Y-99684284D01*
X113465000Y-100059043D01*
X113445506Y-100069463D01*
X113348815Y-100148815D01*
X113269463Y-100245506D01*
X113210498Y-100355820D01*
X113174188Y-100475518D01*
X113161928Y-100600000D01*
X113161928Y-102200000D01*
X113174188Y-102324482D01*
X113210498Y-102444180D01*
X113269463Y-102554494D01*
X113348815Y-102651185D01*
X113445506Y-102730537D01*
X113555820Y-102789502D01*
X113675518Y-102825812D01*
X113800000Y-102838072D01*
X115400000Y-102838072D01*
X115524482Y-102825812D01*
X115644180Y-102789502D01*
X115754494Y-102730537D01*
X115851185Y-102651185D01*
X115930537Y-102554494D01*
X115989502Y-102444180D01*
X116025812Y-102324482D01*
X116038072Y-102200000D01*
X116038072Y-100600000D01*
X116025812Y-100475518D01*
X115989502Y-100355820D01*
X115930537Y-100245506D01*
X115851185Y-100148815D01*
X115754494Y-100069463D01*
X115735000Y-100059043D01*
X115735000Y-99684284D01*
X115871680Y-99479727D01*
X115979853Y-99218574D01*
X115983955Y-99197954D01*
X116565000Y-98616909D01*
X116564999Y-137214284D01*
X116560276Y-137262309D01*
X116556798Y-137273785D01*
X116551133Y-137284388D01*
X116543585Y-137293587D01*
X116534389Y-137301133D01*
X116523787Y-137306798D01*
X116512308Y-137310276D01*
X116464274Y-137315000D01*
X114213895Y-137315000D01*
X114180943Y-137318245D01*
X114160696Y-137318104D01*
X114150483Y-137319105D01*
X113519669Y-137385406D01*
X113454362Y-137398812D01*
X113388976Y-137411285D01*
X113379151Y-137414250D01*
X112773228Y-137601816D01*
X112711813Y-137627633D01*
X112650052Y-137652586D01*
X112640991Y-137657403D01*
X112083039Y-137959086D01*
X112027784Y-137996356D01*
X111972069Y-138032815D01*
X111964116Y-138039301D01*
X111475388Y-138443612D01*
X111428411Y-138490918D01*
X111380853Y-138537490D01*
X111374311Y-138545397D01*
X110973422Y-139036935D01*
X110936543Y-139092443D01*
X110898921Y-139147388D01*
X110894040Y-139156415D01*
X110596259Y-139716459D01*
X110570861Y-139778079D01*
X110544630Y-139839280D01*
X110541596Y-139849079D01*
X110541596Y-139849081D01*
X110541595Y-139849083D01*
X110358266Y-140456300D01*
X110345323Y-140521668D01*
X110331477Y-140586809D01*
X110330404Y-140597015D01*
X110268508Y-141228276D01*
X110268508Y-141228287D01*
X110265001Y-141263895D01*
X110265000Y-143514274D01*
X110260276Y-143562309D01*
X110256798Y-143573785D01*
X110251133Y-143584388D01*
X110243585Y-143593587D01*
X110234389Y-143601133D01*
X110223787Y-143606798D01*
X110212308Y-143610276D01*
X110164274Y-143615000D01*
X108570491Y-143615000D01*
X108801705Y-143544862D01*
X109085742Y-143393041D01*
X109334704Y-143188724D01*
X109385915Y-143126323D01*
X109483593Y-143028645D01*
X109545993Y-142977435D01*
X109750310Y-142728473D01*
X109902131Y-142444436D01*
X109995622Y-142136237D01*
X110019279Y-141896043D01*
X110019279Y-141896042D01*
X110027190Y-141815721D01*
X110019279Y-141735399D01*
X110019279Y-139804244D01*
X111899320Y-137924204D01*
X111961714Y-137872999D01*
X112166031Y-137624037D01*
X112317852Y-137340000D01*
X112411343Y-137031801D01*
X112435000Y-136791607D01*
X112435000Y-136791605D01*
X112442911Y-136711286D01*
X112435000Y-136630966D01*
X112435000Y-111068522D01*
X112442911Y-110988200D01*
X112411343Y-110667683D01*
X112317852Y-110359485D01*
X112261296Y-110253676D01*
X112166031Y-110075448D01*
X111961714Y-109826486D01*
X111899319Y-109775280D01*
X107445039Y-105321001D01*
X107315556Y-105008401D01*
X107114738Y-104707856D01*
X106859144Y-104452262D01*
X106558599Y-104251444D01*
X106224650Y-104113118D01*
X105870132Y-104042600D01*
X105508668Y-104042600D01*
X105154150Y-104113118D01*
X104820201Y-104251444D01*
X104519656Y-104452262D01*
X104264062Y-104707856D01*
X104063244Y-105008401D01*
X103924918Y-105342350D01*
X103854400Y-105696868D01*
X103854400Y-106058332D01*
X103924918Y-106412850D01*
X104063244Y-106746799D01*
X104264062Y-107047344D01*
X104519656Y-107302938D01*
X104820201Y-107503756D01*
X105132801Y-107633239D01*
X109165001Y-111665440D01*
X109165000Y-136034046D01*
X107284961Y-137914086D01*
X107222566Y-137965292D01*
X107037894Y-138190317D01*
X107018249Y-138214254D01*
X106866427Y-138498292D01*
X106772937Y-138806490D01*
X106762773Y-138909680D01*
X106714831Y-138851262D01*
X106669987Y-138784148D01*
X106612911Y-138727072D01*
X106561713Y-138664687D01*
X106499328Y-138613489D01*
X106442252Y-138556413D01*
X106375138Y-138511569D01*
X106312752Y-138460370D01*
X106241575Y-138422325D01*
X106174463Y-138377482D01*
X106099896Y-138346595D01*
X106028715Y-138308548D01*
X105951479Y-138285119D01*
X105876912Y-138254232D01*
X105797751Y-138238486D01*
X105720516Y-138215057D01*
X105640191Y-138207145D01*
X105561033Y-138191400D01*
X105480330Y-138191400D01*
X105400000Y-138183488D01*
X105319670Y-138191400D01*
X105238967Y-138191400D01*
X105235951Y-138192000D01*
X99938967Y-138192000D01*
X99859807Y-138207746D01*
X99779484Y-138215657D01*
X99702249Y-138239086D01*
X99623088Y-138254832D01*
X99548521Y-138285719D01*
X99471285Y-138309148D01*
X99400102Y-138347196D01*
X99325537Y-138378082D01*
X99258431Y-138422921D01*
X99187248Y-138460969D01*
X99124854Y-138512174D01*
X99057748Y-138557013D01*
X99000681Y-138614080D01*
X98938286Y-138665286D01*
X98887080Y-138727681D01*
X98830013Y-138784748D01*
X98785174Y-138851854D01*
X98733969Y-138914248D01*
X98695921Y-138985431D01*
X98651082Y-139052537D01*
X98620196Y-139127102D01*
X98582148Y-139198285D01*
X98558719Y-139275521D01*
X98527832Y-139350088D01*
X98512086Y-139429249D01*
X98488657Y-139506484D01*
X98480746Y-139586807D01*
X98465000Y-139665967D01*
X98465000Y-139746678D01*
X98457089Y-139827000D01*
X98465000Y-139907322D01*
X98465000Y-139988033D01*
X98480746Y-140067193D01*
X98488657Y-140147516D01*
X98512086Y-140224751D01*
X98527832Y-140303912D01*
X98558719Y-140378479D01*
X98562823Y-140392010D01*
X96335428Y-140392010D01*
X96372168Y-140303312D01*
X96435000Y-139987433D01*
X96435000Y-139665367D01*
X96372168Y-139349488D01*
X96248918Y-139051937D01*
X96069987Y-138784148D01*
X95842252Y-138556413D01*
X95574463Y-138377482D01*
X95276912Y-138254232D01*
X94961033Y-138191400D01*
X94638967Y-138191400D01*
X94323088Y-138254232D01*
X94234992Y-138290723D01*
X94234992Y-137903646D01*
X95976825Y-136161813D01*
X99144192Y-136161813D01*
X99239956Y-136426214D01*
X99529571Y-136567104D01*
X99841108Y-136648784D01*
X100162595Y-136668118D01*
X100481675Y-136624361D01*
X100786088Y-136519195D01*
X100960044Y-136426214D01*
X101055808Y-136161813D01*
X100100000Y-135206005D01*
X99144192Y-136161813D01*
X95976825Y-136161813D01*
X96012915Y-136125724D01*
X96069987Y-136068652D01*
X96114828Y-136001543D01*
X96166030Y-135939153D01*
X96204076Y-135867974D01*
X96248918Y-135800863D01*
X96279807Y-135726290D01*
X96317851Y-135655115D01*
X96341278Y-135577887D01*
X96372168Y-135503312D01*
X96387915Y-135424144D01*
X96411342Y-135346917D01*
X96419253Y-135266600D01*
X96435000Y-135187433D01*
X96435000Y-135106720D01*
X96442911Y-135026401D01*
X96435000Y-134946081D01*
X96435000Y-134865367D01*
X96419253Y-134786199D01*
X96411342Y-134705884D01*
X96387916Y-134628659D01*
X96372168Y-134549488D01*
X96341277Y-134474910D01*
X96317851Y-134397686D01*
X96279809Y-134326514D01*
X96248918Y-134251937D01*
X96204192Y-134185000D01*
X97230537Y-134185000D01*
X97434007Y-134164960D01*
X97440231Y-134163072D01*
X97500000Y-134163072D01*
X97673254Y-134146008D01*
X97839850Y-134095472D01*
X97993386Y-134013405D01*
X98127962Y-133902962D01*
X98200000Y-133815183D01*
X98272038Y-133902962D01*
X98406614Y-134013405D01*
X98560150Y-134095472D01*
X98726746Y-134146008D01*
X98750034Y-134148302D01*
X98700186Y-134166356D01*
X98559296Y-134455971D01*
X98477616Y-134767508D01*
X98458282Y-135088995D01*
X98502039Y-135408075D01*
X98607205Y-135712488D01*
X98700186Y-135886444D01*
X98964587Y-135982208D01*
X99920395Y-135026400D01*
X99906253Y-135012258D01*
X100085858Y-134832653D01*
X100100000Y-134846795D01*
X100114143Y-134832653D01*
X100293748Y-135012258D01*
X100279605Y-135026400D01*
X101235413Y-135982208D01*
X101499814Y-135886444D01*
X101640704Y-135596829D01*
X101722384Y-135285292D01*
X101741718Y-134963805D01*
X101697961Y-134644725D01*
X101622617Y-134426633D01*
X101673000Y-134376250D01*
X101673000Y-133327000D01*
X101653000Y-133327000D01*
X101653000Y-133073000D01*
X101673000Y-133073000D01*
X101673000Y-133053000D01*
X101927000Y-133053000D01*
X101927000Y-133073000D01*
X101947000Y-133073000D01*
X101947000Y-133327000D01*
X101927000Y-133327000D01*
X101927000Y-134376250D01*
X102085750Y-134535000D01*
X102400000Y-134538072D01*
X102524482Y-134525812D01*
X102644180Y-134489502D01*
X102754494Y-134430537D01*
X102851185Y-134351185D01*
X102875363Y-134321724D01*
X102956613Y-134388405D01*
X103007063Y-134415371D01*
X103765000Y-135173309D01*
X103765000Y-135187433D01*
X103827832Y-135503312D01*
X103951082Y-135800863D01*
X104130013Y-136068652D01*
X104357748Y-136296387D01*
X104625537Y-136475318D01*
X104923088Y-136598568D01*
X105238967Y-136661400D01*
X105561033Y-136661400D01*
X105876912Y-136598568D01*
X106174463Y-136475318D01*
X106442252Y-136296387D01*
X106669987Y-136068652D01*
X106848918Y-135800863D01*
X106972168Y-135503312D01*
X107035000Y-135187433D01*
X107035000Y-134865367D01*
X106972168Y-134549488D01*
X106848918Y-134251937D01*
X106669987Y-133984148D01*
X106442252Y-133756413D01*
X106174463Y-133577482D01*
X105876912Y-133454232D01*
X105561033Y-133391400D01*
X105546909Y-133391400D01*
X105038072Y-132882564D01*
X105038072Y-132749999D01*
X105021008Y-132576745D01*
X104970472Y-132410149D01*
X104888405Y-132256613D01*
X104777962Y-132122038D01*
X104643387Y-132011595D01*
X104489851Y-131929528D01*
X104323255Y-131878992D01*
X104217198Y-131868546D01*
X103385506Y-131036855D01*
X103349959Y-130993541D01*
X103177133Y-130851706D01*
X102979957Y-130746314D01*
X102766009Y-130681413D01*
X102599262Y-130664990D01*
X102599261Y-130664990D01*
X102543510Y-130659499D01*
X102487759Y-130664990D01*
X101679671Y-130664990D01*
X101735000Y-130386833D01*
X101735000Y-130064767D01*
X101672168Y-129748888D01*
X101548918Y-129451337D01*
X101369987Y-129183548D01*
X101142252Y-128955813D01*
X100874463Y-128776882D01*
X100576912Y-128653632D01*
X100261033Y-128590800D01*
X99938967Y-128590800D01*
X99623088Y-128653632D01*
X99325537Y-128776882D01*
X99057748Y-128955813D01*
X98830013Y-129183548D01*
X98651082Y-129451337D01*
X98527832Y-129748888D01*
X98465000Y-130064767D01*
X98465000Y-130386833D01*
X98527832Y-130702712D01*
X98651082Y-131000263D01*
X98830013Y-131268052D01*
X98998889Y-131436928D01*
X98900000Y-131436928D01*
X98726746Y-131453992D01*
X98560150Y-131504528D01*
X98406614Y-131586595D01*
X98272038Y-131697038D01*
X98200000Y-131784817D01*
X98127962Y-131697038D01*
X97993386Y-131586595D01*
X97839850Y-131504528D01*
X97673254Y-131453992D01*
X97500000Y-131436928D01*
X97440231Y-131436928D01*
X97434007Y-131435040D01*
X97230537Y-131415000D01*
X95923639Y-131415000D01*
X96069987Y-131268652D01*
X96248918Y-131000863D01*
X96372168Y-130703312D01*
X96435000Y-130387433D01*
X96435000Y-130196532D01*
X97009134Y-129622399D01*
X97023255Y-129621008D01*
X97189851Y-129570472D01*
X97343387Y-129488405D01*
X97477962Y-129377962D01*
X97588405Y-129243387D01*
X97670472Y-129089851D01*
X97721008Y-128923255D01*
X97738072Y-128750001D01*
X97738072Y-128049999D01*
X97721008Y-127876745D01*
X97670472Y-127710149D01*
X97588405Y-127556613D01*
X97521724Y-127475363D01*
X97551185Y-127451185D01*
X97630537Y-127354494D01*
X97689502Y-127244180D01*
X97725812Y-127124482D01*
X97738072Y-127000000D01*
X97735000Y-126685750D01*
X97576250Y-126527000D01*
X96527000Y-126527000D01*
X96527000Y-126547000D01*
X96273000Y-126547000D01*
X96273000Y-126527000D01*
X96253000Y-126527000D01*
X96253000Y-126273000D01*
X96273000Y-126273000D01*
X96273000Y-125323750D01*
X96527000Y-125323750D01*
X96527000Y-126273000D01*
X97576250Y-126273000D01*
X97735000Y-126114250D01*
X97738072Y-125800000D01*
X97725812Y-125675518D01*
X97689502Y-125555820D01*
X97630537Y-125445506D01*
X97551185Y-125348815D01*
X97454494Y-125269463D01*
X97344180Y-125210498D01*
X97224482Y-125174188D01*
X97100000Y-125161928D01*
X96685750Y-125165000D01*
X96527000Y-125323750D01*
X96273000Y-125323750D01*
X96114250Y-125165000D01*
X95700000Y-125161928D01*
X95667350Y-125165144D01*
X95898436Y-125067886D01*
X96059299Y-124744190D01*
X96153922Y-124395331D01*
X96178667Y-124034716D01*
X96132585Y-123676202D01*
X96017446Y-123333567D01*
X95898436Y-123110914D01*
X95613580Y-122991026D01*
X94515205Y-124089400D01*
X94529348Y-124103542D01*
X94349742Y-124283148D01*
X94335600Y-124269005D01*
X93237226Y-125367380D01*
X93240003Y-125373979D01*
X93148815Y-125448815D01*
X93124637Y-125478276D01*
X93043387Y-125411595D01*
X92889851Y-125329528D01*
X92723255Y-125278992D01*
X92550001Y-125261928D01*
X92467060Y-125261928D01*
X91441995Y-124236864D01*
X91406449Y-124193551D01*
X91346174Y-124144084D01*
X92492533Y-124144084D01*
X92538615Y-124502598D01*
X92653754Y-124845233D01*
X92772764Y-125067886D01*
X93057620Y-125187774D01*
X94155995Y-124089400D01*
X93057620Y-122991026D01*
X92772764Y-123110914D01*
X92611901Y-123434610D01*
X92517278Y-123783469D01*
X92492533Y-124144084D01*
X91346174Y-124144084D01*
X91233623Y-124051716D01*
X91036447Y-123946324D01*
X90822499Y-123881423D01*
X90656319Y-123865056D01*
X90589851Y-123829528D01*
X90423255Y-123778992D01*
X90250001Y-123761928D01*
X89349999Y-123761928D01*
X89176745Y-123778992D01*
X89010149Y-123829528D01*
X88943786Y-123865000D01*
X86457454Y-123865000D01*
X86439502Y-123805820D01*
X86380537Y-123695506D01*
X86301185Y-123598815D01*
X86204494Y-123519463D01*
X86094180Y-123460498D01*
X85974482Y-123424188D01*
X85850000Y-123411928D01*
X85779155Y-123411928D01*
X85982886Y-123275799D01*
X86175799Y-123082886D01*
X86327371Y-122856043D01*
X86345854Y-122811420D01*
X93237226Y-122811420D01*
X94335600Y-123909795D01*
X95433974Y-122811420D01*
X95314086Y-122526564D01*
X94990390Y-122365701D01*
X94641531Y-122271078D01*
X94280916Y-122246333D01*
X93922402Y-122292415D01*
X93579767Y-122407554D01*
X93357114Y-122526564D01*
X93237226Y-122811420D01*
X86345854Y-122811420D01*
X86431775Y-122603989D01*
X86485000Y-122336411D01*
X86485000Y-122063589D01*
X86431775Y-121796011D01*
X86327371Y-121543957D01*
X86175799Y-121317114D01*
X85982886Y-121124201D01*
X85756043Y-120972629D01*
X85580701Y-120900000D01*
X85756043Y-120827371D01*
X85982886Y-120675799D01*
X86175799Y-120482886D01*
X86327371Y-120256043D01*
X86431775Y-120003989D01*
X86485000Y-119736411D01*
X86485000Y-119463589D01*
X86431775Y-119196011D01*
X86327371Y-118943957D01*
X86175799Y-118717114D01*
X86135000Y-118676315D01*
X86135000Y-118135000D01*
X86544249Y-118135000D01*
X86600000Y-118140491D01*
X86655751Y-118135000D01*
X86655752Y-118135000D01*
X86822499Y-118118577D01*
X87036447Y-118053676D01*
X87233623Y-117948284D01*
X87406449Y-117806449D01*
X87441996Y-117763135D01*
X88563140Y-116641992D01*
X88606449Y-116606449D01*
X88748284Y-116433623D01*
X88853676Y-116236447D01*
X88918577Y-116022499D01*
X88935000Y-115855752D01*
X88935000Y-115855743D01*
X88940490Y-115800001D01*
X88935000Y-115744259D01*
X88935000Y-112508668D01*
X92500600Y-112508668D01*
X92500600Y-112870132D01*
X92571118Y-113224650D01*
X92700600Y-113537248D01*
X92700601Y-119081671D01*
X92692689Y-119162000D01*
X92724258Y-119482516D01*
X92817748Y-119790714D01*
X92817749Y-119790715D01*
X92969570Y-120074752D01*
X93173887Y-120323714D01*
X93236282Y-120374920D01*
X104300676Y-131439316D01*
X104300682Y-131439321D01*
X104357748Y-131496387D01*
X104424855Y-131541226D01*
X104487247Y-131592430D01*
X104558428Y-131630477D01*
X104625537Y-131675318D01*
X104700103Y-131706204D01*
X104771285Y-131744252D01*
X104848522Y-131767682D01*
X104923088Y-131798568D01*
X105002247Y-131814314D01*
X105079483Y-131837743D01*
X105159810Y-131845655D01*
X105238967Y-131861400D01*
X105319670Y-131861400D01*
X105400000Y-131869312D01*
X105480330Y-131861400D01*
X105561033Y-131861400D01*
X105640191Y-131845655D01*
X105720516Y-131837743D01*
X105797751Y-131814314D01*
X105876912Y-131798568D01*
X105951479Y-131767681D01*
X106028715Y-131744252D01*
X106099896Y-131706205D01*
X106174463Y-131675318D01*
X106241575Y-131630475D01*
X106312752Y-131592430D01*
X106375138Y-131541231D01*
X106442252Y-131496387D01*
X106499328Y-131439311D01*
X106561713Y-131388113D01*
X106612911Y-131325728D01*
X106669987Y-131268652D01*
X106714831Y-131201538D01*
X106766030Y-131139152D01*
X106804075Y-131067975D01*
X106848918Y-131000863D01*
X106879805Y-130926296D01*
X106917852Y-130855115D01*
X106941281Y-130777879D01*
X106972168Y-130703312D01*
X106987914Y-130624151D01*
X107011343Y-130546916D01*
X107019255Y-130466591D01*
X107035000Y-130387433D01*
X107035000Y-130306730D01*
X107042912Y-130226400D01*
X107035000Y-130146070D01*
X107035000Y-130065367D01*
X107019255Y-129986210D01*
X107011343Y-129905883D01*
X106987914Y-129828647D01*
X106972168Y-129749488D01*
X106941282Y-129674922D01*
X106917852Y-129597685D01*
X106879804Y-129526503D01*
X106848918Y-129451937D01*
X106804077Y-129384828D01*
X106766030Y-129313647D01*
X106714826Y-129251255D01*
X106669987Y-129184148D01*
X106612921Y-129127082D01*
X106612916Y-129127076D01*
X102853220Y-125367380D01*
X105937226Y-125367380D01*
X106057114Y-125652236D01*
X106380810Y-125813099D01*
X106729669Y-125907722D01*
X107090284Y-125932467D01*
X107448798Y-125886385D01*
X107791433Y-125771246D01*
X108014086Y-125652236D01*
X108133974Y-125367380D01*
X107035600Y-124269005D01*
X105937226Y-125367380D01*
X102853220Y-125367380D01*
X101629924Y-124144084D01*
X105192533Y-124144084D01*
X105238615Y-124502598D01*
X105353754Y-124845233D01*
X105472764Y-125067886D01*
X105757620Y-125187774D01*
X106855995Y-124089400D01*
X107215205Y-124089400D01*
X108313580Y-125187774D01*
X108598436Y-125067886D01*
X108759299Y-124744190D01*
X108853922Y-124395331D01*
X108878667Y-124034716D01*
X108832585Y-123676202D01*
X108717446Y-123333567D01*
X108598436Y-123110914D01*
X108313580Y-122991026D01*
X107215205Y-124089400D01*
X106855995Y-124089400D01*
X105757620Y-122991026D01*
X105472764Y-123110914D01*
X105311901Y-123434610D01*
X105217278Y-123783469D01*
X105192533Y-124144084D01*
X101629924Y-124144084D01*
X100297260Y-122811420D01*
X105937226Y-122811420D01*
X107035600Y-123909795D01*
X108133974Y-122811420D01*
X108014086Y-122526564D01*
X107690390Y-122365701D01*
X107341531Y-122271078D01*
X106980916Y-122246333D01*
X106622402Y-122292415D01*
X106279767Y-122407554D01*
X106057114Y-122526564D01*
X105937226Y-122811420D01*
X100297260Y-122811420D01*
X95970600Y-118484762D01*
X95970600Y-113967380D01*
X105937226Y-113967380D01*
X106057114Y-114252236D01*
X106380810Y-114413099D01*
X106729669Y-114507722D01*
X107090284Y-114532467D01*
X107448798Y-114486385D01*
X107791433Y-114371246D01*
X108014086Y-114252236D01*
X108133974Y-113967380D01*
X107035600Y-112869005D01*
X105937226Y-113967380D01*
X95970600Y-113967380D01*
X95970600Y-113537248D01*
X96100082Y-113224650D01*
X96170600Y-112870132D01*
X96170600Y-112744084D01*
X105192533Y-112744084D01*
X105238615Y-113102598D01*
X105353754Y-113445233D01*
X105472764Y-113667886D01*
X105757620Y-113787774D01*
X106855995Y-112689400D01*
X107215205Y-112689400D01*
X108313580Y-113787774D01*
X108598436Y-113667886D01*
X108759299Y-113344190D01*
X108853922Y-112995331D01*
X108878667Y-112634716D01*
X108832585Y-112276202D01*
X108717446Y-111933567D01*
X108598436Y-111710914D01*
X108313580Y-111591026D01*
X107215205Y-112689400D01*
X106855995Y-112689400D01*
X105757620Y-111591026D01*
X105472764Y-111710914D01*
X105311901Y-112034610D01*
X105217278Y-112383469D01*
X105192533Y-112744084D01*
X96170600Y-112744084D01*
X96170600Y-112508668D01*
X96100082Y-112154150D01*
X95961756Y-111820201D01*
X95760938Y-111519656D01*
X95652702Y-111411420D01*
X105937226Y-111411420D01*
X107035600Y-112509795D01*
X108133974Y-111411420D01*
X108014086Y-111126564D01*
X107690390Y-110965701D01*
X107341531Y-110871078D01*
X106980916Y-110846333D01*
X106622402Y-110892415D01*
X106279767Y-111007554D01*
X106057114Y-111126564D01*
X105937226Y-111411420D01*
X95652702Y-111411420D01*
X95505344Y-111264062D01*
X95204799Y-111063244D01*
X94870850Y-110924918D01*
X94516332Y-110854400D01*
X94154868Y-110854400D01*
X93800350Y-110924918D01*
X93466401Y-111063244D01*
X93165856Y-111264062D01*
X92910262Y-111519656D01*
X92709444Y-111820201D01*
X92571118Y-112154150D01*
X92500600Y-112508668D01*
X88935000Y-112508668D01*
X88935000Y-111470131D01*
X90070132Y-110335000D01*
X91891539Y-110335000D01*
X91956613Y-110388405D01*
X92110149Y-110470472D01*
X92276745Y-110521008D01*
X92449999Y-110538072D01*
X92575439Y-110538072D01*
X92600000Y-110540491D01*
X92624561Y-110538072D01*
X93150001Y-110538072D01*
X93323255Y-110521008D01*
X93489851Y-110470472D01*
X93643387Y-110388405D01*
X93777962Y-110277962D01*
X93800000Y-110251109D01*
X93822038Y-110277962D01*
X93956613Y-110388405D01*
X94110149Y-110470472D01*
X94276745Y-110521008D01*
X94449999Y-110538072D01*
X95150001Y-110538072D01*
X95323255Y-110521008D01*
X95489851Y-110470472D01*
X95643387Y-110388405D01*
X95777962Y-110277962D01*
X95888405Y-110143387D01*
X95970472Y-109989851D01*
X96021008Y-109823255D01*
X96038072Y-109650001D01*
X96038072Y-109367059D01*
X97091928Y-108313204D01*
X97091928Y-110283560D01*
X97104188Y-110408042D01*
X97140498Y-110527740D01*
X97199463Y-110638054D01*
X97278815Y-110734745D01*
X97375506Y-110814097D01*
X97485820Y-110873062D01*
X97605518Y-110909372D01*
X97730000Y-110921632D01*
X99730000Y-110921632D01*
X99854482Y-110909372D01*
X99974180Y-110873062D01*
X100084494Y-110814097D01*
X100181185Y-110734745D01*
X100260537Y-110638054D01*
X100285191Y-110591930D01*
X100495537Y-110732478D01*
X100793088Y-110855728D01*
X101108967Y-110918560D01*
X101431033Y-110918560D01*
X101746912Y-110855728D01*
X102044463Y-110732478D01*
X102312252Y-110553547D01*
X102539987Y-110325812D01*
X102718918Y-110058023D01*
X102842168Y-109760472D01*
X102905000Y-109444593D01*
X102905000Y-109122527D01*
X102842168Y-108806648D01*
X102718918Y-108509097D01*
X102539987Y-108241308D01*
X102405000Y-108106321D01*
X102405000Y-107725751D01*
X102410491Y-107669999D01*
X102388577Y-107447501D01*
X102323676Y-107233553D01*
X102287765Y-107166368D01*
X102218284Y-107036377D01*
X102076449Y-106863551D01*
X102033135Y-106828004D01*
X101441996Y-106236865D01*
X101406449Y-106193551D01*
X101233623Y-106051716D01*
X101036447Y-105946324D01*
X100822499Y-105881423D01*
X100655752Y-105865000D01*
X100655751Y-105865000D01*
X100600000Y-105859509D01*
X100544249Y-105865000D01*
X97419134Y-105865000D01*
X97563141Y-105720993D01*
X97606449Y-105685451D01*
X97748284Y-105512625D01*
X97853676Y-105315449D01*
X97918577Y-105101501D01*
X97935000Y-104934754D01*
X97940491Y-104879002D01*
X97935000Y-104823250D01*
X97935000Y-103601423D01*
X98013405Y-103505886D01*
X98095472Y-103352350D01*
X98146008Y-103185754D01*
X98163072Y-103012500D01*
X98163072Y-102337500D01*
X98146008Y-102164246D01*
X98095472Y-101997650D01*
X98013405Y-101844114D01*
X97923858Y-101735000D01*
X98629332Y-101735000D01*
X98611595Y-101756613D01*
X98529528Y-101910149D01*
X98478992Y-102076745D01*
X98461928Y-102249999D01*
X98461928Y-102950001D01*
X98478992Y-103123255D01*
X98529528Y-103289851D01*
X98540000Y-103309443D01*
X98540000Y-104061893D01*
X98558232Y-104247003D01*
X98630280Y-104484514D01*
X98747281Y-104703405D01*
X98904736Y-104895265D01*
X99096596Y-105052720D01*
X99315487Y-105169720D01*
X99552998Y-105241768D01*
X99800000Y-105266096D01*
X100047003Y-105241768D01*
X100284514Y-105169720D01*
X100503405Y-105052720D01*
X100695265Y-104895265D01*
X100852720Y-104703405D01*
X100969720Y-104484514D01*
X101041768Y-104247003D01*
X101060000Y-104061893D01*
X101060000Y-103309443D01*
X101070472Y-103289851D01*
X101121008Y-103123255D01*
X101138072Y-102950001D01*
X101138072Y-102505703D01*
X101699367Y-103066999D01*
X101828887Y-103173294D01*
X102026063Y-103278686D01*
X102240011Y-103343587D01*
X102462510Y-103365501D01*
X102685009Y-103343587D01*
X102898957Y-103278686D01*
X103096133Y-103173294D01*
X103268959Y-103031459D01*
X103410794Y-102858633D01*
X103516186Y-102661457D01*
X103581087Y-102447509D01*
X103603001Y-102225010D01*
X103596901Y-102163072D01*
X104175000Y-102163072D01*
X104348254Y-102146008D01*
X104514850Y-102095472D01*
X104668386Y-102013405D01*
X104763923Y-101935000D01*
X109544249Y-101935000D01*
X109600000Y-101940491D01*
X109655751Y-101935000D01*
X109655752Y-101935000D01*
X109822499Y-101918577D01*
X109990000Y-101867766D01*
X109990000Y-102830392D01*
X109985114Y-102880000D01*
X110004615Y-103077994D01*
X110033524Y-103173294D01*
X110062368Y-103268379D01*
X110156153Y-103443840D01*
X110282367Y-103597633D01*
X110320906Y-103629261D01*
X113165000Y-106473356D01*
X113165000Y-106621335D01*
X113220147Y-106898574D01*
X113328320Y-107159727D01*
X113485363Y-107394759D01*
X113685241Y-107594637D01*
X113920273Y-107751680D01*
X114181426Y-107859853D01*
X114458665Y-107915000D01*
X114741335Y-107915000D01*
X115018574Y-107859853D01*
X115279727Y-107751680D01*
X115514759Y-107594637D01*
X115714637Y-107394759D01*
X115871680Y-107159727D01*
X115979853Y-106898574D01*
X116035000Y-106621335D01*
X116035000Y-106338665D01*
X115979853Y-106061426D01*
X115871680Y-105800273D01*
X115714637Y-105565241D01*
X115514759Y-105365363D01*
X115279727Y-105208320D01*
X115018574Y-105100147D01*
X114741335Y-105045000D01*
X114593356Y-105045000D01*
X112010000Y-102461645D01*
X112010000Y-100118160D01*
X112053676Y-100036447D01*
X112118577Y-99822499D01*
X112140491Y-99600000D01*
X112118577Y-99377501D01*
X112053676Y-99163553D01*
X111948284Y-98966377D01*
X111806449Y-98793551D01*
X111633623Y-98651716D01*
X111436447Y-98546324D01*
X111222499Y-98481423D01*
X111055752Y-98465000D01*
X110855741Y-98465000D01*
X110799999Y-98459510D01*
X110744257Y-98465000D01*
X110744248Y-98465000D01*
X110577501Y-98481423D01*
X110363553Y-98546324D01*
X110166377Y-98651716D01*
X109993551Y-98793551D01*
X109958008Y-98836860D01*
X109129869Y-99665000D01*
X104927258Y-99665000D01*
X104891176Y-99546053D01*
X104785784Y-99348877D01*
X104643949Y-99176051D01*
X104600640Y-99140508D01*
X103315000Y-97854869D01*
X103315000Y-96913245D01*
X103316501Y-96822184D01*
X103306090Y-96764926D01*
X103300385Y-96707006D01*
X103288335Y-96667283D01*
X103280909Y-96626442D01*
X103259526Y-96572312D01*
X103242632Y-96516620D01*
X103223065Y-96480012D01*
X103207813Y-96441403D01*
X103176280Y-96392484D01*
X103148847Y-96341160D01*
X103091062Y-96270748D01*
X102682297Y-95755580D01*
X104591026Y-95755580D01*
X104710914Y-96040436D01*
X105034610Y-96201299D01*
X105383469Y-96295922D01*
X105744084Y-96320667D01*
X106102598Y-96274585D01*
X106445233Y-96159446D01*
X106667886Y-96040436D01*
X106787774Y-95755580D01*
X105689400Y-94657205D01*
X104591026Y-95755580D01*
X102682297Y-95755580D01*
X101711661Y-94532284D01*
X103846333Y-94532284D01*
X103892415Y-94890798D01*
X104007554Y-95233433D01*
X104126564Y-95456086D01*
X104411420Y-95575974D01*
X105509795Y-94477600D01*
X104411420Y-93379226D01*
X104126564Y-93499114D01*
X103965701Y-93822810D01*
X103871078Y-94171669D01*
X103846333Y-94532284D01*
X101711661Y-94532284D01*
X100935652Y-93554279D01*
X100917205Y-93509744D01*
X100803937Y-93340226D01*
X100659774Y-93196063D01*
X100490256Y-93082795D01*
X100301898Y-93004774D01*
X100101939Y-92965000D01*
X99898061Y-92965000D01*
X99698102Y-93004774D01*
X99509744Y-93082795D01*
X99340226Y-93196063D01*
X99196063Y-93340226D01*
X99082795Y-93509744D01*
X99004774Y-93698102D01*
X98965000Y-93898061D01*
X98965000Y-94101939D01*
X99004774Y-94301898D01*
X99082795Y-94490256D01*
X99196063Y-94659774D01*
X99340226Y-94803937D01*
X99358001Y-94815814D01*
X101060856Y-96961928D01*
X100710000Y-96961928D01*
X100585518Y-96974188D01*
X100465820Y-97010498D01*
X100400000Y-97045680D01*
X100334180Y-97010498D01*
X100214482Y-96974188D01*
X100090000Y-96961928D01*
X99440000Y-96961928D01*
X99315518Y-96974188D01*
X99195820Y-97010498D01*
X99130000Y-97045680D01*
X99064180Y-97010498D01*
X98944482Y-96974188D01*
X98820000Y-96961928D01*
X98780750Y-96965000D01*
X98622000Y-97123750D01*
X98622000Y-98323000D01*
X98637017Y-98323000D01*
X98630000Y-98394249D01*
X98630000Y-98577000D01*
X98622000Y-98577000D01*
X98622000Y-98597000D01*
X98368000Y-98597000D01*
X98368000Y-98577000D01*
X97693750Y-98577000D01*
X97535000Y-98735750D01*
X97531928Y-99300000D01*
X97543793Y-99420473D01*
X97448254Y-99391492D01*
X97275000Y-99374428D01*
X96325000Y-99374428D01*
X96151746Y-99391492D01*
X95985150Y-99442028D01*
X95831614Y-99524095D01*
X95697038Y-99634538D01*
X95586595Y-99769114D01*
X95504528Y-99922650D01*
X95453992Y-100089246D01*
X95436928Y-100262500D01*
X95436928Y-100631797D01*
X94938072Y-100132941D01*
X94938072Y-100049999D01*
X94921008Y-99876745D01*
X94870472Y-99710149D01*
X94788405Y-99556613D01*
X94721724Y-99475363D01*
X94751185Y-99451185D01*
X94830537Y-99354494D01*
X94889502Y-99244180D01*
X94925812Y-99124482D01*
X94938072Y-99000000D01*
X94935000Y-98685750D01*
X94776250Y-98527000D01*
X93727000Y-98527000D01*
X93727000Y-98547000D01*
X93473000Y-98547000D01*
X93473000Y-98527000D01*
X92423750Y-98527000D01*
X92265000Y-98685750D01*
X92261928Y-99000000D01*
X92274188Y-99124482D01*
X92310498Y-99244180D01*
X92369463Y-99354494D01*
X92448815Y-99451185D01*
X92478276Y-99475363D01*
X92411595Y-99556613D01*
X92329528Y-99710149D01*
X92278992Y-99876745D01*
X92261928Y-100049999D01*
X92261928Y-100750001D01*
X92278992Y-100923255D01*
X92329528Y-101089851D01*
X92411595Y-101243387D01*
X92522038Y-101377962D01*
X92656613Y-101488405D01*
X92810149Y-101570472D01*
X92976745Y-101621008D01*
X93149999Y-101638072D01*
X93232941Y-101638072D01*
X95033009Y-103438141D01*
X95068551Y-103481449D01*
X95163168Y-103559099D01*
X95241377Y-103623284D01*
X95438553Y-103728676D01*
X95652501Y-103793577D01*
X95665001Y-103794808D01*
X95665001Y-104408869D01*
X94741887Y-105331983D01*
X94671246Y-105121767D01*
X94552236Y-104899114D01*
X94267380Y-104779226D01*
X93169005Y-105877600D01*
X93183148Y-105891743D01*
X93003543Y-106071348D01*
X92989400Y-106057205D01*
X92975258Y-106071348D01*
X92795652Y-105891742D01*
X92809795Y-105877600D01*
X91711420Y-104779226D01*
X91426564Y-104899114D01*
X91265701Y-105222810D01*
X91171078Y-105571669D01*
X91146333Y-105932284D01*
X91192415Y-106290798D01*
X91307554Y-106633433D01*
X91324421Y-106664990D01*
X89055751Y-106664990D01*
X89000009Y-106659500D01*
X88944267Y-106664990D01*
X88944258Y-106664990D01*
X88777511Y-106681413D01*
X88563563Y-106746314D01*
X88366387Y-106851706D01*
X88193561Y-106993541D01*
X88158021Y-107036847D01*
X84782941Y-110411928D01*
X84684999Y-110411928D01*
X84684999Y-104599620D01*
X91891026Y-104599620D01*
X92989400Y-105697995D01*
X94087774Y-104599620D01*
X93967886Y-104314764D01*
X93644190Y-104153901D01*
X93295331Y-104059278D01*
X92934716Y-104034533D01*
X92576202Y-104080615D01*
X92233567Y-104195754D01*
X92010914Y-104314764D01*
X91891026Y-104599620D01*
X84684999Y-104599620D01*
X84684999Y-97935000D01*
X92263248Y-97935000D01*
X92265000Y-98114250D01*
X92423750Y-98273000D01*
X93473000Y-98273000D01*
X93473000Y-98253000D01*
X93727000Y-98253000D01*
X93727000Y-98273000D01*
X94776250Y-98273000D01*
X94935000Y-98114250D01*
X94938072Y-97800000D01*
X94925812Y-97675518D01*
X94902904Y-97600000D01*
X97531928Y-97600000D01*
X97535000Y-98164250D01*
X97693750Y-98323000D01*
X98368000Y-98323000D01*
X98368000Y-97123750D01*
X98209250Y-96965000D01*
X98170000Y-96961928D01*
X98045518Y-96974188D01*
X97925820Y-97010498D01*
X97815506Y-97069463D01*
X97718815Y-97148815D01*
X97639463Y-97245506D01*
X97580498Y-97355820D01*
X97544188Y-97475518D01*
X97531928Y-97600000D01*
X94902904Y-97600000D01*
X94889502Y-97555820D01*
X94830537Y-97445506D01*
X94751185Y-97348815D01*
X94654494Y-97269463D01*
X94544180Y-97210498D01*
X94424482Y-97174188D01*
X94300000Y-97161928D01*
X93885750Y-97165000D01*
X93870821Y-97179929D01*
X93918577Y-97022499D01*
X93940491Y-96800000D01*
X93918577Y-96577501D01*
X93853676Y-96363553D01*
X93748284Y-96166377D01*
X93743166Y-96160141D01*
X93745233Y-96159446D01*
X93967886Y-96040436D01*
X94087774Y-95755580D01*
X92989400Y-94657205D01*
X92975258Y-94671348D01*
X92795652Y-94491742D01*
X92809795Y-94477600D01*
X93169005Y-94477600D01*
X94267380Y-95575974D01*
X94552236Y-95456086D01*
X94713099Y-95132390D01*
X94807722Y-94783531D01*
X94832467Y-94422916D01*
X94786385Y-94064402D01*
X94671246Y-93721767D01*
X94552236Y-93499114D01*
X94267380Y-93379226D01*
X93169005Y-94477600D01*
X92809795Y-94477600D01*
X91711420Y-93379226D01*
X91426564Y-93499114D01*
X91265701Y-93822810D01*
X91171078Y-94171669D01*
X91146333Y-94532284D01*
X91192415Y-94890798D01*
X91307554Y-95233433D01*
X91426564Y-95456086D01*
X91711419Y-95575973D01*
X91622392Y-95665000D01*
X84970130Y-95665000D01*
X84684999Y-95379870D01*
X84684999Y-90675000D01*
X92299428Y-90675000D01*
X92302500Y-91114250D01*
X92461250Y-91273000D01*
X93398000Y-91273000D01*
X93398000Y-90198750D01*
X93239250Y-90040000D01*
X92937500Y-90036928D01*
X92813018Y-90049188D01*
X92693320Y-90085498D01*
X92583006Y-90144463D01*
X92486315Y-90223815D01*
X92406963Y-90320506D01*
X92347998Y-90430820D01*
X92311688Y-90550518D01*
X92299428Y-90675000D01*
X84684999Y-90675000D01*
X84684999Y-87178971D01*
X85955857Y-87178971D01*
X85955857Y-87621029D01*
X86042099Y-88054592D01*
X86211267Y-88463000D01*
X86456860Y-88830557D01*
X86769442Y-89143139D01*
X87136999Y-89388732D01*
X87545407Y-89557900D01*
X87978970Y-89644142D01*
X88421028Y-89644142D01*
X88854591Y-89557900D01*
X89262999Y-89388732D01*
X89630556Y-89143139D01*
X89943138Y-88830557D01*
X90188731Y-88463000D01*
X90357899Y-88054592D01*
X90444141Y-87621029D01*
X90444141Y-87178971D01*
X90357899Y-86745408D01*
X90188731Y-86337000D01*
X89943138Y-85969443D01*
X89630556Y-85656861D01*
X89262999Y-85411268D01*
X88854591Y-85242100D01*
X88421028Y-85155858D01*
X87978970Y-85155858D01*
X87545407Y-85242100D01*
X87136999Y-85411268D01*
X86769442Y-85656861D01*
X86456860Y-85969443D01*
X86211267Y-86337000D01*
X86042099Y-86745408D01*
X85955857Y-87178971D01*
X84684999Y-87178971D01*
X84684999Y-75731874D01*
X99347731Y-75731874D01*
X99391993Y-75952916D01*
X99609089Y-76051301D01*
X99841208Y-76105442D01*
X100079429Y-76113258D01*
X100314598Y-76074450D01*
X100537677Y-75990509D01*
X100608007Y-75952916D01*
X100652269Y-75731874D01*
X100000000Y-75079605D01*
X99347731Y-75731874D01*
X84684999Y-75731874D01*
X84684999Y-74979429D01*
X98786742Y-74979429D01*
X98825550Y-75214598D01*
X98909491Y-75437677D01*
X98947084Y-75508007D01*
X99168126Y-75552269D01*
X99820395Y-74900000D01*
X100179605Y-74900000D01*
X100831874Y-75552269D01*
X101052916Y-75508007D01*
X101151301Y-75290911D01*
X101205442Y-75058792D01*
X101213258Y-74820571D01*
X101174450Y-74585402D01*
X101090509Y-74362323D01*
X101052916Y-74291993D01*
X100831874Y-74247731D01*
X100179605Y-74900000D01*
X99820395Y-74900000D01*
X99168126Y-74247731D01*
X98947084Y-74291993D01*
X98848699Y-74509089D01*
X98794558Y-74741208D01*
X98786742Y-74979429D01*
X84684999Y-74979429D01*
X84684999Y-74068126D01*
X99347731Y-74068126D01*
X100000000Y-74720395D01*
X100652269Y-74068126D01*
X100608007Y-73847084D01*
X100390911Y-73748699D01*
X100158792Y-73694558D01*
X99920571Y-73686742D01*
X99685402Y-73725550D01*
X99462323Y-73809491D01*
X99391993Y-73847084D01*
X99347731Y-74068126D01*
X84684999Y-74068126D01*
X84684999Y-71825000D01*
X98786928Y-71825000D01*
X98786928Y-72975000D01*
X98799188Y-73099482D01*
X98835498Y-73219180D01*
X98894463Y-73329494D01*
X98973815Y-73426185D01*
X99070506Y-73505537D01*
X99180820Y-73564502D01*
X99300518Y-73600812D01*
X99425000Y-73613072D01*
X100575000Y-73613072D01*
X100699482Y-73600812D01*
X100819180Y-73564502D01*
X100929494Y-73505537D01*
X101026185Y-73426185D01*
X101105537Y-73329494D01*
X101164502Y-73219180D01*
X101200812Y-73099482D01*
X101213072Y-72975000D01*
X101213072Y-71825000D01*
X101200812Y-71700518D01*
X101164502Y-71580820D01*
X101105537Y-71470506D01*
X101026185Y-71373815D01*
X100929494Y-71294463D01*
X100819180Y-71235498D01*
X100699482Y-71199188D01*
X100575000Y-71186928D01*
X99425000Y-71186928D01*
X99300518Y-71199188D01*
X99180820Y-71235498D01*
X99070506Y-71294463D01*
X98973815Y-71373815D01*
X98894463Y-71470506D01*
X98835498Y-71580820D01*
X98799188Y-71700518D01*
X98786928Y-71825000D01*
X84684999Y-71825000D01*
X84684999Y-69261663D01*
X86017207Y-67929455D01*
X86042099Y-68054592D01*
X86211267Y-68463000D01*
X86456860Y-68830557D01*
X86769442Y-69143139D01*
X87136999Y-69388732D01*
X87545407Y-69557900D01*
X87978970Y-69644142D01*
X88421028Y-69644142D01*
X88854591Y-69557900D01*
X89262999Y-69388732D01*
X89630556Y-69143139D01*
X89943138Y-68830557D01*
X90187261Y-68465200D01*
X98061728Y-68465200D01*
X98073988Y-68589682D01*
X98110298Y-68709380D01*
X98169263Y-68819694D01*
X98248615Y-68916385D01*
X98345306Y-68995737D01*
X98455620Y-69054702D01*
X98575318Y-69091012D01*
X98699800Y-69103272D01*
X99714050Y-69100200D01*
X99872800Y-68941450D01*
X99872800Y-67592200D01*
X100126800Y-67592200D01*
X100126800Y-68941450D01*
X100285550Y-69100200D01*
X101299800Y-69103272D01*
X101424282Y-69091012D01*
X101543980Y-69054702D01*
X101654294Y-68995737D01*
X101750985Y-68916385D01*
X101830337Y-68819694D01*
X101889302Y-68709380D01*
X101925612Y-68589682D01*
X101937218Y-68471840D01*
X105288091Y-68471840D01*
X105382930Y-68736681D01*
X105527615Y-68977931D01*
X105716586Y-69186319D01*
X105942580Y-69353837D01*
X106196913Y-69474046D01*
X106330961Y-69514704D01*
X106553000Y-69392715D01*
X106553000Y-68249800D01*
X106807000Y-68249800D01*
X106807000Y-69392715D01*
X107029039Y-69514704D01*
X107163087Y-69474046D01*
X107417420Y-69353837D01*
X107643414Y-69186319D01*
X107832385Y-68977931D01*
X107977070Y-68736681D01*
X108071909Y-68471840D01*
X107950624Y-68249800D01*
X106807000Y-68249800D01*
X106553000Y-68249800D01*
X105409376Y-68249800D01*
X105288091Y-68471840D01*
X101937218Y-68471840D01*
X101937872Y-68465200D01*
X101934899Y-67773760D01*
X105288091Y-67773760D01*
X105409376Y-67995800D01*
X106553000Y-67995800D01*
X106553000Y-66852885D01*
X106807000Y-66852885D01*
X106807000Y-67995800D01*
X107950624Y-67995800D01*
X108071909Y-67773760D01*
X107977070Y-67508919D01*
X107832385Y-67267669D01*
X107751952Y-67178971D01*
X109555858Y-67178971D01*
X109555858Y-67621029D01*
X109642100Y-68054592D01*
X109811268Y-68463000D01*
X110056861Y-68830557D01*
X110369443Y-69143139D01*
X110737000Y-69388732D01*
X111145408Y-69557900D01*
X111578971Y-69644142D01*
X112021029Y-69644142D01*
X112454592Y-69557900D01*
X112863000Y-69388732D01*
X113230557Y-69143139D01*
X113543139Y-68830557D01*
X113788732Y-68463000D01*
X113957900Y-68054592D01*
X114044142Y-67621029D01*
X114044142Y-67178971D01*
X113957900Y-66745408D01*
X113788732Y-66337000D01*
X113543139Y-65969443D01*
X113230557Y-65656861D01*
X112863000Y-65411268D01*
X112454592Y-65242100D01*
X112021029Y-65155858D01*
X111578971Y-65155858D01*
X111145408Y-65242100D01*
X110737000Y-65411268D01*
X110369443Y-65656861D01*
X110056861Y-65969443D01*
X109811268Y-66337000D01*
X109642100Y-66745408D01*
X109555858Y-67178971D01*
X107751952Y-67178971D01*
X107643414Y-67059281D01*
X107417420Y-66891763D01*
X107163087Y-66771554D01*
X107029039Y-66730896D01*
X106807000Y-66852885D01*
X106553000Y-66852885D01*
X106330961Y-66730896D01*
X106196913Y-66771554D01*
X105942580Y-66891763D01*
X105716586Y-67059281D01*
X105527615Y-67267669D01*
X105382930Y-67508919D01*
X105288091Y-67773760D01*
X101934899Y-67773760D01*
X101934800Y-67750950D01*
X101776050Y-67592200D01*
X100126800Y-67592200D01*
X99872800Y-67592200D01*
X98223550Y-67592200D01*
X98064800Y-67750950D01*
X98061728Y-68465200D01*
X90187261Y-68465200D01*
X90188731Y-68463000D01*
X90357899Y-68054592D01*
X90444141Y-67621029D01*
X90444141Y-67178971D01*
X90357899Y-66745408D01*
X90241834Y-66465200D01*
X98061728Y-66465200D01*
X98064800Y-67179450D01*
X98223550Y-67338200D01*
X99872800Y-67338200D01*
X99872800Y-65988950D01*
X100126800Y-65988950D01*
X100126800Y-67338200D01*
X101776050Y-67338200D01*
X101934800Y-67179450D01*
X101937872Y-66465200D01*
X101925612Y-66340718D01*
X101889302Y-66221020D01*
X101830337Y-66110706D01*
X101750985Y-66014015D01*
X101654294Y-65934663D01*
X101543980Y-65875698D01*
X101424282Y-65839388D01*
X101299800Y-65827128D01*
X100285550Y-65830200D01*
X100126800Y-65988950D01*
X99872800Y-65988950D01*
X99714050Y-65830200D01*
X98699800Y-65827128D01*
X98575318Y-65839388D01*
X98455620Y-65875698D01*
X98345306Y-65934663D01*
X98248615Y-66014015D01*
X98169263Y-66110706D01*
X98110298Y-66221020D01*
X98073988Y-66340718D01*
X98061728Y-66465200D01*
X90241834Y-66465200D01*
X90188731Y-66337000D01*
X89943138Y-65969443D01*
X89738895Y-65765200D01*
X93661728Y-65765200D01*
X93673988Y-65889682D01*
X93710298Y-66009380D01*
X93769263Y-66119694D01*
X93848615Y-66216385D01*
X93945306Y-66295737D01*
X94055620Y-66354702D01*
X94175318Y-66391012D01*
X94299800Y-66403272D01*
X95014050Y-66400200D01*
X95172800Y-66241450D01*
X95172800Y-64592200D01*
X95426800Y-64592200D01*
X95426800Y-66241450D01*
X95585550Y-66400200D01*
X96299800Y-66403272D01*
X96424282Y-66391012D01*
X96543980Y-66354702D01*
X96654294Y-66295737D01*
X96750985Y-66216385D01*
X96830337Y-66119694D01*
X96889302Y-66009380D01*
X96925612Y-65889682D01*
X96937872Y-65765200D01*
X96934800Y-64750950D01*
X96776050Y-64592200D01*
X95426800Y-64592200D01*
X95172800Y-64592200D01*
X93823550Y-64592200D01*
X93664800Y-64750950D01*
X93661728Y-65765200D01*
X89738895Y-65765200D01*
X89630556Y-65656861D01*
X89262999Y-65411268D01*
X88854591Y-65242100D01*
X88729454Y-65217208D01*
X91346463Y-62600200D01*
X94009781Y-62600200D01*
X93945306Y-62634663D01*
X93848615Y-62714015D01*
X93769263Y-62810706D01*
X93710298Y-62921020D01*
X93673988Y-63040718D01*
X93661728Y-63165200D01*
X93664800Y-64179450D01*
X93823550Y-64338200D01*
X95172800Y-64338200D01*
X95172800Y-64318200D01*
X95426800Y-64318200D01*
X95426800Y-64338200D01*
X96776050Y-64338200D01*
X96934800Y-64179450D01*
X96937872Y-63165200D01*
X96925612Y-63040718D01*
X96889302Y-62921020D01*
X96830337Y-62810706D01*
X96750985Y-62714015D01*
X96654294Y-62634663D01*
X96589819Y-62600200D01*
X98077179Y-62600200D01*
X98110298Y-62709380D01*
X98169263Y-62819694D01*
X98248615Y-62916385D01*
X98345306Y-62995737D01*
X98455620Y-63054702D01*
X98575318Y-63091012D01*
X98699800Y-63103272D01*
X101299800Y-63103272D01*
X101424282Y-63091012D01*
X101543980Y-63054702D01*
X101654294Y-62995737D01*
X101750985Y-62916385D01*
X101830337Y-62819694D01*
X101889302Y-62709380D01*
X101925612Y-62589682D01*
X101937872Y-62465200D01*
X101937872Y-60465200D01*
X101925612Y-60340718D01*
X101889302Y-60221020D01*
X101830337Y-60110706D01*
X101750985Y-60014015D01*
X101654294Y-59934663D01*
X101543980Y-59875698D01*
X101424282Y-59839388D01*
X101299800Y-59827128D01*
X98699800Y-59827128D01*
X98575318Y-59839388D01*
X98455620Y-59875698D01*
X98345306Y-59934663D01*
X98248615Y-60014015D01*
X98169263Y-60110706D01*
X98110298Y-60221020D01*
X98077179Y-60330200D01*
X90932082Y-60330200D01*
X90876330Y-60324709D01*
X90820579Y-60330200D01*
X90653832Y-60346623D01*
X90439884Y-60411524D01*
X90242708Y-60516916D01*
X90069882Y-60658751D01*
X90034340Y-60702059D01*
X83434998Y-67301402D01*
X83434998Y-62735735D01*
X83439723Y-62687691D01*
X83443201Y-62676212D01*
X83448866Y-62665610D01*
X83456412Y-62656414D01*
X83465611Y-62648866D01*
X83476214Y-62643201D01*
X83487690Y-62639723D01*
X83535715Y-62635000D01*
X85786105Y-62635000D01*
X85819024Y-62631758D01*
X85838955Y-62631897D01*
X85849168Y-62630896D01*
X86470277Y-62565615D01*
X86535584Y-62552209D01*
X86600970Y-62539736D01*
X86610795Y-62536771D01*
X87207395Y-62352092D01*
X87268862Y-62326254D01*
X87330573Y-62301321D01*
X87339634Y-62296504D01*
X87889001Y-61999462D01*
X87944240Y-61962202D01*
X87999971Y-61925733D01*
X88007924Y-61919247D01*
X88489133Y-61521156D01*
X88536094Y-61473866D01*
X88583668Y-61427278D01*
X88590210Y-61419371D01*
X88984931Y-60935395D01*
X89021811Y-60879887D01*
X89059433Y-60824941D01*
X89064315Y-60815914D01*
X89357514Y-60264486D01*
X89382915Y-60202859D01*
X89409142Y-60141666D01*
X89412177Y-60131863D01*
X89541718Y-59702800D01*
X105241928Y-59702800D01*
X105241928Y-61302800D01*
X105254188Y-61427282D01*
X105290498Y-61546980D01*
X105349463Y-61657294D01*
X105428815Y-61753985D01*
X105525506Y-61833337D01*
X105635820Y-61892302D01*
X105755518Y-61928612D01*
X105880000Y-61940872D01*
X107480000Y-61940872D01*
X107604482Y-61928612D01*
X107724180Y-61892302D01*
X107834494Y-61833337D01*
X107931185Y-61753985D01*
X108010537Y-61657294D01*
X108069502Y-61546980D01*
X108105812Y-61427282D01*
X108118072Y-61302800D01*
X108118072Y-59702800D01*
X108105812Y-59578318D01*
X108069502Y-59458620D01*
X108010537Y-59348306D01*
X107931185Y-59251615D01*
X107834494Y-59172263D01*
X107724180Y-59113298D01*
X107604482Y-59076988D01*
X107480000Y-59064728D01*
X105880000Y-59064728D01*
X105755518Y-59076988D01*
X105635820Y-59113298D01*
X105525506Y-59172263D01*
X105428815Y-59251615D01*
X105349463Y-59348306D01*
X105290498Y-59458620D01*
X105254188Y-59578318D01*
X105241928Y-59702800D01*
X89541718Y-59702800D01*
X89592686Y-59533988D01*
X89605635Y-59468589D01*
X89619475Y-59403480D01*
X89620548Y-59393274D01*
X89681492Y-58771724D01*
X89681492Y-58771723D01*
X89685000Y-58736105D01*
X89685000Y-56485715D01*
X89689723Y-56437691D01*
X89693201Y-56426212D01*
X89698866Y-56415610D01*
X89706412Y-56406414D01*
X89715611Y-56398866D01*
X89726214Y-56393201D01*
X89737690Y-56389723D01*
X89785715Y-56385000D01*
X110214284Y-56385000D01*
X110262308Y-56389723D01*
%TA.AperFunction,Conductor*%
D32*
G36*
X110262308Y-56389723D02*
G01*
X110273787Y-56393201D01*
X110284389Y-56398866D01*
X110293585Y-56406412D01*
X110301133Y-56415611D01*
X110306798Y-56426214D01*
X110310276Y-56437690D01*
X110315001Y-56485735D01*
X110315000Y-58736104D01*
X110318242Y-58769023D01*
X110318103Y-58788955D01*
X110319104Y-58799168D01*
X110384385Y-59420277D01*
X110397791Y-59485584D01*
X110410264Y-59550970D01*
X110413229Y-59560795D01*
X110597908Y-60157395D01*
X110623746Y-60218862D01*
X110648679Y-60280573D01*
X110653496Y-60289634D01*
X110950538Y-60839001D01*
X110987798Y-60894240D01*
X111024267Y-60949971D01*
X111030753Y-60957924D01*
X111428844Y-61439133D01*
X111476134Y-61486094D01*
X111522722Y-61533668D01*
X111530629Y-61540210D01*
X112014605Y-61934931D01*
X112070113Y-61971811D01*
X112125059Y-62009433D01*
X112134086Y-62014315D01*
X112685514Y-62307514D01*
X112747141Y-62332915D01*
X112808334Y-62359142D01*
X112818137Y-62362177D01*
X113416012Y-62542686D01*
X113481411Y-62555635D01*
X113546520Y-62569475D01*
X113556726Y-62570548D01*
X114178276Y-62631492D01*
X114213894Y-62635000D01*
X116464284Y-62635000D01*
X116512308Y-62639723D01*
X116523787Y-62643201D01*
X116534389Y-62648866D01*
X116543585Y-62656412D01*
X116551133Y-62665611D01*
X116556798Y-62676214D01*
X116560276Y-62687690D01*
X116565001Y-62735735D01*
X116565000Y-84678388D01*
X114458665Y-82572053D01*
X114568386Y-82513405D01*
X114702962Y-82402962D01*
X114813405Y-82268386D01*
X114895472Y-82114850D01*
X114946008Y-81948254D01*
X114963072Y-81775000D01*
X114963072Y-80825000D01*
X114946008Y-80651746D01*
X114895472Y-80485150D01*
X114835000Y-80372015D01*
X114835000Y-80108461D01*
X114888405Y-80043387D01*
X114970472Y-79889851D01*
X115021008Y-79723255D01*
X115038072Y-79550001D01*
X115038072Y-78849999D01*
X115021008Y-78676745D01*
X114970472Y-78510149D01*
X114888405Y-78356613D01*
X114777962Y-78222038D01*
X114751109Y-78200000D01*
X114777962Y-78177962D01*
X114888405Y-78043387D01*
X114970472Y-77889851D01*
X115021008Y-77723255D01*
X115038072Y-77550001D01*
X115038072Y-76849999D01*
X115021008Y-76676745D01*
X114970472Y-76510149D01*
X114888405Y-76356613D01*
X114777962Y-76222038D01*
X114710000Y-76166263D01*
X114710000Y-75727623D01*
X114735000Y-75601939D01*
X114735000Y-75398061D01*
X114695226Y-75198102D01*
X114617205Y-75009744D01*
X114503937Y-74840226D01*
X114359774Y-74696063D01*
X114190256Y-74582795D01*
X114001898Y-74504774D01*
X113801939Y-74465000D01*
X113598061Y-74465000D01*
X113398102Y-74504774D01*
X113209744Y-74582795D01*
X113040226Y-74696063D01*
X112896063Y-74840226D01*
X112782795Y-75009744D01*
X112704774Y-75198102D01*
X112665000Y-75398061D01*
X112665000Y-75601939D01*
X112690001Y-75727628D01*
X112690001Y-76166262D01*
X112622038Y-76222038D01*
X112511595Y-76356613D01*
X112429528Y-76510149D01*
X112378992Y-76676745D01*
X112361928Y-76849999D01*
X112361928Y-77550001D01*
X112378992Y-77723255D01*
X112429528Y-77889851D01*
X112511595Y-78043387D01*
X112622038Y-78177962D01*
X112648891Y-78200000D01*
X112622038Y-78222038D01*
X112511595Y-78356613D01*
X112429528Y-78510149D01*
X112378992Y-78676745D01*
X112361928Y-78849999D01*
X112361928Y-79550001D01*
X112378992Y-79723255D01*
X112429528Y-79889851D01*
X112511595Y-80043387D01*
X112565000Y-80108462D01*
X112565000Y-80145367D01*
X112493386Y-80086595D01*
X112339850Y-80004528D01*
X112173254Y-79953992D01*
X112000000Y-79936928D01*
X111325000Y-79936928D01*
X111151746Y-79953992D01*
X110985150Y-80004528D01*
X110831614Y-80086595D01*
X110697038Y-80197038D01*
X110586595Y-80331614D01*
X110504528Y-80485150D01*
X110453992Y-80651746D01*
X110436928Y-80825000D01*
X110436928Y-80999607D01*
X110420732Y-81052998D01*
X110414131Y-81120014D01*
X109320901Y-82213244D01*
X109282368Y-82244867D01*
X109250745Y-82283400D01*
X109250744Y-82283401D01*
X109156154Y-82398660D01*
X109062368Y-82574121D01*
X109004615Y-82764506D01*
X108985114Y-82962500D01*
X108990001Y-83012117D01*
X108990000Y-84381645D01*
X108981645Y-84390000D01*
X108633737Y-84390000D01*
X108577962Y-84322038D01*
X108443387Y-84211595D01*
X108289851Y-84129528D01*
X108123255Y-84078992D01*
X107950001Y-84061928D01*
X107555710Y-84061928D01*
X107559990Y-84018467D01*
X107559990Y-81918455D01*
X107564271Y-81874989D01*
X107559990Y-81831523D01*
X107559990Y-81831513D01*
X107547185Y-81701500D01*
X107496579Y-81534677D01*
X107414401Y-81380931D01*
X107390200Y-81351442D01*
X107331522Y-81279943D01*
X107331520Y-81279941D01*
X107303807Y-81246173D01*
X107270039Y-81218460D01*
X105390334Y-79338756D01*
X105362617Y-79304983D01*
X105227859Y-79194389D01*
X105074113Y-79112211D01*
X104907290Y-79061605D01*
X104777277Y-79048800D01*
X104777269Y-79048800D01*
X104733800Y-79044519D01*
X104690331Y-79048800D01*
X103975195Y-79048800D01*
X103848825Y-78859675D01*
X103614125Y-78624975D01*
X103338147Y-78440572D01*
X103031496Y-78313554D01*
X102705958Y-78248800D01*
X102374042Y-78248800D01*
X102048504Y-78313554D01*
X101741853Y-78440572D01*
X101465875Y-78624975D01*
X101270000Y-78820850D01*
X101074125Y-78624975D01*
X100798147Y-78440572D01*
X100491496Y-78313554D01*
X100165958Y-78248800D01*
X99834042Y-78248800D01*
X99508504Y-78313554D01*
X99201853Y-78440572D01*
X98925875Y-78624975D01*
X98730000Y-78820850D01*
X98534125Y-78624975D01*
X98258147Y-78440572D01*
X97951496Y-78313554D01*
X97625958Y-78248800D01*
X97294042Y-78248800D01*
X96968504Y-78313554D01*
X96661853Y-78440572D01*
X96385875Y-78624975D01*
X96151175Y-78859675D01*
X95966772Y-79135653D01*
X95839754Y-79442304D01*
X95775000Y-79767842D01*
X95775000Y-80099758D01*
X95790046Y-80175399D01*
X95155900Y-80809545D01*
X95117367Y-80841168D01*
X95085744Y-80879701D01*
X95085743Y-80879702D01*
X94991153Y-80994961D01*
X94958832Y-81055428D01*
X94950900Y-81053022D01*
X94784153Y-81036599D01*
X92084144Y-81036599D01*
X92028400Y-81031109D01*
X91972656Y-81036599D01*
X91972649Y-81036599D01*
X91826894Y-81050955D01*
X91805901Y-81053022D01*
X91756106Y-81068128D01*
X91591954Y-81117923D01*
X91394778Y-81223315D01*
X91221952Y-81365150D01*
X91186405Y-81408464D01*
X90558012Y-82036857D01*
X90451717Y-82166378D01*
X90346324Y-82363554D01*
X90281423Y-82577502D01*
X90259509Y-82800000D01*
X90281423Y-83022498D01*
X90346324Y-83236446D01*
X90451717Y-83433622D01*
X90593552Y-83606448D01*
X90766378Y-83748283D01*
X90963554Y-83853676D01*
X91177502Y-83918577D01*
X91400000Y-83940491D01*
X91622498Y-83918577D01*
X91836446Y-83853676D01*
X92033622Y-83748283D01*
X92163143Y-83641988D01*
X92498532Y-83306599D01*
X94784153Y-83306599D01*
X94825000Y-83302576D01*
X94824999Y-89515391D01*
X94820113Y-89564999D01*
X94839614Y-89762993D01*
X94897367Y-89953379D01*
X94970413Y-90090039D01*
X94922650Y-90104528D01*
X94769114Y-90186595D01*
X94634538Y-90297038D01*
X94629158Y-90303594D01*
X94563685Y-90223815D01*
X94466994Y-90144463D01*
X94356680Y-90085498D01*
X94236982Y-90049188D01*
X94112500Y-90036928D01*
X93810750Y-90040000D01*
X93652000Y-90198750D01*
X93652000Y-91273000D01*
X93672000Y-91273000D01*
X93672000Y-91527000D01*
X93652000Y-91527000D01*
X93652000Y-91547000D01*
X93398000Y-91547000D01*
X93398000Y-91527000D01*
X92461250Y-91527000D01*
X92302500Y-91685750D01*
X92299428Y-92125000D01*
X92311688Y-92249482D01*
X92347998Y-92369180D01*
X92406963Y-92479494D01*
X92486315Y-92576185D01*
X92583006Y-92655537D01*
X92619509Y-92675049D01*
X92576202Y-92680615D01*
X92233567Y-92795754D01*
X92010914Y-92914764D01*
X91891026Y-93199620D01*
X92989400Y-94297995D01*
X94087774Y-93199620D01*
X93967886Y-92914764D01*
X93652002Y-92757783D01*
X93652002Y-92601252D01*
X93810750Y-92760000D01*
X94112500Y-92763072D01*
X94236982Y-92750812D01*
X94356680Y-92714502D01*
X94466994Y-92655537D01*
X94563685Y-92576185D01*
X94629158Y-92496406D01*
X94634538Y-92502962D01*
X94769114Y-92613405D01*
X94922650Y-92695472D01*
X95089246Y-92746008D01*
X95262500Y-92763072D01*
X95393888Y-92763072D01*
X95322038Y-92822038D01*
X95211595Y-92956613D01*
X95129528Y-93110149D01*
X95078992Y-93276745D01*
X95061928Y-93449999D01*
X95061928Y-94150001D01*
X95078992Y-94323255D01*
X95129528Y-94489851D01*
X95211595Y-94643387D01*
X95322038Y-94777962D01*
X95348891Y-94800000D01*
X95322038Y-94822038D01*
X95211595Y-94956613D01*
X95129528Y-95110149D01*
X95078992Y-95276745D01*
X95061928Y-95449999D01*
X95061928Y-96150001D01*
X95078992Y-96323255D01*
X95129528Y-96489851D01*
X95211595Y-96643387D01*
X95322038Y-96777962D01*
X95456613Y-96888405D01*
X95610149Y-96970472D01*
X95776745Y-97021008D01*
X95949999Y-97038072D01*
X96850001Y-97038072D01*
X97023255Y-97021008D01*
X97189851Y-96970472D01*
X97343387Y-96888405D01*
X97438924Y-96810000D01*
X97450392Y-96810000D01*
X97500000Y-96814886D01*
X97697994Y-96795385D01*
X97888380Y-96737632D01*
X98063840Y-96643847D01*
X98217633Y-96517633D01*
X98249262Y-96479093D01*
X98453222Y-96275133D01*
X98559774Y-96203937D01*
X98703937Y-96059774D01*
X98817205Y-95890256D01*
X98895226Y-95701898D01*
X98935000Y-95501939D01*
X98935000Y-95298061D01*
X98895226Y-95098102D01*
X98817205Y-94909744D01*
X98703937Y-94740226D01*
X98559774Y-94596063D01*
X98390256Y-94482795D01*
X98201898Y-94404774D01*
X98001939Y-94365000D01*
X97798061Y-94365000D01*
X97702584Y-94383991D01*
X97721008Y-94323255D01*
X97738072Y-94150001D01*
X97738072Y-93449999D01*
X97727787Y-93345568D01*
X98435283Y-92638072D01*
X98820000Y-92638072D01*
X98944482Y-92625812D01*
X99064180Y-92589502D01*
X99130000Y-92554320D01*
X99195820Y-92589502D01*
X99315518Y-92625812D01*
X99440000Y-92638072D01*
X100090000Y-92638072D01*
X100214482Y-92625812D01*
X100217570Y-92624875D01*
X100233960Y-92655537D01*
X100281166Y-92743854D01*
X100407380Y-92897647D01*
X100445913Y-92929270D01*
X100770737Y-93254094D01*
X100802365Y-93292633D01*
X100956158Y-93418847D01*
X101106328Y-93499114D01*
X101131618Y-93512632D01*
X101322003Y-93570385D01*
X101519998Y-93589886D01*
X101569606Y-93585000D01*
X103175392Y-93585000D01*
X103225000Y-93589886D01*
X103422994Y-93570385D01*
X103613380Y-93512632D01*
X103788840Y-93418847D01*
X103942633Y-93292633D01*
X103974261Y-93254094D01*
X105206250Y-92022105D01*
X105832231Y-92648086D01*
X105634716Y-92634533D01*
X105276202Y-92680615D01*
X104933567Y-92795754D01*
X104710914Y-92914764D01*
X104591026Y-93199620D01*
X105689400Y-94297995D01*
X105703542Y-94283852D01*
X105883148Y-94463458D01*
X105869005Y-94477600D01*
X106967380Y-95575974D01*
X107252236Y-95456086D01*
X107413099Y-95132390D01*
X107507722Y-94783531D01*
X107532467Y-94422916D01*
X107526779Y-94378662D01*
X107569114Y-94413405D01*
X107722650Y-94495472D01*
X107889246Y-94546008D01*
X108062500Y-94563072D01*
X108737500Y-94563072D01*
X108910754Y-94546008D01*
X109077350Y-94495472D01*
X109230886Y-94413405D01*
X109365462Y-94302962D01*
X109437500Y-94215183D01*
X109509538Y-94302962D01*
X109644114Y-94413405D01*
X109797650Y-94495472D01*
X109964246Y-94546008D01*
X110137500Y-94563072D01*
X110812500Y-94563072D01*
X110985754Y-94546008D01*
X111152350Y-94495472D01*
X111305886Y-94413405D01*
X111440462Y-94302962D01*
X111550905Y-94168386D01*
X111632972Y-94014850D01*
X111683508Y-93848254D01*
X111700572Y-93675000D01*
X111700572Y-92725000D01*
X111683508Y-92551746D01*
X111632972Y-92385150D01*
X111628447Y-92376684D01*
X111841988Y-92163143D01*
X111948283Y-92033622D01*
X112053675Y-91836447D01*
X112118577Y-91622500D01*
X112140491Y-91400001D01*
X112118577Y-91177502D01*
X112053675Y-90963554D01*
X111948283Y-90766378D01*
X111806448Y-90593552D01*
X111633622Y-90451717D01*
X111436446Y-90346325D01*
X111222498Y-90281423D01*
X110999999Y-90259509D01*
X110777500Y-90281423D01*
X110563553Y-90346325D01*
X110366378Y-90451717D01*
X110236857Y-90558012D01*
X109711860Y-91083009D01*
X109668552Y-91118551D01*
X109526717Y-91291377D01*
X109421324Y-91488553D01*
X109356423Y-91702501D01*
X109346441Y-91803852D01*
X109334509Y-91925000D01*
X109340000Y-91980751D01*
X109340000Y-92076142D01*
X109230886Y-91986595D01*
X109077350Y-91904528D01*
X108910754Y-91853992D01*
X108737500Y-91836928D01*
X108062500Y-91836928D01*
X107894345Y-91853490D01*
X107852878Y-91812022D01*
X107989851Y-91770472D01*
X108143387Y-91688405D01*
X108277962Y-91577962D01*
X108388405Y-91443387D01*
X108470472Y-91289851D01*
X108521008Y-91123255D01*
X108538072Y-90950001D01*
X108538072Y-90690283D01*
X109379094Y-89849261D01*
X109417633Y-89817633D01*
X109543847Y-89663840D01*
X109637632Y-89488380D01*
X109695385Y-89297994D01*
X109710000Y-89149608D01*
X109710000Y-89149606D01*
X109714886Y-89100001D01*
X109710000Y-89050396D01*
X109710000Y-88249608D01*
X109712474Y-88224490D01*
X109811268Y-88463000D01*
X110056861Y-88830557D01*
X110369443Y-89143139D01*
X110737000Y-89388732D01*
X111145408Y-89557900D01*
X111578971Y-89644142D01*
X112021029Y-89644142D01*
X112454592Y-89557900D01*
X112863000Y-89388732D01*
X113230557Y-89143139D01*
X113543139Y-88830557D01*
X113788732Y-88463000D01*
X113957900Y-88054592D01*
X114044142Y-87621029D01*
X114044142Y-87178971D01*
X113957900Y-86745408D01*
X113788732Y-86337000D01*
X113543139Y-85969443D01*
X113230557Y-85656861D01*
X112863000Y-85411268D01*
X112454592Y-85242100D01*
X112021029Y-85155858D01*
X111578971Y-85155858D01*
X111145408Y-85242100D01*
X110839905Y-85368643D01*
X110843847Y-85363840D01*
X110937632Y-85188380D01*
X110995385Y-84997994D01*
X111010000Y-84849608D01*
X111010000Y-84849606D01*
X111014886Y-84800001D01*
X111010000Y-84750396D01*
X111010000Y-83380855D01*
X111356825Y-83034030D01*
X115114990Y-86792196D01*
X115114991Y-92281928D01*
X113800000Y-92281928D01*
X113675518Y-92294188D01*
X113555820Y-92330498D01*
X113445506Y-92389463D01*
X113348815Y-92468815D01*
X113269463Y-92565506D01*
X113210498Y-92675820D01*
X113174188Y-92795518D01*
X113161928Y-92920000D01*
X113161928Y-94520000D01*
X113174188Y-94644482D01*
X113210498Y-94764180D01*
X113269463Y-94874494D01*
X113348815Y-94971185D01*
X113445506Y-95050537D01*
X113555820Y-95109502D01*
X113675518Y-95145812D01*
X113800000Y-95158072D01*
X115114991Y-95158072D01*
X115114991Y-96503100D01*
X114202046Y-97416045D01*
X114181426Y-97420147D01*
X113920273Y-97528320D01*
X113685241Y-97685363D01*
X113485363Y-97885241D01*
X113328320Y-98120273D01*
X113220147Y-98381426D01*
X113165000Y-98658665D01*
X113165000Y-98941335D01*
X113220147Y-99218574D01*
X113328320Y-99479727D01*
X113465000Y-99684284D01*
X113465000Y-100059043D01*
X113445506Y-100069463D01*
X113348815Y-100148815D01*
X113269463Y-100245506D01*
X113210498Y-100355820D01*
X113174188Y-100475518D01*
X113161928Y-100600000D01*
X113161928Y-102200000D01*
X113174188Y-102324482D01*
X113210498Y-102444180D01*
X113269463Y-102554494D01*
X113348815Y-102651185D01*
X113445506Y-102730537D01*
X113555820Y-102789502D01*
X113675518Y-102825812D01*
X113800000Y-102838072D01*
X115400000Y-102838072D01*
X115524482Y-102825812D01*
X115644180Y-102789502D01*
X115754494Y-102730537D01*
X115851185Y-102651185D01*
X115930537Y-102554494D01*
X115989502Y-102444180D01*
X116025812Y-102324482D01*
X116038072Y-102200000D01*
X116038072Y-100600000D01*
X116025812Y-100475518D01*
X115989502Y-100355820D01*
X115930537Y-100245506D01*
X115851185Y-100148815D01*
X115754494Y-100069463D01*
X115735000Y-100059043D01*
X115735000Y-99684284D01*
X115871680Y-99479727D01*
X115979853Y-99218574D01*
X115983955Y-99197954D01*
X116565000Y-98616909D01*
X116564999Y-137214284D01*
X116560276Y-137262309D01*
X116556798Y-137273785D01*
X116551133Y-137284388D01*
X116543585Y-137293587D01*
X116534389Y-137301133D01*
X116523787Y-137306798D01*
X116512308Y-137310276D01*
X116464274Y-137315000D01*
X114213895Y-137315000D01*
X114180943Y-137318245D01*
X114160696Y-137318104D01*
X114150483Y-137319105D01*
X113519669Y-137385406D01*
X113454362Y-137398812D01*
X113388976Y-137411285D01*
X113379151Y-137414250D01*
X112773228Y-137601816D01*
X112711813Y-137627633D01*
X112650052Y-137652586D01*
X112640991Y-137657403D01*
X112083039Y-137959086D01*
X112027784Y-137996356D01*
X111972069Y-138032815D01*
X111964116Y-138039301D01*
X111475388Y-138443612D01*
X111428411Y-138490918D01*
X111380853Y-138537490D01*
X111374311Y-138545397D01*
X110973422Y-139036935D01*
X110936543Y-139092443D01*
X110898921Y-139147388D01*
X110894040Y-139156415D01*
X110596259Y-139716459D01*
X110570861Y-139778079D01*
X110544630Y-139839280D01*
X110541596Y-139849079D01*
X110541596Y-139849081D01*
X110541595Y-139849083D01*
X110358266Y-140456300D01*
X110345323Y-140521668D01*
X110331477Y-140586809D01*
X110330404Y-140597015D01*
X110268508Y-141228276D01*
X110268508Y-141228287D01*
X110265001Y-141263895D01*
X110265000Y-143514274D01*
X110260276Y-143562309D01*
X110256798Y-143573785D01*
X110251133Y-143584388D01*
X110243585Y-143593587D01*
X110234389Y-143601133D01*
X110223787Y-143606798D01*
X110212308Y-143610276D01*
X110164274Y-143615000D01*
X108570491Y-143615000D01*
X108801705Y-143544862D01*
X109085742Y-143393041D01*
X109334704Y-143188724D01*
X109385915Y-143126323D01*
X109483593Y-143028645D01*
X109545993Y-142977435D01*
X109750310Y-142728473D01*
X109902131Y-142444436D01*
X109995622Y-142136237D01*
X110019279Y-141896043D01*
X110019279Y-141896042D01*
X110027190Y-141815721D01*
X110019279Y-141735399D01*
X110019279Y-139804244D01*
X111899320Y-137924204D01*
X111961714Y-137872999D01*
X112166031Y-137624037D01*
X112317852Y-137340000D01*
X112411343Y-137031801D01*
X112435000Y-136791607D01*
X112435000Y-136791605D01*
X112442911Y-136711286D01*
X112435000Y-136630966D01*
X112435000Y-111068522D01*
X112442911Y-110988200D01*
X112411343Y-110667683D01*
X112317852Y-110359485D01*
X112261296Y-110253676D01*
X112166031Y-110075448D01*
X111961714Y-109826486D01*
X111899319Y-109775280D01*
X107445039Y-105321001D01*
X107315556Y-105008401D01*
X107114738Y-104707856D01*
X106859144Y-104452262D01*
X106558599Y-104251444D01*
X106224650Y-104113118D01*
X105870132Y-104042600D01*
X105508668Y-104042600D01*
X105154150Y-104113118D01*
X104820201Y-104251444D01*
X104519656Y-104452262D01*
X104264062Y-104707856D01*
X104063244Y-105008401D01*
X103924918Y-105342350D01*
X103854400Y-105696868D01*
X103854400Y-106058332D01*
X103924918Y-106412850D01*
X104063244Y-106746799D01*
X104264062Y-107047344D01*
X104519656Y-107302938D01*
X104820201Y-107503756D01*
X105132801Y-107633239D01*
X109165001Y-111665440D01*
X109165000Y-136034046D01*
X107284961Y-137914086D01*
X107222566Y-137965292D01*
X107037894Y-138190317D01*
X107018249Y-138214254D01*
X106866427Y-138498292D01*
X106772937Y-138806490D01*
X106762773Y-138909680D01*
X106714831Y-138851262D01*
X106669987Y-138784148D01*
X106612911Y-138727072D01*
X106561713Y-138664687D01*
X106499328Y-138613489D01*
X106442252Y-138556413D01*
X106375138Y-138511569D01*
X106312752Y-138460370D01*
X106241575Y-138422325D01*
X106174463Y-138377482D01*
X106099896Y-138346595D01*
X106028715Y-138308548D01*
X105951479Y-138285119D01*
X105876912Y-138254232D01*
X105797751Y-138238486D01*
X105720516Y-138215057D01*
X105640191Y-138207145D01*
X105561033Y-138191400D01*
X105480330Y-138191400D01*
X105400000Y-138183488D01*
X105319670Y-138191400D01*
X105238967Y-138191400D01*
X105235951Y-138192000D01*
X99938967Y-138192000D01*
X99859807Y-138207746D01*
X99779484Y-138215657D01*
X99702249Y-138239086D01*
X99623088Y-138254832D01*
X99548521Y-138285719D01*
X99471285Y-138309148D01*
X99400102Y-138347196D01*
X99325537Y-138378082D01*
X99258431Y-138422921D01*
X99187248Y-138460969D01*
X99124854Y-138512174D01*
X99057748Y-138557013D01*
X99000681Y-138614080D01*
X98938286Y-138665286D01*
X98887080Y-138727681D01*
X98830013Y-138784748D01*
X98785174Y-138851854D01*
X98733969Y-138914248D01*
X98695921Y-138985431D01*
X98651082Y-139052537D01*
X98620196Y-139127102D01*
X98582148Y-139198285D01*
X98558719Y-139275521D01*
X98527832Y-139350088D01*
X98512086Y-139429249D01*
X98488657Y-139506484D01*
X98480746Y-139586807D01*
X98465000Y-139665967D01*
X98465000Y-139746678D01*
X98457089Y-139827000D01*
X98465000Y-139907322D01*
X98465000Y-139988033D01*
X98480746Y-140067193D01*
X98488657Y-140147516D01*
X98512086Y-140224751D01*
X98527832Y-140303912D01*
X98558719Y-140378479D01*
X98562823Y-140392010D01*
X96335428Y-140392010D01*
X96372168Y-140303312D01*
X96435000Y-139987433D01*
X96435000Y-139665367D01*
X96372168Y-139349488D01*
X96248918Y-139051937D01*
X96069987Y-138784148D01*
X95842252Y-138556413D01*
X95574463Y-138377482D01*
X95276912Y-138254232D01*
X94961033Y-138191400D01*
X94638967Y-138191400D01*
X94323088Y-138254232D01*
X94234992Y-138290723D01*
X94234992Y-137903646D01*
X95976825Y-136161813D01*
X99144192Y-136161813D01*
X99239956Y-136426214D01*
X99529571Y-136567104D01*
X99841108Y-136648784D01*
X100162595Y-136668118D01*
X100481675Y-136624361D01*
X100786088Y-136519195D01*
X100960044Y-136426214D01*
X101055808Y-136161813D01*
X100100000Y-135206005D01*
X99144192Y-136161813D01*
X95976825Y-136161813D01*
X96012915Y-136125724D01*
X96069987Y-136068652D01*
X96114828Y-136001543D01*
X96166030Y-135939153D01*
X96204076Y-135867974D01*
X96248918Y-135800863D01*
X96279807Y-135726290D01*
X96317851Y-135655115D01*
X96341278Y-135577887D01*
X96372168Y-135503312D01*
X96387915Y-135424144D01*
X96411342Y-135346917D01*
X96419253Y-135266600D01*
X96435000Y-135187433D01*
X96435000Y-135106720D01*
X96442911Y-135026401D01*
X96435000Y-134946081D01*
X96435000Y-134865367D01*
X96419253Y-134786199D01*
X96411342Y-134705884D01*
X96387916Y-134628659D01*
X96372168Y-134549488D01*
X96341277Y-134474910D01*
X96317851Y-134397686D01*
X96279809Y-134326514D01*
X96248918Y-134251937D01*
X96204192Y-134185000D01*
X97230537Y-134185000D01*
X97434007Y-134164960D01*
X97440231Y-134163072D01*
X97500000Y-134163072D01*
X97673254Y-134146008D01*
X97839850Y-134095472D01*
X97993386Y-134013405D01*
X98127962Y-133902962D01*
X98200000Y-133815183D01*
X98272038Y-133902962D01*
X98406614Y-134013405D01*
X98560150Y-134095472D01*
X98726746Y-134146008D01*
X98750034Y-134148302D01*
X98700186Y-134166356D01*
X98559296Y-134455971D01*
X98477616Y-134767508D01*
X98458282Y-135088995D01*
X98502039Y-135408075D01*
X98607205Y-135712488D01*
X98700186Y-135886444D01*
X98964587Y-135982208D01*
X99920395Y-135026400D01*
X99906253Y-135012258D01*
X100085858Y-134832653D01*
X100100000Y-134846795D01*
X100114143Y-134832653D01*
X100293748Y-135012258D01*
X100279605Y-135026400D01*
X101235413Y-135982208D01*
X101499814Y-135886444D01*
X101640704Y-135596829D01*
X101722384Y-135285292D01*
X101741718Y-134963805D01*
X101697961Y-134644725D01*
X101622617Y-134426633D01*
X101673000Y-134376250D01*
X101673000Y-133327000D01*
X101653000Y-133327000D01*
X101653000Y-133073000D01*
X101673000Y-133073000D01*
X101673000Y-133053000D01*
X101927000Y-133053000D01*
X101927000Y-133073000D01*
X101947000Y-133073000D01*
X101947000Y-133327000D01*
X101927000Y-133327000D01*
X101927000Y-134376250D01*
X102085750Y-134535000D01*
X102400000Y-134538072D01*
X102524482Y-134525812D01*
X102644180Y-134489502D01*
X102754494Y-134430537D01*
X102851185Y-134351185D01*
X102875363Y-134321724D01*
X102956613Y-134388405D01*
X103007063Y-134415371D01*
X103765000Y-135173309D01*
X103765000Y-135187433D01*
X103827832Y-135503312D01*
X103951082Y-135800863D01*
X104130013Y-136068652D01*
X104357748Y-136296387D01*
X104625537Y-136475318D01*
X104923088Y-136598568D01*
X105238967Y-136661400D01*
X105561033Y-136661400D01*
X105876912Y-136598568D01*
X106174463Y-136475318D01*
X106442252Y-136296387D01*
X106669987Y-136068652D01*
X106848918Y-135800863D01*
X106972168Y-135503312D01*
X107035000Y-135187433D01*
X107035000Y-134865367D01*
X106972168Y-134549488D01*
X106848918Y-134251937D01*
X106669987Y-133984148D01*
X106442252Y-133756413D01*
X106174463Y-133577482D01*
X105876912Y-133454232D01*
X105561033Y-133391400D01*
X105546909Y-133391400D01*
X105038072Y-132882564D01*
X105038072Y-132749999D01*
X105021008Y-132576745D01*
X104970472Y-132410149D01*
X104888405Y-132256613D01*
X104777962Y-132122038D01*
X104643387Y-132011595D01*
X104489851Y-131929528D01*
X104323255Y-131878992D01*
X104217198Y-131868546D01*
X103385506Y-131036855D01*
X103349959Y-130993541D01*
X103177133Y-130851706D01*
X102979957Y-130746314D01*
X102766009Y-130681413D01*
X102599262Y-130664990D01*
X102599261Y-130664990D01*
X102543510Y-130659499D01*
X102487759Y-130664990D01*
X101679671Y-130664990D01*
X101735000Y-130386833D01*
X101735000Y-130064767D01*
X101672168Y-129748888D01*
X101548918Y-129451337D01*
X101369987Y-129183548D01*
X101142252Y-128955813D01*
X100874463Y-128776882D01*
X100576912Y-128653632D01*
X100261033Y-128590800D01*
X99938967Y-128590800D01*
X99623088Y-128653632D01*
X99325537Y-128776882D01*
X99057748Y-128955813D01*
X98830013Y-129183548D01*
X98651082Y-129451337D01*
X98527832Y-129748888D01*
X98465000Y-130064767D01*
X98465000Y-130386833D01*
X98527832Y-130702712D01*
X98651082Y-131000263D01*
X98830013Y-131268052D01*
X98998889Y-131436928D01*
X98900000Y-131436928D01*
X98726746Y-131453992D01*
X98560150Y-131504528D01*
X98406614Y-131586595D01*
X98272038Y-131697038D01*
X98200000Y-131784817D01*
X98127962Y-131697038D01*
X97993386Y-131586595D01*
X97839850Y-131504528D01*
X97673254Y-131453992D01*
X97500000Y-131436928D01*
X97440231Y-131436928D01*
X97434007Y-131435040D01*
X97230537Y-131415000D01*
X95923639Y-131415000D01*
X96069987Y-131268652D01*
X96248918Y-131000863D01*
X96372168Y-130703312D01*
X96435000Y-130387433D01*
X96435000Y-130196532D01*
X97009134Y-129622399D01*
X97023255Y-129621008D01*
X97189851Y-129570472D01*
X97343387Y-129488405D01*
X97477962Y-129377962D01*
X97588405Y-129243387D01*
X97670472Y-129089851D01*
X97721008Y-128923255D01*
X97738072Y-128750001D01*
X97738072Y-128049999D01*
X97721008Y-127876745D01*
X97670472Y-127710149D01*
X97588405Y-127556613D01*
X97521724Y-127475363D01*
X97551185Y-127451185D01*
X97630537Y-127354494D01*
X97689502Y-127244180D01*
X97725812Y-127124482D01*
X97738072Y-127000000D01*
X97735000Y-126685750D01*
X97576250Y-126527000D01*
X96527000Y-126527000D01*
X96527000Y-126547000D01*
X96273000Y-126547000D01*
X96273000Y-126527000D01*
X96253000Y-126527000D01*
X96253000Y-126273000D01*
X96273000Y-126273000D01*
X96273000Y-125323750D01*
X96527000Y-125323750D01*
X96527000Y-126273000D01*
X97576250Y-126273000D01*
X97735000Y-126114250D01*
X97738072Y-125800000D01*
X97725812Y-125675518D01*
X97689502Y-125555820D01*
X97630537Y-125445506D01*
X97551185Y-125348815D01*
X97454494Y-125269463D01*
X97344180Y-125210498D01*
X97224482Y-125174188D01*
X97100000Y-125161928D01*
X96685750Y-125165000D01*
X96527000Y-125323750D01*
X96273000Y-125323750D01*
X96114250Y-125165000D01*
X95700000Y-125161928D01*
X95667350Y-125165144D01*
X95898436Y-125067886D01*
X96059299Y-124744190D01*
X96153922Y-124395331D01*
X96178667Y-124034716D01*
X96132585Y-123676202D01*
X96017446Y-123333567D01*
X95898436Y-123110914D01*
X95613580Y-122991026D01*
X94515205Y-124089400D01*
X94529348Y-124103542D01*
X94349742Y-124283148D01*
X94335600Y-124269005D01*
X93237226Y-125367380D01*
X93240003Y-125373979D01*
X93148815Y-125448815D01*
X93124637Y-125478276D01*
X93043387Y-125411595D01*
X92889851Y-125329528D01*
X92723255Y-125278992D01*
X92550001Y-125261928D01*
X92467060Y-125261928D01*
X91441995Y-124236864D01*
X91406449Y-124193551D01*
X91346174Y-124144084D01*
X92492533Y-124144084D01*
X92538615Y-124502598D01*
X92653754Y-124845233D01*
X92772764Y-125067886D01*
X93057620Y-125187774D01*
X94155995Y-124089400D01*
X93057620Y-122991026D01*
X92772764Y-123110914D01*
X92611901Y-123434610D01*
X92517278Y-123783469D01*
X92492533Y-124144084D01*
X91346174Y-124144084D01*
X91233623Y-124051716D01*
X91036447Y-123946324D01*
X90822499Y-123881423D01*
X90656319Y-123865056D01*
X90589851Y-123829528D01*
X90423255Y-123778992D01*
X90250001Y-123761928D01*
X89349999Y-123761928D01*
X89176745Y-123778992D01*
X89010149Y-123829528D01*
X88943786Y-123865000D01*
X86457454Y-123865000D01*
X86439502Y-123805820D01*
X86380537Y-123695506D01*
X86301185Y-123598815D01*
X86204494Y-123519463D01*
X86094180Y-123460498D01*
X85974482Y-123424188D01*
X85850000Y-123411928D01*
X85779155Y-123411928D01*
X85982886Y-123275799D01*
X86175799Y-123082886D01*
X86327371Y-122856043D01*
X86345854Y-122811420D01*
X93237226Y-122811420D01*
X94335600Y-123909795D01*
X95433974Y-122811420D01*
X95314086Y-122526564D01*
X94990390Y-122365701D01*
X94641531Y-122271078D01*
X94280916Y-122246333D01*
X93922402Y-122292415D01*
X93579767Y-122407554D01*
X93357114Y-122526564D01*
X93237226Y-122811420D01*
X86345854Y-122811420D01*
X86431775Y-122603989D01*
X86485000Y-122336411D01*
X86485000Y-122063589D01*
X86431775Y-121796011D01*
X86327371Y-121543957D01*
X86175799Y-121317114D01*
X85982886Y-121124201D01*
X85756043Y-120972629D01*
X85580701Y-120900000D01*
X85756043Y-120827371D01*
X85982886Y-120675799D01*
X86175799Y-120482886D01*
X86327371Y-120256043D01*
X86431775Y-120003989D01*
X86485000Y-119736411D01*
X86485000Y-119463589D01*
X86431775Y-119196011D01*
X86327371Y-118943957D01*
X86175799Y-118717114D01*
X86135000Y-118676315D01*
X86135000Y-118135000D01*
X86544249Y-118135000D01*
X86600000Y-118140491D01*
X86655751Y-118135000D01*
X86655752Y-118135000D01*
X86822499Y-118118577D01*
X87036447Y-118053676D01*
X87233623Y-117948284D01*
X87406449Y-117806449D01*
X87441996Y-117763135D01*
X88563140Y-116641992D01*
X88606449Y-116606449D01*
X88748284Y-116433623D01*
X88853676Y-116236447D01*
X88918577Y-116022499D01*
X88935000Y-115855752D01*
X88935000Y-115855743D01*
X88940490Y-115800001D01*
X88935000Y-115744259D01*
X88935000Y-112508668D01*
X92500600Y-112508668D01*
X92500600Y-112870132D01*
X92571118Y-113224650D01*
X92700600Y-113537248D01*
X92700601Y-119081671D01*
X92692689Y-119162000D01*
X92724258Y-119482516D01*
X92817748Y-119790714D01*
X92817749Y-119790715D01*
X92969570Y-120074752D01*
X93173887Y-120323714D01*
X93236282Y-120374920D01*
X104300676Y-131439316D01*
X104300682Y-131439321D01*
X104357748Y-131496387D01*
X104424855Y-131541226D01*
X104487247Y-131592430D01*
X104558428Y-131630477D01*
X104625537Y-131675318D01*
X104700103Y-131706204D01*
X104771285Y-131744252D01*
X104848522Y-131767682D01*
X104923088Y-131798568D01*
X105002247Y-131814314D01*
X105079483Y-131837743D01*
X105159810Y-131845655D01*
X105238967Y-131861400D01*
X105319670Y-131861400D01*
X105400000Y-131869312D01*
X105480330Y-131861400D01*
X105561033Y-131861400D01*
X105640191Y-131845655D01*
X105720516Y-131837743D01*
X105797751Y-131814314D01*
X105876912Y-131798568D01*
X105951479Y-131767681D01*
X106028715Y-131744252D01*
X106099896Y-131706205D01*
X106174463Y-131675318D01*
X106241575Y-131630475D01*
X106312752Y-131592430D01*
X106375138Y-131541231D01*
X106442252Y-131496387D01*
X106499328Y-131439311D01*
X106561713Y-131388113D01*
X106612911Y-131325728D01*
X106669987Y-131268652D01*
X106714831Y-131201538D01*
X106766030Y-131139152D01*
X106804075Y-131067975D01*
X106848918Y-131000863D01*
X106879805Y-130926296D01*
X106917852Y-130855115D01*
X106941281Y-130777879D01*
X106972168Y-130703312D01*
X106987914Y-130624151D01*
X107011343Y-130546916D01*
X107019255Y-130466591D01*
X107035000Y-130387433D01*
X107035000Y-130306730D01*
X107042912Y-130226400D01*
X107035000Y-130146070D01*
X107035000Y-130065367D01*
X107019255Y-129986210D01*
X107011343Y-129905883D01*
X106987914Y-129828647D01*
X106972168Y-129749488D01*
X106941282Y-129674922D01*
X106917852Y-129597685D01*
X106879804Y-129526503D01*
X106848918Y-129451937D01*
X106804077Y-129384828D01*
X106766030Y-129313647D01*
X106714826Y-129251255D01*
X106669987Y-129184148D01*
X106612921Y-129127082D01*
X106612916Y-129127076D01*
X102853220Y-125367380D01*
X105937226Y-125367380D01*
X106057114Y-125652236D01*
X106380810Y-125813099D01*
X106729669Y-125907722D01*
X107090284Y-125932467D01*
X107448798Y-125886385D01*
X107791433Y-125771246D01*
X108014086Y-125652236D01*
X108133974Y-125367380D01*
X107035600Y-124269005D01*
X105937226Y-125367380D01*
X102853220Y-125367380D01*
X101629924Y-124144084D01*
X105192533Y-124144084D01*
X105238615Y-124502598D01*
X105353754Y-124845233D01*
X105472764Y-125067886D01*
X105757620Y-125187774D01*
X106855995Y-124089400D01*
X107215205Y-124089400D01*
X108313580Y-125187774D01*
X108598436Y-125067886D01*
X108759299Y-124744190D01*
X108853922Y-124395331D01*
X108878667Y-124034716D01*
X108832585Y-123676202D01*
X108717446Y-123333567D01*
X108598436Y-123110914D01*
X108313580Y-122991026D01*
X107215205Y-124089400D01*
X106855995Y-124089400D01*
X105757620Y-122991026D01*
X105472764Y-123110914D01*
X105311901Y-123434610D01*
X105217278Y-123783469D01*
X105192533Y-124144084D01*
X101629924Y-124144084D01*
X100297260Y-122811420D01*
X105937226Y-122811420D01*
X107035600Y-123909795D01*
X108133974Y-122811420D01*
X108014086Y-122526564D01*
X107690390Y-122365701D01*
X107341531Y-122271078D01*
X106980916Y-122246333D01*
X106622402Y-122292415D01*
X106279767Y-122407554D01*
X106057114Y-122526564D01*
X105937226Y-122811420D01*
X100297260Y-122811420D01*
X95970600Y-118484762D01*
X95970600Y-113967380D01*
X105937226Y-113967380D01*
X106057114Y-114252236D01*
X106380810Y-114413099D01*
X106729669Y-114507722D01*
X107090284Y-114532467D01*
X107448798Y-114486385D01*
X107791433Y-114371246D01*
X108014086Y-114252236D01*
X108133974Y-113967380D01*
X107035600Y-112869005D01*
X105937226Y-113967380D01*
X95970600Y-113967380D01*
X95970600Y-113537248D01*
X96100082Y-113224650D01*
X96170600Y-112870132D01*
X96170600Y-112744084D01*
X105192533Y-112744084D01*
X105238615Y-113102598D01*
X105353754Y-113445233D01*
X105472764Y-113667886D01*
X105757620Y-113787774D01*
X106855995Y-112689400D01*
X107215205Y-112689400D01*
X108313580Y-113787774D01*
X108598436Y-113667886D01*
X108759299Y-113344190D01*
X108853922Y-112995331D01*
X108878667Y-112634716D01*
X108832585Y-112276202D01*
X108717446Y-111933567D01*
X108598436Y-111710914D01*
X108313580Y-111591026D01*
X107215205Y-112689400D01*
X106855995Y-112689400D01*
X105757620Y-111591026D01*
X105472764Y-111710914D01*
X105311901Y-112034610D01*
X105217278Y-112383469D01*
X105192533Y-112744084D01*
X96170600Y-112744084D01*
X96170600Y-112508668D01*
X96100082Y-112154150D01*
X95961756Y-111820201D01*
X95760938Y-111519656D01*
X95652702Y-111411420D01*
X105937226Y-111411420D01*
X107035600Y-112509795D01*
X108133974Y-111411420D01*
X108014086Y-111126564D01*
X107690390Y-110965701D01*
X107341531Y-110871078D01*
X106980916Y-110846333D01*
X106622402Y-110892415D01*
X106279767Y-111007554D01*
X106057114Y-111126564D01*
X105937226Y-111411420D01*
X95652702Y-111411420D01*
X95505344Y-111264062D01*
X95204799Y-111063244D01*
X94870850Y-110924918D01*
X94516332Y-110854400D01*
X94154868Y-110854400D01*
X93800350Y-110924918D01*
X93466401Y-111063244D01*
X93165856Y-111264062D01*
X92910262Y-111519656D01*
X92709444Y-111820201D01*
X92571118Y-112154150D01*
X92500600Y-112508668D01*
X88935000Y-112508668D01*
X88935000Y-111470131D01*
X90070132Y-110335000D01*
X91891539Y-110335000D01*
X91956613Y-110388405D01*
X92110149Y-110470472D01*
X92276745Y-110521008D01*
X92449999Y-110538072D01*
X92575439Y-110538072D01*
X92600000Y-110540491D01*
X92624561Y-110538072D01*
X93150001Y-110538072D01*
X93323255Y-110521008D01*
X93489851Y-110470472D01*
X93643387Y-110388405D01*
X93777962Y-110277962D01*
X93800000Y-110251109D01*
X93822038Y-110277962D01*
X93956613Y-110388405D01*
X94110149Y-110470472D01*
X94276745Y-110521008D01*
X94449999Y-110538072D01*
X95150001Y-110538072D01*
X95323255Y-110521008D01*
X95489851Y-110470472D01*
X95643387Y-110388405D01*
X95777962Y-110277962D01*
X95888405Y-110143387D01*
X95970472Y-109989851D01*
X96021008Y-109823255D01*
X96038072Y-109650001D01*
X96038072Y-109367059D01*
X97091928Y-108313204D01*
X97091928Y-110283560D01*
X97104188Y-110408042D01*
X97140498Y-110527740D01*
X97199463Y-110638054D01*
X97278815Y-110734745D01*
X97375506Y-110814097D01*
X97485820Y-110873062D01*
X97605518Y-110909372D01*
X97730000Y-110921632D01*
X99730000Y-110921632D01*
X99854482Y-110909372D01*
X99974180Y-110873062D01*
X100084494Y-110814097D01*
X100181185Y-110734745D01*
X100260537Y-110638054D01*
X100285191Y-110591930D01*
X100495537Y-110732478D01*
X100793088Y-110855728D01*
X101108967Y-110918560D01*
X101431033Y-110918560D01*
X101746912Y-110855728D01*
X102044463Y-110732478D01*
X102312252Y-110553547D01*
X102539987Y-110325812D01*
X102718918Y-110058023D01*
X102842168Y-109760472D01*
X102905000Y-109444593D01*
X102905000Y-109122527D01*
X102842168Y-108806648D01*
X102718918Y-108509097D01*
X102539987Y-108241308D01*
X102405000Y-108106321D01*
X102405000Y-107725751D01*
X102410491Y-107669999D01*
X102388577Y-107447501D01*
X102323676Y-107233553D01*
X102287765Y-107166368D01*
X102218284Y-107036377D01*
X102076449Y-106863551D01*
X102033135Y-106828004D01*
X101441996Y-106236865D01*
X101406449Y-106193551D01*
X101233623Y-106051716D01*
X101036447Y-105946324D01*
X100822499Y-105881423D01*
X100655752Y-105865000D01*
X100655751Y-105865000D01*
X100600000Y-105859509D01*
X100544249Y-105865000D01*
X97419134Y-105865000D01*
X97563141Y-105720993D01*
X97606449Y-105685451D01*
X97748284Y-105512625D01*
X97853676Y-105315449D01*
X97918577Y-105101501D01*
X97935000Y-104934754D01*
X97940491Y-104879002D01*
X97935000Y-104823250D01*
X97935000Y-103601423D01*
X98013405Y-103505886D01*
X98095472Y-103352350D01*
X98146008Y-103185754D01*
X98163072Y-103012500D01*
X98163072Y-102337500D01*
X98146008Y-102164246D01*
X98095472Y-101997650D01*
X98013405Y-101844114D01*
X97923858Y-101735000D01*
X98629332Y-101735000D01*
X98611595Y-101756613D01*
X98529528Y-101910149D01*
X98478992Y-102076745D01*
X98461928Y-102249999D01*
X98461928Y-102950001D01*
X98478992Y-103123255D01*
X98529528Y-103289851D01*
X98540000Y-103309443D01*
X98540000Y-104061893D01*
X98558232Y-104247003D01*
X98630280Y-104484514D01*
X98747281Y-104703405D01*
X98904736Y-104895265D01*
X99096596Y-105052720D01*
X99315487Y-105169720D01*
X99552998Y-105241768D01*
X99800000Y-105266096D01*
X100047003Y-105241768D01*
X100284514Y-105169720D01*
X100503405Y-105052720D01*
X100695265Y-104895265D01*
X100852720Y-104703405D01*
X100969720Y-104484514D01*
X101041768Y-104247003D01*
X101060000Y-104061893D01*
X101060000Y-103309443D01*
X101070472Y-103289851D01*
X101121008Y-103123255D01*
X101138072Y-102950001D01*
X101138072Y-102505703D01*
X101699367Y-103066999D01*
X101828887Y-103173294D01*
X102026063Y-103278686D01*
X102240011Y-103343587D01*
X102462510Y-103365501D01*
X102685009Y-103343587D01*
X102898957Y-103278686D01*
X103096133Y-103173294D01*
X103268959Y-103031459D01*
X103410794Y-102858633D01*
X103516186Y-102661457D01*
X103581087Y-102447509D01*
X103603001Y-102225010D01*
X103596901Y-102163072D01*
X104175000Y-102163072D01*
X104348254Y-102146008D01*
X104514850Y-102095472D01*
X104668386Y-102013405D01*
X104763923Y-101935000D01*
X109544249Y-101935000D01*
X109600000Y-101940491D01*
X109655751Y-101935000D01*
X109655752Y-101935000D01*
X109822499Y-101918577D01*
X109990000Y-101867766D01*
X109990000Y-102830392D01*
X109985114Y-102880000D01*
X110004615Y-103077994D01*
X110033524Y-103173294D01*
X110062368Y-103268379D01*
X110156153Y-103443840D01*
X110282367Y-103597633D01*
X110320906Y-103629261D01*
X113165000Y-106473356D01*
X113165000Y-106621335D01*
X113220147Y-106898574D01*
X113328320Y-107159727D01*
X113485363Y-107394759D01*
X113685241Y-107594637D01*
X113920273Y-107751680D01*
X114181426Y-107859853D01*
X114458665Y-107915000D01*
X114741335Y-107915000D01*
X115018574Y-107859853D01*
X115279727Y-107751680D01*
X115514759Y-107594637D01*
X115714637Y-107394759D01*
X115871680Y-107159727D01*
X115979853Y-106898574D01*
X116035000Y-106621335D01*
X116035000Y-106338665D01*
X115979853Y-106061426D01*
X115871680Y-105800273D01*
X115714637Y-105565241D01*
X115514759Y-105365363D01*
X115279727Y-105208320D01*
X115018574Y-105100147D01*
X114741335Y-105045000D01*
X114593356Y-105045000D01*
X112010000Y-102461645D01*
X112010000Y-100118160D01*
X112053676Y-100036447D01*
X112118577Y-99822499D01*
X112140491Y-99600000D01*
X112118577Y-99377501D01*
X112053676Y-99163553D01*
X111948284Y-98966377D01*
X111806449Y-98793551D01*
X111633623Y-98651716D01*
X111436447Y-98546324D01*
X111222499Y-98481423D01*
X111055752Y-98465000D01*
X110855741Y-98465000D01*
X110799999Y-98459510D01*
X110744257Y-98465000D01*
X110744248Y-98465000D01*
X110577501Y-98481423D01*
X110363553Y-98546324D01*
X110166377Y-98651716D01*
X109993551Y-98793551D01*
X109958008Y-98836860D01*
X109129869Y-99665000D01*
X104927258Y-99665000D01*
X104891176Y-99546053D01*
X104785784Y-99348877D01*
X104643949Y-99176051D01*
X104600640Y-99140508D01*
X103315000Y-97854869D01*
X103315000Y-96913245D01*
X103316501Y-96822184D01*
X103306090Y-96764926D01*
X103300385Y-96707006D01*
X103288335Y-96667283D01*
X103280909Y-96626442D01*
X103259526Y-96572312D01*
X103242632Y-96516620D01*
X103223065Y-96480012D01*
X103207813Y-96441403D01*
X103176280Y-96392484D01*
X103148847Y-96341160D01*
X103091062Y-96270748D01*
X102682297Y-95755580D01*
X104591026Y-95755580D01*
X104710914Y-96040436D01*
X105034610Y-96201299D01*
X105383469Y-96295922D01*
X105744084Y-96320667D01*
X106102598Y-96274585D01*
X106445233Y-96159446D01*
X106667886Y-96040436D01*
X106787774Y-95755580D01*
X105689400Y-94657205D01*
X104591026Y-95755580D01*
X102682297Y-95755580D01*
X101711661Y-94532284D01*
X103846333Y-94532284D01*
X103892415Y-94890798D01*
X104007554Y-95233433D01*
X104126564Y-95456086D01*
X104411420Y-95575974D01*
X105509795Y-94477600D01*
X104411420Y-93379226D01*
X104126564Y-93499114D01*
X103965701Y-93822810D01*
X103871078Y-94171669D01*
X103846333Y-94532284D01*
X101711661Y-94532284D01*
X100935652Y-93554279D01*
X100917205Y-93509744D01*
X100803937Y-93340226D01*
X100659774Y-93196063D01*
X100490256Y-93082795D01*
X100301898Y-93004774D01*
X100101939Y-92965000D01*
X99898061Y-92965000D01*
X99698102Y-93004774D01*
X99509744Y-93082795D01*
X99340226Y-93196063D01*
X99196063Y-93340226D01*
X99082795Y-93509744D01*
X99004774Y-93698102D01*
X98965000Y-93898061D01*
X98965000Y-94101939D01*
X99004774Y-94301898D01*
X99082795Y-94490256D01*
X99196063Y-94659774D01*
X99340226Y-94803937D01*
X99358001Y-94815814D01*
X101060856Y-96961928D01*
X100710000Y-96961928D01*
X100585518Y-96974188D01*
X100465820Y-97010498D01*
X100400000Y-97045680D01*
X100334180Y-97010498D01*
X100214482Y-96974188D01*
X100090000Y-96961928D01*
X99440000Y-96961928D01*
X99315518Y-96974188D01*
X99195820Y-97010498D01*
X99130000Y-97045680D01*
X99064180Y-97010498D01*
X98944482Y-96974188D01*
X98820000Y-96961928D01*
X98780750Y-96965000D01*
X98622000Y-97123750D01*
X98622000Y-98323000D01*
X98637017Y-98323000D01*
X98630000Y-98394249D01*
X98630000Y-98577000D01*
X98622000Y-98577000D01*
X98622000Y-98597000D01*
X98368000Y-98597000D01*
X98368000Y-98577000D01*
X97693750Y-98577000D01*
X97535000Y-98735750D01*
X97531928Y-99300000D01*
X97543793Y-99420473D01*
X97448254Y-99391492D01*
X97275000Y-99374428D01*
X96325000Y-99374428D01*
X96151746Y-99391492D01*
X95985150Y-99442028D01*
X95831614Y-99524095D01*
X95697038Y-99634538D01*
X95586595Y-99769114D01*
X95504528Y-99922650D01*
X95453992Y-100089246D01*
X95436928Y-100262500D01*
X95436928Y-100631797D01*
X94938072Y-100132941D01*
X94938072Y-100049999D01*
X94921008Y-99876745D01*
X94870472Y-99710149D01*
X94788405Y-99556613D01*
X94721724Y-99475363D01*
X94751185Y-99451185D01*
X94830537Y-99354494D01*
X94889502Y-99244180D01*
X94925812Y-99124482D01*
X94938072Y-99000000D01*
X94935000Y-98685750D01*
X94776250Y-98527000D01*
X93727000Y-98527000D01*
X93727000Y-98547000D01*
X93473000Y-98547000D01*
X93473000Y-98527000D01*
X92423750Y-98527000D01*
X92265000Y-98685750D01*
X92261928Y-99000000D01*
X92274188Y-99124482D01*
X92310498Y-99244180D01*
X92369463Y-99354494D01*
X92448815Y-99451185D01*
X92478276Y-99475363D01*
X92411595Y-99556613D01*
X92329528Y-99710149D01*
X92278992Y-99876745D01*
X92261928Y-100049999D01*
X92261928Y-100750001D01*
X92278992Y-100923255D01*
X92329528Y-101089851D01*
X92411595Y-101243387D01*
X92522038Y-101377962D01*
X92656613Y-101488405D01*
X92810149Y-101570472D01*
X92976745Y-101621008D01*
X93149999Y-101638072D01*
X93232941Y-101638072D01*
X95033009Y-103438141D01*
X95068551Y-103481449D01*
X95163168Y-103559099D01*
X95241377Y-103623284D01*
X95438553Y-103728676D01*
X95652501Y-103793577D01*
X95665001Y-103794808D01*
X95665001Y-104408869D01*
X94741887Y-105331983D01*
X94671246Y-105121767D01*
X94552236Y-104899114D01*
X94267380Y-104779226D01*
X93169005Y-105877600D01*
X93183148Y-105891743D01*
X93003543Y-106071348D01*
X92989400Y-106057205D01*
X92975258Y-106071348D01*
X92795652Y-105891742D01*
X92809795Y-105877600D01*
X91711420Y-104779226D01*
X91426564Y-104899114D01*
X91265701Y-105222810D01*
X91171078Y-105571669D01*
X91146333Y-105932284D01*
X91192415Y-106290798D01*
X91307554Y-106633433D01*
X91324421Y-106664990D01*
X89055751Y-106664990D01*
X89000009Y-106659500D01*
X88944267Y-106664990D01*
X88944258Y-106664990D01*
X88777511Y-106681413D01*
X88563563Y-106746314D01*
X88366387Y-106851706D01*
X88193561Y-106993541D01*
X88158021Y-107036847D01*
X84782941Y-110411928D01*
X84684999Y-110411928D01*
X84684999Y-104599620D01*
X91891026Y-104599620D01*
X92989400Y-105697995D01*
X94087774Y-104599620D01*
X93967886Y-104314764D01*
X93644190Y-104153901D01*
X93295331Y-104059278D01*
X92934716Y-104034533D01*
X92576202Y-104080615D01*
X92233567Y-104195754D01*
X92010914Y-104314764D01*
X91891026Y-104599620D01*
X84684999Y-104599620D01*
X84684999Y-97935000D01*
X92263248Y-97935000D01*
X92265000Y-98114250D01*
X92423750Y-98273000D01*
X93473000Y-98273000D01*
X93473000Y-98253000D01*
X93727000Y-98253000D01*
X93727000Y-98273000D01*
X94776250Y-98273000D01*
X94935000Y-98114250D01*
X94938072Y-97800000D01*
X94925812Y-97675518D01*
X94902904Y-97600000D01*
X97531928Y-97600000D01*
X97535000Y-98164250D01*
X97693750Y-98323000D01*
X98368000Y-98323000D01*
X98368000Y-97123750D01*
X98209250Y-96965000D01*
X98170000Y-96961928D01*
X98045518Y-96974188D01*
X97925820Y-97010498D01*
X97815506Y-97069463D01*
X97718815Y-97148815D01*
X97639463Y-97245506D01*
X97580498Y-97355820D01*
X97544188Y-97475518D01*
X97531928Y-97600000D01*
X94902904Y-97600000D01*
X94889502Y-97555820D01*
X94830537Y-97445506D01*
X94751185Y-97348815D01*
X94654494Y-97269463D01*
X94544180Y-97210498D01*
X94424482Y-97174188D01*
X94300000Y-97161928D01*
X93885750Y-97165000D01*
X93870821Y-97179929D01*
X93918577Y-97022499D01*
X93940491Y-96800000D01*
X93918577Y-96577501D01*
X93853676Y-96363553D01*
X93748284Y-96166377D01*
X93743166Y-96160141D01*
X93745233Y-96159446D01*
X93967886Y-96040436D01*
X94087774Y-95755580D01*
X92989400Y-94657205D01*
X92975258Y-94671348D01*
X92795652Y-94491742D01*
X92809795Y-94477600D01*
X93169005Y-94477600D01*
X94267380Y-95575974D01*
X94552236Y-95456086D01*
X94713099Y-95132390D01*
X94807722Y-94783531D01*
X94832467Y-94422916D01*
X94786385Y-94064402D01*
X94671246Y-93721767D01*
X94552236Y-93499114D01*
X94267380Y-93379226D01*
X93169005Y-94477600D01*
X92809795Y-94477600D01*
X91711420Y-93379226D01*
X91426564Y-93499114D01*
X91265701Y-93822810D01*
X91171078Y-94171669D01*
X91146333Y-94532284D01*
X91192415Y-94890798D01*
X91307554Y-95233433D01*
X91426564Y-95456086D01*
X91711419Y-95575973D01*
X91622392Y-95665000D01*
X84970130Y-95665000D01*
X84684999Y-95379870D01*
X84684999Y-90675000D01*
X92299428Y-90675000D01*
X92302500Y-91114250D01*
X92461250Y-91273000D01*
X93398000Y-91273000D01*
X93398000Y-90198750D01*
X93239250Y-90040000D01*
X92937500Y-90036928D01*
X92813018Y-90049188D01*
X92693320Y-90085498D01*
X92583006Y-90144463D01*
X92486315Y-90223815D01*
X92406963Y-90320506D01*
X92347998Y-90430820D01*
X92311688Y-90550518D01*
X92299428Y-90675000D01*
X84684999Y-90675000D01*
X84684999Y-87178971D01*
X85955857Y-87178971D01*
X85955857Y-87621029D01*
X86042099Y-88054592D01*
X86211267Y-88463000D01*
X86456860Y-88830557D01*
X86769442Y-89143139D01*
X87136999Y-89388732D01*
X87545407Y-89557900D01*
X87978970Y-89644142D01*
X88421028Y-89644142D01*
X88854591Y-89557900D01*
X89262999Y-89388732D01*
X89630556Y-89143139D01*
X89943138Y-88830557D01*
X90188731Y-88463000D01*
X90357899Y-88054592D01*
X90444141Y-87621029D01*
X90444141Y-87178971D01*
X90357899Y-86745408D01*
X90188731Y-86337000D01*
X89943138Y-85969443D01*
X89630556Y-85656861D01*
X89262999Y-85411268D01*
X88854591Y-85242100D01*
X88421028Y-85155858D01*
X87978970Y-85155858D01*
X87545407Y-85242100D01*
X87136999Y-85411268D01*
X86769442Y-85656861D01*
X86456860Y-85969443D01*
X86211267Y-86337000D01*
X86042099Y-86745408D01*
X85955857Y-87178971D01*
X84684999Y-87178971D01*
X84684999Y-75731874D01*
X99347731Y-75731874D01*
X99391993Y-75952916D01*
X99609089Y-76051301D01*
X99841208Y-76105442D01*
X100079429Y-76113258D01*
X100314598Y-76074450D01*
X100537677Y-75990509D01*
X100608007Y-75952916D01*
X100652269Y-75731874D01*
X100000000Y-75079605D01*
X99347731Y-75731874D01*
X84684999Y-75731874D01*
X84684999Y-74979429D01*
X98786742Y-74979429D01*
X98825550Y-75214598D01*
X98909491Y-75437677D01*
X98947084Y-75508007D01*
X99168126Y-75552269D01*
X99820395Y-74900000D01*
X100179605Y-74900000D01*
X100831874Y-75552269D01*
X101052916Y-75508007D01*
X101151301Y-75290911D01*
X101205442Y-75058792D01*
X101213258Y-74820571D01*
X101174450Y-74585402D01*
X101090509Y-74362323D01*
X101052916Y-74291993D01*
X100831874Y-74247731D01*
X100179605Y-74900000D01*
X99820395Y-74900000D01*
X99168126Y-74247731D01*
X98947084Y-74291993D01*
X98848699Y-74509089D01*
X98794558Y-74741208D01*
X98786742Y-74979429D01*
X84684999Y-74979429D01*
X84684999Y-74068126D01*
X99347731Y-74068126D01*
X100000000Y-74720395D01*
X100652269Y-74068126D01*
X100608007Y-73847084D01*
X100390911Y-73748699D01*
X100158792Y-73694558D01*
X99920571Y-73686742D01*
X99685402Y-73725550D01*
X99462323Y-73809491D01*
X99391993Y-73847084D01*
X99347731Y-74068126D01*
X84684999Y-74068126D01*
X84684999Y-71825000D01*
X98786928Y-71825000D01*
X98786928Y-72975000D01*
X98799188Y-73099482D01*
X98835498Y-73219180D01*
X98894463Y-73329494D01*
X98973815Y-73426185D01*
X99070506Y-73505537D01*
X99180820Y-73564502D01*
X99300518Y-73600812D01*
X99425000Y-73613072D01*
X100575000Y-73613072D01*
X100699482Y-73600812D01*
X100819180Y-73564502D01*
X100929494Y-73505537D01*
X101026185Y-73426185D01*
X101105537Y-73329494D01*
X101164502Y-73219180D01*
X101200812Y-73099482D01*
X101213072Y-72975000D01*
X101213072Y-71825000D01*
X101200812Y-71700518D01*
X101164502Y-71580820D01*
X101105537Y-71470506D01*
X101026185Y-71373815D01*
X100929494Y-71294463D01*
X100819180Y-71235498D01*
X100699482Y-71199188D01*
X100575000Y-71186928D01*
X99425000Y-71186928D01*
X99300518Y-71199188D01*
X99180820Y-71235498D01*
X99070506Y-71294463D01*
X98973815Y-71373815D01*
X98894463Y-71470506D01*
X98835498Y-71580820D01*
X98799188Y-71700518D01*
X98786928Y-71825000D01*
X84684999Y-71825000D01*
X84684999Y-69261663D01*
X86017207Y-67929455D01*
X86042099Y-68054592D01*
X86211267Y-68463000D01*
X86456860Y-68830557D01*
X86769442Y-69143139D01*
X87136999Y-69388732D01*
X87545407Y-69557900D01*
X87978970Y-69644142D01*
X88421028Y-69644142D01*
X88854591Y-69557900D01*
X89262999Y-69388732D01*
X89630556Y-69143139D01*
X89943138Y-68830557D01*
X90187261Y-68465200D01*
X98061728Y-68465200D01*
X98073988Y-68589682D01*
X98110298Y-68709380D01*
X98169263Y-68819694D01*
X98248615Y-68916385D01*
X98345306Y-68995737D01*
X98455620Y-69054702D01*
X98575318Y-69091012D01*
X98699800Y-69103272D01*
X99714050Y-69100200D01*
X99872800Y-68941450D01*
X99872800Y-67592200D01*
X100126800Y-67592200D01*
X100126800Y-68941450D01*
X100285550Y-69100200D01*
X101299800Y-69103272D01*
X101424282Y-69091012D01*
X101543980Y-69054702D01*
X101654294Y-68995737D01*
X101750985Y-68916385D01*
X101830337Y-68819694D01*
X101889302Y-68709380D01*
X101925612Y-68589682D01*
X101937218Y-68471840D01*
X105288091Y-68471840D01*
X105382930Y-68736681D01*
X105527615Y-68977931D01*
X105716586Y-69186319D01*
X105942580Y-69353837D01*
X106196913Y-69474046D01*
X106330961Y-69514704D01*
X106553000Y-69392715D01*
X106553000Y-68249800D01*
X106807000Y-68249800D01*
X106807000Y-69392715D01*
X107029039Y-69514704D01*
X107163087Y-69474046D01*
X107417420Y-69353837D01*
X107643414Y-69186319D01*
X107832385Y-68977931D01*
X107977070Y-68736681D01*
X108071909Y-68471840D01*
X107950624Y-68249800D01*
X106807000Y-68249800D01*
X106553000Y-68249800D01*
X105409376Y-68249800D01*
X105288091Y-68471840D01*
X101937218Y-68471840D01*
X101937872Y-68465200D01*
X101934899Y-67773760D01*
X105288091Y-67773760D01*
X105409376Y-67995800D01*
X106553000Y-67995800D01*
X106553000Y-66852885D01*
X106807000Y-66852885D01*
X106807000Y-67995800D01*
X107950624Y-67995800D01*
X108071909Y-67773760D01*
X107977070Y-67508919D01*
X107832385Y-67267669D01*
X107751952Y-67178971D01*
X109555858Y-67178971D01*
X109555858Y-67621029D01*
X109642100Y-68054592D01*
X109811268Y-68463000D01*
X110056861Y-68830557D01*
X110369443Y-69143139D01*
X110737000Y-69388732D01*
X111145408Y-69557900D01*
X111578971Y-69644142D01*
X112021029Y-69644142D01*
X112454592Y-69557900D01*
X112863000Y-69388732D01*
X113230557Y-69143139D01*
X113543139Y-68830557D01*
X113788732Y-68463000D01*
X113957900Y-68054592D01*
X114044142Y-67621029D01*
X114044142Y-67178971D01*
X113957900Y-66745408D01*
X113788732Y-66337000D01*
X113543139Y-65969443D01*
X113230557Y-65656861D01*
X112863000Y-65411268D01*
X112454592Y-65242100D01*
X112021029Y-65155858D01*
X111578971Y-65155858D01*
X111145408Y-65242100D01*
X110737000Y-65411268D01*
X110369443Y-65656861D01*
X110056861Y-65969443D01*
X109811268Y-66337000D01*
X109642100Y-66745408D01*
X109555858Y-67178971D01*
X107751952Y-67178971D01*
X107643414Y-67059281D01*
X107417420Y-66891763D01*
X107163087Y-66771554D01*
X107029039Y-66730896D01*
X106807000Y-66852885D01*
X106553000Y-66852885D01*
X106330961Y-66730896D01*
X106196913Y-66771554D01*
X105942580Y-66891763D01*
X105716586Y-67059281D01*
X105527615Y-67267669D01*
X105382930Y-67508919D01*
X105288091Y-67773760D01*
X101934899Y-67773760D01*
X101934800Y-67750950D01*
X101776050Y-67592200D01*
X100126800Y-67592200D01*
X99872800Y-67592200D01*
X98223550Y-67592200D01*
X98064800Y-67750950D01*
X98061728Y-68465200D01*
X90187261Y-68465200D01*
X90188731Y-68463000D01*
X90357899Y-68054592D01*
X90444141Y-67621029D01*
X90444141Y-67178971D01*
X90357899Y-66745408D01*
X90241834Y-66465200D01*
X98061728Y-66465200D01*
X98064800Y-67179450D01*
X98223550Y-67338200D01*
X99872800Y-67338200D01*
X99872800Y-65988950D01*
X100126800Y-65988950D01*
X100126800Y-67338200D01*
X101776050Y-67338200D01*
X101934800Y-67179450D01*
X101937872Y-66465200D01*
X101925612Y-66340718D01*
X101889302Y-66221020D01*
X101830337Y-66110706D01*
X101750985Y-66014015D01*
X101654294Y-65934663D01*
X101543980Y-65875698D01*
X101424282Y-65839388D01*
X101299800Y-65827128D01*
X100285550Y-65830200D01*
X100126800Y-65988950D01*
X99872800Y-65988950D01*
X99714050Y-65830200D01*
X98699800Y-65827128D01*
X98575318Y-65839388D01*
X98455620Y-65875698D01*
X98345306Y-65934663D01*
X98248615Y-66014015D01*
X98169263Y-66110706D01*
X98110298Y-66221020D01*
X98073988Y-66340718D01*
X98061728Y-66465200D01*
X90241834Y-66465200D01*
X90188731Y-66337000D01*
X89943138Y-65969443D01*
X89738895Y-65765200D01*
X93661728Y-65765200D01*
X93673988Y-65889682D01*
X93710298Y-66009380D01*
X93769263Y-66119694D01*
X93848615Y-66216385D01*
X93945306Y-66295737D01*
X94055620Y-66354702D01*
X94175318Y-66391012D01*
X94299800Y-66403272D01*
X95014050Y-66400200D01*
X95172800Y-66241450D01*
X95172800Y-64592200D01*
X95426800Y-64592200D01*
X95426800Y-66241450D01*
X95585550Y-66400200D01*
X96299800Y-66403272D01*
X96424282Y-66391012D01*
X96543980Y-66354702D01*
X96654294Y-66295737D01*
X96750985Y-66216385D01*
X96830337Y-66119694D01*
X96889302Y-66009380D01*
X96925612Y-65889682D01*
X96937872Y-65765200D01*
X96934800Y-64750950D01*
X96776050Y-64592200D01*
X95426800Y-64592200D01*
X95172800Y-64592200D01*
X93823550Y-64592200D01*
X93664800Y-64750950D01*
X93661728Y-65765200D01*
X89738895Y-65765200D01*
X89630556Y-65656861D01*
X89262999Y-65411268D01*
X88854591Y-65242100D01*
X88729454Y-65217208D01*
X91346463Y-62600200D01*
X94009781Y-62600200D01*
X93945306Y-62634663D01*
X93848615Y-62714015D01*
X93769263Y-62810706D01*
X93710298Y-62921020D01*
X93673988Y-63040718D01*
X93661728Y-63165200D01*
X93664800Y-64179450D01*
X93823550Y-64338200D01*
X95172800Y-64338200D01*
X95172800Y-64318200D01*
X95426800Y-64318200D01*
X95426800Y-64338200D01*
X96776050Y-64338200D01*
X96934800Y-64179450D01*
X96937872Y-63165200D01*
X96925612Y-63040718D01*
X96889302Y-62921020D01*
X96830337Y-62810706D01*
X96750985Y-62714015D01*
X96654294Y-62634663D01*
X96589819Y-62600200D01*
X98077179Y-62600200D01*
X98110298Y-62709380D01*
X98169263Y-62819694D01*
X98248615Y-62916385D01*
X98345306Y-62995737D01*
X98455620Y-63054702D01*
X98575318Y-63091012D01*
X98699800Y-63103272D01*
X101299800Y-63103272D01*
X101424282Y-63091012D01*
X101543980Y-63054702D01*
X101654294Y-62995737D01*
X101750985Y-62916385D01*
X101830337Y-62819694D01*
X101889302Y-62709380D01*
X101925612Y-62589682D01*
X101937872Y-62465200D01*
X101937872Y-60465200D01*
X101925612Y-60340718D01*
X101889302Y-60221020D01*
X101830337Y-60110706D01*
X101750985Y-60014015D01*
X101654294Y-59934663D01*
X101543980Y-59875698D01*
X101424282Y-59839388D01*
X101299800Y-59827128D01*
X98699800Y-59827128D01*
X98575318Y-59839388D01*
X98455620Y-59875698D01*
X98345306Y-59934663D01*
X98248615Y-60014015D01*
X98169263Y-60110706D01*
X98110298Y-60221020D01*
X98077179Y-60330200D01*
X90932082Y-60330200D01*
X90876330Y-60324709D01*
X90820579Y-60330200D01*
X90653832Y-60346623D01*
X90439884Y-60411524D01*
X90242708Y-60516916D01*
X90069882Y-60658751D01*
X90034340Y-60702059D01*
X83434998Y-67301402D01*
X83434998Y-62735735D01*
X83439723Y-62687691D01*
X83443201Y-62676212D01*
X83448866Y-62665610D01*
X83456412Y-62656414D01*
X83465611Y-62648866D01*
X83476214Y-62643201D01*
X83487690Y-62639723D01*
X83535715Y-62635000D01*
X85786105Y-62635000D01*
X85819024Y-62631758D01*
X85838955Y-62631897D01*
X85849168Y-62630896D01*
X86470277Y-62565615D01*
X86535584Y-62552209D01*
X86600970Y-62539736D01*
X86610795Y-62536771D01*
X87207395Y-62352092D01*
X87268862Y-62326254D01*
X87330573Y-62301321D01*
X87339634Y-62296504D01*
X87889001Y-61999462D01*
X87944240Y-61962202D01*
X87999971Y-61925733D01*
X88007924Y-61919247D01*
X88489133Y-61521156D01*
X88536094Y-61473866D01*
X88583668Y-61427278D01*
X88590210Y-61419371D01*
X88984931Y-60935395D01*
X89021811Y-60879887D01*
X89059433Y-60824941D01*
X89064315Y-60815914D01*
X89357514Y-60264486D01*
X89382915Y-60202859D01*
X89409142Y-60141666D01*
X89412177Y-60131863D01*
X89541718Y-59702800D01*
X105241928Y-59702800D01*
X105241928Y-61302800D01*
X105254188Y-61427282D01*
X105290498Y-61546980D01*
X105349463Y-61657294D01*
X105428815Y-61753985D01*
X105525506Y-61833337D01*
X105635820Y-61892302D01*
X105755518Y-61928612D01*
X105880000Y-61940872D01*
X107480000Y-61940872D01*
X107604482Y-61928612D01*
X107724180Y-61892302D01*
X107834494Y-61833337D01*
X107931185Y-61753985D01*
X108010537Y-61657294D01*
X108069502Y-61546980D01*
X108105812Y-61427282D01*
X108118072Y-61302800D01*
X108118072Y-59702800D01*
X108105812Y-59578318D01*
X108069502Y-59458620D01*
X108010537Y-59348306D01*
X107931185Y-59251615D01*
X107834494Y-59172263D01*
X107724180Y-59113298D01*
X107604482Y-59076988D01*
X107480000Y-59064728D01*
X105880000Y-59064728D01*
X105755518Y-59076988D01*
X105635820Y-59113298D01*
X105525506Y-59172263D01*
X105428815Y-59251615D01*
X105349463Y-59348306D01*
X105290498Y-59458620D01*
X105254188Y-59578318D01*
X105241928Y-59702800D01*
X89541718Y-59702800D01*
X89592686Y-59533988D01*
X89605635Y-59468589D01*
X89619475Y-59403480D01*
X89620548Y-59393274D01*
X89681492Y-58771724D01*
X89681492Y-58771723D01*
X89685000Y-58736105D01*
X89685000Y-56485715D01*
X89689723Y-56437691D01*
X89693201Y-56426212D01*
X89698866Y-56415610D01*
X89706412Y-56406414D01*
X89715611Y-56398866D01*
X89726214Y-56393201D01*
X89737690Y-56389723D01*
X89785715Y-56385000D01*
X110214284Y-56385000D01*
X110262308Y-56389723D01*
G37*
%TD.AperFunction*%
D31*
X94327000Y-126473000D02*
X94347000Y-126473000D01*
X94347000Y-126727000D01*
X94327000Y-126727000D01*
X94327000Y-127776250D01*
X94485750Y-127935000D01*
X94800000Y-127938072D01*
X94924482Y-127925812D01*
X95044180Y-127889502D01*
X95081110Y-127869762D01*
X95078992Y-127876745D01*
X95061928Y-128049999D01*
X95061928Y-128359340D01*
X94829868Y-128591400D01*
X94638967Y-128591400D01*
X94323088Y-128654232D01*
X94025537Y-128777482D01*
X93929877Y-128841400D01*
X93800086Y-128841400D01*
X93164128Y-128205442D01*
X93157972Y-128185150D01*
X93075905Y-128031614D01*
X92965462Y-127897038D01*
X92916036Y-127856476D01*
X93043387Y-127788405D01*
X93124637Y-127721724D01*
X93148815Y-127751185D01*
X93245506Y-127830537D01*
X93355820Y-127889502D01*
X93475518Y-127925812D01*
X93600000Y-127938072D01*
X93914250Y-127935000D01*
X94073000Y-127776250D01*
X94073000Y-126727000D01*
X94053000Y-126727000D01*
X94053000Y-126473000D01*
X94073000Y-126473000D01*
X94073000Y-126453000D01*
X94327000Y-126453000D01*
X94327000Y-126473000D01*
%TA.AperFunction,Conductor*%
D32*
G36*
X94327000Y-126473000D02*
G01*
X94347000Y-126473000D01*
X94347000Y-126727000D01*
X94327000Y-126727000D01*
X94327000Y-127776250D01*
X94485750Y-127935000D01*
X94800000Y-127938072D01*
X94924482Y-127925812D01*
X95044180Y-127889502D01*
X95081110Y-127869762D01*
X95078992Y-127876745D01*
X95061928Y-128049999D01*
X95061928Y-128359340D01*
X94829868Y-128591400D01*
X94638967Y-128591400D01*
X94323088Y-128654232D01*
X94025537Y-128777482D01*
X93929877Y-128841400D01*
X93800086Y-128841400D01*
X93164128Y-128205442D01*
X93157972Y-128185150D01*
X93075905Y-128031614D01*
X92965462Y-127897038D01*
X92916036Y-127856476D01*
X93043387Y-127788405D01*
X93124637Y-127721724D01*
X93148815Y-127751185D01*
X93245506Y-127830537D01*
X93355820Y-127889502D01*
X93475518Y-127925812D01*
X93600000Y-127938072D01*
X93914250Y-127935000D01*
X94073000Y-127776250D01*
X94073000Y-126727000D01*
X94053000Y-126727000D01*
X94053000Y-126473000D01*
X94073000Y-126473000D01*
X94073000Y-126453000D01*
X94327000Y-126453000D01*
X94327000Y-126473000D01*
G37*
%TD.AperFunction*%
%TD*%
M02*
