%TF.GenerationSoftware,KiCad,Pcbnew,5.1.10*%
%TF.CreationDate,2021-09-21T18:47:02-07:00*%
%TF.ProjectId,MainBoard,4d61696e-426f-4617-9264-2e6b69636164,rev?*%
%TF.SameCoordinates,Original*%
%TF.FileFunction,Legend,Bot*%
%TF.FilePolarity,Positive*%
%FSLAX46Y46*%
G04 Gerber Fmt 4.6, Leading zero omitted, Abs format (unit mm)*
G04 Created by KiCad (PCBNEW 5.1.10) date 2021-09-21 18:47:02*
%MOMM*%
%LPD*%
G01*
G04 APERTURE LIST*
%ADD10C,0.150000*%
%ADD11C,0.010000*%
%ADD12C,0.100000*%
%ADD13C,0.120000*%
G04 APERTURE END LIST*
D10*
X86272573Y-83015875D02*
X85558287Y-83015875D01*
X85415430Y-83063494D01*
X85320192Y-83158732D01*
X85272573Y-83301589D01*
X85272573Y-83396827D01*
X85272573Y-82396827D02*
X85320192Y-82492065D01*
X85367811Y-82539684D01*
X85463049Y-82587303D01*
X85748763Y-82587303D01*
X85844001Y-82539684D01*
X85891620Y-82492065D01*
X85939239Y-82396827D01*
X85939239Y-82253970D01*
X85891620Y-82158732D01*
X85844001Y-82111113D01*
X85748763Y-82063494D01*
X85463049Y-82063494D01*
X85367811Y-82111113D01*
X85320192Y-82158732D01*
X85272573Y-82253970D01*
X85272573Y-82396827D01*
X85272573Y-81634922D02*
X86272573Y-81634922D01*
X85272573Y-81206351D02*
X85796382Y-81206351D01*
X85891620Y-81253970D01*
X85939239Y-81349208D01*
X85939239Y-81492065D01*
X85891620Y-81587303D01*
X85844001Y-81634922D01*
X85939239Y-80730160D02*
X85272573Y-80730160D01*
X85844001Y-80730160D02*
X85891620Y-80682541D01*
X85939239Y-80587303D01*
X85939239Y-80444446D01*
X85891620Y-80349208D01*
X85796382Y-80301589D01*
X85272573Y-80301589D01*
X85272573Y-79063494D02*
X86272573Y-79063494D01*
X85558287Y-78730160D01*
X86272573Y-78396827D01*
X85272573Y-78396827D01*
X85320192Y-77492065D02*
X85272573Y-77587303D01*
X85272573Y-77777780D01*
X85320192Y-77873018D01*
X85367811Y-77920637D01*
X85463049Y-77968256D01*
X85748763Y-77968256D01*
X85844001Y-77920637D01*
X85891620Y-77873018D01*
X85939239Y-77777780D01*
X85939239Y-77587303D01*
X85891620Y-77492065D01*
X85558287Y-77111113D02*
X85558287Y-76634922D01*
X85272573Y-77206351D02*
X86272573Y-76873018D01*
X85272573Y-76539684D01*
X85939239Y-76301589D02*
X85272573Y-76063494D01*
X85939239Y-75825399D01*
X85272573Y-75301589D02*
X85320192Y-75396827D01*
X85367811Y-75444446D01*
X85463049Y-75492065D01*
X85748763Y-75492065D01*
X85844001Y-75444446D01*
X85891620Y-75396827D01*
X85939239Y-75301589D01*
X85939239Y-75158732D01*
X85891620Y-75063494D01*
X85844001Y-75015875D01*
X85748763Y-74968256D01*
X85463049Y-74968256D01*
X85367811Y-75015875D01*
X85320192Y-75063494D01*
X85272573Y-75158732D01*
X85272573Y-75301589D01*
X85939239Y-74634922D02*
X85272573Y-74396827D01*
X85939239Y-74158732D02*
X85272573Y-74396827D01*
X85034477Y-74492065D01*
X84986858Y-74539684D01*
X84939239Y-74634922D01*
X115491000Y-110576190D02*
X114491000Y-110576190D01*
X115205286Y-110909523D01*
X114491000Y-111242857D01*
X115491000Y-111242857D01*
X115491000Y-112147619D02*
X114967191Y-112147619D01*
X114871953Y-112100000D01*
X114824334Y-112004761D01*
X114824334Y-111814285D01*
X114871953Y-111719047D01*
X115443381Y-112147619D02*
X115491000Y-112052380D01*
X115491000Y-111814285D01*
X115443381Y-111719047D01*
X115348143Y-111671428D01*
X115252905Y-111671428D01*
X115157667Y-111719047D01*
X115110048Y-111814285D01*
X115110048Y-112052380D01*
X115062429Y-112147619D01*
X115491000Y-112623809D02*
X114824334Y-112623809D01*
X114491000Y-112623809D02*
X114538620Y-112576190D01*
X114586239Y-112623809D01*
X114538620Y-112671428D01*
X114491000Y-112623809D01*
X114586239Y-112623809D01*
X114824334Y-113100000D02*
X115491000Y-113100000D01*
X114919572Y-113100000D02*
X114871953Y-113147619D01*
X114824334Y-113242857D01*
X114824334Y-113385714D01*
X114871953Y-113480952D01*
X114967191Y-113528571D01*
X115491000Y-113528571D01*
X114967191Y-115100000D02*
X115014810Y-115242857D01*
X115062429Y-115290476D01*
X115157667Y-115338095D01*
X115300524Y-115338095D01*
X115395762Y-115290476D01*
X115443381Y-115242857D01*
X115491000Y-115147619D01*
X115491000Y-114766666D01*
X114491000Y-114766666D01*
X114491000Y-115100000D01*
X114538620Y-115195238D01*
X114586239Y-115242857D01*
X114681477Y-115290476D01*
X114776715Y-115290476D01*
X114871953Y-115242857D01*
X114919572Y-115195238D01*
X114967191Y-115100000D01*
X114967191Y-114766666D01*
X115491000Y-115909523D02*
X115443381Y-115814285D01*
X115395762Y-115766666D01*
X115300524Y-115719047D01*
X115014810Y-115719047D01*
X114919572Y-115766666D01*
X114871953Y-115814285D01*
X114824334Y-115909523D01*
X114824334Y-116052380D01*
X114871953Y-116147619D01*
X114919572Y-116195238D01*
X115014810Y-116242857D01*
X115300524Y-116242857D01*
X115395762Y-116195238D01*
X115443381Y-116147619D01*
X115491000Y-116052380D01*
X115491000Y-115909523D01*
X115491000Y-117100000D02*
X114967191Y-117100000D01*
X114871953Y-117052380D01*
X114824334Y-116957142D01*
X114824334Y-116766666D01*
X114871953Y-116671428D01*
X115443381Y-117100000D02*
X115491000Y-117004761D01*
X115491000Y-116766666D01*
X115443381Y-116671428D01*
X115348143Y-116623809D01*
X115252905Y-116623809D01*
X115157667Y-116671428D01*
X115110048Y-116766666D01*
X115110048Y-117004761D01*
X115062429Y-117100000D01*
X115491000Y-117576190D02*
X114824334Y-117576190D01*
X115014810Y-117576190D02*
X114919572Y-117623809D01*
X114871953Y-117671428D01*
X114824334Y-117766666D01*
X114824334Y-117861904D01*
X115491000Y-118623809D02*
X114491000Y-118623809D01*
X115443381Y-118623809D02*
X115491000Y-118528571D01*
X115491000Y-118338095D01*
X115443381Y-118242857D01*
X115395762Y-118195238D01*
X115300524Y-118147619D01*
X115014810Y-118147619D01*
X114919572Y-118195238D01*
X114871953Y-118242857D01*
X114824334Y-118338095D01*
X114824334Y-118528571D01*
X114871953Y-118623809D01*
X115491000Y-121076092D02*
X115491000Y-121266568D01*
X115443381Y-121361806D01*
X115395762Y-121409425D01*
X115252905Y-121504663D01*
X115062429Y-121552282D01*
X114681477Y-121552282D01*
X114586239Y-121504663D01*
X114538620Y-121457044D01*
X114491000Y-121361806D01*
X114491000Y-121171330D01*
X114538620Y-121076092D01*
X114586239Y-121028473D01*
X114681477Y-120980854D01*
X114919572Y-120980854D01*
X115014810Y-121028473D01*
X115062429Y-121076092D01*
X115110048Y-121171330D01*
X115110048Y-121361806D01*
X115062429Y-121457044D01*
X115014810Y-121504663D01*
X114919572Y-121552282D01*
X114443381Y-122695140D02*
X115729096Y-121837997D01*
X114586239Y-122980854D02*
X114538620Y-123028473D01*
X114491000Y-123123711D01*
X114491000Y-123361806D01*
X114538620Y-123457044D01*
X114586239Y-123504663D01*
X114681477Y-123552282D01*
X114776715Y-123552282D01*
X114919572Y-123504663D01*
X115491000Y-122933235D01*
X115491000Y-123552282D01*
X114491000Y-124171330D02*
X114491000Y-124266568D01*
X114538620Y-124361806D01*
X114586239Y-124409425D01*
X114681477Y-124457044D01*
X114871953Y-124504663D01*
X115110048Y-124504663D01*
X115300524Y-124457044D01*
X115395762Y-124409425D01*
X115443381Y-124361806D01*
X115491000Y-124266568D01*
X115491000Y-124171330D01*
X115443381Y-124076092D01*
X115395762Y-124028473D01*
X115300524Y-123980854D01*
X115110048Y-123933235D01*
X114871953Y-123933235D01*
X114681477Y-123980854D01*
X114586239Y-124028473D01*
X114538620Y-124076092D01*
X114491000Y-124171330D01*
X114586239Y-124885616D02*
X114538620Y-124933235D01*
X114491000Y-125028473D01*
X114491000Y-125266568D01*
X114538620Y-125361806D01*
X114586239Y-125409425D01*
X114681477Y-125457044D01*
X114776715Y-125457044D01*
X114919572Y-125409425D01*
X115491000Y-124837997D01*
X115491000Y-125457044D01*
X115491000Y-126409425D02*
X115491000Y-125837997D01*
X115491000Y-126123711D02*
X114491000Y-126123711D01*
X114633858Y-126028473D01*
X114729096Y-125933235D01*
X114776715Y-125837997D01*
X112904761Y-110980952D02*
X112952380Y-111123809D01*
X112952380Y-111361904D01*
X112904761Y-111457142D01*
X112857142Y-111504761D01*
X112761904Y-111552380D01*
X112666666Y-111552380D01*
X112571428Y-111504761D01*
X112523809Y-111457142D01*
X112476190Y-111361904D01*
X112428571Y-111171428D01*
X112380952Y-111076190D01*
X112333333Y-111028571D01*
X112238095Y-110980952D01*
X112142857Y-110980952D01*
X112047619Y-111028571D01*
X112000000Y-111076190D01*
X111952380Y-111171428D01*
X111952380Y-111409523D01*
X112000000Y-111552380D01*
X112904761Y-112409523D02*
X112952380Y-112314285D01*
X112952380Y-112123809D01*
X112904761Y-112028571D01*
X112857142Y-111980952D01*
X112761904Y-111933333D01*
X112476190Y-111933333D01*
X112380952Y-111980952D01*
X112333333Y-112028571D01*
X112285714Y-112123809D01*
X112285714Y-112314285D01*
X112333333Y-112409523D01*
X112952380Y-112838095D02*
X112285714Y-112838095D01*
X112476190Y-112838095D02*
X112380952Y-112885714D01*
X112333333Y-112933333D01*
X112285714Y-113028571D01*
X112285714Y-113123809D01*
X112904761Y-113838095D02*
X112952380Y-113742857D01*
X112952380Y-113552380D01*
X112904761Y-113457142D01*
X112809523Y-113409523D01*
X112428571Y-113409523D01*
X112333333Y-113457142D01*
X112285714Y-113552380D01*
X112285714Y-113742857D01*
X112333333Y-113838095D01*
X112428571Y-113885714D01*
X112523809Y-113885714D01*
X112619047Y-113409523D01*
X112952380Y-114742857D02*
X112428571Y-114742857D01*
X112333333Y-114695238D01*
X112285714Y-114600000D01*
X112285714Y-114409523D01*
X112333333Y-114314285D01*
X112904761Y-114742857D02*
X112952380Y-114647619D01*
X112952380Y-114409523D01*
X112904761Y-114314285D01*
X112809523Y-114266666D01*
X112714285Y-114266666D01*
X112619047Y-114314285D01*
X112571428Y-114409523D01*
X112571428Y-114647619D01*
X112523809Y-114742857D01*
X112952380Y-115219047D02*
X112285714Y-115219047D01*
X112380952Y-115219047D02*
X112333333Y-115266666D01*
X112285714Y-115361904D01*
X112285714Y-115504761D01*
X112333333Y-115600000D01*
X112428571Y-115647619D01*
X112952380Y-115647619D01*
X112428571Y-115647619D02*
X112333333Y-115695238D01*
X112285714Y-115790476D01*
X112285714Y-115933333D01*
X112333333Y-116028571D01*
X112428571Y-116076190D01*
X112952380Y-116076190D01*
X112952380Y-116552380D02*
X112285714Y-116552380D01*
X111952380Y-116552380D02*
X112000000Y-116504761D01*
X112047619Y-116552380D01*
X112000000Y-116600000D01*
X111952380Y-116552380D01*
X112047619Y-116552380D01*
X112285714Y-117028571D02*
X112952380Y-117028571D01*
X112380952Y-117028571D02*
X112333333Y-117076190D01*
X112285714Y-117171428D01*
X112285714Y-117314285D01*
X112333333Y-117409523D01*
X112428571Y-117457142D01*
X112952380Y-117457142D01*
X112285714Y-118361904D02*
X113095238Y-118361904D01*
X113190476Y-118314285D01*
X113238095Y-118266666D01*
X113285714Y-118171428D01*
X113285714Y-118028571D01*
X113238095Y-117933333D01*
X112904761Y-118361904D02*
X112952380Y-118266666D01*
X112952380Y-118076190D01*
X112904761Y-117980952D01*
X112857142Y-117933333D01*
X112761904Y-117885714D01*
X112476190Y-117885714D01*
X112380952Y-117933333D01*
X112333333Y-117980952D01*
X112285714Y-118076190D01*
X112285714Y-118266666D01*
X112333333Y-118361904D01*
X112952380Y-119600000D02*
X111952380Y-119600000D01*
X111952380Y-119980952D01*
X112000000Y-120076190D01*
X112047619Y-120123809D01*
X112142857Y-120171428D01*
X112285714Y-120171428D01*
X112380952Y-120123809D01*
X112428571Y-120076190D01*
X112476190Y-119980952D01*
X112476190Y-119600000D01*
X112952380Y-121028571D02*
X112428571Y-121028571D01*
X112333333Y-120980952D01*
X112285714Y-120885714D01*
X112285714Y-120695238D01*
X112333333Y-120600000D01*
X112904761Y-121028571D02*
X112952380Y-120933333D01*
X112952380Y-120695238D01*
X112904761Y-120600000D01*
X112809523Y-120552380D01*
X112714285Y-120552380D01*
X112619047Y-120600000D01*
X112571428Y-120695238D01*
X112571428Y-120933333D01*
X112523809Y-121028571D01*
X112285714Y-121504761D02*
X112952380Y-121504761D01*
X112380952Y-121504761D02*
X112333333Y-121552380D01*
X112285714Y-121647619D01*
X112285714Y-121790476D01*
X112333333Y-121885714D01*
X112428571Y-121933333D01*
X112952380Y-121933333D01*
X112952380Y-122838095D02*
X111952380Y-122838095D01*
X112904761Y-122838095D02*
X112952380Y-122742857D01*
X112952380Y-122552380D01*
X112904761Y-122457142D01*
X112857142Y-122409523D01*
X112761904Y-122361904D01*
X112476190Y-122361904D01*
X112380952Y-122409523D01*
X112333333Y-122457142D01*
X112285714Y-122552380D01*
X112285714Y-122742857D01*
X112333333Y-122838095D01*
X112952380Y-123742857D02*
X112428571Y-123742857D01*
X112333333Y-123695238D01*
X112285714Y-123600000D01*
X112285714Y-123409523D01*
X112333333Y-123314285D01*
X112904761Y-123742857D02*
X112952380Y-123647619D01*
X112952380Y-123409523D01*
X112904761Y-123314285D01*
X112809523Y-123266666D01*
X112714285Y-123266666D01*
X112619047Y-123314285D01*
X112571428Y-123409523D01*
X112571428Y-123647619D01*
X112523809Y-123742857D01*
X112952380Y-125504761D02*
X112952380Y-124933333D01*
X112952380Y-125219047D02*
X111952380Y-125219047D01*
X112095238Y-125123809D01*
X112190476Y-125028571D01*
X112238095Y-124933333D01*
X112285714Y-125838095D02*
X112952380Y-126076190D01*
X112285714Y-126314285D01*
X111952380Y-126885714D02*
X111952380Y-126980952D01*
X112000000Y-127076190D01*
X112047619Y-127123809D01*
X112142857Y-127171428D01*
X112333333Y-127219047D01*
X112571428Y-127219047D01*
X112761904Y-127171428D01*
X112857142Y-127123809D01*
X112904761Y-127076190D01*
X112952380Y-126980952D01*
X112952380Y-126885714D01*
X112904761Y-126790476D01*
X112857142Y-126742857D01*
X112761904Y-126695238D01*
X112571428Y-126647619D01*
X112333333Y-126647619D01*
X112142857Y-126695238D01*
X112047619Y-126742857D01*
X112000000Y-126790476D01*
X111952380Y-126885714D01*
D11*
%TO.C,REF\u002A\u002A*%
G36*
X90351246Y-101272020D02*
G01*
X90237307Y-101261155D01*
X90129684Y-101229538D01*
X90030685Y-101178635D01*
X89942616Y-101109913D01*
X89867784Y-101024839D01*
X89809916Y-100927852D01*
X89770295Y-100821584D01*
X89751727Y-100714570D01*
X89752866Y-100608920D01*
X89772370Y-100506745D01*
X89808894Y-100410154D01*
X89861095Y-100321258D01*
X89927627Y-100242166D01*
X90007148Y-100174989D01*
X90098313Y-100121837D01*
X90199777Y-100084819D01*
X90310198Y-100066047D01*
X90360094Y-100064109D01*
X90448033Y-100064109D01*
X90448033Y-100012180D01*
X90445189Y-99975873D01*
X90433389Y-99948975D01*
X90409651Y-99921869D01*
X90371269Y-99883487D01*
X88179698Y-99883487D01*
X87917561Y-99883496D01*
X87677059Y-99883528D01*
X87457252Y-99883592D01*
X87257199Y-99883696D01*
X87075956Y-99883847D01*
X86912584Y-99884054D01*
X86766140Y-99884326D01*
X86635683Y-99884670D01*
X86520271Y-99885094D01*
X86418962Y-99885607D01*
X86330816Y-99886217D01*
X86254890Y-99886932D01*
X86190243Y-99887760D01*
X86135933Y-99888709D01*
X86091020Y-99889787D01*
X86054560Y-99891003D01*
X86025613Y-99892365D01*
X86003237Y-99893881D01*
X85986491Y-99895558D01*
X85974432Y-99897406D01*
X85966120Y-99899433D01*
X85960613Y-99901645D01*
X85958763Y-99902728D01*
X85951751Y-99906891D01*
X85945304Y-99910425D01*
X85939400Y-99914255D01*
X85934014Y-99919302D01*
X85929122Y-99926491D01*
X85924702Y-99936743D01*
X85920728Y-99950984D01*
X85917179Y-99970134D01*
X85914030Y-99995119D01*
X85911258Y-100026860D01*
X85908839Y-100066282D01*
X85906749Y-100114306D01*
X85904965Y-100171857D01*
X85903463Y-100239857D01*
X85902220Y-100319230D01*
X85901211Y-100410899D01*
X85900415Y-100515786D01*
X85899806Y-100634816D01*
X85899361Y-100768910D01*
X85899057Y-100918993D01*
X85898870Y-101085987D01*
X85898776Y-101270816D01*
X85898752Y-101474403D01*
X85898775Y-101697670D01*
X85898820Y-101941542D01*
X85898863Y-102206941D01*
X85898868Y-102245324D01*
X85898911Y-102512302D01*
X85898982Y-102757622D01*
X85899087Y-102982203D01*
X85899234Y-103186965D01*
X85899431Y-103372826D01*
X85899684Y-103540708D01*
X85900000Y-103691528D01*
X85900387Y-103826207D01*
X85900853Y-103945664D01*
X85901403Y-104050819D01*
X85902047Y-104142591D01*
X85902789Y-104221899D01*
X85903639Y-104289663D01*
X85904603Y-104346802D01*
X85905689Y-104394237D01*
X85906903Y-104432886D01*
X85908253Y-104463669D01*
X85909745Y-104487505D01*
X85911389Y-104505314D01*
X85913189Y-104518015D01*
X85915155Y-104526528D01*
X85916823Y-104530886D01*
X85920394Y-104539348D01*
X85923030Y-104547117D01*
X85925666Y-104554222D01*
X85929238Y-104560693D01*
X85934679Y-104566559D01*
X85942925Y-104571849D01*
X85954910Y-104576594D01*
X85971569Y-104580822D01*
X85993837Y-104584563D01*
X86022648Y-104587847D01*
X86058937Y-104590703D01*
X86103639Y-104593160D01*
X86157689Y-104595249D01*
X86222021Y-104596998D01*
X86297570Y-104598437D01*
X86385270Y-104599596D01*
X86486057Y-104600503D01*
X86600866Y-104601189D01*
X86730630Y-104601683D01*
X86876285Y-104602015D01*
X87038765Y-104602213D01*
X87219005Y-104602307D01*
X87417940Y-104602328D01*
X87636504Y-104602305D01*
X87875632Y-104602266D01*
X88136260Y-104602242D01*
X88178411Y-104602242D01*
X88441308Y-104602256D01*
X88682568Y-104602281D01*
X88903135Y-104602291D01*
X89103948Y-104602262D01*
X89285951Y-104602168D01*
X89450084Y-104601982D01*
X89597289Y-104601679D01*
X89728508Y-104601234D01*
X89838433Y-104600654D01*
X89838433Y-104297817D01*
X89780589Y-104258027D01*
X89764821Y-104246856D01*
X89750859Y-104236786D01*
X89737516Y-104227758D01*
X89723607Y-104219717D01*
X89707944Y-104212606D01*
X89689342Y-104206367D01*
X89666614Y-104200945D01*
X89638573Y-104196282D01*
X89604033Y-104192321D01*
X89561808Y-104189005D01*
X89510711Y-104186279D01*
X89449556Y-104184084D01*
X89377156Y-104182365D01*
X89292325Y-104181064D01*
X89193878Y-104180125D01*
X89080626Y-104179490D01*
X88951384Y-104179104D01*
X88804966Y-104178908D01*
X88640184Y-104178847D01*
X88455853Y-104178863D01*
X88250787Y-104178900D01*
X88128167Y-104178909D01*
X87911218Y-104178885D01*
X87715658Y-104178851D01*
X87540301Y-104178863D01*
X87383959Y-104178978D01*
X87245443Y-104179250D01*
X87123566Y-104179738D01*
X87017140Y-104180496D01*
X86924978Y-104181582D01*
X86845891Y-104183051D01*
X86778692Y-104184960D01*
X86722193Y-104187364D01*
X86675207Y-104190321D01*
X86636545Y-104193886D01*
X86605020Y-104198115D01*
X86579445Y-104203066D01*
X86558630Y-104208793D01*
X86541389Y-104215353D01*
X86526535Y-104222803D01*
X86512878Y-104231199D01*
X86499231Y-104240596D01*
X86484407Y-104251052D01*
X86475517Y-104257143D01*
X86417900Y-104295916D01*
X86417900Y-103764352D01*
X86417935Y-103641103D01*
X86418085Y-103538607D01*
X86418422Y-103455040D01*
X86419014Y-103388576D01*
X86419933Y-103337391D01*
X86421249Y-103299661D01*
X86423031Y-103273560D01*
X86425349Y-103257264D01*
X86428274Y-103248948D01*
X86431876Y-103246788D01*
X86436225Y-103248959D01*
X86437655Y-103250155D01*
X86474727Y-103275305D01*
X86527528Y-103301203D01*
X86589530Y-103324812D01*
X86615943Y-103333081D01*
X86633884Y-103337698D01*
X86654945Y-103341599D01*
X86681211Y-103344868D01*
X86714768Y-103347586D01*
X86757701Y-103349835D01*
X86812096Y-103351697D01*
X86880038Y-103353256D01*
X86963612Y-103354592D01*
X87064905Y-103355789D01*
X87186000Y-103356928D01*
X87230700Y-103357305D01*
X87355851Y-103358322D01*
X87460218Y-103359080D01*
X87545593Y-103359523D01*
X87613767Y-103359590D01*
X87666535Y-103359225D01*
X87705686Y-103358368D01*
X87733015Y-103356961D01*
X87750314Y-103354945D01*
X87759374Y-103352263D01*
X87761988Y-103348856D01*
X87759949Y-103344664D01*
X87755633Y-103340191D01*
X87742698Y-103329836D01*
X87713624Y-103307778D01*
X87670541Y-103275577D01*
X87615582Y-103234794D01*
X87550877Y-103186990D01*
X87478558Y-103133725D01*
X87400756Y-103076560D01*
X87319602Y-103017057D01*
X87237228Y-102956775D01*
X87155764Y-102897275D01*
X87077343Y-102840118D01*
X87004096Y-102786865D01*
X86938153Y-102739077D01*
X86881646Y-102698313D01*
X86836707Y-102666136D01*
X86805466Y-102644105D01*
X86798834Y-102639537D01*
X86761931Y-102616616D01*
X86713941Y-102589808D01*
X86664403Y-102564409D01*
X86657723Y-102561188D01*
X86609528Y-102539510D01*
X86571966Y-102526924D01*
X86536140Y-102521194D01*
X86494100Y-102520076D01*
X86417900Y-102520710D01*
X86417900Y-101366271D01*
X86511631Y-101457435D01*
X86561525Y-101504232D01*
X86618005Y-101554519D01*
X86672274Y-101600564D01*
X86697627Y-101620989D01*
X86737172Y-101651427D01*
X86790384Y-101691482D01*
X86855633Y-101739981D01*
X86931289Y-101795755D01*
X87015723Y-101857631D01*
X87107306Y-101924439D01*
X87204408Y-101995007D01*
X87305399Y-102068165D01*
X87408650Y-102142741D01*
X87512532Y-102217564D01*
X87615415Y-102291463D01*
X87715669Y-102363266D01*
X87811664Y-102431804D01*
X87901773Y-102495904D01*
X87984364Y-102554395D01*
X88057808Y-102606106D01*
X88120476Y-102649867D01*
X88170739Y-102684505D01*
X88206966Y-102708850D01*
X88227529Y-102721731D01*
X88231632Y-102723489D01*
X88242958Y-102715530D01*
X88270138Y-102694735D01*
X88311471Y-102662467D01*
X88365256Y-102620090D01*
X88429794Y-102568967D01*
X88503382Y-102510461D01*
X88584322Y-102445934D01*
X88670912Y-102376751D01*
X88761452Y-102304273D01*
X88854240Y-102229866D01*
X88928598Y-102170137D01*
X88928598Y-101159131D01*
X88915641Y-101153222D01*
X88893392Y-101138892D01*
X88891909Y-101137845D01*
X88861756Y-101119058D01*
X88824925Y-101099411D01*
X88816789Y-101095512D01*
X88808360Y-101091976D01*
X88798241Y-101088850D01*
X88785040Y-101086106D01*
X88767362Y-101083712D01*
X88743816Y-101081639D01*
X88713007Y-101079855D01*
X88673543Y-101078332D01*
X88624031Y-101077039D01*
X88563077Y-101075946D01*
X88489289Y-101075023D01*
X88401272Y-101074239D01*
X88297635Y-101073565D01*
X88176984Y-101072970D01*
X88037926Y-101072425D01*
X87879068Y-101071899D01*
X87700211Y-101071365D01*
X87515093Y-101070826D01*
X87351155Y-101070392D01*
X87206997Y-101070129D01*
X87081221Y-101070104D01*
X86972429Y-101070385D01*
X86879223Y-101071039D01*
X86800203Y-101072134D01*
X86733972Y-101073738D01*
X86679130Y-101075917D01*
X86634279Y-101078739D01*
X86598022Y-101082271D01*
X86568959Y-101086581D01*
X86545691Y-101091737D01*
X86526821Y-101097805D01*
X86510949Y-101104853D01*
X86496678Y-101112949D01*
X86482609Y-101122160D01*
X86470142Y-101130660D01*
X86443848Y-101147796D01*
X86426263Y-101157942D01*
X86423043Y-101159131D01*
X86421966Y-101148224D01*
X86420965Y-101117031D01*
X86420065Y-101067843D01*
X86419290Y-101002953D01*
X86418663Y-100924650D01*
X86418209Y-100835227D01*
X86417951Y-100736976D01*
X86417900Y-100668065D01*
X86418120Y-100563072D01*
X86418752Y-100466230D01*
X86419751Y-100379727D01*
X86421073Y-100305752D01*
X86422674Y-100246494D01*
X86424509Y-100204140D01*
X86426535Y-100180880D01*
X86427807Y-100176998D01*
X86442709Y-100184696D01*
X86450740Y-100192694D01*
X86467866Y-100205866D01*
X86498117Y-100223105D01*
X86522678Y-100235027D01*
X86581589Y-100261665D01*
X87758455Y-100264740D01*
X88935322Y-100267815D01*
X88935322Y-100713473D01*
X88935158Y-100811290D01*
X88934689Y-100901684D01*
X88933953Y-100982250D01*
X88932984Y-101050582D01*
X88931820Y-101104276D01*
X88930497Y-101140925D01*
X88929051Y-101158124D01*
X88928598Y-101159131D01*
X88928598Y-102170137D01*
X88947578Y-102154890D01*
X89039763Y-102080710D01*
X89129096Y-102008689D01*
X89213876Y-101940189D01*
X89292402Y-101876575D01*
X89362974Y-101819208D01*
X89423891Y-101769453D01*
X89473453Y-101728672D01*
X89494122Y-101711508D01*
X89594784Y-101625216D01*
X89678041Y-101548617D01*
X89745862Y-101479803D01*
X89800211Y-101416868D01*
X89807578Y-101407487D01*
X89838183Y-101367976D01*
X89838433Y-102499736D01*
X89790456Y-102494447D01*
X89733112Y-102497750D01*
X89664837Y-102519281D01*
X89585088Y-102559255D01*
X89512805Y-102604563D01*
X89490160Y-102620781D01*
X89452604Y-102648834D01*
X89402279Y-102687050D01*
X89341327Y-102733757D01*
X89271889Y-102787281D01*
X89196106Y-102845951D01*
X89116120Y-102908095D01*
X89034072Y-102972041D01*
X88952104Y-103036115D01*
X88872357Y-103098647D01*
X88796973Y-103157963D01*
X88728093Y-103212391D01*
X88667858Y-103260259D01*
X88618411Y-103299895D01*
X88581892Y-103329626D01*
X88560442Y-103347781D01*
X88557144Y-103350840D01*
X88565151Y-103353699D01*
X88595445Y-103355913D01*
X88647744Y-103357477D01*
X88721769Y-103358387D01*
X88817237Y-103358640D01*
X88933866Y-103358233D01*
X89053855Y-103357324D01*
X89185967Y-103356002D01*
X89297706Y-103354477D01*
X89391275Y-103352501D01*
X89468881Y-103349826D01*
X89532726Y-103346202D01*
X89585017Y-103341381D01*
X89627956Y-103335114D01*
X89663749Y-103327152D01*
X89694600Y-103317247D01*
X89722714Y-103305151D01*
X89750295Y-103290613D01*
X89775334Y-103275931D01*
X89838433Y-103237934D01*
X89838433Y-104297817D01*
X89838433Y-104600654D01*
X89844683Y-104600621D01*
X89946756Y-104599815D01*
X90035667Y-104598790D01*
X90112359Y-104597520D01*
X90177773Y-104595980D01*
X90232851Y-104594144D01*
X90278535Y-104591987D01*
X90315766Y-104589483D01*
X90345487Y-104586607D01*
X90368638Y-104583333D01*
X90386161Y-104579635D01*
X90398999Y-104575489D01*
X90408092Y-104570867D01*
X90414382Y-104565746D01*
X90418812Y-104560098D01*
X90422322Y-104553899D01*
X90425855Y-104547124D01*
X90429424Y-104541128D01*
X90432000Y-104535895D01*
X90434328Y-104527719D01*
X90436422Y-104515506D01*
X90438293Y-104498161D01*
X90439953Y-104474589D01*
X90441416Y-104443697D01*
X90442692Y-104404388D01*
X90443796Y-104355570D01*
X90444739Y-104296147D01*
X90445533Y-104225024D01*
X90446191Y-104141108D01*
X90446725Y-104043303D01*
X90447147Y-103930514D01*
X90447471Y-103801649D01*
X90447708Y-103655611D01*
X90447870Y-103491306D01*
X90447970Y-103307640D01*
X90448020Y-103103517D01*
X90448033Y-102892373D01*
X90448033Y-101272020D01*
X90351246Y-101272020D01*
G37*
X90351246Y-101272020D02*
X90237307Y-101261155D01*
X90129684Y-101229538D01*
X90030685Y-101178635D01*
X89942616Y-101109913D01*
X89867784Y-101024839D01*
X89809916Y-100927852D01*
X89770295Y-100821584D01*
X89751727Y-100714570D01*
X89752866Y-100608920D01*
X89772370Y-100506745D01*
X89808894Y-100410154D01*
X89861095Y-100321258D01*
X89927627Y-100242166D01*
X90007148Y-100174989D01*
X90098313Y-100121837D01*
X90199777Y-100084819D01*
X90310198Y-100066047D01*
X90360094Y-100064109D01*
X90448033Y-100064109D01*
X90448033Y-100012180D01*
X90445189Y-99975873D01*
X90433389Y-99948975D01*
X90409651Y-99921869D01*
X90371269Y-99883487D01*
X88179698Y-99883487D01*
X87917561Y-99883496D01*
X87677059Y-99883528D01*
X87457252Y-99883592D01*
X87257199Y-99883696D01*
X87075956Y-99883847D01*
X86912584Y-99884054D01*
X86766140Y-99884326D01*
X86635683Y-99884670D01*
X86520271Y-99885094D01*
X86418962Y-99885607D01*
X86330816Y-99886217D01*
X86254890Y-99886932D01*
X86190243Y-99887760D01*
X86135933Y-99888709D01*
X86091020Y-99889787D01*
X86054560Y-99891003D01*
X86025613Y-99892365D01*
X86003237Y-99893881D01*
X85986491Y-99895558D01*
X85974432Y-99897406D01*
X85966120Y-99899433D01*
X85960613Y-99901645D01*
X85958763Y-99902728D01*
X85951751Y-99906891D01*
X85945304Y-99910425D01*
X85939400Y-99914255D01*
X85934014Y-99919302D01*
X85929122Y-99926491D01*
X85924702Y-99936743D01*
X85920728Y-99950984D01*
X85917179Y-99970134D01*
X85914030Y-99995119D01*
X85911258Y-100026860D01*
X85908839Y-100066282D01*
X85906749Y-100114306D01*
X85904965Y-100171857D01*
X85903463Y-100239857D01*
X85902220Y-100319230D01*
X85901211Y-100410899D01*
X85900415Y-100515786D01*
X85899806Y-100634816D01*
X85899361Y-100768910D01*
X85899057Y-100918993D01*
X85898870Y-101085987D01*
X85898776Y-101270816D01*
X85898752Y-101474403D01*
X85898775Y-101697670D01*
X85898820Y-101941542D01*
X85898863Y-102206941D01*
X85898868Y-102245324D01*
X85898911Y-102512302D01*
X85898982Y-102757622D01*
X85899087Y-102982203D01*
X85899234Y-103186965D01*
X85899431Y-103372826D01*
X85899684Y-103540708D01*
X85900000Y-103691528D01*
X85900387Y-103826207D01*
X85900853Y-103945664D01*
X85901403Y-104050819D01*
X85902047Y-104142591D01*
X85902789Y-104221899D01*
X85903639Y-104289663D01*
X85904603Y-104346802D01*
X85905689Y-104394237D01*
X85906903Y-104432886D01*
X85908253Y-104463669D01*
X85909745Y-104487505D01*
X85911389Y-104505314D01*
X85913189Y-104518015D01*
X85915155Y-104526528D01*
X85916823Y-104530886D01*
X85920394Y-104539348D01*
X85923030Y-104547117D01*
X85925666Y-104554222D01*
X85929238Y-104560693D01*
X85934679Y-104566559D01*
X85942925Y-104571849D01*
X85954910Y-104576594D01*
X85971569Y-104580822D01*
X85993837Y-104584563D01*
X86022648Y-104587847D01*
X86058937Y-104590703D01*
X86103639Y-104593160D01*
X86157689Y-104595249D01*
X86222021Y-104596998D01*
X86297570Y-104598437D01*
X86385270Y-104599596D01*
X86486057Y-104600503D01*
X86600866Y-104601189D01*
X86730630Y-104601683D01*
X86876285Y-104602015D01*
X87038765Y-104602213D01*
X87219005Y-104602307D01*
X87417940Y-104602328D01*
X87636504Y-104602305D01*
X87875632Y-104602266D01*
X88136260Y-104602242D01*
X88178411Y-104602242D01*
X88441308Y-104602256D01*
X88682568Y-104602281D01*
X88903135Y-104602291D01*
X89103948Y-104602262D01*
X89285951Y-104602168D01*
X89450084Y-104601982D01*
X89597289Y-104601679D01*
X89728508Y-104601234D01*
X89838433Y-104600654D01*
X89838433Y-104297817D01*
X89780589Y-104258027D01*
X89764821Y-104246856D01*
X89750859Y-104236786D01*
X89737516Y-104227758D01*
X89723607Y-104219717D01*
X89707944Y-104212606D01*
X89689342Y-104206367D01*
X89666614Y-104200945D01*
X89638573Y-104196282D01*
X89604033Y-104192321D01*
X89561808Y-104189005D01*
X89510711Y-104186279D01*
X89449556Y-104184084D01*
X89377156Y-104182365D01*
X89292325Y-104181064D01*
X89193878Y-104180125D01*
X89080626Y-104179490D01*
X88951384Y-104179104D01*
X88804966Y-104178908D01*
X88640184Y-104178847D01*
X88455853Y-104178863D01*
X88250787Y-104178900D01*
X88128167Y-104178909D01*
X87911218Y-104178885D01*
X87715658Y-104178851D01*
X87540301Y-104178863D01*
X87383959Y-104178978D01*
X87245443Y-104179250D01*
X87123566Y-104179738D01*
X87017140Y-104180496D01*
X86924978Y-104181582D01*
X86845891Y-104183051D01*
X86778692Y-104184960D01*
X86722193Y-104187364D01*
X86675207Y-104190321D01*
X86636545Y-104193886D01*
X86605020Y-104198115D01*
X86579445Y-104203066D01*
X86558630Y-104208793D01*
X86541389Y-104215353D01*
X86526535Y-104222803D01*
X86512878Y-104231199D01*
X86499231Y-104240596D01*
X86484407Y-104251052D01*
X86475517Y-104257143D01*
X86417900Y-104295916D01*
X86417900Y-103764352D01*
X86417935Y-103641103D01*
X86418085Y-103538607D01*
X86418422Y-103455040D01*
X86419014Y-103388576D01*
X86419933Y-103337391D01*
X86421249Y-103299661D01*
X86423031Y-103273560D01*
X86425349Y-103257264D01*
X86428274Y-103248948D01*
X86431876Y-103246788D01*
X86436225Y-103248959D01*
X86437655Y-103250155D01*
X86474727Y-103275305D01*
X86527528Y-103301203D01*
X86589530Y-103324812D01*
X86615943Y-103333081D01*
X86633884Y-103337698D01*
X86654945Y-103341599D01*
X86681211Y-103344868D01*
X86714768Y-103347586D01*
X86757701Y-103349835D01*
X86812096Y-103351697D01*
X86880038Y-103353256D01*
X86963612Y-103354592D01*
X87064905Y-103355789D01*
X87186000Y-103356928D01*
X87230700Y-103357305D01*
X87355851Y-103358322D01*
X87460218Y-103359080D01*
X87545593Y-103359523D01*
X87613767Y-103359590D01*
X87666535Y-103359225D01*
X87705686Y-103358368D01*
X87733015Y-103356961D01*
X87750314Y-103354945D01*
X87759374Y-103352263D01*
X87761988Y-103348856D01*
X87759949Y-103344664D01*
X87755633Y-103340191D01*
X87742698Y-103329836D01*
X87713624Y-103307778D01*
X87670541Y-103275577D01*
X87615582Y-103234794D01*
X87550877Y-103186990D01*
X87478558Y-103133725D01*
X87400756Y-103076560D01*
X87319602Y-103017057D01*
X87237228Y-102956775D01*
X87155764Y-102897275D01*
X87077343Y-102840118D01*
X87004096Y-102786865D01*
X86938153Y-102739077D01*
X86881646Y-102698313D01*
X86836707Y-102666136D01*
X86805466Y-102644105D01*
X86798834Y-102639537D01*
X86761931Y-102616616D01*
X86713941Y-102589808D01*
X86664403Y-102564409D01*
X86657723Y-102561188D01*
X86609528Y-102539510D01*
X86571966Y-102526924D01*
X86536140Y-102521194D01*
X86494100Y-102520076D01*
X86417900Y-102520710D01*
X86417900Y-101366271D01*
X86511631Y-101457435D01*
X86561525Y-101504232D01*
X86618005Y-101554519D01*
X86672274Y-101600564D01*
X86697627Y-101620989D01*
X86737172Y-101651427D01*
X86790384Y-101691482D01*
X86855633Y-101739981D01*
X86931289Y-101795755D01*
X87015723Y-101857631D01*
X87107306Y-101924439D01*
X87204408Y-101995007D01*
X87305399Y-102068165D01*
X87408650Y-102142741D01*
X87512532Y-102217564D01*
X87615415Y-102291463D01*
X87715669Y-102363266D01*
X87811664Y-102431804D01*
X87901773Y-102495904D01*
X87984364Y-102554395D01*
X88057808Y-102606106D01*
X88120476Y-102649867D01*
X88170739Y-102684505D01*
X88206966Y-102708850D01*
X88227529Y-102721731D01*
X88231632Y-102723489D01*
X88242958Y-102715530D01*
X88270138Y-102694735D01*
X88311471Y-102662467D01*
X88365256Y-102620090D01*
X88429794Y-102568967D01*
X88503382Y-102510461D01*
X88584322Y-102445934D01*
X88670912Y-102376751D01*
X88761452Y-102304273D01*
X88854240Y-102229866D01*
X88928598Y-102170137D01*
X88928598Y-101159131D01*
X88915641Y-101153222D01*
X88893392Y-101138892D01*
X88891909Y-101137845D01*
X88861756Y-101119058D01*
X88824925Y-101099411D01*
X88816789Y-101095512D01*
X88808360Y-101091976D01*
X88798241Y-101088850D01*
X88785040Y-101086106D01*
X88767362Y-101083712D01*
X88743816Y-101081639D01*
X88713007Y-101079855D01*
X88673543Y-101078332D01*
X88624031Y-101077039D01*
X88563077Y-101075946D01*
X88489289Y-101075023D01*
X88401272Y-101074239D01*
X88297635Y-101073565D01*
X88176984Y-101072970D01*
X88037926Y-101072425D01*
X87879068Y-101071899D01*
X87700211Y-101071365D01*
X87515093Y-101070826D01*
X87351155Y-101070392D01*
X87206997Y-101070129D01*
X87081221Y-101070104D01*
X86972429Y-101070385D01*
X86879223Y-101071039D01*
X86800203Y-101072134D01*
X86733972Y-101073738D01*
X86679130Y-101075917D01*
X86634279Y-101078739D01*
X86598022Y-101082271D01*
X86568959Y-101086581D01*
X86545691Y-101091737D01*
X86526821Y-101097805D01*
X86510949Y-101104853D01*
X86496678Y-101112949D01*
X86482609Y-101122160D01*
X86470142Y-101130660D01*
X86443848Y-101147796D01*
X86426263Y-101157942D01*
X86423043Y-101159131D01*
X86421966Y-101148224D01*
X86420965Y-101117031D01*
X86420065Y-101067843D01*
X86419290Y-101002953D01*
X86418663Y-100924650D01*
X86418209Y-100835227D01*
X86417951Y-100736976D01*
X86417900Y-100668065D01*
X86418120Y-100563072D01*
X86418752Y-100466230D01*
X86419751Y-100379727D01*
X86421073Y-100305752D01*
X86422674Y-100246494D01*
X86424509Y-100204140D01*
X86426535Y-100180880D01*
X86427807Y-100176998D01*
X86442709Y-100184696D01*
X86450740Y-100192694D01*
X86467866Y-100205866D01*
X86498117Y-100223105D01*
X86522678Y-100235027D01*
X86581589Y-100261665D01*
X87758455Y-100264740D01*
X88935322Y-100267815D01*
X88935322Y-100713473D01*
X88935158Y-100811290D01*
X88934689Y-100901684D01*
X88933953Y-100982250D01*
X88932984Y-101050582D01*
X88931820Y-101104276D01*
X88930497Y-101140925D01*
X88929051Y-101158124D01*
X88928598Y-101159131D01*
X88928598Y-102170137D01*
X88947578Y-102154890D01*
X89039763Y-102080710D01*
X89129096Y-102008689D01*
X89213876Y-101940189D01*
X89292402Y-101876575D01*
X89362974Y-101819208D01*
X89423891Y-101769453D01*
X89473453Y-101728672D01*
X89494122Y-101711508D01*
X89594784Y-101625216D01*
X89678041Y-101548617D01*
X89745862Y-101479803D01*
X89800211Y-101416868D01*
X89807578Y-101407487D01*
X89838183Y-101367976D01*
X89838433Y-102499736D01*
X89790456Y-102494447D01*
X89733112Y-102497750D01*
X89664837Y-102519281D01*
X89585088Y-102559255D01*
X89512805Y-102604563D01*
X89490160Y-102620781D01*
X89452604Y-102648834D01*
X89402279Y-102687050D01*
X89341327Y-102733757D01*
X89271889Y-102787281D01*
X89196106Y-102845951D01*
X89116120Y-102908095D01*
X89034072Y-102972041D01*
X88952104Y-103036115D01*
X88872357Y-103098647D01*
X88796973Y-103157963D01*
X88728093Y-103212391D01*
X88667858Y-103260259D01*
X88618411Y-103299895D01*
X88581892Y-103329626D01*
X88560442Y-103347781D01*
X88557144Y-103350840D01*
X88565151Y-103353699D01*
X88595445Y-103355913D01*
X88647744Y-103357477D01*
X88721769Y-103358387D01*
X88817237Y-103358640D01*
X88933866Y-103358233D01*
X89053855Y-103357324D01*
X89185967Y-103356002D01*
X89297706Y-103354477D01*
X89391275Y-103352501D01*
X89468881Y-103349826D01*
X89532726Y-103346202D01*
X89585017Y-103341381D01*
X89627956Y-103335114D01*
X89663749Y-103327152D01*
X89694600Y-103317247D01*
X89722714Y-103305151D01*
X89750295Y-103290613D01*
X89775334Y-103275931D01*
X89838433Y-103237934D01*
X89838433Y-104297817D01*
X89838433Y-104600654D01*
X89844683Y-104600621D01*
X89946756Y-104599815D01*
X90035667Y-104598790D01*
X90112359Y-104597520D01*
X90177773Y-104595980D01*
X90232851Y-104594144D01*
X90278535Y-104591987D01*
X90315766Y-104589483D01*
X90345487Y-104586607D01*
X90368638Y-104583333D01*
X90386161Y-104579635D01*
X90398999Y-104575489D01*
X90408092Y-104570867D01*
X90414382Y-104565746D01*
X90418812Y-104560098D01*
X90422322Y-104553899D01*
X90425855Y-104547124D01*
X90429424Y-104541128D01*
X90432000Y-104535895D01*
X90434328Y-104527719D01*
X90436422Y-104515506D01*
X90438293Y-104498161D01*
X90439953Y-104474589D01*
X90441416Y-104443697D01*
X90442692Y-104404388D01*
X90443796Y-104355570D01*
X90444739Y-104296147D01*
X90445533Y-104225024D01*
X90446191Y-104141108D01*
X90446725Y-104043303D01*
X90447147Y-103930514D01*
X90447471Y-103801649D01*
X90447708Y-103655611D01*
X90447870Y-103491306D01*
X90447970Y-103307640D01*
X90448020Y-103103517D01*
X90448033Y-102892373D01*
X90448033Y-101272020D01*
X90351246Y-101272020D01*
G36*
X89891229Y-97997191D02*
G01*
X89870055Y-97837050D01*
X89829915Y-97673110D01*
X89770411Y-97503307D01*
X89691146Y-97325577D01*
X89685601Y-97314310D01*
X89657575Y-97256615D01*
X89633498Y-97205068D01*
X89615051Y-97163429D01*
X89603914Y-97135458D01*
X89601367Y-97125887D01*
X89596359Y-97106670D01*
X89592153Y-97102059D01*
X89581720Y-97107162D01*
X89555432Y-97123202D01*
X89516043Y-97148332D01*
X89466309Y-97180706D01*
X89408985Y-97218477D01*
X89346824Y-97259798D01*
X89282582Y-97302822D01*
X89219015Y-97345703D01*
X89158875Y-97386594D01*
X89104920Y-97423649D01*
X89059903Y-97455020D01*
X89026579Y-97478861D01*
X89007703Y-97493326D01*
X89005513Y-97495311D01*
X89010162Y-97505429D01*
X89027338Y-97527770D01*
X89053860Y-97558340D01*
X89068336Y-97574084D01*
X89143618Y-97670573D01*
X89199059Y-97777284D01*
X89234159Y-97892788D01*
X89248420Y-98015658D01*
X89247249Y-98085059D01*
X89230088Y-98206197D01*
X89194206Y-98315415D01*
X89139341Y-98413038D01*
X89065230Y-98499392D01*
X88971612Y-98574805D01*
X88858224Y-98639602D01*
X88771633Y-98677019D01*
X88635934Y-98720872D01*
X88488450Y-98753192D01*
X88332986Y-98774063D01*
X88173344Y-98783569D01*
X88013327Y-98781793D01*
X87856739Y-98768817D01*
X87707382Y-98744726D01*
X87569060Y-98709602D01*
X87445576Y-98663528D01*
X87411322Y-98647247D01*
X87297236Y-98579000D01*
X87200743Y-98498541D01*
X87122630Y-98407050D01*
X87063683Y-98305709D01*
X87024688Y-98195700D01*
X87006432Y-98078205D01*
X87005089Y-98036737D01*
X87016010Y-97915179D01*
X87048826Y-97794742D01*
X87102861Y-97676954D01*
X87177435Y-97563343D01*
X87255761Y-97471935D01*
X87300292Y-97425405D01*
X87003029Y-97244137D01*
X86928867Y-97199040D01*
X86860654Y-97157801D01*
X86800841Y-97121885D01*
X86751880Y-97092754D01*
X86716221Y-97071870D01*
X86696316Y-97060696D01*
X86693221Y-97059245D01*
X86683582Y-97067474D01*
X86666301Y-97093053D01*
X86643017Y-97132747D01*
X86615366Y-97183323D01*
X86584985Y-97241546D01*
X86553510Y-97304183D01*
X86522578Y-97367999D01*
X86493827Y-97429760D01*
X86468892Y-97486232D01*
X86449411Y-97534182D01*
X86440982Y-97557634D01*
X86403167Y-97691399D01*
X86378164Y-97829293D01*
X86365160Y-97976998D01*
X86362832Y-98103787D01*
X86363927Y-98171742D01*
X86366025Y-98237343D01*
X86368866Y-98294773D01*
X86372194Y-98338217D01*
X86373878Y-98352322D01*
X86402713Y-98491336D01*
X86447832Y-98632863D01*
X86506550Y-98770345D01*
X86576180Y-98897226D01*
X86628859Y-98974731D01*
X86737061Y-99102139D01*
X86863629Y-99220442D01*
X87005434Y-99327448D01*
X87159349Y-99420968D01*
X87322247Y-99498810D01*
X87439544Y-99542664D01*
X87623172Y-99592912D01*
X87817719Y-99626411D01*
X88018975Y-99643171D01*
X88222732Y-99643204D01*
X88424779Y-99626519D01*
X88620908Y-99593127D01*
X88806909Y-99543040D01*
X88818497Y-99539223D01*
X88980550Y-99476339D01*
X89128468Y-99399592D01*
X89266435Y-99306378D01*
X89398639Y-99194093D01*
X89443901Y-99150228D01*
X89567843Y-99014086D01*
X89670385Y-98874129D01*
X89752644Y-98728209D01*
X89815736Y-98574178D01*
X89860777Y-98409888D01*
X89878267Y-98314331D01*
X89893834Y-98155597D01*
X89891229Y-97997191D01*
G37*
X89891229Y-97997191D02*
X89870055Y-97837050D01*
X89829915Y-97673110D01*
X89770411Y-97503307D01*
X89691146Y-97325577D01*
X89685601Y-97314310D01*
X89657575Y-97256615D01*
X89633498Y-97205068D01*
X89615051Y-97163429D01*
X89603914Y-97135458D01*
X89601367Y-97125887D01*
X89596359Y-97106670D01*
X89592153Y-97102059D01*
X89581720Y-97107162D01*
X89555432Y-97123202D01*
X89516043Y-97148332D01*
X89466309Y-97180706D01*
X89408985Y-97218477D01*
X89346824Y-97259798D01*
X89282582Y-97302822D01*
X89219015Y-97345703D01*
X89158875Y-97386594D01*
X89104920Y-97423649D01*
X89059903Y-97455020D01*
X89026579Y-97478861D01*
X89007703Y-97493326D01*
X89005513Y-97495311D01*
X89010162Y-97505429D01*
X89027338Y-97527770D01*
X89053860Y-97558340D01*
X89068336Y-97574084D01*
X89143618Y-97670573D01*
X89199059Y-97777284D01*
X89234159Y-97892788D01*
X89248420Y-98015658D01*
X89247249Y-98085059D01*
X89230088Y-98206197D01*
X89194206Y-98315415D01*
X89139341Y-98413038D01*
X89065230Y-98499392D01*
X88971612Y-98574805D01*
X88858224Y-98639602D01*
X88771633Y-98677019D01*
X88635934Y-98720872D01*
X88488450Y-98753192D01*
X88332986Y-98774063D01*
X88173344Y-98783569D01*
X88013327Y-98781793D01*
X87856739Y-98768817D01*
X87707382Y-98744726D01*
X87569060Y-98709602D01*
X87445576Y-98663528D01*
X87411322Y-98647247D01*
X87297236Y-98579000D01*
X87200743Y-98498541D01*
X87122630Y-98407050D01*
X87063683Y-98305709D01*
X87024688Y-98195700D01*
X87006432Y-98078205D01*
X87005089Y-98036737D01*
X87016010Y-97915179D01*
X87048826Y-97794742D01*
X87102861Y-97676954D01*
X87177435Y-97563343D01*
X87255761Y-97471935D01*
X87300292Y-97425405D01*
X87003029Y-97244137D01*
X86928867Y-97199040D01*
X86860654Y-97157801D01*
X86800841Y-97121885D01*
X86751880Y-97092754D01*
X86716221Y-97071870D01*
X86696316Y-97060696D01*
X86693221Y-97059245D01*
X86683582Y-97067474D01*
X86666301Y-97093053D01*
X86643017Y-97132747D01*
X86615366Y-97183323D01*
X86584985Y-97241546D01*
X86553510Y-97304183D01*
X86522578Y-97367999D01*
X86493827Y-97429760D01*
X86468892Y-97486232D01*
X86449411Y-97534182D01*
X86440982Y-97557634D01*
X86403167Y-97691399D01*
X86378164Y-97829293D01*
X86365160Y-97976998D01*
X86362832Y-98103787D01*
X86363927Y-98171742D01*
X86366025Y-98237343D01*
X86368866Y-98294773D01*
X86372194Y-98338217D01*
X86373878Y-98352322D01*
X86402713Y-98491336D01*
X86447832Y-98632863D01*
X86506550Y-98770345D01*
X86576180Y-98897226D01*
X86628859Y-98974731D01*
X86737061Y-99102139D01*
X86863629Y-99220442D01*
X87005434Y-99327448D01*
X87159349Y-99420968D01*
X87322247Y-99498810D01*
X87439544Y-99542664D01*
X87623172Y-99592912D01*
X87817719Y-99626411D01*
X88018975Y-99643171D01*
X88222732Y-99643204D01*
X88424779Y-99626519D01*
X88620908Y-99593127D01*
X88806909Y-99543040D01*
X88818497Y-99539223D01*
X88980550Y-99476339D01*
X89128468Y-99399592D01*
X89266435Y-99306378D01*
X89398639Y-99194093D01*
X89443901Y-99150228D01*
X89567843Y-99014086D01*
X89670385Y-98874129D01*
X89752644Y-98728209D01*
X89815736Y-98574178D01*
X89860777Y-98409888D01*
X89878267Y-98314331D01*
X89893834Y-98155597D01*
X89891229Y-97997191D01*
G36*
X88973748Y-95652046D02*
G01*
X88953733Y-95500128D01*
X88920098Y-95364864D01*
X88872575Y-95245381D01*
X88810895Y-95140805D01*
X88747335Y-95063196D01*
X88673201Y-94994355D01*
X88593429Y-94940614D01*
X88501209Y-94897710D01*
X88458139Y-94882236D01*
X88419158Y-94869376D01*
X88383011Y-94858174D01*
X88347866Y-94848500D01*
X88311890Y-94840224D01*
X88273250Y-94833217D01*
X88230115Y-94827348D01*
X88180651Y-94822489D01*
X88123027Y-94818510D01*
X88055409Y-94815280D01*
X87975966Y-94812671D01*
X87882864Y-94810553D01*
X87774273Y-94808796D01*
X87648358Y-94807271D01*
X87503288Y-94805848D01*
X87360522Y-94804595D01*
X87204332Y-94803269D01*
X87069061Y-94802064D01*
X86953054Y-94800854D01*
X86854655Y-94799514D01*
X86772207Y-94797920D01*
X86704054Y-94795945D01*
X86648540Y-94793464D01*
X86604008Y-94790351D01*
X86568802Y-94786482D01*
X86541266Y-94781731D01*
X86519744Y-94775972D01*
X86502578Y-94769081D01*
X86488114Y-94760931D01*
X86474694Y-94751397D01*
X86460662Y-94740354D01*
X86455229Y-94736054D01*
X86432390Y-94720234D01*
X86416837Y-94713198D01*
X86416378Y-94713176D01*
X86414179Y-94724053D01*
X86412153Y-94755038D01*
X86410358Y-94803663D01*
X86408849Y-94867457D01*
X86407684Y-94943951D01*
X86406920Y-95030676D01*
X86406614Y-95125163D01*
X86406611Y-95136070D01*
X86406611Y-95558963D01*
X86502678Y-95562225D01*
X86598744Y-95565487D01*
X86547757Y-95627576D01*
X86480243Y-95724906D01*
X86425551Y-95834807D01*
X86395322Y-95921271D01*
X86380634Y-95990342D01*
X86370641Y-96073695D01*
X86365654Y-96163461D01*
X86365987Y-96251775D01*
X86371949Y-96330769D01*
X86377662Y-96366998D01*
X86415524Y-96507017D01*
X86470368Y-96633442D01*
X86541376Y-96745360D01*
X86627732Y-96841858D01*
X86728621Y-96922020D01*
X86843224Y-96984933D01*
X86969316Y-97029308D01*
X87025899Y-97041642D01*
X87088098Y-97049252D01*
X87162937Y-97052881D01*
X87196833Y-97053375D01*
X87200018Y-97053310D01*
X87200018Y-96293372D01*
X87124967Y-96284079D01*
X87061140Y-96255892D01*
X87005502Y-96207423D01*
X87001089Y-96202366D01*
X86966263Y-96154072D01*
X86943680Y-96102363D01*
X86931760Y-96041631D01*
X86928917Y-95966268D01*
X86929322Y-95948161D01*
X86931975Y-95894342D01*
X86937391Y-95854312D01*
X86947555Y-95819296D01*
X86964450Y-95780517D01*
X86969628Y-95769875D01*
X87005456Y-95709224D01*
X87048088Y-95662405D01*
X87063327Y-95649668D01*
X87119838Y-95604998D01*
X87315714Y-95604998D01*
X87394361Y-95605534D01*
X87452312Y-95607224D01*
X87491425Y-95610192D01*
X87513559Y-95614563D01*
X87520026Y-95618648D01*
X87523189Y-95634573D01*
X87525812Y-95668356D01*
X87527645Y-95715280D01*
X87528443Y-95770627D01*
X87528458Y-95779514D01*
X87523204Y-95900290D01*
X87507037Y-96002960D01*
X87479339Y-96089514D01*
X87439492Y-96161939D01*
X87392542Y-96216869D01*
X87334655Y-96261416D01*
X87271607Y-96286140D01*
X87200018Y-96293372D01*
X87200018Y-97053310D01*
X87290588Y-97051442D01*
X87369488Y-97043098D01*
X87440710Y-97026852D01*
X87511436Y-97001215D01*
X87563807Y-96977219D01*
X87659104Y-96918600D01*
X87747130Y-96840503D01*
X87826283Y-96745305D01*
X87894960Y-96635382D01*
X87951559Y-96513110D01*
X87994479Y-96380865D01*
X88009418Y-96316198D01*
X88031523Y-96180016D01*
X88046106Y-96031571D01*
X88052487Y-95880115D01*
X88050855Y-95753556D01*
X88044076Y-95591670D01*
X88103055Y-95599090D01*
X88202208Y-95618382D01*
X88282928Y-95649516D01*
X88345834Y-95693351D01*
X88391544Y-95750749D01*
X88420678Y-95822572D01*
X88433853Y-95909679D01*
X88431689Y-96012934D01*
X88427688Y-96050909D01*
X88402520Y-96192100D01*
X88361486Y-96328913D01*
X88323485Y-96423442D01*
X88304110Y-96468602D01*
X88288540Y-96507035D01*
X88278895Y-96533386D01*
X88276848Y-96541074D01*
X88285926Y-96550818D01*
X88314895Y-96567537D01*
X88364083Y-96591388D01*
X88433816Y-96622527D01*
X88524421Y-96661113D01*
X88540211Y-96667710D01*
X88612528Y-96697767D01*
X88677875Y-96724746D01*
X88733394Y-96747484D01*
X88776228Y-96764814D01*
X88803519Y-96775572D01*
X88812358Y-96778679D01*
X88817113Y-96768680D01*
X88822390Y-96742403D01*
X88826069Y-96714131D01*
X88830826Y-96683974D01*
X88840272Y-96636187D01*
X88853480Y-96575008D01*
X88869524Y-96504674D01*
X88887480Y-96429426D01*
X88894503Y-96400865D01*
X88920091Y-96295804D01*
X88940153Y-96208140D01*
X88955331Y-96133552D01*
X88966265Y-96067717D01*
X88973596Y-96006313D01*
X88977965Y-95945018D01*
X88980013Y-95879510D01*
X88980411Y-95821492D01*
X88973748Y-95652046D01*
G37*
X88973748Y-95652046D02*
X88953733Y-95500128D01*
X88920098Y-95364864D01*
X88872575Y-95245381D01*
X88810895Y-95140805D01*
X88747335Y-95063196D01*
X88673201Y-94994355D01*
X88593429Y-94940614D01*
X88501209Y-94897710D01*
X88458139Y-94882236D01*
X88419158Y-94869376D01*
X88383011Y-94858174D01*
X88347866Y-94848500D01*
X88311890Y-94840224D01*
X88273250Y-94833217D01*
X88230115Y-94827348D01*
X88180651Y-94822489D01*
X88123027Y-94818510D01*
X88055409Y-94815280D01*
X87975966Y-94812671D01*
X87882864Y-94810553D01*
X87774273Y-94808796D01*
X87648358Y-94807271D01*
X87503288Y-94805848D01*
X87360522Y-94804595D01*
X87204332Y-94803269D01*
X87069061Y-94802064D01*
X86953054Y-94800854D01*
X86854655Y-94799514D01*
X86772207Y-94797920D01*
X86704054Y-94795945D01*
X86648540Y-94793464D01*
X86604008Y-94790351D01*
X86568802Y-94786482D01*
X86541266Y-94781731D01*
X86519744Y-94775972D01*
X86502578Y-94769081D01*
X86488114Y-94760931D01*
X86474694Y-94751397D01*
X86460662Y-94740354D01*
X86455229Y-94736054D01*
X86432390Y-94720234D01*
X86416837Y-94713198D01*
X86416378Y-94713176D01*
X86414179Y-94724053D01*
X86412153Y-94755038D01*
X86410358Y-94803663D01*
X86408849Y-94867457D01*
X86407684Y-94943951D01*
X86406920Y-95030676D01*
X86406614Y-95125163D01*
X86406611Y-95136070D01*
X86406611Y-95558963D01*
X86502678Y-95562225D01*
X86598744Y-95565487D01*
X86547757Y-95627576D01*
X86480243Y-95724906D01*
X86425551Y-95834807D01*
X86395322Y-95921271D01*
X86380634Y-95990342D01*
X86370641Y-96073695D01*
X86365654Y-96163461D01*
X86365987Y-96251775D01*
X86371949Y-96330769D01*
X86377662Y-96366998D01*
X86415524Y-96507017D01*
X86470368Y-96633442D01*
X86541376Y-96745360D01*
X86627732Y-96841858D01*
X86728621Y-96922020D01*
X86843224Y-96984933D01*
X86969316Y-97029308D01*
X87025899Y-97041642D01*
X87088098Y-97049252D01*
X87162937Y-97052881D01*
X87196833Y-97053375D01*
X87200018Y-97053310D01*
X87200018Y-96293372D01*
X87124967Y-96284079D01*
X87061140Y-96255892D01*
X87005502Y-96207423D01*
X87001089Y-96202366D01*
X86966263Y-96154072D01*
X86943680Y-96102363D01*
X86931760Y-96041631D01*
X86928917Y-95966268D01*
X86929322Y-95948161D01*
X86931975Y-95894342D01*
X86937391Y-95854312D01*
X86947555Y-95819296D01*
X86964450Y-95780517D01*
X86969628Y-95769875D01*
X87005456Y-95709224D01*
X87048088Y-95662405D01*
X87063327Y-95649668D01*
X87119838Y-95604998D01*
X87315714Y-95604998D01*
X87394361Y-95605534D01*
X87452312Y-95607224D01*
X87491425Y-95610192D01*
X87513559Y-95614563D01*
X87520026Y-95618648D01*
X87523189Y-95634573D01*
X87525812Y-95668356D01*
X87527645Y-95715280D01*
X87528443Y-95770627D01*
X87528458Y-95779514D01*
X87523204Y-95900290D01*
X87507037Y-96002960D01*
X87479339Y-96089514D01*
X87439492Y-96161939D01*
X87392542Y-96216869D01*
X87334655Y-96261416D01*
X87271607Y-96286140D01*
X87200018Y-96293372D01*
X87200018Y-97053310D01*
X87290588Y-97051442D01*
X87369488Y-97043098D01*
X87440710Y-97026852D01*
X87511436Y-97001215D01*
X87563807Y-96977219D01*
X87659104Y-96918600D01*
X87747130Y-96840503D01*
X87826283Y-96745305D01*
X87894960Y-96635382D01*
X87951559Y-96513110D01*
X87994479Y-96380865D01*
X88009418Y-96316198D01*
X88031523Y-96180016D01*
X88046106Y-96031571D01*
X88052487Y-95880115D01*
X88050855Y-95753556D01*
X88044076Y-95591670D01*
X88103055Y-95599090D01*
X88202208Y-95618382D01*
X88282928Y-95649516D01*
X88345834Y-95693351D01*
X88391544Y-95750749D01*
X88420678Y-95822572D01*
X88433853Y-95909679D01*
X88431689Y-96012934D01*
X88427688Y-96050909D01*
X88402520Y-96192100D01*
X88361486Y-96328913D01*
X88323485Y-96423442D01*
X88304110Y-96468602D01*
X88288540Y-96507035D01*
X88278895Y-96533386D01*
X88276848Y-96541074D01*
X88285926Y-96550818D01*
X88314895Y-96567537D01*
X88364083Y-96591388D01*
X88433816Y-96622527D01*
X88524421Y-96661113D01*
X88540211Y-96667710D01*
X88612528Y-96697767D01*
X88677875Y-96724746D01*
X88733394Y-96747484D01*
X88776228Y-96764814D01*
X88803519Y-96775572D01*
X88812358Y-96778679D01*
X88817113Y-96768680D01*
X88822390Y-96742403D01*
X88826069Y-96714131D01*
X88830826Y-96683974D01*
X88840272Y-96636187D01*
X88853480Y-96575008D01*
X88869524Y-96504674D01*
X88887480Y-96429426D01*
X88894503Y-96400865D01*
X88920091Y-96295804D01*
X88940153Y-96208140D01*
X88955331Y-96133552D01*
X88966265Y-96067717D01*
X88973596Y-96006313D01*
X88977965Y-95945018D01*
X88980013Y-95879510D01*
X88980411Y-95821492D01*
X88973748Y-95652046D01*
G36*
X88368055Y-92139113D02*
G01*
X88133638Y-92139094D01*
X87920697Y-92139068D01*
X87728132Y-92138995D01*
X87554841Y-92138838D01*
X87399724Y-92138556D01*
X87261680Y-92138111D01*
X87139608Y-92137464D01*
X87032406Y-92136575D01*
X86938974Y-92135407D01*
X86858210Y-92133919D01*
X86789014Y-92132074D01*
X86730285Y-92129831D01*
X86680921Y-92127151D01*
X86639822Y-92123997D01*
X86605887Y-92120328D01*
X86578014Y-92116107D01*
X86555102Y-92111293D01*
X86536051Y-92105847D01*
X86519760Y-92099732D01*
X86505127Y-92092908D01*
X86491051Y-92085335D01*
X86476432Y-92076975D01*
X86467326Y-92071781D01*
X86406611Y-92037516D01*
X86406611Y-92895665D01*
X86502567Y-92895665D01*
X86545930Y-92896396D01*
X86579095Y-92898348D01*
X86596876Y-92901157D01*
X86598522Y-92902399D01*
X86591638Y-92913821D01*
X86573795Y-92936536D01*
X86554421Y-92959235D01*
X86513686Y-93013820D01*
X86472683Y-93083299D01*
X86435177Y-93160350D01*
X86404936Y-93237655D01*
X86395288Y-93268507D01*
X86380722Y-93337004D01*
X86370761Y-93419856D01*
X86365717Y-93509249D01*
X86365904Y-93597372D01*
X86371634Y-93676413D01*
X86377442Y-93714109D01*
X86415503Y-93852206D01*
X86473227Y-93979507D01*
X86550089Y-94095328D01*
X86645561Y-94198983D01*
X86759121Y-94289787D01*
X86869919Y-94356589D01*
X86986675Y-94411456D01*
X87106024Y-94453457D01*
X87232017Y-94483453D01*
X87368706Y-94502309D01*
X87520142Y-94510888D01*
X87597589Y-94511614D01*
X87654366Y-94509520D01*
X87654366Y-93680403D01*
X87561298Y-93680196D01*
X87473608Y-93677283D01*
X87396528Y-93671620D01*
X87335291Y-93663165D01*
X87322950Y-93660582D01*
X87215667Y-93628780D01*
X87128642Y-93587122D01*
X87061658Y-93535257D01*
X87014495Y-93472839D01*
X86986935Y-93399520D01*
X86978759Y-93314951D01*
X86989749Y-93218785D01*
X87005471Y-93155309D01*
X87023661Y-93106166D01*
X87049509Y-93052037D01*
X87073211Y-93011376D01*
X87119579Y-92940820D01*
X88269770Y-92940820D01*
X88313338Y-93008228D01*
X88354260Y-93086753D01*
X88380911Y-93170939D01*
X88392835Y-93256063D01*
X88389578Y-93337404D01*
X88370685Y-93410240D01*
X88355116Y-93442194D01*
X88312119Y-93500119D01*
X88255347Y-93549076D01*
X88182725Y-93590230D01*
X88092179Y-93624746D01*
X87981634Y-93653787D01*
X87975767Y-93655068D01*
X87913512Y-93665239D01*
X87835706Y-93672881D01*
X87747580Y-93677950D01*
X87654366Y-93680403D01*
X87654366Y-94509520D01*
X87810405Y-94503763D01*
X88006241Y-94481818D01*
X88184968Y-94445834D01*
X88346455Y-94395861D01*
X88490574Y-94331952D01*
X88617194Y-94254158D01*
X88726185Y-94162531D01*
X88817417Y-94057123D01*
X88848368Y-94011958D01*
X88904515Y-93911009D01*
X88944126Y-93807719D01*
X88968286Y-93697631D01*
X88978081Y-93576290D01*
X88977035Y-93483784D01*
X88966069Y-93354130D01*
X88944254Y-93241536D01*
X88910586Y-93142745D01*
X88864064Y-93054499D01*
X88829852Y-93005634D01*
X88807938Y-92976267D01*
X88792967Y-92954577D01*
X88788567Y-92946367D01*
X88799396Y-92944752D01*
X88830049Y-92943461D01*
X88877774Y-92942482D01*
X88939821Y-92941803D01*
X89013438Y-92941410D01*
X89095873Y-92941290D01*
X89184375Y-92941432D01*
X89276193Y-92941823D01*
X89368576Y-92942449D01*
X89458772Y-92943300D01*
X89544029Y-92944360D01*
X89621597Y-92945619D01*
X89688724Y-92947064D01*
X89742659Y-92948682D01*
X89780650Y-92950459D01*
X89787633Y-92950951D01*
X89858049Y-92958528D01*
X89913198Y-92970089D01*
X89960319Y-92987828D01*
X90006653Y-93013938D01*
X90016233Y-93020205D01*
X90052922Y-93044637D01*
X90052922Y-92139309D01*
X88368055Y-92139113D01*
G37*
X88368055Y-92139113D02*
X88133638Y-92139094D01*
X87920697Y-92139068D01*
X87728132Y-92138995D01*
X87554841Y-92138838D01*
X87399724Y-92138556D01*
X87261680Y-92138111D01*
X87139608Y-92137464D01*
X87032406Y-92136575D01*
X86938974Y-92135407D01*
X86858210Y-92133919D01*
X86789014Y-92132074D01*
X86730285Y-92129831D01*
X86680921Y-92127151D01*
X86639822Y-92123997D01*
X86605887Y-92120328D01*
X86578014Y-92116107D01*
X86555102Y-92111293D01*
X86536051Y-92105847D01*
X86519760Y-92099732D01*
X86505127Y-92092908D01*
X86491051Y-92085335D01*
X86476432Y-92076975D01*
X86467326Y-92071781D01*
X86406611Y-92037516D01*
X86406611Y-92895665D01*
X86502567Y-92895665D01*
X86545930Y-92896396D01*
X86579095Y-92898348D01*
X86596876Y-92901157D01*
X86598522Y-92902399D01*
X86591638Y-92913821D01*
X86573795Y-92936536D01*
X86554421Y-92959235D01*
X86513686Y-93013820D01*
X86472683Y-93083299D01*
X86435177Y-93160350D01*
X86404936Y-93237655D01*
X86395288Y-93268507D01*
X86380722Y-93337004D01*
X86370761Y-93419856D01*
X86365717Y-93509249D01*
X86365904Y-93597372D01*
X86371634Y-93676413D01*
X86377442Y-93714109D01*
X86415503Y-93852206D01*
X86473227Y-93979507D01*
X86550089Y-94095328D01*
X86645561Y-94198983D01*
X86759121Y-94289787D01*
X86869919Y-94356589D01*
X86986675Y-94411456D01*
X87106024Y-94453457D01*
X87232017Y-94483453D01*
X87368706Y-94502309D01*
X87520142Y-94510888D01*
X87597589Y-94511614D01*
X87654366Y-94509520D01*
X87654366Y-93680403D01*
X87561298Y-93680196D01*
X87473608Y-93677283D01*
X87396528Y-93671620D01*
X87335291Y-93663165D01*
X87322950Y-93660582D01*
X87215667Y-93628780D01*
X87128642Y-93587122D01*
X87061658Y-93535257D01*
X87014495Y-93472839D01*
X86986935Y-93399520D01*
X86978759Y-93314951D01*
X86989749Y-93218785D01*
X87005471Y-93155309D01*
X87023661Y-93106166D01*
X87049509Y-93052037D01*
X87073211Y-93011376D01*
X87119579Y-92940820D01*
X88269770Y-92940820D01*
X88313338Y-93008228D01*
X88354260Y-93086753D01*
X88380911Y-93170939D01*
X88392835Y-93256063D01*
X88389578Y-93337404D01*
X88370685Y-93410240D01*
X88355116Y-93442194D01*
X88312119Y-93500119D01*
X88255347Y-93549076D01*
X88182725Y-93590230D01*
X88092179Y-93624746D01*
X87981634Y-93653787D01*
X87975767Y-93655068D01*
X87913512Y-93665239D01*
X87835706Y-93672881D01*
X87747580Y-93677950D01*
X87654366Y-93680403D01*
X87654366Y-94509520D01*
X87810405Y-94503763D01*
X88006241Y-94481818D01*
X88184968Y-94445834D01*
X88346455Y-94395861D01*
X88490574Y-94331952D01*
X88617194Y-94254158D01*
X88726185Y-94162531D01*
X88817417Y-94057123D01*
X88848368Y-94011958D01*
X88904515Y-93911009D01*
X88944126Y-93807719D01*
X88968286Y-93697631D01*
X88978081Y-93576290D01*
X88977035Y-93483784D01*
X88966069Y-93354130D01*
X88944254Y-93241536D01*
X88910586Y-93142745D01*
X88864064Y-93054499D01*
X88829852Y-93005634D01*
X88807938Y-92976267D01*
X88792967Y-92954577D01*
X88788567Y-92946367D01*
X88799396Y-92944752D01*
X88830049Y-92943461D01*
X88877774Y-92942482D01*
X88939821Y-92941803D01*
X89013438Y-92941410D01*
X89095873Y-92941290D01*
X89184375Y-92941432D01*
X89276193Y-92941823D01*
X89368576Y-92942449D01*
X89458772Y-92943300D01*
X89544029Y-92944360D01*
X89621597Y-92945619D01*
X89688724Y-92947064D01*
X89742659Y-92948682D01*
X89780650Y-92950459D01*
X89787633Y-92950951D01*
X89858049Y-92958528D01*
X89913198Y-92970089D01*
X89960319Y-92987828D01*
X90006653Y-93013938D01*
X90016233Y-93020205D01*
X90052922Y-93044637D01*
X90052922Y-92139309D01*
X88368055Y-92139113D01*
G36*
X90813729Y-100598663D02*
G01*
X90789491Y-100502388D01*
X90746659Y-100415804D01*
X90686881Y-100340993D01*
X90611806Y-100280038D01*
X90523080Y-100235019D01*
X90426770Y-100208756D01*
X90329505Y-100202906D01*
X90235646Y-100217760D01*
X90147789Y-100251460D01*
X90068530Y-100302148D01*
X90000464Y-100367965D01*
X89946188Y-100447054D01*
X89908298Y-100537554D01*
X89895874Y-100588820D01*
X89888353Y-100633318D01*
X89885381Y-100667619D01*
X89887206Y-100700580D01*
X89894075Y-100741054D01*
X89901050Y-100774151D01*
X89932559Y-100867567D01*
X89983683Y-100951239D01*
X90052871Y-101023285D01*
X90138572Y-101081820D01*
X90165811Y-101095768D01*
X90202178Y-101112206D01*
X90232718Y-101122514D01*
X90264850Y-101128080D01*
X90305993Y-101130289D01*
X90352078Y-101130568D01*
X90436435Y-101126481D01*
X90505714Y-101113066D01*
X90566339Y-101087876D01*
X90624733Y-101048466D01*
X90668998Y-101009918D01*
X90734816Y-100938026D01*
X90780247Y-100862933D01*
X90807450Y-100780182D01*
X90817724Y-100702548D01*
X90813729Y-100598663D01*
G37*
X90813729Y-100598663D02*
X90789491Y-100502388D01*
X90746659Y-100415804D01*
X90686881Y-100340993D01*
X90611806Y-100280038D01*
X90523080Y-100235019D01*
X90426770Y-100208756D01*
X90329505Y-100202906D01*
X90235646Y-100217760D01*
X90147789Y-100251460D01*
X90068530Y-100302148D01*
X90000464Y-100367965D01*
X89946188Y-100447054D01*
X89908298Y-100537554D01*
X89895874Y-100588820D01*
X89888353Y-100633318D01*
X89885381Y-100667619D01*
X89887206Y-100700580D01*
X89894075Y-100741054D01*
X89901050Y-100774151D01*
X89932559Y-100867567D01*
X89983683Y-100951239D01*
X90052871Y-101023285D01*
X90138572Y-101081820D01*
X90165811Y-101095768D01*
X90202178Y-101112206D01*
X90232718Y-101122514D01*
X90264850Y-101128080D01*
X90305993Y-101130289D01*
X90352078Y-101130568D01*
X90436435Y-101126481D01*
X90505714Y-101113066D01*
X90566339Y-101087876D01*
X90624733Y-101048466D01*
X90668998Y-101009918D01*
X90734816Y-100938026D01*
X90780247Y-100862933D01*
X90807450Y-100780182D01*
X90817724Y-100702548D01*
X90813729Y-100598663D01*
G36*
X85571234Y-104446991D02*
G01*
X85570833Y-104407509D01*
X85568041Y-104291820D01*
X85559750Y-104194931D01*
X85545068Y-104113539D01*
X85523107Y-104044343D01*
X85492978Y-103984040D01*
X85453790Y-103929328D01*
X85436768Y-103909787D01*
X85396937Y-103877370D01*
X85342887Y-103848140D01*
X85282977Y-103825611D01*
X85225561Y-103813299D01*
X85204344Y-103812020D01*
X85145531Y-103820037D01*
X85081287Y-103841519D01*
X85020479Y-103872619D01*
X84971970Y-103909486D01*
X84966118Y-103915474D01*
X84924979Y-103966199D01*
X84892865Y-104021745D01*
X84868935Y-104085316D01*
X84852347Y-104160114D01*
X84842259Y-104249342D01*
X84837831Y-104356202D01*
X84837455Y-104405148D01*
X84837755Y-104467382D01*
X84839008Y-104511148D01*
X84841746Y-104540551D01*
X84846499Y-104559699D01*
X84853799Y-104572697D01*
X84860033Y-104579665D01*
X84867606Y-104586246D01*
X84877376Y-104591408D01*
X84891960Y-104595323D01*
X84913974Y-104598163D01*
X84946036Y-104600100D01*
X84990764Y-104601304D01*
X85050774Y-104601948D01*
X85128683Y-104602203D01*
X85204344Y-104602242D01*
X85305259Y-104602490D01*
X85385873Y-104602437D01*
X85424478Y-104601477D01*
X85424478Y-104455487D01*
X84984211Y-104455487D01*
X84984296Y-104362354D01*
X84985904Y-104306313D01*
X84990044Y-104247619D01*
X84995836Y-104198648D01*
X84996074Y-104197158D01*
X85015210Y-104118012D01*
X85045013Y-104056622D01*
X85087422Y-104009925D01*
X85133339Y-103980255D01*
X85184274Y-103961973D01*
X85232100Y-103963391D01*
X85283367Y-103984608D01*
X85336401Y-104026109D01*
X85375700Y-104083618D01*
X85401969Y-104158370D01*
X85411265Y-104208328D01*
X85417793Y-104265036D01*
X85422518Y-104325139D01*
X85424483Y-104376259D01*
X85424492Y-104379287D01*
X85424478Y-104455487D01*
X85424478Y-104601477D01*
X85448449Y-104600880D01*
X85495245Y-104596618D01*
X85528522Y-104588450D01*
X85550541Y-104575176D01*
X85563561Y-104555594D01*
X85569843Y-104528503D01*
X85571647Y-104492702D01*
X85571234Y-104446991D01*
G37*
X85571234Y-104446991D02*
X85570833Y-104407509D01*
X85568041Y-104291820D01*
X85559750Y-104194931D01*
X85545068Y-104113539D01*
X85523107Y-104044343D01*
X85492978Y-103984040D01*
X85453790Y-103929328D01*
X85436768Y-103909787D01*
X85396937Y-103877370D01*
X85342887Y-103848140D01*
X85282977Y-103825611D01*
X85225561Y-103813299D01*
X85204344Y-103812020D01*
X85145531Y-103820037D01*
X85081287Y-103841519D01*
X85020479Y-103872619D01*
X84971970Y-103909486D01*
X84966118Y-103915474D01*
X84924979Y-103966199D01*
X84892865Y-104021745D01*
X84868935Y-104085316D01*
X84852347Y-104160114D01*
X84842259Y-104249342D01*
X84837831Y-104356202D01*
X84837455Y-104405148D01*
X84837755Y-104467382D01*
X84839008Y-104511148D01*
X84841746Y-104540551D01*
X84846499Y-104559699D01*
X84853799Y-104572697D01*
X84860033Y-104579665D01*
X84867606Y-104586246D01*
X84877376Y-104591408D01*
X84891960Y-104595323D01*
X84913974Y-104598163D01*
X84946036Y-104600100D01*
X84990764Y-104601304D01*
X85050774Y-104601948D01*
X85128683Y-104602203D01*
X85204344Y-104602242D01*
X85305259Y-104602490D01*
X85385873Y-104602437D01*
X85424478Y-104601477D01*
X85424478Y-104455487D01*
X84984211Y-104455487D01*
X84984296Y-104362354D01*
X84985904Y-104306313D01*
X84990044Y-104247619D01*
X84995836Y-104198648D01*
X84996074Y-104197158D01*
X85015210Y-104118012D01*
X85045013Y-104056622D01*
X85087422Y-104009925D01*
X85133339Y-103980255D01*
X85184274Y-103961973D01*
X85232100Y-103963391D01*
X85283367Y-103984608D01*
X85336401Y-104026109D01*
X85375700Y-104083618D01*
X85401969Y-104158370D01*
X85411265Y-104208328D01*
X85417793Y-104265036D01*
X85422518Y-104325139D01*
X85424483Y-104376259D01*
X85424492Y-104379287D01*
X85424478Y-104455487D01*
X85424478Y-104601477D01*
X85448449Y-104600880D01*
X85495245Y-104596618D01*
X85528522Y-104588450D01*
X85550541Y-104575176D01*
X85563561Y-104555594D01*
X85569843Y-104528503D01*
X85571647Y-104492702D01*
X85571234Y-104446991D01*
G36*
X85571154Y-103038414D02*
G01*
X85570782Y-102969006D01*
X85569915Y-102916617D01*
X85568354Y-102878467D01*
X85565897Y-102851779D01*
X85562343Y-102833773D01*
X85557490Y-102821669D01*
X85551139Y-102812689D01*
X85548216Y-102809438D01*
X85517158Y-102789663D01*
X85481472Y-102786102D01*
X85449790Y-102799111D01*
X85443387Y-102805126D01*
X85437179Y-102814855D01*
X85432390Y-102830521D01*
X85428786Y-102855028D01*
X85426136Y-102891281D01*
X85424205Y-102942185D01*
X85422761Y-103010646D01*
X85421882Y-103073237D01*
X85418833Y-103320954D01*
X85353922Y-103324339D01*
X85289011Y-103327725D01*
X85289011Y-103159578D01*
X85288381Y-103086579D01*
X85285747Y-103033137D01*
X85279991Y-102996248D01*
X85269996Y-102972908D01*
X85254644Y-102960114D01*
X85232818Y-102954862D01*
X85212562Y-102954065D01*
X85187708Y-102956543D01*
X85169394Y-102965897D01*
X85156663Y-102985003D01*
X85148559Y-103016738D01*
X85144124Y-103063979D01*
X85142401Y-103129603D01*
X85142255Y-103165421D01*
X85142255Y-103326598D01*
X84984211Y-103326598D01*
X84984211Y-103078242D01*
X84984098Y-102996833D01*
X84983588Y-102934962D01*
X84982430Y-102889588D01*
X84980370Y-102857674D01*
X84977154Y-102836179D01*
X84972528Y-102822063D01*
X84966241Y-102812288D01*
X84961633Y-102807309D01*
X84934740Y-102790230D01*
X84910833Y-102784731D01*
X84881633Y-102792583D01*
X84860033Y-102807309D01*
X84853234Y-102815166D01*
X84847954Y-102825308D01*
X84844002Y-102840464D01*
X84841187Y-102863361D01*
X84839318Y-102896729D01*
X84838202Y-102943295D01*
X84837649Y-103005787D01*
X84837467Y-103086934D01*
X84837455Y-103129042D01*
X84837535Y-103219218D01*
X84837902Y-103289544D01*
X84838748Y-103342749D01*
X84840264Y-103381560D01*
X84842641Y-103408707D01*
X84846071Y-103426918D01*
X84850746Y-103438920D01*
X84856856Y-103447442D01*
X84860033Y-103450776D01*
X84867630Y-103457375D01*
X84877430Y-103462547D01*
X84892061Y-103466466D01*
X84914148Y-103469304D01*
X84946318Y-103471235D01*
X84991197Y-103472432D01*
X85051411Y-103473068D01*
X85129587Y-103473317D01*
X85202377Y-103473354D01*
X85295593Y-103473320D01*
X85368869Y-103473085D01*
X85424842Y-103472450D01*
X85466149Y-103471214D01*
X85495428Y-103469176D01*
X85515316Y-103466137D01*
X85528450Y-103461897D01*
X85537468Y-103456255D01*
X85545007Y-103449011D01*
X85546688Y-103447226D01*
X85554128Y-103438565D01*
X85559891Y-103428502D01*
X85564188Y-103414245D01*
X85567236Y-103393003D01*
X85569249Y-103361984D01*
X85570440Y-103318397D01*
X85571025Y-103259451D01*
X85571217Y-103182354D01*
X85571233Y-103127621D01*
X85571154Y-103038414D01*
G37*
X85571154Y-103038414D02*
X85570782Y-102969006D01*
X85569915Y-102916617D01*
X85568354Y-102878467D01*
X85565897Y-102851779D01*
X85562343Y-102833773D01*
X85557490Y-102821669D01*
X85551139Y-102812689D01*
X85548216Y-102809438D01*
X85517158Y-102789663D01*
X85481472Y-102786102D01*
X85449790Y-102799111D01*
X85443387Y-102805126D01*
X85437179Y-102814855D01*
X85432390Y-102830521D01*
X85428786Y-102855028D01*
X85426136Y-102891281D01*
X85424205Y-102942185D01*
X85422761Y-103010646D01*
X85421882Y-103073237D01*
X85418833Y-103320954D01*
X85353922Y-103324339D01*
X85289011Y-103327725D01*
X85289011Y-103159578D01*
X85288381Y-103086579D01*
X85285747Y-103033137D01*
X85279991Y-102996248D01*
X85269996Y-102972908D01*
X85254644Y-102960114D01*
X85232818Y-102954862D01*
X85212562Y-102954065D01*
X85187708Y-102956543D01*
X85169394Y-102965897D01*
X85156663Y-102985003D01*
X85148559Y-103016738D01*
X85144124Y-103063979D01*
X85142401Y-103129603D01*
X85142255Y-103165421D01*
X85142255Y-103326598D01*
X84984211Y-103326598D01*
X84984211Y-103078242D01*
X84984098Y-102996833D01*
X84983588Y-102934962D01*
X84982430Y-102889588D01*
X84980370Y-102857674D01*
X84977154Y-102836179D01*
X84972528Y-102822063D01*
X84966241Y-102812288D01*
X84961633Y-102807309D01*
X84934740Y-102790230D01*
X84910833Y-102784731D01*
X84881633Y-102792583D01*
X84860033Y-102807309D01*
X84853234Y-102815166D01*
X84847954Y-102825308D01*
X84844002Y-102840464D01*
X84841187Y-102863361D01*
X84839318Y-102896729D01*
X84838202Y-102943295D01*
X84837649Y-103005787D01*
X84837467Y-103086934D01*
X84837455Y-103129042D01*
X84837535Y-103219218D01*
X84837902Y-103289544D01*
X84838748Y-103342749D01*
X84840264Y-103381560D01*
X84842641Y-103408707D01*
X84846071Y-103426918D01*
X84850746Y-103438920D01*
X84856856Y-103447442D01*
X84860033Y-103450776D01*
X84867630Y-103457375D01*
X84877430Y-103462547D01*
X84892061Y-103466466D01*
X84914148Y-103469304D01*
X84946318Y-103471235D01*
X84991197Y-103472432D01*
X85051411Y-103473068D01*
X85129587Y-103473317D01*
X85202377Y-103473354D01*
X85295593Y-103473320D01*
X85368869Y-103473085D01*
X85424842Y-103472450D01*
X85466149Y-103471214D01*
X85495428Y-103469176D01*
X85515316Y-103466137D01*
X85528450Y-103461897D01*
X85537468Y-103456255D01*
X85545007Y-103449011D01*
X85546688Y-103447226D01*
X85554128Y-103438565D01*
X85559891Y-103428502D01*
X85564188Y-103414245D01*
X85567236Y-103393003D01*
X85569249Y-103361984D01*
X85570440Y-103318397D01*
X85571025Y-103259451D01*
X85571217Y-103182354D01*
X85571233Y-103127621D01*
X85571154Y-103038414D01*
G36*
X85569949Y-102017323D02*
G01*
X85564719Y-101942508D01*
X85556550Y-101872926D01*
X85545750Y-101812622D01*
X85532627Y-101765640D01*
X85517487Y-101736026D01*
X85513031Y-101731480D01*
X85478450Y-101715674D01*
X85442949Y-101720467D01*
X85412575Y-101744984D01*
X85411704Y-101746154D01*
X85402346Y-101760574D01*
X85397424Y-101775628D01*
X85396827Y-101796625D01*
X85400439Y-101828877D01*
X85408146Y-101877693D01*
X85408795Y-101881620D01*
X85417731Y-101954359D01*
X85422139Y-102032837D01*
X85422181Y-102111547D01*
X85418021Y-102184981D01*
X85409821Y-102247631D01*
X85397743Y-102293990D01*
X85396529Y-102297036D01*
X85377685Y-102330668D01*
X85358615Y-102342484D01*
X85339861Y-102333234D01*
X85321963Y-102303667D01*
X85305463Y-102254531D01*
X85290904Y-102186577D01*
X85283894Y-102141265D01*
X85270411Y-102047076D01*
X85258086Y-101972164D01*
X85245851Y-101913337D01*
X85232639Y-101867405D01*
X85217383Y-101831175D01*
X85199015Y-101801458D01*
X85176469Y-101775062D01*
X85154329Y-101753850D01*
X85123481Y-101728685D01*
X85096955Y-101716301D01*
X85064274Y-101712428D01*
X85052305Y-101712287D01*
X85012588Y-101715196D01*
X84983041Y-101726822D01*
X84956814Y-101746943D01*
X84916724Y-101787836D01*
X84886151Y-101833437D01*
X84864097Y-101887133D01*
X84849565Y-101952312D01*
X84841559Y-102032364D01*
X84839082Y-102130677D01*
X84839123Y-102146909D01*
X84840482Y-102212469D01*
X84843570Y-102277486D01*
X84847944Y-102334872D01*
X84853160Y-102377542D01*
X84853759Y-102380992D01*
X84863809Y-102423416D01*
X84876504Y-102459400D01*
X84888110Y-102479770D01*
X84918728Y-102498727D01*
X84954382Y-102500047D01*
X84986156Y-102483705D01*
X84989749Y-102480049D01*
X85000424Y-102464935D01*
X85005024Y-102446035D01*
X85004241Y-102416782D01*
X85000173Y-102381271D01*
X84996538Y-102341590D01*
X84993472Y-102285965D01*
X84991247Y-102221026D01*
X84990136Y-102153405D01*
X84990063Y-102135620D01*
X84990336Y-102067748D01*
X84991654Y-102018074D01*
X84994473Y-101982230D01*
X84999250Y-101955844D01*
X85006443Y-101934546D01*
X85012433Y-101921746D01*
X85029067Y-101893620D01*
X85044132Y-101875688D01*
X85048403Y-101873067D01*
X85066037Y-101878596D01*
X85083108Y-101904880D01*
X85098842Y-101950098D01*
X85112462Y-102012428D01*
X85115496Y-102030791D01*
X85130562Y-102126710D01*
X85143154Y-102203261D01*
X85154189Y-102263400D01*
X85164580Y-102310080D01*
X85175244Y-102346257D01*
X85187095Y-102374885D01*
X85201049Y-102398918D01*
X85218019Y-102421312D01*
X85238922Y-102445022D01*
X85246251Y-102453000D01*
X85273601Y-102480973D01*
X85295271Y-102495780D01*
X85320068Y-102501572D01*
X85351317Y-102502509D01*
X85412595Y-102492195D01*
X85464660Y-102461372D01*
X85507342Y-102410215D01*
X85540475Y-102338903D01*
X85555336Y-102288020D01*
X85564934Y-102232720D01*
X85570364Y-102166473D01*
X85571933Y-102093326D01*
X85569949Y-102017323D01*
G37*
X85569949Y-102017323D02*
X85564719Y-101942508D01*
X85556550Y-101872926D01*
X85545750Y-101812622D01*
X85532627Y-101765640D01*
X85517487Y-101736026D01*
X85513031Y-101731480D01*
X85478450Y-101715674D01*
X85442949Y-101720467D01*
X85412575Y-101744984D01*
X85411704Y-101746154D01*
X85402346Y-101760574D01*
X85397424Y-101775628D01*
X85396827Y-101796625D01*
X85400439Y-101828877D01*
X85408146Y-101877693D01*
X85408795Y-101881620D01*
X85417731Y-101954359D01*
X85422139Y-102032837D01*
X85422181Y-102111547D01*
X85418021Y-102184981D01*
X85409821Y-102247631D01*
X85397743Y-102293990D01*
X85396529Y-102297036D01*
X85377685Y-102330668D01*
X85358615Y-102342484D01*
X85339861Y-102333234D01*
X85321963Y-102303667D01*
X85305463Y-102254531D01*
X85290904Y-102186577D01*
X85283894Y-102141265D01*
X85270411Y-102047076D01*
X85258086Y-101972164D01*
X85245851Y-101913337D01*
X85232639Y-101867405D01*
X85217383Y-101831175D01*
X85199015Y-101801458D01*
X85176469Y-101775062D01*
X85154329Y-101753850D01*
X85123481Y-101728685D01*
X85096955Y-101716301D01*
X85064274Y-101712428D01*
X85052305Y-101712287D01*
X85012588Y-101715196D01*
X84983041Y-101726822D01*
X84956814Y-101746943D01*
X84916724Y-101787836D01*
X84886151Y-101833437D01*
X84864097Y-101887133D01*
X84849565Y-101952312D01*
X84841559Y-102032364D01*
X84839082Y-102130677D01*
X84839123Y-102146909D01*
X84840482Y-102212469D01*
X84843570Y-102277486D01*
X84847944Y-102334872D01*
X84853160Y-102377542D01*
X84853759Y-102380992D01*
X84863809Y-102423416D01*
X84876504Y-102459400D01*
X84888110Y-102479770D01*
X84918728Y-102498727D01*
X84954382Y-102500047D01*
X84986156Y-102483705D01*
X84989749Y-102480049D01*
X85000424Y-102464935D01*
X85005024Y-102446035D01*
X85004241Y-102416782D01*
X85000173Y-102381271D01*
X84996538Y-102341590D01*
X84993472Y-102285965D01*
X84991247Y-102221026D01*
X84990136Y-102153405D01*
X84990063Y-102135620D01*
X84990336Y-102067748D01*
X84991654Y-102018074D01*
X84994473Y-101982230D01*
X84999250Y-101955844D01*
X85006443Y-101934546D01*
X85012433Y-101921746D01*
X85029067Y-101893620D01*
X85044132Y-101875688D01*
X85048403Y-101873067D01*
X85066037Y-101878596D01*
X85083108Y-101904880D01*
X85098842Y-101950098D01*
X85112462Y-102012428D01*
X85115496Y-102030791D01*
X85130562Y-102126710D01*
X85143154Y-102203261D01*
X85154189Y-102263400D01*
X85164580Y-102310080D01*
X85175244Y-102346257D01*
X85187095Y-102374885D01*
X85201049Y-102398918D01*
X85218019Y-102421312D01*
X85238922Y-102445022D01*
X85246251Y-102453000D01*
X85273601Y-102480973D01*
X85295271Y-102495780D01*
X85320068Y-102501572D01*
X85351317Y-102502509D01*
X85412595Y-102492195D01*
X85464660Y-102461372D01*
X85507342Y-102410215D01*
X85540475Y-102338903D01*
X85555336Y-102288020D01*
X85564934Y-102232720D01*
X85570364Y-102166473D01*
X85571933Y-102093326D01*
X85569949Y-102017323D01*
G36*
X85548655Y-101249442D02*
G01*
X85541082Y-101242862D01*
X85531313Y-101237699D01*
X85516729Y-101233784D01*
X85494715Y-101230944D01*
X85462652Y-101229007D01*
X85417925Y-101227803D01*
X85357915Y-101227159D01*
X85280006Y-101226904D01*
X85204344Y-101226865D01*
X85110498Y-101226934D01*
X85036611Y-101227258D01*
X84980068Y-101228006D01*
X84938251Y-101229352D01*
X84908543Y-101231466D01*
X84888327Y-101234520D01*
X84874986Y-101238686D01*
X84865902Y-101244136D01*
X84860033Y-101249442D01*
X84840353Y-101282446D01*
X84842119Y-101317611D01*
X84863583Y-101349075D01*
X84871963Y-101356304D01*
X84881686Y-101361954D01*
X84895439Y-101366219D01*
X84915911Y-101369293D01*
X84945788Y-101371372D01*
X84987759Y-101372650D01*
X85044511Y-101373321D01*
X85118733Y-101373579D01*
X85202763Y-101373620D01*
X85515815Y-101373620D01*
X85543524Y-101345911D01*
X85566837Y-101311757D01*
X85567677Y-101278626D01*
X85548655Y-101249442D01*
G37*
X85548655Y-101249442D02*
X85541082Y-101242862D01*
X85531313Y-101237699D01*
X85516729Y-101233784D01*
X85494715Y-101230944D01*
X85462652Y-101229007D01*
X85417925Y-101227803D01*
X85357915Y-101227159D01*
X85280006Y-101226904D01*
X85204344Y-101226865D01*
X85110498Y-101226934D01*
X85036611Y-101227258D01*
X84980068Y-101228006D01*
X84938251Y-101229352D01*
X84908543Y-101231466D01*
X84888327Y-101234520D01*
X84874986Y-101238686D01*
X84865902Y-101244136D01*
X84860033Y-101249442D01*
X84840353Y-101282446D01*
X84842119Y-101317611D01*
X84863583Y-101349075D01*
X84871963Y-101356304D01*
X84881686Y-101361954D01*
X84895439Y-101366219D01*
X84915911Y-101369293D01*
X84945788Y-101371372D01*
X84987759Y-101372650D01*
X85044511Y-101373321D01*
X85118733Y-101373579D01*
X85202763Y-101373620D01*
X85515815Y-101373620D01*
X85543524Y-101345911D01*
X85566837Y-101311757D01*
X85567677Y-101278626D01*
X85548655Y-101249442D01*
G36*
X85565701Y-100275701D02*
G01*
X85554205Y-100207185D01*
X85536333Y-100154563D01*
X85512801Y-100120328D01*
X85499376Y-100110999D01*
X85468152Y-100101513D01*
X85439905Y-100107897D01*
X85413118Y-100128050D01*
X85400587Y-100159365D01*
X85401604Y-100204803D01*
X85408394Y-100239946D01*
X85421329Y-100318039D01*
X85422558Y-100397846D01*
X85412059Y-100487175D01*
X85407610Y-100511849D01*
X85384192Y-100594911D01*
X85349355Y-100659893D01*
X85303696Y-100706081D01*
X85247806Y-100732765D01*
X85218912Y-100738283D01*
X85160288Y-100734671D01*
X85108421Y-100711349D01*
X85064322Y-100670444D01*
X85029001Y-100614079D01*
X85003471Y-100544380D01*
X84988741Y-100463472D01*
X84985822Y-100373480D01*
X84995725Y-100276530D01*
X84996659Y-100271056D01*
X85003841Y-100232495D01*
X85010779Y-100211114D01*
X85021073Y-100201847D01*
X85038324Y-100199626D01*
X85047459Y-100199576D01*
X85085811Y-100199576D01*
X85085811Y-100268051D01*
X85089953Y-100328520D01*
X85103153Y-100369785D01*
X85126570Y-100393795D01*
X85161364Y-100402497D01*
X85165906Y-100402603D01*
X85195646Y-100397512D01*
X85216881Y-100380053D01*
X85230934Y-100347559D01*
X85239127Y-100297363D01*
X85242139Y-100248743D01*
X85243867Y-100178076D01*
X85241230Y-100126818D01*
X85231500Y-100091859D01*
X85211947Y-100070090D01*
X85179844Y-100058400D01*
X85132462Y-100053680D01*
X85070229Y-100052820D01*
X85000765Y-100054229D01*
X84953514Y-100058468D01*
X84928288Y-100065556D01*
X84926312Y-100066931D01*
X84894792Y-100105848D01*
X84869830Y-100162906D01*
X84851960Y-100234489D01*
X84841714Y-100316978D01*
X84839627Y-100406759D01*
X84846232Y-100500212D01*
X84854344Y-100555176D01*
X84878746Y-100641386D01*
X84918638Y-100721512D01*
X84970413Y-100788597D01*
X84980761Y-100798793D01*
X85024265Y-100831922D01*
X85078182Y-100861814D01*
X85134708Y-100884977D01*
X85186041Y-100897918D01*
X85205756Y-100899478D01*
X85246881Y-100892838D01*
X85298048Y-100875188D01*
X85351906Y-100849917D01*
X85401105Y-100820409D01*
X85433966Y-100794339D01*
X85482848Y-100733385D01*
X85521755Y-100654589D01*
X85549806Y-100560777D01*
X85566121Y-100454770D01*
X85570108Y-100357620D01*
X85565701Y-100275701D01*
G37*
X85565701Y-100275701D02*
X85554205Y-100207185D01*
X85536333Y-100154563D01*
X85512801Y-100120328D01*
X85499376Y-100110999D01*
X85468152Y-100101513D01*
X85439905Y-100107897D01*
X85413118Y-100128050D01*
X85400587Y-100159365D01*
X85401604Y-100204803D01*
X85408394Y-100239946D01*
X85421329Y-100318039D01*
X85422558Y-100397846D01*
X85412059Y-100487175D01*
X85407610Y-100511849D01*
X85384192Y-100594911D01*
X85349355Y-100659893D01*
X85303696Y-100706081D01*
X85247806Y-100732765D01*
X85218912Y-100738283D01*
X85160288Y-100734671D01*
X85108421Y-100711349D01*
X85064322Y-100670444D01*
X85029001Y-100614079D01*
X85003471Y-100544380D01*
X84988741Y-100463472D01*
X84985822Y-100373480D01*
X84995725Y-100276530D01*
X84996659Y-100271056D01*
X85003841Y-100232495D01*
X85010779Y-100211114D01*
X85021073Y-100201847D01*
X85038324Y-100199626D01*
X85047459Y-100199576D01*
X85085811Y-100199576D01*
X85085811Y-100268051D01*
X85089953Y-100328520D01*
X85103153Y-100369785D01*
X85126570Y-100393795D01*
X85161364Y-100402497D01*
X85165906Y-100402603D01*
X85195646Y-100397512D01*
X85216881Y-100380053D01*
X85230934Y-100347559D01*
X85239127Y-100297363D01*
X85242139Y-100248743D01*
X85243867Y-100178076D01*
X85241230Y-100126818D01*
X85231500Y-100091859D01*
X85211947Y-100070090D01*
X85179844Y-100058400D01*
X85132462Y-100053680D01*
X85070229Y-100052820D01*
X85000765Y-100054229D01*
X84953514Y-100058468D01*
X84928288Y-100065556D01*
X84926312Y-100066931D01*
X84894792Y-100105848D01*
X84869830Y-100162906D01*
X84851960Y-100234489D01*
X84841714Y-100316978D01*
X84839627Y-100406759D01*
X84846232Y-100500212D01*
X84854344Y-100555176D01*
X84878746Y-100641386D01*
X84918638Y-100721512D01*
X84970413Y-100788597D01*
X84980761Y-100798793D01*
X85024265Y-100831922D01*
X85078182Y-100861814D01*
X85134708Y-100884977D01*
X85186041Y-100897918D01*
X85205756Y-100899478D01*
X85246881Y-100892838D01*
X85298048Y-100875188D01*
X85351906Y-100849917D01*
X85401105Y-100820409D01*
X85433966Y-100794339D01*
X85482848Y-100733385D01*
X85521755Y-100654589D01*
X85549806Y-100560777D01*
X85566121Y-100454770D01*
X85570108Y-100357620D01*
X85565701Y-100275701D01*
G36*
X85566852Y-99625734D02*
G01*
X85553027Y-99602168D01*
X85530419Y-99571355D01*
X85497962Y-99531698D01*
X85454592Y-99481600D01*
X85399242Y-99419463D01*
X85330849Y-99343692D01*
X85252216Y-99256954D01*
X85088422Y-99076331D01*
X85308271Y-99070687D01*
X85383949Y-99068649D01*
X85440306Y-99066683D01*
X85480594Y-99064354D01*
X85508065Y-99061226D01*
X85525971Y-99056865D01*
X85537563Y-99050836D01*
X85546092Y-99042704D01*
X85549677Y-99038392D01*
X85568630Y-99003861D01*
X85565859Y-98971003D01*
X85549667Y-98944938D01*
X85528101Y-98918287D01*
X85213149Y-98914972D01*
X85120521Y-98914055D01*
X85047756Y-98913588D01*
X84992139Y-98913733D01*
X84950958Y-98914652D01*
X84921497Y-98916507D01*
X84901045Y-98919459D01*
X84886887Y-98923670D01*
X84876309Y-98929302D01*
X84867826Y-98935547D01*
X84852093Y-98949059D01*
X84841664Y-98962503D01*
X84837661Y-98977744D01*
X84841206Y-98996646D01*
X84853421Y-99021075D01*
X84875429Y-99052893D01*
X84908351Y-99093968D01*
X84953309Y-99146162D01*
X85011425Y-99211342D01*
X85078201Y-99285176D01*
X85318842Y-99550465D01*
X85099711Y-99556109D01*
X85024172Y-99558151D01*
X84967946Y-99560122D01*
X84927776Y-99562459D01*
X84900404Y-99565601D01*
X84882572Y-99569984D01*
X84871021Y-99576044D01*
X84862493Y-99584220D01*
X84859018Y-99588404D01*
X84839928Y-99625385D01*
X84842807Y-99660328D01*
X84867200Y-99690756D01*
X84877014Y-99697717D01*
X84888474Y-99703143D01*
X84904332Y-99707223D01*
X84927337Y-99710149D01*
X84960238Y-99712112D01*
X85005784Y-99713303D01*
X85066727Y-99713912D01*
X85145814Y-99714131D01*
X85204344Y-99714154D01*
X85295893Y-99714080D01*
X85367613Y-99713733D01*
X85422255Y-99712921D01*
X85462568Y-99711453D01*
X85491302Y-99709139D01*
X85511207Y-99705787D01*
X85525032Y-99701208D01*
X85535528Y-99695209D01*
X85541489Y-99690756D01*
X85555609Y-99679470D01*
X85566271Y-99668921D01*
X85572408Y-99657513D01*
X85572957Y-99643650D01*
X85566852Y-99625734D01*
G37*
X85566852Y-99625734D02*
X85553027Y-99602168D01*
X85530419Y-99571355D01*
X85497962Y-99531698D01*
X85454592Y-99481600D01*
X85399242Y-99419463D01*
X85330849Y-99343692D01*
X85252216Y-99256954D01*
X85088422Y-99076331D01*
X85308271Y-99070687D01*
X85383949Y-99068649D01*
X85440306Y-99066683D01*
X85480594Y-99064354D01*
X85508065Y-99061226D01*
X85525971Y-99056865D01*
X85537563Y-99050836D01*
X85546092Y-99042704D01*
X85549677Y-99038392D01*
X85568630Y-99003861D01*
X85565859Y-98971003D01*
X85549667Y-98944938D01*
X85528101Y-98918287D01*
X85213149Y-98914972D01*
X85120521Y-98914055D01*
X85047756Y-98913588D01*
X84992139Y-98913733D01*
X84950958Y-98914652D01*
X84921497Y-98916507D01*
X84901045Y-98919459D01*
X84886887Y-98923670D01*
X84876309Y-98929302D01*
X84867826Y-98935547D01*
X84852093Y-98949059D01*
X84841664Y-98962503D01*
X84837661Y-98977744D01*
X84841206Y-98996646D01*
X84853421Y-99021075D01*
X84875429Y-99052893D01*
X84908351Y-99093968D01*
X84953309Y-99146162D01*
X85011425Y-99211342D01*
X85078201Y-99285176D01*
X85318842Y-99550465D01*
X85099711Y-99556109D01*
X85024172Y-99558151D01*
X84967946Y-99560122D01*
X84927776Y-99562459D01*
X84900404Y-99565601D01*
X84882572Y-99569984D01*
X84871021Y-99576044D01*
X84862493Y-99584220D01*
X84859018Y-99588404D01*
X84839928Y-99625385D01*
X84842807Y-99660328D01*
X84867200Y-99690756D01*
X84877014Y-99697717D01*
X84888474Y-99703143D01*
X84904332Y-99707223D01*
X84927337Y-99710149D01*
X84960238Y-99712112D01*
X85005784Y-99713303D01*
X85066727Y-99713912D01*
X85145814Y-99714131D01*
X85204344Y-99714154D01*
X85295893Y-99714080D01*
X85367613Y-99713733D01*
X85422255Y-99712921D01*
X85462568Y-99711453D01*
X85491302Y-99709139D01*
X85511207Y-99705787D01*
X85525032Y-99701208D01*
X85535528Y-99695209D01*
X85541489Y-99690756D01*
X85555609Y-99679470D01*
X85566271Y-99668921D01*
X85572408Y-99657513D01*
X85572957Y-99643650D01*
X85566852Y-99625734D01*
G36*
X85571040Y-98095277D02*
G01*
X85570126Y-98018919D01*
X85567989Y-97960403D01*
X85564125Y-97917365D01*
X85558033Y-97887437D01*
X85549210Y-97868252D01*
X85537154Y-97857444D01*
X85521361Y-97852647D01*
X85501330Y-97851493D01*
X85498965Y-97851487D01*
X85476308Y-97852489D01*
X85458797Y-97857224D01*
X85445726Y-97868287D01*
X85436387Y-97888272D01*
X85430073Y-97919774D01*
X85426078Y-97965388D01*
X85423694Y-98027707D01*
X85422214Y-98109327D01*
X85421886Y-98134343D01*
X85418833Y-98376420D01*
X85353922Y-98379806D01*
X85289011Y-98383191D01*
X85289011Y-98215044D01*
X85288769Y-98149354D01*
X85287744Y-98102448D01*
X85285489Y-98070537D01*
X85281558Y-98049829D01*
X85275502Y-98036536D01*
X85266876Y-98026865D01*
X85266807Y-98026803D01*
X85233188Y-98009264D01*
X85196852Y-98009898D01*
X85165877Y-98028306D01*
X85162693Y-98031949D01*
X85154488Y-98044879D01*
X85148779Y-98062596D01*
X85145138Y-98089050D01*
X85143133Y-98128188D01*
X85142336Y-98183958D01*
X85142255Y-98219626D01*
X85142255Y-98382065D01*
X84984211Y-98382065D01*
X84984211Y-98135459D01*
X84984069Y-98054040D01*
X84983486Y-97992210D01*
X84982232Y-97946983D01*
X84980073Y-97915372D01*
X84976777Y-97894389D01*
X84972111Y-97881047D01*
X84965843Y-97872359D01*
X84963567Y-97870170D01*
X84932020Y-97854006D01*
X84896132Y-97852823D01*
X84865015Y-97866084D01*
X84855029Y-97876577D01*
X84849531Y-97887491D01*
X84845278Y-97904403D01*
X84842120Y-97929987D01*
X84839908Y-97966919D01*
X84838494Y-98017874D01*
X84837728Y-98085526D01*
X84837462Y-98172551D01*
X84837455Y-98192226D01*
X84837513Y-98280709D01*
X84837833Y-98349393D01*
X84838633Y-98401056D01*
X84840133Y-98438475D01*
X84842551Y-98464430D01*
X84846106Y-98481698D01*
X84851018Y-98493058D01*
X84857505Y-98501288D01*
X84862162Y-98505803D01*
X84870411Y-98512599D01*
X84880631Y-98517908D01*
X84895500Y-98521914D01*
X84917698Y-98524799D01*
X84949907Y-98526746D01*
X84994804Y-98527939D01*
X85055072Y-98528559D01*
X85133389Y-98528791D01*
X85199306Y-98528820D01*
X85291672Y-98528749D01*
X85364183Y-98528412D01*
X85419563Y-98527622D01*
X85460535Y-98526194D01*
X85489822Y-98523941D01*
X85510147Y-98520677D01*
X85524234Y-98516216D01*
X85534805Y-98510372D01*
X85541489Y-98505423D01*
X85571233Y-98482026D01*
X85571233Y-98191846D01*
X85571040Y-98095277D01*
G37*
X85571040Y-98095277D02*
X85570126Y-98018919D01*
X85567989Y-97960403D01*
X85564125Y-97917365D01*
X85558033Y-97887437D01*
X85549210Y-97868252D01*
X85537154Y-97857444D01*
X85521361Y-97852647D01*
X85501330Y-97851493D01*
X85498965Y-97851487D01*
X85476308Y-97852489D01*
X85458797Y-97857224D01*
X85445726Y-97868287D01*
X85436387Y-97888272D01*
X85430073Y-97919774D01*
X85426078Y-97965388D01*
X85423694Y-98027707D01*
X85422214Y-98109327D01*
X85421886Y-98134343D01*
X85418833Y-98376420D01*
X85353922Y-98379806D01*
X85289011Y-98383191D01*
X85289011Y-98215044D01*
X85288769Y-98149354D01*
X85287744Y-98102448D01*
X85285489Y-98070537D01*
X85281558Y-98049829D01*
X85275502Y-98036536D01*
X85266876Y-98026865D01*
X85266807Y-98026803D01*
X85233188Y-98009264D01*
X85196852Y-98009898D01*
X85165877Y-98028306D01*
X85162693Y-98031949D01*
X85154488Y-98044879D01*
X85148779Y-98062596D01*
X85145138Y-98089050D01*
X85143133Y-98128188D01*
X85142336Y-98183958D01*
X85142255Y-98219626D01*
X85142255Y-98382065D01*
X84984211Y-98382065D01*
X84984211Y-98135459D01*
X84984069Y-98054040D01*
X84983486Y-97992210D01*
X84982232Y-97946983D01*
X84980073Y-97915372D01*
X84976777Y-97894389D01*
X84972111Y-97881047D01*
X84965843Y-97872359D01*
X84963567Y-97870170D01*
X84932020Y-97854006D01*
X84896132Y-97852823D01*
X84865015Y-97866084D01*
X84855029Y-97876577D01*
X84849531Y-97887491D01*
X84845278Y-97904403D01*
X84842120Y-97929987D01*
X84839908Y-97966919D01*
X84838494Y-98017874D01*
X84837728Y-98085526D01*
X84837462Y-98172551D01*
X84837455Y-98192226D01*
X84837513Y-98280709D01*
X84837833Y-98349393D01*
X84838633Y-98401056D01*
X84840133Y-98438475D01*
X84842551Y-98464430D01*
X84846106Y-98481698D01*
X84851018Y-98493058D01*
X84857505Y-98501288D01*
X84862162Y-98505803D01*
X84870411Y-98512599D01*
X84880631Y-98517908D01*
X84895500Y-98521914D01*
X84917698Y-98524799D01*
X84949907Y-98526746D01*
X84994804Y-98527939D01*
X85055072Y-98528559D01*
X85133389Y-98528791D01*
X85199306Y-98528820D01*
X85291672Y-98528749D01*
X85364183Y-98528412D01*
X85419563Y-98527622D01*
X85460535Y-98526194D01*
X85489822Y-98523941D01*
X85510147Y-98520677D01*
X85524234Y-98516216D01*
X85534805Y-98510372D01*
X85541489Y-98505423D01*
X85571233Y-98482026D01*
X85571233Y-98191846D01*
X85571040Y-98095277D01*
G36*
X85571025Y-97307311D02*
G01*
X85566664Y-97178332D01*
X85553439Y-97068629D01*
X85530559Y-96976394D01*
X85497230Y-96899818D01*
X85452662Y-96837093D01*
X85396064Y-96786408D01*
X85326642Y-96745957D01*
X85324949Y-96745161D01*
X85262817Y-96721019D01*
X85207791Y-96712417D01*
X85152413Y-96719389D01*
X85089227Y-96741966D01*
X85079611Y-96746248D01*
X85023334Y-96775448D01*
X84979849Y-96808264D01*
X84942883Y-96850618D01*
X84906165Y-96908430D01*
X84904248Y-96911789D01*
X84880073Y-96962116D01*
X84862018Y-97018999D01*
X84849461Y-97086093D01*
X84841778Y-97167055D01*
X84838347Y-97265538D01*
X84838049Y-97300334D01*
X84837455Y-97466026D01*
X84867200Y-97489423D01*
X84876981Y-97496363D01*
X84888403Y-97501778D01*
X84904205Y-97505855D01*
X84927125Y-97508783D01*
X84959904Y-97510753D01*
X84984211Y-97511395D01*
X84984211Y-97354776D01*
X84984211Y-97260894D01*
X84985817Y-97205956D01*
X84990045Y-97149560D01*
X84996008Y-97103275D01*
X84996510Y-97100481D01*
X85018564Y-97018272D01*
X85051700Y-96954506D01*
X85097453Y-96907168D01*
X85157361Y-96874238D01*
X85173239Y-96868512D01*
X85197967Y-96862899D01*
X85222398Y-96865329D01*
X85254900Y-96877153D01*
X85270866Y-96884280D01*
X85313294Y-96907620D01*
X85343060Y-96935740D01*
X85363789Y-96966680D01*
X85390763Y-97028654D01*
X85410302Y-97107969D01*
X85421554Y-97200367D01*
X85424030Y-97267287D01*
X85424478Y-97354776D01*
X84984211Y-97354776D01*
X84984211Y-97511395D01*
X85005279Y-97511952D01*
X85065989Y-97512570D01*
X85144774Y-97512795D01*
X85206380Y-97512820D01*
X85515815Y-97512820D01*
X85543524Y-97485111D01*
X85554756Y-97472814D01*
X85562447Y-97459517D01*
X85567260Y-97440948D01*
X85569854Y-97412834D01*
X85570890Y-97370903D01*
X85571030Y-97310883D01*
X85571025Y-97307311D01*
G37*
X85571025Y-97307311D02*
X85566664Y-97178332D01*
X85553439Y-97068629D01*
X85530559Y-96976394D01*
X85497230Y-96899818D01*
X85452662Y-96837093D01*
X85396064Y-96786408D01*
X85326642Y-96745957D01*
X85324949Y-96745161D01*
X85262817Y-96721019D01*
X85207791Y-96712417D01*
X85152413Y-96719389D01*
X85089227Y-96741966D01*
X85079611Y-96746248D01*
X85023334Y-96775448D01*
X84979849Y-96808264D01*
X84942883Y-96850618D01*
X84906165Y-96908430D01*
X84904248Y-96911789D01*
X84880073Y-96962116D01*
X84862018Y-97018999D01*
X84849461Y-97086093D01*
X84841778Y-97167055D01*
X84838347Y-97265538D01*
X84838049Y-97300334D01*
X84837455Y-97466026D01*
X84867200Y-97489423D01*
X84876981Y-97496363D01*
X84888403Y-97501778D01*
X84904205Y-97505855D01*
X84927125Y-97508783D01*
X84959904Y-97510753D01*
X84984211Y-97511395D01*
X84984211Y-97354776D01*
X84984211Y-97260894D01*
X84985817Y-97205956D01*
X84990045Y-97149560D01*
X84996008Y-97103275D01*
X84996510Y-97100481D01*
X85018564Y-97018272D01*
X85051700Y-96954506D01*
X85097453Y-96907168D01*
X85157361Y-96874238D01*
X85173239Y-96868512D01*
X85197967Y-96862899D01*
X85222398Y-96865329D01*
X85254900Y-96877153D01*
X85270866Y-96884280D01*
X85313294Y-96907620D01*
X85343060Y-96935740D01*
X85363789Y-96966680D01*
X85390763Y-97028654D01*
X85410302Y-97107969D01*
X85421554Y-97200367D01*
X85424030Y-97267287D01*
X85424478Y-97354776D01*
X84984211Y-97354776D01*
X84984211Y-97511395D01*
X85005279Y-97511952D01*
X85065989Y-97512570D01*
X85144774Y-97512795D01*
X85206380Y-97512820D01*
X85515815Y-97512820D01*
X85543524Y-97485111D01*
X85554756Y-97472814D01*
X85562447Y-97459517D01*
X85567260Y-97440948D01*
X85569854Y-97412834D01*
X85570890Y-97370903D01*
X85571030Y-97310883D01*
X85571025Y-97307311D01*
G36*
X85569266Y-94580955D02*
G01*
X85562265Y-94561365D01*
X85561923Y-94560610D01*
X85541622Y-94534007D01*
X85520739Y-94519350D01*
X85510948Y-94516482D01*
X85497939Y-94516624D01*
X85479405Y-94520659D01*
X85453043Y-94529474D01*
X85416548Y-94543951D01*
X85367613Y-94564975D01*
X85303935Y-94593432D01*
X85223207Y-94630205D01*
X85179084Y-94650445D01*
X85100315Y-94686995D01*
X85027877Y-94721305D01*
X84964420Y-94752068D01*
X84912592Y-94777972D01*
X84875041Y-94797710D01*
X84854416Y-94809970D01*
X84851567Y-94812396D01*
X84838998Y-94843437D01*
X84840681Y-94878499D01*
X84855968Y-94906620D01*
X84857211Y-94907766D01*
X84874146Y-94918952D01*
X84907130Y-94937716D01*
X84951920Y-94961745D01*
X85004268Y-94988723D01*
X85023558Y-94998419D01*
X85170150Y-95071606D01*
X85010907Y-95151380D01*
X84955885Y-95179853D01*
X84908168Y-95206270D01*
X84871407Y-95228472D01*
X84849256Y-95244301D01*
X84844559Y-95249666D01*
X84838198Y-95291363D01*
X84851567Y-95325771D01*
X84865854Y-95335892D01*
X84897608Y-95353406D01*
X84943703Y-95376885D01*
X85001015Y-95404900D01*
X85066420Y-95436021D01*
X85136793Y-95468821D01*
X85209009Y-95501870D01*
X85279945Y-95533739D01*
X85346475Y-95563001D01*
X85405474Y-95588225D01*
X85453819Y-95607984D01*
X85488385Y-95620848D01*
X85506047Y-95625389D01*
X85506687Y-95625343D01*
X85528912Y-95614294D01*
X85551547Y-95592210D01*
X85552532Y-95590910D01*
X85567875Y-95563767D01*
X85567726Y-95538662D01*
X85564834Y-95529252D01*
X85558582Y-95517786D01*
X85546286Y-95505610D01*
X85525392Y-95491263D01*
X85493351Y-95473284D01*
X85447612Y-95450213D01*
X85385623Y-95420590D01*
X85328402Y-95393875D01*
X85262074Y-95363140D01*
X85202426Y-95335599D01*
X85152575Y-95312682D01*
X85115636Y-95295822D01*
X85094727Y-95286447D01*
X85091455Y-95285080D01*
X85096803Y-95278931D01*
X85119191Y-95264798D01*
X85155354Y-95244563D01*
X85202023Y-95220105D01*
X85221278Y-95210372D01*
X85286296Y-95177403D01*
X85333646Y-95151977D01*
X85366081Y-95132008D01*
X85386354Y-95115410D01*
X85397218Y-95100096D01*
X85401425Y-95083980D01*
X85401900Y-95073477D01*
X85400258Y-95054950D01*
X85393469Y-95038716D01*
X85378734Y-95022585D01*
X85353256Y-95004369D01*
X85314239Y-94981881D01*
X85258886Y-94952931D01*
X85227397Y-94936958D01*
X85177213Y-94911050D01*
X85135596Y-94888453D01*
X85106058Y-94871162D01*
X85092111Y-94861170D01*
X85091530Y-94859811D01*
X85102507Y-94853359D01*
X85131010Y-94838912D01*
X85174056Y-94817917D01*
X85228662Y-94791823D01*
X85291846Y-94762074D01*
X85323229Y-94747440D01*
X85404222Y-94709370D01*
X85466544Y-94678715D01*
X85512229Y-94653883D01*
X85543311Y-94633283D01*
X85561822Y-94615322D01*
X85569796Y-94598410D01*
X85569266Y-94580955D01*
G37*
X85569266Y-94580955D02*
X85562265Y-94561365D01*
X85561923Y-94560610D01*
X85541622Y-94534007D01*
X85520739Y-94519350D01*
X85510948Y-94516482D01*
X85497939Y-94516624D01*
X85479405Y-94520659D01*
X85453043Y-94529474D01*
X85416548Y-94543951D01*
X85367613Y-94564975D01*
X85303935Y-94593432D01*
X85223207Y-94630205D01*
X85179084Y-94650445D01*
X85100315Y-94686995D01*
X85027877Y-94721305D01*
X84964420Y-94752068D01*
X84912592Y-94777972D01*
X84875041Y-94797710D01*
X84854416Y-94809970D01*
X84851567Y-94812396D01*
X84838998Y-94843437D01*
X84840681Y-94878499D01*
X84855968Y-94906620D01*
X84857211Y-94907766D01*
X84874146Y-94918952D01*
X84907130Y-94937716D01*
X84951920Y-94961745D01*
X85004268Y-94988723D01*
X85023558Y-94998419D01*
X85170150Y-95071606D01*
X85010907Y-95151380D01*
X84955885Y-95179853D01*
X84908168Y-95206270D01*
X84871407Y-95228472D01*
X84849256Y-95244301D01*
X84844559Y-95249666D01*
X84838198Y-95291363D01*
X84851567Y-95325771D01*
X84865854Y-95335892D01*
X84897608Y-95353406D01*
X84943703Y-95376885D01*
X85001015Y-95404900D01*
X85066420Y-95436021D01*
X85136793Y-95468821D01*
X85209009Y-95501870D01*
X85279945Y-95533739D01*
X85346475Y-95563001D01*
X85405474Y-95588225D01*
X85453819Y-95607984D01*
X85488385Y-95620848D01*
X85506047Y-95625389D01*
X85506687Y-95625343D01*
X85528912Y-95614294D01*
X85551547Y-95592210D01*
X85552532Y-95590910D01*
X85567875Y-95563767D01*
X85567726Y-95538662D01*
X85564834Y-95529252D01*
X85558582Y-95517786D01*
X85546286Y-95505610D01*
X85525392Y-95491263D01*
X85493351Y-95473284D01*
X85447612Y-95450213D01*
X85385623Y-95420590D01*
X85328402Y-95393875D01*
X85262074Y-95363140D01*
X85202426Y-95335599D01*
X85152575Y-95312682D01*
X85115636Y-95295822D01*
X85094727Y-95286447D01*
X85091455Y-95285080D01*
X85096803Y-95278931D01*
X85119191Y-95264798D01*
X85155354Y-95244563D01*
X85202023Y-95220105D01*
X85221278Y-95210372D01*
X85286296Y-95177403D01*
X85333646Y-95151977D01*
X85366081Y-95132008D01*
X85386354Y-95115410D01*
X85397218Y-95100096D01*
X85401425Y-95083980D01*
X85401900Y-95073477D01*
X85400258Y-95054950D01*
X85393469Y-95038716D01*
X85378734Y-95022585D01*
X85353256Y-95004369D01*
X85314239Y-94981881D01*
X85258886Y-94952931D01*
X85227397Y-94936958D01*
X85177213Y-94911050D01*
X85135596Y-94888453D01*
X85106058Y-94871162D01*
X85092111Y-94861170D01*
X85091530Y-94859811D01*
X85102507Y-94853359D01*
X85131010Y-94838912D01*
X85174056Y-94817917D01*
X85228662Y-94791823D01*
X85291846Y-94762074D01*
X85323229Y-94747440D01*
X85404222Y-94709370D01*
X85466544Y-94678715D01*
X85512229Y-94653883D01*
X85543311Y-94633283D01*
X85561822Y-94615322D01*
X85569796Y-94598410D01*
X85569266Y-94580955D01*
G36*
X85564423Y-94137006D02*
G01*
X85549653Y-94113293D01*
X85528073Y-94086642D01*
X85206527Y-94086642D01*
X85112470Y-94086727D01*
X85038368Y-94087091D01*
X84981596Y-94087896D01*
X84939532Y-94089307D01*
X84909552Y-94091487D01*
X84889033Y-94094599D01*
X84875351Y-94098806D01*
X84865884Y-94104272D01*
X84861218Y-94108148D01*
X84840725Y-94139586D01*
X84841561Y-94175387D01*
X84859036Y-94206747D01*
X84880616Y-94233398D01*
X85528073Y-94233398D01*
X85549653Y-94206747D01*
X85565351Y-94181026D01*
X85571233Y-94160020D01*
X85564423Y-94137006D01*
G37*
X85564423Y-94137006D02*
X85549653Y-94113293D01*
X85528073Y-94086642D01*
X85206527Y-94086642D01*
X85112470Y-94086727D01*
X85038368Y-94087091D01*
X84981596Y-94087896D01*
X84939532Y-94089307D01*
X84909552Y-94091487D01*
X84889033Y-94094599D01*
X84875351Y-94098806D01*
X84865884Y-94104272D01*
X84861218Y-94108148D01*
X84840725Y-94139586D01*
X84841561Y-94175387D01*
X84859036Y-94206747D01*
X84880616Y-94233398D01*
X85528073Y-94233398D01*
X85549653Y-94206747D01*
X85565351Y-94181026D01*
X85571233Y-94160020D01*
X85564423Y-94137006D01*
G36*
X85571137Y-93362555D02*
G01*
X85570758Y-93283848D01*
X85569967Y-93222757D01*
X85568630Y-93176803D01*
X85566617Y-93143506D01*
X85563794Y-93120384D01*
X85560031Y-93104958D01*
X85555195Y-93094749D01*
X85551478Y-93089807D01*
X85518942Y-93064163D01*
X85485162Y-93061061D01*
X85454474Y-93076909D01*
X85442211Y-93087272D01*
X85433850Y-93098424D01*
X85428643Y-93114585D01*
X85425843Y-93139978D01*
X85424704Y-93178822D01*
X85424479Y-93235340D01*
X85424478Y-93246440D01*
X85424478Y-93392376D01*
X85153544Y-93392376D01*
X85068146Y-93392472D01*
X85002436Y-93392909D01*
X84953526Y-93393908D01*
X84918527Y-93395692D01*
X84894551Y-93398483D01*
X84878707Y-93402503D01*
X84868109Y-93407975D01*
X84860033Y-93414954D01*
X84840188Y-93447886D01*
X84841752Y-93482266D01*
X84864394Y-93513444D01*
X84867200Y-93515734D01*
X84877808Y-93523191D01*
X84890219Y-93528873D01*
X84907450Y-93533019D01*
X84932516Y-93535870D01*
X84968433Y-93537666D01*
X85018217Y-93538648D01*
X85084883Y-93539056D01*
X85160711Y-93539131D01*
X85424478Y-93539131D01*
X85424478Y-93678493D01*
X85424882Y-93738298D01*
X85426460Y-93779702D01*
X85429753Y-93806872D01*
X85435308Y-93823974D01*
X85443669Y-93835177D01*
X85445122Y-93836537D01*
X85478361Y-93852895D01*
X85515938Y-93851448D01*
X85548655Y-93832642D01*
X85555002Y-93825370D01*
X85560034Y-93815993D01*
X85563904Y-93802011D01*
X85566763Y-93780924D01*
X85568765Y-93750231D01*
X85570061Y-93707431D01*
X85570802Y-93650025D01*
X85571142Y-93575510D01*
X85571232Y-93481387D01*
X85571233Y-93461360D01*
X85571137Y-93362555D01*
G37*
X85571137Y-93362555D02*
X85570758Y-93283848D01*
X85569967Y-93222757D01*
X85568630Y-93176803D01*
X85566617Y-93143506D01*
X85563794Y-93120384D01*
X85560031Y-93104958D01*
X85555195Y-93094749D01*
X85551478Y-93089807D01*
X85518942Y-93064163D01*
X85485162Y-93061061D01*
X85454474Y-93076909D01*
X85442211Y-93087272D01*
X85433850Y-93098424D01*
X85428643Y-93114585D01*
X85425843Y-93139978D01*
X85424704Y-93178822D01*
X85424479Y-93235340D01*
X85424478Y-93246440D01*
X85424478Y-93392376D01*
X85153544Y-93392376D01*
X85068146Y-93392472D01*
X85002436Y-93392909D01*
X84953526Y-93393908D01*
X84918527Y-93395692D01*
X84894551Y-93398483D01*
X84878707Y-93402503D01*
X84868109Y-93407975D01*
X84860033Y-93414954D01*
X84840188Y-93447886D01*
X84841752Y-93482266D01*
X84864394Y-93513444D01*
X84867200Y-93515734D01*
X84877808Y-93523191D01*
X84890219Y-93528873D01*
X84907450Y-93533019D01*
X84932516Y-93535870D01*
X84968433Y-93537666D01*
X85018217Y-93538648D01*
X85084883Y-93539056D01*
X85160711Y-93539131D01*
X85424478Y-93539131D01*
X85424478Y-93678493D01*
X85424882Y-93738298D01*
X85426460Y-93779702D01*
X85429753Y-93806872D01*
X85435308Y-93823974D01*
X85443669Y-93835177D01*
X85445122Y-93836537D01*
X85478361Y-93852895D01*
X85515938Y-93851448D01*
X85548655Y-93832642D01*
X85555002Y-93825370D01*
X85560034Y-93815993D01*
X85563904Y-93802011D01*
X85566763Y-93780924D01*
X85568765Y-93750231D01*
X85570061Y-93707431D01*
X85570802Y-93650025D01*
X85571142Y-93575510D01*
X85571232Y-93481387D01*
X85571233Y-93461360D01*
X85571137Y-93362555D01*
G36*
X85565767Y-92096797D02*
G01*
X85543524Y-92065418D01*
X85515815Y-92037709D01*
X85206380Y-92037709D01*
X85114501Y-92037782D01*
X85042460Y-92038125D01*
X84987520Y-92038928D01*
X84946940Y-92040379D01*
X84917983Y-92042668D01*
X84897909Y-92045984D01*
X84883979Y-92050515D01*
X84873455Y-92056451D01*
X84867200Y-92061106D01*
X84842627Y-92091837D01*
X84839959Y-92127124D01*
X84855029Y-92159375D01*
X84863926Y-92170032D01*
X84875743Y-92177156D01*
X84894774Y-92181453D01*
X84925308Y-92183629D01*
X84971638Y-92184392D01*
X85007429Y-92184465D01*
X85142255Y-92184465D01*
X85142255Y-92681176D01*
X85019600Y-92681176D01*
X84963513Y-92681689D01*
X84924967Y-92683744D01*
X84898939Y-92688112D01*
X84880403Y-92695564D01*
X84867200Y-92704573D01*
X84842696Y-92735476D01*
X84839794Y-92770424D01*
X84857211Y-92803882D01*
X84866341Y-92813016D01*
X84878445Y-92819468D01*
X84897299Y-92823723D01*
X84926680Y-92826268D01*
X84970363Y-92827591D01*
X85032125Y-92828177D01*
X85046300Y-92828245D01*
X85162669Y-92828729D01*
X85258573Y-92828979D01*
X85336123Y-92828897D01*
X85397431Y-92828389D01*
X85444610Y-92827358D01*
X85479770Y-92825707D01*
X85505024Y-92823341D01*
X85522483Y-92820163D01*
X85534259Y-92816076D01*
X85542465Y-92810986D01*
X85548655Y-92805354D01*
X85568456Y-92773492D01*
X85565767Y-92740263D01*
X85543524Y-92708885D01*
X85529174Y-92696187D01*
X85513322Y-92688094D01*
X85490746Y-92683578D01*
X85456222Y-92681614D01*
X85404524Y-92681176D01*
X85289011Y-92681176D01*
X85289011Y-92184465D01*
X85407544Y-92184465D01*
X85462152Y-92183958D01*
X85499025Y-92181922D01*
X85522993Y-92177585D01*
X85538885Y-92170173D01*
X85548655Y-92161887D01*
X85568456Y-92130026D01*
X85565767Y-92096797D01*
G37*
X85565767Y-92096797D02*
X85543524Y-92065418D01*
X85515815Y-92037709D01*
X85206380Y-92037709D01*
X85114501Y-92037782D01*
X85042460Y-92038125D01*
X84987520Y-92038928D01*
X84946940Y-92040379D01*
X84917983Y-92042668D01*
X84897909Y-92045984D01*
X84883979Y-92050515D01*
X84873455Y-92056451D01*
X84867200Y-92061106D01*
X84842627Y-92091837D01*
X84839959Y-92127124D01*
X84855029Y-92159375D01*
X84863926Y-92170032D01*
X84875743Y-92177156D01*
X84894774Y-92181453D01*
X84925308Y-92183629D01*
X84971638Y-92184392D01*
X85007429Y-92184465D01*
X85142255Y-92184465D01*
X85142255Y-92681176D01*
X85019600Y-92681176D01*
X84963513Y-92681689D01*
X84924967Y-92683744D01*
X84898939Y-92688112D01*
X84880403Y-92695564D01*
X84867200Y-92704573D01*
X84842696Y-92735476D01*
X84839794Y-92770424D01*
X84857211Y-92803882D01*
X84866341Y-92813016D01*
X84878445Y-92819468D01*
X84897299Y-92823723D01*
X84926680Y-92826268D01*
X84970363Y-92827591D01*
X85032125Y-92828177D01*
X85046300Y-92828245D01*
X85162669Y-92828729D01*
X85258573Y-92828979D01*
X85336123Y-92828897D01*
X85397431Y-92828389D01*
X85444610Y-92827358D01*
X85479770Y-92825707D01*
X85505024Y-92823341D01*
X85522483Y-92820163D01*
X85534259Y-92816076D01*
X85542465Y-92810986D01*
X85548655Y-92805354D01*
X85568456Y-92773492D01*
X85565767Y-92740263D01*
X85543524Y-92708885D01*
X85529174Y-92696187D01*
X85513322Y-92688094D01*
X85490746Y-92683578D01*
X85456222Y-92681614D01*
X85404524Y-92681176D01*
X85289011Y-92681176D01*
X85289011Y-92184465D01*
X85407544Y-92184465D01*
X85462152Y-92183958D01*
X85499025Y-92181922D01*
X85522993Y-92177585D01*
X85538885Y-92170173D01*
X85548655Y-92161887D01*
X85568456Y-92130026D01*
X85565767Y-92096797D01*
%TO.C,G\u002A\u002A\u002A*%
G36*
X91235319Y-76384235D02*
G01*
X91186465Y-76353572D01*
X91076642Y-76341248D01*
X90941640Y-76339380D01*
X90771404Y-76335673D01*
X90679416Y-76319389D01*
X90642444Y-76282781D01*
X90636840Y-76237780D01*
X90600919Y-76152878D01*
X90535240Y-76136180D01*
X90450338Y-76100259D01*
X90433640Y-76034580D01*
X90427660Y-75991692D01*
X90398492Y-75962930D01*
X90329302Y-75945489D01*
X90203253Y-75936561D01*
X90003507Y-75933342D01*
X89824040Y-75932980D01*
X89566711Y-75933977D01*
X89394140Y-75938839D01*
X89289490Y-75950370D01*
X89235924Y-75971378D01*
X89216607Y-76004669D01*
X89214440Y-76034580D01*
X89203319Y-76091326D01*
X89154465Y-76121989D01*
X89044642Y-76134313D01*
X88909640Y-76136180D01*
X88739404Y-76139888D01*
X88647416Y-76156172D01*
X88610444Y-76192780D01*
X88604840Y-76237780D01*
X88596356Y-76288402D01*
X88557277Y-76318741D01*
X88467168Y-76333906D01*
X88305591Y-76339007D01*
X88198440Y-76339380D01*
X87995955Y-76341502D01*
X87874600Y-76351271D01*
X87813939Y-76373799D01*
X87793536Y-76414193D01*
X87792040Y-76440980D01*
X87775000Y-76507451D01*
X87706127Y-76536828D01*
X87588840Y-76542580D01*
X87455900Y-76551101D01*
X87397145Y-76585537D01*
X87385640Y-76644180D01*
X87349719Y-76729083D01*
X87284040Y-76745780D01*
X87241152Y-76751761D01*
X87212390Y-76780929D01*
X87194949Y-76850119D01*
X87186021Y-76976168D01*
X87182802Y-77175914D01*
X87182440Y-77355380D01*
X87183437Y-77612710D01*
X87188299Y-77785281D01*
X87199830Y-77889931D01*
X87220838Y-77943497D01*
X87254129Y-77962814D01*
X87284040Y-77964980D01*
X87322031Y-77969726D01*
X87349148Y-77993710D01*
X87367221Y-78051553D01*
X87378077Y-78157874D01*
X87383543Y-78327294D01*
X87385447Y-78574434D01*
X87385640Y-78777780D01*
X87385047Y-79081701D01*
X87382049Y-79298643D01*
X87374819Y-79443228D01*
X87361529Y-79530075D01*
X87340351Y-79573804D01*
X87309459Y-79589035D01*
X87284040Y-79590580D01*
X87241152Y-79596561D01*
X87212390Y-79625729D01*
X87194949Y-79694919D01*
X87186021Y-79820968D01*
X87182802Y-80020714D01*
X87182440Y-80200180D01*
X87183437Y-80457510D01*
X87188299Y-80630081D01*
X87199830Y-80734731D01*
X87220838Y-80788297D01*
X87254129Y-80807614D01*
X87284040Y-80809780D01*
X87368943Y-80845702D01*
X87385640Y-80911380D01*
X87402681Y-80977851D01*
X87471554Y-81007228D01*
X87588840Y-81012980D01*
X87721781Y-81021501D01*
X87780536Y-81055937D01*
X87792040Y-81114580D01*
X87800525Y-81165202D01*
X87839604Y-81195541D01*
X87929713Y-81210706D01*
X88091290Y-81215807D01*
X88198440Y-81216180D01*
X88400926Y-81218302D01*
X88522281Y-81228071D01*
X88582942Y-81250599D01*
X88603345Y-81290993D01*
X88604840Y-81317780D01*
X88615962Y-81374526D01*
X88664816Y-81405189D01*
X88774639Y-81417513D01*
X88909640Y-81419380D01*
X88909640Y-81216180D01*
X88739404Y-81212473D01*
X88647416Y-81196189D01*
X88610444Y-81159581D01*
X88604840Y-81114580D01*
X88568919Y-81029678D01*
X88503240Y-81012980D01*
X88418338Y-80977059D01*
X88401640Y-80911380D01*
X88365719Y-80826478D01*
X88300040Y-80809780D01*
X88215138Y-80773859D01*
X88198440Y-80708180D01*
X88162519Y-80623278D01*
X88096840Y-80606580D01*
X88011938Y-80570659D01*
X87995240Y-80504980D01*
X87959319Y-80420078D01*
X87893640Y-80403380D01*
X87827170Y-80386340D01*
X87797793Y-80317467D01*
X87792040Y-80200180D01*
X87783520Y-80067240D01*
X87749084Y-80008485D01*
X87690440Y-79996980D01*
X87659677Y-79993692D01*
X87635845Y-79976167D01*
X87618061Y-79932912D01*
X87605440Y-79852437D01*
X87597098Y-79723250D01*
X87592152Y-79533859D01*
X87589718Y-79272773D01*
X87588911Y-78928501D01*
X87588840Y-78676180D01*
X87589093Y-78276257D01*
X87590442Y-77966441D01*
X87593769Y-77735243D01*
X87599959Y-77571169D01*
X87609897Y-77462729D01*
X87624465Y-77398432D01*
X87644549Y-77366785D01*
X87671031Y-77356297D01*
X87690440Y-77355380D01*
X87775343Y-77319459D01*
X87792040Y-77253780D01*
X87827962Y-77168878D01*
X87893640Y-77152180D01*
X87978543Y-77116259D01*
X87995240Y-77050580D01*
X88012281Y-76984110D01*
X88081154Y-76954733D01*
X88198440Y-76948980D01*
X88401640Y-76948980D01*
X88401640Y-76745780D01*
X88410161Y-76612840D01*
X88444597Y-76554085D01*
X88503240Y-76542580D01*
X88588143Y-76506659D01*
X88604840Y-76440980D01*
X88615962Y-76384235D01*
X88664816Y-76353572D01*
X88774639Y-76341248D01*
X88909640Y-76339380D01*
X89214440Y-76339380D01*
X89214440Y-76847380D01*
X89215835Y-77078590D01*
X89222470Y-77226602D01*
X89238024Y-77309804D01*
X89266174Y-77346587D01*
X89310599Y-77355339D01*
X89316040Y-77355380D01*
X89400943Y-77391302D01*
X89417640Y-77456980D01*
X89453562Y-77541883D01*
X89519240Y-77558580D01*
X89604143Y-77594502D01*
X89620840Y-77660180D01*
X89584919Y-77745083D01*
X89519240Y-77761780D01*
X89483121Y-77766111D01*
X89456758Y-77788300D01*
X89438618Y-77842139D01*
X89427169Y-77941423D01*
X89420878Y-78099944D01*
X89418213Y-78331497D01*
X89417642Y-78649874D01*
X89417640Y-78676180D01*
X89418122Y-79001257D01*
X89420587Y-79238527D01*
X89426569Y-79401786D01*
X89437601Y-79504826D01*
X89455214Y-79561441D01*
X89480942Y-79585424D01*
X89516318Y-79590569D01*
X89519240Y-79590580D01*
X89604143Y-79626502D01*
X89620840Y-79692180D01*
X89656762Y-79777083D01*
X89722440Y-79793780D01*
X89807343Y-79829702D01*
X89824040Y-79895380D01*
X89812919Y-79952126D01*
X89764065Y-79982789D01*
X89654242Y-79995113D01*
X89519240Y-79996980D01*
X89349004Y-80000688D01*
X89257016Y-80016972D01*
X89220044Y-80053580D01*
X89214440Y-80098580D01*
X89178519Y-80183483D01*
X89112840Y-80200180D01*
X89062219Y-80208665D01*
X89031880Y-80247744D01*
X89016715Y-80337853D01*
X89011614Y-80499430D01*
X89011240Y-80606580D01*
X89013362Y-80809066D01*
X89023131Y-80930421D01*
X89045659Y-80991082D01*
X89086053Y-81011485D01*
X89112840Y-81012980D01*
X89197743Y-81048902D01*
X89214440Y-81114580D01*
X89203319Y-81171326D01*
X89154465Y-81201989D01*
X89044642Y-81214313D01*
X88909640Y-81216180D01*
X88909640Y-81419380D01*
X89079877Y-81423088D01*
X89171865Y-81439372D01*
X89208837Y-81475980D01*
X89214440Y-81520980D01*
X89220421Y-81563869D01*
X89249589Y-81592631D01*
X89318779Y-81610072D01*
X89444828Y-81619000D01*
X89644574Y-81622219D01*
X89824040Y-81622580D01*
X90081370Y-81621584D01*
X90253941Y-81616722D01*
X90358591Y-81605191D01*
X90412157Y-81584183D01*
X90431474Y-81550892D01*
X90433640Y-81520980D01*
X90469562Y-81436078D01*
X90535240Y-81419380D01*
X90620143Y-81383459D01*
X90636840Y-81317780D01*
X90647962Y-81261035D01*
X90696816Y-81230372D01*
X90806639Y-81218048D01*
X90941640Y-81216180D01*
X91111877Y-81212473D01*
X91203865Y-81196189D01*
X91240837Y-81159581D01*
X91246440Y-81114580D01*
X91235319Y-81057835D01*
X91186465Y-81027172D01*
X91076642Y-81014848D01*
X90941640Y-81012980D01*
X90636840Y-81012980D01*
X90636840Y-80809780D01*
X90628320Y-80676840D01*
X90593884Y-80618085D01*
X90535240Y-80606580D01*
X90450338Y-80570659D01*
X90433640Y-80504980D01*
X90397719Y-80420078D01*
X90332040Y-80403380D01*
X90247138Y-80367459D01*
X90230440Y-80301780D01*
X90194519Y-80216878D01*
X90128840Y-80200180D01*
X90062370Y-80183140D01*
X90032993Y-80114267D01*
X90027240Y-79996980D01*
X90018720Y-79864040D01*
X89984284Y-79805285D01*
X89925640Y-79793780D01*
X89840738Y-79757859D01*
X89824040Y-79692180D01*
X89788119Y-79607278D01*
X89722440Y-79590580D01*
X89684450Y-79585835D01*
X89657333Y-79561851D01*
X89639260Y-79504008D01*
X89628404Y-79397687D01*
X89622938Y-79228267D01*
X89621034Y-78981127D01*
X89620840Y-78777780D01*
X89621434Y-78473860D01*
X89624432Y-78256918D01*
X89631662Y-78112333D01*
X89644952Y-78025486D01*
X89666130Y-77981757D01*
X89697022Y-77966526D01*
X89722440Y-77964980D01*
X89779186Y-77953859D01*
X89809849Y-77905005D01*
X89822173Y-77795182D01*
X89824040Y-77660180D01*
X89827748Y-77489944D01*
X89844032Y-77397956D01*
X89880640Y-77360984D01*
X89925640Y-77355380D01*
X90010543Y-77319459D01*
X90027240Y-77253780D01*
X90044281Y-77187310D01*
X90113154Y-77157933D01*
X90230440Y-77152180D01*
X90363381Y-77143660D01*
X90422136Y-77109224D01*
X90433640Y-77050580D01*
X90469562Y-76965678D01*
X90535240Y-76948980D01*
X90601711Y-76931940D01*
X90631088Y-76863067D01*
X90636840Y-76745780D01*
X90636840Y-76542580D01*
X90941640Y-76542580D01*
X91111877Y-76538873D01*
X91203865Y-76522589D01*
X91240837Y-76485981D01*
X91246440Y-76440980D01*
X91235319Y-76384235D01*
G37*
X91235319Y-76384235D02*
X91186465Y-76353572D01*
X91076642Y-76341248D01*
X90941640Y-76339380D01*
X90771404Y-76335673D01*
X90679416Y-76319389D01*
X90642444Y-76282781D01*
X90636840Y-76237780D01*
X90600919Y-76152878D01*
X90535240Y-76136180D01*
X90450338Y-76100259D01*
X90433640Y-76034580D01*
X90427660Y-75991692D01*
X90398492Y-75962930D01*
X90329302Y-75945489D01*
X90203253Y-75936561D01*
X90003507Y-75933342D01*
X89824040Y-75932980D01*
X89566711Y-75933977D01*
X89394140Y-75938839D01*
X89289490Y-75950370D01*
X89235924Y-75971378D01*
X89216607Y-76004669D01*
X89214440Y-76034580D01*
X89203319Y-76091326D01*
X89154465Y-76121989D01*
X89044642Y-76134313D01*
X88909640Y-76136180D01*
X88739404Y-76139888D01*
X88647416Y-76156172D01*
X88610444Y-76192780D01*
X88604840Y-76237780D01*
X88596356Y-76288402D01*
X88557277Y-76318741D01*
X88467168Y-76333906D01*
X88305591Y-76339007D01*
X88198440Y-76339380D01*
X87995955Y-76341502D01*
X87874600Y-76351271D01*
X87813939Y-76373799D01*
X87793536Y-76414193D01*
X87792040Y-76440980D01*
X87775000Y-76507451D01*
X87706127Y-76536828D01*
X87588840Y-76542580D01*
X87455900Y-76551101D01*
X87397145Y-76585537D01*
X87385640Y-76644180D01*
X87349719Y-76729083D01*
X87284040Y-76745780D01*
X87241152Y-76751761D01*
X87212390Y-76780929D01*
X87194949Y-76850119D01*
X87186021Y-76976168D01*
X87182802Y-77175914D01*
X87182440Y-77355380D01*
X87183437Y-77612710D01*
X87188299Y-77785281D01*
X87199830Y-77889931D01*
X87220838Y-77943497D01*
X87254129Y-77962814D01*
X87284040Y-77964980D01*
X87322031Y-77969726D01*
X87349148Y-77993710D01*
X87367221Y-78051553D01*
X87378077Y-78157874D01*
X87383543Y-78327294D01*
X87385447Y-78574434D01*
X87385640Y-78777780D01*
X87385047Y-79081701D01*
X87382049Y-79298643D01*
X87374819Y-79443228D01*
X87361529Y-79530075D01*
X87340351Y-79573804D01*
X87309459Y-79589035D01*
X87284040Y-79590580D01*
X87241152Y-79596561D01*
X87212390Y-79625729D01*
X87194949Y-79694919D01*
X87186021Y-79820968D01*
X87182802Y-80020714D01*
X87182440Y-80200180D01*
X87183437Y-80457510D01*
X87188299Y-80630081D01*
X87199830Y-80734731D01*
X87220838Y-80788297D01*
X87254129Y-80807614D01*
X87284040Y-80809780D01*
X87368943Y-80845702D01*
X87385640Y-80911380D01*
X87402681Y-80977851D01*
X87471554Y-81007228D01*
X87588840Y-81012980D01*
X87721781Y-81021501D01*
X87780536Y-81055937D01*
X87792040Y-81114580D01*
X87800525Y-81165202D01*
X87839604Y-81195541D01*
X87929713Y-81210706D01*
X88091290Y-81215807D01*
X88198440Y-81216180D01*
X88400926Y-81218302D01*
X88522281Y-81228071D01*
X88582942Y-81250599D01*
X88603345Y-81290993D01*
X88604840Y-81317780D01*
X88615962Y-81374526D01*
X88664816Y-81405189D01*
X88774639Y-81417513D01*
X88909640Y-81419380D01*
X88909640Y-81216180D01*
X88739404Y-81212473D01*
X88647416Y-81196189D01*
X88610444Y-81159581D01*
X88604840Y-81114580D01*
X88568919Y-81029678D01*
X88503240Y-81012980D01*
X88418338Y-80977059D01*
X88401640Y-80911380D01*
X88365719Y-80826478D01*
X88300040Y-80809780D01*
X88215138Y-80773859D01*
X88198440Y-80708180D01*
X88162519Y-80623278D01*
X88096840Y-80606580D01*
X88011938Y-80570659D01*
X87995240Y-80504980D01*
X87959319Y-80420078D01*
X87893640Y-80403380D01*
X87827170Y-80386340D01*
X87797793Y-80317467D01*
X87792040Y-80200180D01*
X87783520Y-80067240D01*
X87749084Y-80008485D01*
X87690440Y-79996980D01*
X87659677Y-79993692D01*
X87635845Y-79976167D01*
X87618061Y-79932912D01*
X87605440Y-79852437D01*
X87597098Y-79723250D01*
X87592152Y-79533859D01*
X87589718Y-79272773D01*
X87588911Y-78928501D01*
X87588840Y-78676180D01*
X87589093Y-78276257D01*
X87590442Y-77966441D01*
X87593769Y-77735243D01*
X87599959Y-77571169D01*
X87609897Y-77462729D01*
X87624465Y-77398432D01*
X87644549Y-77366785D01*
X87671031Y-77356297D01*
X87690440Y-77355380D01*
X87775343Y-77319459D01*
X87792040Y-77253780D01*
X87827962Y-77168878D01*
X87893640Y-77152180D01*
X87978543Y-77116259D01*
X87995240Y-77050580D01*
X88012281Y-76984110D01*
X88081154Y-76954733D01*
X88198440Y-76948980D01*
X88401640Y-76948980D01*
X88401640Y-76745780D01*
X88410161Y-76612840D01*
X88444597Y-76554085D01*
X88503240Y-76542580D01*
X88588143Y-76506659D01*
X88604840Y-76440980D01*
X88615962Y-76384235D01*
X88664816Y-76353572D01*
X88774639Y-76341248D01*
X88909640Y-76339380D01*
X89214440Y-76339380D01*
X89214440Y-76847380D01*
X89215835Y-77078590D01*
X89222470Y-77226602D01*
X89238024Y-77309804D01*
X89266174Y-77346587D01*
X89310599Y-77355339D01*
X89316040Y-77355380D01*
X89400943Y-77391302D01*
X89417640Y-77456980D01*
X89453562Y-77541883D01*
X89519240Y-77558580D01*
X89604143Y-77594502D01*
X89620840Y-77660180D01*
X89584919Y-77745083D01*
X89519240Y-77761780D01*
X89483121Y-77766111D01*
X89456758Y-77788300D01*
X89438618Y-77842139D01*
X89427169Y-77941423D01*
X89420878Y-78099944D01*
X89418213Y-78331497D01*
X89417642Y-78649874D01*
X89417640Y-78676180D01*
X89418122Y-79001257D01*
X89420587Y-79238527D01*
X89426569Y-79401786D01*
X89437601Y-79504826D01*
X89455214Y-79561441D01*
X89480942Y-79585424D01*
X89516318Y-79590569D01*
X89519240Y-79590580D01*
X89604143Y-79626502D01*
X89620840Y-79692180D01*
X89656762Y-79777083D01*
X89722440Y-79793780D01*
X89807343Y-79829702D01*
X89824040Y-79895380D01*
X89812919Y-79952126D01*
X89764065Y-79982789D01*
X89654242Y-79995113D01*
X89519240Y-79996980D01*
X89349004Y-80000688D01*
X89257016Y-80016972D01*
X89220044Y-80053580D01*
X89214440Y-80098580D01*
X89178519Y-80183483D01*
X89112840Y-80200180D01*
X89062219Y-80208665D01*
X89031880Y-80247744D01*
X89016715Y-80337853D01*
X89011614Y-80499430D01*
X89011240Y-80606580D01*
X89013362Y-80809066D01*
X89023131Y-80930421D01*
X89045659Y-80991082D01*
X89086053Y-81011485D01*
X89112840Y-81012980D01*
X89197743Y-81048902D01*
X89214440Y-81114580D01*
X89203319Y-81171326D01*
X89154465Y-81201989D01*
X89044642Y-81214313D01*
X88909640Y-81216180D01*
X88909640Y-81419380D01*
X89079877Y-81423088D01*
X89171865Y-81439372D01*
X89208837Y-81475980D01*
X89214440Y-81520980D01*
X89220421Y-81563869D01*
X89249589Y-81592631D01*
X89318779Y-81610072D01*
X89444828Y-81619000D01*
X89644574Y-81622219D01*
X89824040Y-81622580D01*
X90081370Y-81621584D01*
X90253941Y-81616722D01*
X90358591Y-81605191D01*
X90412157Y-81584183D01*
X90431474Y-81550892D01*
X90433640Y-81520980D01*
X90469562Y-81436078D01*
X90535240Y-81419380D01*
X90620143Y-81383459D01*
X90636840Y-81317780D01*
X90647962Y-81261035D01*
X90696816Y-81230372D01*
X90806639Y-81218048D01*
X90941640Y-81216180D01*
X91111877Y-81212473D01*
X91203865Y-81196189D01*
X91240837Y-81159581D01*
X91246440Y-81114580D01*
X91235319Y-81057835D01*
X91186465Y-81027172D01*
X91076642Y-81014848D01*
X90941640Y-81012980D01*
X90636840Y-81012980D01*
X90636840Y-80809780D01*
X90628320Y-80676840D01*
X90593884Y-80618085D01*
X90535240Y-80606580D01*
X90450338Y-80570659D01*
X90433640Y-80504980D01*
X90397719Y-80420078D01*
X90332040Y-80403380D01*
X90247138Y-80367459D01*
X90230440Y-80301780D01*
X90194519Y-80216878D01*
X90128840Y-80200180D01*
X90062370Y-80183140D01*
X90032993Y-80114267D01*
X90027240Y-79996980D01*
X90018720Y-79864040D01*
X89984284Y-79805285D01*
X89925640Y-79793780D01*
X89840738Y-79757859D01*
X89824040Y-79692180D01*
X89788119Y-79607278D01*
X89722440Y-79590580D01*
X89684450Y-79585835D01*
X89657333Y-79561851D01*
X89639260Y-79504008D01*
X89628404Y-79397687D01*
X89622938Y-79228267D01*
X89621034Y-78981127D01*
X89620840Y-78777780D01*
X89621434Y-78473860D01*
X89624432Y-78256918D01*
X89631662Y-78112333D01*
X89644952Y-78025486D01*
X89666130Y-77981757D01*
X89697022Y-77966526D01*
X89722440Y-77964980D01*
X89779186Y-77953859D01*
X89809849Y-77905005D01*
X89822173Y-77795182D01*
X89824040Y-77660180D01*
X89827748Y-77489944D01*
X89844032Y-77397956D01*
X89880640Y-77360984D01*
X89925640Y-77355380D01*
X90010543Y-77319459D01*
X90027240Y-77253780D01*
X90044281Y-77187310D01*
X90113154Y-77157933D01*
X90230440Y-77152180D01*
X90363381Y-77143660D01*
X90422136Y-77109224D01*
X90433640Y-77050580D01*
X90469562Y-76965678D01*
X90535240Y-76948980D01*
X90601711Y-76931940D01*
X90631088Y-76863067D01*
X90636840Y-76745780D01*
X90636840Y-76542580D01*
X90941640Y-76542580D01*
X91111877Y-76538873D01*
X91203865Y-76522589D01*
X91240837Y-76485981D01*
X91246440Y-76440980D01*
X91235319Y-76384235D01*
G36*
X90838646Y-78444971D02*
G01*
X90832011Y-78296959D01*
X90816457Y-78213757D01*
X90788307Y-78176974D01*
X90743882Y-78168222D01*
X90738440Y-78168180D01*
X90653538Y-78204102D01*
X90636840Y-78269780D01*
X90600919Y-78354683D01*
X90535240Y-78371380D01*
X90478495Y-78382502D01*
X90447832Y-78431356D01*
X90435508Y-78541179D01*
X90433640Y-78676180D01*
X90437348Y-78846417D01*
X90453632Y-78938405D01*
X90490240Y-78975377D01*
X90535240Y-78980980D01*
X90620143Y-79016902D01*
X90636840Y-79082580D01*
X90672762Y-79167483D01*
X90738440Y-79184180D01*
X90784682Y-79177208D01*
X90814285Y-79144032D01*
X90830925Y-79066263D01*
X90838282Y-78925511D01*
X90840032Y-78703387D01*
X90840040Y-78676180D01*
X90838646Y-78444971D01*
G37*
X90838646Y-78444971D02*
X90832011Y-78296959D01*
X90816457Y-78213757D01*
X90788307Y-78176974D01*
X90743882Y-78168222D01*
X90738440Y-78168180D01*
X90653538Y-78204102D01*
X90636840Y-78269780D01*
X90600919Y-78354683D01*
X90535240Y-78371380D01*
X90478495Y-78382502D01*
X90447832Y-78431356D01*
X90435508Y-78541179D01*
X90433640Y-78676180D01*
X90437348Y-78846417D01*
X90453632Y-78938405D01*
X90490240Y-78975377D01*
X90535240Y-78980980D01*
X90620143Y-79016902D01*
X90636840Y-79082580D01*
X90672762Y-79167483D01*
X90738440Y-79184180D01*
X90784682Y-79177208D01*
X90814285Y-79144032D01*
X90830925Y-79066263D01*
X90838282Y-78925511D01*
X90840032Y-78703387D01*
X90840040Y-78676180D01*
X90838646Y-78444971D01*
G36*
X91856040Y-78980980D02*
G01*
X91653555Y-78983102D01*
X91532200Y-78992871D01*
X91471539Y-79015399D01*
X91451136Y-79055793D01*
X91449640Y-79082580D01*
X91432600Y-79149051D01*
X91363727Y-79178428D01*
X91246440Y-79184180D01*
X91113500Y-79192701D01*
X91054745Y-79227137D01*
X91043240Y-79285780D01*
X91007319Y-79370683D01*
X90941640Y-79387380D01*
X90856738Y-79423302D01*
X90840040Y-79488980D01*
X90804119Y-79573883D01*
X90738440Y-79590580D01*
X90671970Y-79607621D01*
X90642593Y-79676494D01*
X90636840Y-79793780D01*
X90645361Y-79926721D01*
X90679797Y-79985476D01*
X90738440Y-79996980D01*
X90823343Y-80032902D01*
X90840040Y-80098580D01*
X90875962Y-80183483D01*
X90941640Y-80200180D01*
X91026543Y-80236102D01*
X91043240Y-80301780D01*
X91060281Y-80368251D01*
X91129154Y-80397628D01*
X91246440Y-80403380D01*
X91379381Y-80394860D01*
X91438136Y-80360424D01*
X91449640Y-80301780D01*
X91466681Y-80235310D01*
X91535554Y-80205933D01*
X91652840Y-80200180D01*
X91754440Y-80200180D01*
X91754440Y-79590580D01*
X91669538Y-79554659D01*
X91652840Y-79488980D01*
X91688762Y-79404078D01*
X91754440Y-79387380D01*
X91839343Y-79423302D01*
X91856040Y-79488980D01*
X91820119Y-79573883D01*
X91754440Y-79590580D01*
X91754440Y-80200180D01*
X91856040Y-80200180D01*
X91856040Y-79996980D01*
X91864561Y-79864040D01*
X91898997Y-79805285D01*
X91957640Y-79793780D01*
X92042543Y-79757859D01*
X92059240Y-79692180D01*
X92095162Y-79607278D01*
X92160840Y-79590580D01*
X92217586Y-79579459D01*
X92248249Y-79530605D01*
X92260573Y-79420782D01*
X92262440Y-79285780D01*
X92262440Y-78980980D01*
X91856040Y-78980980D01*
G37*
X91856040Y-78980980D02*
X91653555Y-78983102D01*
X91532200Y-78992871D01*
X91471539Y-79015399D01*
X91451136Y-79055793D01*
X91449640Y-79082580D01*
X91432600Y-79149051D01*
X91363727Y-79178428D01*
X91246440Y-79184180D01*
X91113500Y-79192701D01*
X91054745Y-79227137D01*
X91043240Y-79285780D01*
X91007319Y-79370683D01*
X90941640Y-79387380D01*
X90856738Y-79423302D01*
X90840040Y-79488980D01*
X90804119Y-79573883D01*
X90738440Y-79590580D01*
X90671970Y-79607621D01*
X90642593Y-79676494D01*
X90636840Y-79793780D01*
X90645361Y-79926721D01*
X90679797Y-79985476D01*
X90738440Y-79996980D01*
X90823343Y-80032902D01*
X90840040Y-80098580D01*
X90875962Y-80183483D01*
X90941640Y-80200180D01*
X91026543Y-80236102D01*
X91043240Y-80301780D01*
X91060281Y-80368251D01*
X91129154Y-80397628D01*
X91246440Y-80403380D01*
X91379381Y-80394860D01*
X91438136Y-80360424D01*
X91449640Y-80301780D01*
X91466681Y-80235310D01*
X91535554Y-80205933D01*
X91652840Y-80200180D01*
X91754440Y-80200180D01*
X91754440Y-79590580D01*
X91669538Y-79554659D01*
X91652840Y-79488980D01*
X91688762Y-79404078D01*
X91754440Y-79387380D01*
X91839343Y-79423302D01*
X91856040Y-79488980D01*
X91820119Y-79573883D01*
X91754440Y-79590580D01*
X91754440Y-80200180D01*
X91856040Y-80200180D01*
X91856040Y-79996980D01*
X91864561Y-79864040D01*
X91898997Y-79805285D01*
X91957640Y-79793780D01*
X92042543Y-79757859D01*
X92059240Y-79692180D01*
X92095162Y-79607278D01*
X92160840Y-79590580D01*
X92217586Y-79579459D01*
X92248249Y-79530605D01*
X92260573Y-79420782D01*
X92262440Y-79285780D01*
X92262440Y-78980980D01*
X91856040Y-78980980D01*
G36*
X92258733Y-78099544D02*
G01*
X92242449Y-78007556D01*
X92205841Y-77970584D01*
X92160840Y-77964980D01*
X92075938Y-77929059D01*
X92059240Y-77863380D01*
X92023319Y-77778478D01*
X91957640Y-77761780D01*
X91891170Y-77744740D01*
X91861793Y-77675867D01*
X91856040Y-77558580D01*
X91847520Y-77425640D01*
X91813084Y-77366885D01*
X91754440Y-77355380D01*
X91669538Y-77319459D01*
X91652840Y-77253780D01*
X91616919Y-77168878D01*
X91551240Y-77152180D01*
X91466338Y-77116259D01*
X91449640Y-77050580D01*
X91432600Y-76984110D01*
X91363727Y-76954733D01*
X91246440Y-76948980D01*
X91113500Y-76957501D01*
X91054745Y-76991937D01*
X91043240Y-77050580D01*
X91007319Y-77135483D01*
X90941640Y-77152180D01*
X90856738Y-77188102D01*
X90840040Y-77253780D01*
X90804119Y-77338683D01*
X90738440Y-77355380D01*
X90671970Y-77372421D01*
X90642593Y-77441294D01*
X90636840Y-77558580D01*
X90645361Y-77691521D01*
X90679797Y-77750276D01*
X90738440Y-77761780D01*
X90823343Y-77797702D01*
X90840040Y-77863380D01*
X90875962Y-77948283D01*
X90941640Y-77964980D01*
X91026543Y-78000902D01*
X91043240Y-78066580D01*
X91079162Y-78151483D01*
X91144840Y-78168180D01*
X91229743Y-78204102D01*
X91246440Y-78269780D01*
X91282362Y-78354683D01*
X91348040Y-78371380D01*
X91432943Y-78407302D01*
X91449640Y-78472980D01*
X91458125Y-78523602D01*
X91497204Y-78553941D01*
X91587313Y-78569106D01*
X91748890Y-78574207D01*
X91754440Y-78574226D01*
X91754440Y-78168180D01*
X91669538Y-78132259D01*
X91652840Y-78066580D01*
X91688762Y-77981678D01*
X91754440Y-77964980D01*
X91839343Y-78000902D01*
X91856040Y-78066580D01*
X91820119Y-78151483D01*
X91754440Y-78168180D01*
X91754440Y-78574226D01*
X91856040Y-78574580D01*
X92262440Y-78574580D01*
X92262440Y-78269780D01*
X92258733Y-78099544D01*
G37*
X92258733Y-78099544D02*
X92242449Y-78007556D01*
X92205841Y-77970584D01*
X92160840Y-77964980D01*
X92075938Y-77929059D01*
X92059240Y-77863380D01*
X92023319Y-77778478D01*
X91957640Y-77761780D01*
X91891170Y-77744740D01*
X91861793Y-77675867D01*
X91856040Y-77558580D01*
X91847520Y-77425640D01*
X91813084Y-77366885D01*
X91754440Y-77355380D01*
X91669538Y-77319459D01*
X91652840Y-77253780D01*
X91616919Y-77168878D01*
X91551240Y-77152180D01*
X91466338Y-77116259D01*
X91449640Y-77050580D01*
X91432600Y-76984110D01*
X91363727Y-76954733D01*
X91246440Y-76948980D01*
X91113500Y-76957501D01*
X91054745Y-76991937D01*
X91043240Y-77050580D01*
X91007319Y-77135483D01*
X90941640Y-77152180D01*
X90856738Y-77188102D01*
X90840040Y-77253780D01*
X90804119Y-77338683D01*
X90738440Y-77355380D01*
X90671970Y-77372421D01*
X90642593Y-77441294D01*
X90636840Y-77558580D01*
X90645361Y-77691521D01*
X90679797Y-77750276D01*
X90738440Y-77761780D01*
X90823343Y-77797702D01*
X90840040Y-77863380D01*
X90875962Y-77948283D01*
X90941640Y-77964980D01*
X91026543Y-78000902D01*
X91043240Y-78066580D01*
X91079162Y-78151483D01*
X91144840Y-78168180D01*
X91229743Y-78204102D01*
X91246440Y-78269780D01*
X91282362Y-78354683D01*
X91348040Y-78371380D01*
X91432943Y-78407302D01*
X91449640Y-78472980D01*
X91458125Y-78523602D01*
X91497204Y-78553941D01*
X91587313Y-78569106D01*
X91748890Y-78574207D01*
X91754440Y-78574226D01*
X91754440Y-78168180D01*
X91669538Y-78132259D01*
X91652840Y-78066580D01*
X91688762Y-77981678D01*
X91754440Y-77964980D01*
X91839343Y-78000902D01*
X91856040Y-78066580D01*
X91820119Y-78151483D01*
X91754440Y-78168180D01*
X91754440Y-78574226D01*
X91856040Y-78574580D01*
X92262440Y-78574580D01*
X92262440Y-78269780D01*
X92258733Y-78099544D01*
G36*
X93276319Y-79997695D02*
G01*
X93266550Y-79876340D01*
X93244022Y-79815679D01*
X93203628Y-79795276D01*
X93176840Y-79793780D01*
X93091938Y-79757859D01*
X93075240Y-79692180D01*
X93058200Y-79625710D01*
X92989327Y-79596333D01*
X92872040Y-79590580D01*
X92668840Y-79590580D01*
X92668840Y-79793780D01*
X92660320Y-79926721D01*
X92625884Y-79985476D01*
X92567240Y-79996980D01*
X92482338Y-80032902D01*
X92465640Y-80098580D01*
X92429719Y-80183483D01*
X92364040Y-80200180D01*
X92307295Y-80211302D01*
X92276632Y-80260156D01*
X92264308Y-80369979D01*
X92262440Y-80504980D01*
X92262440Y-80809780D01*
X92668840Y-80809780D01*
X92871326Y-80807659D01*
X92992681Y-80797890D01*
X93053342Y-80775362D01*
X93073745Y-80734968D01*
X93075240Y-80708180D01*
X93111162Y-80623278D01*
X93176840Y-80606580D01*
X93227462Y-80598096D01*
X93257801Y-80559017D01*
X93272966Y-80468908D01*
X93278067Y-80307331D01*
X93278440Y-80200180D01*
X93276319Y-79997695D01*
G37*
X93276319Y-79997695D02*
X93266550Y-79876340D01*
X93244022Y-79815679D01*
X93203628Y-79795276D01*
X93176840Y-79793780D01*
X93091938Y-79757859D01*
X93075240Y-79692180D01*
X93058200Y-79625710D01*
X92989327Y-79596333D01*
X92872040Y-79590580D01*
X92668840Y-79590580D01*
X92668840Y-79793780D01*
X92660320Y-79926721D01*
X92625884Y-79985476D01*
X92567240Y-79996980D01*
X92482338Y-80032902D01*
X92465640Y-80098580D01*
X92429719Y-80183483D01*
X92364040Y-80200180D01*
X92307295Y-80211302D01*
X92276632Y-80260156D01*
X92264308Y-80369979D01*
X92262440Y-80504980D01*
X92262440Y-80809780D01*
X92668840Y-80809780D01*
X92871326Y-80807659D01*
X92992681Y-80797890D01*
X93053342Y-80775362D01*
X93073745Y-80734968D01*
X93075240Y-80708180D01*
X93111162Y-80623278D01*
X93176840Y-80606580D01*
X93227462Y-80598096D01*
X93257801Y-80559017D01*
X93272966Y-80468908D01*
X93278067Y-80307331D01*
X93278440Y-80200180D01*
X93276319Y-79997695D01*
G36*
X93276319Y-77152895D02*
G01*
X93266550Y-77031540D01*
X93244022Y-76970879D01*
X93203628Y-76950476D01*
X93176840Y-76948980D01*
X93091938Y-76913059D01*
X93075240Y-76847380D01*
X93066756Y-76796759D01*
X93027677Y-76766420D01*
X92937568Y-76751255D01*
X92775991Y-76746154D01*
X92668840Y-76745780D01*
X92262440Y-76745780D01*
X92262440Y-77050580D01*
X92266148Y-77220817D01*
X92282432Y-77312805D01*
X92319040Y-77349777D01*
X92364040Y-77355380D01*
X92420786Y-77366502D01*
X92451449Y-77415356D01*
X92463773Y-77525179D01*
X92465640Y-77660180D01*
X92465640Y-77964980D01*
X92770440Y-77964980D01*
X92940677Y-77961273D01*
X93032665Y-77944989D01*
X93069637Y-77908381D01*
X93075240Y-77863380D01*
X93111162Y-77778478D01*
X93176840Y-77761780D01*
X93227462Y-77753296D01*
X93257801Y-77714217D01*
X93272966Y-77624108D01*
X93278067Y-77462531D01*
X93278440Y-77355380D01*
X93276319Y-77152895D01*
G37*
X93276319Y-77152895D02*
X93266550Y-77031540D01*
X93244022Y-76970879D01*
X93203628Y-76950476D01*
X93176840Y-76948980D01*
X93091938Y-76913059D01*
X93075240Y-76847380D01*
X93066756Y-76796759D01*
X93027677Y-76766420D01*
X92937568Y-76751255D01*
X92775991Y-76746154D01*
X92668840Y-76745780D01*
X92262440Y-76745780D01*
X92262440Y-77050580D01*
X92266148Y-77220817D01*
X92282432Y-77312805D01*
X92319040Y-77349777D01*
X92364040Y-77355380D01*
X92420786Y-77366502D01*
X92451449Y-77415356D01*
X92463773Y-77525179D01*
X92465640Y-77660180D01*
X92465640Y-77964980D01*
X92770440Y-77964980D01*
X92940677Y-77961273D01*
X93032665Y-77944989D01*
X93069637Y-77908381D01*
X93075240Y-77863380D01*
X93111162Y-77778478D01*
X93176840Y-77761780D01*
X93227462Y-77753296D01*
X93257801Y-77714217D01*
X93272966Y-77624108D01*
X93278067Y-77462531D01*
X93278440Y-77355380D01*
X93276319Y-77152895D01*
G36*
X88799520Y-78644840D02*
G01*
X88765084Y-78586085D01*
X88706440Y-78574580D01*
X88639970Y-78591621D01*
X88610593Y-78660494D01*
X88604840Y-78777780D01*
X88613361Y-78910721D01*
X88647797Y-78969476D01*
X88706440Y-78980980D01*
X88772911Y-78963940D01*
X88802288Y-78895067D01*
X88808040Y-78777780D01*
X88799520Y-78644840D01*
G37*
X88799520Y-78644840D02*
X88765084Y-78586085D01*
X88706440Y-78574580D01*
X88639970Y-78591621D01*
X88610593Y-78660494D01*
X88604840Y-78777780D01*
X88613361Y-78910721D01*
X88647797Y-78969476D01*
X88706440Y-78980980D01*
X88772911Y-78963940D01*
X88802288Y-78895067D01*
X88808040Y-78777780D01*
X88799520Y-78644840D01*
D12*
%TO.C,IC1*%
X103150000Y-97050000D02*
X103150000Y-97550000D01*
X103150000Y-97550000D02*
X102700000Y-97550000D01*
X102700000Y-97550000D02*
X102700000Y-98600000D01*
X97650000Y-97525000D02*
X98050000Y-97525000D01*
X97650000Y-97525000D02*
X97650000Y-97125000D01*
X97650000Y-92050000D02*
X97650000Y-92525000D01*
X97650000Y-92050000D02*
X98075000Y-92050000D01*
X103125000Y-92075000D02*
X103125000Y-92500000D01*
X103125000Y-92075000D02*
X102725000Y-92075000D01*
D13*
%TO.C,R23*%
X93572936Y-109935000D02*
X94027064Y-109935000D01*
X93572936Y-108465000D02*
X94027064Y-108465000D01*
%TO.C,R22*%
X103027064Y-132465000D02*
X102572936Y-132465000D01*
X103027064Y-133935000D02*
X102572936Y-133935000D01*
%TO.C,R17*%
X106465000Y-89372936D02*
X106465000Y-89827064D01*
X107935000Y-89372936D02*
X107935000Y-89827064D01*
%TO.C,R15*%
X90535000Y-126227064D02*
X90535000Y-125772936D01*
X89065000Y-126227064D02*
X89065000Y-125772936D01*
%TO.C,R14*%
X92972936Y-127335000D02*
X93427064Y-127335000D01*
X92972936Y-125865000D02*
X93427064Y-125865000D01*
%TO.C,R13*%
X97135000Y-127627064D02*
X97135000Y-127172936D01*
X95665000Y-127627064D02*
X95665000Y-127172936D01*
%TO.C,R8*%
X95665000Y-94572936D02*
X95665000Y-95027064D01*
X97135000Y-94572936D02*
X97135000Y-95027064D01*
%TO.C,R7*%
X106372936Y-86135000D02*
X106827064Y-86135000D01*
X106372936Y-84665000D02*
X106827064Y-84665000D01*
%TO.C,R6*%
X112965000Y-77972936D02*
X112965000Y-78427064D01*
X114435000Y-77972936D02*
X114435000Y-78427064D01*
%TO.C,R5*%
X100535000Y-101827064D02*
X100535000Y-101372936D01*
X99065000Y-101827064D02*
X99065000Y-101372936D01*
%TO.C,R3*%
X94335000Y-99627064D02*
X94335000Y-99172936D01*
X92865000Y-99627064D02*
X92865000Y-99172936D01*
%TO.C,R2*%
X90172936Y-133535000D02*
X90627064Y-133535000D01*
X90172936Y-132065000D02*
X90627064Y-132065000D01*
%TO.C,R1*%
X93972936Y-133535000D02*
X94427064Y-133535000D01*
X93972936Y-132065000D02*
X94427064Y-132065000D01*
%TO.C,C11*%
X90701248Y-129735000D02*
X91223752Y-129735000D01*
X90701248Y-128265000D02*
X91223752Y-128265000D01*
%TO.C,C8*%
X109176248Y-93935000D02*
X109698752Y-93935000D01*
X109176248Y-92465000D02*
X109698752Y-92465000D01*
%TO.C,C5*%
X94823752Y-90665000D02*
X94301248Y-90665000D01*
X94823752Y-92135000D02*
X94301248Y-92135000D01*
%TO.C,C4*%
X102538748Y-101535000D02*
X103061252Y-101535000D01*
X102538748Y-100065000D02*
X103061252Y-100065000D01*
%TO.C,C3*%
X112438748Y-82035000D02*
X112961252Y-82035000D01*
X112438748Y-80565000D02*
X112961252Y-80565000D01*
%TO.C,C2*%
X97535000Y-101898752D02*
X97535000Y-101376248D01*
X96065000Y-101898752D02*
X96065000Y-101376248D01*
%TO.C,C1*%
X97938748Y-133535000D02*
X98461252Y-133535000D01*
X97938748Y-132065000D02*
X98461252Y-132065000D01*
%TO.C,IC1*%
D10*
X104252380Y-94023809D02*
X103252380Y-94023809D01*
X104157142Y-95071428D02*
X104204761Y-95023809D01*
X104252380Y-94880952D01*
X104252380Y-94785714D01*
X104204761Y-94642857D01*
X104109523Y-94547619D01*
X104014285Y-94500000D01*
X103823809Y-94452380D01*
X103680952Y-94452380D01*
X103490476Y-94500000D01*
X103395238Y-94547619D01*
X103300000Y-94642857D01*
X103252380Y-94785714D01*
X103252380Y-94880952D01*
X103300000Y-95023809D01*
X103347619Y-95071428D01*
X104252380Y-96023809D02*
X104252380Y-95452380D01*
X104252380Y-95738095D02*
X103252380Y-95738095D01*
X103395238Y-95642857D01*
X103490476Y-95547619D01*
X103538095Y-95452380D01*
%TO.C,R23*%
X94442857Y-111352380D02*
X94776190Y-110876190D01*
X95014285Y-111352380D02*
X95014285Y-110352380D01*
X94633333Y-110352380D01*
X94538095Y-110400000D01*
X94490476Y-110447619D01*
X94442857Y-110542857D01*
X94442857Y-110685714D01*
X94490476Y-110780952D01*
X94538095Y-110828571D01*
X94633333Y-110876190D01*
X95014285Y-110876190D01*
X94061904Y-110447619D02*
X94014285Y-110400000D01*
X93919047Y-110352380D01*
X93680952Y-110352380D01*
X93585714Y-110400000D01*
X93538095Y-110447619D01*
X93490476Y-110542857D01*
X93490476Y-110638095D01*
X93538095Y-110780952D01*
X94109523Y-111352380D01*
X93490476Y-111352380D01*
X93157142Y-110352380D02*
X92538095Y-110352380D01*
X92871428Y-110733333D01*
X92728571Y-110733333D01*
X92633333Y-110780952D01*
X92585714Y-110828571D01*
X92538095Y-110923809D01*
X92538095Y-111161904D01*
X92585714Y-111257142D01*
X92633333Y-111304761D01*
X92728571Y-111352380D01*
X93014285Y-111352380D01*
X93109523Y-111304761D01*
X93157142Y-111257142D01*
%TO.C,R22*%
X103442857Y-132002380D02*
X103776190Y-131526190D01*
X104014285Y-132002380D02*
X104014285Y-131002380D01*
X103633333Y-131002380D01*
X103538095Y-131050000D01*
X103490476Y-131097619D01*
X103442857Y-131192857D01*
X103442857Y-131335714D01*
X103490476Y-131430952D01*
X103538095Y-131478571D01*
X103633333Y-131526190D01*
X104014285Y-131526190D01*
X103061904Y-131097619D02*
X103014285Y-131050000D01*
X102919047Y-131002380D01*
X102680952Y-131002380D01*
X102585714Y-131050000D01*
X102538095Y-131097619D01*
X102490476Y-131192857D01*
X102490476Y-131288095D01*
X102538095Y-131430952D01*
X103109523Y-132002380D01*
X102490476Y-132002380D01*
X102109523Y-131097619D02*
X102061904Y-131050000D01*
X101966666Y-131002380D01*
X101728571Y-131002380D01*
X101633333Y-131050000D01*
X101585714Y-131097619D01*
X101538095Y-131192857D01*
X101538095Y-131288095D01*
X101585714Y-131430952D01*
X102157142Y-132002380D01*
X101538095Y-132002380D01*
%TO.C,R17*%
X106052380Y-89157142D02*
X105576190Y-88823809D01*
X106052380Y-88585714D02*
X105052380Y-88585714D01*
X105052380Y-88966666D01*
X105100000Y-89061904D01*
X105147619Y-89109523D01*
X105242857Y-89157142D01*
X105385714Y-89157142D01*
X105480952Y-89109523D01*
X105528571Y-89061904D01*
X105576190Y-88966666D01*
X105576190Y-88585714D01*
X106052380Y-90109523D02*
X106052380Y-89538095D01*
X106052380Y-89823809D02*
X105052380Y-89823809D01*
X105195238Y-89728571D01*
X105290476Y-89633333D01*
X105338095Y-89538095D01*
X105052380Y-90442857D02*
X105052380Y-91109523D01*
X106052380Y-90680952D01*
%TO.C,R15*%
X90442857Y-123852380D02*
X90776190Y-123376190D01*
X91014285Y-123852380D02*
X91014285Y-122852380D01*
X90633333Y-122852380D01*
X90538095Y-122900000D01*
X90490476Y-122947619D01*
X90442857Y-123042857D01*
X90442857Y-123185714D01*
X90490476Y-123280952D01*
X90538095Y-123328571D01*
X90633333Y-123376190D01*
X91014285Y-123376190D01*
X89490476Y-123852380D02*
X90061904Y-123852380D01*
X89776190Y-123852380D02*
X89776190Y-122852380D01*
X89871428Y-122995238D01*
X89966666Y-123090476D01*
X90061904Y-123138095D01*
X88585714Y-122852380D02*
X89061904Y-122852380D01*
X89109523Y-123328571D01*
X89061904Y-123280952D01*
X88966666Y-123233333D01*
X88728571Y-123233333D01*
X88633333Y-123280952D01*
X88585714Y-123328571D01*
X88538095Y-123423809D01*
X88538095Y-123661904D01*
X88585714Y-123757142D01*
X88633333Y-123804761D01*
X88728571Y-123852380D01*
X88966666Y-123852380D01*
X89061904Y-123804761D01*
X89109523Y-123757142D01*
%TO.C,R14*%
X94642857Y-128752380D02*
X94976190Y-128276190D01*
X95214285Y-128752380D02*
X95214285Y-127752380D01*
X94833333Y-127752380D01*
X94738095Y-127800000D01*
X94690476Y-127847619D01*
X94642857Y-127942857D01*
X94642857Y-128085714D01*
X94690476Y-128180952D01*
X94738095Y-128228571D01*
X94833333Y-128276190D01*
X95214285Y-128276190D01*
X93690476Y-128752380D02*
X94261904Y-128752380D01*
X93976190Y-128752380D02*
X93976190Y-127752380D01*
X94071428Y-127895238D01*
X94166666Y-127990476D01*
X94261904Y-128038095D01*
X92833333Y-128085714D02*
X92833333Y-128752380D01*
X93071428Y-127704761D02*
X93309523Y-128419047D01*
X92690476Y-128419047D01*
%TO.C,R13*%
X98752380Y-126457142D02*
X98276190Y-126123809D01*
X98752380Y-125885714D02*
X97752380Y-125885714D01*
X97752380Y-126266666D01*
X97800000Y-126361904D01*
X97847619Y-126409523D01*
X97942857Y-126457142D01*
X98085714Y-126457142D01*
X98180952Y-126409523D01*
X98228571Y-126361904D01*
X98276190Y-126266666D01*
X98276190Y-125885714D01*
X98752380Y-127409523D02*
X98752380Y-126838095D01*
X98752380Y-127123809D02*
X97752380Y-127123809D01*
X97895238Y-127028571D01*
X97990476Y-126933333D01*
X98038095Y-126838095D01*
X97752380Y-127742857D02*
X97752380Y-128361904D01*
X98133333Y-128028571D01*
X98133333Y-128171428D01*
X98180952Y-128266666D01*
X98228571Y-128314285D01*
X98323809Y-128361904D01*
X98561904Y-128361904D01*
X98657142Y-128314285D01*
X98704761Y-128266666D01*
X98752380Y-128171428D01*
X98752380Y-127885714D01*
X98704761Y-127790476D01*
X98657142Y-127742857D01*
%TO.C,R8*%
X95202380Y-94633333D02*
X94726190Y-94300000D01*
X95202380Y-94061904D02*
X94202380Y-94061904D01*
X94202380Y-94442857D01*
X94250000Y-94538095D01*
X94297619Y-94585714D01*
X94392857Y-94633333D01*
X94535714Y-94633333D01*
X94630952Y-94585714D01*
X94678571Y-94538095D01*
X94726190Y-94442857D01*
X94726190Y-94061904D01*
X94630952Y-95204761D02*
X94583333Y-95109523D01*
X94535714Y-95061904D01*
X94440476Y-95014285D01*
X94392857Y-95014285D01*
X94297619Y-95061904D01*
X94250000Y-95109523D01*
X94202380Y-95204761D01*
X94202380Y-95395238D01*
X94250000Y-95490476D01*
X94297619Y-95538095D01*
X94392857Y-95585714D01*
X94440476Y-95585714D01*
X94535714Y-95538095D01*
X94583333Y-95490476D01*
X94630952Y-95395238D01*
X94630952Y-95204761D01*
X94678571Y-95109523D01*
X94726190Y-95061904D01*
X94821428Y-95014285D01*
X95011904Y-95014285D01*
X95107142Y-95061904D01*
X95154761Y-95109523D01*
X95202380Y-95204761D01*
X95202380Y-95395238D01*
X95154761Y-95490476D01*
X95107142Y-95538095D01*
X95011904Y-95585714D01*
X94821428Y-95585714D01*
X94726190Y-95538095D01*
X94678571Y-95490476D01*
X94630952Y-95395238D01*
%TO.C,R7*%
X106766666Y-87502380D02*
X107100000Y-87026190D01*
X107338095Y-87502380D02*
X107338095Y-86502380D01*
X106957142Y-86502380D01*
X106861904Y-86550000D01*
X106814285Y-86597619D01*
X106766666Y-86692857D01*
X106766666Y-86835714D01*
X106814285Y-86930952D01*
X106861904Y-86978571D01*
X106957142Y-87026190D01*
X107338095Y-87026190D01*
X106433333Y-86502380D02*
X105766666Y-86502380D01*
X106195238Y-87502380D01*
%TO.C,R6*%
X112502380Y-78033333D02*
X112026190Y-77700000D01*
X112502380Y-77461904D02*
X111502380Y-77461904D01*
X111502380Y-77842857D01*
X111550000Y-77938095D01*
X111597619Y-77985714D01*
X111692857Y-78033333D01*
X111835714Y-78033333D01*
X111930952Y-77985714D01*
X111978571Y-77938095D01*
X112026190Y-77842857D01*
X112026190Y-77461904D01*
X111502380Y-78890476D02*
X111502380Y-78700000D01*
X111550000Y-78604761D01*
X111597619Y-78557142D01*
X111740476Y-78461904D01*
X111930952Y-78414285D01*
X112311904Y-78414285D01*
X112407142Y-78461904D01*
X112454761Y-78509523D01*
X112502380Y-78604761D01*
X112502380Y-78795238D01*
X112454761Y-78890476D01*
X112407142Y-78938095D01*
X112311904Y-78985714D01*
X112073809Y-78985714D01*
X111978571Y-78938095D01*
X111930952Y-78890476D01*
X111883333Y-78795238D01*
X111883333Y-78604761D01*
X111930952Y-78509523D01*
X111978571Y-78461904D01*
X112073809Y-78414285D01*
%TO.C,R5*%
X99966666Y-104652380D02*
X100300000Y-104176190D01*
X100538095Y-104652380D02*
X100538095Y-103652380D01*
X100157142Y-103652380D01*
X100061904Y-103700000D01*
X100014285Y-103747619D01*
X99966666Y-103842857D01*
X99966666Y-103985714D01*
X100014285Y-104080952D01*
X100061904Y-104128571D01*
X100157142Y-104176190D01*
X100538095Y-104176190D01*
X99061904Y-103652380D02*
X99538095Y-103652380D01*
X99585714Y-104128571D01*
X99538095Y-104080952D01*
X99442857Y-104033333D01*
X99204761Y-104033333D01*
X99109523Y-104080952D01*
X99061904Y-104128571D01*
X99014285Y-104223809D01*
X99014285Y-104461904D01*
X99061904Y-104557142D01*
X99109523Y-104604761D01*
X99204761Y-104652380D01*
X99442857Y-104652380D01*
X99538095Y-104604761D01*
X99585714Y-104557142D01*
%TO.C,R3*%
X92452380Y-99233333D02*
X91976190Y-98900000D01*
X92452380Y-98661904D02*
X91452380Y-98661904D01*
X91452380Y-99042857D01*
X91500000Y-99138095D01*
X91547619Y-99185714D01*
X91642857Y-99233333D01*
X91785714Y-99233333D01*
X91880952Y-99185714D01*
X91928571Y-99138095D01*
X91976190Y-99042857D01*
X91976190Y-98661904D01*
X91452380Y-99566666D02*
X91452380Y-100185714D01*
X91833333Y-99852380D01*
X91833333Y-99995238D01*
X91880952Y-100090476D01*
X91928571Y-100138095D01*
X92023809Y-100185714D01*
X92261904Y-100185714D01*
X92357142Y-100138095D01*
X92404761Y-100090476D01*
X92452380Y-99995238D01*
X92452380Y-99709523D01*
X92404761Y-99614285D01*
X92357142Y-99566666D01*
%TO.C,R2*%
X90566666Y-134902380D02*
X90900000Y-134426190D01*
X91138095Y-134902380D02*
X91138095Y-133902380D01*
X90757142Y-133902380D01*
X90661904Y-133950000D01*
X90614285Y-133997619D01*
X90566666Y-134092857D01*
X90566666Y-134235714D01*
X90614285Y-134330952D01*
X90661904Y-134378571D01*
X90757142Y-134426190D01*
X91138095Y-134426190D01*
X90185714Y-133997619D02*
X90138095Y-133950000D01*
X90042857Y-133902380D01*
X89804761Y-133902380D01*
X89709523Y-133950000D01*
X89661904Y-133997619D01*
X89614285Y-134092857D01*
X89614285Y-134188095D01*
X89661904Y-134330952D01*
X90233333Y-134902380D01*
X89614285Y-134902380D01*
%TO.C,R1*%
X92966666Y-134902380D02*
X93300000Y-134426190D01*
X93538095Y-134902380D02*
X93538095Y-133902380D01*
X93157142Y-133902380D01*
X93061904Y-133950000D01*
X93014285Y-133997619D01*
X92966666Y-134092857D01*
X92966666Y-134235714D01*
X93014285Y-134330952D01*
X93061904Y-134378571D01*
X93157142Y-134426190D01*
X93538095Y-134426190D01*
X92014285Y-134902380D02*
X92585714Y-134902380D01*
X92300000Y-134902380D02*
X92300000Y-133902380D01*
X92395238Y-134045238D01*
X92490476Y-134140476D01*
X92585714Y-134188095D01*
%TO.C,C11*%
X91605357Y-131037142D02*
X91652976Y-131084761D01*
X91795833Y-131132380D01*
X91891071Y-131132380D01*
X92033928Y-131084761D01*
X92129166Y-130989523D01*
X92176785Y-130894285D01*
X92224404Y-130703809D01*
X92224404Y-130560952D01*
X92176785Y-130370476D01*
X92129166Y-130275238D01*
X92033928Y-130180000D01*
X91891071Y-130132380D01*
X91795833Y-130132380D01*
X91652976Y-130180000D01*
X91605357Y-130227619D01*
X90652976Y-131132380D02*
X91224404Y-131132380D01*
X90938690Y-131132380D02*
X90938690Y-130132380D01*
X91033928Y-130275238D01*
X91129166Y-130370476D01*
X91224404Y-130418095D01*
X89700595Y-131132380D02*
X90272023Y-131132380D01*
X89986309Y-131132380D02*
X89986309Y-130132380D01*
X90081547Y-130275238D01*
X90176785Y-130370476D01*
X90272023Y-130418095D01*
%TO.C,C8*%
X109604166Y-95237142D02*
X109651785Y-95284761D01*
X109794642Y-95332380D01*
X109889880Y-95332380D01*
X110032738Y-95284761D01*
X110127976Y-95189523D01*
X110175595Y-95094285D01*
X110223214Y-94903809D01*
X110223214Y-94760952D01*
X110175595Y-94570476D01*
X110127976Y-94475238D01*
X110032738Y-94380000D01*
X109889880Y-94332380D01*
X109794642Y-94332380D01*
X109651785Y-94380000D01*
X109604166Y-94427619D01*
X109032738Y-94760952D02*
X109127976Y-94713333D01*
X109175595Y-94665714D01*
X109223214Y-94570476D01*
X109223214Y-94522857D01*
X109175595Y-94427619D01*
X109127976Y-94380000D01*
X109032738Y-94332380D01*
X108842261Y-94332380D01*
X108747023Y-94380000D01*
X108699404Y-94427619D01*
X108651785Y-94522857D01*
X108651785Y-94570476D01*
X108699404Y-94665714D01*
X108747023Y-94713333D01*
X108842261Y-94760952D01*
X109032738Y-94760952D01*
X109127976Y-94808571D01*
X109175595Y-94856190D01*
X109223214Y-94951428D01*
X109223214Y-95141904D01*
X109175595Y-95237142D01*
X109127976Y-95284761D01*
X109032738Y-95332380D01*
X108842261Y-95332380D01*
X108747023Y-95284761D01*
X108699404Y-95237142D01*
X108651785Y-95141904D01*
X108651785Y-94951428D01*
X108699404Y-94856190D01*
X108747023Y-94808571D01*
X108842261Y-94760952D01*
%TO.C,C5*%
X94729166Y-90077142D02*
X94776785Y-90124761D01*
X94919642Y-90172380D01*
X95014880Y-90172380D01*
X95157738Y-90124761D01*
X95252976Y-90029523D01*
X95300595Y-89934285D01*
X95348214Y-89743809D01*
X95348214Y-89600952D01*
X95300595Y-89410476D01*
X95252976Y-89315238D01*
X95157738Y-89220000D01*
X95014880Y-89172380D01*
X94919642Y-89172380D01*
X94776785Y-89220000D01*
X94729166Y-89267619D01*
X93824404Y-89172380D02*
X94300595Y-89172380D01*
X94348214Y-89648571D01*
X94300595Y-89600952D01*
X94205357Y-89553333D01*
X93967261Y-89553333D01*
X93872023Y-89600952D01*
X93824404Y-89648571D01*
X93776785Y-89743809D01*
X93776785Y-89981904D01*
X93824404Y-90077142D01*
X93872023Y-90124761D01*
X93967261Y-90172380D01*
X94205357Y-90172380D01*
X94300595Y-90124761D01*
X94348214Y-90077142D01*
%TO.C,C4*%
X102966666Y-102837142D02*
X103014285Y-102884761D01*
X103157142Y-102932380D01*
X103252380Y-102932380D01*
X103395238Y-102884761D01*
X103490476Y-102789523D01*
X103538095Y-102694285D01*
X103585714Y-102503809D01*
X103585714Y-102360952D01*
X103538095Y-102170476D01*
X103490476Y-102075238D01*
X103395238Y-101980000D01*
X103252380Y-101932380D01*
X103157142Y-101932380D01*
X103014285Y-101980000D01*
X102966666Y-102027619D01*
X102109523Y-102265714D02*
X102109523Y-102932380D01*
X102347619Y-101884761D02*
X102585714Y-102599047D01*
X101966666Y-102599047D01*
%TO.C,C3*%
X112866666Y-83337142D02*
X112914285Y-83384761D01*
X113057142Y-83432380D01*
X113152380Y-83432380D01*
X113295238Y-83384761D01*
X113390476Y-83289523D01*
X113438095Y-83194285D01*
X113485714Y-83003809D01*
X113485714Y-82860952D01*
X113438095Y-82670476D01*
X113390476Y-82575238D01*
X113295238Y-82480000D01*
X113152380Y-82432380D01*
X113057142Y-82432380D01*
X112914285Y-82480000D01*
X112866666Y-82527619D01*
X112533333Y-82432380D02*
X111914285Y-82432380D01*
X112247619Y-82813333D01*
X112104761Y-82813333D01*
X112009523Y-82860952D01*
X111961904Y-82908571D01*
X111914285Y-83003809D01*
X111914285Y-83241904D01*
X111961904Y-83337142D01*
X112009523Y-83384761D01*
X112104761Y-83432380D01*
X112390476Y-83432380D01*
X112485714Y-83384761D01*
X112533333Y-83337142D01*
%TO.C,C2*%
X96966666Y-104557142D02*
X97014285Y-104604761D01*
X97157142Y-104652380D01*
X97252380Y-104652380D01*
X97395238Y-104604761D01*
X97490476Y-104509523D01*
X97538095Y-104414285D01*
X97585714Y-104223809D01*
X97585714Y-104080952D01*
X97538095Y-103890476D01*
X97490476Y-103795238D01*
X97395238Y-103700000D01*
X97252380Y-103652380D01*
X97157142Y-103652380D01*
X97014285Y-103700000D01*
X96966666Y-103747619D01*
X96585714Y-103747619D02*
X96538095Y-103700000D01*
X96442857Y-103652380D01*
X96204761Y-103652380D01*
X96109523Y-103700000D01*
X96061904Y-103747619D01*
X96014285Y-103842857D01*
X96014285Y-103938095D01*
X96061904Y-104080952D01*
X96633333Y-104652380D01*
X96014285Y-104652380D01*
%TO.C,C1*%
X98366666Y-134837142D02*
X98414285Y-134884761D01*
X98557142Y-134932380D01*
X98652380Y-134932380D01*
X98795238Y-134884761D01*
X98890476Y-134789523D01*
X98938095Y-134694285D01*
X98985714Y-134503809D01*
X98985714Y-134360952D01*
X98938095Y-134170476D01*
X98890476Y-134075238D01*
X98795238Y-133980000D01*
X98652380Y-133932380D01*
X98557142Y-133932380D01*
X98414285Y-133980000D01*
X98366666Y-134027619D01*
X97414285Y-134932380D02*
X97985714Y-134932380D01*
X97700000Y-134932380D02*
X97700000Y-133932380D01*
X97795238Y-134075238D01*
X97890476Y-134170476D01*
X97985714Y-134218095D01*
%TD*%
M02*
