M48
; DRILL file {KiCad 5.1.10} date Tue Sep 21 18:47:05 2021
; FORMAT={-:-/ absolute / inch / decimal}
; #@! TF.CreationDate,2021-09-21T18:47:05-07:00
; #@! TF.GenerationSoftware,Kicad,Pcbnew,5.1.10
; #@! TF.FileFunction,Plated,1,2,PTH
FMAT,2
INCH
T1C0.0157
T2C0.0295
T3C0.0315
T4C0.0354
T5C0.0394
T6C0.0433
T7C0.0470
T8C0.0472
T9C0.0571
%
G90
G05
T1
X3.5197Y-5.2835
X3.5787Y-5.1732
X3.5984Y-3.2598
X3.6535Y-3.811
X3.7295Y-3.2351
X3.8543Y-3.7559
X3.9291Y-4.0945
X3.937Y-3.7008
X4.034Y-4.0246
X4.0787Y-3.5748
X4.1556Y-3.2874
X4.3701Y-3.5984
X4.3701Y-3.9213
X4.4764Y-2.9724
T2
X3.937Y-2.8504
X3.937Y-2.9488
T3
X4.2Y-2.382
X4.2Y-2.682
X4.5118Y-3.6898
X4.5118Y-3.8898
X4.5118Y-3.9921
X4.5118Y-4.1921
T4
X3.3465Y-4.4016
X3.3465Y-4.5039
X3.3465Y-4.6063
X3.3504Y-4.7087
X3.3504Y-4.811
X3.3504Y-4.9134
T5
X3.887Y-4.3025
X3.987Y-4.3025
T6
X3.837Y-3.147
X3.837Y-3.304
X3.837Y-3.461
X3.937Y-3.147
X3.937Y-3.304
X3.937Y-3.461
X4.037Y-3.147
X4.037Y-3.304
X4.037Y-3.461
T7
X3.9409Y-5.127
X3.9409Y-5.316
T8
X3.7323Y-5.127
X3.7323Y-5.316
X3.7323Y-5.505
X3.9409Y-5.505
X4.1496Y-5.127
X4.1496Y-5.316
X4.1496Y-5.505
T9
X3.661Y-3.7196
X3.661Y-4.1684
X3.714Y-4.4366
X3.714Y-4.8854
X4.161Y-3.7196
X4.161Y-4.1684
X4.214Y-4.4366
X4.214Y-4.8854
T5
G00X3.752Y-2.5262
M15
G01X3.752Y-2.5498
M16
G05
G00X3.9252Y-2.4199
M15
G01X3.9488Y-2.4199
M16
G05
G00X3.9252Y-2.6561
M15
G01X3.9488Y-2.6561
M16
G05
T0
M30
