%TF.GenerationSoftware,KiCad,Pcbnew,5.1.10*%
%TF.CreationDate,2021-09-21T18:47:02-07:00*%
%TF.ProjectId,MainBoard,4d61696e-426f-4617-9264-2e6b69636164,rev?*%
%TF.SameCoordinates,Original*%
%TF.FileFunction,Paste,Top*%
%TF.FilePolarity,Positive*%
%FSLAX46Y46*%
G04 Gerber Fmt 4.6, Leading zero omitted, Abs format (unit mm)*
G04 Created by KiCad (PCBNEW 5.1.10) date 2021-09-21 18:47:02*
%MOMM*%
%LPD*%
G01*
G04 APERTURE LIST*
G04 APERTURE END LIST*
%TO.C,R18*%
G36*
G01*
X114400000Y-90749999D02*
X114400000Y-91650001D01*
G75*
G02*
X114150001Y-91900000I-249999J0D01*
G01*
X113449999Y-91900000D01*
G75*
G02*
X113200000Y-91650001I0J249999D01*
G01*
X113200000Y-90749999D01*
G75*
G02*
X113449999Y-90500000I249999J0D01*
G01*
X114150001Y-90500000D01*
G75*
G02*
X114400000Y-90749999I0J-249999D01*
G01*
G37*
G36*
G01*
X116400000Y-90749999D02*
X116400000Y-91650001D01*
G75*
G02*
X116150001Y-91900000I-249999J0D01*
G01*
X115449999Y-91900000D01*
G75*
G02*
X115200000Y-91650001I0J249999D01*
G01*
X115200000Y-90749999D01*
G75*
G02*
X115449999Y-90500000I249999J0D01*
G01*
X116150001Y-90500000D01*
G75*
G02*
X116400000Y-90749999I0J-249999D01*
G01*
G37*
%TD*%
%TO.C,R16*%
G36*
G01*
X94949999Y-75000000D02*
X95850001Y-75000000D01*
G75*
G02*
X96100000Y-75249999I0J-249999D01*
G01*
X96100000Y-75950001D01*
G75*
G02*
X95850001Y-76200000I-249999J0D01*
G01*
X94949999Y-76200000D01*
G75*
G02*
X94700000Y-75950001I0J249999D01*
G01*
X94700000Y-75249999D01*
G75*
G02*
X94949999Y-75000000I249999J0D01*
G01*
G37*
G36*
G01*
X94949999Y-73000000D02*
X95850001Y-73000000D01*
G75*
G02*
X96100000Y-73249999I0J-249999D01*
G01*
X96100000Y-73950001D01*
G75*
G02*
X95850001Y-74200000I-249999J0D01*
G01*
X94949999Y-74200000D01*
G75*
G02*
X94700000Y-73950001I0J249999D01*
G01*
X94700000Y-73249999D01*
G75*
G02*
X94949999Y-73000000I249999J0D01*
G01*
G37*
%TD*%
%TO.C,R12*%
G36*
G01*
X84650001Y-128100000D02*
X83749999Y-128100000D01*
G75*
G02*
X83500000Y-127850001I0J249999D01*
G01*
X83500000Y-127149999D01*
G75*
G02*
X83749999Y-126900000I249999J0D01*
G01*
X84650001Y-126900000D01*
G75*
G02*
X84900000Y-127149999I0J-249999D01*
G01*
X84900000Y-127850001D01*
G75*
G02*
X84650001Y-128100000I-249999J0D01*
G01*
G37*
G36*
G01*
X84650001Y-130100000D02*
X83749999Y-130100000D01*
G75*
G02*
X83500000Y-129850001I0J249999D01*
G01*
X83500000Y-129149999D01*
G75*
G02*
X83749999Y-128900000I249999J0D01*
G01*
X84650001Y-128900000D01*
G75*
G02*
X84900000Y-129149999I0J-249999D01*
G01*
X84900000Y-129850001D01*
G75*
G02*
X84650001Y-130100000I-249999J0D01*
G01*
G37*
%TD*%
%TO.C,R11*%
G36*
G01*
X107050001Y-71000000D02*
X106149999Y-71000000D01*
G75*
G02*
X105900000Y-70750001I0J249999D01*
G01*
X105900000Y-70049999D01*
G75*
G02*
X106149999Y-69800000I249999J0D01*
G01*
X107050001Y-69800000D01*
G75*
G02*
X107300000Y-70049999I0J-249999D01*
G01*
X107300000Y-70750001D01*
G75*
G02*
X107050001Y-71000000I-249999J0D01*
G01*
G37*
G36*
G01*
X107050001Y-73000000D02*
X106149999Y-73000000D01*
G75*
G02*
X105900000Y-72750001I0J249999D01*
G01*
X105900000Y-72049999D01*
G75*
G02*
X106149999Y-71800000I249999J0D01*
G01*
X107050001Y-71800000D01*
G75*
G02*
X107300000Y-72049999I0J-249999D01*
G01*
X107300000Y-72750001D01*
G75*
G02*
X107050001Y-73000000I-249999J0D01*
G01*
G37*
%TD*%
%TO.C,R10*%
G36*
G01*
X93850001Y-70400000D02*
X92949999Y-70400000D01*
G75*
G02*
X92700000Y-70150001I0J249999D01*
G01*
X92700000Y-69449999D01*
G75*
G02*
X92949999Y-69200000I249999J0D01*
G01*
X93850001Y-69200000D01*
G75*
G02*
X94100000Y-69449999I0J-249999D01*
G01*
X94100000Y-70150001D01*
G75*
G02*
X93850001Y-70400000I-249999J0D01*
G01*
G37*
G36*
G01*
X93850001Y-72400000D02*
X92949999Y-72400000D01*
G75*
G02*
X92700000Y-72150001I0J249999D01*
G01*
X92700000Y-71449999D01*
G75*
G02*
X92949999Y-71200000I249999J0D01*
G01*
X93850001Y-71200000D01*
G75*
G02*
X94100000Y-71449999I0J-249999D01*
G01*
X94100000Y-72150001D01*
G75*
G02*
X93850001Y-72400000I-249999J0D01*
G01*
G37*
%TD*%
%TO.C,R9*%
G36*
G01*
X94949999Y-71200000D02*
X95850001Y-71200000D01*
G75*
G02*
X96100000Y-71449999I0J-249999D01*
G01*
X96100000Y-72150001D01*
G75*
G02*
X95850001Y-72400000I-249999J0D01*
G01*
X94949999Y-72400000D01*
G75*
G02*
X94700000Y-72150001I0J249999D01*
G01*
X94700000Y-71449999D01*
G75*
G02*
X94949999Y-71200000I249999J0D01*
G01*
G37*
G36*
G01*
X94949999Y-69200000D02*
X95850001Y-69200000D01*
G75*
G02*
X96100000Y-69449999I0J-249999D01*
G01*
X96100000Y-70150001D01*
G75*
G02*
X95850001Y-70400000I-249999J0D01*
G01*
X94949999Y-70400000D01*
G75*
G02*
X94700000Y-70150001I0J249999D01*
G01*
X94700000Y-69449999D01*
G75*
G02*
X94949999Y-69200000I249999J0D01*
G01*
G37*
%TD*%
%TO.C,C10*%
G36*
G01*
X89712500Y-120075000D02*
X89712500Y-119125000D01*
G75*
G02*
X89962500Y-118875000I250000J0D01*
G01*
X90637500Y-118875000D01*
G75*
G02*
X90887500Y-119125000I0J-250000D01*
G01*
X90887500Y-120075000D01*
G75*
G02*
X90637500Y-120325000I-250000J0D01*
G01*
X89962500Y-120325000D01*
G75*
G02*
X89712500Y-120075000I0J250000D01*
G01*
G37*
G36*
G01*
X87637500Y-120075000D02*
X87637500Y-119125000D01*
G75*
G02*
X87887500Y-118875000I250000J0D01*
G01*
X88562500Y-118875000D01*
G75*
G02*
X88812500Y-119125000I0J-250000D01*
G01*
X88812500Y-120075000D01*
G75*
G02*
X88562500Y-120325000I-250000J0D01*
G01*
X87887500Y-120325000D01*
G75*
G02*
X87637500Y-120075000I0J250000D01*
G01*
G37*
%TD*%
%TO.C,C9*%
G36*
G01*
X106125000Y-75812500D02*
X107075000Y-75812500D01*
G75*
G02*
X107325000Y-76062500I0J-250000D01*
G01*
X107325000Y-76737500D01*
G75*
G02*
X107075000Y-76987500I-250000J0D01*
G01*
X106125000Y-76987500D01*
G75*
G02*
X105875000Y-76737500I0J250000D01*
G01*
X105875000Y-76062500D01*
G75*
G02*
X106125000Y-75812500I250000J0D01*
G01*
G37*
G36*
G01*
X106125000Y-73737500D02*
X107075000Y-73737500D01*
G75*
G02*
X107325000Y-73987500I0J-250000D01*
G01*
X107325000Y-74662500D01*
G75*
G02*
X107075000Y-74912500I-250000J0D01*
G01*
X106125000Y-74912500D01*
G75*
G02*
X105875000Y-74662500I0J250000D01*
G01*
X105875000Y-73987500D01*
G75*
G02*
X106125000Y-73737500I250000J0D01*
G01*
G37*
%TD*%
%TO.C,C7*%
G36*
G01*
X93275000Y-65150000D02*
X92325000Y-65150000D01*
G75*
G02*
X92075000Y-64900000I0J250000D01*
G01*
X92075000Y-64225000D01*
G75*
G02*
X92325000Y-63975000I250000J0D01*
G01*
X93275000Y-63975000D01*
G75*
G02*
X93525000Y-64225000I0J-250000D01*
G01*
X93525000Y-64900000D01*
G75*
G02*
X93275000Y-65150000I-250000J0D01*
G01*
G37*
G36*
G01*
X93275000Y-67225000D02*
X92325000Y-67225000D01*
G75*
G02*
X92075000Y-66975000I0J250000D01*
G01*
X92075000Y-66300000D01*
G75*
G02*
X92325000Y-66050000I250000J0D01*
G01*
X93275000Y-66050000D01*
G75*
G02*
X93525000Y-66300000I0J-250000D01*
G01*
X93525000Y-66975000D01*
G75*
G02*
X93275000Y-67225000I-250000J0D01*
G01*
G37*
%TD*%
M02*
