%TF.GenerationSoftware,KiCad,Pcbnew,5.1.10*%
%TF.CreationDate,2021-09-21T18:47:02-07:00*%
%TF.ProjectId,MainBoard,4d61696e-426f-4617-9264-2e6b69636164,rev?*%
%TF.SameCoordinates,Original*%
%TF.FileFunction,Copper,L1,Top*%
%TF.FilePolarity,Positive*%
%FSLAX46Y46*%
G04 Gerber Fmt 4.6, Leading zero omitted, Abs format (unit mm)*
G04 Created by KiCad (PCBNEW 5.1.10) date 2021-09-21 18:47:02*
%MOMM*%
%LPD*%
G01*
G04 APERTURE LIST*
%TA.AperFunction,ComponentPad*%
%ADD10R,1.500000X1.500000*%
%TD*%
%TA.AperFunction,ComponentPad*%
%ADD11C,1.500000*%
%TD*%
%TA.AperFunction,ComponentPad*%
%ADD12O,1.600000X1.600000*%
%TD*%
%TA.AperFunction,ComponentPad*%
%ADD13R,1.600000X1.600000*%
%TD*%
%TA.AperFunction,ComponentPad*%
%ADD14C,2.000000*%
%TD*%
%TA.AperFunction,ComponentPad*%
%ADD15C,2.100000*%
%TD*%
%TA.AperFunction,ComponentPad*%
%ADD16R,2.600000X2.000000*%
%TD*%
%TA.AperFunction,ComponentPad*%
%ADD17R,2.000000X2.600000*%
%TD*%
%TA.AperFunction,ComponentPad*%
%ADD18C,2.400000*%
%TD*%
%TA.AperFunction,ComponentPad*%
%ADD19C,1.150000*%
%TD*%
%TA.AperFunction,ComponentPad*%
%ADD20R,1.150000X1.150000*%
%TD*%
%TA.AperFunction,ComponentPad*%
%ADD21R,2.000000X2.000000*%
%TD*%
%TA.AperFunction,ViaPad*%
%ADD22C,0.800000*%
%TD*%
%TA.AperFunction,Conductor*%
%ADD23C,1.000000*%
%TD*%
%TA.AperFunction,Conductor*%
%ADD24C,0.750000*%
%TD*%
%TA.AperFunction,Conductor*%
%ADD25C,1.250000*%
%TD*%
%TA.AperFunction,Conductor*%
%ADD26C,0.500000*%
%TD*%
%TA.AperFunction,Conductor*%
%ADD27C,2.000000*%
%TD*%
%TA.AperFunction,Conductor*%
%ADD28C,0.254000*%
%TD*%
%TA.AperFunction,Conductor*%
%ADD29C,0.100000*%
%TD*%
G04 APERTURE END LIST*
D10*
%TO.P,Q1,1*%
%TO.N,/drive/IN*%
X85000000Y-111800000D03*
D11*
%TO.P,Q1,3*%
%TO.N,+9V*%
X85000000Y-117000000D03*
%TO.P,Q1,2*%
%TO.N,Net-(Q1-Pad2)*%
X85000000Y-114400000D03*
%TD*%
D10*
%TO.P,Q2,1*%
%TO.N,Net-(Q2-Pad1)*%
X85100000Y-124800000D03*
D11*
%TO.P,Q2,3*%
%TO.N,+9V*%
X85100000Y-119600000D03*
%TO.P,Q2,2*%
%TO.N,Net-(C10-Pad1)*%
X85100000Y-122200000D03*
%TD*%
D12*
%TO.P,D2,2*%
%TO.N,Net-(C3-Pad1)*%
X114600000Y-98800000D03*
D13*
%TO.P,D2,1*%
%TO.N,Net-(C4-Pad2)*%
X114600000Y-93720000D03*
%TD*%
D14*
%TO.P,SW1,7*%
%TO.N,/EFFECT_OUT*%
X94800000Y-130226400D03*
%TO.P,SW1,9*%
%TO.N,/PassThru*%
X94800000Y-139826400D03*
%TO.P,SW1,8*%
%TO.N,/SIG_OUT*%
X94800000Y-135026400D03*
%TO.P,SW1,1*%
%TO.N,/PassThru*%
X105400000Y-130226400D03*
%TO.P,SW1,3*%
%TO.N,Net-(SW1-Pad3)*%
X105400000Y-139826400D03*
%TO.P,SW1,2*%
%TO.N,/SIG_IN*%
X105400000Y-135026400D03*
%TO.P,SW1,4*%
%TO.N,Net-(D4-Pad1)*%
X100100000Y-130225800D03*
%TO.P,SW1,5*%
%TO.N,0*%
X100100000Y-135026400D03*
%TO.P,SW1,6*%
%TO.N,Net-(SW1-Pad3)*%
X100100000Y-139827000D03*
%TD*%
D15*
%TO.P,R21,3*%
%TO.N,VCC*%
X102540000Y-83921600D03*
%TO.P,R21,2*%
%TO.N,Net-(C10-Pad2)*%
X100000000Y-83921600D03*
%TO.P,R21,1*%
%TO.N,Net-(R18-Pad1)*%
X97460000Y-83921600D03*
%TD*%
%TO.P,R20,3*%
%TO.N,Net-(IC1-Pad6)*%
X102540000Y-79933800D03*
%TO.P,R20,2*%
%TO.N,Net-(C9-Pad2)*%
X100000000Y-79933800D03*
%TO.P,R20,1*%
%TO.N,/tone/IN*%
X97460000Y-79933800D03*
%TD*%
%TO.P,R19,3*%
%TO.N,Net-(R19-Pad3)*%
X102540000Y-87909400D03*
%TO.P,R19,2*%
%TO.N,Net-(C4-Pad2)*%
X100000000Y-87909400D03*
%TO.P,R19,1*%
%TO.N,N/C*%
X97460000Y-87909400D03*
%TD*%
D16*
%TO.P,J3,2*%
%TO.N,+9V*%
X99999800Y-61465200D03*
%TO.P,J3,1*%
%TO.N,0*%
X99999800Y-67465200D03*
D17*
%TO.P,J3,3*%
X95299800Y-64465200D03*
%TD*%
D18*
%TO.P,J2,T*%
%TO.N,/SIG_OUT*%
X105689400Y-105877600D03*
%TO.P,J2,S*%
%TO.N,0*%
X92989400Y-105877600D03*
%TO.P,J2,TN*%
X105689400Y-94477600D03*
%TO.P,J2,SN*%
X92989400Y-94477600D03*
%TD*%
%TO.P,J1,T*%
%TO.N,/PassThru*%
X94335600Y-112689400D03*
%TO.P,J1,S*%
%TO.N,0*%
X107035600Y-112689400D03*
%TO.P,J1,TN*%
X94335600Y-124089400D03*
%TO.P,J1,SN*%
X107035600Y-124089400D03*
%TD*%
D19*
%TO.P,C12,2*%
%TO.N,0*%
X100000000Y-74900000D03*
D20*
%TO.P,C12,1*%
%TO.N,+9V*%
X100000000Y-72400000D03*
%TD*%
%TO.P,R18,2*%
%TO.N,Net-(C8-Pad2)*%
%TA.AperFunction,SMDPad,CuDef*%
G36*
G01*
X114400000Y-90749999D02*
X114400000Y-91650001D01*
G75*
G02*
X114150001Y-91900000I-249999J0D01*
G01*
X113449999Y-91900000D01*
G75*
G02*
X113200000Y-91650001I0J249999D01*
G01*
X113200000Y-90749999D01*
G75*
G02*
X113449999Y-90500000I249999J0D01*
G01*
X114150001Y-90500000D01*
G75*
G02*
X114400000Y-90749999I0J-249999D01*
G01*
G37*
%TD.AperFunction*%
%TO.P,R18,1*%
%TO.N,Net-(R18-Pad1)*%
%TA.AperFunction,SMDPad,CuDef*%
G36*
G01*
X116400000Y-90749999D02*
X116400000Y-91650001D01*
G75*
G02*
X116150001Y-91900000I-249999J0D01*
G01*
X115449999Y-91900000D01*
G75*
G02*
X115200000Y-91650001I0J249999D01*
G01*
X115200000Y-90749999D01*
G75*
G02*
X115449999Y-90500000I249999J0D01*
G01*
X116150001Y-90500000D01*
G75*
G02*
X116400000Y-90749999I0J-249999D01*
G01*
G37*
%TD.AperFunction*%
%TD*%
%TO.P,R16,2*%
%TO.N,/tone/IN*%
%TA.AperFunction,SMDPad,CuDef*%
G36*
G01*
X94949999Y-75000000D02*
X95850001Y-75000000D01*
G75*
G02*
X96100000Y-75249999I0J-249999D01*
G01*
X96100000Y-75950001D01*
G75*
G02*
X95850001Y-76200000I-249999J0D01*
G01*
X94949999Y-76200000D01*
G75*
G02*
X94700000Y-75950001I0J249999D01*
G01*
X94700000Y-75249999D01*
G75*
G02*
X94949999Y-75000000I249999J0D01*
G01*
G37*
%TD.AperFunction*%
%TO.P,R16,1*%
%TO.N,VCC*%
%TA.AperFunction,SMDPad,CuDef*%
G36*
G01*
X94949999Y-73000000D02*
X95850001Y-73000000D01*
G75*
G02*
X96100000Y-73249999I0J-249999D01*
G01*
X96100000Y-73950001D01*
G75*
G02*
X95850001Y-74200000I-249999J0D01*
G01*
X94949999Y-74200000D01*
G75*
G02*
X94700000Y-73950001I0J249999D01*
G01*
X94700000Y-73249999D01*
G75*
G02*
X94949999Y-73000000I249999J0D01*
G01*
G37*
%TD.AperFunction*%
%TD*%
%TO.P,R12,2*%
%TO.N,Net-(C10-Pad1)*%
%TA.AperFunction,SMDPad,CuDef*%
G36*
G01*
X84650001Y-128100000D02*
X83749999Y-128100000D01*
G75*
G02*
X83500000Y-127850001I0J249999D01*
G01*
X83500000Y-127149999D01*
G75*
G02*
X83749999Y-126900000I249999J0D01*
G01*
X84650001Y-126900000D01*
G75*
G02*
X84900000Y-127149999I0J-249999D01*
G01*
X84900000Y-127850001D01*
G75*
G02*
X84650001Y-128100000I-249999J0D01*
G01*
G37*
%TD.AperFunction*%
%TO.P,R12,1*%
%TO.N,VCC*%
%TA.AperFunction,SMDPad,CuDef*%
G36*
G01*
X84650001Y-130100000D02*
X83749999Y-130100000D01*
G75*
G02*
X83500000Y-129850001I0J249999D01*
G01*
X83500000Y-129149999D01*
G75*
G02*
X83749999Y-128900000I249999J0D01*
G01*
X84650001Y-128900000D01*
G75*
G02*
X84900000Y-129149999I0J-249999D01*
G01*
X84900000Y-129850001D01*
G75*
G02*
X84650001Y-130100000I-249999J0D01*
G01*
G37*
%TD.AperFunction*%
%TD*%
%TO.P,R11,2*%
%TO.N,0*%
%TA.AperFunction,SMDPad,CuDef*%
G36*
G01*
X107050001Y-71000000D02*
X106149999Y-71000000D01*
G75*
G02*
X105900000Y-70750001I0J249999D01*
G01*
X105900000Y-70049999D01*
G75*
G02*
X106149999Y-69800000I249999J0D01*
G01*
X107050001Y-69800000D01*
G75*
G02*
X107300000Y-70049999I0J-249999D01*
G01*
X107300000Y-70750001D01*
G75*
G02*
X107050001Y-71000000I-249999J0D01*
G01*
G37*
%TD.AperFunction*%
%TO.P,R11,1*%
%TO.N,Net-(C9-Pad1)*%
%TA.AperFunction,SMDPad,CuDef*%
G36*
G01*
X107050001Y-73000000D02*
X106149999Y-73000000D01*
G75*
G02*
X105900000Y-72750001I0J249999D01*
G01*
X105900000Y-72049999D01*
G75*
G02*
X106149999Y-71800000I249999J0D01*
G01*
X107050001Y-71800000D01*
G75*
G02*
X107300000Y-72049999I0J-249999D01*
G01*
X107300000Y-72750001D01*
G75*
G02*
X107050001Y-73000000I-249999J0D01*
G01*
G37*
%TD.AperFunction*%
%TD*%
%TO.P,R10,2*%
%TO.N,0*%
%TA.AperFunction,SMDPad,CuDef*%
G36*
G01*
X93850001Y-70400000D02*
X92949999Y-70400000D01*
G75*
G02*
X92700000Y-70150001I0J249999D01*
G01*
X92700000Y-69449999D01*
G75*
G02*
X92949999Y-69200000I249999J0D01*
G01*
X93850001Y-69200000D01*
G75*
G02*
X94100000Y-69449999I0J-249999D01*
G01*
X94100000Y-70150001D01*
G75*
G02*
X93850001Y-70400000I-249999J0D01*
G01*
G37*
%TD.AperFunction*%
%TO.P,R10,1*%
%TO.N,VCC*%
%TA.AperFunction,SMDPad,CuDef*%
G36*
G01*
X93850001Y-72400000D02*
X92949999Y-72400000D01*
G75*
G02*
X92700000Y-72150001I0J249999D01*
G01*
X92700000Y-71449999D01*
G75*
G02*
X92949999Y-71200000I249999J0D01*
G01*
X93850001Y-71200000D01*
G75*
G02*
X94100000Y-71449999I0J-249999D01*
G01*
X94100000Y-72150001D01*
G75*
G02*
X93850001Y-72400000I-249999J0D01*
G01*
G37*
%TD.AperFunction*%
%TD*%
%TO.P,R9,2*%
%TO.N,VCC*%
%TA.AperFunction,SMDPad,CuDef*%
G36*
G01*
X94949999Y-71200000D02*
X95850001Y-71200000D01*
G75*
G02*
X96100000Y-71449999I0J-249999D01*
G01*
X96100000Y-72150001D01*
G75*
G02*
X95850001Y-72400000I-249999J0D01*
G01*
X94949999Y-72400000D01*
G75*
G02*
X94700000Y-72150001I0J249999D01*
G01*
X94700000Y-71449999D01*
G75*
G02*
X94949999Y-71200000I249999J0D01*
G01*
G37*
%TD.AperFunction*%
%TO.P,R9,1*%
%TO.N,+9V*%
%TA.AperFunction,SMDPad,CuDef*%
G36*
G01*
X94949999Y-69200000D02*
X95850001Y-69200000D01*
G75*
G02*
X96100000Y-69449999I0J-249999D01*
G01*
X96100000Y-70150001D01*
G75*
G02*
X95850001Y-70400000I-249999J0D01*
G01*
X94949999Y-70400000D01*
G75*
G02*
X94700000Y-70150001I0J249999D01*
G01*
X94700000Y-69449999D01*
G75*
G02*
X94949999Y-69200000I249999J0D01*
G01*
G37*
%TD.AperFunction*%
%TD*%
D12*
%TO.P,D5,2*%
%TO.N,0*%
X106680000Y-68122800D03*
D13*
%TO.P,D5,1*%
%TO.N,+9V*%
X106680000Y-60502800D03*
%TD*%
D21*
%TO.P,D4,1*%
%TO.N,Net-(D4-Pad1)*%
X98730000Y-109283560D03*
D14*
%TO.P,D4,2*%
%TO.N,Net-(D4-Pad2)*%
X101270000Y-109283560D03*
%TD*%
D12*
%TO.P,D1,2*%
%TO.N,Net-(C4-Pad2)*%
X114600000Y-106480000D03*
D13*
%TO.P,D1,1*%
%TO.N,Net-(C3-Pad1)*%
X114600000Y-101400000D03*
%TD*%
%TO.P,C10,2*%
%TO.N,Net-(C10-Pad2)*%
%TA.AperFunction,SMDPad,CuDef*%
G36*
G01*
X89712500Y-120075000D02*
X89712500Y-119125000D01*
G75*
G02*
X89962500Y-118875000I250000J0D01*
G01*
X90637500Y-118875000D01*
G75*
G02*
X90887500Y-119125000I0J-250000D01*
G01*
X90887500Y-120075000D01*
G75*
G02*
X90637500Y-120325000I-250000J0D01*
G01*
X89962500Y-120325000D01*
G75*
G02*
X89712500Y-120075000I0J250000D01*
G01*
G37*
%TD.AperFunction*%
%TO.P,C10,1*%
%TO.N,Net-(C10-Pad1)*%
%TA.AperFunction,SMDPad,CuDef*%
G36*
G01*
X87637500Y-120075000D02*
X87637500Y-119125000D01*
G75*
G02*
X87887500Y-118875000I250000J0D01*
G01*
X88562500Y-118875000D01*
G75*
G02*
X88812500Y-119125000I0J-250000D01*
G01*
X88812500Y-120075000D01*
G75*
G02*
X88562500Y-120325000I-250000J0D01*
G01*
X87887500Y-120325000D01*
G75*
G02*
X87637500Y-120075000I0J250000D01*
G01*
G37*
%TD.AperFunction*%
%TD*%
%TO.P,C9,2*%
%TO.N,Net-(C9-Pad2)*%
%TA.AperFunction,SMDPad,CuDef*%
G36*
G01*
X106125000Y-75812500D02*
X107075000Y-75812500D01*
G75*
G02*
X107325000Y-76062500I0J-250000D01*
G01*
X107325000Y-76737500D01*
G75*
G02*
X107075000Y-76987500I-250000J0D01*
G01*
X106125000Y-76987500D01*
G75*
G02*
X105875000Y-76737500I0J250000D01*
G01*
X105875000Y-76062500D01*
G75*
G02*
X106125000Y-75812500I250000J0D01*
G01*
G37*
%TD.AperFunction*%
%TO.P,C9,1*%
%TO.N,Net-(C9-Pad1)*%
%TA.AperFunction,SMDPad,CuDef*%
G36*
G01*
X106125000Y-73737500D02*
X107075000Y-73737500D01*
G75*
G02*
X107325000Y-73987500I0J-250000D01*
G01*
X107325000Y-74662500D01*
G75*
G02*
X107075000Y-74912500I-250000J0D01*
G01*
X106125000Y-74912500D01*
G75*
G02*
X105875000Y-74662500I0J250000D01*
G01*
X105875000Y-73987500D01*
G75*
G02*
X106125000Y-73737500I250000J0D01*
G01*
G37*
%TD.AperFunction*%
%TD*%
%TO.P,C7,2*%
%TO.N,0*%
%TA.AperFunction,SMDPad,CuDef*%
G36*
G01*
X93275000Y-65150000D02*
X92325000Y-65150000D01*
G75*
G02*
X92075000Y-64900000I0J250000D01*
G01*
X92075000Y-64225000D01*
G75*
G02*
X92325000Y-63975000I250000J0D01*
G01*
X93275000Y-63975000D01*
G75*
G02*
X93525000Y-64225000I0J-250000D01*
G01*
X93525000Y-64900000D01*
G75*
G02*
X93275000Y-65150000I-250000J0D01*
G01*
G37*
%TD.AperFunction*%
%TO.P,C7,1*%
%TO.N,VCC*%
%TA.AperFunction,SMDPad,CuDef*%
G36*
G01*
X93275000Y-67225000D02*
X92325000Y-67225000D01*
G75*
G02*
X92075000Y-66975000I0J250000D01*
G01*
X92075000Y-66300000D01*
G75*
G02*
X92325000Y-66050000I250000J0D01*
G01*
X93275000Y-66050000D01*
G75*
G02*
X93525000Y-66300000I0J-250000D01*
G01*
X93525000Y-66975000D01*
G75*
G02*
X93275000Y-67225000I-250000J0D01*
G01*
G37*
%TD.AperFunction*%
%TD*%
D22*
%TO.N,Net-(C3-Pad1)*%
X102462510Y-102225010D03*
%TO.N,Net-(C4-Pad2)*%
X97900000Y-95400000D03*
X100000000Y-94000000D03*
X111000000Y-99600000D03*
%TO.N,VCC*%
X113700000Y-75500000D03*
X99800000Y-104000000D03*
X89400000Y-134200000D03*
%TO.N,Net-(C8-Pad2)*%
X111000000Y-91400000D03*
%TO.N,+9V*%
X103600000Y-90800000D03*
X92800000Y-96800000D03*
%TO.N,Net-(Q1-Pad2)*%
X90900000Y-131400000D03*
%TO.N,Net-(C10-Pad2)*%
X91400000Y-82800000D03*
X94728401Y-82171599D03*
%TO.N,Net-(R18-Pad1)*%
X105551602Y-83500000D03*
%TD*%
D23*
%TO.N,Net-(C3-Pad1)*%
X116400000Y-107800000D02*
X116400000Y-103200000D01*
X115400000Y-108800000D02*
X116400000Y-107800000D01*
X114699998Y-108800000D02*
X115400000Y-108800000D01*
X108125008Y-102225010D02*
X114699998Y-108800000D01*
X116400000Y-103200000D02*
X114600000Y-101400000D01*
X102462510Y-102225010D02*
X108125008Y-102225010D01*
%TO.N,Net-(C4-Pad2)*%
X100000000Y-87909400D02*
X99690600Y-87909400D01*
D24*
X99300000Y-94000000D02*
X97900000Y-95400000D01*
X100000000Y-94000000D02*
X99300000Y-94000000D01*
X99200000Y-88709400D02*
X99200000Y-93200000D01*
X99200000Y-93200000D02*
X100000000Y-94000000D01*
X100000000Y-87909400D02*
X99200000Y-88709400D01*
D23*
X111000000Y-97800000D02*
X111000000Y-99600000D01*
X114600000Y-94200000D02*
X111000000Y-97800000D01*
X114600000Y-93720000D02*
X114600000Y-94200000D01*
D25*
%TO.N,0*%
X92897300Y-64465200D02*
X92800000Y-64562500D01*
X95299800Y-64465200D02*
X92897300Y-64465200D01*
X95299800Y-66470496D02*
X95299800Y-64465200D01*
X93400000Y-68370296D02*
X95299800Y-66470496D01*
X93400000Y-69800000D02*
X93400000Y-68370296D01*
D23*
X106600000Y-68202800D02*
X106680000Y-68122800D01*
X106600000Y-70400000D02*
X106600000Y-68202800D01*
D25*
%TO.N,/tone/IN*%
X95400000Y-77873800D02*
X97460000Y-79933800D01*
X95400000Y-75600000D02*
X95400000Y-77873800D01*
%TO.N,VCC*%
X95400000Y-71800000D02*
X95400000Y-73600000D01*
D23*
%TO.N,Net-(C8-Pad2)*%
X111200000Y-91200000D02*
X111000000Y-91400000D01*
X113800000Y-91200000D02*
X111200000Y-91200000D01*
%TO.N,Net-(C9-Pad1)*%
X106600000Y-74325000D02*
X106600000Y-72400000D01*
%TO.N,Net-(C10-Pad1)*%
X87700000Y-119600000D02*
X85100000Y-122200000D01*
X88225000Y-119600000D02*
X87700000Y-119600000D01*
X83649999Y-126949999D02*
X84200000Y-127500000D01*
X83649999Y-123650001D02*
X83649999Y-126949999D01*
X85100000Y-122200000D02*
X83649999Y-123650001D01*
D25*
%TO.N,+9V*%
X105717600Y-61465200D02*
X106680000Y-60502800D01*
X99999800Y-61465200D02*
X105717600Y-61465200D01*
X97874799Y-63590201D02*
X99999800Y-61465200D01*
X97874799Y-68025201D02*
X97874799Y-63590201D01*
X96100000Y-69800000D02*
X97874799Y-68025201D01*
X95400000Y-69800000D02*
X96100000Y-69800000D01*
D23*
X97874799Y-70274799D02*
X97874799Y-68025201D01*
X100000000Y-72400000D02*
X97874799Y-70274799D01*
X103600000Y-90800000D02*
X105000000Y-92200000D01*
X105000000Y-92200000D02*
X100400000Y-96800000D01*
X100400000Y-96800000D02*
X92800000Y-96800000D01*
D26*
%TO.N,Net-(Q1-Pad2)*%
X89600000Y-131400000D02*
X90900000Y-131400000D01*
X88500000Y-130300000D02*
X89600000Y-131400000D01*
X89262500Y-123037500D02*
X88500000Y-123800000D01*
X88500000Y-123800000D02*
X88500000Y-130300000D01*
X89298767Y-118798767D02*
X89262500Y-118835034D01*
X89262500Y-118835034D02*
X89262500Y-123037500D01*
X89298767Y-118698767D02*
X89298767Y-118798767D01*
X85000000Y-114400000D02*
X89298767Y-118698767D01*
D23*
%TO.N,Net-(C9-Pad2)*%
X103533800Y-76400000D02*
X100000000Y-79933800D01*
X106600000Y-76400000D02*
X103533800Y-76400000D01*
%TO.N,Net-(C10-Pad2)*%
X98224599Y-82171599D02*
X100000000Y-83947000D01*
X90511282Y-119388718D02*
X90511282Y-83688718D01*
X90300000Y-119600000D02*
X90511282Y-119388718D01*
X90511282Y-83688718D02*
X91400000Y-82800000D01*
X94728401Y-82171599D02*
X98224599Y-82171599D01*
%TO.N,Net-(R18-Pad1)*%
X111400000Y-83500000D02*
X115800000Y-87900000D01*
D24*
X105551602Y-83681654D02*
X105551602Y-83500000D01*
D23*
X105551602Y-83500000D02*
X111400000Y-83500000D01*
X115800000Y-87900000D02*
X115800000Y-91200000D01*
D27*
%TO.N,Net-(D4-Pad1)*%
X98730000Y-128855800D02*
X100100000Y-130225800D01*
X98730000Y-109283560D02*
X98730000Y-128855800D01*
%TO.N,/PassThru*%
X97000001Y-137626399D02*
X94800000Y-139826400D01*
X106056003Y-137626399D02*
X97000001Y-137626399D01*
X107600001Y-132426401D02*
X107600001Y-136082401D01*
X107600001Y-136082401D02*
X106056003Y-137626399D01*
X105400000Y-130226400D02*
X107600001Y-132426401D01*
%TD*%
D28*
%TO.N,VCC*%
X110262308Y-56389723D02*
X110273787Y-56393201D01*
X110284389Y-56398866D01*
X110293585Y-56406412D01*
X110301133Y-56415611D01*
X110306798Y-56426214D01*
X110310276Y-56437690D01*
X110315001Y-56485735D01*
X110315000Y-58736104D01*
X110318242Y-58769023D01*
X110318103Y-58788955D01*
X110319104Y-58799168D01*
X110384385Y-59420277D01*
X110397791Y-59485584D01*
X110410264Y-59550970D01*
X110413229Y-59560795D01*
X110597908Y-60157395D01*
X110623746Y-60218862D01*
X110648679Y-60280573D01*
X110653496Y-60289634D01*
X110950538Y-60839001D01*
X110987798Y-60894240D01*
X111024267Y-60949971D01*
X111030753Y-60957924D01*
X111428844Y-61439133D01*
X111476134Y-61486094D01*
X111522722Y-61533668D01*
X111530629Y-61540210D01*
X112014605Y-61934931D01*
X112070113Y-61971811D01*
X112125059Y-62009433D01*
X112134086Y-62014315D01*
X112685514Y-62307514D01*
X112747141Y-62332915D01*
X112808334Y-62359142D01*
X112818137Y-62362177D01*
X113416012Y-62542686D01*
X113481411Y-62555635D01*
X113546520Y-62569475D01*
X113556726Y-62570548D01*
X114178276Y-62631492D01*
X114213894Y-62635000D01*
X116464284Y-62635000D01*
X116512308Y-62639723D01*
X116523787Y-62643201D01*
X116534389Y-62648866D01*
X116543585Y-62656412D01*
X116551133Y-62665611D01*
X116556798Y-62676214D01*
X116560276Y-62687690D01*
X116565001Y-62735735D01*
X116565000Y-87059535D01*
X116563146Y-87058013D01*
X112241996Y-82736865D01*
X112206449Y-82693551D01*
X112033623Y-82551716D01*
X111836447Y-82446324D01*
X111622499Y-82381423D01*
X111455752Y-82365000D01*
X111455751Y-82365000D01*
X111400000Y-82359509D01*
X111344249Y-82365000D01*
X105495850Y-82365000D01*
X105329103Y-82381423D01*
X105115155Y-82446324D01*
X104917979Y-82551716D01*
X104745153Y-82693551D01*
X104603318Y-82866377D01*
X104497926Y-83063553D01*
X104433025Y-83277501D01*
X104411111Y-83500000D01*
X104433025Y-83722499D01*
X104497926Y-83936447D01*
X104603318Y-84133623D01*
X104745153Y-84306449D01*
X104783826Y-84338187D01*
X104833969Y-84399287D01*
X104987762Y-84525501D01*
X105163222Y-84619286D01*
X105353608Y-84677039D01*
X105551602Y-84696540D01*
X105749595Y-84677039D01*
X105888179Y-84635000D01*
X110929869Y-84635000D01*
X111472004Y-85177135D01*
X111145408Y-85242100D01*
X110737000Y-85411268D01*
X110369443Y-85656861D01*
X110056861Y-85969443D01*
X109811268Y-86337000D01*
X109642100Y-86745408D01*
X109555858Y-87178971D01*
X109555858Y-87621029D01*
X109642100Y-88054592D01*
X109811268Y-88463000D01*
X110056861Y-88830557D01*
X110369443Y-89143139D01*
X110737000Y-89388732D01*
X111145408Y-89557900D01*
X111578971Y-89644142D01*
X112021029Y-89644142D01*
X112454592Y-89557900D01*
X112863000Y-89388732D01*
X113230557Y-89143139D01*
X113543139Y-88830557D01*
X113788732Y-88463000D01*
X113957900Y-88054592D01*
X114022864Y-87727997D01*
X114665000Y-88370133D01*
X114665001Y-90029333D01*
X114643387Y-90011595D01*
X114489851Y-89929528D01*
X114323255Y-89878992D01*
X114150001Y-89861928D01*
X113449999Y-89861928D01*
X113276745Y-89878992D01*
X113110149Y-89929528D01*
X112956613Y-90011595D01*
X112891539Y-90065000D01*
X111255752Y-90065000D01*
X111200000Y-90059509D01*
X111144249Y-90065000D01*
X111144248Y-90065000D01*
X110977501Y-90081423D01*
X110763553Y-90146324D01*
X110566377Y-90251716D01*
X110393551Y-90393551D01*
X110358007Y-90436861D01*
X110158012Y-90636857D01*
X110051717Y-90766378D01*
X109946324Y-90963554D01*
X109881423Y-91177502D01*
X109859509Y-91400000D01*
X109881423Y-91622498D01*
X109946324Y-91836446D01*
X110051717Y-92033622D01*
X110193552Y-92206448D01*
X110366378Y-92348283D01*
X110563554Y-92453676D01*
X110777502Y-92518577D01*
X111000000Y-92540491D01*
X111222498Y-92518577D01*
X111436446Y-92453676D01*
X111633622Y-92348283D01*
X111649807Y-92335000D01*
X112891539Y-92335000D01*
X112956613Y-92388405D01*
X113110149Y-92470472D01*
X113276745Y-92521008D01*
X113303795Y-92523672D01*
X113269463Y-92565506D01*
X113210498Y-92675820D01*
X113174188Y-92795518D01*
X113161928Y-92920000D01*
X113161928Y-94032940D01*
X110236865Y-96958004D01*
X110193551Y-96993551D01*
X110051716Y-97166377D01*
X109946325Y-97363553D01*
X109946324Y-97363554D01*
X109881423Y-97577502D01*
X109859509Y-97800000D01*
X109865000Y-97855751D01*
X109865000Y-99655752D01*
X109881424Y-99822499D01*
X109946325Y-100036447D01*
X110051717Y-100233623D01*
X110193552Y-100406449D01*
X110366378Y-100548284D01*
X110563554Y-100653676D01*
X110777502Y-100718577D01*
X111000000Y-100740491D01*
X111222499Y-100718577D01*
X111436447Y-100653676D01*
X111633623Y-100548284D01*
X111806449Y-100406449D01*
X111948284Y-100233623D01*
X112053676Y-100036447D01*
X112118577Y-99822499D01*
X112135000Y-99655752D01*
X112135000Y-98270131D01*
X115247060Y-95158072D01*
X115400000Y-95158072D01*
X115524482Y-95145812D01*
X115644180Y-95109502D01*
X115754494Y-95050537D01*
X115851185Y-94971185D01*
X115930537Y-94874494D01*
X115989502Y-94764180D01*
X116025812Y-94644482D01*
X116038072Y-94520000D01*
X116038072Y-92920000D01*
X116025812Y-92795518D01*
X115989502Y-92675820D01*
X115930537Y-92565506D01*
X115908023Y-92538072D01*
X116150001Y-92538072D01*
X116323255Y-92521008D01*
X116489851Y-92470472D01*
X116565000Y-92430304D01*
X116565000Y-101759868D01*
X116038072Y-101232941D01*
X116038072Y-100600000D01*
X116025812Y-100475518D01*
X115989502Y-100355820D01*
X115930537Y-100245506D01*
X115851185Y-100148815D01*
X115754494Y-100069463D01*
X115644180Y-100010498D01*
X115524482Y-99974188D01*
X115438333Y-99965703D01*
X115514759Y-99914637D01*
X115714637Y-99714759D01*
X115871680Y-99479727D01*
X115979853Y-99218574D01*
X116035000Y-98941335D01*
X116035000Y-98658665D01*
X115979853Y-98381426D01*
X115871680Y-98120273D01*
X115714637Y-97885241D01*
X115514759Y-97685363D01*
X115279727Y-97528320D01*
X115018574Y-97420147D01*
X114741335Y-97365000D01*
X114458665Y-97365000D01*
X114181426Y-97420147D01*
X113920273Y-97528320D01*
X113685241Y-97685363D01*
X113485363Y-97885241D01*
X113328320Y-98120273D01*
X113220147Y-98381426D01*
X113165000Y-98658665D01*
X113165000Y-98941335D01*
X113220147Y-99218574D01*
X113328320Y-99479727D01*
X113485363Y-99714759D01*
X113685241Y-99914637D01*
X113761667Y-99965703D01*
X113675518Y-99974188D01*
X113555820Y-100010498D01*
X113445506Y-100069463D01*
X113348815Y-100148815D01*
X113269463Y-100245506D01*
X113210498Y-100355820D01*
X113174188Y-100475518D01*
X113161928Y-100600000D01*
X113161928Y-102200000D01*
X113174188Y-102324482D01*
X113210498Y-102444180D01*
X113269463Y-102554494D01*
X113348815Y-102651185D01*
X113445506Y-102730537D01*
X113555820Y-102789502D01*
X113675518Y-102825812D01*
X113800000Y-102838072D01*
X114432941Y-102838072D01*
X115265001Y-103670133D01*
X115265001Y-105202220D01*
X115018574Y-105100147D01*
X114741335Y-105045000D01*
X114458665Y-105045000D01*
X114181426Y-105100147D01*
X113920273Y-105208320D01*
X113685241Y-105365363D01*
X113485363Y-105565241D01*
X113328320Y-105800273D01*
X113321608Y-105816478D01*
X108967004Y-101461875D01*
X108931457Y-101418561D01*
X108758631Y-101276726D01*
X108561455Y-101171334D01*
X108347507Y-101106433D01*
X108180760Y-101090010D01*
X108180759Y-101090010D01*
X108125008Y-101084519D01*
X108069257Y-101090010D01*
X102406758Y-101090010D01*
X102240011Y-101106433D01*
X102026063Y-101171334D01*
X101828887Y-101276726D01*
X101656061Y-101418561D01*
X101514226Y-101591387D01*
X101408834Y-101788563D01*
X101343933Y-102002511D01*
X101322019Y-102225010D01*
X101343933Y-102447509D01*
X101408834Y-102661457D01*
X101514226Y-102858633D01*
X101656061Y-103031459D01*
X101828887Y-103173294D01*
X102026063Y-103278686D01*
X102240011Y-103343587D01*
X102406758Y-103360010D01*
X107654877Y-103360010D01*
X113858007Y-109563141D01*
X113893549Y-109606449D01*
X114066375Y-109748284D01*
X114263551Y-109853676D01*
X114477499Y-109918577D01*
X114699997Y-109940491D01*
X114755749Y-109935000D01*
X115344249Y-109935000D01*
X115400000Y-109940491D01*
X115455751Y-109935000D01*
X115455752Y-109935000D01*
X115622499Y-109918577D01*
X115836447Y-109853676D01*
X116033623Y-109748284D01*
X116206449Y-109606449D01*
X116241995Y-109563136D01*
X116565000Y-109240132D01*
X116564999Y-137214284D01*
X116560276Y-137262309D01*
X116556798Y-137273785D01*
X116551133Y-137284388D01*
X116543585Y-137293587D01*
X116534389Y-137301133D01*
X116523787Y-137306798D01*
X116512308Y-137310276D01*
X116464274Y-137315000D01*
X114213895Y-137315000D01*
X114180943Y-137318245D01*
X114160696Y-137318104D01*
X114150483Y-137319105D01*
X113519669Y-137385406D01*
X113454362Y-137398812D01*
X113388976Y-137411285D01*
X113379151Y-137414250D01*
X112773228Y-137601816D01*
X112711813Y-137627633D01*
X112650052Y-137652586D01*
X112640991Y-137657403D01*
X112083039Y-137959086D01*
X112027784Y-137996356D01*
X111972069Y-138032815D01*
X111964116Y-138039301D01*
X111475388Y-138443612D01*
X111428411Y-138490918D01*
X111380853Y-138537490D01*
X111374311Y-138545397D01*
X110973422Y-139036935D01*
X110936543Y-139092443D01*
X110898921Y-139147388D01*
X110894040Y-139156415D01*
X110596259Y-139716459D01*
X110570861Y-139778079D01*
X110544630Y-139839280D01*
X110541596Y-139849079D01*
X110541596Y-139849081D01*
X110541595Y-139849083D01*
X110358266Y-140456300D01*
X110345323Y-140521668D01*
X110331477Y-140586809D01*
X110330404Y-140597015D01*
X110268508Y-141228276D01*
X110268508Y-141228287D01*
X110265001Y-141263895D01*
X110265000Y-143514274D01*
X110260276Y-143562309D01*
X110256798Y-143573785D01*
X110251133Y-143584388D01*
X110243585Y-143593587D01*
X110234389Y-143601133D01*
X110223787Y-143606798D01*
X110212308Y-143610276D01*
X110164274Y-143615000D01*
X89735725Y-143615000D01*
X89687690Y-143610276D01*
X89676214Y-143606798D01*
X89665611Y-143601133D01*
X89656412Y-143593585D01*
X89648866Y-143584389D01*
X89643201Y-143573787D01*
X89639723Y-143562308D01*
X89634999Y-143514274D01*
X89634999Y-141263895D01*
X89631761Y-141231018D01*
X89631898Y-141211394D01*
X89630897Y-141201181D01*
X89566636Y-140589777D01*
X89553235Y-140524493D01*
X89540758Y-140459085D01*
X89537792Y-140449260D01*
X89355999Y-139861981D01*
X89341043Y-139826400D01*
X93157089Y-139826400D01*
X93165000Y-139906719D01*
X93165000Y-139987433D01*
X93180747Y-140066601D01*
X93188658Y-140146916D01*
X93212084Y-140224143D01*
X93227832Y-140303312D01*
X93258721Y-140377883D01*
X93282148Y-140455114D01*
X93320194Y-140526292D01*
X93351082Y-140600863D01*
X93395926Y-140667976D01*
X93433970Y-140739152D01*
X93485169Y-140801538D01*
X93530013Y-140868652D01*
X93587089Y-140925728D01*
X93638287Y-140988113D01*
X93700672Y-141039311D01*
X93757748Y-141096387D01*
X93824862Y-141141231D01*
X93887248Y-141192430D01*
X93958424Y-141230474D01*
X94025537Y-141275318D01*
X94100108Y-141306206D01*
X94171286Y-141344252D01*
X94248517Y-141367679D01*
X94323088Y-141398568D01*
X94402257Y-141414316D01*
X94479484Y-141437742D01*
X94559799Y-141445653D01*
X94638967Y-141461400D01*
X94719681Y-141461400D01*
X94800000Y-141469311D01*
X94880319Y-141461400D01*
X94961033Y-141461400D01*
X95040201Y-141445653D01*
X95120516Y-141437742D01*
X95197743Y-141414316D01*
X95276912Y-141398568D01*
X95351483Y-141367679D01*
X95428714Y-141344252D01*
X95499892Y-141306206D01*
X95574463Y-141275318D01*
X95641576Y-141230474D01*
X95712752Y-141192430D01*
X95775137Y-141141232D01*
X95842252Y-141096387D01*
X96069987Y-140868652D01*
X96069989Y-140868649D01*
X97677240Y-139261399D01*
X98564568Y-139261399D01*
X98527832Y-139350088D01*
X98465000Y-139665967D01*
X98465000Y-139988033D01*
X98527832Y-140303912D01*
X98651082Y-140601463D01*
X98830013Y-140869252D01*
X99057748Y-141096987D01*
X99325537Y-141275918D01*
X99623088Y-141399168D01*
X99938967Y-141462000D01*
X100261033Y-141462000D01*
X100576912Y-141399168D01*
X100874463Y-141275918D01*
X101142252Y-141096987D01*
X101369987Y-140869252D01*
X101548918Y-140601463D01*
X101672168Y-140303912D01*
X101735000Y-139988033D01*
X101735000Y-139665967D01*
X101672168Y-139350088D01*
X101635432Y-139261399D01*
X103864320Y-139261399D01*
X103827832Y-139349488D01*
X103765000Y-139665367D01*
X103765000Y-139987433D01*
X103827832Y-140303312D01*
X103951082Y-140600863D01*
X104130013Y-140868652D01*
X104357748Y-141096387D01*
X104625537Y-141275318D01*
X104923088Y-141398568D01*
X105238967Y-141461400D01*
X105561033Y-141461400D01*
X105876912Y-141398568D01*
X106174463Y-141275318D01*
X106442252Y-141096387D01*
X106669987Y-140868652D01*
X106848918Y-140600863D01*
X106972168Y-140303312D01*
X107035000Y-139987433D01*
X107035000Y-139665367D01*
X106972168Y-139349488D01*
X106850460Y-139055660D01*
X106968755Y-138992430D01*
X107217717Y-138788113D01*
X107268928Y-138725713D01*
X108699319Y-137295322D01*
X108761715Y-137244115D01*
X108966032Y-136995153D01*
X109117853Y-136711116D01*
X109211344Y-136402917D01*
X109235001Y-136162723D01*
X109235001Y-136162721D01*
X109242912Y-136082401D01*
X109235001Y-136002082D01*
X109235001Y-132506720D01*
X109242912Y-132426400D01*
X109227724Y-132272195D01*
X109211344Y-132105885D01*
X109117853Y-131797686D01*
X108966032Y-131513649D01*
X108761715Y-131264687D01*
X108699321Y-131213482D01*
X106669989Y-129184151D01*
X106669987Y-129184148D01*
X106442252Y-128956413D01*
X106375137Y-128911568D01*
X106312752Y-128860370D01*
X106241576Y-128822326D01*
X106174463Y-128777482D01*
X106099892Y-128746594D01*
X106028714Y-128708548D01*
X105951483Y-128685121D01*
X105876912Y-128654232D01*
X105797743Y-128638484D01*
X105720516Y-128615058D01*
X105640201Y-128607147D01*
X105561033Y-128591400D01*
X105480319Y-128591400D01*
X105400000Y-128583489D01*
X105319681Y-128591400D01*
X105238967Y-128591400D01*
X105159799Y-128607147D01*
X105079484Y-128615058D01*
X105002257Y-128638484D01*
X104923088Y-128654232D01*
X104848517Y-128685121D01*
X104771286Y-128708548D01*
X104700108Y-128746594D01*
X104625537Y-128777482D01*
X104558424Y-128822326D01*
X104487248Y-128860370D01*
X104424862Y-128911569D01*
X104357748Y-128956413D01*
X104300672Y-129013489D01*
X104238287Y-129064687D01*
X104187089Y-129127072D01*
X104130013Y-129184148D01*
X104085169Y-129251262D01*
X104033970Y-129313648D01*
X103995926Y-129384824D01*
X103951082Y-129451937D01*
X103920194Y-129526508D01*
X103882148Y-129597686D01*
X103858721Y-129674917D01*
X103827832Y-129749488D01*
X103812084Y-129828657D01*
X103788658Y-129905884D01*
X103780747Y-129986199D01*
X103765000Y-130065367D01*
X103765000Y-130146081D01*
X103757089Y-130226400D01*
X103765000Y-130306719D01*
X103765000Y-130387433D01*
X103780747Y-130466601D01*
X103788658Y-130546916D01*
X103812084Y-130624143D01*
X103827832Y-130703312D01*
X103858721Y-130777883D01*
X103882148Y-130855114D01*
X103920194Y-130926292D01*
X103951082Y-131000863D01*
X103995926Y-131067976D01*
X104033970Y-131139152D01*
X104085168Y-131201537D01*
X104130013Y-131268652D01*
X104357748Y-131496387D01*
X104357751Y-131496389D01*
X105965001Y-133103640D01*
X105965001Y-133490720D01*
X105876912Y-133454232D01*
X105561033Y-133391400D01*
X105238967Y-133391400D01*
X104923088Y-133454232D01*
X104625537Y-133577482D01*
X104357748Y-133756413D01*
X104130013Y-133984148D01*
X103951082Y-134251937D01*
X103827832Y-134549488D01*
X103765000Y-134865367D01*
X103765000Y-135187433D01*
X103827832Y-135503312D01*
X103951082Y-135800863D01*
X104078394Y-135991399D01*
X101421606Y-135991399D01*
X101548918Y-135800863D01*
X101672168Y-135503312D01*
X101735000Y-135187433D01*
X101735000Y-134865367D01*
X101672168Y-134549488D01*
X101548918Y-134251937D01*
X101369987Y-133984148D01*
X101142252Y-133756413D01*
X100874463Y-133577482D01*
X100576912Y-133454232D01*
X100261033Y-133391400D01*
X99938967Y-133391400D01*
X99623088Y-133454232D01*
X99325537Y-133577482D01*
X99057748Y-133756413D01*
X98830013Y-133984148D01*
X98651082Y-134251937D01*
X98527832Y-134549488D01*
X98465000Y-134865367D01*
X98465000Y-135187433D01*
X98527832Y-135503312D01*
X98651082Y-135800863D01*
X98778394Y-135991399D01*
X97080320Y-135991399D01*
X97000000Y-135983488D01*
X96919681Y-135991399D01*
X96919679Y-135991399D01*
X96679485Y-136015056D01*
X96371286Y-136108547D01*
X96087249Y-136260368D01*
X95838287Y-136464685D01*
X95787081Y-136527081D01*
X93757751Y-138556411D01*
X93757748Y-138556413D01*
X93530013Y-138784148D01*
X93485168Y-138851263D01*
X93433970Y-138913648D01*
X93395926Y-138984824D01*
X93351082Y-139051937D01*
X93320194Y-139126508D01*
X93282148Y-139197686D01*
X93258721Y-139274917D01*
X93227832Y-139349488D01*
X93212084Y-139428657D01*
X93188658Y-139505884D01*
X93180747Y-139586199D01*
X93165000Y-139665367D01*
X93165000Y-139746081D01*
X93157089Y-139826400D01*
X89341043Y-139826400D01*
X89330166Y-139800526D01*
X89305228Y-139738803D01*
X89300411Y-139729742D01*
X89008010Y-139188958D01*
X88970733Y-139133694D01*
X88934281Y-139077989D01*
X88927796Y-139070036D01*
X88535925Y-138596346D01*
X88488654Y-138549403D01*
X88442046Y-138501809D01*
X88434145Y-138495273D01*
X88434140Y-138495268D01*
X88434135Y-138495264D01*
X87957724Y-138106713D01*
X87902200Y-138069823D01*
X87847272Y-138032213D01*
X87838248Y-138027333D01*
X87838240Y-138027329D01*
X87295434Y-137738714D01*
X87233828Y-137713321D01*
X87172614Y-137687085D01*
X87162811Y-137684050D01*
X86574276Y-137506361D01*
X86508895Y-137493415D01*
X86443767Y-137479572D01*
X86433563Y-137478499D01*
X86433561Y-137478499D01*
X85821723Y-137418508D01*
X85786105Y-137415000D01*
X83535725Y-137415000D01*
X83487690Y-137410276D01*
X83476214Y-137406798D01*
X83465611Y-137401133D01*
X83456412Y-137393585D01*
X83448866Y-137384389D01*
X83443201Y-137373787D01*
X83439723Y-137362308D01*
X83435000Y-137314284D01*
X83435000Y-134865367D01*
X93165000Y-134865367D01*
X93165000Y-135187433D01*
X93227832Y-135503312D01*
X93351082Y-135800863D01*
X93530013Y-136068652D01*
X93757748Y-136296387D01*
X94025537Y-136475318D01*
X94323088Y-136598568D01*
X94638967Y-136661400D01*
X94961033Y-136661400D01*
X95276912Y-136598568D01*
X95574463Y-136475318D01*
X95842252Y-136296387D01*
X96069987Y-136068652D01*
X96248918Y-135800863D01*
X96372168Y-135503312D01*
X96435000Y-135187433D01*
X96435000Y-134865367D01*
X96372168Y-134549488D01*
X96248918Y-134251937D01*
X96069987Y-133984148D01*
X95842252Y-133756413D01*
X95574463Y-133577482D01*
X95276912Y-133454232D01*
X94961033Y-133391400D01*
X94638967Y-133391400D01*
X94323088Y-133454232D01*
X94025537Y-133577482D01*
X93757748Y-133756413D01*
X93530013Y-133984148D01*
X93351082Y-134251937D01*
X93227832Y-134549488D01*
X93165000Y-134865367D01*
X83435000Y-134865367D01*
X83435000Y-130731670D01*
X83500000Y-130738072D01*
X83914250Y-130735000D01*
X84073000Y-130576250D01*
X84073000Y-129627000D01*
X84327000Y-129627000D01*
X84327000Y-130576250D01*
X84485750Y-130735000D01*
X84900000Y-130738072D01*
X85024482Y-130725812D01*
X85144180Y-130689502D01*
X85254494Y-130630537D01*
X85351185Y-130551185D01*
X85430537Y-130454494D01*
X85489502Y-130344180D01*
X85525812Y-130224482D01*
X85538072Y-130100000D01*
X85535000Y-129785750D01*
X85376250Y-129627000D01*
X84327000Y-129627000D01*
X84073000Y-129627000D01*
X84053000Y-129627000D01*
X84053000Y-129373000D01*
X84073000Y-129373000D01*
X84073000Y-129353000D01*
X84327000Y-129353000D01*
X84327000Y-129373000D01*
X85376250Y-129373000D01*
X85535000Y-129214250D01*
X85538072Y-128900000D01*
X85525812Y-128775518D01*
X85489502Y-128655820D01*
X85430537Y-128545506D01*
X85351185Y-128448815D01*
X85321724Y-128424637D01*
X85388405Y-128343387D01*
X85470472Y-128189851D01*
X85521008Y-128023255D01*
X85538072Y-127850001D01*
X85538072Y-127149999D01*
X85521008Y-126976745D01*
X85470472Y-126810149D01*
X85388405Y-126656613D01*
X85277962Y-126522038D01*
X85143387Y-126411595D01*
X84989851Y-126329528D01*
X84823255Y-126278992D01*
X84784999Y-126275224D01*
X84784999Y-126188072D01*
X85850000Y-126188072D01*
X85974482Y-126175812D01*
X86094180Y-126139502D01*
X86204494Y-126080537D01*
X86301185Y-126001185D01*
X86380537Y-125904494D01*
X86439502Y-125794180D01*
X86475812Y-125674482D01*
X86488072Y-125550000D01*
X86488072Y-124050000D01*
X86475812Y-123925518D01*
X86439502Y-123805820D01*
X86380537Y-123695506D01*
X86301185Y-123598815D01*
X86204494Y-123519463D01*
X86094180Y-123460498D01*
X85974482Y-123424188D01*
X85850000Y-123411928D01*
X85779155Y-123411928D01*
X85982886Y-123275799D01*
X86175799Y-123082886D01*
X86327371Y-122856043D01*
X86431775Y-122603989D01*
X86464212Y-122440919D01*
X87942060Y-120963072D01*
X88377501Y-120963072D01*
X88377501Y-122670920D01*
X87904956Y-123143466D01*
X87871183Y-123171183D01*
X87760589Y-123305942D01*
X87678411Y-123459688D01*
X87649756Y-123554150D01*
X87627805Y-123626510D01*
X87626212Y-123642686D01*
X87615000Y-123756524D01*
X87615000Y-123756531D01*
X87610719Y-123800000D01*
X87615000Y-123843469D01*
X87615001Y-130256521D01*
X87610719Y-130300000D01*
X87627805Y-130473490D01*
X87678412Y-130640313D01*
X87760590Y-130794059D01*
X87843468Y-130895046D01*
X87843471Y-130895049D01*
X87871184Y-130928817D01*
X87904951Y-130956529D01*
X88943470Y-131995049D01*
X88971183Y-132028817D01*
X89004951Y-132056530D01*
X89004953Y-132056532D01*
X89065090Y-132105885D01*
X89105941Y-132139411D01*
X89259687Y-132221589D01*
X89375903Y-132256843D01*
X89426509Y-132272195D01*
X89441306Y-132273652D01*
X89556523Y-132285000D01*
X89556531Y-132285000D01*
X89600000Y-132289281D01*
X89643469Y-132285000D01*
X90361546Y-132285000D01*
X90409744Y-132317205D01*
X90598102Y-132395226D01*
X90798061Y-132435000D01*
X91001939Y-132435000D01*
X91201898Y-132395226D01*
X91390256Y-132317205D01*
X91559774Y-132203937D01*
X91703937Y-132059774D01*
X91817205Y-131890256D01*
X91895226Y-131701898D01*
X91935000Y-131501939D01*
X91935000Y-131298061D01*
X91895226Y-131098102D01*
X91817205Y-130909744D01*
X91703937Y-130740226D01*
X91559774Y-130596063D01*
X91390256Y-130482795D01*
X91201898Y-130404774D01*
X91001939Y-130365000D01*
X90798061Y-130365000D01*
X90598102Y-130404774D01*
X90409744Y-130482795D01*
X90361546Y-130515000D01*
X89966579Y-130515000D01*
X89516946Y-130065367D01*
X93165000Y-130065367D01*
X93165000Y-130387433D01*
X93227832Y-130703312D01*
X93351082Y-131000863D01*
X93530013Y-131268652D01*
X93757748Y-131496387D01*
X94025537Y-131675318D01*
X94323088Y-131798568D01*
X94638967Y-131861400D01*
X94961033Y-131861400D01*
X95276912Y-131798568D01*
X95574463Y-131675318D01*
X95842252Y-131496387D01*
X96069987Y-131268652D01*
X96248918Y-131000863D01*
X96372168Y-130703312D01*
X96435000Y-130387433D01*
X96435000Y-130065367D01*
X96372168Y-129749488D01*
X96248918Y-129451937D01*
X96069987Y-129184148D01*
X95842252Y-128956413D01*
X95691675Y-128855800D01*
X97087089Y-128855800D01*
X97118658Y-129176316D01*
X97212148Y-129484514D01*
X97212149Y-129484515D01*
X97363970Y-129768552D01*
X97568287Y-130017514D01*
X97630681Y-130068720D01*
X99000676Y-131438716D01*
X99000682Y-131438721D01*
X99057748Y-131495787D01*
X99124855Y-131540626D01*
X99187247Y-131591830D01*
X99258428Y-131629877D01*
X99325537Y-131674718D01*
X99400103Y-131705604D01*
X99471285Y-131743652D01*
X99548522Y-131767082D01*
X99623088Y-131797968D01*
X99702247Y-131813714D01*
X99779483Y-131837143D01*
X99859807Y-131845054D01*
X99938967Y-131860800D01*
X100019678Y-131860800D01*
X100100000Y-131868711D01*
X100180322Y-131860800D01*
X100261033Y-131860800D01*
X100340193Y-131845054D01*
X100420516Y-131837143D01*
X100497751Y-131813714D01*
X100576912Y-131797968D01*
X100651479Y-131767081D01*
X100728715Y-131743652D01*
X100799896Y-131705605D01*
X100874463Y-131674718D01*
X100941575Y-131629875D01*
X101012752Y-131591830D01*
X101075138Y-131540631D01*
X101142252Y-131495787D01*
X101199328Y-131438711D01*
X101261713Y-131387513D01*
X101312911Y-131325128D01*
X101369987Y-131268052D01*
X101414831Y-131200938D01*
X101466030Y-131138552D01*
X101504075Y-131067375D01*
X101548918Y-131000263D01*
X101579805Y-130925696D01*
X101617852Y-130854515D01*
X101641281Y-130777279D01*
X101672168Y-130702712D01*
X101687914Y-130623551D01*
X101711343Y-130546316D01*
X101719254Y-130465993D01*
X101735000Y-130386833D01*
X101735000Y-130306122D01*
X101742911Y-130225800D01*
X101735000Y-130145478D01*
X101735000Y-130064767D01*
X101719254Y-129985607D01*
X101711343Y-129905283D01*
X101687914Y-129828047D01*
X101672168Y-129748888D01*
X101641282Y-129674322D01*
X101617852Y-129597085D01*
X101579804Y-129525903D01*
X101548918Y-129451337D01*
X101504077Y-129384228D01*
X101466030Y-129313047D01*
X101414826Y-129250655D01*
X101369987Y-129183548D01*
X101312921Y-129126482D01*
X101312916Y-129126476D01*
X100365000Y-128178561D01*
X100365000Y-123908668D01*
X105200600Y-123908668D01*
X105200600Y-124270132D01*
X105271118Y-124624650D01*
X105409444Y-124958599D01*
X105610262Y-125259144D01*
X105865856Y-125514738D01*
X106166401Y-125715556D01*
X106500350Y-125853882D01*
X106854868Y-125924400D01*
X107216332Y-125924400D01*
X107570850Y-125853882D01*
X107904799Y-125715556D01*
X108205344Y-125514738D01*
X108460938Y-125259144D01*
X108661756Y-124958599D01*
X108800082Y-124624650D01*
X108870600Y-124270132D01*
X108870600Y-123908668D01*
X108800082Y-123554150D01*
X108661756Y-123220201D01*
X108460938Y-122919656D01*
X108205344Y-122664062D01*
X107904799Y-122463244D01*
X107570850Y-122324918D01*
X107216332Y-122254400D01*
X106854868Y-122254400D01*
X106500350Y-122324918D01*
X106166401Y-122463244D01*
X105865856Y-122664062D01*
X105610262Y-122919656D01*
X105409444Y-123220201D01*
X105271118Y-123554150D01*
X105200600Y-123908668D01*
X100365000Y-123908668D01*
X100365000Y-112508668D01*
X105200600Y-112508668D01*
X105200600Y-112870132D01*
X105271118Y-113224650D01*
X105409444Y-113558599D01*
X105610262Y-113859144D01*
X105865856Y-114114738D01*
X106166401Y-114315556D01*
X106500350Y-114453882D01*
X106854868Y-114524400D01*
X107216332Y-114524400D01*
X107570850Y-114453882D01*
X107904799Y-114315556D01*
X108205344Y-114114738D01*
X108460938Y-113859144D01*
X108661756Y-113558599D01*
X108800082Y-113224650D01*
X108870600Y-112870132D01*
X108870600Y-112508668D01*
X108800082Y-112154150D01*
X108661756Y-111820201D01*
X108460938Y-111519656D01*
X108205344Y-111264062D01*
X107904799Y-111063244D01*
X107570850Y-110924918D01*
X107216332Y-110854400D01*
X106854868Y-110854400D01*
X106500350Y-110924918D01*
X106166401Y-111063244D01*
X105865856Y-111264062D01*
X105610262Y-111519656D01*
X105409444Y-111820201D01*
X105271118Y-112154150D01*
X105200600Y-112508668D01*
X100365000Y-112508668D01*
X100365000Y-110645256D01*
X100495537Y-110732478D01*
X100793088Y-110855728D01*
X101108967Y-110918560D01*
X101431033Y-110918560D01*
X101746912Y-110855728D01*
X102044463Y-110732478D01*
X102312252Y-110553547D01*
X102539987Y-110325812D01*
X102718918Y-110058023D01*
X102842168Y-109760472D01*
X102905000Y-109444593D01*
X102905000Y-109122527D01*
X102842168Y-108806648D01*
X102718918Y-108509097D01*
X102539987Y-108241308D01*
X102312252Y-108013573D01*
X102044463Y-107834642D01*
X101746912Y-107711392D01*
X101431033Y-107648560D01*
X101108967Y-107648560D01*
X100793088Y-107711392D01*
X100495537Y-107834642D01*
X100285191Y-107975190D01*
X100260537Y-107929066D01*
X100181185Y-107832375D01*
X100084494Y-107753023D01*
X99974180Y-107694058D01*
X99854482Y-107657748D01*
X99730000Y-107645488D01*
X98779131Y-107645488D01*
X98730000Y-107640649D01*
X98680869Y-107645488D01*
X97730000Y-107645488D01*
X97605518Y-107657748D01*
X97485820Y-107694058D01*
X97375506Y-107753023D01*
X97278815Y-107832375D01*
X97199463Y-107929066D01*
X97140498Y-108039380D01*
X97104188Y-108159078D01*
X97091928Y-108283560D01*
X97091928Y-110283560D01*
X97095000Y-110314752D01*
X97095001Y-128775471D01*
X97087089Y-128855800D01*
X95691675Y-128855800D01*
X95574463Y-128777482D01*
X95276912Y-128654232D01*
X94961033Y-128591400D01*
X94638967Y-128591400D01*
X94323088Y-128654232D01*
X94025537Y-128777482D01*
X93757748Y-128956413D01*
X93530013Y-129184148D01*
X93351082Y-129451937D01*
X93227832Y-129749488D01*
X93165000Y-130065367D01*
X89516946Y-130065367D01*
X89385000Y-129933422D01*
X89385000Y-124166578D01*
X89642910Y-123908668D01*
X92500600Y-123908668D01*
X92500600Y-124270132D01*
X92571118Y-124624650D01*
X92709444Y-124958599D01*
X92910262Y-125259144D01*
X93165856Y-125514738D01*
X93466401Y-125715556D01*
X93800350Y-125853882D01*
X94154868Y-125924400D01*
X94516332Y-125924400D01*
X94870850Y-125853882D01*
X95204799Y-125715556D01*
X95505344Y-125514738D01*
X95760938Y-125259144D01*
X95961756Y-124958599D01*
X96100082Y-124624650D01*
X96170600Y-124270132D01*
X96170600Y-123908668D01*
X96100082Y-123554150D01*
X95961756Y-123220201D01*
X95760938Y-122919656D01*
X95505344Y-122664062D01*
X95204799Y-122463244D01*
X94870850Y-122324918D01*
X94516332Y-122254400D01*
X94154868Y-122254400D01*
X93800350Y-122324918D01*
X93466401Y-122463244D01*
X93165856Y-122664062D01*
X92910262Y-122919656D01*
X92709444Y-123220201D01*
X92571118Y-123554150D01*
X92500600Y-123908668D01*
X89642910Y-123908668D01*
X89857549Y-123694030D01*
X89891317Y-123666317D01*
X89923986Y-123626511D01*
X90001911Y-123531559D01*
X90084088Y-123377814D01*
X90084089Y-123377813D01*
X90134695Y-123210990D01*
X90147500Y-123080977D01*
X90147500Y-123080969D01*
X90151781Y-123037500D01*
X90147500Y-122994031D01*
X90147500Y-120963072D01*
X90637500Y-120963072D01*
X90810754Y-120946008D01*
X90977350Y-120895472D01*
X91130886Y-120813405D01*
X91265462Y-120702962D01*
X91375905Y-120568386D01*
X91457972Y-120414850D01*
X91508508Y-120248254D01*
X91525572Y-120075000D01*
X91525572Y-119898852D01*
X91564958Y-119825165D01*
X91629859Y-119611217D01*
X91646282Y-119444470D01*
X91646282Y-119444469D01*
X91651773Y-119388718D01*
X91646282Y-119332966D01*
X91646282Y-112508668D01*
X92500600Y-112508668D01*
X92500600Y-112870132D01*
X92571118Y-113224650D01*
X92709444Y-113558599D01*
X92910262Y-113859144D01*
X93165856Y-114114738D01*
X93466401Y-114315556D01*
X93800350Y-114453882D01*
X94154868Y-114524400D01*
X94516332Y-114524400D01*
X94870850Y-114453882D01*
X95204799Y-114315556D01*
X95505344Y-114114738D01*
X95760938Y-113859144D01*
X95961756Y-113558599D01*
X96100082Y-113224650D01*
X96170600Y-112870132D01*
X96170600Y-112508668D01*
X96100082Y-112154150D01*
X95961756Y-111820201D01*
X95760938Y-111519656D01*
X95505344Y-111264062D01*
X95204799Y-111063244D01*
X94870850Y-110924918D01*
X94516332Y-110854400D01*
X94154868Y-110854400D01*
X93800350Y-110924918D01*
X93466401Y-111063244D01*
X93165856Y-111264062D01*
X92910262Y-111519656D01*
X92709444Y-111820201D01*
X92571118Y-112154150D01*
X92500600Y-112508668D01*
X91646282Y-112508668D01*
X91646282Y-107129564D01*
X91819656Y-107302938D01*
X92120201Y-107503756D01*
X92454150Y-107642082D01*
X92808668Y-107712600D01*
X93170132Y-107712600D01*
X93524650Y-107642082D01*
X93858599Y-107503756D01*
X94159144Y-107302938D01*
X94414738Y-107047344D01*
X94615556Y-106746799D01*
X94753882Y-106412850D01*
X94824400Y-106058332D01*
X94824400Y-105696868D01*
X103854400Y-105696868D01*
X103854400Y-106058332D01*
X103924918Y-106412850D01*
X104063244Y-106746799D01*
X104264062Y-107047344D01*
X104519656Y-107302938D01*
X104820201Y-107503756D01*
X105154150Y-107642082D01*
X105508668Y-107712600D01*
X105870132Y-107712600D01*
X106224650Y-107642082D01*
X106558599Y-107503756D01*
X106859144Y-107302938D01*
X107114738Y-107047344D01*
X107315556Y-106746799D01*
X107453882Y-106412850D01*
X107524400Y-106058332D01*
X107524400Y-105696868D01*
X107453882Y-105342350D01*
X107315556Y-105008401D01*
X107114738Y-104707856D01*
X106859144Y-104452262D01*
X106558599Y-104251444D01*
X106224650Y-104113118D01*
X105870132Y-104042600D01*
X105508668Y-104042600D01*
X105154150Y-104113118D01*
X104820201Y-104251444D01*
X104519656Y-104452262D01*
X104264062Y-104707856D01*
X104063244Y-105008401D01*
X103924918Y-105342350D01*
X103854400Y-105696868D01*
X94824400Y-105696868D01*
X94753882Y-105342350D01*
X94615556Y-105008401D01*
X94414738Y-104707856D01*
X94159144Y-104452262D01*
X93858599Y-104251444D01*
X93524650Y-104113118D01*
X93170132Y-104042600D01*
X92808668Y-104042600D01*
X92454150Y-104113118D01*
X92120201Y-104251444D01*
X91819656Y-104452262D01*
X91646282Y-104625636D01*
X91646282Y-95729564D01*
X91819656Y-95902938D01*
X91979993Y-96010072D01*
X91851716Y-96166377D01*
X91746324Y-96363553D01*
X91681423Y-96577501D01*
X91659509Y-96800000D01*
X91681423Y-97022499D01*
X91746324Y-97236447D01*
X91851716Y-97433623D01*
X91993551Y-97606449D01*
X92166377Y-97748284D01*
X92363553Y-97853676D01*
X92577501Y-97918577D01*
X92744248Y-97935000D01*
X100344249Y-97935000D01*
X100400000Y-97940491D01*
X100455751Y-97935000D01*
X100455752Y-97935000D01*
X100622499Y-97918577D01*
X100836447Y-97853676D01*
X101033623Y-97748284D01*
X101206449Y-97606449D01*
X101241996Y-97563135D01*
X103902912Y-94902219D01*
X103924918Y-95012850D01*
X104063244Y-95346799D01*
X104264062Y-95647344D01*
X104519656Y-95902938D01*
X104820201Y-96103756D01*
X105154150Y-96242082D01*
X105508668Y-96312600D01*
X105870132Y-96312600D01*
X106224650Y-96242082D01*
X106558599Y-96103756D01*
X106859144Y-95902938D01*
X107114738Y-95647344D01*
X107315556Y-95346799D01*
X107453882Y-95012850D01*
X107524400Y-94658332D01*
X107524400Y-94296868D01*
X107453882Y-93942350D01*
X107315556Y-93608401D01*
X107114738Y-93307856D01*
X106859144Y-93052262D01*
X106558599Y-92851444D01*
X106224650Y-92713118D01*
X106033064Y-92675009D01*
X106053675Y-92636448D01*
X106053676Y-92636446D01*
X106118577Y-92422498D01*
X106140491Y-92200000D01*
X106118577Y-91977501D01*
X106053676Y-91763553D01*
X105948283Y-91566377D01*
X105841988Y-91436856D01*
X105841981Y-91436849D01*
X105806448Y-91393552D01*
X105763151Y-91358019D01*
X104363143Y-89958012D01*
X104233622Y-89851717D01*
X104036446Y-89746324D01*
X103822498Y-89681423D01*
X103600000Y-89659509D01*
X103377502Y-89681423D01*
X103163554Y-89746324D01*
X102966378Y-89851717D01*
X102793552Y-89993552D01*
X102651717Y-90166378D01*
X102546324Y-90363554D01*
X102481423Y-90577502D01*
X102459509Y-90800000D01*
X102481423Y-91022498D01*
X102546324Y-91236446D01*
X102651717Y-91433622D01*
X102758012Y-91563143D01*
X103394868Y-92200000D01*
X99929869Y-95665000D01*
X99063355Y-95665000D01*
X99718356Y-95010000D01*
X99772377Y-95010000D01*
X99898061Y-95035000D01*
X100101939Y-95035000D01*
X100301898Y-94995226D01*
X100490256Y-94917205D01*
X100659774Y-94803937D01*
X100803937Y-94659774D01*
X100917205Y-94490256D01*
X100995226Y-94301898D01*
X101035000Y-94101939D01*
X101035000Y-93898061D01*
X100995226Y-93698102D01*
X100917205Y-93509744D01*
X100803937Y-93340226D01*
X100659774Y-93196063D01*
X100553226Y-93124870D01*
X100210000Y-92781645D01*
X100210000Y-89585639D01*
X100491496Y-89529646D01*
X100798147Y-89402628D01*
X101074125Y-89218225D01*
X101270000Y-89022350D01*
X101465875Y-89218225D01*
X101741853Y-89402628D01*
X102048504Y-89529646D01*
X102374042Y-89594400D01*
X102705958Y-89594400D01*
X103031496Y-89529646D01*
X103338147Y-89402628D01*
X103614125Y-89218225D01*
X103848825Y-88983525D01*
X104033228Y-88707547D01*
X104160246Y-88400896D01*
X104225000Y-88075358D01*
X104225000Y-87743442D01*
X104160246Y-87417904D01*
X104033228Y-87111253D01*
X103848825Y-86835275D01*
X103614125Y-86600575D01*
X103338147Y-86416172D01*
X103031496Y-86289154D01*
X102705958Y-86224400D01*
X102374042Y-86224400D01*
X102048504Y-86289154D01*
X101741853Y-86416172D01*
X101465875Y-86600575D01*
X101270000Y-86796450D01*
X101074125Y-86600575D01*
X100798147Y-86416172D01*
X100491496Y-86289154D01*
X100165958Y-86224400D01*
X99834042Y-86224400D01*
X99508504Y-86289154D01*
X99201853Y-86416172D01*
X98925875Y-86600575D01*
X98730000Y-86796450D01*
X98534125Y-86600575D01*
X98258147Y-86416172D01*
X97951496Y-86289154D01*
X97625958Y-86224400D01*
X97294042Y-86224400D01*
X96968504Y-86289154D01*
X96661853Y-86416172D01*
X96385875Y-86600575D01*
X96151175Y-86835275D01*
X95966772Y-87111253D01*
X95839754Y-87417904D01*
X95775000Y-87743442D01*
X95775000Y-88075358D01*
X95839754Y-88400896D01*
X95966772Y-88707547D01*
X96151175Y-88983525D01*
X96385875Y-89218225D01*
X96661853Y-89402628D01*
X96968504Y-89529646D01*
X97294042Y-89594400D01*
X97625958Y-89594400D01*
X97951496Y-89529646D01*
X98190000Y-89430855D01*
X98190001Y-93150382D01*
X98185114Y-93200000D01*
X98204615Y-93397994D01*
X98262368Y-93588379D01*
X98269647Y-93601997D01*
X97346776Y-94524869D01*
X97240226Y-94596063D01*
X97096063Y-94740226D01*
X96982795Y-94909744D01*
X96904774Y-95098102D01*
X96865000Y-95298061D01*
X96865000Y-95501939D01*
X96897435Y-95665000D01*
X94397082Y-95665000D01*
X94414738Y-95647344D01*
X94615556Y-95346799D01*
X94753882Y-95012850D01*
X94824400Y-94658332D01*
X94824400Y-94296868D01*
X94753882Y-93942350D01*
X94615556Y-93608401D01*
X94414738Y-93307856D01*
X94159144Y-93052262D01*
X93858599Y-92851444D01*
X93524650Y-92713118D01*
X93170132Y-92642600D01*
X92808668Y-92642600D01*
X92454150Y-92713118D01*
X92120201Y-92851444D01*
X91819656Y-93052262D01*
X91646282Y-93225636D01*
X91646282Y-84158849D01*
X92241988Y-83563144D01*
X92348283Y-83433623D01*
X92453676Y-83236447D01*
X92518577Y-83022499D01*
X92540491Y-82800001D01*
X92518577Y-82577502D01*
X92453676Y-82363554D01*
X92351074Y-82171599D01*
X93587910Y-82171599D01*
X93609824Y-82394098D01*
X93674725Y-82608046D01*
X93780117Y-82805222D01*
X93921952Y-82978048D01*
X94094778Y-83119883D01*
X94291954Y-83225275D01*
X94505902Y-83290176D01*
X94672649Y-83306599D01*
X95890911Y-83306599D01*
X95839754Y-83430104D01*
X95775000Y-83755642D01*
X95775000Y-84087558D01*
X95839754Y-84413096D01*
X95966772Y-84719747D01*
X96151175Y-84995725D01*
X96385875Y-85230425D01*
X96661853Y-85414828D01*
X96968504Y-85541846D01*
X97294042Y-85606600D01*
X97625958Y-85606600D01*
X97951496Y-85541846D01*
X98258147Y-85414828D01*
X98534125Y-85230425D01*
X98730000Y-85034550D01*
X98925875Y-85230425D01*
X99201853Y-85414828D01*
X99508504Y-85541846D01*
X99834042Y-85606600D01*
X100165958Y-85606600D01*
X100491496Y-85541846D01*
X100798147Y-85414828D01*
X101074125Y-85230425D01*
X101211884Y-85092666D01*
X101548539Y-85092666D01*
X101650339Y-85362179D01*
X101948477Y-85508063D01*
X102269346Y-85592980D01*
X102600617Y-85613666D01*
X102929557Y-85569328D01*
X103243527Y-85461669D01*
X103429661Y-85362179D01*
X103531461Y-85092666D01*
X102540000Y-84101205D01*
X101548539Y-85092666D01*
X101211884Y-85092666D01*
X101308825Y-84995725D01*
X101365042Y-84911591D01*
X101368934Y-84913061D01*
X102360395Y-83921600D01*
X102719605Y-83921600D01*
X103711066Y-84913061D01*
X103980579Y-84811261D01*
X104126463Y-84513123D01*
X104211380Y-84192254D01*
X104232066Y-83860983D01*
X104187728Y-83532043D01*
X104080069Y-83218073D01*
X103980579Y-83031939D01*
X103711066Y-82930139D01*
X102719605Y-83921600D01*
X102360395Y-83921600D01*
X101368934Y-82930139D01*
X101365042Y-82931609D01*
X101308825Y-82847475D01*
X101211884Y-82750534D01*
X101548539Y-82750534D01*
X102540000Y-83741995D01*
X103531461Y-82750534D01*
X103429661Y-82481021D01*
X103131523Y-82335137D01*
X102810654Y-82250220D01*
X102479383Y-82229534D01*
X102150443Y-82273872D01*
X101836473Y-82381531D01*
X101650339Y-82481021D01*
X101548539Y-82750534D01*
X101211884Y-82750534D01*
X101074125Y-82612775D01*
X100798147Y-82428372D01*
X100491496Y-82301354D01*
X100165958Y-82236600D01*
X99894731Y-82236600D01*
X99066595Y-81408464D01*
X99031048Y-81365150D01*
X98858222Y-81223315D01*
X98661046Y-81117923D01*
X98659343Y-81117407D01*
X98730000Y-81046750D01*
X98925875Y-81242625D01*
X99201853Y-81427028D01*
X99508504Y-81554046D01*
X99834042Y-81618800D01*
X100165958Y-81618800D01*
X100491496Y-81554046D01*
X100798147Y-81427028D01*
X101074125Y-81242625D01*
X101270000Y-81046750D01*
X101465875Y-81242625D01*
X101741853Y-81427028D01*
X102048504Y-81554046D01*
X102374042Y-81618800D01*
X102705958Y-81618800D01*
X103031496Y-81554046D01*
X103338147Y-81427028D01*
X103614125Y-81242625D01*
X103848825Y-81007925D01*
X104033228Y-80731947D01*
X104160246Y-80425296D01*
X104225000Y-80099758D01*
X104225000Y-79767842D01*
X104160246Y-79442304D01*
X104033228Y-79135653D01*
X103848825Y-78859675D01*
X103614125Y-78624975D01*
X103338147Y-78440572D01*
X103168591Y-78370340D01*
X104003932Y-77535000D01*
X105742173Y-77535000D01*
X105785150Y-77557972D01*
X105951746Y-77608508D01*
X106125000Y-77625572D01*
X107075000Y-77625572D01*
X107248254Y-77608508D01*
X107414850Y-77557972D01*
X107568386Y-77475905D01*
X107702962Y-77365462D01*
X107813405Y-77230886D01*
X107895472Y-77077350D01*
X107946008Y-76910754D01*
X107963072Y-76737500D01*
X107963072Y-76062500D01*
X107946008Y-75889246D01*
X107895472Y-75722650D01*
X107813405Y-75569114D01*
X107702962Y-75434538D01*
X107615183Y-75362500D01*
X107702962Y-75290462D01*
X107813405Y-75155886D01*
X107895472Y-75002350D01*
X107946008Y-74835754D01*
X107963072Y-74662500D01*
X107963072Y-73987500D01*
X107946008Y-73814246D01*
X107895472Y-73647650D01*
X107813405Y-73494114D01*
X107735000Y-73398577D01*
X107735000Y-73308461D01*
X107788405Y-73243387D01*
X107870472Y-73089851D01*
X107921008Y-72923255D01*
X107938072Y-72750001D01*
X107938072Y-72049999D01*
X107921008Y-71876745D01*
X107870472Y-71710149D01*
X107788405Y-71556613D01*
X107677962Y-71422038D01*
X107651109Y-71400000D01*
X107677962Y-71377962D01*
X107788405Y-71243387D01*
X107870472Y-71089851D01*
X107921008Y-70923255D01*
X107938072Y-70750001D01*
X107938072Y-70049999D01*
X107921008Y-69876745D01*
X107870472Y-69710149D01*
X107788405Y-69556613D01*
X107735000Y-69491539D01*
X107735000Y-69097196D01*
X107794637Y-69037559D01*
X107951680Y-68802527D01*
X108059853Y-68541374D01*
X108115000Y-68264135D01*
X108115000Y-67981465D01*
X108059853Y-67704226D01*
X107951680Y-67443073D01*
X107794637Y-67208041D01*
X107765567Y-67178971D01*
X109555858Y-67178971D01*
X109555858Y-67621029D01*
X109642100Y-68054592D01*
X109811268Y-68463000D01*
X110056861Y-68830557D01*
X110369443Y-69143139D01*
X110737000Y-69388732D01*
X111145408Y-69557900D01*
X111578971Y-69644142D01*
X112021029Y-69644142D01*
X112454592Y-69557900D01*
X112863000Y-69388732D01*
X113230557Y-69143139D01*
X113543139Y-68830557D01*
X113788732Y-68463000D01*
X113957900Y-68054592D01*
X114044142Y-67621029D01*
X114044142Y-67178971D01*
X113957900Y-66745408D01*
X113788732Y-66337000D01*
X113543139Y-65969443D01*
X113230557Y-65656861D01*
X112863000Y-65411268D01*
X112454592Y-65242100D01*
X112021029Y-65155858D01*
X111578971Y-65155858D01*
X111145408Y-65242100D01*
X110737000Y-65411268D01*
X110369443Y-65656861D01*
X110056861Y-65969443D01*
X109811268Y-66337000D01*
X109642100Y-66745408D01*
X109555858Y-67178971D01*
X107765567Y-67178971D01*
X107594759Y-67008163D01*
X107359727Y-66851120D01*
X107098574Y-66742947D01*
X106821335Y-66687800D01*
X106538665Y-66687800D01*
X106261426Y-66742947D01*
X106000273Y-66851120D01*
X105765241Y-67008163D01*
X105565363Y-67208041D01*
X105408320Y-67443073D01*
X105300147Y-67704226D01*
X105245000Y-67981465D01*
X105245000Y-68264135D01*
X105300147Y-68541374D01*
X105408320Y-68802527D01*
X105465001Y-68887356D01*
X105465000Y-69491538D01*
X105411595Y-69556613D01*
X105329528Y-69710149D01*
X105278992Y-69876745D01*
X105261928Y-70049999D01*
X105261928Y-70750001D01*
X105278992Y-70923255D01*
X105329528Y-71089851D01*
X105411595Y-71243387D01*
X105522038Y-71377962D01*
X105548891Y-71400000D01*
X105522038Y-71422038D01*
X105411595Y-71556613D01*
X105329528Y-71710149D01*
X105278992Y-71876745D01*
X105261928Y-72049999D01*
X105261928Y-72750001D01*
X105278992Y-72923255D01*
X105329528Y-73089851D01*
X105411595Y-73243387D01*
X105465001Y-73308462D01*
X105465000Y-73398576D01*
X105386595Y-73494114D01*
X105304528Y-73647650D01*
X105253992Y-73814246D01*
X105236928Y-73987500D01*
X105236928Y-74662500D01*
X105253992Y-74835754D01*
X105304528Y-75002350D01*
X105386595Y-75155886D01*
X105476142Y-75265000D01*
X103589552Y-75265000D01*
X103533800Y-75259509D01*
X103478048Y-75265000D01*
X103311301Y-75281423D01*
X103097353Y-75346324D01*
X102900177Y-75451716D01*
X102727351Y-75593551D01*
X102691809Y-75636859D01*
X100079869Y-78248800D01*
X99834042Y-78248800D01*
X99508504Y-78313554D01*
X99201853Y-78440572D01*
X98925875Y-78624975D01*
X98730000Y-78820850D01*
X98534125Y-78624975D01*
X98258147Y-78440572D01*
X97951496Y-78313554D01*
X97625958Y-78248800D01*
X97556909Y-78248800D01*
X96660000Y-77351892D01*
X96660000Y-76309443D01*
X96670472Y-76289851D01*
X96721008Y-76123255D01*
X96738072Y-75950001D01*
X96738072Y-75249999D01*
X96721008Y-75076745D01*
X96670472Y-74910149D01*
X96601347Y-74780825D01*
X98790000Y-74780825D01*
X98790000Y-75019175D01*
X98836499Y-75252944D01*
X98927712Y-75473150D01*
X99060131Y-75671330D01*
X99228670Y-75839869D01*
X99426850Y-75972288D01*
X99647056Y-76063501D01*
X99880825Y-76110000D01*
X100119175Y-76110000D01*
X100352944Y-76063501D01*
X100573150Y-75972288D01*
X100771330Y-75839869D01*
X100939869Y-75671330D01*
X101072288Y-75473150D01*
X101163501Y-75252944D01*
X101210000Y-75019175D01*
X101210000Y-74780825D01*
X101163501Y-74547056D01*
X101072288Y-74326850D01*
X100939869Y-74128670D01*
X100771330Y-73960131D01*
X100573150Y-73827712D01*
X100352944Y-73736499D01*
X100119175Y-73690000D01*
X99880825Y-73690000D01*
X99647056Y-73736499D01*
X99426850Y-73827712D01*
X99228670Y-73960131D01*
X99060131Y-74128670D01*
X98927712Y-74326850D01*
X98836499Y-74547056D01*
X98790000Y-74780825D01*
X96601347Y-74780825D01*
X96588405Y-74756613D01*
X96521724Y-74675363D01*
X96551185Y-74651185D01*
X96630537Y-74554494D01*
X96689502Y-74444180D01*
X96725812Y-74324482D01*
X96738072Y-74200000D01*
X96735000Y-73885750D01*
X96576250Y-73727000D01*
X95527000Y-73727000D01*
X95527000Y-73747000D01*
X95273000Y-73747000D01*
X95273000Y-73727000D01*
X94223750Y-73727000D01*
X94065000Y-73885750D01*
X94061928Y-74200000D01*
X94074188Y-74324482D01*
X94110498Y-74444180D01*
X94169463Y-74554494D01*
X94248815Y-74651185D01*
X94278276Y-74675363D01*
X94211595Y-74756613D01*
X94129528Y-74910149D01*
X94078992Y-75076745D01*
X94061928Y-75249999D01*
X94061928Y-75950001D01*
X94078992Y-76123255D01*
X94129528Y-76289851D01*
X94140000Y-76309443D01*
X94140001Y-77811908D01*
X94133905Y-77873800D01*
X94158233Y-78120803D01*
X94230280Y-78358313D01*
X94347280Y-78577205D01*
X94465281Y-78720989D01*
X94504736Y-78769065D01*
X94552811Y-78808519D01*
X95775000Y-80030709D01*
X95775000Y-80099758D01*
X95839754Y-80425296D01*
X95966772Y-80731947D01*
X96151175Y-81007925D01*
X96179849Y-81036599D01*
X94672649Y-81036599D01*
X94505902Y-81053022D01*
X94291954Y-81117923D01*
X94094778Y-81223315D01*
X93921952Y-81365150D01*
X93780117Y-81537976D01*
X93674725Y-81735152D01*
X93609824Y-81949100D01*
X93587910Y-82171599D01*
X92351074Y-82171599D01*
X92348283Y-82166378D01*
X92206448Y-81993552D01*
X92033622Y-81851717D01*
X91836446Y-81746324D01*
X91622498Y-81681423D01*
X91399999Y-81659509D01*
X91177501Y-81681423D01*
X90963553Y-81746324D01*
X90766377Y-81851717D01*
X90636856Y-81958012D01*
X89748142Y-82846727D01*
X89704834Y-82882269D01*
X89562999Y-83055095D01*
X89526461Y-83123453D01*
X89457606Y-83252272D01*
X89392705Y-83466220D01*
X89370791Y-83688718D01*
X89376283Y-83744480D01*
X89376283Y-85486962D01*
X89262999Y-85411268D01*
X88854591Y-85242100D01*
X88421028Y-85155858D01*
X87978970Y-85155858D01*
X87545407Y-85242100D01*
X87136999Y-85411268D01*
X86769442Y-85656861D01*
X86456860Y-85969443D01*
X86211267Y-86337000D01*
X86042099Y-86745408D01*
X85955857Y-87178971D01*
X85955857Y-87621029D01*
X86042099Y-88054592D01*
X86211267Y-88463000D01*
X86456860Y-88830557D01*
X86769442Y-89143139D01*
X87136999Y-89388732D01*
X87545407Y-89557900D01*
X87978970Y-89644142D01*
X88421028Y-89644142D01*
X88854591Y-89557900D01*
X89262999Y-89388732D01*
X89376283Y-89313038D01*
X89376282Y-117524703D01*
X86385000Y-114533422D01*
X86385000Y-114263589D01*
X86331775Y-113996011D01*
X86227371Y-113743957D01*
X86075799Y-113517114D01*
X85882886Y-113324201D01*
X85679155Y-113188072D01*
X85750000Y-113188072D01*
X85874482Y-113175812D01*
X85994180Y-113139502D01*
X86104494Y-113080537D01*
X86201185Y-113001185D01*
X86280537Y-112904494D01*
X86339502Y-112794180D01*
X86375812Y-112674482D01*
X86388072Y-112550000D01*
X86388072Y-111050000D01*
X86375812Y-110925518D01*
X86339502Y-110805820D01*
X86280537Y-110695506D01*
X86201185Y-110598815D01*
X86104494Y-110519463D01*
X85994180Y-110460498D01*
X85874482Y-110424188D01*
X85750000Y-110411928D01*
X84250000Y-110411928D01*
X84125518Y-110424188D01*
X84005820Y-110460498D01*
X83895506Y-110519463D01*
X83798815Y-110598815D01*
X83719463Y-110695506D01*
X83660498Y-110805820D01*
X83624188Y-110925518D01*
X83611928Y-111050000D01*
X83611928Y-112550000D01*
X83624188Y-112674482D01*
X83660498Y-112794180D01*
X83719463Y-112904494D01*
X83798815Y-113001185D01*
X83895506Y-113080537D01*
X84005820Y-113139502D01*
X84125518Y-113175812D01*
X84250000Y-113188072D01*
X84320845Y-113188072D01*
X84117114Y-113324201D01*
X83924201Y-113517114D01*
X83772629Y-113743957D01*
X83668225Y-113996011D01*
X83615000Y-114263589D01*
X83615000Y-114536411D01*
X83668225Y-114803989D01*
X83772629Y-115056043D01*
X83924201Y-115282886D01*
X84117114Y-115475799D01*
X84343957Y-115627371D01*
X84519299Y-115700000D01*
X84343957Y-115772629D01*
X84117114Y-115924201D01*
X83924201Y-116117114D01*
X83772629Y-116343957D01*
X83668225Y-116596011D01*
X83615000Y-116863589D01*
X83615000Y-117136411D01*
X83668225Y-117403989D01*
X83772629Y-117656043D01*
X83924201Y-117882886D01*
X84117114Y-118075799D01*
X84343957Y-118227371D01*
X84569299Y-118320711D01*
X84443957Y-118372629D01*
X84217114Y-118524201D01*
X84024201Y-118717114D01*
X83872629Y-118943957D01*
X83768225Y-119196011D01*
X83715000Y-119463589D01*
X83715000Y-119736411D01*
X83768225Y-120003989D01*
X83872629Y-120256043D01*
X84024201Y-120482886D01*
X84217114Y-120675799D01*
X84443957Y-120827371D01*
X84619299Y-120900000D01*
X84443957Y-120972629D01*
X84217114Y-121124201D01*
X84024201Y-121317114D01*
X83872629Y-121543957D01*
X83768225Y-121796011D01*
X83735788Y-121959080D01*
X83435000Y-122259869D01*
X83435000Y-72400000D01*
X92061928Y-72400000D01*
X92074188Y-72524482D01*
X92110498Y-72644180D01*
X92169463Y-72754494D01*
X92248815Y-72851185D01*
X92345506Y-72930537D01*
X92455820Y-72989502D01*
X92575518Y-73025812D01*
X92700000Y-73038072D01*
X93114250Y-73035000D01*
X93273000Y-72876250D01*
X93273000Y-71927000D01*
X93527000Y-71927000D01*
X93527000Y-72876250D01*
X93685750Y-73035000D01*
X94062297Y-73037792D01*
X94065000Y-73314250D01*
X94223750Y-73473000D01*
X95273000Y-73473000D01*
X95273000Y-71927000D01*
X95527000Y-71927000D01*
X95527000Y-73473000D01*
X96576250Y-73473000D01*
X96735000Y-73314250D01*
X96738072Y-73000000D01*
X96725812Y-72875518D01*
X96689502Y-72755820D01*
X96659665Y-72700000D01*
X96689502Y-72644180D01*
X96725812Y-72524482D01*
X96738072Y-72400000D01*
X96735000Y-72085750D01*
X96576250Y-71927000D01*
X95527000Y-71927000D01*
X95273000Y-71927000D01*
X93527000Y-71927000D01*
X93273000Y-71927000D01*
X92223750Y-71927000D01*
X92065000Y-72085750D01*
X92061928Y-72400000D01*
X83435000Y-72400000D01*
X83434999Y-67178971D01*
X85955857Y-67178971D01*
X85955857Y-67621029D01*
X86042099Y-68054592D01*
X86211267Y-68463000D01*
X86456860Y-68830557D01*
X86769442Y-69143139D01*
X87136999Y-69388732D01*
X87545407Y-69557900D01*
X87978970Y-69644142D01*
X88421028Y-69644142D01*
X88854591Y-69557900D01*
X89262999Y-69388732D01*
X89630556Y-69143139D01*
X89943138Y-68830557D01*
X90188731Y-68463000D01*
X90357899Y-68054592D01*
X90444141Y-67621029D01*
X90444141Y-67178971D01*
X90357899Y-66745408D01*
X90188731Y-66337000D01*
X89943138Y-65969443D01*
X89630556Y-65656861D01*
X89262999Y-65411268D01*
X88854591Y-65242100D01*
X88421028Y-65155858D01*
X87978970Y-65155858D01*
X87545407Y-65242100D01*
X87136999Y-65411268D01*
X86769442Y-65656861D01*
X86456860Y-65969443D01*
X86211267Y-66337000D01*
X86042099Y-66745408D01*
X85955857Y-67178971D01*
X83434999Y-67178971D01*
X83434999Y-64225000D01*
X91436928Y-64225000D01*
X91436928Y-64900000D01*
X91453992Y-65073254D01*
X91504528Y-65239850D01*
X91586595Y-65393386D01*
X91697038Y-65527962D01*
X91703594Y-65533342D01*
X91623815Y-65598815D01*
X91544463Y-65695506D01*
X91485498Y-65805820D01*
X91449188Y-65925518D01*
X91436928Y-66050000D01*
X91440000Y-66351750D01*
X91598750Y-66510500D01*
X92673000Y-66510500D01*
X92673000Y-66490500D01*
X92927000Y-66490500D01*
X92927000Y-66510500D01*
X92947000Y-66510500D01*
X92947000Y-66764500D01*
X92927000Y-66764500D01*
X92927000Y-66784500D01*
X92673000Y-66784500D01*
X92673000Y-66764500D01*
X91598750Y-66764500D01*
X91440000Y-66923250D01*
X91436928Y-67225000D01*
X91449188Y-67349482D01*
X91485498Y-67469180D01*
X91544463Y-67579494D01*
X91623815Y-67676185D01*
X91720506Y-67755537D01*
X91830820Y-67814502D01*
X91950518Y-67850812D01*
X92075000Y-67863072D01*
X92243047Y-67861897D01*
X92230280Y-67885783D01*
X92225876Y-67900302D01*
X92158232Y-68123293D01*
X92140000Y-68308403D01*
X92140000Y-68308413D01*
X92133905Y-68370296D01*
X92140000Y-68432179D01*
X92140000Y-69090557D01*
X92129528Y-69110149D01*
X92078992Y-69276745D01*
X92061928Y-69449999D01*
X92061928Y-70150001D01*
X92078992Y-70323255D01*
X92129528Y-70489851D01*
X92211595Y-70643387D01*
X92278276Y-70724637D01*
X92248815Y-70748815D01*
X92169463Y-70845506D01*
X92110498Y-70955820D01*
X92074188Y-71075518D01*
X92061928Y-71200000D01*
X92065000Y-71514250D01*
X92223750Y-71673000D01*
X93273000Y-71673000D01*
X93273000Y-71653000D01*
X93527000Y-71653000D01*
X93527000Y-71673000D01*
X95273000Y-71673000D01*
X95273000Y-71653000D01*
X95527000Y-71653000D01*
X95527000Y-71673000D01*
X96576250Y-71673000D01*
X96735000Y-71514250D01*
X96738072Y-71200000D01*
X96725812Y-71075518D01*
X96689502Y-70955820D01*
X96671951Y-70922984D01*
X96803405Y-70852720D01*
X96868283Y-70799476D01*
X96926515Y-70908422D01*
X97068350Y-71081248D01*
X97111664Y-71116795D01*
X98786928Y-72792060D01*
X98786928Y-72975000D01*
X98799188Y-73099482D01*
X98835498Y-73219180D01*
X98894463Y-73329494D01*
X98973815Y-73426185D01*
X99070506Y-73505537D01*
X99180820Y-73564502D01*
X99300518Y-73600812D01*
X99425000Y-73613072D01*
X100575000Y-73613072D01*
X100699482Y-73600812D01*
X100819180Y-73564502D01*
X100929494Y-73505537D01*
X101026185Y-73426185D01*
X101105537Y-73329494D01*
X101164502Y-73219180D01*
X101200812Y-73099482D01*
X101213072Y-72975000D01*
X101213072Y-71825000D01*
X101200812Y-71700518D01*
X101164502Y-71580820D01*
X101105537Y-71470506D01*
X101026185Y-71373815D01*
X100929494Y-71294463D01*
X100819180Y-71235498D01*
X100699482Y-71199188D01*
X100575000Y-71186928D01*
X100392060Y-71186928D01*
X99009799Y-69804668D01*
X99009799Y-69103272D01*
X101299800Y-69103272D01*
X101424282Y-69091012D01*
X101543980Y-69054702D01*
X101654294Y-68995737D01*
X101750985Y-68916385D01*
X101830337Y-68819694D01*
X101889302Y-68709380D01*
X101925612Y-68589682D01*
X101937872Y-68465200D01*
X101937872Y-66465200D01*
X101925612Y-66340718D01*
X101889302Y-66221020D01*
X101830337Y-66110706D01*
X101750985Y-66014015D01*
X101654294Y-65934663D01*
X101543980Y-65875698D01*
X101424282Y-65839388D01*
X101299800Y-65827128D01*
X99134799Y-65827128D01*
X99134799Y-64112109D01*
X100143637Y-63103272D01*
X101299800Y-63103272D01*
X101424282Y-63091012D01*
X101543980Y-63054702D01*
X101654294Y-62995737D01*
X101750985Y-62916385D01*
X101830337Y-62819694D01*
X101880846Y-62725200D01*
X105655717Y-62725200D01*
X105717600Y-62731295D01*
X105779483Y-62725200D01*
X105779493Y-62725200D01*
X105964603Y-62706968D01*
X106202114Y-62634920D01*
X106421005Y-62517920D01*
X106612865Y-62360465D01*
X106652323Y-62312385D01*
X107023836Y-61940872D01*
X107480000Y-61940872D01*
X107604482Y-61928612D01*
X107724180Y-61892302D01*
X107834494Y-61833337D01*
X107931185Y-61753985D01*
X108010537Y-61657294D01*
X108069502Y-61546980D01*
X108105812Y-61427282D01*
X108118072Y-61302800D01*
X108118072Y-59702800D01*
X108105812Y-59578318D01*
X108069502Y-59458620D01*
X108010537Y-59348306D01*
X107931185Y-59251615D01*
X107834494Y-59172263D01*
X107724180Y-59113298D01*
X107604482Y-59076988D01*
X107480000Y-59064728D01*
X105880000Y-59064728D01*
X105755518Y-59076988D01*
X105635820Y-59113298D01*
X105525506Y-59172263D01*
X105428815Y-59251615D01*
X105349463Y-59348306D01*
X105290498Y-59458620D01*
X105254188Y-59578318D01*
X105241928Y-59702800D01*
X105241928Y-60158964D01*
X105195692Y-60205200D01*
X101880846Y-60205200D01*
X101830337Y-60110706D01*
X101750985Y-60014015D01*
X101654294Y-59934663D01*
X101543980Y-59875698D01*
X101424282Y-59839388D01*
X101299800Y-59827128D01*
X98699800Y-59827128D01*
X98575318Y-59839388D01*
X98455620Y-59875698D01*
X98345306Y-59934663D01*
X98248615Y-60014015D01*
X98169263Y-60110706D01*
X98110298Y-60221020D01*
X98073988Y-60340718D01*
X98061728Y-60465200D01*
X98061728Y-61621363D01*
X97027610Y-62655482D01*
X96979535Y-62694936D01*
X96940081Y-62743011D01*
X96940080Y-62743012D01*
X96851710Y-62850691D01*
X96830337Y-62810706D01*
X96750985Y-62714015D01*
X96654294Y-62634663D01*
X96543980Y-62575698D01*
X96424282Y-62539388D01*
X96299800Y-62527128D01*
X94299800Y-62527128D01*
X94175318Y-62539388D01*
X94055620Y-62575698D01*
X93945306Y-62634663D01*
X93848615Y-62714015D01*
X93769263Y-62810706D01*
X93710298Y-62921020D01*
X93673988Y-63040718D01*
X93661728Y-63165200D01*
X93661728Y-63205200D01*
X92959183Y-63205200D01*
X92897300Y-63199105D01*
X92835418Y-63205200D01*
X92835407Y-63205200D01*
X92650297Y-63223432D01*
X92412786Y-63295480D01*
X92335242Y-63336928D01*
X92325000Y-63336928D01*
X92151746Y-63353992D01*
X91985150Y-63404528D01*
X91831614Y-63486595D01*
X91697038Y-63597038D01*
X91586595Y-63731614D01*
X91504528Y-63885150D01*
X91453992Y-64051746D01*
X91436928Y-64225000D01*
X83434999Y-64225000D01*
X83434998Y-62735735D01*
X83439723Y-62687691D01*
X83443201Y-62676212D01*
X83448866Y-62665610D01*
X83456412Y-62656414D01*
X83465611Y-62648866D01*
X83476214Y-62643201D01*
X83487690Y-62639723D01*
X83535715Y-62635000D01*
X85786105Y-62635000D01*
X85819024Y-62631758D01*
X85838955Y-62631897D01*
X85849168Y-62630896D01*
X86470277Y-62565615D01*
X86535584Y-62552209D01*
X86600970Y-62539736D01*
X86610795Y-62536771D01*
X87207395Y-62352092D01*
X87268862Y-62326254D01*
X87330573Y-62301321D01*
X87339634Y-62296504D01*
X87889001Y-61999462D01*
X87944240Y-61962202D01*
X87999971Y-61925733D01*
X88007924Y-61919247D01*
X88489133Y-61521156D01*
X88536094Y-61473866D01*
X88583668Y-61427278D01*
X88590210Y-61419371D01*
X88984931Y-60935395D01*
X89021811Y-60879887D01*
X89059433Y-60824941D01*
X89064315Y-60815914D01*
X89357514Y-60264486D01*
X89382915Y-60202859D01*
X89409142Y-60141666D01*
X89412177Y-60131863D01*
X89592686Y-59533988D01*
X89605635Y-59468589D01*
X89619475Y-59403480D01*
X89620548Y-59393274D01*
X89681492Y-58771724D01*
X89681492Y-58771723D01*
X89685000Y-58736105D01*
X89685000Y-56485715D01*
X89689723Y-56437691D01*
X89693201Y-56426212D01*
X89698866Y-56415610D01*
X89706412Y-56406414D01*
X89715611Y-56398866D01*
X89726214Y-56393201D01*
X89737690Y-56389723D01*
X89785715Y-56385000D01*
X110214284Y-56385000D01*
X110262308Y-56389723D01*
%TA.AperFunction,Conductor*%
D29*
G36*
X110262308Y-56389723D02*
G01*
X110273787Y-56393201D01*
X110284389Y-56398866D01*
X110293585Y-56406412D01*
X110301133Y-56415611D01*
X110306798Y-56426214D01*
X110310276Y-56437690D01*
X110315001Y-56485735D01*
X110315000Y-58736104D01*
X110318242Y-58769023D01*
X110318103Y-58788955D01*
X110319104Y-58799168D01*
X110384385Y-59420277D01*
X110397791Y-59485584D01*
X110410264Y-59550970D01*
X110413229Y-59560795D01*
X110597908Y-60157395D01*
X110623746Y-60218862D01*
X110648679Y-60280573D01*
X110653496Y-60289634D01*
X110950538Y-60839001D01*
X110987798Y-60894240D01*
X111024267Y-60949971D01*
X111030753Y-60957924D01*
X111428844Y-61439133D01*
X111476134Y-61486094D01*
X111522722Y-61533668D01*
X111530629Y-61540210D01*
X112014605Y-61934931D01*
X112070113Y-61971811D01*
X112125059Y-62009433D01*
X112134086Y-62014315D01*
X112685514Y-62307514D01*
X112747141Y-62332915D01*
X112808334Y-62359142D01*
X112818137Y-62362177D01*
X113416012Y-62542686D01*
X113481411Y-62555635D01*
X113546520Y-62569475D01*
X113556726Y-62570548D01*
X114178276Y-62631492D01*
X114213894Y-62635000D01*
X116464284Y-62635000D01*
X116512308Y-62639723D01*
X116523787Y-62643201D01*
X116534389Y-62648866D01*
X116543585Y-62656412D01*
X116551133Y-62665611D01*
X116556798Y-62676214D01*
X116560276Y-62687690D01*
X116565001Y-62735735D01*
X116565000Y-87059535D01*
X116563146Y-87058013D01*
X112241996Y-82736865D01*
X112206449Y-82693551D01*
X112033623Y-82551716D01*
X111836447Y-82446324D01*
X111622499Y-82381423D01*
X111455752Y-82365000D01*
X111455751Y-82365000D01*
X111400000Y-82359509D01*
X111344249Y-82365000D01*
X105495850Y-82365000D01*
X105329103Y-82381423D01*
X105115155Y-82446324D01*
X104917979Y-82551716D01*
X104745153Y-82693551D01*
X104603318Y-82866377D01*
X104497926Y-83063553D01*
X104433025Y-83277501D01*
X104411111Y-83500000D01*
X104433025Y-83722499D01*
X104497926Y-83936447D01*
X104603318Y-84133623D01*
X104745153Y-84306449D01*
X104783826Y-84338187D01*
X104833969Y-84399287D01*
X104987762Y-84525501D01*
X105163222Y-84619286D01*
X105353608Y-84677039D01*
X105551602Y-84696540D01*
X105749595Y-84677039D01*
X105888179Y-84635000D01*
X110929869Y-84635000D01*
X111472004Y-85177135D01*
X111145408Y-85242100D01*
X110737000Y-85411268D01*
X110369443Y-85656861D01*
X110056861Y-85969443D01*
X109811268Y-86337000D01*
X109642100Y-86745408D01*
X109555858Y-87178971D01*
X109555858Y-87621029D01*
X109642100Y-88054592D01*
X109811268Y-88463000D01*
X110056861Y-88830557D01*
X110369443Y-89143139D01*
X110737000Y-89388732D01*
X111145408Y-89557900D01*
X111578971Y-89644142D01*
X112021029Y-89644142D01*
X112454592Y-89557900D01*
X112863000Y-89388732D01*
X113230557Y-89143139D01*
X113543139Y-88830557D01*
X113788732Y-88463000D01*
X113957900Y-88054592D01*
X114022864Y-87727997D01*
X114665000Y-88370133D01*
X114665001Y-90029333D01*
X114643387Y-90011595D01*
X114489851Y-89929528D01*
X114323255Y-89878992D01*
X114150001Y-89861928D01*
X113449999Y-89861928D01*
X113276745Y-89878992D01*
X113110149Y-89929528D01*
X112956613Y-90011595D01*
X112891539Y-90065000D01*
X111255752Y-90065000D01*
X111200000Y-90059509D01*
X111144249Y-90065000D01*
X111144248Y-90065000D01*
X110977501Y-90081423D01*
X110763553Y-90146324D01*
X110566377Y-90251716D01*
X110393551Y-90393551D01*
X110358007Y-90436861D01*
X110158012Y-90636857D01*
X110051717Y-90766378D01*
X109946324Y-90963554D01*
X109881423Y-91177502D01*
X109859509Y-91400000D01*
X109881423Y-91622498D01*
X109946324Y-91836446D01*
X110051717Y-92033622D01*
X110193552Y-92206448D01*
X110366378Y-92348283D01*
X110563554Y-92453676D01*
X110777502Y-92518577D01*
X111000000Y-92540491D01*
X111222498Y-92518577D01*
X111436446Y-92453676D01*
X111633622Y-92348283D01*
X111649807Y-92335000D01*
X112891539Y-92335000D01*
X112956613Y-92388405D01*
X113110149Y-92470472D01*
X113276745Y-92521008D01*
X113303795Y-92523672D01*
X113269463Y-92565506D01*
X113210498Y-92675820D01*
X113174188Y-92795518D01*
X113161928Y-92920000D01*
X113161928Y-94032940D01*
X110236865Y-96958004D01*
X110193551Y-96993551D01*
X110051716Y-97166377D01*
X109946325Y-97363553D01*
X109946324Y-97363554D01*
X109881423Y-97577502D01*
X109859509Y-97800000D01*
X109865000Y-97855751D01*
X109865000Y-99655752D01*
X109881424Y-99822499D01*
X109946325Y-100036447D01*
X110051717Y-100233623D01*
X110193552Y-100406449D01*
X110366378Y-100548284D01*
X110563554Y-100653676D01*
X110777502Y-100718577D01*
X111000000Y-100740491D01*
X111222499Y-100718577D01*
X111436447Y-100653676D01*
X111633623Y-100548284D01*
X111806449Y-100406449D01*
X111948284Y-100233623D01*
X112053676Y-100036447D01*
X112118577Y-99822499D01*
X112135000Y-99655752D01*
X112135000Y-98270131D01*
X115247060Y-95158072D01*
X115400000Y-95158072D01*
X115524482Y-95145812D01*
X115644180Y-95109502D01*
X115754494Y-95050537D01*
X115851185Y-94971185D01*
X115930537Y-94874494D01*
X115989502Y-94764180D01*
X116025812Y-94644482D01*
X116038072Y-94520000D01*
X116038072Y-92920000D01*
X116025812Y-92795518D01*
X115989502Y-92675820D01*
X115930537Y-92565506D01*
X115908023Y-92538072D01*
X116150001Y-92538072D01*
X116323255Y-92521008D01*
X116489851Y-92470472D01*
X116565000Y-92430304D01*
X116565000Y-101759868D01*
X116038072Y-101232941D01*
X116038072Y-100600000D01*
X116025812Y-100475518D01*
X115989502Y-100355820D01*
X115930537Y-100245506D01*
X115851185Y-100148815D01*
X115754494Y-100069463D01*
X115644180Y-100010498D01*
X115524482Y-99974188D01*
X115438333Y-99965703D01*
X115514759Y-99914637D01*
X115714637Y-99714759D01*
X115871680Y-99479727D01*
X115979853Y-99218574D01*
X116035000Y-98941335D01*
X116035000Y-98658665D01*
X115979853Y-98381426D01*
X115871680Y-98120273D01*
X115714637Y-97885241D01*
X115514759Y-97685363D01*
X115279727Y-97528320D01*
X115018574Y-97420147D01*
X114741335Y-97365000D01*
X114458665Y-97365000D01*
X114181426Y-97420147D01*
X113920273Y-97528320D01*
X113685241Y-97685363D01*
X113485363Y-97885241D01*
X113328320Y-98120273D01*
X113220147Y-98381426D01*
X113165000Y-98658665D01*
X113165000Y-98941335D01*
X113220147Y-99218574D01*
X113328320Y-99479727D01*
X113485363Y-99714759D01*
X113685241Y-99914637D01*
X113761667Y-99965703D01*
X113675518Y-99974188D01*
X113555820Y-100010498D01*
X113445506Y-100069463D01*
X113348815Y-100148815D01*
X113269463Y-100245506D01*
X113210498Y-100355820D01*
X113174188Y-100475518D01*
X113161928Y-100600000D01*
X113161928Y-102200000D01*
X113174188Y-102324482D01*
X113210498Y-102444180D01*
X113269463Y-102554494D01*
X113348815Y-102651185D01*
X113445506Y-102730537D01*
X113555820Y-102789502D01*
X113675518Y-102825812D01*
X113800000Y-102838072D01*
X114432941Y-102838072D01*
X115265001Y-103670133D01*
X115265001Y-105202220D01*
X115018574Y-105100147D01*
X114741335Y-105045000D01*
X114458665Y-105045000D01*
X114181426Y-105100147D01*
X113920273Y-105208320D01*
X113685241Y-105365363D01*
X113485363Y-105565241D01*
X113328320Y-105800273D01*
X113321608Y-105816478D01*
X108967004Y-101461875D01*
X108931457Y-101418561D01*
X108758631Y-101276726D01*
X108561455Y-101171334D01*
X108347507Y-101106433D01*
X108180760Y-101090010D01*
X108180759Y-101090010D01*
X108125008Y-101084519D01*
X108069257Y-101090010D01*
X102406758Y-101090010D01*
X102240011Y-101106433D01*
X102026063Y-101171334D01*
X101828887Y-101276726D01*
X101656061Y-101418561D01*
X101514226Y-101591387D01*
X101408834Y-101788563D01*
X101343933Y-102002511D01*
X101322019Y-102225010D01*
X101343933Y-102447509D01*
X101408834Y-102661457D01*
X101514226Y-102858633D01*
X101656061Y-103031459D01*
X101828887Y-103173294D01*
X102026063Y-103278686D01*
X102240011Y-103343587D01*
X102406758Y-103360010D01*
X107654877Y-103360010D01*
X113858007Y-109563141D01*
X113893549Y-109606449D01*
X114066375Y-109748284D01*
X114263551Y-109853676D01*
X114477499Y-109918577D01*
X114699997Y-109940491D01*
X114755749Y-109935000D01*
X115344249Y-109935000D01*
X115400000Y-109940491D01*
X115455751Y-109935000D01*
X115455752Y-109935000D01*
X115622499Y-109918577D01*
X115836447Y-109853676D01*
X116033623Y-109748284D01*
X116206449Y-109606449D01*
X116241995Y-109563136D01*
X116565000Y-109240132D01*
X116564999Y-137214284D01*
X116560276Y-137262309D01*
X116556798Y-137273785D01*
X116551133Y-137284388D01*
X116543585Y-137293587D01*
X116534389Y-137301133D01*
X116523787Y-137306798D01*
X116512308Y-137310276D01*
X116464274Y-137315000D01*
X114213895Y-137315000D01*
X114180943Y-137318245D01*
X114160696Y-137318104D01*
X114150483Y-137319105D01*
X113519669Y-137385406D01*
X113454362Y-137398812D01*
X113388976Y-137411285D01*
X113379151Y-137414250D01*
X112773228Y-137601816D01*
X112711813Y-137627633D01*
X112650052Y-137652586D01*
X112640991Y-137657403D01*
X112083039Y-137959086D01*
X112027784Y-137996356D01*
X111972069Y-138032815D01*
X111964116Y-138039301D01*
X111475388Y-138443612D01*
X111428411Y-138490918D01*
X111380853Y-138537490D01*
X111374311Y-138545397D01*
X110973422Y-139036935D01*
X110936543Y-139092443D01*
X110898921Y-139147388D01*
X110894040Y-139156415D01*
X110596259Y-139716459D01*
X110570861Y-139778079D01*
X110544630Y-139839280D01*
X110541596Y-139849079D01*
X110541596Y-139849081D01*
X110541595Y-139849083D01*
X110358266Y-140456300D01*
X110345323Y-140521668D01*
X110331477Y-140586809D01*
X110330404Y-140597015D01*
X110268508Y-141228276D01*
X110268508Y-141228287D01*
X110265001Y-141263895D01*
X110265000Y-143514274D01*
X110260276Y-143562309D01*
X110256798Y-143573785D01*
X110251133Y-143584388D01*
X110243585Y-143593587D01*
X110234389Y-143601133D01*
X110223787Y-143606798D01*
X110212308Y-143610276D01*
X110164274Y-143615000D01*
X89735725Y-143615000D01*
X89687690Y-143610276D01*
X89676214Y-143606798D01*
X89665611Y-143601133D01*
X89656412Y-143593585D01*
X89648866Y-143584389D01*
X89643201Y-143573787D01*
X89639723Y-143562308D01*
X89634999Y-143514274D01*
X89634999Y-141263895D01*
X89631761Y-141231018D01*
X89631898Y-141211394D01*
X89630897Y-141201181D01*
X89566636Y-140589777D01*
X89553235Y-140524493D01*
X89540758Y-140459085D01*
X89537792Y-140449260D01*
X89355999Y-139861981D01*
X89341043Y-139826400D01*
X93157089Y-139826400D01*
X93165000Y-139906719D01*
X93165000Y-139987433D01*
X93180747Y-140066601D01*
X93188658Y-140146916D01*
X93212084Y-140224143D01*
X93227832Y-140303312D01*
X93258721Y-140377883D01*
X93282148Y-140455114D01*
X93320194Y-140526292D01*
X93351082Y-140600863D01*
X93395926Y-140667976D01*
X93433970Y-140739152D01*
X93485169Y-140801538D01*
X93530013Y-140868652D01*
X93587089Y-140925728D01*
X93638287Y-140988113D01*
X93700672Y-141039311D01*
X93757748Y-141096387D01*
X93824862Y-141141231D01*
X93887248Y-141192430D01*
X93958424Y-141230474D01*
X94025537Y-141275318D01*
X94100108Y-141306206D01*
X94171286Y-141344252D01*
X94248517Y-141367679D01*
X94323088Y-141398568D01*
X94402257Y-141414316D01*
X94479484Y-141437742D01*
X94559799Y-141445653D01*
X94638967Y-141461400D01*
X94719681Y-141461400D01*
X94800000Y-141469311D01*
X94880319Y-141461400D01*
X94961033Y-141461400D01*
X95040201Y-141445653D01*
X95120516Y-141437742D01*
X95197743Y-141414316D01*
X95276912Y-141398568D01*
X95351483Y-141367679D01*
X95428714Y-141344252D01*
X95499892Y-141306206D01*
X95574463Y-141275318D01*
X95641576Y-141230474D01*
X95712752Y-141192430D01*
X95775137Y-141141232D01*
X95842252Y-141096387D01*
X96069987Y-140868652D01*
X96069989Y-140868649D01*
X97677240Y-139261399D01*
X98564568Y-139261399D01*
X98527832Y-139350088D01*
X98465000Y-139665967D01*
X98465000Y-139988033D01*
X98527832Y-140303912D01*
X98651082Y-140601463D01*
X98830013Y-140869252D01*
X99057748Y-141096987D01*
X99325537Y-141275918D01*
X99623088Y-141399168D01*
X99938967Y-141462000D01*
X100261033Y-141462000D01*
X100576912Y-141399168D01*
X100874463Y-141275918D01*
X101142252Y-141096987D01*
X101369987Y-140869252D01*
X101548918Y-140601463D01*
X101672168Y-140303912D01*
X101735000Y-139988033D01*
X101735000Y-139665967D01*
X101672168Y-139350088D01*
X101635432Y-139261399D01*
X103864320Y-139261399D01*
X103827832Y-139349488D01*
X103765000Y-139665367D01*
X103765000Y-139987433D01*
X103827832Y-140303312D01*
X103951082Y-140600863D01*
X104130013Y-140868652D01*
X104357748Y-141096387D01*
X104625537Y-141275318D01*
X104923088Y-141398568D01*
X105238967Y-141461400D01*
X105561033Y-141461400D01*
X105876912Y-141398568D01*
X106174463Y-141275318D01*
X106442252Y-141096387D01*
X106669987Y-140868652D01*
X106848918Y-140600863D01*
X106972168Y-140303312D01*
X107035000Y-139987433D01*
X107035000Y-139665367D01*
X106972168Y-139349488D01*
X106850460Y-139055660D01*
X106968755Y-138992430D01*
X107217717Y-138788113D01*
X107268928Y-138725713D01*
X108699319Y-137295322D01*
X108761715Y-137244115D01*
X108966032Y-136995153D01*
X109117853Y-136711116D01*
X109211344Y-136402917D01*
X109235001Y-136162723D01*
X109235001Y-136162721D01*
X109242912Y-136082401D01*
X109235001Y-136002082D01*
X109235001Y-132506720D01*
X109242912Y-132426400D01*
X109227724Y-132272195D01*
X109211344Y-132105885D01*
X109117853Y-131797686D01*
X108966032Y-131513649D01*
X108761715Y-131264687D01*
X108699321Y-131213482D01*
X106669989Y-129184151D01*
X106669987Y-129184148D01*
X106442252Y-128956413D01*
X106375137Y-128911568D01*
X106312752Y-128860370D01*
X106241576Y-128822326D01*
X106174463Y-128777482D01*
X106099892Y-128746594D01*
X106028714Y-128708548D01*
X105951483Y-128685121D01*
X105876912Y-128654232D01*
X105797743Y-128638484D01*
X105720516Y-128615058D01*
X105640201Y-128607147D01*
X105561033Y-128591400D01*
X105480319Y-128591400D01*
X105400000Y-128583489D01*
X105319681Y-128591400D01*
X105238967Y-128591400D01*
X105159799Y-128607147D01*
X105079484Y-128615058D01*
X105002257Y-128638484D01*
X104923088Y-128654232D01*
X104848517Y-128685121D01*
X104771286Y-128708548D01*
X104700108Y-128746594D01*
X104625537Y-128777482D01*
X104558424Y-128822326D01*
X104487248Y-128860370D01*
X104424862Y-128911569D01*
X104357748Y-128956413D01*
X104300672Y-129013489D01*
X104238287Y-129064687D01*
X104187089Y-129127072D01*
X104130013Y-129184148D01*
X104085169Y-129251262D01*
X104033970Y-129313648D01*
X103995926Y-129384824D01*
X103951082Y-129451937D01*
X103920194Y-129526508D01*
X103882148Y-129597686D01*
X103858721Y-129674917D01*
X103827832Y-129749488D01*
X103812084Y-129828657D01*
X103788658Y-129905884D01*
X103780747Y-129986199D01*
X103765000Y-130065367D01*
X103765000Y-130146081D01*
X103757089Y-130226400D01*
X103765000Y-130306719D01*
X103765000Y-130387433D01*
X103780747Y-130466601D01*
X103788658Y-130546916D01*
X103812084Y-130624143D01*
X103827832Y-130703312D01*
X103858721Y-130777883D01*
X103882148Y-130855114D01*
X103920194Y-130926292D01*
X103951082Y-131000863D01*
X103995926Y-131067976D01*
X104033970Y-131139152D01*
X104085168Y-131201537D01*
X104130013Y-131268652D01*
X104357748Y-131496387D01*
X104357751Y-131496389D01*
X105965001Y-133103640D01*
X105965001Y-133490720D01*
X105876912Y-133454232D01*
X105561033Y-133391400D01*
X105238967Y-133391400D01*
X104923088Y-133454232D01*
X104625537Y-133577482D01*
X104357748Y-133756413D01*
X104130013Y-133984148D01*
X103951082Y-134251937D01*
X103827832Y-134549488D01*
X103765000Y-134865367D01*
X103765000Y-135187433D01*
X103827832Y-135503312D01*
X103951082Y-135800863D01*
X104078394Y-135991399D01*
X101421606Y-135991399D01*
X101548918Y-135800863D01*
X101672168Y-135503312D01*
X101735000Y-135187433D01*
X101735000Y-134865367D01*
X101672168Y-134549488D01*
X101548918Y-134251937D01*
X101369987Y-133984148D01*
X101142252Y-133756413D01*
X100874463Y-133577482D01*
X100576912Y-133454232D01*
X100261033Y-133391400D01*
X99938967Y-133391400D01*
X99623088Y-133454232D01*
X99325537Y-133577482D01*
X99057748Y-133756413D01*
X98830013Y-133984148D01*
X98651082Y-134251937D01*
X98527832Y-134549488D01*
X98465000Y-134865367D01*
X98465000Y-135187433D01*
X98527832Y-135503312D01*
X98651082Y-135800863D01*
X98778394Y-135991399D01*
X97080320Y-135991399D01*
X97000000Y-135983488D01*
X96919681Y-135991399D01*
X96919679Y-135991399D01*
X96679485Y-136015056D01*
X96371286Y-136108547D01*
X96087249Y-136260368D01*
X95838287Y-136464685D01*
X95787081Y-136527081D01*
X93757751Y-138556411D01*
X93757748Y-138556413D01*
X93530013Y-138784148D01*
X93485168Y-138851263D01*
X93433970Y-138913648D01*
X93395926Y-138984824D01*
X93351082Y-139051937D01*
X93320194Y-139126508D01*
X93282148Y-139197686D01*
X93258721Y-139274917D01*
X93227832Y-139349488D01*
X93212084Y-139428657D01*
X93188658Y-139505884D01*
X93180747Y-139586199D01*
X93165000Y-139665367D01*
X93165000Y-139746081D01*
X93157089Y-139826400D01*
X89341043Y-139826400D01*
X89330166Y-139800526D01*
X89305228Y-139738803D01*
X89300411Y-139729742D01*
X89008010Y-139188958D01*
X88970733Y-139133694D01*
X88934281Y-139077989D01*
X88927796Y-139070036D01*
X88535925Y-138596346D01*
X88488654Y-138549403D01*
X88442046Y-138501809D01*
X88434145Y-138495273D01*
X88434140Y-138495268D01*
X88434135Y-138495264D01*
X87957724Y-138106713D01*
X87902200Y-138069823D01*
X87847272Y-138032213D01*
X87838248Y-138027333D01*
X87838240Y-138027329D01*
X87295434Y-137738714D01*
X87233828Y-137713321D01*
X87172614Y-137687085D01*
X87162811Y-137684050D01*
X86574276Y-137506361D01*
X86508895Y-137493415D01*
X86443767Y-137479572D01*
X86433563Y-137478499D01*
X86433561Y-137478499D01*
X85821723Y-137418508D01*
X85786105Y-137415000D01*
X83535725Y-137415000D01*
X83487690Y-137410276D01*
X83476214Y-137406798D01*
X83465611Y-137401133D01*
X83456412Y-137393585D01*
X83448866Y-137384389D01*
X83443201Y-137373787D01*
X83439723Y-137362308D01*
X83435000Y-137314284D01*
X83435000Y-134865367D01*
X93165000Y-134865367D01*
X93165000Y-135187433D01*
X93227832Y-135503312D01*
X93351082Y-135800863D01*
X93530013Y-136068652D01*
X93757748Y-136296387D01*
X94025537Y-136475318D01*
X94323088Y-136598568D01*
X94638967Y-136661400D01*
X94961033Y-136661400D01*
X95276912Y-136598568D01*
X95574463Y-136475318D01*
X95842252Y-136296387D01*
X96069987Y-136068652D01*
X96248918Y-135800863D01*
X96372168Y-135503312D01*
X96435000Y-135187433D01*
X96435000Y-134865367D01*
X96372168Y-134549488D01*
X96248918Y-134251937D01*
X96069987Y-133984148D01*
X95842252Y-133756413D01*
X95574463Y-133577482D01*
X95276912Y-133454232D01*
X94961033Y-133391400D01*
X94638967Y-133391400D01*
X94323088Y-133454232D01*
X94025537Y-133577482D01*
X93757748Y-133756413D01*
X93530013Y-133984148D01*
X93351082Y-134251937D01*
X93227832Y-134549488D01*
X93165000Y-134865367D01*
X83435000Y-134865367D01*
X83435000Y-130731670D01*
X83500000Y-130738072D01*
X83914250Y-130735000D01*
X84073000Y-130576250D01*
X84073000Y-129627000D01*
X84327000Y-129627000D01*
X84327000Y-130576250D01*
X84485750Y-130735000D01*
X84900000Y-130738072D01*
X85024482Y-130725812D01*
X85144180Y-130689502D01*
X85254494Y-130630537D01*
X85351185Y-130551185D01*
X85430537Y-130454494D01*
X85489502Y-130344180D01*
X85525812Y-130224482D01*
X85538072Y-130100000D01*
X85535000Y-129785750D01*
X85376250Y-129627000D01*
X84327000Y-129627000D01*
X84073000Y-129627000D01*
X84053000Y-129627000D01*
X84053000Y-129373000D01*
X84073000Y-129373000D01*
X84073000Y-129353000D01*
X84327000Y-129353000D01*
X84327000Y-129373000D01*
X85376250Y-129373000D01*
X85535000Y-129214250D01*
X85538072Y-128900000D01*
X85525812Y-128775518D01*
X85489502Y-128655820D01*
X85430537Y-128545506D01*
X85351185Y-128448815D01*
X85321724Y-128424637D01*
X85388405Y-128343387D01*
X85470472Y-128189851D01*
X85521008Y-128023255D01*
X85538072Y-127850001D01*
X85538072Y-127149999D01*
X85521008Y-126976745D01*
X85470472Y-126810149D01*
X85388405Y-126656613D01*
X85277962Y-126522038D01*
X85143387Y-126411595D01*
X84989851Y-126329528D01*
X84823255Y-126278992D01*
X84784999Y-126275224D01*
X84784999Y-126188072D01*
X85850000Y-126188072D01*
X85974482Y-126175812D01*
X86094180Y-126139502D01*
X86204494Y-126080537D01*
X86301185Y-126001185D01*
X86380537Y-125904494D01*
X86439502Y-125794180D01*
X86475812Y-125674482D01*
X86488072Y-125550000D01*
X86488072Y-124050000D01*
X86475812Y-123925518D01*
X86439502Y-123805820D01*
X86380537Y-123695506D01*
X86301185Y-123598815D01*
X86204494Y-123519463D01*
X86094180Y-123460498D01*
X85974482Y-123424188D01*
X85850000Y-123411928D01*
X85779155Y-123411928D01*
X85982886Y-123275799D01*
X86175799Y-123082886D01*
X86327371Y-122856043D01*
X86431775Y-122603989D01*
X86464212Y-122440919D01*
X87942060Y-120963072D01*
X88377501Y-120963072D01*
X88377501Y-122670920D01*
X87904956Y-123143466D01*
X87871183Y-123171183D01*
X87760589Y-123305942D01*
X87678411Y-123459688D01*
X87649756Y-123554150D01*
X87627805Y-123626510D01*
X87626212Y-123642686D01*
X87615000Y-123756524D01*
X87615000Y-123756531D01*
X87610719Y-123800000D01*
X87615000Y-123843469D01*
X87615001Y-130256521D01*
X87610719Y-130300000D01*
X87627805Y-130473490D01*
X87678412Y-130640313D01*
X87760590Y-130794059D01*
X87843468Y-130895046D01*
X87843471Y-130895049D01*
X87871184Y-130928817D01*
X87904951Y-130956529D01*
X88943470Y-131995049D01*
X88971183Y-132028817D01*
X89004951Y-132056530D01*
X89004953Y-132056532D01*
X89065090Y-132105885D01*
X89105941Y-132139411D01*
X89259687Y-132221589D01*
X89375903Y-132256843D01*
X89426509Y-132272195D01*
X89441306Y-132273652D01*
X89556523Y-132285000D01*
X89556531Y-132285000D01*
X89600000Y-132289281D01*
X89643469Y-132285000D01*
X90361546Y-132285000D01*
X90409744Y-132317205D01*
X90598102Y-132395226D01*
X90798061Y-132435000D01*
X91001939Y-132435000D01*
X91201898Y-132395226D01*
X91390256Y-132317205D01*
X91559774Y-132203937D01*
X91703937Y-132059774D01*
X91817205Y-131890256D01*
X91895226Y-131701898D01*
X91935000Y-131501939D01*
X91935000Y-131298061D01*
X91895226Y-131098102D01*
X91817205Y-130909744D01*
X91703937Y-130740226D01*
X91559774Y-130596063D01*
X91390256Y-130482795D01*
X91201898Y-130404774D01*
X91001939Y-130365000D01*
X90798061Y-130365000D01*
X90598102Y-130404774D01*
X90409744Y-130482795D01*
X90361546Y-130515000D01*
X89966579Y-130515000D01*
X89516946Y-130065367D01*
X93165000Y-130065367D01*
X93165000Y-130387433D01*
X93227832Y-130703312D01*
X93351082Y-131000863D01*
X93530013Y-131268652D01*
X93757748Y-131496387D01*
X94025537Y-131675318D01*
X94323088Y-131798568D01*
X94638967Y-131861400D01*
X94961033Y-131861400D01*
X95276912Y-131798568D01*
X95574463Y-131675318D01*
X95842252Y-131496387D01*
X96069987Y-131268652D01*
X96248918Y-131000863D01*
X96372168Y-130703312D01*
X96435000Y-130387433D01*
X96435000Y-130065367D01*
X96372168Y-129749488D01*
X96248918Y-129451937D01*
X96069987Y-129184148D01*
X95842252Y-128956413D01*
X95691675Y-128855800D01*
X97087089Y-128855800D01*
X97118658Y-129176316D01*
X97212148Y-129484514D01*
X97212149Y-129484515D01*
X97363970Y-129768552D01*
X97568287Y-130017514D01*
X97630681Y-130068720D01*
X99000676Y-131438716D01*
X99000682Y-131438721D01*
X99057748Y-131495787D01*
X99124855Y-131540626D01*
X99187247Y-131591830D01*
X99258428Y-131629877D01*
X99325537Y-131674718D01*
X99400103Y-131705604D01*
X99471285Y-131743652D01*
X99548522Y-131767082D01*
X99623088Y-131797968D01*
X99702247Y-131813714D01*
X99779483Y-131837143D01*
X99859807Y-131845054D01*
X99938967Y-131860800D01*
X100019678Y-131860800D01*
X100100000Y-131868711D01*
X100180322Y-131860800D01*
X100261033Y-131860800D01*
X100340193Y-131845054D01*
X100420516Y-131837143D01*
X100497751Y-131813714D01*
X100576912Y-131797968D01*
X100651479Y-131767081D01*
X100728715Y-131743652D01*
X100799896Y-131705605D01*
X100874463Y-131674718D01*
X100941575Y-131629875D01*
X101012752Y-131591830D01*
X101075138Y-131540631D01*
X101142252Y-131495787D01*
X101199328Y-131438711D01*
X101261713Y-131387513D01*
X101312911Y-131325128D01*
X101369987Y-131268052D01*
X101414831Y-131200938D01*
X101466030Y-131138552D01*
X101504075Y-131067375D01*
X101548918Y-131000263D01*
X101579805Y-130925696D01*
X101617852Y-130854515D01*
X101641281Y-130777279D01*
X101672168Y-130702712D01*
X101687914Y-130623551D01*
X101711343Y-130546316D01*
X101719254Y-130465993D01*
X101735000Y-130386833D01*
X101735000Y-130306122D01*
X101742911Y-130225800D01*
X101735000Y-130145478D01*
X101735000Y-130064767D01*
X101719254Y-129985607D01*
X101711343Y-129905283D01*
X101687914Y-129828047D01*
X101672168Y-129748888D01*
X101641282Y-129674322D01*
X101617852Y-129597085D01*
X101579804Y-129525903D01*
X101548918Y-129451337D01*
X101504077Y-129384228D01*
X101466030Y-129313047D01*
X101414826Y-129250655D01*
X101369987Y-129183548D01*
X101312921Y-129126482D01*
X101312916Y-129126476D01*
X100365000Y-128178561D01*
X100365000Y-123908668D01*
X105200600Y-123908668D01*
X105200600Y-124270132D01*
X105271118Y-124624650D01*
X105409444Y-124958599D01*
X105610262Y-125259144D01*
X105865856Y-125514738D01*
X106166401Y-125715556D01*
X106500350Y-125853882D01*
X106854868Y-125924400D01*
X107216332Y-125924400D01*
X107570850Y-125853882D01*
X107904799Y-125715556D01*
X108205344Y-125514738D01*
X108460938Y-125259144D01*
X108661756Y-124958599D01*
X108800082Y-124624650D01*
X108870600Y-124270132D01*
X108870600Y-123908668D01*
X108800082Y-123554150D01*
X108661756Y-123220201D01*
X108460938Y-122919656D01*
X108205344Y-122664062D01*
X107904799Y-122463244D01*
X107570850Y-122324918D01*
X107216332Y-122254400D01*
X106854868Y-122254400D01*
X106500350Y-122324918D01*
X106166401Y-122463244D01*
X105865856Y-122664062D01*
X105610262Y-122919656D01*
X105409444Y-123220201D01*
X105271118Y-123554150D01*
X105200600Y-123908668D01*
X100365000Y-123908668D01*
X100365000Y-112508668D01*
X105200600Y-112508668D01*
X105200600Y-112870132D01*
X105271118Y-113224650D01*
X105409444Y-113558599D01*
X105610262Y-113859144D01*
X105865856Y-114114738D01*
X106166401Y-114315556D01*
X106500350Y-114453882D01*
X106854868Y-114524400D01*
X107216332Y-114524400D01*
X107570850Y-114453882D01*
X107904799Y-114315556D01*
X108205344Y-114114738D01*
X108460938Y-113859144D01*
X108661756Y-113558599D01*
X108800082Y-113224650D01*
X108870600Y-112870132D01*
X108870600Y-112508668D01*
X108800082Y-112154150D01*
X108661756Y-111820201D01*
X108460938Y-111519656D01*
X108205344Y-111264062D01*
X107904799Y-111063244D01*
X107570850Y-110924918D01*
X107216332Y-110854400D01*
X106854868Y-110854400D01*
X106500350Y-110924918D01*
X106166401Y-111063244D01*
X105865856Y-111264062D01*
X105610262Y-111519656D01*
X105409444Y-111820201D01*
X105271118Y-112154150D01*
X105200600Y-112508668D01*
X100365000Y-112508668D01*
X100365000Y-110645256D01*
X100495537Y-110732478D01*
X100793088Y-110855728D01*
X101108967Y-110918560D01*
X101431033Y-110918560D01*
X101746912Y-110855728D01*
X102044463Y-110732478D01*
X102312252Y-110553547D01*
X102539987Y-110325812D01*
X102718918Y-110058023D01*
X102842168Y-109760472D01*
X102905000Y-109444593D01*
X102905000Y-109122527D01*
X102842168Y-108806648D01*
X102718918Y-108509097D01*
X102539987Y-108241308D01*
X102312252Y-108013573D01*
X102044463Y-107834642D01*
X101746912Y-107711392D01*
X101431033Y-107648560D01*
X101108967Y-107648560D01*
X100793088Y-107711392D01*
X100495537Y-107834642D01*
X100285191Y-107975190D01*
X100260537Y-107929066D01*
X100181185Y-107832375D01*
X100084494Y-107753023D01*
X99974180Y-107694058D01*
X99854482Y-107657748D01*
X99730000Y-107645488D01*
X98779131Y-107645488D01*
X98730000Y-107640649D01*
X98680869Y-107645488D01*
X97730000Y-107645488D01*
X97605518Y-107657748D01*
X97485820Y-107694058D01*
X97375506Y-107753023D01*
X97278815Y-107832375D01*
X97199463Y-107929066D01*
X97140498Y-108039380D01*
X97104188Y-108159078D01*
X97091928Y-108283560D01*
X97091928Y-110283560D01*
X97095000Y-110314752D01*
X97095001Y-128775471D01*
X97087089Y-128855800D01*
X95691675Y-128855800D01*
X95574463Y-128777482D01*
X95276912Y-128654232D01*
X94961033Y-128591400D01*
X94638967Y-128591400D01*
X94323088Y-128654232D01*
X94025537Y-128777482D01*
X93757748Y-128956413D01*
X93530013Y-129184148D01*
X93351082Y-129451937D01*
X93227832Y-129749488D01*
X93165000Y-130065367D01*
X89516946Y-130065367D01*
X89385000Y-129933422D01*
X89385000Y-124166578D01*
X89642910Y-123908668D01*
X92500600Y-123908668D01*
X92500600Y-124270132D01*
X92571118Y-124624650D01*
X92709444Y-124958599D01*
X92910262Y-125259144D01*
X93165856Y-125514738D01*
X93466401Y-125715556D01*
X93800350Y-125853882D01*
X94154868Y-125924400D01*
X94516332Y-125924400D01*
X94870850Y-125853882D01*
X95204799Y-125715556D01*
X95505344Y-125514738D01*
X95760938Y-125259144D01*
X95961756Y-124958599D01*
X96100082Y-124624650D01*
X96170600Y-124270132D01*
X96170600Y-123908668D01*
X96100082Y-123554150D01*
X95961756Y-123220201D01*
X95760938Y-122919656D01*
X95505344Y-122664062D01*
X95204799Y-122463244D01*
X94870850Y-122324918D01*
X94516332Y-122254400D01*
X94154868Y-122254400D01*
X93800350Y-122324918D01*
X93466401Y-122463244D01*
X93165856Y-122664062D01*
X92910262Y-122919656D01*
X92709444Y-123220201D01*
X92571118Y-123554150D01*
X92500600Y-123908668D01*
X89642910Y-123908668D01*
X89857549Y-123694030D01*
X89891317Y-123666317D01*
X89923986Y-123626511D01*
X90001911Y-123531559D01*
X90084088Y-123377814D01*
X90084089Y-123377813D01*
X90134695Y-123210990D01*
X90147500Y-123080977D01*
X90147500Y-123080969D01*
X90151781Y-123037500D01*
X90147500Y-122994031D01*
X90147500Y-120963072D01*
X90637500Y-120963072D01*
X90810754Y-120946008D01*
X90977350Y-120895472D01*
X91130886Y-120813405D01*
X91265462Y-120702962D01*
X91375905Y-120568386D01*
X91457972Y-120414850D01*
X91508508Y-120248254D01*
X91525572Y-120075000D01*
X91525572Y-119898852D01*
X91564958Y-119825165D01*
X91629859Y-119611217D01*
X91646282Y-119444470D01*
X91646282Y-119444469D01*
X91651773Y-119388718D01*
X91646282Y-119332966D01*
X91646282Y-112508668D01*
X92500600Y-112508668D01*
X92500600Y-112870132D01*
X92571118Y-113224650D01*
X92709444Y-113558599D01*
X92910262Y-113859144D01*
X93165856Y-114114738D01*
X93466401Y-114315556D01*
X93800350Y-114453882D01*
X94154868Y-114524400D01*
X94516332Y-114524400D01*
X94870850Y-114453882D01*
X95204799Y-114315556D01*
X95505344Y-114114738D01*
X95760938Y-113859144D01*
X95961756Y-113558599D01*
X96100082Y-113224650D01*
X96170600Y-112870132D01*
X96170600Y-112508668D01*
X96100082Y-112154150D01*
X95961756Y-111820201D01*
X95760938Y-111519656D01*
X95505344Y-111264062D01*
X95204799Y-111063244D01*
X94870850Y-110924918D01*
X94516332Y-110854400D01*
X94154868Y-110854400D01*
X93800350Y-110924918D01*
X93466401Y-111063244D01*
X93165856Y-111264062D01*
X92910262Y-111519656D01*
X92709444Y-111820201D01*
X92571118Y-112154150D01*
X92500600Y-112508668D01*
X91646282Y-112508668D01*
X91646282Y-107129564D01*
X91819656Y-107302938D01*
X92120201Y-107503756D01*
X92454150Y-107642082D01*
X92808668Y-107712600D01*
X93170132Y-107712600D01*
X93524650Y-107642082D01*
X93858599Y-107503756D01*
X94159144Y-107302938D01*
X94414738Y-107047344D01*
X94615556Y-106746799D01*
X94753882Y-106412850D01*
X94824400Y-106058332D01*
X94824400Y-105696868D01*
X103854400Y-105696868D01*
X103854400Y-106058332D01*
X103924918Y-106412850D01*
X104063244Y-106746799D01*
X104264062Y-107047344D01*
X104519656Y-107302938D01*
X104820201Y-107503756D01*
X105154150Y-107642082D01*
X105508668Y-107712600D01*
X105870132Y-107712600D01*
X106224650Y-107642082D01*
X106558599Y-107503756D01*
X106859144Y-107302938D01*
X107114738Y-107047344D01*
X107315556Y-106746799D01*
X107453882Y-106412850D01*
X107524400Y-106058332D01*
X107524400Y-105696868D01*
X107453882Y-105342350D01*
X107315556Y-105008401D01*
X107114738Y-104707856D01*
X106859144Y-104452262D01*
X106558599Y-104251444D01*
X106224650Y-104113118D01*
X105870132Y-104042600D01*
X105508668Y-104042600D01*
X105154150Y-104113118D01*
X104820201Y-104251444D01*
X104519656Y-104452262D01*
X104264062Y-104707856D01*
X104063244Y-105008401D01*
X103924918Y-105342350D01*
X103854400Y-105696868D01*
X94824400Y-105696868D01*
X94753882Y-105342350D01*
X94615556Y-105008401D01*
X94414738Y-104707856D01*
X94159144Y-104452262D01*
X93858599Y-104251444D01*
X93524650Y-104113118D01*
X93170132Y-104042600D01*
X92808668Y-104042600D01*
X92454150Y-104113118D01*
X92120201Y-104251444D01*
X91819656Y-104452262D01*
X91646282Y-104625636D01*
X91646282Y-95729564D01*
X91819656Y-95902938D01*
X91979993Y-96010072D01*
X91851716Y-96166377D01*
X91746324Y-96363553D01*
X91681423Y-96577501D01*
X91659509Y-96800000D01*
X91681423Y-97022499D01*
X91746324Y-97236447D01*
X91851716Y-97433623D01*
X91993551Y-97606449D01*
X92166377Y-97748284D01*
X92363553Y-97853676D01*
X92577501Y-97918577D01*
X92744248Y-97935000D01*
X100344249Y-97935000D01*
X100400000Y-97940491D01*
X100455751Y-97935000D01*
X100455752Y-97935000D01*
X100622499Y-97918577D01*
X100836447Y-97853676D01*
X101033623Y-97748284D01*
X101206449Y-97606449D01*
X101241996Y-97563135D01*
X103902912Y-94902219D01*
X103924918Y-95012850D01*
X104063244Y-95346799D01*
X104264062Y-95647344D01*
X104519656Y-95902938D01*
X104820201Y-96103756D01*
X105154150Y-96242082D01*
X105508668Y-96312600D01*
X105870132Y-96312600D01*
X106224650Y-96242082D01*
X106558599Y-96103756D01*
X106859144Y-95902938D01*
X107114738Y-95647344D01*
X107315556Y-95346799D01*
X107453882Y-95012850D01*
X107524400Y-94658332D01*
X107524400Y-94296868D01*
X107453882Y-93942350D01*
X107315556Y-93608401D01*
X107114738Y-93307856D01*
X106859144Y-93052262D01*
X106558599Y-92851444D01*
X106224650Y-92713118D01*
X106033064Y-92675009D01*
X106053675Y-92636448D01*
X106053676Y-92636446D01*
X106118577Y-92422498D01*
X106140491Y-92200000D01*
X106118577Y-91977501D01*
X106053676Y-91763553D01*
X105948283Y-91566377D01*
X105841988Y-91436856D01*
X105841981Y-91436849D01*
X105806448Y-91393552D01*
X105763151Y-91358019D01*
X104363143Y-89958012D01*
X104233622Y-89851717D01*
X104036446Y-89746324D01*
X103822498Y-89681423D01*
X103600000Y-89659509D01*
X103377502Y-89681423D01*
X103163554Y-89746324D01*
X102966378Y-89851717D01*
X102793552Y-89993552D01*
X102651717Y-90166378D01*
X102546324Y-90363554D01*
X102481423Y-90577502D01*
X102459509Y-90800000D01*
X102481423Y-91022498D01*
X102546324Y-91236446D01*
X102651717Y-91433622D01*
X102758012Y-91563143D01*
X103394868Y-92200000D01*
X99929869Y-95665000D01*
X99063355Y-95665000D01*
X99718356Y-95010000D01*
X99772377Y-95010000D01*
X99898061Y-95035000D01*
X100101939Y-95035000D01*
X100301898Y-94995226D01*
X100490256Y-94917205D01*
X100659774Y-94803937D01*
X100803937Y-94659774D01*
X100917205Y-94490256D01*
X100995226Y-94301898D01*
X101035000Y-94101939D01*
X101035000Y-93898061D01*
X100995226Y-93698102D01*
X100917205Y-93509744D01*
X100803937Y-93340226D01*
X100659774Y-93196063D01*
X100553226Y-93124870D01*
X100210000Y-92781645D01*
X100210000Y-89585639D01*
X100491496Y-89529646D01*
X100798147Y-89402628D01*
X101074125Y-89218225D01*
X101270000Y-89022350D01*
X101465875Y-89218225D01*
X101741853Y-89402628D01*
X102048504Y-89529646D01*
X102374042Y-89594400D01*
X102705958Y-89594400D01*
X103031496Y-89529646D01*
X103338147Y-89402628D01*
X103614125Y-89218225D01*
X103848825Y-88983525D01*
X104033228Y-88707547D01*
X104160246Y-88400896D01*
X104225000Y-88075358D01*
X104225000Y-87743442D01*
X104160246Y-87417904D01*
X104033228Y-87111253D01*
X103848825Y-86835275D01*
X103614125Y-86600575D01*
X103338147Y-86416172D01*
X103031496Y-86289154D01*
X102705958Y-86224400D01*
X102374042Y-86224400D01*
X102048504Y-86289154D01*
X101741853Y-86416172D01*
X101465875Y-86600575D01*
X101270000Y-86796450D01*
X101074125Y-86600575D01*
X100798147Y-86416172D01*
X100491496Y-86289154D01*
X100165958Y-86224400D01*
X99834042Y-86224400D01*
X99508504Y-86289154D01*
X99201853Y-86416172D01*
X98925875Y-86600575D01*
X98730000Y-86796450D01*
X98534125Y-86600575D01*
X98258147Y-86416172D01*
X97951496Y-86289154D01*
X97625958Y-86224400D01*
X97294042Y-86224400D01*
X96968504Y-86289154D01*
X96661853Y-86416172D01*
X96385875Y-86600575D01*
X96151175Y-86835275D01*
X95966772Y-87111253D01*
X95839754Y-87417904D01*
X95775000Y-87743442D01*
X95775000Y-88075358D01*
X95839754Y-88400896D01*
X95966772Y-88707547D01*
X96151175Y-88983525D01*
X96385875Y-89218225D01*
X96661853Y-89402628D01*
X96968504Y-89529646D01*
X97294042Y-89594400D01*
X97625958Y-89594400D01*
X97951496Y-89529646D01*
X98190000Y-89430855D01*
X98190001Y-93150382D01*
X98185114Y-93200000D01*
X98204615Y-93397994D01*
X98262368Y-93588379D01*
X98269647Y-93601997D01*
X97346776Y-94524869D01*
X97240226Y-94596063D01*
X97096063Y-94740226D01*
X96982795Y-94909744D01*
X96904774Y-95098102D01*
X96865000Y-95298061D01*
X96865000Y-95501939D01*
X96897435Y-95665000D01*
X94397082Y-95665000D01*
X94414738Y-95647344D01*
X94615556Y-95346799D01*
X94753882Y-95012850D01*
X94824400Y-94658332D01*
X94824400Y-94296868D01*
X94753882Y-93942350D01*
X94615556Y-93608401D01*
X94414738Y-93307856D01*
X94159144Y-93052262D01*
X93858599Y-92851444D01*
X93524650Y-92713118D01*
X93170132Y-92642600D01*
X92808668Y-92642600D01*
X92454150Y-92713118D01*
X92120201Y-92851444D01*
X91819656Y-93052262D01*
X91646282Y-93225636D01*
X91646282Y-84158849D01*
X92241988Y-83563144D01*
X92348283Y-83433623D01*
X92453676Y-83236447D01*
X92518577Y-83022499D01*
X92540491Y-82800001D01*
X92518577Y-82577502D01*
X92453676Y-82363554D01*
X92351074Y-82171599D01*
X93587910Y-82171599D01*
X93609824Y-82394098D01*
X93674725Y-82608046D01*
X93780117Y-82805222D01*
X93921952Y-82978048D01*
X94094778Y-83119883D01*
X94291954Y-83225275D01*
X94505902Y-83290176D01*
X94672649Y-83306599D01*
X95890911Y-83306599D01*
X95839754Y-83430104D01*
X95775000Y-83755642D01*
X95775000Y-84087558D01*
X95839754Y-84413096D01*
X95966772Y-84719747D01*
X96151175Y-84995725D01*
X96385875Y-85230425D01*
X96661853Y-85414828D01*
X96968504Y-85541846D01*
X97294042Y-85606600D01*
X97625958Y-85606600D01*
X97951496Y-85541846D01*
X98258147Y-85414828D01*
X98534125Y-85230425D01*
X98730000Y-85034550D01*
X98925875Y-85230425D01*
X99201853Y-85414828D01*
X99508504Y-85541846D01*
X99834042Y-85606600D01*
X100165958Y-85606600D01*
X100491496Y-85541846D01*
X100798147Y-85414828D01*
X101074125Y-85230425D01*
X101211884Y-85092666D01*
X101548539Y-85092666D01*
X101650339Y-85362179D01*
X101948477Y-85508063D01*
X102269346Y-85592980D01*
X102600617Y-85613666D01*
X102929557Y-85569328D01*
X103243527Y-85461669D01*
X103429661Y-85362179D01*
X103531461Y-85092666D01*
X102540000Y-84101205D01*
X101548539Y-85092666D01*
X101211884Y-85092666D01*
X101308825Y-84995725D01*
X101365042Y-84911591D01*
X101368934Y-84913061D01*
X102360395Y-83921600D01*
X102719605Y-83921600D01*
X103711066Y-84913061D01*
X103980579Y-84811261D01*
X104126463Y-84513123D01*
X104211380Y-84192254D01*
X104232066Y-83860983D01*
X104187728Y-83532043D01*
X104080069Y-83218073D01*
X103980579Y-83031939D01*
X103711066Y-82930139D01*
X102719605Y-83921600D01*
X102360395Y-83921600D01*
X101368934Y-82930139D01*
X101365042Y-82931609D01*
X101308825Y-82847475D01*
X101211884Y-82750534D01*
X101548539Y-82750534D01*
X102540000Y-83741995D01*
X103531461Y-82750534D01*
X103429661Y-82481021D01*
X103131523Y-82335137D01*
X102810654Y-82250220D01*
X102479383Y-82229534D01*
X102150443Y-82273872D01*
X101836473Y-82381531D01*
X101650339Y-82481021D01*
X101548539Y-82750534D01*
X101211884Y-82750534D01*
X101074125Y-82612775D01*
X100798147Y-82428372D01*
X100491496Y-82301354D01*
X100165958Y-82236600D01*
X99894731Y-82236600D01*
X99066595Y-81408464D01*
X99031048Y-81365150D01*
X98858222Y-81223315D01*
X98661046Y-81117923D01*
X98659343Y-81117407D01*
X98730000Y-81046750D01*
X98925875Y-81242625D01*
X99201853Y-81427028D01*
X99508504Y-81554046D01*
X99834042Y-81618800D01*
X100165958Y-81618800D01*
X100491496Y-81554046D01*
X100798147Y-81427028D01*
X101074125Y-81242625D01*
X101270000Y-81046750D01*
X101465875Y-81242625D01*
X101741853Y-81427028D01*
X102048504Y-81554046D01*
X102374042Y-81618800D01*
X102705958Y-81618800D01*
X103031496Y-81554046D01*
X103338147Y-81427028D01*
X103614125Y-81242625D01*
X103848825Y-81007925D01*
X104033228Y-80731947D01*
X104160246Y-80425296D01*
X104225000Y-80099758D01*
X104225000Y-79767842D01*
X104160246Y-79442304D01*
X104033228Y-79135653D01*
X103848825Y-78859675D01*
X103614125Y-78624975D01*
X103338147Y-78440572D01*
X103168591Y-78370340D01*
X104003932Y-77535000D01*
X105742173Y-77535000D01*
X105785150Y-77557972D01*
X105951746Y-77608508D01*
X106125000Y-77625572D01*
X107075000Y-77625572D01*
X107248254Y-77608508D01*
X107414850Y-77557972D01*
X107568386Y-77475905D01*
X107702962Y-77365462D01*
X107813405Y-77230886D01*
X107895472Y-77077350D01*
X107946008Y-76910754D01*
X107963072Y-76737500D01*
X107963072Y-76062500D01*
X107946008Y-75889246D01*
X107895472Y-75722650D01*
X107813405Y-75569114D01*
X107702962Y-75434538D01*
X107615183Y-75362500D01*
X107702962Y-75290462D01*
X107813405Y-75155886D01*
X107895472Y-75002350D01*
X107946008Y-74835754D01*
X107963072Y-74662500D01*
X107963072Y-73987500D01*
X107946008Y-73814246D01*
X107895472Y-73647650D01*
X107813405Y-73494114D01*
X107735000Y-73398577D01*
X107735000Y-73308461D01*
X107788405Y-73243387D01*
X107870472Y-73089851D01*
X107921008Y-72923255D01*
X107938072Y-72750001D01*
X107938072Y-72049999D01*
X107921008Y-71876745D01*
X107870472Y-71710149D01*
X107788405Y-71556613D01*
X107677962Y-71422038D01*
X107651109Y-71400000D01*
X107677962Y-71377962D01*
X107788405Y-71243387D01*
X107870472Y-71089851D01*
X107921008Y-70923255D01*
X107938072Y-70750001D01*
X107938072Y-70049999D01*
X107921008Y-69876745D01*
X107870472Y-69710149D01*
X107788405Y-69556613D01*
X107735000Y-69491539D01*
X107735000Y-69097196D01*
X107794637Y-69037559D01*
X107951680Y-68802527D01*
X108059853Y-68541374D01*
X108115000Y-68264135D01*
X108115000Y-67981465D01*
X108059853Y-67704226D01*
X107951680Y-67443073D01*
X107794637Y-67208041D01*
X107765567Y-67178971D01*
X109555858Y-67178971D01*
X109555858Y-67621029D01*
X109642100Y-68054592D01*
X109811268Y-68463000D01*
X110056861Y-68830557D01*
X110369443Y-69143139D01*
X110737000Y-69388732D01*
X111145408Y-69557900D01*
X111578971Y-69644142D01*
X112021029Y-69644142D01*
X112454592Y-69557900D01*
X112863000Y-69388732D01*
X113230557Y-69143139D01*
X113543139Y-68830557D01*
X113788732Y-68463000D01*
X113957900Y-68054592D01*
X114044142Y-67621029D01*
X114044142Y-67178971D01*
X113957900Y-66745408D01*
X113788732Y-66337000D01*
X113543139Y-65969443D01*
X113230557Y-65656861D01*
X112863000Y-65411268D01*
X112454592Y-65242100D01*
X112021029Y-65155858D01*
X111578971Y-65155858D01*
X111145408Y-65242100D01*
X110737000Y-65411268D01*
X110369443Y-65656861D01*
X110056861Y-65969443D01*
X109811268Y-66337000D01*
X109642100Y-66745408D01*
X109555858Y-67178971D01*
X107765567Y-67178971D01*
X107594759Y-67008163D01*
X107359727Y-66851120D01*
X107098574Y-66742947D01*
X106821335Y-66687800D01*
X106538665Y-66687800D01*
X106261426Y-66742947D01*
X106000273Y-66851120D01*
X105765241Y-67008163D01*
X105565363Y-67208041D01*
X105408320Y-67443073D01*
X105300147Y-67704226D01*
X105245000Y-67981465D01*
X105245000Y-68264135D01*
X105300147Y-68541374D01*
X105408320Y-68802527D01*
X105465001Y-68887356D01*
X105465000Y-69491538D01*
X105411595Y-69556613D01*
X105329528Y-69710149D01*
X105278992Y-69876745D01*
X105261928Y-70049999D01*
X105261928Y-70750001D01*
X105278992Y-70923255D01*
X105329528Y-71089851D01*
X105411595Y-71243387D01*
X105522038Y-71377962D01*
X105548891Y-71400000D01*
X105522038Y-71422038D01*
X105411595Y-71556613D01*
X105329528Y-71710149D01*
X105278992Y-71876745D01*
X105261928Y-72049999D01*
X105261928Y-72750001D01*
X105278992Y-72923255D01*
X105329528Y-73089851D01*
X105411595Y-73243387D01*
X105465001Y-73308462D01*
X105465000Y-73398576D01*
X105386595Y-73494114D01*
X105304528Y-73647650D01*
X105253992Y-73814246D01*
X105236928Y-73987500D01*
X105236928Y-74662500D01*
X105253992Y-74835754D01*
X105304528Y-75002350D01*
X105386595Y-75155886D01*
X105476142Y-75265000D01*
X103589552Y-75265000D01*
X103533800Y-75259509D01*
X103478048Y-75265000D01*
X103311301Y-75281423D01*
X103097353Y-75346324D01*
X102900177Y-75451716D01*
X102727351Y-75593551D01*
X102691809Y-75636859D01*
X100079869Y-78248800D01*
X99834042Y-78248800D01*
X99508504Y-78313554D01*
X99201853Y-78440572D01*
X98925875Y-78624975D01*
X98730000Y-78820850D01*
X98534125Y-78624975D01*
X98258147Y-78440572D01*
X97951496Y-78313554D01*
X97625958Y-78248800D01*
X97556909Y-78248800D01*
X96660000Y-77351892D01*
X96660000Y-76309443D01*
X96670472Y-76289851D01*
X96721008Y-76123255D01*
X96738072Y-75950001D01*
X96738072Y-75249999D01*
X96721008Y-75076745D01*
X96670472Y-74910149D01*
X96601347Y-74780825D01*
X98790000Y-74780825D01*
X98790000Y-75019175D01*
X98836499Y-75252944D01*
X98927712Y-75473150D01*
X99060131Y-75671330D01*
X99228670Y-75839869D01*
X99426850Y-75972288D01*
X99647056Y-76063501D01*
X99880825Y-76110000D01*
X100119175Y-76110000D01*
X100352944Y-76063501D01*
X100573150Y-75972288D01*
X100771330Y-75839869D01*
X100939869Y-75671330D01*
X101072288Y-75473150D01*
X101163501Y-75252944D01*
X101210000Y-75019175D01*
X101210000Y-74780825D01*
X101163501Y-74547056D01*
X101072288Y-74326850D01*
X100939869Y-74128670D01*
X100771330Y-73960131D01*
X100573150Y-73827712D01*
X100352944Y-73736499D01*
X100119175Y-73690000D01*
X99880825Y-73690000D01*
X99647056Y-73736499D01*
X99426850Y-73827712D01*
X99228670Y-73960131D01*
X99060131Y-74128670D01*
X98927712Y-74326850D01*
X98836499Y-74547056D01*
X98790000Y-74780825D01*
X96601347Y-74780825D01*
X96588405Y-74756613D01*
X96521724Y-74675363D01*
X96551185Y-74651185D01*
X96630537Y-74554494D01*
X96689502Y-74444180D01*
X96725812Y-74324482D01*
X96738072Y-74200000D01*
X96735000Y-73885750D01*
X96576250Y-73727000D01*
X95527000Y-73727000D01*
X95527000Y-73747000D01*
X95273000Y-73747000D01*
X95273000Y-73727000D01*
X94223750Y-73727000D01*
X94065000Y-73885750D01*
X94061928Y-74200000D01*
X94074188Y-74324482D01*
X94110498Y-74444180D01*
X94169463Y-74554494D01*
X94248815Y-74651185D01*
X94278276Y-74675363D01*
X94211595Y-74756613D01*
X94129528Y-74910149D01*
X94078992Y-75076745D01*
X94061928Y-75249999D01*
X94061928Y-75950001D01*
X94078992Y-76123255D01*
X94129528Y-76289851D01*
X94140000Y-76309443D01*
X94140001Y-77811908D01*
X94133905Y-77873800D01*
X94158233Y-78120803D01*
X94230280Y-78358313D01*
X94347280Y-78577205D01*
X94465281Y-78720989D01*
X94504736Y-78769065D01*
X94552811Y-78808519D01*
X95775000Y-80030709D01*
X95775000Y-80099758D01*
X95839754Y-80425296D01*
X95966772Y-80731947D01*
X96151175Y-81007925D01*
X96179849Y-81036599D01*
X94672649Y-81036599D01*
X94505902Y-81053022D01*
X94291954Y-81117923D01*
X94094778Y-81223315D01*
X93921952Y-81365150D01*
X93780117Y-81537976D01*
X93674725Y-81735152D01*
X93609824Y-81949100D01*
X93587910Y-82171599D01*
X92351074Y-82171599D01*
X92348283Y-82166378D01*
X92206448Y-81993552D01*
X92033622Y-81851717D01*
X91836446Y-81746324D01*
X91622498Y-81681423D01*
X91399999Y-81659509D01*
X91177501Y-81681423D01*
X90963553Y-81746324D01*
X90766377Y-81851717D01*
X90636856Y-81958012D01*
X89748142Y-82846727D01*
X89704834Y-82882269D01*
X89562999Y-83055095D01*
X89526461Y-83123453D01*
X89457606Y-83252272D01*
X89392705Y-83466220D01*
X89370791Y-83688718D01*
X89376283Y-83744480D01*
X89376283Y-85486962D01*
X89262999Y-85411268D01*
X88854591Y-85242100D01*
X88421028Y-85155858D01*
X87978970Y-85155858D01*
X87545407Y-85242100D01*
X87136999Y-85411268D01*
X86769442Y-85656861D01*
X86456860Y-85969443D01*
X86211267Y-86337000D01*
X86042099Y-86745408D01*
X85955857Y-87178971D01*
X85955857Y-87621029D01*
X86042099Y-88054592D01*
X86211267Y-88463000D01*
X86456860Y-88830557D01*
X86769442Y-89143139D01*
X87136999Y-89388732D01*
X87545407Y-89557900D01*
X87978970Y-89644142D01*
X88421028Y-89644142D01*
X88854591Y-89557900D01*
X89262999Y-89388732D01*
X89376283Y-89313038D01*
X89376282Y-117524703D01*
X86385000Y-114533422D01*
X86385000Y-114263589D01*
X86331775Y-113996011D01*
X86227371Y-113743957D01*
X86075799Y-113517114D01*
X85882886Y-113324201D01*
X85679155Y-113188072D01*
X85750000Y-113188072D01*
X85874482Y-113175812D01*
X85994180Y-113139502D01*
X86104494Y-113080537D01*
X86201185Y-113001185D01*
X86280537Y-112904494D01*
X86339502Y-112794180D01*
X86375812Y-112674482D01*
X86388072Y-112550000D01*
X86388072Y-111050000D01*
X86375812Y-110925518D01*
X86339502Y-110805820D01*
X86280537Y-110695506D01*
X86201185Y-110598815D01*
X86104494Y-110519463D01*
X85994180Y-110460498D01*
X85874482Y-110424188D01*
X85750000Y-110411928D01*
X84250000Y-110411928D01*
X84125518Y-110424188D01*
X84005820Y-110460498D01*
X83895506Y-110519463D01*
X83798815Y-110598815D01*
X83719463Y-110695506D01*
X83660498Y-110805820D01*
X83624188Y-110925518D01*
X83611928Y-111050000D01*
X83611928Y-112550000D01*
X83624188Y-112674482D01*
X83660498Y-112794180D01*
X83719463Y-112904494D01*
X83798815Y-113001185D01*
X83895506Y-113080537D01*
X84005820Y-113139502D01*
X84125518Y-113175812D01*
X84250000Y-113188072D01*
X84320845Y-113188072D01*
X84117114Y-113324201D01*
X83924201Y-113517114D01*
X83772629Y-113743957D01*
X83668225Y-113996011D01*
X83615000Y-114263589D01*
X83615000Y-114536411D01*
X83668225Y-114803989D01*
X83772629Y-115056043D01*
X83924201Y-115282886D01*
X84117114Y-115475799D01*
X84343957Y-115627371D01*
X84519299Y-115700000D01*
X84343957Y-115772629D01*
X84117114Y-115924201D01*
X83924201Y-116117114D01*
X83772629Y-116343957D01*
X83668225Y-116596011D01*
X83615000Y-116863589D01*
X83615000Y-117136411D01*
X83668225Y-117403989D01*
X83772629Y-117656043D01*
X83924201Y-117882886D01*
X84117114Y-118075799D01*
X84343957Y-118227371D01*
X84569299Y-118320711D01*
X84443957Y-118372629D01*
X84217114Y-118524201D01*
X84024201Y-118717114D01*
X83872629Y-118943957D01*
X83768225Y-119196011D01*
X83715000Y-119463589D01*
X83715000Y-119736411D01*
X83768225Y-120003989D01*
X83872629Y-120256043D01*
X84024201Y-120482886D01*
X84217114Y-120675799D01*
X84443957Y-120827371D01*
X84619299Y-120900000D01*
X84443957Y-120972629D01*
X84217114Y-121124201D01*
X84024201Y-121317114D01*
X83872629Y-121543957D01*
X83768225Y-121796011D01*
X83735788Y-121959080D01*
X83435000Y-122259869D01*
X83435000Y-72400000D01*
X92061928Y-72400000D01*
X92074188Y-72524482D01*
X92110498Y-72644180D01*
X92169463Y-72754494D01*
X92248815Y-72851185D01*
X92345506Y-72930537D01*
X92455820Y-72989502D01*
X92575518Y-73025812D01*
X92700000Y-73038072D01*
X93114250Y-73035000D01*
X93273000Y-72876250D01*
X93273000Y-71927000D01*
X93527000Y-71927000D01*
X93527000Y-72876250D01*
X93685750Y-73035000D01*
X94062297Y-73037792D01*
X94065000Y-73314250D01*
X94223750Y-73473000D01*
X95273000Y-73473000D01*
X95273000Y-71927000D01*
X95527000Y-71927000D01*
X95527000Y-73473000D01*
X96576250Y-73473000D01*
X96735000Y-73314250D01*
X96738072Y-73000000D01*
X96725812Y-72875518D01*
X96689502Y-72755820D01*
X96659665Y-72700000D01*
X96689502Y-72644180D01*
X96725812Y-72524482D01*
X96738072Y-72400000D01*
X96735000Y-72085750D01*
X96576250Y-71927000D01*
X95527000Y-71927000D01*
X95273000Y-71927000D01*
X93527000Y-71927000D01*
X93273000Y-71927000D01*
X92223750Y-71927000D01*
X92065000Y-72085750D01*
X92061928Y-72400000D01*
X83435000Y-72400000D01*
X83434999Y-67178971D01*
X85955857Y-67178971D01*
X85955857Y-67621029D01*
X86042099Y-68054592D01*
X86211267Y-68463000D01*
X86456860Y-68830557D01*
X86769442Y-69143139D01*
X87136999Y-69388732D01*
X87545407Y-69557900D01*
X87978970Y-69644142D01*
X88421028Y-69644142D01*
X88854591Y-69557900D01*
X89262999Y-69388732D01*
X89630556Y-69143139D01*
X89943138Y-68830557D01*
X90188731Y-68463000D01*
X90357899Y-68054592D01*
X90444141Y-67621029D01*
X90444141Y-67178971D01*
X90357899Y-66745408D01*
X90188731Y-66337000D01*
X89943138Y-65969443D01*
X89630556Y-65656861D01*
X89262999Y-65411268D01*
X88854591Y-65242100D01*
X88421028Y-65155858D01*
X87978970Y-65155858D01*
X87545407Y-65242100D01*
X87136999Y-65411268D01*
X86769442Y-65656861D01*
X86456860Y-65969443D01*
X86211267Y-66337000D01*
X86042099Y-66745408D01*
X85955857Y-67178971D01*
X83434999Y-67178971D01*
X83434999Y-64225000D01*
X91436928Y-64225000D01*
X91436928Y-64900000D01*
X91453992Y-65073254D01*
X91504528Y-65239850D01*
X91586595Y-65393386D01*
X91697038Y-65527962D01*
X91703594Y-65533342D01*
X91623815Y-65598815D01*
X91544463Y-65695506D01*
X91485498Y-65805820D01*
X91449188Y-65925518D01*
X91436928Y-66050000D01*
X91440000Y-66351750D01*
X91598750Y-66510500D01*
X92673000Y-66510500D01*
X92673000Y-66490500D01*
X92927000Y-66490500D01*
X92927000Y-66510500D01*
X92947000Y-66510500D01*
X92947000Y-66764500D01*
X92927000Y-66764500D01*
X92927000Y-66784500D01*
X92673000Y-66784500D01*
X92673000Y-66764500D01*
X91598750Y-66764500D01*
X91440000Y-66923250D01*
X91436928Y-67225000D01*
X91449188Y-67349482D01*
X91485498Y-67469180D01*
X91544463Y-67579494D01*
X91623815Y-67676185D01*
X91720506Y-67755537D01*
X91830820Y-67814502D01*
X91950518Y-67850812D01*
X92075000Y-67863072D01*
X92243047Y-67861897D01*
X92230280Y-67885783D01*
X92225876Y-67900302D01*
X92158232Y-68123293D01*
X92140000Y-68308403D01*
X92140000Y-68308413D01*
X92133905Y-68370296D01*
X92140000Y-68432179D01*
X92140000Y-69090557D01*
X92129528Y-69110149D01*
X92078992Y-69276745D01*
X92061928Y-69449999D01*
X92061928Y-70150001D01*
X92078992Y-70323255D01*
X92129528Y-70489851D01*
X92211595Y-70643387D01*
X92278276Y-70724637D01*
X92248815Y-70748815D01*
X92169463Y-70845506D01*
X92110498Y-70955820D01*
X92074188Y-71075518D01*
X92061928Y-71200000D01*
X92065000Y-71514250D01*
X92223750Y-71673000D01*
X93273000Y-71673000D01*
X93273000Y-71653000D01*
X93527000Y-71653000D01*
X93527000Y-71673000D01*
X95273000Y-71673000D01*
X95273000Y-71653000D01*
X95527000Y-71653000D01*
X95527000Y-71673000D01*
X96576250Y-71673000D01*
X96735000Y-71514250D01*
X96738072Y-71200000D01*
X96725812Y-71075518D01*
X96689502Y-70955820D01*
X96671951Y-70922984D01*
X96803405Y-70852720D01*
X96868283Y-70799476D01*
X96926515Y-70908422D01*
X97068350Y-71081248D01*
X97111664Y-71116795D01*
X98786928Y-72792060D01*
X98786928Y-72975000D01*
X98799188Y-73099482D01*
X98835498Y-73219180D01*
X98894463Y-73329494D01*
X98973815Y-73426185D01*
X99070506Y-73505537D01*
X99180820Y-73564502D01*
X99300518Y-73600812D01*
X99425000Y-73613072D01*
X100575000Y-73613072D01*
X100699482Y-73600812D01*
X100819180Y-73564502D01*
X100929494Y-73505537D01*
X101026185Y-73426185D01*
X101105537Y-73329494D01*
X101164502Y-73219180D01*
X101200812Y-73099482D01*
X101213072Y-72975000D01*
X101213072Y-71825000D01*
X101200812Y-71700518D01*
X101164502Y-71580820D01*
X101105537Y-71470506D01*
X101026185Y-71373815D01*
X100929494Y-71294463D01*
X100819180Y-71235498D01*
X100699482Y-71199188D01*
X100575000Y-71186928D01*
X100392060Y-71186928D01*
X99009799Y-69804668D01*
X99009799Y-69103272D01*
X101299800Y-69103272D01*
X101424282Y-69091012D01*
X101543980Y-69054702D01*
X101654294Y-68995737D01*
X101750985Y-68916385D01*
X101830337Y-68819694D01*
X101889302Y-68709380D01*
X101925612Y-68589682D01*
X101937872Y-68465200D01*
X101937872Y-66465200D01*
X101925612Y-66340718D01*
X101889302Y-66221020D01*
X101830337Y-66110706D01*
X101750985Y-66014015D01*
X101654294Y-65934663D01*
X101543980Y-65875698D01*
X101424282Y-65839388D01*
X101299800Y-65827128D01*
X99134799Y-65827128D01*
X99134799Y-64112109D01*
X100143637Y-63103272D01*
X101299800Y-63103272D01*
X101424282Y-63091012D01*
X101543980Y-63054702D01*
X101654294Y-62995737D01*
X101750985Y-62916385D01*
X101830337Y-62819694D01*
X101880846Y-62725200D01*
X105655717Y-62725200D01*
X105717600Y-62731295D01*
X105779483Y-62725200D01*
X105779493Y-62725200D01*
X105964603Y-62706968D01*
X106202114Y-62634920D01*
X106421005Y-62517920D01*
X106612865Y-62360465D01*
X106652323Y-62312385D01*
X107023836Y-61940872D01*
X107480000Y-61940872D01*
X107604482Y-61928612D01*
X107724180Y-61892302D01*
X107834494Y-61833337D01*
X107931185Y-61753985D01*
X108010537Y-61657294D01*
X108069502Y-61546980D01*
X108105812Y-61427282D01*
X108118072Y-61302800D01*
X108118072Y-59702800D01*
X108105812Y-59578318D01*
X108069502Y-59458620D01*
X108010537Y-59348306D01*
X107931185Y-59251615D01*
X107834494Y-59172263D01*
X107724180Y-59113298D01*
X107604482Y-59076988D01*
X107480000Y-59064728D01*
X105880000Y-59064728D01*
X105755518Y-59076988D01*
X105635820Y-59113298D01*
X105525506Y-59172263D01*
X105428815Y-59251615D01*
X105349463Y-59348306D01*
X105290498Y-59458620D01*
X105254188Y-59578318D01*
X105241928Y-59702800D01*
X105241928Y-60158964D01*
X105195692Y-60205200D01*
X101880846Y-60205200D01*
X101830337Y-60110706D01*
X101750985Y-60014015D01*
X101654294Y-59934663D01*
X101543980Y-59875698D01*
X101424282Y-59839388D01*
X101299800Y-59827128D01*
X98699800Y-59827128D01*
X98575318Y-59839388D01*
X98455620Y-59875698D01*
X98345306Y-59934663D01*
X98248615Y-60014015D01*
X98169263Y-60110706D01*
X98110298Y-60221020D01*
X98073988Y-60340718D01*
X98061728Y-60465200D01*
X98061728Y-61621363D01*
X97027610Y-62655482D01*
X96979535Y-62694936D01*
X96940081Y-62743011D01*
X96940080Y-62743012D01*
X96851710Y-62850691D01*
X96830337Y-62810706D01*
X96750985Y-62714015D01*
X96654294Y-62634663D01*
X96543980Y-62575698D01*
X96424282Y-62539388D01*
X96299800Y-62527128D01*
X94299800Y-62527128D01*
X94175318Y-62539388D01*
X94055620Y-62575698D01*
X93945306Y-62634663D01*
X93848615Y-62714015D01*
X93769263Y-62810706D01*
X93710298Y-62921020D01*
X93673988Y-63040718D01*
X93661728Y-63165200D01*
X93661728Y-63205200D01*
X92959183Y-63205200D01*
X92897300Y-63199105D01*
X92835418Y-63205200D01*
X92835407Y-63205200D01*
X92650297Y-63223432D01*
X92412786Y-63295480D01*
X92335242Y-63336928D01*
X92325000Y-63336928D01*
X92151746Y-63353992D01*
X91985150Y-63404528D01*
X91831614Y-63486595D01*
X91697038Y-63597038D01*
X91586595Y-63731614D01*
X91504528Y-63885150D01*
X91453992Y-64051746D01*
X91436928Y-64225000D01*
X83434999Y-64225000D01*
X83434998Y-62735735D01*
X83439723Y-62687691D01*
X83443201Y-62676212D01*
X83448866Y-62665610D01*
X83456412Y-62656414D01*
X83465611Y-62648866D01*
X83476214Y-62643201D01*
X83487690Y-62639723D01*
X83535715Y-62635000D01*
X85786105Y-62635000D01*
X85819024Y-62631758D01*
X85838955Y-62631897D01*
X85849168Y-62630896D01*
X86470277Y-62565615D01*
X86535584Y-62552209D01*
X86600970Y-62539736D01*
X86610795Y-62536771D01*
X87207395Y-62352092D01*
X87268862Y-62326254D01*
X87330573Y-62301321D01*
X87339634Y-62296504D01*
X87889001Y-61999462D01*
X87944240Y-61962202D01*
X87999971Y-61925733D01*
X88007924Y-61919247D01*
X88489133Y-61521156D01*
X88536094Y-61473866D01*
X88583668Y-61427278D01*
X88590210Y-61419371D01*
X88984931Y-60935395D01*
X89021811Y-60879887D01*
X89059433Y-60824941D01*
X89064315Y-60815914D01*
X89357514Y-60264486D01*
X89382915Y-60202859D01*
X89409142Y-60141666D01*
X89412177Y-60131863D01*
X89592686Y-59533988D01*
X89605635Y-59468589D01*
X89619475Y-59403480D01*
X89620548Y-59393274D01*
X89681492Y-58771724D01*
X89681492Y-58771723D01*
X89685000Y-58736105D01*
X89685000Y-56485715D01*
X89689723Y-56437691D01*
X89693201Y-56426212D01*
X89698866Y-56415610D01*
X89706412Y-56406414D01*
X89715611Y-56398866D01*
X89726214Y-56393201D01*
X89737690Y-56389723D01*
X89785715Y-56385000D01*
X110214284Y-56385000D01*
X110262308Y-56389723D01*
G37*
%TD.AperFunction*%
%TD*%
M02*
