%TF.GenerationSoftware,KiCad,Pcbnew,5.1.9*%
%TF.CreationDate,2021-02-01T12:12:55-08:00*%
%TF.ProjectId,MainBoard,4d61696e-426f-4617-9264-2e6b69636164,rev?*%
%TF.SameCoordinates,Original*%
%TF.FileFunction,Legend,Top*%
%TF.FilePolarity,Positive*%
%FSLAX46Y46*%
G04 Gerber Fmt 4.6, Leading zero omitted, Abs format (unit mm)*
G04 Created by KiCad (PCBNEW 5.1.9) date 2021-02-01 12:12:55*
%MOMM*%
%LPD*%
G01*
G04 APERTURE LIST*
%ADD10C,0.120000*%
%ADD11C,0.100000*%
%ADD12C,0.150000*%
G04 APERTURE END LIST*
D10*
%TO.C,U1*%
X90100000Y-127000000D02*
X110100000Y-127000000D01*
X90100000Y-127000000D02*
X90100000Y-144300000D01*
X110100000Y-144300000D02*
X110100000Y-127000000D01*
X90100000Y-144300000D02*
X110100000Y-144300000D01*
%TO.C,J6*%
X86915000Y-82020000D02*
X86915000Y-84680000D01*
X92055000Y-82020000D02*
X86915000Y-82020000D01*
X92055000Y-84680000D02*
X86915000Y-84680000D01*
X92055000Y-82020000D02*
X92055000Y-84680000D01*
X93325000Y-82020000D02*
X94655000Y-82020000D01*
X94655000Y-82020000D02*
X94655000Y-83350000D01*
D11*
%TO.C,D2*%
X102630000Y-107350000D02*
X102630000Y-104140000D01*
X102631718Y-107357211D02*
G75*
G02*
X102630000Y-104140000I-2611718J1607211D01*
G01*
D10*
%TO.C,D4*%
X115636371Y-77620000D02*
G75*
G03*
X115636371Y-77620000I-1326371J0D01*
G01*
X114310000Y-78946371D02*
X114310000Y-79060000D01*
%TO.C,D3*%
X113046371Y-80140000D02*
G75*
G03*
X113046371Y-80140000I-1326371J0D01*
G01*
X111720000Y-78813629D02*
X111720000Y-78700000D01*
%TO.C,D1*%
X92456371Y-67300000D02*
G75*
G03*
X92456371Y-67300000I-1326371J0D01*
G01*
X92456371Y-67300000D02*
X92570000Y-67300000D01*
%TO.C,J1*%
X107200000Y-125900000D02*
X83600000Y-125900000D01*
X107200000Y-109700000D02*
X107200000Y-125900000D01*
X83600000Y-109700000D02*
X107200000Y-109700000D01*
X83600000Y-125900000D02*
X83600000Y-109700000D01*
D11*
%TO.C,Q2*%
X111300000Y-126100000D02*
X111000000Y-126250000D01*
X111300000Y-125800000D02*
X111300000Y-126100000D01*
X111300000Y-121400000D02*
X111300000Y-121700000D01*
X111300000Y-121400000D02*
X111000000Y-121250000D01*
D12*
X108150000Y-121800000D02*
G75*
G03*
X108100000Y-125650000I1900000J-1950000D01*
G01*
D11*
%TO.C,Q1*%
X90425000Y-94020000D02*
X90125000Y-94170000D01*
X90425000Y-93720000D02*
X90425000Y-94020000D01*
X90425000Y-89320000D02*
X90425000Y-89620000D01*
X90425000Y-89320000D02*
X90125000Y-89170000D01*
D12*
X87275000Y-89720000D02*
G75*
G03*
X87225000Y-93570000I1900000J-1950000D01*
G01*
D10*
%TO.C,J5*%
X103785000Y-78420000D02*
X103785000Y-79750000D01*
X102455000Y-78420000D02*
X103785000Y-78420000D01*
X101185000Y-78420000D02*
X101185000Y-81080000D01*
X101185000Y-81080000D02*
X96045000Y-81080000D01*
X101185000Y-78420000D02*
X96045000Y-78420000D01*
X96045000Y-78420000D02*
X96045000Y-81080000D01*
%TO.C,J4*%
X113030000Y-82270000D02*
X113030000Y-83600000D01*
X111700000Y-82270000D02*
X113030000Y-82270000D01*
X110430000Y-82270000D02*
X110430000Y-84930000D01*
X110430000Y-84930000D02*
X105290000Y-84930000D01*
X110430000Y-82270000D02*
X105290000Y-82270000D01*
X105290000Y-82270000D02*
X105290000Y-84930000D01*
%TO.C,J3*%
X92800000Y-85700000D02*
X116400000Y-85700000D01*
X92800000Y-101900000D02*
X92800000Y-85700000D01*
X116400000Y-101900000D02*
X92800000Y-101900000D01*
X116400000Y-85700000D02*
X116400000Y-101900000D01*
D11*
%TO.C,J2*%
X104600000Y-68200000D02*
X104100000Y-68200000D01*
X104600000Y-68200000D02*
X104600000Y-67700000D01*
X95400000Y-68200000D02*
X95900000Y-68200000D01*
X95400000Y-68200000D02*
X95400000Y-67700000D01*
X98800000Y-62600000D02*
X101200000Y-62600000D01*
X95400000Y-53600000D02*
X95400000Y-54100000D01*
X95400000Y-53600000D02*
X95900000Y-53600000D01*
X104600000Y-53600000D02*
X104100000Y-53600000D01*
X104600000Y-53600000D02*
X104600000Y-54100000D01*
X95400000Y-60900000D02*
X95400000Y-59900000D01*
X104600000Y-60900000D02*
X104600000Y-59900000D01*
%TO.C,U1*%
D12*
X87598095Y-127222380D02*
X87598095Y-128031904D01*
X87645714Y-128127142D01*
X87693333Y-128174761D01*
X87788571Y-128222380D01*
X87979047Y-128222380D01*
X88074285Y-128174761D01*
X88121904Y-128127142D01*
X88169523Y-128031904D01*
X88169523Y-127222380D01*
X89169523Y-128222380D02*
X88598095Y-128222380D01*
X88883809Y-128222380D02*
X88883809Y-127222380D01*
X88788571Y-127365238D01*
X88693333Y-127460476D01*
X88598095Y-127508095D01*
%TO.C,J6*%
X95107380Y-83683333D02*
X95821666Y-83683333D01*
X95964523Y-83730952D01*
X96059761Y-83826190D01*
X96107380Y-83969047D01*
X96107380Y-84064285D01*
X95107380Y-82778571D02*
X95107380Y-82969047D01*
X95155000Y-83064285D01*
X95202619Y-83111904D01*
X95345476Y-83207142D01*
X95535952Y-83254761D01*
X95916904Y-83254761D01*
X96012142Y-83207142D01*
X96059761Y-83159523D01*
X96107380Y-83064285D01*
X96107380Y-82873809D01*
X96059761Y-82778571D01*
X96012142Y-82730952D01*
X95916904Y-82683333D01*
X95678809Y-82683333D01*
X95583571Y-82730952D01*
X95535952Y-82778571D01*
X95488333Y-82873809D01*
X95488333Y-83064285D01*
X95535952Y-83159523D01*
X95583571Y-83207142D01*
X95678809Y-83254761D01*
%TO.C,D2*%
X103541904Y-106212380D02*
X103541904Y-105212380D01*
X103780000Y-105212380D01*
X103922857Y-105260000D01*
X104018095Y-105355238D01*
X104065714Y-105450476D01*
X104113333Y-105640952D01*
X104113333Y-105783809D01*
X104065714Y-105974285D01*
X104018095Y-106069523D01*
X103922857Y-106164761D01*
X103780000Y-106212380D01*
X103541904Y-106212380D01*
X104494285Y-105307619D02*
X104541904Y-105260000D01*
X104637142Y-105212380D01*
X104875238Y-105212380D01*
X104970476Y-105260000D01*
X105018095Y-105307619D01*
X105065714Y-105402857D01*
X105065714Y-105498095D01*
X105018095Y-105640952D01*
X104446666Y-106212380D01*
X105065714Y-106212380D01*
%TO.C,D4*%
X117088751Y-79628095D02*
X116088751Y-79628095D01*
X116088751Y-79390000D01*
X116136371Y-79247142D01*
X116231609Y-79151904D01*
X116326847Y-79104285D01*
X116517323Y-79056666D01*
X116660180Y-79056666D01*
X116850656Y-79104285D01*
X116945894Y-79151904D01*
X117041132Y-79247142D01*
X117088751Y-79390000D01*
X117088751Y-79628095D01*
X116422085Y-78199523D02*
X117088751Y-78199523D01*
X116041132Y-78437619D02*
X116755418Y-78675714D01*
X116755418Y-78056666D01*
X114476666Y-82198095D02*
X114476666Y-81721904D01*
X114762380Y-82293333D02*
X113762380Y-81960000D01*
X114762380Y-81626666D01*
%TO.C,D3*%
X109846009Y-79608095D02*
X108846009Y-79608095D01*
X108846009Y-79370000D01*
X108893629Y-79227142D01*
X108988867Y-79131904D01*
X109084105Y-79084285D01*
X109274581Y-79036666D01*
X109417438Y-79036666D01*
X109607914Y-79084285D01*
X109703152Y-79131904D01*
X109798390Y-79227142D01*
X109846009Y-79370000D01*
X109846009Y-79608095D01*
X108846009Y-78703333D02*
X108846009Y-78084285D01*
X109226962Y-78417619D01*
X109226962Y-78274761D01*
X109274581Y-78179523D01*
X109322200Y-78131904D01*
X109417438Y-78084285D01*
X109655533Y-78084285D01*
X109750771Y-78131904D01*
X109798390Y-78179523D01*
X109846009Y-78274761D01*
X109846009Y-78560476D01*
X109798390Y-78655714D01*
X109750771Y-78703333D01*
X111886666Y-76038095D02*
X111886666Y-75561904D01*
X112172380Y-76133333D02*
X111172380Y-75800000D01*
X112172380Y-75466666D01*
%TO.C,D1*%
X91661904Y-65426009D02*
X91661904Y-64426009D01*
X91900000Y-64426009D01*
X92042857Y-64473629D01*
X92138095Y-64568867D01*
X92185714Y-64664105D01*
X92233333Y-64854581D01*
X92233333Y-64997438D01*
X92185714Y-65187914D01*
X92138095Y-65283152D01*
X92042857Y-65378390D01*
X91900000Y-65426009D01*
X91661904Y-65426009D01*
X93185714Y-65426009D02*
X92614285Y-65426009D01*
X92900000Y-65426009D02*
X92900000Y-64426009D01*
X92804761Y-64568867D01*
X92709523Y-64664105D01*
X92614285Y-64711724D01*
X95231904Y-67466666D02*
X95708095Y-67466666D01*
X95136666Y-67752380D02*
X95470000Y-66752380D01*
X95803333Y-67752380D01*
%TO.C,J1*%
X108496666Y-109742380D02*
X108496666Y-110456666D01*
X108449047Y-110599523D01*
X108353809Y-110694761D01*
X108210952Y-110742380D01*
X108115714Y-110742380D01*
X109496666Y-110742380D02*
X108925238Y-110742380D01*
X109210952Y-110742380D02*
X109210952Y-109742380D01*
X109115714Y-109885238D01*
X109020476Y-109980476D01*
X108925238Y-110028095D01*
%TO.C,Q2*%
X109684761Y-120947619D02*
X109589523Y-120900000D01*
X109494285Y-120804761D01*
X109351428Y-120661904D01*
X109256190Y-120614285D01*
X109160952Y-120614285D01*
X109208571Y-120852380D02*
X109113333Y-120804761D01*
X109018095Y-120709523D01*
X108970476Y-120519047D01*
X108970476Y-120185714D01*
X109018095Y-119995238D01*
X109113333Y-119900000D01*
X109208571Y-119852380D01*
X109399047Y-119852380D01*
X109494285Y-119900000D01*
X109589523Y-119995238D01*
X109637142Y-120185714D01*
X109637142Y-120519047D01*
X109589523Y-120709523D01*
X109494285Y-120804761D01*
X109399047Y-120852380D01*
X109208571Y-120852380D01*
X110018095Y-119947619D02*
X110065714Y-119900000D01*
X110160952Y-119852380D01*
X110399047Y-119852380D01*
X110494285Y-119900000D01*
X110541904Y-119947619D01*
X110589523Y-120042857D01*
X110589523Y-120138095D01*
X110541904Y-120280952D01*
X109970476Y-120852380D01*
X110589523Y-120852380D01*
%TO.C,Q1*%
X86577619Y-93645238D02*
X86530000Y-93740476D01*
X86434761Y-93835714D01*
X86291904Y-93978571D01*
X86244285Y-94073809D01*
X86244285Y-94169047D01*
X86482380Y-94121428D02*
X86434761Y-94216666D01*
X86339523Y-94311904D01*
X86149047Y-94359523D01*
X85815714Y-94359523D01*
X85625238Y-94311904D01*
X85530000Y-94216666D01*
X85482380Y-94121428D01*
X85482380Y-93930952D01*
X85530000Y-93835714D01*
X85625238Y-93740476D01*
X85815714Y-93692857D01*
X86149047Y-93692857D01*
X86339523Y-93740476D01*
X86434761Y-93835714D01*
X86482380Y-93930952D01*
X86482380Y-94121428D01*
X86482380Y-92740476D02*
X86482380Y-93311904D01*
X86482380Y-93026190D02*
X85482380Y-93026190D01*
X85625238Y-93121428D01*
X85720476Y-93216666D01*
X85768095Y-93311904D01*
%TO.C,J5*%
X104237380Y-80083333D02*
X104951666Y-80083333D01*
X105094523Y-80130952D01*
X105189761Y-80226190D01*
X105237380Y-80369047D01*
X105237380Y-80464285D01*
X104237380Y-79130952D02*
X104237380Y-79607142D01*
X104713571Y-79654761D01*
X104665952Y-79607142D01*
X104618333Y-79511904D01*
X104618333Y-79273809D01*
X104665952Y-79178571D01*
X104713571Y-79130952D01*
X104808809Y-79083333D01*
X105046904Y-79083333D01*
X105142142Y-79130952D01*
X105189761Y-79178571D01*
X105237380Y-79273809D01*
X105237380Y-79511904D01*
X105189761Y-79607142D01*
X105142142Y-79654761D01*
%TO.C,J4*%
X113482380Y-83933333D02*
X114196666Y-83933333D01*
X114339523Y-83980952D01*
X114434761Y-84076190D01*
X114482380Y-84219047D01*
X114482380Y-84314285D01*
X113815714Y-83028571D02*
X114482380Y-83028571D01*
X113434761Y-83266666D02*
X114149047Y-83504761D01*
X114149047Y-82885714D01*
%TO.C,J3*%
X90846666Y-100962380D02*
X90846666Y-101676666D01*
X90799047Y-101819523D01*
X90703809Y-101914761D01*
X90560952Y-101962380D01*
X90465714Y-101962380D01*
X91227619Y-100962380D02*
X91846666Y-100962380D01*
X91513333Y-101343333D01*
X91656190Y-101343333D01*
X91751428Y-101390952D01*
X91799047Y-101438571D01*
X91846666Y-101533809D01*
X91846666Y-101771904D01*
X91799047Y-101867142D01*
X91751428Y-101914761D01*
X91656190Y-101962380D01*
X91370476Y-101962380D01*
X91275238Y-101914761D01*
X91227619Y-101867142D01*
%TO.C,J2*%
X105346666Y-66262380D02*
X105346666Y-66976666D01*
X105299047Y-67119523D01*
X105203809Y-67214761D01*
X105060952Y-67262380D01*
X104965714Y-67262380D01*
X105775238Y-66357619D02*
X105822857Y-66310000D01*
X105918095Y-66262380D01*
X106156190Y-66262380D01*
X106251428Y-66310000D01*
X106299047Y-66357619D01*
X106346666Y-66452857D01*
X106346666Y-66548095D01*
X106299047Y-66690952D01*
X105727619Y-67262380D01*
X106346666Y-67262380D01*
%TD*%
M02*
