%TF.GenerationSoftware,KiCad,Pcbnew,5.1.9*%
%TF.CreationDate,2021-02-01T12:12:55-08:00*%
%TF.ProjectId,MainBoard,4d61696e-426f-4617-9264-2e6b69636164,rev?*%
%TF.SameCoordinates,Original*%
%TF.FileFunction,Copper,L4,Bot*%
%TF.FilePolarity,Positive*%
%FSLAX46Y46*%
G04 Gerber Fmt 4.6, Leading zero omitted, Abs format (unit mm)*
G04 Created by KiCad (PCBNEW 5.1.9) date 2021-02-01 12:12:55*
%MOMM*%
%LPD*%
G01*
G04 APERTURE LIST*
%TA.AperFunction,ComponentPad*%
%ADD10C,2.000000*%
%TD*%
%TA.AperFunction,ComponentPad*%
%ADD11R,1.700000X1.700000*%
%TD*%
%TA.AperFunction,ComponentPad*%
%ADD12O,1.700000X1.700000*%
%TD*%
%TA.AperFunction,ComponentPad*%
%ADD13R,2.000000X2.000000*%
%TD*%
%TA.AperFunction,ComponentPad*%
%ADD14O,1.600000X1.600000*%
%TD*%
%TA.AperFunction,ComponentPad*%
%ADD15R,1.600000X1.600000*%
%TD*%
%TA.AperFunction,ComponentPad*%
%ADD16C,2.400000*%
%TD*%
%TA.AperFunction,SMDPad,CuDef*%
%ADD17R,2.950000X4.900000*%
%TD*%
%TA.AperFunction,ComponentPad*%
%ADD18R,1.500000X1.000000*%
%TD*%
%TA.AperFunction,ComponentPad*%
%ADD19O,1.500000X1.000000*%
%TD*%
%TA.AperFunction,ComponentPad*%
%ADD20R,2.600000X2.000000*%
%TD*%
%TA.AperFunction,ComponentPad*%
%ADD21R,2.000000X2.600000*%
%TD*%
%TA.AperFunction,ViaPad*%
%ADD22C,0.800000*%
%TD*%
%TA.AperFunction,Conductor*%
%ADD23C,1.250000*%
%TD*%
%TA.AperFunction,Conductor*%
%ADD24C,0.750000*%
%TD*%
%TA.AperFunction,Conductor*%
%ADD25C,1.000000*%
%TD*%
%TA.AperFunction,Conductor*%
%ADD26C,0.500000*%
%TD*%
%TA.AperFunction,Conductor*%
%ADD27C,1.500000*%
%TD*%
%TA.AperFunction,Conductor*%
%ADD28C,0.254000*%
%TD*%
%TA.AperFunction,Conductor*%
%ADD29C,0.100000*%
%TD*%
G04 APERTURE END LIST*
D10*
%TO.P,U1,7*%
%TO.N,/EFFECT_OUT*%
X94700000Y-130800000D03*
%TO.P,U1,9*%
%TO.N,/PassThru*%
X94700000Y-140400000D03*
%TO.P,U1,8*%
%TO.N,/SIG_OUT*%
X94700000Y-135600000D03*
%TO.P,U1,1*%
%TO.N,Net-(D2-Pad1)*%
X105300000Y-130800000D03*
%TO.P,U1,3*%
%TO.N,Net-(U1-Pad3)*%
X105300000Y-140400000D03*
%TO.P,U1,2*%
%TO.N,GND*%
X105300000Y-135600000D03*
%TO.P,U1,4*%
%TO.N,/PassThru*%
X100000000Y-130799400D03*
%TO.P,U1,5*%
%TO.N,/SIG_IN*%
X100000000Y-135600000D03*
%TO.P,U1,6*%
%TO.N,Net-(U1-Pad3)*%
X100000000Y-140400600D03*
%TD*%
%TO.P,R15,2*%
%TO.N,GND*%
%TA.AperFunction,SMDPad,CuDef*%
G36*
G01*
X109160000Y-135610001D02*
X109160000Y-134709999D01*
G75*
G02*
X109409999Y-134460000I249999J0D01*
G01*
X110110001Y-134460000D01*
G75*
G02*
X110360000Y-134709999I0J-249999D01*
G01*
X110360000Y-135610001D01*
G75*
G02*
X110110001Y-135860000I-249999J0D01*
G01*
X109409999Y-135860000D01*
G75*
G02*
X109160000Y-135610001I0J249999D01*
G01*
G37*
%TD.AperFunction*%
%TO.P,R15,1*%
%TO.N,/SIG_IN*%
%TA.AperFunction,SMDPad,CuDef*%
G36*
G01*
X107160000Y-135610001D02*
X107160000Y-134709999D01*
G75*
G02*
X107409999Y-134460000I249999J0D01*
G01*
X108110001Y-134460000D01*
G75*
G02*
X108360000Y-134709999I0J-249999D01*
G01*
X108360000Y-135610001D01*
G75*
G02*
X108110001Y-135860000I-249999J0D01*
G01*
X107409999Y-135860000D01*
G75*
G02*
X107160000Y-135610001I0J249999D01*
G01*
G37*
%TD.AperFunction*%
%TD*%
D11*
%TO.P,J6,1*%
%TO.N,Net-(J6-Pad1)*%
X93325000Y-83350000D03*
D12*
%TO.P,J6,2*%
%TO.N,VCC*%
X90785000Y-83350000D03*
%TO.P,J6,3*%
%TO.N,Net-(C9-Pad2)*%
X88245000Y-83350000D03*
%TD*%
%TO.P,R11,2*%
%TO.N,GND*%
%TA.AperFunction,SMDPad,CuDef*%
G36*
G01*
X84675001Y-90225000D02*
X83774999Y-90225000D01*
G75*
G02*
X83525000Y-89975001I0J249999D01*
G01*
X83525000Y-89274999D01*
G75*
G02*
X83774999Y-89025000I249999J0D01*
G01*
X84675001Y-89025000D01*
G75*
G02*
X84925000Y-89274999I0J-249999D01*
G01*
X84925000Y-89975001D01*
G75*
G02*
X84675001Y-90225000I-249999J0D01*
G01*
G37*
%TD.AperFunction*%
%TO.P,R11,1*%
%TO.N,Net-(C9-Pad1)*%
%TA.AperFunction,SMDPad,CuDef*%
G36*
G01*
X84675001Y-92225000D02*
X83774999Y-92225000D01*
G75*
G02*
X83525000Y-91975001I0J249999D01*
G01*
X83525000Y-91274999D01*
G75*
G02*
X83774999Y-91025000I249999J0D01*
G01*
X84675001Y-91025000D01*
G75*
G02*
X84925000Y-91274999I0J-249999D01*
G01*
X84925000Y-91975001D01*
G75*
G02*
X84675001Y-92225000I-249999J0D01*
G01*
G37*
%TD.AperFunction*%
%TD*%
%TO.P,C8,2*%
%TO.N,/volume/IN*%
%TA.AperFunction,SMDPad,CuDef*%
G36*
G01*
X92845000Y-90797500D02*
X93795000Y-90797500D01*
G75*
G02*
X94045000Y-91047500I0J-250000D01*
G01*
X94045000Y-91722500D01*
G75*
G02*
X93795000Y-91972500I-250000J0D01*
G01*
X92845000Y-91972500D01*
G75*
G02*
X92595000Y-91722500I0J250000D01*
G01*
X92595000Y-91047500D01*
G75*
G02*
X92845000Y-90797500I250000J0D01*
G01*
G37*
%TD.AperFunction*%
%TO.P,C8,1*%
%TO.N,Net-(C8-Pad1)*%
%TA.AperFunction,SMDPad,CuDef*%
G36*
G01*
X92845000Y-88722500D02*
X93795000Y-88722500D01*
G75*
G02*
X94045000Y-88972500I0J-250000D01*
G01*
X94045000Y-89647500D01*
G75*
G02*
X93795000Y-89897500I-250000J0D01*
G01*
X92845000Y-89897500D01*
G75*
G02*
X92595000Y-89647500I0J250000D01*
G01*
X92595000Y-88972500D01*
G75*
G02*
X92845000Y-88722500I250000J0D01*
G01*
G37*
%TD.AperFunction*%
%TD*%
D13*
%TO.P,D2,1*%
%TO.N,Net-(D2-Pad1)*%
X98750000Y-105750000D03*
D10*
%TO.P,D2,2*%
%TO.N,Net-(D2-Pad2)*%
X101290000Y-105750000D03*
%TD*%
D14*
%TO.P,D4,2*%
%TO.N,Net-(C5-Pad1)*%
X114310000Y-80160000D03*
D15*
%TO.P,D4,1*%
%TO.N,Net-(C5-Pad2)*%
X114310000Y-77620000D03*
%TD*%
D14*
%TO.P,D3,2*%
%TO.N,Net-(C5-Pad2)*%
X111720000Y-77600000D03*
D15*
%TO.P,D3,1*%
%TO.N,Net-(C5-Pad1)*%
X111720000Y-80140000D03*
%TD*%
D14*
%TO.P,D1,2*%
%TO.N,GND*%
X93670000Y-67300000D03*
D15*
%TO.P,D1,1*%
%TO.N,+9V*%
X91130000Y-67300000D03*
%TD*%
D16*
%TO.P,J1,T*%
%TO.N,/PassThru*%
X100600000Y-123500000D03*
%TO.P,J1,S*%
%TO.N,GND*%
X87900000Y-123500000D03*
%TO.P,J1,TN*%
X100600000Y-112100000D03*
%TO.P,J1,SN*%
X87900000Y-112100000D03*
%TD*%
D17*
%TO.P,U2,9*%
%TO.N,N/C*%
X104450000Y-93930000D03*
%TO.P,U2,8*%
%TA.AperFunction,SMDPad,CuDef*%
G36*
G01*
X102775000Y-91875000D02*
X102775000Y-92175000D01*
G75*
G02*
X102625000Y-92325000I-150000J0D01*
G01*
X101150000Y-92325000D01*
G75*
G02*
X101000000Y-92175000I0J150000D01*
G01*
X101000000Y-91875000D01*
G75*
G02*
X101150000Y-91725000I150000J0D01*
G01*
X102625000Y-91725000D01*
G75*
G02*
X102775000Y-91875000I0J-150000D01*
G01*
G37*
%TD.AperFunction*%
%TO.P,U2,7*%
%TO.N,/volume/IN*%
%TA.AperFunction,SMDPad,CuDef*%
G36*
G01*
X102775000Y-93145000D02*
X102775000Y-93445000D01*
G75*
G02*
X102625000Y-93595000I-150000J0D01*
G01*
X101150000Y-93595000D01*
G75*
G02*
X101000000Y-93445000I0J150000D01*
G01*
X101000000Y-93145000D01*
G75*
G02*
X101150000Y-92995000I150000J0D01*
G01*
X102625000Y-92995000D01*
G75*
G02*
X102775000Y-93145000I0J-150000D01*
G01*
G37*
%TD.AperFunction*%
%TO.P,U2,6*%
%TO.N,Net-(J5-Pad3)*%
%TA.AperFunction,SMDPad,CuDef*%
G36*
G01*
X102775000Y-94415000D02*
X102775000Y-94715000D01*
G75*
G02*
X102625000Y-94865000I-150000J0D01*
G01*
X101150000Y-94865000D01*
G75*
G02*
X101000000Y-94715000I0J150000D01*
G01*
X101000000Y-94415000D01*
G75*
G02*
X101150000Y-94265000I150000J0D01*
G01*
X102625000Y-94265000D01*
G75*
G02*
X102775000Y-94415000I0J-150000D01*
G01*
G37*
%TD.AperFunction*%
%TO.P,U2,5*%
%TO.N,/tone/IN*%
%TA.AperFunction,SMDPad,CuDef*%
G36*
G01*
X102775000Y-95685000D02*
X102775000Y-95985000D01*
G75*
G02*
X102625000Y-96135000I-150000J0D01*
G01*
X101150000Y-96135000D01*
G75*
G02*
X101000000Y-95985000I0J150000D01*
G01*
X101000000Y-95685000D01*
G75*
G02*
X101150000Y-95535000I150000J0D01*
G01*
X102625000Y-95535000D01*
G75*
G02*
X102775000Y-95685000I0J-150000D01*
G01*
G37*
%TD.AperFunction*%
%TO.P,U2,4*%
%TO.N,N/C*%
%TA.AperFunction,SMDPad,CuDef*%
G36*
G01*
X107900000Y-95685000D02*
X107900000Y-95985000D01*
G75*
G02*
X107750000Y-96135000I-150000J0D01*
G01*
X106275000Y-96135000D01*
G75*
G02*
X106125000Y-95985000I0J150000D01*
G01*
X106125000Y-95685000D01*
G75*
G02*
X106275000Y-95535000I150000J0D01*
G01*
X107750000Y-95535000D01*
G75*
G02*
X107900000Y-95685000I0J-150000D01*
G01*
G37*
%TD.AperFunction*%
%TO.P,U2,3*%
%TO.N,Net-(C4-Pad2)*%
%TA.AperFunction,SMDPad,CuDef*%
G36*
G01*
X107900000Y-94415000D02*
X107900000Y-94715000D01*
G75*
G02*
X107750000Y-94865000I-150000J0D01*
G01*
X106275000Y-94865000D01*
G75*
G02*
X106125000Y-94715000I0J150000D01*
G01*
X106125000Y-94415000D01*
G75*
G02*
X106275000Y-94265000I150000J0D01*
G01*
X107750000Y-94265000D01*
G75*
G02*
X107900000Y-94415000I0J-150000D01*
G01*
G37*
%TD.AperFunction*%
%TO.P,U2,2*%
%TO.N,Net-(C5-Pad2)*%
%TA.AperFunction,SMDPad,CuDef*%
G36*
G01*
X107900000Y-93145000D02*
X107900000Y-93445000D01*
G75*
G02*
X107750000Y-93595000I-150000J0D01*
G01*
X106275000Y-93595000D01*
G75*
G02*
X106125000Y-93445000I0J150000D01*
G01*
X106125000Y-93145000D01*
G75*
G02*
X106275000Y-92995000I150000J0D01*
G01*
X107750000Y-92995000D01*
G75*
G02*
X107900000Y-93145000I0J-150000D01*
G01*
G37*
%TD.AperFunction*%
%TO.P,U2,1*%
%TO.N,Net-(C5-Pad1)*%
%TA.AperFunction,SMDPad,CuDef*%
G36*
G01*
X107900000Y-91875000D02*
X107900000Y-92175000D01*
G75*
G02*
X107750000Y-92325000I-150000J0D01*
G01*
X106275000Y-92325000D01*
G75*
G02*
X106125000Y-92175000I0J150000D01*
G01*
X106125000Y-91875000D01*
G75*
G02*
X106275000Y-91725000I150000J0D01*
G01*
X107750000Y-91725000D01*
G75*
G02*
X107900000Y-91875000I0J-150000D01*
G01*
G37*
%TD.AperFunction*%
%TD*%
%TO.P,R18,2*%
%TO.N,GND*%
%TA.AperFunction,SMDPad,CuDef*%
G36*
G01*
X110749999Y-129150000D02*
X111650001Y-129150000D01*
G75*
G02*
X111900000Y-129399999I0J-249999D01*
G01*
X111900000Y-130100001D01*
G75*
G02*
X111650001Y-130350000I-249999J0D01*
G01*
X110749999Y-130350000D01*
G75*
G02*
X110500000Y-130100001I0J249999D01*
G01*
X110500000Y-129399999D01*
G75*
G02*
X110749999Y-129150000I249999J0D01*
G01*
G37*
%TD.AperFunction*%
%TO.P,R18,1*%
%TO.N,/drive/IN*%
%TA.AperFunction,SMDPad,CuDef*%
G36*
G01*
X110749999Y-127150000D02*
X111650001Y-127150000D01*
G75*
G02*
X111900000Y-127399999I0J-249999D01*
G01*
X111900000Y-128100001D01*
G75*
G02*
X111650001Y-128350000I-249999J0D01*
G01*
X110749999Y-128350000D01*
G75*
G02*
X110500000Y-128100001I0J249999D01*
G01*
X110500000Y-127399999D01*
G75*
G02*
X110749999Y-127150000I249999J0D01*
G01*
G37*
%TD.AperFunction*%
%TD*%
%TO.P,R17,2*%
%TO.N,Net-(Q2-Pad2)*%
%TA.AperFunction,SMDPad,CuDef*%
G36*
G01*
X105509999Y-126890000D02*
X106410001Y-126890000D01*
G75*
G02*
X106660000Y-127139999I0J-249999D01*
G01*
X106660000Y-127840001D01*
G75*
G02*
X106410001Y-128090000I-249999J0D01*
G01*
X105509999Y-128090000D01*
G75*
G02*
X105260000Y-127840001I0J249999D01*
G01*
X105260000Y-127139999D01*
G75*
G02*
X105509999Y-126890000I249999J0D01*
G01*
G37*
%TD.AperFunction*%
%TO.P,R17,1*%
%TO.N,VCC*%
%TA.AperFunction,SMDPad,CuDef*%
G36*
G01*
X105509999Y-124890000D02*
X106410001Y-124890000D01*
G75*
G02*
X106660000Y-125139999I0J-249999D01*
G01*
X106660000Y-125840001D01*
G75*
G02*
X106410001Y-126090000I-249999J0D01*
G01*
X105509999Y-126090000D01*
G75*
G02*
X105260000Y-125840001I0J249999D01*
G01*
X105260000Y-125139999D01*
G75*
G02*
X105509999Y-124890000I249999J0D01*
G01*
G37*
%TD.AperFunction*%
%TD*%
%TO.P,R16,2*%
%TO.N,Net-(C11-Pad1)*%
%TA.AperFunction,SMDPad,CuDef*%
G36*
G01*
X107429999Y-128920000D02*
X108330001Y-128920000D01*
G75*
G02*
X108580000Y-129169999I0J-249999D01*
G01*
X108580000Y-129870001D01*
G75*
G02*
X108330001Y-130120000I-249999J0D01*
G01*
X107429999Y-130120000D01*
G75*
G02*
X107180000Y-129870001I0J249999D01*
G01*
X107180000Y-129169999D01*
G75*
G02*
X107429999Y-128920000I249999J0D01*
G01*
G37*
%TD.AperFunction*%
%TO.P,R16,1*%
%TO.N,Net-(Q2-Pad2)*%
%TA.AperFunction,SMDPad,CuDef*%
G36*
G01*
X107429999Y-126920000D02*
X108330001Y-126920000D01*
G75*
G02*
X108580000Y-127169999I0J-249999D01*
G01*
X108580000Y-127870001D01*
G75*
G02*
X108330001Y-128120000I-249999J0D01*
G01*
X107429999Y-128120000D01*
G75*
G02*
X107180000Y-127870001I0J249999D01*
G01*
X107180000Y-127169999D01*
G75*
G02*
X107429999Y-126920000I249999J0D01*
G01*
G37*
%TD.AperFunction*%
%TD*%
%TO.P,R14,2*%
%TO.N,GND*%
%TA.AperFunction,SMDPad,CuDef*%
G36*
G01*
X87250001Y-99900000D02*
X86349999Y-99900000D01*
G75*
G02*
X86100000Y-99650001I0J249999D01*
G01*
X86100000Y-98949999D01*
G75*
G02*
X86349999Y-98700000I249999J0D01*
G01*
X87250001Y-98700000D01*
G75*
G02*
X87500000Y-98949999I0J-249999D01*
G01*
X87500000Y-99650001D01*
G75*
G02*
X87250001Y-99900000I-249999J0D01*
G01*
G37*
%TD.AperFunction*%
%TO.P,R14,1*%
%TO.N,/EFFECT_OUT*%
%TA.AperFunction,SMDPad,CuDef*%
G36*
G01*
X87250001Y-101900000D02*
X86349999Y-101900000D01*
G75*
G02*
X86100000Y-101650001I0J249999D01*
G01*
X86100000Y-100949999D01*
G75*
G02*
X86349999Y-100700000I249999J0D01*
G01*
X87250001Y-100700000D01*
G75*
G02*
X87500000Y-100949999I0J-249999D01*
G01*
X87500000Y-101650001D01*
G75*
G02*
X87250001Y-101900000I-249999J0D01*
G01*
G37*
%TD.AperFunction*%
%TD*%
%TO.P,R13,2*%
%TO.N,Net-(Q1-Pad1)*%
%TA.AperFunction,SMDPad,CuDef*%
G36*
G01*
X89225001Y-96075000D02*
X88324999Y-96075000D01*
G75*
G02*
X88075000Y-95825001I0J249999D01*
G01*
X88075000Y-95124999D01*
G75*
G02*
X88324999Y-94875000I249999J0D01*
G01*
X89225001Y-94875000D01*
G75*
G02*
X89475000Y-95124999I0J-249999D01*
G01*
X89475000Y-95825001D01*
G75*
G02*
X89225001Y-96075000I-249999J0D01*
G01*
G37*
%TD.AperFunction*%
%TO.P,R13,1*%
%TO.N,Net-(C10-Pad1)*%
%TA.AperFunction,SMDPad,CuDef*%
G36*
G01*
X89225001Y-98075000D02*
X88324999Y-98075000D01*
G75*
G02*
X88075000Y-97825001I0J249999D01*
G01*
X88075000Y-97124999D01*
G75*
G02*
X88324999Y-96875000I249999J0D01*
G01*
X89225001Y-96875000D01*
G75*
G02*
X89475000Y-97124999I0J-249999D01*
G01*
X89475000Y-97825001D01*
G75*
G02*
X89225001Y-98075000I-249999J0D01*
G01*
G37*
%TD.AperFunction*%
%TD*%
%TO.P,R12,2*%
%TO.N,GND*%
%TA.AperFunction,SMDPad,CuDef*%
G36*
G01*
X85525000Y-95099999D02*
X85525000Y-96000001D01*
G75*
G02*
X85275001Y-96250000I-249999J0D01*
G01*
X84574999Y-96250000D01*
G75*
G02*
X84325000Y-96000001I0J249999D01*
G01*
X84325000Y-95099999D01*
G75*
G02*
X84574999Y-94850000I249999J0D01*
G01*
X85275001Y-94850000D01*
G75*
G02*
X85525000Y-95099999I0J-249999D01*
G01*
G37*
%TD.AperFunction*%
%TO.P,R12,1*%
%TO.N,Net-(Q1-Pad1)*%
%TA.AperFunction,SMDPad,CuDef*%
G36*
G01*
X87525000Y-95099999D02*
X87525000Y-96000001D01*
G75*
G02*
X87275001Y-96250000I-249999J0D01*
G01*
X86574999Y-96250000D01*
G75*
G02*
X86325000Y-96000001I0J249999D01*
G01*
X86325000Y-95099999D01*
G75*
G02*
X86574999Y-94850000I249999J0D01*
G01*
X87275001Y-94850000D01*
G75*
G02*
X87525000Y-95099999I0J-249999D01*
G01*
G37*
%TD.AperFunction*%
%TD*%
%TO.P,R10,2*%
%TO.N,Net-(C8-Pad1)*%
%TA.AperFunction,SMDPad,CuDef*%
G36*
G01*
X92869999Y-86970000D02*
X93770001Y-86970000D01*
G75*
G02*
X94020000Y-87219999I0J-249999D01*
G01*
X94020000Y-87920001D01*
G75*
G02*
X93770001Y-88170000I-249999J0D01*
G01*
X92869999Y-88170000D01*
G75*
G02*
X92620000Y-87920001I0J249999D01*
G01*
X92620000Y-87219999D01*
G75*
G02*
X92869999Y-86970000I249999J0D01*
G01*
G37*
%TD.AperFunction*%
%TO.P,R10,1*%
%TO.N,Net-(J6-Pad1)*%
%TA.AperFunction,SMDPad,CuDef*%
G36*
G01*
X92869999Y-84970000D02*
X93770001Y-84970000D01*
G75*
G02*
X94020000Y-85219999I0J-249999D01*
G01*
X94020000Y-85920001D01*
G75*
G02*
X93770001Y-86170000I-249999J0D01*
G01*
X92869999Y-86170000D01*
G75*
G02*
X92620000Y-85920001I0J249999D01*
G01*
X92620000Y-85219999D01*
G75*
G02*
X92869999Y-84970000I249999J0D01*
G01*
G37*
%TD.AperFunction*%
%TD*%
%TO.P,R9,2*%
%TO.N,Net-(J5-Pad3)*%
%TA.AperFunction,SMDPad,CuDef*%
G36*
G01*
X98929999Y-94610000D02*
X99830001Y-94610000D01*
G75*
G02*
X100080000Y-94859999I0J-249999D01*
G01*
X100080000Y-95560001D01*
G75*
G02*
X99830001Y-95810000I-249999J0D01*
G01*
X98929999Y-95810000D01*
G75*
G02*
X98680000Y-95560001I0J249999D01*
G01*
X98680000Y-94859999D01*
G75*
G02*
X98929999Y-94610000I249999J0D01*
G01*
G37*
%TD.AperFunction*%
%TO.P,R9,1*%
%TO.N,/volume/IN*%
%TA.AperFunction,SMDPad,CuDef*%
G36*
G01*
X98929999Y-92610000D02*
X99830001Y-92610000D01*
G75*
G02*
X100080000Y-92859999I0J-249999D01*
G01*
X100080000Y-93560001D01*
G75*
G02*
X99830001Y-93810000I-249999J0D01*
G01*
X98929999Y-93810000D01*
G75*
G02*
X98680000Y-93560001I0J249999D01*
G01*
X98680000Y-92859999D01*
G75*
G02*
X98929999Y-92610000I249999J0D01*
G01*
G37*
%TD.AperFunction*%
%TD*%
%TO.P,R8,2*%
%TO.N,GND*%
%TA.AperFunction,SMDPad,CuDef*%
G36*
G01*
X100575000Y-74424999D02*
X100575000Y-75325001D01*
G75*
G02*
X100325001Y-75575000I-249999J0D01*
G01*
X99624999Y-75575000D01*
G75*
G02*
X99375000Y-75325001I0J249999D01*
G01*
X99375000Y-74424999D01*
G75*
G02*
X99624999Y-74175000I249999J0D01*
G01*
X100325001Y-74175000D01*
G75*
G02*
X100575000Y-74424999I0J-249999D01*
G01*
G37*
%TD.AperFunction*%
%TO.P,R8,1*%
%TO.N,Net-(C7-Pad2)*%
%TA.AperFunction,SMDPad,CuDef*%
G36*
G01*
X102575000Y-74424999D02*
X102575000Y-75325001D01*
G75*
G02*
X102325001Y-75575000I-249999J0D01*
G01*
X101624999Y-75575000D01*
G75*
G02*
X101375000Y-75325001I0J249999D01*
G01*
X101375000Y-74424999D01*
G75*
G02*
X101624999Y-74175000I249999J0D01*
G01*
X102325001Y-74175000D01*
G75*
G02*
X102575000Y-74424999I0J-249999D01*
G01*
G37*
%TD.AperFunction*%
%TD*%
%TO.P,R7,2*%
%TO.N,/tone/IN*%
%TA.AperFunction,SMDPad,CuDef*%
G36*
G01*
X104630001Y-100200000D02*
X103729999Y-100200000D01*
G75*
G02*
X103480000Y-99950001I0J249999D01*
G01*
X103480000Y-99249999D01*
G75*
G02*
X103729999Y-99000000I249999J0D01*
G01*
X104630001Y-99000000D01*
G75*
G02*
X104880000Y-99249999I0J-249999D01*
G01*
X104880000Y-99950001D01*
G75*
G02*
X104630001Y-100200000I-249999J0D01*
G01*
G37*
%TD.AperFunction*%
%TO.P,R7,1*%
%TO.N,VCC*%
%TA.AperFunction,SMDPad,CuDef*%
G36*
G01*
X104630001Y-102200000D02*
X103729999Y-102200000D01*
G75*
G02*
X103480000Y-101950001I0J249999D01*
G01*
X103480000Y-101249999D01*
G75*
G02*
X103729999Y-101000000I249999J0D01*
G01*
X104630001Y-101000000D01*
G75*
G02*
X104880000Y-101249999I0J-249999D01*
G01*
X104880000Y-101950001D01*
G75*
G02*
X104630001Y-102200000I-249999J0D01*
G01*
G37*
%TD.AperFunction*%
%TD*%
%TO.P,R6,2*%
%TO.N,Net-(C5-Pad1)*%
%TA.AperFunction,SMDPad,CuDef*%
G36*
G01*
X104800000Y-98130001D02*
X104800000Y-97229999D01*
G75*
G02*
X105049999Y-96980000I249999J0D01*
G01*
X105750001Y-96980000D01*
G75*
G02*
X106000000Y-97229999I0J-249999D01*
G01*
X106000000Y-98130001D01*
G75*
G02*
X105750001Y-98380000I-249999J0D01*
G01*
X105049999Y-98380000D01*
G75*
G02*
X104800000Y-98130001I0J249999D01*
G01*
G37*
%TD.AperFunction*%
%TO.P,R6,1*%
%TO.N,/tone/IN*%
%TA.AperFunction,SMDPad,CuDef*%
G36*
G01*
X102800000Y-98130001D02*
X102800000Y-97229999D01*
G75*
G02*
X103049999Y-96980000I249999J0D01*
G01*
X103750001Y-96980000D01*
G75*
G02*
X104000000Y-97229999I0J-249999D01*
G01*
X104000000Y-98130001D01*
G75*
G02*
X103750001Y-98380000I-249999J0D01*
G01*
X103049999Y-98380000D01*
G75*
G02*
X102800000Y-98130001I0J249999D01*
G01*
G37*
%TD.AperFunction*%
%TD*%
%TO.P,R5,2*%
%TO.N,Net-(C5-Pad2)*%
%TA.AperFunction,SMDPad,CuDef*%
G36*
G01*
X114499999Y-85000000D02*
X115400001Y-85000000D01*
G75*
G02*
X115650000Y-85249999I0J-249999D01*
G01*
X115650000Y-85950001D01*
G75*
G02*
X115400001Y-86200000I-249999J0D01*
G01*
X114499999Y-86200000D01*
G75*
G02*
X114250000Y-85950001I0J249999D01*
G01*
X114250000Y-85249999D01*
G75*
G02*
X114499999Y-85000000I249999J0D01*
G01*
G37*
%TD.AperFunction*%
%TO.P,R5,1*%
%TO.N,Net-(J4-Pad1)*%
%TA.AperFunction,SMDPad,CuDef*%
G36*
G01*
X114499999Y-83000000D02*
X115400001Y-83000000D01*
G75*
G02*
X115650000Y-83249999I0J-249999D01*
G01*
X115650000Y-83950001D01*
G75*
G02*
X115400001Y-84200000I-249999J0D01*
G01*
X114499999Y-84200000D01*
G75*
G02*
X114250000Y-83950001I0J249999D01*
G01*
X114250000Y-83249999D01*
G75*
G02*
X114499999Y-83000000I249999J0D01*
G01*
G37*
%TD.AperFunction*%
%TD*%
%TO.P,R4,2*%
%TO.N,Net-(C4-Pad2)*%
%TA.AperFunction,SMDPad,CuDef*%
G36*
G01*
X113750000Y-123399999D02*
X113750000Y-124300001D01*
G75*
G02*
X113500001Y-124550000I-249999J0D01*
G01*
X112799999Y-124550000D01*
G75*
G02*
X112550000Y-124300001I0J249999D01*
G01*
X112550000Y-123399999D01*
G75*
G02*
X112799999Y-123150000I249999J0D01*
G01*
X113500001Y-123150000D01*
G75*
G02*
X113750000Y-123399999I0J-249999D01*
G01*
G37*
%TD.AperFunction*%
%TO.P,R4,1*%
%TO.N,VCC*%
%TA.AperFunction,SMDPad,CuDef*%
G36*
G01*
X115750000Y-123399999D02*
X115750000Y-124300001D01*
G75*
G02*
X115500001Y-124550000I-249999J0D01*
G01*
X114799999Y-124550000D01*
G75*
G02*
X114550000Y-124300001I0J249999D01*
G01*
X114550000Y-123399999D01*
G75*
G02*
X114799999Y-123150000I249999J0D01*
G01*
X115500001Y-123150000D01*
G75*
G02*
X115750000Y-123399999I0J-249999D01*
G01*
G37*
%TD.AperFunction*%
%TD*%
%TO.P,R3,2*%
%TO.N,GND*%
%TA.AperFunction,SMDPad,CuDef*%
G36*
G01*
X91319999Y-74640000D02*
X92220001Y-74640000D01*
G75*
G02*
X92470000Y-74889999I0J-249999D01*
G01*
X92470000Y-75590001D01*
G75*
G02*
X92220001Y-75840000I-249999J0D01*
G01*
X91319999Y-75840000D01*
G75*
G02*
X91070000Y-75590001I0J249999D01*
G01*
X91070000Y-74889999D01*
G75*
G02*
X91319999Y-74640000I249999J0D01*
G01*
G37*
%TD.AperFunction*%
%TO.P,R3,1*%
%TO.N,VCC*%
%TA.AperFunction,SMDPad,CuDef*%
G36*
G01*
X91319999Y-72640000D02*
X92220001Y-72640000D01*
G75*
G02*
X92470000Y-72889999I0J-249999D01*
G01*
X92470000Y-73590001D01*
G75*
G02*
X92220001Y-73840000I-249999J0D01*
G01*
X91319999Y-73840000D01*
G75*
G02*
X91070000Y-73590001I0J249999D01*
G01*
X91070000Y-72889999D01*
G75*
G02*
X91319999Y-72640000I249999J0D01*
G01*
G37*
%TD.AperFunction*%
%TD*%
%TO.P,R2,1*%
%TO.N,+9V*%
%TA.AperFunction,SMDPad,CuDef*%
G36*
G01*
X89349999Y-68850000D02*
X90250001Y-68850000D01*
G75*
G02*
X90500000Y-69099999I0J-249999D01*
G01*
X90500000Y-69800001D01*
G75*
G02*
X90250001Y-70050000I-249999J0D01*
G01*
X89349999Y-70050000D01*
G75*
G02*
X89100000Y-69800001I0J249999D01*
G01*
X89100000Y-69099999D01*
G75*
G02*
X89349999Y-68850000I249999J0D01*
G01*
G37*
%TD.AperFunction*%
%TO.P,R2,2*%
%TO.N,VCC*%
%TA.AperFunction,SMDPad,CuDef*%
G36*
G01*
X89349999Y-70850000D02*
X90250001Y-70850000D01*
G75*
G02*
X90500000Y-71099999I0J-249999D01*
G01*
X90500000Y-71800001D01*
G75*
G02*
X90250001Y-72050000I-249999J0D01*
G01*
X89349999Y-72050000D01*
G75*
G02*
X89100000Y-71800001I0J249999D01*
G01*
X89100000Y-71099999D01*
G75*
G02*
X89349999Y-70850000I249999J0D01*
G01*
G37*
%TD.AperFunction*%
%TD*%
%TO.P,R1,2*%
%TO.N,Net-(D2-Pad2)*%
%TA.AperFunction,SMDPad,CuDef*%
G36*
G01*
X104900001Y-106350000D02*
X103999999Y-106350000D01*
G75*
G02*
X103750000Y-106100001I0J249999D01*
G01*
X103750000Y-105399999D01*
G75*
G02*
X103999999Y-105150000I249999J0D01*
G01*
X104900001Y-105150000D01*
G75*
G02*
X105150000Y-105399999I0J-249999D01*
G01*
X105150000Y-106100001D01*
G75*
G02*
X104900001Y-106350000I-249999J0D01*
G01*
G37*
%TD.AperFunction*%
%TO.P,R1,1*%
%TO.N,+9V*%
%TA.AperFunction,SMDPad,CuDef*%
G36*
G01*
X104900001Y-108350000D02*
X103999999Y-108350000D01*
G75*
G02*
X103750000Y-108100001I0J249999D01*
G01*
X103750000Y-107399999D01*
G75*
G02*
X103999999Y-107150000I249999J0D01*
G01*
X104900001Y-107150000D01*
G75*
G02*
X105150000Y-107399999I0J-249999D01*
G01*
X105150000Y-108100001D01*
G75*
G02*
X104900001Y-108350000I-249999J0D01*
G01*
G37*
%TD.AperFunction*%
%TD*%
D18*
%TO.P,Q2,1*%
%TO.N,/drive/IN*%
X109700000Y-125020000D03*
D19*
%TO.P,Q2,3*%
%TO.N,+9V*%
X109700000Y-122480000D03*
%TO.P,Q2,2*%
%TO.N,Net-(Q2-Pad2)*%
X109700000Y-123750000D03*
%TD*%
D18*
%TO.P,Q1,1*%
%TO.N,Net-(Q1-Pad1)*%
X88825000Y-92940000D03*
D19*
%TO.P,Q1,3*%
%TO.N,+9V*%
X88825000Y-90400000D03*
%TO.P,Q1,2*%
%TO.N,Net-(C9-Pad1)*%
X88825000Y-91670000D03*
%TD*%
D12*
%TO.P,J5,3*%
%TO.N,Net-(J5-Pad3)*%
X97375000Y-79750000D03*
%TO.P,J5,2*%
%TO.N,Net-(C7-Pad1)*%
X99915000Y-79750000D03*
D11*
%TO.P,J5,1*%
%TO.N,/tone/IN*%
X102455000Y-79750000D03*
%TD*%
D12*
%TO.P,J4,3*%
%TO.N,Net-(C5-Pad1)*%
X106620000Y-83600000D03*
%TO.P,J4,2*%
%TO.N,N/C*%
X109160000Y-83600000D03*
D11*
%TO.P,J4,1*%
%TO.N,Net-(J4-Pad1)*%
X111700000Y-83600000D03*
%TD*%
D16*
%TO.P,J3,T*%
%TO.N,/SIG_OUT*%
X99400000Y-88100000D03*
%TO.P,J3,S*%
%TO.N,GND*%
X112100000Y-88100000D03*
%TO.P,J3,TN*%
%TO.N,N/C*%
X99400000Y-99500000D03*
%TO.P,J3,SN*%
X112100000Y-99500000D03*
%TD*%
D20*
%TO.P,J2,2*%
%TO.N,+9V*%
X100000000Y-61400000D03*
%TO.P,J2,1*%
%TO.N,GND*%
X100000000Y-67400000D03*
D21*
%TO.P,J2,3*%
X95300000Y-64400000D03*
%TD*%
%TO.P,C11,2*%
%TO.N,/SIG_IN*%
%TA.AperFunction,SMDPad,CuDef*%
G36*
G01*
X107435000Y-132747500D02*
X108385000Y-132747500D01*
G75*
G02*
X108635000Y-132997500I0J-250000D01*
G01*
X108635000Y-133672500D01*
G75*
G02*
X108385000Y-133922500I-250000J0D01*
G01*
X107435000Y-133922500D01*
G75*
G02*
X107185000Y-133672500I0J250000D01*
G01*
X107185000Y-132997500D01*
G75*
G02*
X107435000Y-132747500I250000J0D01*
G01*
G37*
%TD.AperFunction*%
%TO.P,C11,1*%
%TO.N,Net-(C11-Pad1)*%
%TA.AperFunction,SMDPad,CuDef*%
G36*
G01*
X107435000Y-130672500D02*
X108385000Y-130672500D01*
G75*
G02*
X108635000Y-130922500I0J-250000D01*
G01*
X108635000Y-131597500D01*
G75*
G02*
X108385000Y-131847500I-250000J0D01*
G01*
X107435000Y-131847500D01*
G75*
G02*
X107185000Y-131597500I0J250000D01*
G01*
X107185000Y-130922500D01*
G75*
G02*
X107435000Y-130672500I250000J0D01*
G01*
G37*
%TD.AperFunction*%
%TD*%
%TO.P,C10,2*%
%TO.N,/EFFECT_OUT*%
%TA.AperFunction,SMDPad,CuDef*%
G36*
G01*
X88300000Y-100712500D02*
X89250000Y-100712500D01*
G75*
G02*
X89500000Y-100962500I0J-250000D01*
G01*
X89500000Y-101637500D01*
G75*
G02*
X89250000Y-101887500I-250000J0D01*
G01*
X88300000Y-101887500D01*
G75*
G02*
X88050000Y-101637500I0J250000D01*
G01*
X88050000Y-100962500D01*
G75*
G02*
X88300000Y-100712500I250000J0D01*
G01*
G37*
%TD.AperFunction*%
%TO.P,C10,1*%
%TO.N,Net-(C10-Pad1)*%
%TA.AperFunction,SMDPad,CuDef*%
G36*
G01*
X88300000Y-98637500D02*
X89250000Y-98637500D01*
G75*
G02*
X89500000Y-98887500I0J-250000D01*
G01*
X89500000Y-99562500D01*
G75*
G02*
X89250000Y-99812500I-250000J0D01*
G01*
X88300000Y-99812500D01*
G75*
G02*
X88050000Y-99562500I0J250000D01*
G01*
X88050000Y-98887500D01*
G75*
G02*
X88300000Y-98637500I250000J0D01*
G01*
G37*
%TD.AperFunction*%
%TD*%
%TO.P,C9,2*%
%TO.N,Net-(C9-Pad2)*%
%TA.AperFunction,SMDPad,CuDef*%
G36*
G01*
X86675000Y-90162500D02*
X85725000Y-90162500D01*
G75*
G02*
X85475000Y-89912500I0J250000D01*
G01*
X85475000Y-89237500D01*
G75*
G02*
X85725000Y-88987500I250000J0D01*
G01*
X86675000Y-88987500D01*
G75*
G02*
X86925000Y-89237500I0J-250000D01*
G01*
X86925000Y-89912500D01*
G75*
G02*
X86675000Y-90162500I-250000J0D01*
G01*
G37*
%TD.AperFunction*%
%TO.P,C9,1*%
%TO.N,Net-(C9-Pad1)*%
%TA.AperFunction,SMDPad,CuDef*%
G36*
G01*
X86675000Y-92237500D02*
X85725000Y-92237500D01*
G75*
G02*
X85475000Y-91987500I0J250000D01*
G01*
X85475000Y-91312500D01*
G75*
G02*
X85725000Y-91062500I250000J0D01*
G01*
X86675000Y-91062500D01*
G75*
G02*
X86925000Y-91312500I0J-250000D01*
G01*
X86925000Y-91987500D01*
G75*
G02*
X86675000Y-92237500I-250000J0D01*
G01*
G37*
%TD.AperFunction*%
%TD*%
%TO.P,C7,2*%
%TO.N,Net-(C7-Pad2)*%
%TA.AperFunction,SMDPad,CuDef*%
G36*
G01*
X101412500Y-77325000D02*
X101412500Y-76375000D01*
G75*
G02*
X101662500Y-76125000I250000J0D01*
G01*
X102337500Y-76125000D01*
G75*
G02*
X102587500Y-76375000I0J-250000D01*
G01*
X102587500Y-77325000D01*
G75*
G02*
X102337500Y-77575000I-250000J0D01*
G01*
X101662500Y-77575000D01*
G75*
G02*
X101412500Y-77325000I0J250000D01*
G01*
G37*
%TD.AperFunction*%
%TO.P,C7,1*%
%TO.N,Net-(C7-Pad1)*%
%TA.AperFunction,SMDPad,CuDef*%
G36*
G01*
X99337500Y-77325000D02*
X99337500Y-76375000D01*
G75*
G02*
X99587500Y-76125000I250000J0D01*
G01*
X100262500Y-76125000D01*
G75*
G02*
X100512500Y-76375000I0J-250000D01*
G01*
X100512500Y-77325000D01*
G75*
G02*
X100262500Y-77575000I-250000J0D01*
G01*
X99587500Y-77575000D01*
G75*
G02*
X99337500Y-77325000I0J250000D01*
G01*
G37*
%TD.AperFunction*%
%TD*%
%TO.P,C6,2*%
%TO.N,GND*%
%TA.AperFunction,SMDPad,CuDef*%
G36*
G01*
X101735000Y-101047500D02*
X102685000Y-101047500D01*
G75*
G02*
X102935000Y-101297500I0J-250000D01*
G01*
X102935000Y-101972500D01*
G75*
G02*
X102685000Y-102222500I-250000J0D01*
G01*
X101735000Y-102222500D01*
G75*
G02*
X101485000Y-101972500I0J250000D01*
G01*
X101485000Y-101297500D01*
G75*
G02*
X101735000Y-101047500I250000J0D01*
G01*
G37*
%TD.AperFunction*%
%TO.P,C6,1*%
%TO.N,/tone/IN*%
%TA.AperFunction,SMDPad,CuDef*%
G36*
G01*
X101735000Y-98972500D02*
X102685000Y-98972500D01*
G75*
G02*
X102935000Y-99222500I0J-250000D01*
G01*
X102935000Y-99897500D01*
G75*
G02*
X102685000Y-100147500I-250000J0D01*
G01*
X101735000Y-100147500D01*
G75*
G02*
X101485000Y-99897500I0J250000D01*
G01*
X101485000Y-99222500D01*
G75*
G02*
X101735000Y-98972500I250000J0D01*
G01*
G37*
%TD.AperFunction*%
%TD*%
%TO.P,C5,2*%
%TO.N,Net-(C5-Pad2)*%
%TA.AperFunction,SMDPad,CuDef*%
G36*
G01*
X110695000Y-96210000D02*
X109745000Y-96210000D01*
G75*
G02*
X109495000Y-95960000I0J250000D01*
G01*
X109495000Y-95285000D01*
G75*
G02*
X109745000Y-95035000I250000J0D01*
G01*
X110695000Y-95035000D01*
G75*
G02*
X110945000Y-95285000I0J-250000D01*
G01*
X110945000Y-95960000D01*
G75*
G02*
X110695000Y-96210000I-250000J0D01*
G01*
G37*
%TD.AperFunction*%
%TO.P,C5,1*%
%TO.N,Net-(C5-Pad1)*%
%TA.AperFunction,SMDPad,CuDef*%
G36*
G01*
X110695000Y-98285000D02*
X109745000Y-98285000D01*
G75*
G02*
X109495000Y-98035000I0J250000D01*
G01*
X109495000Y-97360000D01*
G75*
G02*
X109745000Y-97110000I250000J0D01*
G01*
X110695000Y-97110000D01*
G75*
G02*
X110945000Y-97360000I0J-250000D01*
G01*
X110945000Y-98035000D01*
G75*
G02*
X110695000Y-98285000I-250000J0D01*
G01*
G37*
%TD.AperFunction*%
%TD*%
%TO.P,C4,2*%
%TO.N,Net-(C4-Pad2)*%
%TA.AperFunction,SMDPad,CuDef*%
G36*
G01*
X113625000Y-126250000D02*
X112675000Y-126250000D01*
G75*
G02*
X112425000Y-126000000I0J250000D01*
G01*
X112425000Y-125325000D01*
G75*
G02*
X112675000Y-125075000I250000J0D01*
G01*
X113625000Y-125075000D01*
G75*
G02*
X113875000Y-125325000I0J-250000D01*
G01*
X113875000Y-126000000D01*
G75*
G02*
X113625000Y-126250000I-250000J0D01*
G01*
G37*
%TD.AperFunction*%
%TO.P,C4,1*%
%TO.N,/drive/IN*%
%TA.AperFunction,SMDPad,CuDef*%
G36*
G01*
X113625000Y-128325000D02*
X112675000Y-128325000D01*
G75*
G02*
X112425000Y-128075000I0J250000D01*
G01*
X112425000Y-127400000D01*
G75*
G02*
X112675000Y-127150000I250000J0D01*
G01*
X113625000Y-127150000D01*
G75*
G02*
X113875000Y-127400000I0J-250000D01*
G01*
X113875000Y-128075000D01*
G75*
G02*
X113625000Y-128325000I-250000J0D01*
G01*
G37*
%TD.AperFunction*%
%TD*%
%TO.P,C3,2*%
%TO.N,GND*%
%TA.AperFunction,SMDPad,CuDef*%
G36*
G01*
X89335000Y-74687500D02*
X90285000Y-74687500D01*
G75*
G02*
X90535000Y-74937500I0J-250000D01*
G01*
X90535000Y-75612500D01*
G75*
G02*
X90285000Y-75862500I-250000J0D01*
G01*
X89335000Y-75862500D01*
G75*
G02*
X89085000Y-75612500I0J250000D01*
G01*
X89085000Y-74937500D01*
G75*
G02*
X89335000Y-74687500I250000J0D01*
G01*
G37*
%TD.AperFunction*%
%TO.P,C3,1*%
%TO.N,VCC*%
%TA.AperFunction,SMDPad,CuDef*%
G36*
G01*
X89335000Y-72612500D02*
X90285000Y-72612500D01*
G75*
G02*
X90535000Y-72862500I0J-250000D01*
G01*
X90535000Y-73537500D01*
G75*
G02*
X90285000Y-73787500I-250000J0D01*
G01*
X89335000Y-73787500D01*
G75*
G02*
X89085000Y-73537500I0J250000D01*
G01*
X89085000Y-72862500D01*
G75*
G02*
X89335000Y-72612500I250000J0D01*
G01*
G37*
%TD.AperFunction*%
%TD*%
%TO.P,C2,1*%
%TO.N,+9V*%
%TA.AperFunction,SMDPad,CuDef*%
G36*
G01*
X91295000Y-68852500D02*
X92245000Y-68852500D01*
G75*
G02*
X92495000Y-69102500I0J-250000D01*
G01*
X92495000Y-69777500D01*
G75*
G02*
X92245000Y-70027500I-250000J0D01*
G01*
X91295000Y-70027500D01*
G75*
G02*
X91045000Y-69777500I0J250000D01*
G01*
X91045000Y-69102500D01*
G75*
G02*
X91295000Y-68852500I250000J0D01*
G01*
G37*
%TD.AperFunction*%
%TO.P,C2,2*%
%TO.N,GND*%
%TA.AperFunction,SMDPad,CuDef*%
G36*
G01*
X91295000Y-70927500D02*
X92245000Y-70927500D01*
G75*
G02*
X92495000Y-71177500I0J-250000D01*
G01*
X92495000Y-71852500D01*
G75*
G02*
X92245000Y-72102500I-250000J0D01*
G01*
X91295000Y-72102500D01*
G75*
G02*
X91045000Y-71852500I0J250000D01*
G01*
X91045000Y-71177500D01*
G75*
G02*
X91295000Y-70927500I250000J0D01*
G01*
G37*
%TD.AperFunction*%
%TD*%
%TO.P,C1,1*%
%TO.N,+9V*%
%TA.AperFunction,SMDPad,CuDef*%
G36*
G01*
X93265000Y-68832500D02*
X94215000Y-68832500D01*
G75*
G02*
X94465000Y-69082500I0J-250000D01*
G01*
X94465000Y-69757500D01*
G75*
G02*
X94215000Y-70007500I-250000J0D01*
G01*
X93265000Y-70007500D01*
G75*
G02*
X93015000Y-69757500I0J250000D01*
G01*
X93015000Y-69082500D01*
G75*
G02*
X93265000Y-68832500I250000J0D01*
G01*
G37*
%TD.AperFunction*%
%TO.P,C1,2*%
%TO.N,GND*%
%TA.AperFunction,SMDPad,CuDef*%
G36*
G01*
X93265000Y-70907500D02*
X94215000Y-70907500D01*
G75*
G02*
X94465000Y-71157500I0J-250000D01*
G01*
X94465000Y-71832500D01*
G75*
G02*
X94215000Y-72082500I-250000J0D01*
G01*
X93265000Y-72082500D01*
G75*
G02*
X93015000Y-71832500I0J250000D01*
G01*
X93015000Y-71157500D01*
G75*
G02*
X93265000Y-70907500I250000J0D01*
G01*
G37*
%TD.AperFunction*%
%TD*%
D22*
%TO.N,+9V*%
X104450000Y-109050000D03*
%TO.N,/EFFECT_OUT*%
X89330000Y-102740000D03*
%TO.N,VCC*%
X104170000Y-102920000D03*
X116400000Y-123830000D03*
X105960000Y-124210000D03*
%TO.N,Net-(C4-Pad2)*%
X108570000Y-95240000D03*
X113150000Y-122460000D03*
%TO.N,Net-(C5-Pad2)*%
X114950000Y-86910000D03*
X111060000Y-92530000D03*
%TO.N,Net-(C5-Pad1)*%
X111730000Y-97490000D03*
X108570000Y-91980000D03*
%TO.N,/tone/IN*%
X101570000Y-97150000D03*
%TO.N,/volume/IN*%
X94740000Y-91385000D03*
X99360000Y-91385000D03*
%TO.N,Net-(J5-Pad3)*%
X99300000Y-96640000D03*
%TD*%
D23*
%TO.N,+9V*%
X89830000Y-69420000D02*
X89800000Y-69450000D01*
X93740000Y-69420000D02*
X89830000Y-69420000D01*
X91130000Y-68120000D02*
X89800000Y-69450000D01*
X91130000Y-67300000D02*
X91130000Y-68120000D01*
X91130000Y-68800000D02*
X91770000Y-69440000D01*
X91130000Y-67300000D02*
X91130000Y-68800000D01*
X93250000Y-69420000D02*
X93740000Y-69420000D01*
X91130000Y-67300000D02*
X93250000Y-69420000D01*
D24*
X104450000Y-107750000D02*
X104450000Y-109050000D01*
D23*
%TO.N,/SIG_IN*%
X102265000Y-133335000D02*
X107910000Y-133335000D01*
X100000000Y-135600000D02*
X102265000Y-133335000D01*
X107760000Y-133485000D02*
X107910000Y-133335000D01*
X107760000Y-135160000D02*
X107760000Y-133485000D01*
D25*
%TO.N,/EFFECT_OUT*%
X88775000Y-101300000D02*
X86800000Y-101300000D01*
D24*
X89330000Y-101855000D02*
X88775000Y-101300000D01*
X89330000Y-102740000D02*
X89330000Y-101855000D01*
D23*
%TO.N,VCC*%
X89800000Y-73190000D02*
X89810000Y-73200000D01*
X89800000Y-71450000D02*
X89800000Y-73190000D01*
X91730000Y-73200000D02*
X91770000Y-73240000D01*
X89810000Y-73200000D02*
X91730000Y-73200000D01*
X88259990Y-80824990D02*
X90785000Y-83350000D01*
X88259990Y-74025010D02*
X88259990Y-80824990D01*
X89085000Y-73200000D02*
X88259990Y-74025010D01*
X89810000Y-73200000D02*
X89085000Y-73200000D01*
X105960000Y-124210000D02*
X105960000Y-125490000D01*
D24*
X115170000Y-123830000D02*
X115150000Y-123850000D01*
X116400000Y-123830000D02*
X115170000Y-123830000D01*
X104180000Y-102910000D02*
X104170000Y-102920000D01*
X104180000Y-101600000D02*
X104180000Y-102910000D01*
D23*
%TO.N,Net-(C4-Pad2)*%
X113150000Y-125662500D02*
X113150000Y-123850000D01*
D26*
X107895000Y-94565000D02*
X108570000Y-95240000D01*
X107012500Y-94565000D02*
X107895000Y-94565000D01*
X113150000Y-123850000D02*
X113150000Y-122460000D01*
D25*
%TO.N,/drive/IN*%
X109700000Y-126250000D02*
X111200000Y-127750000D01*
X109700000Y-125020000D02*
X109700000Y-126250000D01*
X113137500Y-127750000D02*
X113150000Y-127737500D01*
X111200000Y-127750000D02*
X113137500Y-127750000D01*
D26*
%TO.N,Net-(C5-Pad2)*%
X107892500Y-93295000D02*
X107012500Y-93295000D01*
D24*
X114950000Y-86910000D02*
X114950000Y-85600000D01*
D26*
X110220000Y-95622500D02*
X108943750Y-94346250D01*
X108943750Y-94346250D02*
X107892500Y-93295000D01*
X108943750Y-94346250D02*
X109243750Y-94346250D01*
X109243750Y-94346250D02*
X111060000Y-92530000D01*
%TO.N,Net-(C5-Pad1)*%
X110202500Y-97680000D02*
X110220000Y-97697500D01*
X105400000Y-97680000D02*
X110202500Y-97680000D01*
X110220000Y-97697500D02*
X111522500Y-97697500D01*
X111522500Y-97697500D02*
X111730000Y-97490000D01*
X107057500Y-91980000D02*
X107012500Y-92025000D01*
X108570000Y-91980000D02*
X107057500Y-91980000D01*
D24*
%TO.N,/tone/IN*%
X103400000Y-98370000D02*
X102210000Y-99560000D01*
X103400000Y-97680000D02*
X103400000Y-98370000D01*
D25*
X103400000Y-99560000D02*
X103360000Y-99600000D01*
X103400000Y-97680000D02*
X103400000Y-99560000D01*
D24*
X103360000Y-99600000D02*
X102250000Y-99600000D01*
X104180000Y-99600000D02*
X103360000Y-99600000D01*
D25*
X102250000Y-99600000D02*
X102210000Y-99560000D01*
X104180000Y-99600000D02*
X102250000Y-99600000D01*
X103400000Y-98820000D02*
X103400000Y-97680000D01*
X104180000Y-99600000D02*
X103400000Y-98820000D01*
D24*
X101887500Y-96167500D02*
X101887500Y-95835000D01*
X103400000Y-97680000D02*
X101887500Y-96167500D01*
X102870000Y-97150000D02*
X103400000Y-97680000D01*
X101570000Y-97150000D02*
X102870000Y-97150000D01*
X101570000Y-96152500D02*
X101887500Y-95835000D01*
X101570000Y-97150000D02*
X101570000Y-96152500D01*
D25*
%TO.N,Net-(C7-Pad2)*%
X102000000Y-74900000D02*
X101975000Y-74875000D01*
X102000000Y-76850000D02*
X102000000Y-74900000D01*
%TO.N,Net-(C7-Pad1)*%
X99925000Y-79740000D02*
X99915000Y-79750000D01*
X99925000Y-76850000D02*
X99925000Y-79740000D01*
D26*
%TO.N,/volume/IN*%
X99375000Y-93295000D02*
X99320000Y-93240000D01*
X101887500Y-93295000D02*
X99375000Y-93295000D01*
D24*
X99360000Y-93200000D02*
X99320000Y-93240000D01*
X99360000Y-91385000D02*
X99360000Y-93200000D01*
X94740000Y-91385000D02*
X93320000Y-91385000D01*
D25*
%TO.N,Net-(C8-Pad1)*%
X93320000Y-87570000D02*
X93320000Y-89310000D01*
D27*
%TO.N,Net-(C9-Pad2)*%
X86200000Y-85395000D02*
X88245000Y-83350000D01*
X86200000Y-89575000D02*
X86200000Y-85395000D01*
D25*
%TO.N,Net-(C9-Pad1)*%
X84270000Y-91670000D02*
X84225000Y-91625000D01*
X88825000Y-91670000D02*
X84270000Y-91670000D01*
D24*
%TO.N,Net-(C10-Pad1)*%
X88775000Y-99225000D02*
X88775000Y-97475000D01*
D23*
%TO.N,Net-(C11-Pad1)*%
X107910000Y-129550000D02*
X107880000Y-129520000D01*
X107910000Y-131260000D02*
X107910000Y-129550000D01*
%TO.N,Net-(D2-Pad2)*%
X101290000Y-105750000D02*
X104450000Y-105750000D01*
D27*
%TO.N,Net-(J4-Pad1)*%
X111700000Y-83600000D02*
X114950000Y-83600000D01*
D26*
%TO.N,Net-(J5-Pad3)*%
X99995000Y-94565000D02*
X99320000Y-95240000D01*
X101887500Y-94565000D02*
X99995000Y-94565000D01*
D24*
X99300000Y-95290000D02*
X99380000Y-95210000D01*
X99300000Y-96640000D02*
X99300000Y-95290000D01*
D25*
%TO.N,Net-(J6-Pad1)*%
X93325000Y-85565000D02*
X93320000Y-85570000D01*
X93325000Y-83350000D02*
X93325000Y-85565000D01*
D24*
%TO.N,Net-(Q1-Pad1)*%
X87000000Y-95475000D02*
X86925000Y-95550000D01*
X88775000Y-95475000D02*
X87000000Y-95475000D01*
X88775000Y-92990000D02*
X88825000Y-92940000D01*
X88775000Y-95475000D02*
X88775000Y-92990000D01*
D23*
%TO.N,Net-(Q2-Pad2)*%
X105990000Y-127520000D02*
X105960000Y-127490000D01*
X107880000Y-127520000D02*
X105990000Y-127520000D01*
D24*
X107880000Y-124554998D02*
X107880000Y-127520000D01*
X108684998Y-123750000D02*
X107880000Y-124554998D01*
X109700000Y-123750000D02*
X108684998Y-123750000D01*
%TD*%
D28*
%TO.N,GND*%
X110262308Y-56389723D02*
X110273787Y-56393201D01*
X110284389Y-56398866D01*
X110293585Y-56406412D01*
X110301133Y-56415611D01*
X110306798Y-56426214D01*
X110310276Y-56437690D01*
X110315001Y-56485735D01*
X110315000Y-58736104D01*
X110318242Y-58769023D01*
X110318103Y-58788955D01*
X110319104Y-58799168D01*
X110384385Y-59420277D01*
X110397791Y-59485584D01*
X110410264Y-59550970D01*
X110413229Y-59560795D01*
X110597908Y-60157395D01*
X110623746Y-60218862D01*
X110648679Y-60280573D01*
X110653496Y-60289634D01*
X110950538Y-60839001D01*
X110987798Y-60894240D01*
X111024267Y-60949971D01*
X111030753Y-60957924D01*
X111428844Y-61439133D01*
X111476134Y-61486094D01*
X111522722Y-61533668D01*
X111530629Y-61540210D01*
X112014605Y-61934931D01*
X112070113Y-61971811D01*
X112125059Y-62009433D01*
X112134086Y-62014315D01*
X112685514Y-62307514D01*
X112747141Y-62332915D01*
X112808334Y-62359142D01*
X112818137Y-62362177D01*
X113416012Y-62542686D01*
X113481411Y-62555635D01*
X113546520Y-62569475D01*
X113556726Y-62570548D01*
X114178276Y-62631492D01*
X114213894Y-62635000D01*
X116464284Y-62635000D01*
X116512308Y-62639723D01*
X116523787Y-62643201D01*
X116534389Y-62648866D01*
X116543585Y-62656412D01*
X116551133Y-62665611D01*
X116556798Y-62676214D01*
X116560276Y-62687690D01*
X116565001Y-62735735D01*
X116564999Y-122807543D01*
X116501939Y-122795000D01*
X116298061Y-122795000D01*
X116172377Y-122820000D01*
X116167323Y-122820000D01*
X116127962Y-122772038D01*
X115993387Y-122661595D01*
X115839851Y-122579528D01*
X115673255Y-122528992D01*
X115500001Y-122511928D01*
X114799999Y-122511928D01*
X114626745Y-122528992D01*
X114460149Y-122579528D01*
X114306613Y-122661595D01*
X114172038Y-122772038D01*
X114150000Y-122798891D01*
X114136644Y-122782617D01*
X114145226Y-122761898D01*
X114185000Y-122561939D01*
X114185000Y-122358061D01*
X114145226Y-122158102D01*
X114067205Y-121969744D01*
X113953937Y-121800226D01*
X113809774Y-121656063D01*
X113640256Y-121542795D01*
X113451898Y-121464774D01*
X113251939Y-121425000D01*
X113048061Y-121425000D01*
X112848102Y-121464774D01*
X112659744Y-121542795D01*
X112490226Y-121656063D01*
X112346063Y-121800226D01*
X112232795Y-121969744D01*
X112154774Y-122158102D01*
X112115000Y-122358061D01*
X112115000Y-122561939D01*
X112154774Y-122761898D01*
X112163356Y-122782617D01*
X112061595Y-122906613D01*
X111979528Y-123060149D01*
X111928992Y-123226745D01*
X111911928Y-123399999D01*
X111911928Y-123590816D01*
X111908233Y-123602997D01*
X111890000Y-123788107D01*
X111890000Y-124918787D01*
X111854528Y-124985150D01*
X111803992Y-125151746D01*
X111786928Y-125325000D01*
X111786928Y-126000000D01*
X111803992Y-126173254D01*
X111854528Y-126339850D01*
X111936595Y-126493386D01*
X112020917Y-126596133D01*
X111989851Y-126579528D01*
X111823255Y-126528992D01*
X111650001Y-126511928D01*
X111567060Y-126511928D01*
X110957588Y-125902457D01*
X110980537Y-125874494D01*
X111039502Y-125764180D01*
X111075812Y-125644482D01*
X111088072Y-125520000D01*
X111088072Y-124520000D01*
X111075812Y-124395518D01*
X111039502Y-124275820D01*
X110997703Y-124197621D01*
X111003676Y-124186447D01*
X111068577Y-123972499D01*
X111090491Y-123750000D01*
X111068577Y-123527501D01*
X111003676Y-123313553D01*
X110898284Y-123116377D01*
X110897154Y-123115000D01*
X110898284Y-123113623D01*
X111003676Y-122916447D01*
X111068577Y-122702499D01*
X111090491Y-122480000D01*
X111068577Y-122257501D01*
X111003676Y-122043553D01*
X110898284Y-121846377D01*
X110756449Y-121673551D01*
X110583623Y-121531716D01*
X110386447Y-121426324D01*
X110172499Y-121361423D01*
X110005752Y-121345000D01*
X109394248Y-121345000D01*
X109227501Y-121361423D01*
X109013553Y-121426324D01*
X108816377Y-121531716D01*
X108643551Y-121673551D01*
X108501716Y-121846377D01*
X108396324Y-122043553D01*
X108331423Y-122257501D01*
X108309509Y-122480000D01*
X108331423Y-122702499D01*
X108359010Y-122793441D01*
X108296618Y-122812368D01*
X108121158Y-122906153D01*
X107967365Y-123032367D01*
X107935737Y-123070906D01*
X107200906Y-123805737D01*
X107163401Y-123836517D01*
X107129720Y-123725486D01*
X107012720Y-123506595D01*
X106855265Y-123314735D01*
X106663404Y-123157280D01*
X106444513Y-123040280D01*
X106207002Y-122968232D01*
X105960000Y-122943904D01*
X105712997Y-122968232D01*
X105475486Y-123040280D01*
X105256595Y-123157280D01*
X105064735Y-123314735D01*
X104907280Y-123506596D01*
X104790280Y-123725487D01*
X104718232Y-123962998D01*
X104700000Y-124148108D01*
X104700000Y-124780557D01*
X104689528Y-124800149D01*
X104638992Y-124966745D01*
X104621928Y-125139999D01*
X104621928Y-125840001D01*
X104638992Y-126013255D01*
X104689528Y-126179851D01*
X104771595Y-126333387D01*
X104882038Y-126467962D01*
X104908891Y-126490000D01*
X104882038Y-126512038D01*
X104771595Y-126646613D01*
X104689528Y-126800149D01*
X104638992Y-126966745D01*
X104621928Y-127139999D01*
X104621928Y-127840001D01*
X104638992Y-128013255D01*
X104689528Y-128179851D01*
X104771595Y-128333387D01*
X104882038Y-128467962D01*
X105016613Y-128578405D01*
X105170149Y-128660472D01*
X105336745Y-128711008D01*
X105509999Y-128728072D01*
X105631916Y-128728072D01*
X105742997Y-128761768D01*
X105928107Y-128780000D01*
X105928117Y-128780000D01*
X105989999Y-128786095D01*
X106051882Y-128780000D01*
X106636333Y-128780000D01*
X106609528Y-128830149D01*
X106558992Y-128996745D01*
X106541928Y-129169999D01*
X106541928Y-129729689D01*
X106342252Y-129530013D01*
X106074463Y-129351082D01*
X105776912Y-129227832D01*
X105461033Y-129165000D01*
X105138967Y-129165000D01*
X104823088Y-129227832D01*
X104525537Y-129351082D01*
X104257748Y-129530013D01*
X104030013Y-129757748D01*
X103851082Y-130025537D01*
X103727832Y-130323088D01*
X103665000Y-130638967D01*
X103665000Y-130961033D01*
X103727832Y-131276912D01*
X103851082Y-131574463D01*
X104030013Y-131842252D01*
X104257748Y-132069987D01*
X104265250Y-132075000D01*
X102326893Y-132075000D01*
X102265000Y-132068904D01*
X102203107Y-132075000D01*
X102017997Y-132093232D01*
X101780486Y-132165280D01*
X101561595Y-132282280D01*
X101369735Y-132439735D01*
X101330281Y-132487810D01*
X99853092Y-133965000D01*
X99838967Y-133965000D01*
X99523088Y-134027832D01*
X99225537Y-134151082D01*
X98957748Y-134330013D01*
X98730013Y-134557748D01*
X98551082Y-134825537D01*
X98427832Y-135123088D01*
X98365000Y-135438967D01*
X98365000Y-135761033D01*
X98427832Y-136076912D01*
X98551082Y-136374463D01*
X98730013Y-136642252D01*
X98957748Y-136869987D01*
X99225537Y-137048918D01*
X99523088Y-137172168D01*
X99838967Y-137235000D01*
X100161033Y-137235000D01*
X100476912Y-137172168D01*
X100774463Y-137048918D01*
X101042252Y-136869987D01*
X101176826Y-136735413D01*
X104344192Y-136735413D01*
X104439956Y-136999814D01*
X104729571Y-137140704D01*
X105041108Y-137222384D01*
X105362595Y-137241718D01*
X105681675Y-137197961D01*
X105986088Y-137092795D01*
X106160044Y-136999814D01*
X106255808Y-136735413D01*
X105300000Y-135779605D01*
X104344192Y-136735413D01*
X101176826Y-136735413D01*
X101269987Y-136642252D01*
X101448918Y-136374463D01*
X101572168Y-136076912D01*
X101635000Y-135761033D01*
X101635000Y-135746908D01*
X102786909Y-134595000D01*
X104115392Y-134595000D01*
X104164585Y-134644193D01*
X103900186Y-134739956D01*
X103759296Y-135029571D01*
X103677616Y-135341108D01*
X103658282Y-135662595D01*
X103702039Y-135981675D01*
X103807205Y-136286088D01*
X103900186Y-136460044D01*
X104164587Y-136555808D01*
X105120395Y-135600000D01*
X105106253Y-135585858D01*
X105285858Y-135406253D01*
X105300000Y-135420395D01*
X105314143Y-135406253D01*
X105493748Y-135585858D01*
X105479605Y-135600000D01*
X106435413Y-136555808D01*
X106699814Y-136460044D01*
X106800486Y-136253102D01*
X106916613Y-136348405D01*
X107070149Y-136430472D01*
X107236745Y-136481008D01*
X107409999Y-136498072D01*
X108110001Y-136498072D01*
X108283255Y-136481008D01*
X108449851Y-136430472D01*
X108603387Y-136348405D01*
X108684637Y-136281724D01*
X108708815Y-136311185D01*
X108805506Y-136390537D01*
X108915820Y-136449502D01*
X109035518Y-136485812D01*
X109160000Y-136498072D01*
X109474250Y-136495000D01*
X109633000Y-136336250D01*
X109633000Y-135287000D01*
X109887000Y-135287000D01*
X109887000Y-136336250D01*
X110045750Y-136495000D01*
X110360000Y-136498072D01*
X110484482Y-136485812D01*
X110604180Y-136449502D01*
X110714494Y-136390537D01*
X110811185Y-136311185D01*
X110890537Y-136214494D01*
X110949502Y-136104180D01*
X110985812Y-135984482D01*
X110998072Y-135860000D01*
X110995000Y-135445750D01*
X110836250Y-135287000D01*
X109887000Y-135287000D01*
X109633000Y-135287000D01*
X109613000Y-135287000D01*
X109613000Y-135033000D01*
X109633000Y-135033000D01*
X109633000Y-133983750D01*
X109887000Y-133983750D01*
X109887000Y-135033000D01*
X110836250Y-135033000D01*
X110995000Y-134874250D01*
X110998072Y-134460000D01*
X110985812Y-134335518D01*
X110949502Y-134215820D01*
X110890537Y-134105506D01*
X110811185Y-134008815D01*
X110714494Y-133929463D01*
X110604180Y-133870498D01*
X110484482Y-133834188D01*
X110360000Y-133821928D01*
X110045750Y-133825000D01*
X109887000Y-133983750D01*
X109633000Y-133983750D01*
X109474250Y-133825000D01*
X109258260Y-133822889D01*
X109273072Y-133672500D01*
X109273072Y-132997500D01*
X109256008Y-132824246D01*
X109205472Y-132657650D01*
X109123405Y-132504114D01*
X109012962Y-132369538D01*
X108925183Y-132297500D01*
X109012962Y-132225462D01*
X109123405Y-132090886D01*
X109205472Y-131937350D01*
X109256008Y-131770754D01*
X109273072Y-131597500D01*
X109273072Y-130922500D01*
X109256008Y-130749246D01*
X109205472Y-130582650D01*
X109170000Y-130516287D01*
X109170000Y-130350000D01*
X109861928Y-130350000D01*
X109874188Y-130474482D01*
X109910498Y-130594180D01*
X109969463Y-130704494D01*
X110048815Y-130801185D01*
X110145506Y-130880537D01*
X110255820Y-130939502D01*
X110375518Y-130975812D01*
X110500000Y-130988072D01*
X110914250Y-130985000D01*
X111073000Y-130826250D01*
X111073000Y-129877000D01*
X111327000Y-129877000D01*
X111327000Y-130826250D01*
X111485750Y-130985000D01*
X111900000Y-130988072D01*
X112024482Y-130975812D01*
X112144180Y-130939502D01*
X112254494Y-130880537D01*
X112351185Y-130801185D01*
X112430537Y-130704494D01*
X112489502Y-130594180D01*
X112525812Y-130474482D01*
X112538072Y-130350000D01*
X112535000Y-130035750D01*
X112376250Y-129877000D01*
X111327000Y-129877000D01*
X111073000Y-129877000D01*
X110023750Y-129877000D01*
X109865000Y-130035750D01*
X109861928Y-130350000D01*
X109170000Y-130350000D01*
X109170000Y-130145475D01*
X109201008Y-130043255D01*
X109218072Y-129870001D01*
X109218072Y-129169999D01*
X109201008Y-128996745D01*
X109150472Y-128830149D01*
X109068405Y-128676613D01*
X108957962Y-128542038D01*
X108931109Y-128520000D01*
X108957962Y-128497962D01*
X109068405Y-128363387D01*
X109150472Y-128209851D01*
X109201008Y-128043255D01*
X109218072Y-127870001D01*
X109218072Y-127373203D01*
X109861928Y-128017060D01*
X109861928Y-128100001D01*
X109878992Y-128273255D01*
X109929528Y-128439851D01*
X110011595Y-128593387D01*
X110078276Y-128674637D01*
X110048815Y-128698815D01*
X109969463Y-128795506D01*
X109910498Y-128905820D01*
X109874188Y-129025518D01*
X109861928Y-129150000D01*
X109865000Y-129464250D01*
X110023750Y-129623000D01*
X111073000Y-129623000D01*
X111073000Y-129603000D01*
X111327000Y-129603000D01*
X111327000Y-129623000D01*
X112376250Y-129623000D01*
X112535000Y-129464250D01*
X112538072Y-129150000D01*
X112525812Y-129025518D01*
X112501688Y-128945990D01*
X112501746Y-128946008D01*
X112675000Y-128963072D01*
X113625000Y-128963072D01*
X113798254Y-128946008D01*
X113964850Y-128895472D01*
X114118386Y-128813405D01*
X114252962Y-128702962D01*
X114363405Y-128568386D01*
X114445472Y-128414850D01*
X114496008Y-128248254D01*
X114513072Y-128075000D01*
X114513072Y-127400000D01*
X114496008Y-127226746D01*
X114445472Y-127060150D01*
X114363405Y-126906614D01*
X114252962Y-126772038D01*
X114165183Y-126700000D01*
X114252962Y-126627962D01*
X114363405Y-126493386D01*
X114445472Y-126339850D01*
X114496008Y-126173254D01*
X114513072Y-126000000D01*
X114513072Y-125325000D01*
X114496008Y-125151746D01*
X114489194Y-125129283D01*
X114626745Y-125171008D01*
X114799999Y-125188072D01*
X115500001Y-125188072D01*
X115673255Y-125171008D01*
X115839851Y-125120472D01*
X115993387Y-125038405D01*
X116127962Y-124927962D01*
X116196253Y-124844749D01*
X116298061Y-124865000D01*
X116501939Y-124865000D01*
X116564999Y-124852457D01*
X116564999Y-137214284D01*
X116560276Y-137262309D01*
X116556798Y-137273785D01*
X116551133Y-137284388D01*
X116543585Y-137293587D01*
X116534389Y-137301133D01*
X116523787Y-137306798D01*
X116512308Y-137310276D01*
X116464274Y-137315000D01*
X114213895Y-137315000D01*
X114180943Y-137318245D01*
X114160696Y-137318104D01*
X114150483Y-137319105D01*
X113519669Y-137385406D01*
X113454362Y-137398812D01*
X113388976Y-137411285D01*
X113379151Y-137414250D01*
X112773228Y-137601816D01*
X112711813Y-137627633D01*
X112650052Y-137652586D01*
X112640991Y-137657403D01*
X112083039Y-137959086D01*
X112027784Y-137996356D01*
X111972069Y-138032815D01*
X111964116Y-138039301D01*
X111475388Y-138443612D01*
X111428411Y-138490918D01*
X111380853Y-138537490D01*
X111374311Y-138545397D01*
X110973422Y-139036935D01*
X110936543Y-139092443D01*
X110898921Y-139147388D01*
X110894040Y-139156415D01*
X110596259Y-139716459D01*
X110570861Y-139778079D01*
X110544630Y-139839280D01*
X110541596Y-139849079D01*
X110541596Y-139849081D01*
X110541595Y-139849083D01*
X110358266Y-140456300D01*
X110345323Y-140521668D01*
X110331477Y-140586809D01*
X110330404Y-140597015D01*
X110268508Y-141228276D01*
X110268508Y-141228287D01*
X110265001Y-141263895D01*
X110265000Y-143514274D01*
X110260276Y-143562309D01*
X110256798Y-143573785D01*
X110251133Y-143584388D01*
X110243585Y-143593587D01*
X110234389Y-143601133D01*
X110223787Y-143606798D01*
X110212308Y-143610276D01*
X110164274Y-143615000D01*
X89735725Y-143615000D01*
X89687690Y-143610276D01*
X89676214Y-143606798D01*
X89665611Y-143601133D01*
X89656412Y-143593585D01*
X89648866Y-143584389D01*
X89643201Y-143573787D01*
X89639723Y-143562308D01*
X89634999Y-143514274D01*
X89634999Y-141263895D01*
X89631761Y-141231018D01*
X89631898Y-141211394D01*
X89630897Y-141201181D01*
X89566636Y-140589777D01*
X89553235Y-140524493D01*
X89540758Y-140459085D01*
X89537792Y-140449260D01*
X89472696Y-140238967D01*
X93065000Y-140238967D01*
X93065000Y-140561033D01*
X93127832Y-140876912D01*
X93251082Y-141174463D01*
X93430013Y-141442252D01*
X93657748Y-141669987D01*
X93925537Y-141848918D01*
X94223088Y-141972168D01*
X94538967Y-142035000D01*
X94861033Y-142035000D01*
X95176912Y-141972168D01*
X95474463Y-141848918D01*
X95742252Y-141669987D01*
X95969987Y-141442252D01*
X96148918Y-141174463D01*
X96272168Y-140876912D01*
X96335000Y-140561033D01*
X96335000Y-140239567D01*
X98365000Y-140239567D01*
X98365000Y-140561633D01*
X98427832Y-140877512D01*
X98551082Y-141175063D01*
X98730013Y-141442852D01*
X98957748Y-141670587D01*
X99225537Y-141849518D01*
X99523088Y-141972768D01*
X99838967Y-142035600D01*
X100161033Y-142035600D01*
X100476912Y-141972768D01*
X100774463Y-141849518D01*
X101042252Y-141670587D01*
X101269987Y-141442852D01*
X101448918Y-141175063D01*
X101572168Y-140877512D01*
X101635000Y-140561633D01*
X101635000Y-140239567D01*
X101634881Y-140238967D01*
X103665000Y-140238967D01*
X103665000Y-140561033D01*
X103727832Y-140876912D01*
X103851082Y-141174463D01*
X104030013Y-141442252D01*
X104257748Y-141669987D01*
X104525537Y-141848918D01*
X104823088Y-141972168D01*
X105138967Y-142035000D01*
X105461033Y-142035000D01*
X105776912Y-141972168D01*
X106074463Y-141848918D01*
X106342252Y-141669987D01*
X106569987Y-141442252D01*
X106748918Y-141174463D01*
X106872168Y-140876912D01*
X106935000Y-140561033D01*
X106935000Y-140238967D01*
X106872168Y-139923088D01*
X106748918Y-139625537D01*
X106569987Y-139357748D01*
X106342252Y-139130013D01*
X106074463Y-138951082D01*
X105776912Y-138827832D01*
X105461033Y-138765000D01*
X105138967Y-138765000D01*
X104823088Y-138827832D01*
X104525537Y-138951082D01*
X104257748Y-139130013D01*
X104030013Y-139357748D01*
X103851082Y-139625537D01*
X103727832Y-139923088D01*
X103665000Y-140238967D01*
X101634881Y-140238967D01*
X101572168Y-139923688D01*
X101448918Y-139626137D01*
X101269987Y-139358348D01*
X101042252Y-139130613D01*
X100774463Y-138951682D01*
X100476912Y-138828432D01*
X100161033Y-138765600D01*
X99838967Y-138765600D01*
X99523088Y-138828432D01*
X99225537Y-138951682D01*
X98957748Y-139130613D01*
X98730013Y-139358348D01*
X98551082Y-139626137D01*
X98427832Y-139923688D01*
X98365000Y-140239567D01*
X96335000Y-140239567D01*
X96335000Y-140238967D01*
X96272168Y-139923088D01*
X96148918Y-139625537D01*
X95969987Y-139357748D01*
X95742252Y-139130013D01*
X95474463Y-138951082D01*
X95176912Y-138827832D01*
X94861033Y-138765000D01*
X94538967Y-138765000D01*
X94223088Y-138827832D01*
X93925537Y-138951082D01*
X93657748Y-139130013D01*
X93430013Y-139357748D01*
X93251082Y-139625537D01*
X93127832Y-139923088D01*
X93065000Y-140238967D01*
X89472696Y-140238967D01*
X89355999Y-139861981D01*
X89330166Y-139800526D01*
X89305228Y-139738803D01*
X89300411Y-139729742D01*
X89008010Y-139188958D01*
X88970733Y-139133694D01*
X88934281Y-139077989D01*
X88927796Y-139070036D01*
X88535925Y-138596346D01*
X88488654Y-138549403D01*
X88442046Y-138501809D01*
X88434145Y-138495273D01*
X88434140Y-138495268D01*
X88434135Y-138495264D01*
X87957724Y-138106713D01*
X87902200Y-138069823D01*
X87847272Y-138032213D01*
X87838248Y-138027333D01*
X87838240Y-138027329D01*
X87295434Y-137738714D01*
X87233828Y-137713321D01*
X87172614Y-137687085D01*
X87162811Y-137684050D01*
X86574276Y-137506361D01*
X86508895Y-137493415D01*
X86443767Y-137479572D01*
X86433563Y-137478499D01*
X86433561Y-137478499D01*
X85821723Y-137418508D01*
X85786105Y-137415000D01*
X83535725Y-137415000D01*
X83487690Y-137410276D01*
X83476214Y-137406798D01*
X83465611Y-137401133D01*
X83456412Y-137393585D01*
X83448866Y-137384389D01*
X83443201Y-137373787D01*
X83439723Y-137362308D01*
X83435000Y-137314284D01*
X83435000Y-135438967D01*
X93065000Y-135438967D01*
X93065000Y-135761033D01*
X93127832Y-136076912D01*
X93251082Y-136374463D01*
X93430013Y-136642252D01*
X93657748Y-136869987D01*
X93925537Y-137048918D01*
X94223088Y-137172168D01*
X94538967Y-137235000D01*
X94861033Y-137235000D01*
X95176912Y-137172168D01*
X95474463Y-137048918D01*
X95742252Y-136869987D01*
X95969987Y-136642252D01*
X96148918Y-136374463D01*
X96272168Y-136076912D01*
X96335000Y-135761033D01*
X96335000Y-135438967D01*
X96272168Y-135123088D01*
X96148918Y-134825537D01*
X95969987Y-134557748D01*
X95742252Y-134330013D01*
X95474463Y-134151082D01*
X95176912Y-134027832D01*
X94861033Y-133965000D01*
X94538967Y-133965000D01*
X94223088Y-134027832D01*
X93925537Y-134151082D01*
X93657748Y-134330013D01*
X93430013Y-134557748D01*
X93251082Y-134825537D01*
X93127832Y-135123088D01*
X93065000Y-135438967D01*
X83435000Y-135438967D01*
X83435000Y-130638967D01*
X93065000Y-130638967D01*
X93065000Y-130961033D01*
X93127832Y-131276912D01*
X93251082Y-131574463D01*
X93430013Y-131842252D01*
X93657748Y-132069987D01*
X93925537Y-132248918D01*
X94223088Y-132372168D01*
X94538967Y-132435000D01*
X94861033Y-132435000D01*
X95176912Y-132372168D01*
X95474463Y-132248918D01*
X95742252Y-132069987D01*
X95969987Y-131842252D01*
X96148918Y-131574463D01*
X96272168Y-131276912D01*
X96335000Y-130961033D01*
X96335000Y-130638967D01*
X96334881Y-130638367D01*
X98365000Y-130638367D01*
X98365000Y-130960433D01*
X98427832Y-131276312D01*
X98551082Y-131573863D01*
X98730013Y-131841652D01*
X98957748Y-132069387D01*
X99225537Y-132248318D01*
X99523088Y-132371568D01*
X99838967Y-132434400D01*
X100161033Y-132434400D01*
X100476912Y-132371568D01*
X100774463Y-132248318D01*
X101042252Y-132069387D01*
X101269987Y-131841652D01*
X101448918Y-131573863D01*
X101572168Y-131276312D01*
X101635000Y-130960433D01*
X101635000Y-130638367D01*
X101572168Y-130322488D01*
X101448918Y-130024937D01*
X101269987Y-129757148D01*
X101042252Y-129529413D01*
X100774463Y-129350482D01*
X100476912Y-129227232D01*
X100161033Y-129164400D01*
X99838967Y-129164400D01*
X99523088Y-129227232D01*
X99225537Y-129350482D01*
X98957748Y-129529413D01*
X98730013Y-129757148D01*
X98551082Y-130024937D01*
X98427832Y-130322488D01*
X98365000Y-130638367D01*
X96334881Y-130638367D01*
X96272168Y-130323088D01*
X96148918Y-130025537D01*
X95969987Y-129757748D01*
X95742252Y-129530013D01*
X95474463Y-129351082D01*
X95176912Y-129227832D01*
X94861033Y-129165000D01*
X94538967Y-129165000D01*
X94223088Y-129227832D01*
X93925537Y-129351082D01*
X93657748Y-129530013D01*
X93430013Y-129757748D01*
X93251082Y-130025537D01*
X93127832Y-130323088D01*
X93065000Y-130638967D01*
X83435000Y-130638967D01*
X83435000Y-124777980D01*
X86801626Y-124777980D01*
X86921514Y-125062836D01*
X87245210Y-125223699D01*
X87594069Y-125318322D01*
X87954684Y-125343067D01*
X88313198Y-125296985D01*
X88655833Y-125181846D01*
X88878486Y-125062836D01*
X88998374Y-124777980D01*
X87900000Y-123679605D01*
X86801626Y-124777980D01*
X83435000Y-124777980D01*
X83435000Y-123554684D01*
X86056933Y-123554684D01*
X86103015Y-123913198D01*
X86218154Y-124255833D01*
X86337164Y-124478486D01*
X86622020Y-124598374D01*
X87720395Y-123500000D01*
X88079605Y-123500000D01*
X89177980Y-124598374D01*
X89462836Y-124478486D01*
X89623699Y-124154790D01*
X89718322Y-123805931D01*
X89743067Y-123445316D01*
X89726866Y-123319268D01*
X98765000Y-123319268D01*
X98765000Y-123680732D01*
X98835518Y-124035250D01*
X98973844Y-124369199D01*
X99174662Y-124669744D01*
X99430256Y-124925338D01*
X99730801Y-125126156D01*
X100064750Y-125264482D01*
X100419268Y-125335000D01*
X100780732Y-125335000D01*
X101135250Y-125264482D01*
X101469199Y-125126156D01*
X101769744Y-124925338D01*
X102025338Y-124669744D01*
X102226156Y-124369199D01*
X102364482Y-124035250D01*
X102435000Y-123680732D01*
X102435000Y-123319268D01*
X102364482Y-122964750D01*
X102226156Y-122630801D01*
X102025338Y-122330256D01*
X101769744Y-122074662D01*
X101469199Y-121873844D01*
X101135250Y-121735518D01*
X100780732Y-121665000D01*
X100419268Y-121665000D01*
X100064750Y-121735518D01*
X99730801Y-121873844D01*
X99430256Y-122074662D01*
X99174662Y-122330256D01*
X98973844Y-122630801D01*
X98835518Y-122964750D01*
X98765000Y-123319268D01*
X89726866Y-123319268D01*
X89696985Y-123086802D01*
X89581846Y-122744167D01*
X89462836Y-122521514D01*
X89177980Y-122401626D01*
X88079605Y-123500000D01*
X87720395Y-123500000D01*
X86622020Y-122401626D01*
X86337164Y-122521514D01*
X86176301Y-122845210D01*
X86081678Y-123194069D01*
X86056933Y-123554684D01*
X83435000Y-123554684D01*
X83435000Y-122222020D01*
X86801626Y-122222020D01*
X87900000Y-123320395D01*
X88998374Y-122222020D01*
X88878486Y-121937164D01*
X88554790Y-121776301D01*
X88205931Y-121681678D01*
X87845316Y-121656933D01*
X87486802Y-121703015D01*
X87144167Y-121818154D01*
X86921514Y-121937164D01*
X86801626Y-122222020D01*
X83435000Y-122222020D01*
X83435000Y-113377980D01*
X86801626Y-113377980D01*
X86921514Y-113662836D01*
X87245210Y-113823699D01*
X87594069Y-113918322D01*
X87954684Y-113943067D01*
X88313198Y-113896985D01*
X88655833Y-113781846D01*
X88878486Y-113662836D01*
X88998374Y-113377980D01*
X99501626Y-113377980D01*
X99621514Y-113662836D01*
X99945210Y-113823699D01*
X100294069Y-113918322D01*
X100654684Y-113943067D01*
X101013198Y-113896985D01*
X101355833Y-113781846D01*
X101578486Y-113662836D01*
X101698374Y-113377980D01*
X100600000Y-112279605D01*
X99501626Y-113377980D01*
X88998374Y-113377980D01*
X87900000Y-112279605D01*
X86801626Y-113377980D01*
X83435000Y-113377980D01*
X83435000Y-112154684D01*
X86056933Y-112154684D01*
X86103015Y-112513198D01*
X86218154Y-112855833D01*
X86337164Y-113078486D01*
X86622020Y-113198374D01*
X87720395Y-112100000D01*
X88079605Y-112100000D01*
X89177980Y-113198374D01*
X89462836Y-113078486D01*
X89623699Y-112754790D01*
X89718322Y-112405931D01*
X89735562Y-112154684D01*
X98756933Y-112154684D01*
X98803015Y-112513198D01*
X98918154Y-112855833D01*
X99037164Y-113078486D01*
X99322020Y-113198374D01*
X100420395Y-112100000D01*
X100779605Y-112100000D01*
X101877980Y-113198374D01*
X102162836Y-113078486D01*
X102323699Y-112754790D01*
X102418322Y-112405931D01*
X102443067Y-112045316D01*
X102396985Y-111686802D01*
X102281846Y-111344167D01*
X102162836Y-111121514D01*
X101877980Y-111001626D01*
X100779605Y-112100000D01*
X100420395Y-112100000D01*
X99322020Y-111001626D01*
X99037164Y-111121514D01*
X98876301Y-111445210D01*
X98781678Y-111794069D01*
X98756933Y-112154684D01*
X89735562Y-112154684D01*
X89743067Y-112045316D01*
X89696985Y-111686802D01*
X89581846Y-111344167D01*
X89462836Y-111121514D01*
X89177980Y-111001626D01*
X88079605Y-112100000D01*
X87720395Y-112100000D01*
X86622020Y-111001626D01*
X86337164Y-111121514D01*
X86176301Y-111445210D01*
X86081678Y-111794069D01*
X86056933Y-112154684D01*
X83435000Y-112154684D01*
X83435000Y-110822020D01*
X86801626Y-110822020D01*
X87900000Y-111920395D01*
X88998374Y-110822020D01*
X99501626Y-110822020D01*
X100600000Y-111920395D01*
X101698374Y-110822020D01*
X101578486Y-110537164D01*
X101254790Y-110376301D01*
X100905931Y-110281678D01*
X100545316Y-110256933D01*
X100186802Y-110303015D01*
X99844167Y-110418154D01*
X99621514Y-110537164D01*
X99501626Y-110822020D01*
X88998374Y-110822020D01*
X88878486Y-110537164D01*
X88554790Y-110376301D01*
X88205931Y-110281678D01*
X87845316Y-110256933D01*
X87486802Y-110303015D01*
X87144167Y-110418154D01*
X86921514Y-110537164D01*
X86801626Y-110822020D01*
X83435000Y-110822020D01*
X83435000Y-98700000D01*
X85461928Y-98700000D01*
X85465000Y-99014250D01*
X85623750Y-99173000D01*
X86673000Y-99173000D01*
X86673000Y-98223750D01*
X86514250Y-98065000D01*
X86100000Y-98061928D01*
X85975518Y-98074188D01*
X85855820Y-98110498D01*
X85745506Y-98169463D01*
X85648815Y-98248815D01*
X85569463Y-98345506D01*
X85510498Y-98455820D01*
X85474188Y-98575518D01*
X85461928Y-98700000D01*
X83435000Y-98700000D01*
X83435000Y-96250000D01*
X83686928Y-96250000D01*
X83699188Y-96374482D01*
X83735498Y-96494180D01*
X83794463Y-96604494D01*
X83873815Y-96701185D01*
X83970506Y-96780537D01*
X84080820Y-96839502D01*
X84200518Y-96875812D01*
X84325000Y-96888072D01*
X84639250Y-96885000D01*
X84798000Y-96726250D01*
X84798000Y-95677000D01*
X83848750Y-95677000D01*
X83690000Y-95835750D01*
X83686928Y-96250000D01*
X83435000Y-96250000D01*
X83435000Y-94850000D01*
X83686928Y-94850000D01*
X83690000Y-95264250D01*
X83848750Y-95423000D01*
X84798000Y-95423000D01*
X84798000Y-94373750D01*
X84639250Y-94215000D01*
X84325000Y-94211928D01*
X84200518Y-94224188D01*
X84080820Y-94260498D01*
X83970506Y-94319463D01*
X83873815Y-94398815D01*
X83794463Y-94495506D01*
X83735498Y-94605820D01*
X83699188Y-94725518D01*
X83686928Y-94850000D01*
X83435000Y-94850000D01*
X83434999Y-92795392D01*
X83435149Y-92795472D01*
X83601745Y-92846008D01*
X83774999Y-92863072D01*
X84675001Y-92863072D01*
X84848255Y-92846008D01*
X84983441Y-92805000D01*
X85379590Y-92805000D01*
X85385150Y-92807972D01*
X85551746Y-92858508D01*
X85725000Y-92875572D01*
X86675000Y-92875572D01*
X86848254Y-92858508D01*
X87014850Y-92807972D01*
X87020410Y-92805000D01*
X87436928Y-92805000D01*
X87436928Y-93440000D01*
X87449188Y-93564482D01*
X87485498Y-93684180D01*
X87544463Y-93794494D01*
X87623815Y-93891185D01*
X87720506Y-93970537D01*
X87765001Y-93994320D01*
X87765000Y-94359785D01*
X87614851Y-94279528D01*
X87448255Y-94228992D01*
X87275001Y-94211928D01*
X86574999Y-94211928D01*
X86401745Y-94228992D01*
X86235149Y-94279528D01*
X86081613Y-94361595D01*
X86000363Y-94428276D01*
X85976185Y-94398815D01*
X85879494Y-94319463D01*
X85769180Y-94260498D01*
X85649482Y-94224188D01*
X85525000Y-94211928D01*
X85210750Y-94215000D01*
X85052000Y-94373750D01*
X85052000Y-95423000D01*
X85072000Y-95423000D01*
X85072000Y-95677000D01*
X85052000Y-95677000D01*
X85052000Y-96726250D01*
X85210750Y-96885000D01*
X85525000Y-96888072D01*
X85649482Y-96875812D01*
X85769180Y-96839502D01*
X85879494Y-96780537D01*
X85976185Y-96701185D01*
X86000363Y-96671724D01*
X86081613Y-96738405D01*
X86235149Y-96820472D01*
X86401745Y-96871008D01*
X86574999Y-96888072D01*
X87275001Y-96888072D01*
X87448255Y-96871008D01*
X87481547Y-96860909D01*
X87453992Y-96951745D01*
X87436928Y-97124999D01*
X87436928Y-97825001D01*
X87453992Y-97998255D01*
X87473367Y-98062126D01*
X87085750Y-98065000D01*
X86927000Y-98223750D01*
X86927000Y-99173000D01*
X86947000Y-99173000D01*
X86947000Y-99427000D01*
X86927000Y-99427000D01*
X86927000Y-99447000D01*
X86673000Y-99447000D01*
X86673000Y-99427000D01*
X85623750Y-99427000D01*
X85465000Y-99585750D01*
X85461928Y-99900000D01*
X85474188Y-100024482D01*
X85510498Y-100144180D01*
X85569463Y-100254494D01*
X85648815Y-100351185D01*
X85678276Y-100375363D01*
X85611595Y-100456613D01*
X85529528Y-100610149D01*
X85478992Y-100776745D01*
X85461928Y-100949999D01*
X85461928Y-101650001D01*
X85478992Y-101823255D01*
X85529528Y-101989851D01*
X85611595Y-102143387D01*
X85722038Y-102277962D01*
X85856613Y-102388405D01*
X86010149Y-102470472D01*
X86176745Y-102521008D01*
X86349999Y-102538072D01*
X87250001Y-102538072D01*
X87423255Y-102521008D01*
X87589851Y-102470472D01*
X87656214Y-102435000D01*
X87917173Y-102435000D01*
X87960150Y-102457972D01*
X88126746Y-102508508D01*
X88300000Y-102525572D01*
X88317375Y-102525572D01*
X88295000Y-102638061D01*
X88295000Y-102745299D01*
X88173401Y-102721111D01*
X87731343Y-102721111D01*
X87297780Y-102807353D01*
X86889372Y-102976521D01*
X86521815Y-103222114D01*
X86209233Y-103534696D01*
X85963640Y-103902253D01*
X85794472Y-104310661D01*
X85708230Y-104744224D01*
X85708230Y-105186282D01*
X85794472Y-105619845D01*
X85963640Y-106028253D01*
X86209233Y-106395810D01*
X86521815Y-106708392D01*
X86889372Y-106953985D01*
X87297780Y-107123153D01*
X87731343Y-107209395D01*
X88173401Y-107209395D01*
X88606964Y-107123153D01*
X89015372Y-106953985D01*
X89382929Y-106708392D01*
X89695511Y-106395810D01*
X89941104Y-106028253D01*
X90110272Y-105619845D01*
X90196514Y-105186282D01*
X90196514Y-104750000D01*
X97111928Y-104750000D01*
X97111928Y-106750000D01*
X97124188Y-106874482D01*
X97160498Y-106994180D01*
X97219463Y-107104494D01*
X97298815Y-107201185D01*
X97395506Y-107280537D01*
X97505820Y-107339502D01*
X97625518Y-107375812D01*
X97750000Y-107388072D01*
X99750000Y-107388072D01*
X99874482Y-107375812D01*
X99994180Y-107339502D01*
X100104494Y-107280537D01*
X100201185Y-107201185D01*
X100280537Y-107104494D01*
X100305191Y-107058370D01*
X100515537Y-107198918D01*
X100813088Y-107322168D01*
X101128967Y-107385000D01*
X101451033Y-107385000D01*
X101766912Y-107322168D01*
X102064463Y-107198918D01*
X102332252Y-107019987D01*
X102342239Y-107010000D01*
X103206333Y-107010000D01*
X103179528Y-107060149D01*
X103128992Y-107226745D01*
X103111928Y-107399999D01*
X103111928Y-108100001D01*
X103128992Y-108273255D01*
X103179528Y-108439851D01*
X103261595Y-108593387D01*
X103372038Y-108727962D01*
X103440001Y-108783738D01*
X103440001Y-108822372D01*
X103415000Y-108948061D01*
X103415000Y-109151939D01*
X103454774Y-109351898D01*
X103532795Y-109540256D01*
X103646063Y-109709774D01*
X103790226Y-109853937D01*
X103959744Y-109967205D01*
X104148102Y-110045226D01*
X104348061Y-110085000D01*
X104551939Y-110085000D01*
X104751898Y-110045226D01*
X104940256Y-109967205D01*
X105109774Y-109853937D01*
X105253937Y-109709774D01*
X105367205Y-109540256D01*
X105445226Y-109351898D01*
X105485000Y-109151939D01*
X105485000Y-108948061D01*
X105460000Y-108822377D01*
X105460000Y-108783737D01*
X105527962Y-108727962D01*
X105638405Y-108593387D01*
X105720472Y-108439851D01*
X105771008Y-108273255D01*
X105788072Y-108100001D01*
X105788072Y-107399999D01*
X105771008Y-107226745D01*
X105720472Y-107060149D01*
X105638405Y-106906613D01*
X105527962Y-106772038D01*
X105501109Y-106750000D01*
X105527962Y-106727962D01*
X105638405Y-106593387D01*
X105720472Y-106439851D01*
X105771008Y-106273255D01*
X105788072Y-106100001D01*
X105788072Y-105399999D01*
X105771008Y-105226745D01*
X105720472Y-105060149D01*
X105638405Y-104906613D01*
X105527962Y-104772038D01*
X105494071Y-104744224D01*
X110203485Y-104744224D01*
X110203485Y-105186282D01*
X110289727Y-105619845D01*
X110458895Y-106028253D01*
X110704488Y-106395810D01*
X111017070Y-106708392D01*
X111384627Y-106953985D01*
X111793035Y-107123153D01*
X112226598Y-107209395D01*
X112668656Y-107209395D01*
X113102219Y-107123153D01*
X113510627Y-106953985D01*
X113878184Y-106708392D01*
X114190766Y-106395810D01*
X114436359Y-106028253D01*
X114605527Y-105619845D01*
X114691769Y-105186282D01*
X114691769Y-104744224D01*
X114605527Y-104310661D01*
X114436359Y-103902253D01*
X114190766Y-103534696D01*
X113878184Y-103222114D01*
X113510627Y-102976521D01*
X113102219Y-102807353D01*
X112668656Y-102721111D01*
X112226598Y-102721111D01*
X111793035Y-102807353D01*
X111384627Y-102976521D01*
X111017070Y-103222114D01*
X110704488Y-103534696D01*
X110458895Y-103902253D01*
X110289727Y-104310661D01*
X110203485Y-104744224D01*
X105494071Y-104744224D01*
X105393387Y-104661595D01*
X105239851Y-104579528D01*
X105073255Y-104528992D01*
X104900001Y-104511928D01*
X104709187Y-104511928D01*
X104697003Y-104508232D01*
X104511893Y-104490000D01*
X102342239Y-104490000D01*
X102332252Y-104480013D01*
X102064463Y-104301082D01*
X101766912Y-104177832D01*
X101451033Y-104115000D01*
X101128967Y-104115000D01*
X100813088Y-104177832D01*
X100515537Y-104301082D01*
X100305191Y-104441630D01*
X100280537Y-104395506D01*
X100201185Y-104298815D01*
X100104494Y-104219463D01*
X99994180Y-104160498D01*
X99874482Y-104124188D01*
X99750000Y-104111928D01*
X97750000Y-104111928D01*
X97625518Y-104124188D01*
X97505820Y-104160498D01*
X97395506Y-104219463D01*
X97298815Y-104298815D01*
X97219463Y-104395506D01*
X97160498Y-104505820D01*
X97124188Y-104625518D01*
X97111928Y-104750000D01*
X90196514Y-104750000D01*
X90196514Y-104744224D01*
X90110272Y-104310661D01*
X89941104Y-103902253D01*
X89786665Y-103671119D01*
X89820256Y-103657205D01*
X89989774Y-103543937D01*
X90133937Y-103399774D01*
X90247205Y-103230256D01*
X90325226Y-103041898D01*
X90365000Y-102841939D01*
X90365000Y-102638061D01*
X90340000Y-102512377D01*
X90340000Y-102222500D01*
X100846928Y-102222500D01*
X100859188Y-102346982D01*
X100895498Y-102466680D01*
X100954463Y-102576994D01*
X101033815Y-102673685D01*
X101130506Y-102753037D01*
X101240820Y-102812002D01*
X101360518Y-102848312D01*
X101485000Y-102860572D01*
X101924250Y-102857500D01*
X102083000Y-102698750D01*
X102083000Y-101762000D01*
X101008750Y-101762000D01*
X100850000Y-101920750D01*
X100846928Y-102222500D01*
X90340000Y-102222500D01*
X90340000Y-101904608D01*
X90344886Y-101855000D01*
X90325385Y-101657005D01*
X90267632Y-101466620D01*
X90173847Y-101291160D01*
X90138072Y-101247568D01*
X90138072Y-100962500D01*
X90121008Y-100789246D01*
X90070472Y-100622650D01*
X89988405Y-100469114D01*
X89877962Y-100334538D01*
X89790183Y-100262500D01*
X89877962Y-100190462D01*
X89988405Y-100055886D01*
X90070472Y-99902350D01*
X90121008Y-99735754D01*
X90138072Y-99562500D01*
X90138072Y-99319268D01*
X97565000Y-99319268D01*
X97565000Y-99680732D01*
X97635518Y-100035250D01*
X97773844Y-100369199D01*
X97974662Y-100669744D01*
X98230256Y-100925338D01*
X98530801Y-101126156D01*
X98864750Y-101264482D01*
X99219268Y-101335000D01*
X99580732Y-101335000D01*
X99935250Y-101264482D01*
X100269199Y-101126156D01*
X100569744Y-100925338D01*
X100825338Y-100669744D01*
X101004902Y-100401008D01*
X101107038Y-100525462D01*
X101113594Y-100530842D01*
X101033815Y-100596315D01*
X100954463Y-100693006D01*
X100895498Y-100803320D01*
X100859188Y-100923018D01*
X100846928Y-101047500D01*
X100850000Y-101349250D01*
X101008750Y-101508000D01*
X102083000Y-101508000D01*
X102083000Y-101488000D01*
X102337000Y-101488000D01*
X102337000Y-101508000D01*
X102357000Y-101508000D01*
X102357000Y-101762000D01*
X102337000Y-101762000D01*
X102337000Y-102698750D01*
X102495750Y-102857500D01*
X102935000Y-102860572D01*
X103059482Y-102848312D01*
X103135000Y-102825404D01*
X103135000Y-103021939D01*
X103174774Y-103221898D01*
X103252795Y-103410256D01*
X103366063Y-103579774D01*
X103510226Y-103723937D01*
X103679744Y-103837205D01*
X103868102Y-103915226D01*
X104068061Y-103955000D01*
X104271939Y-103955000D01*
X104471898Y-103915226D01*
X104660256Y-103837205D01*
X104829774Y-103723937D01*
X104973937Y-103579774D01*
X105087205Y-103410256D01*
X105165226Y-103221898D01*
X105205000Y-103021939D01*
X105205000Y-102818061D01*
X105190000Y-102742650D01*
X105190000Y-102633737D01*
X105257962Y-102577962D01*
X105368405Y-102443387D01*
X105450472Y-102289851D01*
X105501008Y-102123255D01*
X105518072Y-101950001D01*
X105518072Y-101249999D01*
X105501008Y-101076745D01*
X105450472Y-100910149D01*
X105368405Y-100756613D01*
X105257962Y-100622038D01*
X105231109Y-100600000D01*
X105257962Y-100577962D01*
X105368405Y-100443387D01*
X105450472Y-100289851D01*
X105501008Y-100123255D01*
X105518072Y-99950001D01*
X105518072Y-99249999D01*
X105501008Y-99076745D01*
X105483210Y-99018072D01*
X105750001Y-99018072D01*
X105923255Y-99001008D01*
X106089851Y-98950472D01*
X106243387Y-98868405D01*
X106377962Y-98757962D01*
X106488405Y-98623387D01*
X106519614Y-98565000D01*
X109036643Y-98565000D01*
X109117038Y-98662962D01*
X109251614Y-98773405D01*
X109405150Y-98855472D01*
X109571746Y-98906008D01*
X109745000Y-98923072D01*
X110352782Y-98923072D01*
X110335518Y-98964750D01*
X110265000Y-99319268D01*
X110265000Y-99680732D01*
X110335518Y-100035250D01*
X110473844Y-100369199D01*
X110674662Y-100669744D01*
X110930256Y-100925338D01*
X111230801Y-101126156D01*
X111564750Y-101264482D01*
X111919268Y-101335000D01*
X112280732Y-101335000D01*
X112635250Y-101264482D01*
X112969199Y-101126156D01*
X113269744Y-100925338D01*
X113525338Y-100669744D01*
X113726156Y-100369199D01*
X113864482Y-100035250D01*
X113935000Y-99680732D01*
X113935000Y-99319268D01*
X113864482Y-98964750D01*
X113726156Y-98630801D01*
X113525338Y-98330256D01*
X113269744Y-98074662D01*
X112969199Y-97873844D01*
X112728738Y-97774242D01*
X112765000Y-97591939D01*
X112765000Y-97388061D01*
X112725226Y-97188102D01*
X112647205Y-96999744D01*
X112533937Y-96830226D01*
X112389774Y-96686063D01*
X112220256Y-96572795D01*
X112031898Y-96494774D01*
X111831939Y-96455000D01*
X111628061Y-96455000D01*
X111428102Y-96494774D01*
X111384677Y-96512761D01*
X111433405Y-96453386D01*
X111515472Y-96299850D01*
X111566008Y-96133254D01*
X111583072Y-95960000D01*
X111583072Y-95285000D01*
X111566008Y-95111746D01*
X111515472Y-94945150D01*
X111433405Y-94791614D01*
X111322962Y-94657038D01*
X111188386Y-94546595D01*
X111034850Y-94464528D01*
X110868254Y-94413992D01*
X110695000Y-94396928D01*
X110444650Y-94396928D01*
X111305044Y-93536535D01*
X111361898Y-93525226D01*
X111550256Y-93447205D01*
X111719774Y-93333937D01*
X111863937Y-93189774D01*
X111977205Y-93020256D01*
X112055226Y-92831898D01*
X112095000Y-92631939D01*
X112095000Y-92428061D01*
X112055226Y-92228102D01*
X111977205Y-92039744D01*
X111863937Y-91870226D01*
X111719774Y-91726063D01*
X111550256Y-91612795D01*
X111361898Y-91534774D01*
X111161939Y-91495000D01*
X110958061Y-91495000D01*
X110758102Y-91534774D01*
X110569744Y-91612795D01*
X110400226Y-91726063D01*
X110256063Y-91870226D01*
X110142795Y-92039744D01*
X110064774Y-92228102D01*
X110053465Y-92284956D01*
X109093750Y-93244672D01*
X108832201Y-92983122D01*
X108871898Y-92975226D01*
X109060256Y-92897205D01*
X109229774Y-92783937D01*
X109373937Y-92639774D01*
X109487205Y-92470256D01*
X109565226Y-92281898D01*
X109605000Y-92081939D01*
X109605000Y-91878061D01*
X109565226Y-91678102D01*
X109487205Y-91489744D01*
X109373937Y-91320226D01*
X109229774Y-91176063D01*
X109060256Y-91062795D01*
X108871898Y-90984774D01*
X108671939Y-90945000D01*
X108468061Y-90945000D01*
X108268102Y-90984774D01*
X108079744Y-91062795D01*
X108031546Y-91095000D01*
X107831954Y-91095000D01*
X107750000Y-91086928D01*
X106423877Y-91086928D01*
X106376185Y-91028815D01*
X106279494Y-90949463D01*
X106169180Y-90890498D01*
X106049482Y-90854188D01*
X105925000Y-90841928D01*
X102975000Y-90841928D01*
X102850518Y-90854188D01*
X102730820Y-90890498D01*
X102620506Y-90949463D01*
X102523815Y-91028815D01*
X102476123Y-91086928D01*
X101150000Y-91086928D01*
X100996255Y-91102071D01*
X100848418Y-91146916D01*
X100712171Y-91219742D01*
X100592749Y-91317749D01*
X100494742Y-91437171D01*
X100421916Y-91573418D01*
X100377071Y-91721255D01*
X100370000Y-91793046D01*
X100370000Y-91612623D01*
X100395000Y-91486939D01*
X100395000Y-91283061D01*
X100355226Y-91083102D01*
X100277205Y-90894744D01*
X100163937Y-90725226D01*
X100019774Y-90581063D01*
X99850256Y-90467795D01*
X99661898Y-90389774D01*
X99461939Y-90350000D01*
X99258061Y-90350000D01*
X99058102Y-90389774D01*
X98869744Y-90467795D01*
X98700226Y-90581063D01*
X98556063Y-90725226D01*
X98442795Y-90894744D01*
X98364774Y-91083102D01*
X98325000Y-91283061D01*
X98325000Y-91486939D01*
X98350000Y-91612624D01*
X98350000Y-92192676D01*
X98302038Y-92232038D01*
X98191595Y-92366613D01*
X98109528Y-92520149D01*
X98058992Y-92686745D01*
X98041928Y-92859999D01*
X98041928Y-93560001D01*
X98058992Y-93733255D01*
X98109528Y-93899851D01*
X98191595Y-94053387D01*
X98302038Y-94187962D01*
X98328891Y-94210000D01*
X98302038Y-94232038D01*
X98191595Y-94366613D01*
X98109528Y-94520149D01*
X98058992Y-94686745D01*
X98041928Y-94859999D01*
X98041928Y-95560001D01*
X98058992Y-95733255D01*
X98109528Y-95899851D01*
X98191595Y-96053387D01*
X98290000Y-96173294D01*
X98290000Y-96412376D01*
X98265000Y-96538061D01*
X98265000Y-96741939D01*
X98304774Y-96941898D01*
X98382795Y-97130256D01*
X98496063Y-97299774D01*
X98640226Y-97443937D01*
X98809744Y-97557205D01*
X98998102Y-97635226D01*
X99183528Y-97672109D01*
X98864750Y-97735518D01*
X98530801Y-97873844D01*
X98230256Y-98074662D01*
X97974662Y-98330256D01*
X97773844Y-98630801D01*
X97635518Y-98964750D01*
X97565000Y-99319268D01*
X90138072Y-99319268D01*
X90138072Y-98887500D01*
X90121008Y-98714246D01*
X90070472Y-98547650D01*
X89988405Y-98394114D01*
X89944831Y-98341019D01*
X89963405Y-98318387D01*
X90045472Y-98164851D01*
X90096008Y-97998255D01*
X90113072Y-97825001D01*
X90113072Y-97124999D01*
X90096008Y-96951745D01*
X90045472Y-96785149D01*
X89963405Y-96631613D01*
X89852962Y-96497038D01*
X89826109Y-96475000D01*
X89852962Y-96452962D01*
X89963405Y-96318387D01*
X90045472Y-96164851D01*
X90096008Y-95998255D01*
X90113072Y-95825001D01*
X90113072Y-95124999D01*
X90096008Y-94951745D01*
X90045472Y-94785149D01*
X89963405Y-94631613D01*
X89852962Y-94497038D01*
X89785000Y-94441263D01*
X89785000Y-94039870D01*
X89819180Y-94029502D01*
X89929494Y-93970537D01*
X90026185Y-93891185D01*
X90105537Y-93794494D01*
X90164502Y-93684180D01*
X90200812Y-93564482D01*
X90213072Y-93440000D01*
X90213072Y-92440000D01*
X90200812Y-92315518D01*
X90164502Y-92195820D01*
X90122703Y-92117621D01*
X90128676Y-92106447D01*
X90193577Y-91892499D01*
X90215491Y-91670000D01*
X90193577Y-91447501D01*
X90128676Y-91233553D01*
X90023284Y-91036377D01*
X90022154Y-91035000D01*
X90023284Y-91033623D01*
X90128676Y-90836447D01*
X90193577Y-90622499D01*
X90215491Y-90400000D01*
X90193577Y-90177501D01*
X90128676Y-89963553D01*
X90023284Y-89766377D01*
X89881449Y-89593551D01*
X89708623Y-89451716D01*
X89511447Y-89346324D01*
X89297499Y-89281423D01*
X89130752Y-89265000D01*
X88519248Y-89265000D01*
X88352501Y-89281423D01*
X88138553Y-89346324D01*
X87941377Y-89451716D01*
X87768551Y-89593551D01*
X87626716Y-89766377D01*
X87563072Y-89885447D01*
X87563072Y-89852731D01*
X87564960Y-89846507D01*
X87585000Y-89643037D01*
X87585000Y-85968685D01*
X88844764Y-84708922D01*
X88948411Y-84665990D01*
X89191632Y-84503475D01*
X89398475Y-84296632D01*
X89515000Y-84122240D01*
X89631525Y-84296632D01*
X89838368Y-84503475D01*
X90081589Y-84665990D01*
X90351842Y-84777932D01*
X90638740Y-84835000D01*
X90931260Y-84835000D01*
X91218158Y-84777932D01*
X91488411Y-84665990D01*
X91731632Y-84503475D01*
X91863487Y-84371620D01*
X91885498Y-84444180D01*
X91944463Y-84554494D01*
X92023815Y-84651185D01*
X92120506Y-84730537D01*
X92127499Y-84734275D01*
X92049528Y-84880149D01*
X91998992Y-85046745D01*
X91981928Y-85219999D01*
X91981928Y-85920001D01*
X91998992Y-86093255D01*
X92049528Y-86259851D01*
X92131595Y-86413387D01*
X92242038Y-86547962D01*
X92268891Y-86570000D01*
X92242038Y-86592038D01*
X92131595Y-86726613D01*
X92049528Y-86880149D01*
X91998992Y-87046745D01*
X91981928Y-87219999D01*
X91981928Y-87920001D01*
X91998992Y-88093255D01*
X92049528Y-88259851D01*
X92131595Y-88413387D01*
X92146065Y-88431019D01*
X92106595Y-88479114D01*
X92024528Y-88632650D01*
X91973992Y-88799246D01*
X91956928Y-88972500D01*
X91956928Y-89647500D01*
X91973992Y-89820754D01*
X92024528Y-89987350D01*
X92106595Y-90140886D01*
X92217038Y-90275462D01*
X92304817Y-90347500D01*
X92217038Y-90419538D01*
X92106595Y-90554114D01*
X92024528Y-90707650D01*
X91973992Y-90874246D01*
X91956928Y-91047500D01*
X91956928Y-91722500D01*
X91973992Y-91895754D01*
X92024528Y-92062350D01*
X92106595Y-92215886D01*
X92217038Y-92350462D01*
X92351614Y-92460905D01*
X92505150Y-92542972D01*
X92671746Y-92593508D01*
X92845000Y-92610572D01*
X93795000Y-92610572D01*
X93968254Y-92593508D01*
X94134850Y-92542972D01*
X94288386Y-92460905D01*
X94368692Y-92395000D01*
X94512377Y-92395000D01*
X94638061Y-92420000D01*
X94841939Y-92420000D01*
X95041898Y-92380226D01*
X95230256Y-92302205D01*
X95399774Y-92188937D01*
X95543937Y-92044774D01*
X95657205Y-91875256D01*
X95735226Y-91686898D01*
X95775000Y-91486939D01*
X95775000Y-91283061D01*
X95735226Y-91083102D01*
X95657205Y-90894744D01*
X95543937Y-90725226D01*
X95399774Y-90581063D01*
X95230256Y-90467795D01*
X95041898Y-90389774D01*
X94841939Y-90350000D01*
X94638061Y-90350000D01*
X94512377Y-90375000D01*
X94368692Y-90375000D01*
X94335183Y-90347500D01*
X94422962Y-90275462D01*
X94533405Y-90140886D01*
X94615472Y-89987350D01*
X94666008Y-89820754D01*
X94683072Y-89647500D01*
X94683072Y-88972500D01*
X94666008Y-88799246D01*
X94615472Y-88632650D01*
X94533405Y-88479114D01*
X94493935Y-88431019D01*
X94508405Y-88413387D01*
X94590472Y-88259851D01*
X94641008Y-88093255D01*
X94658072Y-87920001D01*
X94658072Y-87919268D01*
X97565000Y-87919268D01*
X97565000Y-88280732D01*
X97635518Y-88635250D01*
X97773844Y-88969199D01*
X97974662Y-89269744D01*
X98230256Y-89525338D01*
X98530801Y-89726156D01*
X98864750Y-89864482D01*
X99219268Y-89935000D01*
X99580732Y-89935000D01*
X99935250Y-89864482D01*
X100269199Y-89726156D01*
X100569744Y-89525338D01*
X100717102Y-89377980D01*
X111001626Y-89377980D01*
X111121514Y-89662836D01*
X111445210Y-89823699D01*
X111794069Y-89918322D01*
X112154684Y-89943067D01*
X112513198Y-89896985D01*
X112855833Y-89781846D01*
X113078486Y-89662836D01*
X113198374Y-89377980D01*
X112100000Y-88279605D01*
X111001626Y-89377980D01*
X100717102Y-89377980D01*
X100825338Y-89269744D01*
X101026156Y-88969199D01*
X101164482Y-88635250D01*
X101235000Y-88280732D01*
X101235000Y-88154684D01*
X110256933Y-88154684D01*
X110303015Y-88513198D01*
X110418154Y-88855833D01*
X110537164Y-89078486D01*
X110822020Y-89198374D01*
X111920395Y-88100000D01*
X112279605Y-88100000D01*
X113377980Y-89198374D01*
X113662836Y-89078486D01*
X113823699Y-88754790D01*
X113918322Y-88405931D01*
X113943067Y-88045316D01*
X113896985Y-87686802D01*
X113781846Y-87344167D01*
X113662836Y-87121514D01*
X113377980Y-87001626D01*
X112279605Y-88100000D01*
X111920395Y-88100000D01*
X110822020Y-87001626D01*
X110537164Y-87121514D01*
X110376301Y-87445210D01*
X110281678Y-87794069D01*
X110256933Y-88154684D01*
X101235000Y-88154684D01*
X101235000Y-87919268D01*
X101164482Y-87564750D01*
X101026156Y-87230801D01*
X100825338Y-86930256D01*
X100717102Y-86822020D01*
X111001626Y-86822020D01*
X112100000Y-87920395D01*
X113198374Y-86822020D01*
X113078486Y-86537164D01*
X112754790Y-86376301D01*
X112405931Y-86281678D01*
X112045316Y-86256933D01*
X111686802Y-86303015D01*
X111344167Y-86418154D01*
X111121514Y-86537164D01*
X111001626Y-86822020D01*
X100717102Y-86822020D01*
X100569744Y-86674662D01*
X100269199Y-86473844D01*
X99935250Y-86335518D01*
X99580732Y-86265000D01*
X99219268Y-86265000D01*
X98864750Y-86335518D01*
X98530801Y-86473844D01*
X98230256Y-86674662D01*
X97974662Y-86930256D01*
X97773844Y-87230801D01*
X97635518Y-87564750D01*
X97565000Y-87919268D01*
X94658072Y-87919268D01*
X94658072Y-87219999D01*
X94641008Y-87046745D01*
X94590472Y-86880149D01*
X94508405Y-86726613D01*
X94397962Y-86592038D01*
X94371109Y-86570000D01*
X94397962Y-86547962D01*
X94508405Y-86413387D01*
X94590472Y-86259851D01*
X94641008Y-86093255D01*
X94658072Y-85920001D01*
X94658072Y-85219999D01*
X94641008Y-85046745D01*
X94590472Y-84880149D01*
X94514723Y-84738433D01*
X94529494Y-84730537D01*
X94626185Y-84651185D01*
X94705537Y-84554494D01*
X94764502Y-84444180D01*
X94800812Y-84324482D01*
X94813072Y-84200000D01*
X94813072Y-83453740D01*
X105135000Y-83453740D01*
X105135000Y-83746260D01*
X105192068Y-84033158D01*
X105304010Y-84303411D01*
X105466525Y-84546632D01*
X105673368Y-84753475D01*
X105916589Y-84915990D01*
X106186842Y-85027932D01*
X106473740Y-85085000D01*
X106766260Y-85085000D01*
X107053158Y-85027932D01*
X107323411Y-84915990D01*
X107566632Y-84753475D01*
X107773475Y-84546632D01*
X107890000Y-84372240D01*
X108006525Y-84546632D01*
X108213368Y-84753475D01*
X108456589Y-84915990D01*
X108726842Y-85027932D01*
X109013740Y-85085000D01*
X109306260Y-85085000D01*
X109593158Y-85027932D01*
X109863411Y-84915990D01*
X110106632Y-84753475D01*
X110238487Y-84621620D01*
X110260498Y-84694180D01*
X110319463Y-84804494D01*
X110398815Y-84901185D01*
X110495506Y-84980537D01*
X110605820Y-85039502D01*
X110725518Y-85075812D01*
X110850000Y-85088072D01*
X112550000Y-85088072D01*
X112674482Y-85075812D01*
X112794180Y-85039502D01*
X112896144Y-84985000D01*
X113656822Y-84985000D01*
X113628992Y-85076745D01*
X113611928Y-85249999D01*
X113611928Y-85950001D01*
X113628992Y-86123255D01*
X113679528Y-86289851D01*
X113761595Y-86443387D01*
X113872038Y-86577962D01*
X113940000Y-86633737D01*
X113940000Y-86682376D01*
X113915000Y-86808061D01*
X113915000Y-87011939D01*
X113954774Y-87211898D01*
X114032795Y-87400256D01*
X114146063Y-87569774D01*
X114290226Y-87713937D01*
X114459744Y-87827205D01*
X114648102Y-87905226D01*
X114848061Y-87945000D01*
X115051939Y-87945000D01*
X115251898Y-87905226D01*
X115440256Y-87827205D01*
X115609774Y-87713937D01*
X115753937Y-87569774D01*
X115867205Y-87400256D01*
X115945226Y-87211898D01*
X115985000Y-87011939D01*
X115985000Y-86808061D01*
X115960000Y-86682377D01*
X115960000Y-86633737D01*
X116027962Y-86577962D01*
X116138405Y-86443387D01*
X116220472Y-86289851D01*
X116271008Y-86123255D01*
X116288072Y-85950001D01*
X116288072Y-85249999D01*
X116271008Y-85076745D01*
X116220472Y-84910149D01*
X116138405Y-84756613D01*
X116027962Y-84622038D01*
X116001109Y-84600000D01*
X116027962Y-84577962D01*
X116138405Y-84443387D01*
X116220472Y-84289851D01*
X116271008Y-84123255D01*
X116286593Y-83965022D01*
X116314960Y-83871507D01*
X116341701Y-83600000D01*
X116314960Y-83328493D01*
X116286593Y-83234978D01*
X116271008Y-83076745D01*
X116220472Y-82910149D01*
X116138405Y-82756613D01*
X116027962Y-82622038D01*
X115893387Y-82511595D01*
X115739851Y-82429528D01*
X115643723Y-82400368D01*
X115482581Y-82314236D01*
X115221507Y-82235040D01*
X115018037Y-82215000D01*
X112896144Y-82215000D01*
X112794180Y-82160498D01*
X112674482Y-82124188D01*
X112550000Y-82111928D01*
X110850000Y-82111928D01*
X110725518Y-82124188D01*
X110605820Y-82160498D01*
X110495506Y-82219463D01*
X110398815Y-82298815D01*
X110319463Y-82395506D01*
X110260498Y-82505820D01*
X110238487Y-82578380D01*
X110106632Y-82446525D01*
X109863411Y-82284010D01*
X109593158Y-82172068D01*
X109306260Y-82115000D01*
X109013740Y-82115000D01*
X108726842Y-82172068D01*
X108456589Y-82284010D01*
X108213368Y-82446525D01*
X108006525Y-82653368D01*
X107890000Y-82827760D01*
X107773475Y-82653368D01*
X107566632Y-82446525D01*
X107323411Y-82284010D01*
X107053158Y-82172068D01*
X106766260Y-82115000D01*
X106473740Y-82115000D01*
X106186842Y-82172068D01*
X105916589Y-82284010D01*
X105673368Y-82446525D01*
X105466525Y-82653368D01*
X105304010Y-82896589D01*
X105192068Y-83166842D01*
X105135000Y-83453740D01*
X94813072Y-83453740D01*
X94813072Y-82500000D01*
X94800812Y-82375518D01*
X94764502Y-82255820D01*
X94705537Y-82145506D01*
X94626185Y-82048815D01*
X94529494Y-81969463D01*
X94419180Y-81910498D01*
X94299482Y-81874188D01*
X94175000Y-81861928D01*
X92475000Y-81861928D01*
X92350518Y-81874188D01*
X92230820Y-81910498D01*
X92120506Y-81969463D01*
X92023815Y-82048815D01*
X91944463Y-82145506D01*
X91885498Y-82255820D01*
X91863487Y-82328380D01*
X91731632Y-82196525D01*
X91488411Y-82034010D01*
X91218158Y-81922068D01*
X91119316Y-81902407D01*
X89519990Y-80303082D01*
X89519990Y-79603740D01*
X95890000Y-79603740D01*
X95890000Y-79896260D01*
X95947068Y-80183158D01*
X96059010Y-80453411D01*
X96221525Y-80696632D01*
X96428368Y-80903475D01*
X96671589Y-81065990D01*
X96941842Y-81177932D01*
X97228740Y-81235000D01*
X97521260Y-81235000D01*
X97808158Y-81177932D01*
X98078411Y-81065990D01*
X98321632Y-80903475D01*
X98528475Y-80696632D01*
X98645000Y-80522240D01*
X98761525Y-80696632D01*
X98968368Y-80903475D01*
X99211589Y-81065990D01*
X99481842Y-81177932D01*
X99768740Y-81235000D01*
X100061260Y-81235000D01*
X100348158Y-81177932D01*
X100618411Y-81065990D01*
X100861632Y-80903475D01*
X100993487Y-80771620D01*
X101015498Y-80844180D01*
X101074463Y-80954494D01*
X101153815Y-81051185D01*
X101250506Y-81130537D01*
X101360820Y-81189502D01*
X101480518Y-81225812D01*
X101605000Y-81238072D01*
X103305000Y-81238072D01*
X103429482Y-81225812D01*
X103549180Y-81189502D01*
X103659494Y-81130537D01*
X103756185Y-81051185D01*
X103835537Y-80954494D01*
X103894502Y-80844180D01*
X103930812Y-80724482D01*
X103943072Y-80600000D01*
X103943072Y-79340000D01*
X110281928Y-79340000D01*
X110281928Y-80940000D01*
X110294188Y-81064482D01*
X110330498Y-81184180D01*
X110389463Y-81294494D01*
X110468815Y-81391185D01*
X110565506Y-81470537D01*
X110675820Y-81529502D01*
X110795518Y-81565812D01*
X110920000Y-81578072D01*
X112520000Y-81578072D01*
X112644482Y-81565812D01*
X112764180Y-81529502D01*
X112874494Y-81470537D01*
X112971185Y-81391185D01*
X113050537Y-81294494D01*
X113109502Y-81184180D01*
X113145812Y-81064482D01*
X113151295Y-81008807D01*
X113195363Y-81074759D01*
X113395241Y-81274637D01*
X113630273Y-81431680D01*
X113891426Y-81539853D01*
X114168665Y-81595000D01*
X114451335Y-81595000D01*
X114728574Y-81539853D01*
X114989727Y-81431680D01*
X115224759Y-81274637D01*
X115424637Y-81074759D01*
X115581680Y-80839727D01*
X115689853Y-80578574D01*
X115745000Y-80301335D01*
X115745000Y-80018665D01*
X115689853Y-79741426D01*
X115581680Y-79480273D01*
X115424637Y-79245241D01*
X115226039Y-79046643D01*
X115234482Y-79045812D01*
X115354180Y-79009502D01*
X115464494Y-78950537D01*
X115561185Y-78871185D01*
X115640537Y-78774494D01*
X115699502Y-78664180D01*
X115735812Y-78544482D01*
X115748072Y-78420000D01*
X115748072Y-76820000D01*
X115735812Y-76695518D01*
X115699502Y-76575820D01*
X115640537Y-76465506D01*
X115561185Y-76368815D01*
X115464494Y-76289463D01*
X115354180Y-76230498D01*
X115234482Y-76194188D01*
X115110000Y-76181928D01*
X113510000Y-76181928D01*
X113385518Y-76194188D01*
X113265820Y-76230498D01*
X113155506Y-76289463D01*
X113058815Y-76368815D01*
X112979463Y-76465506D01*
X112920498Y-76575820D01*
X112884188Y-76695518D01*
X112878705Y-76751193D01*
X112834637Y-76685241D01*
X112634759Y-76485363D01*
X112399727Y-76328320D01*
X112138574Y-76220147D01*
X111861335Y-76165000D01*
X111578665Y-76165000D01*
X111301426Y-76220147D01*
X111040273Y-76328320D01*
X110805241Y-76485363D01*
X110605363Y-76685241D01*
X110448320Y-76920273D01*
X110340147Y-77181426D01*
X110285000Y-77458665D01*
X110285000Y-77741335D01*
X110340147Y-78018574D01*
X110448320Y-78279727D01*
X110605363Y-78514759D01*
X110803961Y-78713357D01*
X110795518Y-78714188D01*
X110675820Y-78750498D01*
X110565506Y-78809463D01*
X110468815Y-78888815D01*
X110389463Y-78985506D01*
X110330498Y-79095820D01*
X110294188Y-79215518D01*
X110281928Y-79340000D01*
X103943072Y-79340000D01*
X103943072Y-78900000D01*
X103930812Y-78775518D01*
X103894502Y-78655820D01*
X103835537Y-78545506D01*
X103756185Y-78448815D01*
X103659494Y-78369463D01*
X103549180Y-78310498D01*
X103429482Y-78274188D01*
X103305000Y-78261928D01*
X101605000Y-78261928D01*
X101480518Y-78274188D01*
X101360820Y-78310498D01*
X101250506Y-78369463D01*
X101153815Y-78448815D01*
X101074463Y-78545506D01*
X101060000Y-78572564D01*
X101060000Y-77973858D01*
X101169114Y-78063405D01*
X101322650Y-78145472D01*
X101489246Y-78196008D01*
X101662500Y-78213072D01*
X102337500Y-78213072D01*
X102510754Y-78196008D01*
X102677350Y-78145472D01*
X102830886Y-78063405D01*
X102965462Y-77952962D01*
X103075905Y-77818386D01*
X103157972Y-77664850D01*
X103208508Y-77498254D01*
X103225572Y-77325000D01*
X103225572Y-76375000D01*
X103208508Y-76201746D01*
X103157972Y-76035150D01*
X103135000Y-75992173D01*
X103135000Y-75684443D01*
X103145472Y-75664851D01*
X103196008Y-75498255D01*
X103213072Y-75325001D01*
X103213072Y-74424999D01*
X103196008Y-74251745D01*
X103145472Y-74085149D01*
X103063405Y-73931613D01*
X102952962Y-73797038D01*
X102818387Y-73686595D01*
X102664851Y-73604528D01*
X102498255Y-73553992D01*
X102325001Y-73536928D01*
X101624999Y-73536928D01*
X101451745Y-73553992D01*
X101285149Y-73604528D01*
X101131613Y-73686595D01*
X101050363Y-73753276D01*
X101026185Y-73723815D01*
X100929494Y-73644463D01*
X100819180Y-73585498D01*
X100699482Y-73549188D01*
X100575000Y-73536928D01*
X100260750Y-73540000D01*
X100102000Y-73698750D01*
X100102000Y-74748000D01*
X100122000Y-74748000D01*
X100122000Y-75002000D01*
X100102000Y-75002000D01*
X100102000Y-75022000D01*
X99848000Y-75022000D01*
X99848000Y-75002000D01*
X98898750Y-75002000D01*
X98740000Y-75160750D01*
X98736928Y-75575000D01*
X98749188Y-75699482D01*
X98785498Y-75819180D01*
X98833983Y-75909887D01*
X98767028Y-76035150D01*
X98716492Y-76201746D01*
X98699428Y-76375000D01*
X98699428Y-77325000D01*
X98716492Y-77498254D01*
X98767028Y-77664850D01*
X98790000Y-77707828D01*
X98790001Y-78774892D01*
X98761525Y-78803368D01*
X98645000Y-78977760D01*
X98528475Y-78803368D01*
X98321632Y-78596525D01*
X98078411Y-78434010D01*
X97808158Y-78322068D01*
X97521260Y-78265000D01*
X97228740Y-78265000D01*
X96941842Y-78322068D01*
X96671589Y-78434010D01*
X96428368Y-78596525D01*
X96221525Y-78803368D01*
X96059010Y-79046589D01*
X95947068Y-79316842D01*
X95890000Y-79603740D01*
X89519990Y-79603740D01*
X89519990Y-76497530D01*
X89524250Y-76497500D01*
X89683000Y-76338750D01*
X89683000Y-75402000D01*
X89937000Y-75402000D01*
X89937000Y-76338750D01*
X90095750Y-76497500D01*
X90535000Y-76500572D01*
X90659482Y-76488312D01*
X90779180Y-76452002D01*
X90823547Y-76428287D01*
X90825820Y-76429502D01*
X90945518Y-76465812D01*
X91070000Y-76478072D01*
X91484250Y-76475000D01*
X91643000Y-76316250D01*
X91643000Y-75367000D01*
X91897000Y-75367000D01*
X91897000Y-76316250D01*
X92055750Y-76475000D01*
X92470000Y-76478072D01*
X92594482Y-76465812D01*
X92714180Y-76429502D01*
X92824494Y-76370537D01*
X92921185Y-76291185D01*
X93000537Y-76194494D01*
X93059502Y-76084180D01*
X93095812Y-75964482D01*
X93108072Y-75840000D01*
X93105000Y-75525750D01*
X92946250Y-75367000D01*
X91897000Y-75367000D01*
X91643000Y-75367000D01*
X90593750Y-75367000D01*
X90558750Y-75402000D01*
X89937000Y-75402000D01*
X89683000Y-75402000D01*
X89663000Y-75402000D01*
X89663000Y-75148000D01*
X89683000Y-75148000D01*
X89683000Y-75128000D01*
X89937000Y-75128000D01*
X89937000Y-75148000D01*
X91011250Y-75148000D01*
X91046250Y-75113000D01*
X91643000Y-75113000D01*
X91643000Y-75093000D01*
X91897000Y-75093000D01*
X91897000Y-75113000D01*
X92946250Y-75113000D01*
X93105000Y-74954250D01*
X93108072Y-74640000D01*
X93095812Y-74515518D01*
X93059502Y-74395820D01*
X93000537Y-74285506D01*
X92921185Y-74188815D01*
X92904352Y-74175000D01*
X98736928Y-74175000D01*
X98740000Y-74589250D01*
X98898750Y-74748000D01*
X99848000Y-74748000D01*
X99848000Y-73698750D01*
X99689250Y-73540000D01*
X99375000Y-73536928D01*
X99250518Y-73549188D01*
X99130820Y-73585498D01*
X99020506Y-73644463D01*
X98923815Y-73723815D01*
X98844463Y-73820506D01*
X98785498Y-73930820D01*
X98749188Y-74050518D01*
X98736928Y-74175000D01*
X92904352Y-74175000D01*
X92891724Y-74164637D01*
X92958405Y-74083387D01*
X93040472Y-73929851D01*
X93091008Y-73763255D01*
X93108072Y-73590001D01*
X93108072Y-72889999D01*
X93091332Y-72720038D01*
X93454250Y-72717500D01*
X93613000Y-72558750D01*
X93613000Y-71622000D01*
X93867000Y-71622000D01*
X93867000Y-72558750D01*
X94025750Y-72717500D01*
X94465000Y-72720572D01*
X94589482Y-72708312D01*
X94709180Y-72672002D01*
X94819494Y-72613037D01*
X94916185Y-72533685D01*
X94995537Y-72436994D01*
X95054502Y-72326680D01*
X95090812Y-72206982D01*
X95103072Y-72082500D01*
X95100000Y-71780750D01*
X94941250Y-71622000D01*
X93867000Y-71622000D01*
X93613000Y-71622000D01*
X92538750Y-71622000D01*
X92518750Y-71642000D01*
X91897000Y-71642000D01*
X91897000Y-71662000D01*
X91643000Y-71662000D01*
X91643000Y-71642000D01*
X91623000Y-71642000D01*
X91623000Y-71388000D01*
X91643000Y-71388000D01*
X91643000Y-71368000D01*
X91897000Y-71368000D01*
X91897000Y-71388000D01*
X92971250Y-71388000D01*
X92991250Y-71368000D01*
X93613000Y-71368000D01*
X93613000Y-71348000D01*
X93867000Y-71348000D01*
X93867000Y-71368000D01*
X94941250Y-71368000D01*
X95100000Y-71209250D01*
X95103072Y-70907500D01*
X95090812Y-70783018D01*
X95054502Y-70663320D01*
X94995537Y-70553006D01*
X94916185Y-70456315D01*
X94836406Y-70390842D01*
X94842962Y-70385462D01*
X94953405Y-70250886D01*
X95035472Y-70097350D01*
X95086008Y-69930754D01*
X95103072Y-69757500D01*
X95103072Y-69082500D01*
X95086008Y-68909246D01*
X95035472Y-68742650D01*
X94953405Y-68589114D01*
X94842962Y-68454538D01*
X94776507Y-68400000D01*
X98061928Y-68400000D01*
X98074188Y-68524482D01*
X98110498Y-68644180D01*
X98169463Y-68754494D01*
X98248815Y-68851185D01*
X98345506Y-68930537D01*
X98455820Y-68989502D01*
X98575518Y-69025812D01*
X98700000Y-69038072D01*
X99714250Y-69035000D01*
X99873000Y-68876250D01*
X99873000Y-67527000D01*
X100127000Y-67527000D01*
X100127000Y-68876250D01*
X100285750Y-69035000D01*
X101300000Y-69038072D01*
X101424482Y-69025812D01*
X101544180Y-68989502D01*
X101654494Y-68930537D01*
X101751185Y-68851185D01*
X101830537Y-68754494D01*
X101889502Y-68644180D01*
X101925812Y-68524482D01*
X101938072Y-68400000D01*
X101935000Y-67685750D01*
X101776250Y-67527000D01*
X100127000Y-67527000D01*
X99873000Y-67527000D01*
X98223750Y-67527000D01*
X98065000Y-67685750D01*
X98061928Y-68400000D01*
X94776507Y-68400000D01*
X94708386Y-68344095D01*
X94668222Y-68322627D01*
X94733519Y-68263414D01*
X94901037Y-68037420D01*
X95021246Y-67783087D01*
X95061904Y-67649039D01*
X94939915Y-67427000D01*
X93797000Y-67427000D01*
X93797000Y-67447000D01*
X93543000Y-67447000D01*
X93543000Y-67427000D01*
X93523000Y-67427000D01*
X93523000Y-67173000D01*
X93543000Y-67173000D01*
X93543000Y-66029376D01*
X93320960Y-65908091D01*
X93056119Y-66002930D01*
X92814869Y-66147615D01*
X92606481Y-66336586D01*
X92558370Y-66401491D01*
X92555812Y-66375518D01*
X92519502Y-66255820D01*
X92460537Y-66145506D01*
X92381185Y-66048815D01*
X92284494Y-65969463D01*
X92174180Y-65910498D01*
X92054482Y-65874188D01*
X91930000Y-65861928D01*
X90330000Y-65861928D01*
X90205518Y-65874188D01*
X90144831Y-65892597D01*
X90110272Y-65718860D01*
X90102460Y-65700000D01*
X93661928Y-65700000D01*
X93674188Y-65824482D01*
X93710498Y-65944180D01*
X93769463Y-66054494D01*
X93797000Y-66088048D01*
X93797000Y-67173000D01*
X94939915Y-67173000D01*
X95061904Y-66950961D01*
X95021246Y-66816913D01*
X94901037Y-66562580D01*
X94780525Y-66400000D01*
X98061928Y-66400000D01*
X98065000Y-67114250D01*
X98223750Y-67273000D01*
X99873000Y-67273000D01*
X99873000Y-65923750D01*
X100127000Y-65923750D01*
X100127000Y-67273000D01*
X101776250Y-67273000D01*
X101935000Y-67114250D01*
X101938072Y-66400000D01*
X101925812Y-66275518D01*
X101889502Y-66155820D01*
X101887687Y-66152423D01*
X110203485Y-66152423D01*
X110203485Y-66594481D01*
X110289727Y-67028044D01*
X110458895Y-67436452D01*
X110704488Y-67804009D01*
X111017070Y-68116591D01*
X111384627Y-68362184D01*
X111793035Y-68531352D01*
X112226598Y-68617594D01*
X112668656Y-68617594D01*
X113102219Y-68531352D01*
X113510627Y-68362184D01*
X113878184Y-68116591D01*
X114190766Y-67804009D01*
X114436359Y-67436452D01*
X114605527Y-67028044D01*
X114691769Y-66594481D01*
X114691769Y-66152423D01*
X114605527Y-65718860D01*
X114436359Y-65310452D01*
X114190766Y-64942895D01*
X113878184Y-64630313D01*
X113510627Y-64384720D01*
X113102219Y-64215552D01*
X112668656Y-64129310D01*
X112226598Y-64129310D01*
X111793035Y-64215552D01*
X111384627Y-64384720D01*
X111017070Y-64630313D01*
X110704488Y-64942895D01*
X110458895Y-65310452D01*
X110289727Y-65718860D01*
X110203485Y-66152423D01*
X101887687Y-66152423D01*
X101830537Y-66045506D01*
X101751185Y-65948815D01*
X101654494Y-65869463D01*
X101544180Y-65810498D01*
X101424482Y-65774188D01*
X101300000Y-65761928D01*
X100285750Y-65765000D01*
X100127000Y-65923750D01*
X99873000Y-65923750D01*
X99714250Y-65765000D01*
X98700000Y-65761928D01*
X98575518Y-65774188D01*
X98455820Y-65810498D01*
X98345506Y-65869463D01*
X98248815Y-65948815D01*
X98169463Y-66045506D01*
X98110498Y-66155820D01*
X98074188Y-66275518D01*
X98061928Y-66400000D01*
X94780525Y-66400000D01*
X94733519Y-66336586D01*
X94733104Y-66336209D01*
X95014250Y-66335000D01*
X95173000Y-66176250D01*
X95173000Y-64527000D01*
X95427000Y-64527000D01*
X95427000Y-66176250D01*
X95585750Y-66335000D01*
X96300000Y-66338072D01*
X96424482Y-66325812D01*
X96544180Y-66289502D01*
X96654494Y-66230537D01*
X96751185Y-66151185D01*
X96830537Y-66054494D01*
X96889502Y-65944180D01*
X96925812Y-65824482D01*
X96938072Y-65700000D01*
X96935000Y-64685750D01*
X96776250Y-64527000D01*
X95427000Y-64527000D01*
X95173000Y-64527000D01*
X93823750Y-64527000D01*
X93665000Y-64685750D01*
X93661928Y-65700000D01*
X90102460Y-65700000D01*
X89941104Y-65310452D01*
X89695511Y-64942895D01*
X89382929Y-64630313D01*
X89015372Y-64384720D01*
X88606964Y-64215552D01*
X88173401Y-64129310D01*
X87731343Y-64129310D01*
X87297780Y-64215552D01*
X86889372Y-64384720D01*
X86521815Y-64630313D01*
X86209233Y-64942895D01*
X85963640Y-65310452D01*
X85794472Y-65718860D01*
X85708230Y-66152423D01*
X85708230Y-66594481D01*
X85794472Y-67028044D01*
X85963640Y-67436452D01*
X86209233Y-67804009D01*
X86521815Y-68116591D01*
X86889372Y-68362184D01*
X87297780Y-68531352D01*
X87731343Y-68617594D01*
X88173401Y-68617594D01*
X88606964Y-68531352D01*
X88707555Y-68489686D01*
X88611595Y-68606613D01*
X88529528Y-68760149D01*
X88478992Y-68926745D01*
X88461928Y-69099999D01*
X88461928Y-69800001D01*
X88478992Y-69973255D01*
X88529528Y-70139851D01*
X88611595Y-70293387D01*
X88722038Y-70427962D01*
X88748891Y-70450000D01*
X88722038Y-70472038D01*
X88611595Y-70606613D01*
X88529528Y-70760149D01*
X88478992Y-70926745D01*
X88461928Y-71099999D01*
X88461928Y-71800001D01*
X88478992Y-71973255D01*
X88510828Y-72078204D01*
X88381595Y-72147280D01*
X88189735Y-72304735D01*
X88150276Y-72352816D01*
X87412806Y-73090286D01*
X87364725Y-73129745D01*
X87307069Y-73200000D01*
X87207270Y-73321605D01*
X87140243Y-73447004D01*
X87090270Y-73540497D01*
X87018222Y-73778008D01*
X86999990Y-73963118D01*
X86999990Y-73963127D01*
X86993895Y-74025010D01*
X86999990Y-74086893D01*
X86999991Y-80763097D01*
X86993895Y-80824990D01*
X87018223Y-81071993D01*
X87090270Y-81309503D01*
X87207270Y-81528395D01*
X87261932Y-81595000D01*
X87364726Y-81720255D01*
X87412801Y-81759709D01*
X87644482Y-81991390D01*
X87541589Y-82034010D01*
X87298368Y-82196525D01*
X87091525Y-82403368D01*
X86929010Y-82646589D01*
X86886078Y-82750236D01*
X85268764Y-84367551D01*
X85215920Y-84410919D01*
X85172551Y-84463764D01*
X85172548Y-84463767D01*
X85042844Y-84621812D01*
X84914236Y-84862420D01*
X84835040Y-85123493D01*
X84808300Y-85395000D01*
X84815001Y-85463039D01*
X84815000Y-88387744D01*
X84510750Y-88390000D01*
X84352000Y-88548750D01*
X84352000Y-89498000D01*
X84372000Y-89498000D01*
X84372000Y-89752000D01*
X84352000Y-89752000D01*
X84352000Y-89772000D01*
X84098000Y-89772000D01*
X84098000Y-89752000D01*
X84078000Y-89752000D01*
X84078000Y-89498000D01*
X84098000Y-89498000D01*
X84098000Y-88548750D01*
X83939250Y-88390000D01*
X83525000Y-88386928D01*
X83434999Y-88395792D01*
X83434999Y-63100000D01*
X93661928Y-63100000D01*
X93665000Y-64114250D01*
X93823750Y-64273000D01*
X95173000Y-64273000D01*
X95173000Y-62623750D01*
X95427000Y-62623750D01*
X95427000Y-64273000D01*
X96776250Y-64273000D01*
X96935000Y-64114250D01*
X96938072Y-63100000D01*
X96925812Y-62975518D01*
X96889502Y-62855820D01*
X96830537Y-62745506D01*
X96751185Y-62648815D01*
X96654494Y-62569463D01*
X96544180Y-62510498D01*
X96424482Y-62474188D01*
X96300000Y-62461928D01*
X95585750Y-62465000D01*
X95427000Y-62623750D01*
X95173000Y-62623750D01*
X95014250Y-62465000D01*
X94300000Y-62461928D01*
X94175518Y-62474188D01*
X94055820Y-62510498D01*
X93945506Y-62569463D01*
X93848815Y-62648815D01*
X93769463Y-62745506D01*
X93710498Y-62855820D01*
X93674188Y-62975518D01*
X93661928Y-63100000D01*
X83434999Y-63100000D01*
X83434998Y-62735735D01*
X83439723Y-62687691D01*
X83443201Y-62676212D01*
X83448866Y-62665610D01*
X83456412Y-62656414D01*
X83465611Y-62648866D01*
X83476214Y-62643201D01*
X83487690Y-62639723D01*
X83535715Y-62635000D01*
X85786105Y-62635000D01*
X85819024Y-62631758D01*
X85838955Y-62631897D01*
X85849168Y-62630896D01*
X86470277Y-62565615D01*
X86535584Y-62552209D01*
X86600970Y-62539736D01*
X86610795Y-62536771D01*
X87207395Y-62352092D01*
X87268862Y-62326254D01*
X87330573Y-62301321D01*
X87339634Y-62296504D01*
X87889001Y-61999462D01*
X87944240Y-61962202D01*
X87999971Y-61925733D01*
X88007924Y-61919247D01*
X88489133Y-61521156D01*
X88536094Y-61473866D01*
X88583668Y-61427278D01*
X88590210Y-61419371D01*
X88984931Y-60935395D01*
X89021811Y-60879887D01*
X89059433Y-60824941D01*
X89064315Y-60815914D01*
X89285460Y-60400000D01*
X98061928Y-60400000D01*
X98061928Y-62400000D01*
X98074188Y-62524482D01*
X98110498Y-62644180D01*
X98169463Y-62754494D01*
X98248815Y-62851185D01*
X98345506Y-62930537D01*
X98455820Y-62989502D01*
X98575518Y-63025812D01*
X98700000Y-63038072D01*
X101300000Y-63038072D01*
X101424482Y-63025812D01*
X101544180Y-62989502D01*
X101654494Y-62930537D01*
X101751185Y-62851185D01*
X101830537Y-62754494D01*
X101889502Y-62644180D01*
X101925812Y-62524482D01*
X101938072Y-62400000D01*
X101938072Y-60400000D01*
X101925812Y-60275518D01*
X101889502Y-60155820D01*
X101830537Y-60045506D01*
X101751185Y-59948815D01*
X101654494Y-59869463D01*
X101544180Y-59810498D01*
X101424482Y-59774188D01*
X101300000Y-59761928D01*
X98700000Y-59761928D01*
X98575518Y-59774188D01*
X98455820Y-59810498D01*
X98345506Y-59869463D01*
X98248815Y-59948815D01*
X98169463Y-60045506D01*
X98110498Y-60155820D01*
X98074188Y-60275518D01*
X98061928Y-60400000D01*
X89285460Y-60400000D01*
X89357514Y-60264486D01*
X89382915Y-60202859D01*
X89409142Y-60141666D01*
X89412177Y-60131863D01*
X89592686Y-59533988D01*
X89605635Y-59468589D01*
X89619475Y-59403480D01*
X89620548Y-59393274D01*
X89681492Y-58771724D01*
X89681492Y-58771723D01*
X89685000Y-58736105D01*
X89685000Y-56485715D01*
X89689723Y-56437691D01*
X89693201Y-56426212D01*
X89698866Y-56415610D01*
X89706412Y-56406414D01*
X89715611Y-56398866D01*
X89726214Y-56393201D01*
X89737690Y-56389723D01*
X89785715Y-56385000D01*
X110214284Y-56385000D01*
X110262308Y-56389723D01*
%TA.AperFunction,Conductor*%
D29*
G36*
X110262308Y-56389723D02*
G01*
X110273787Y-56393201D01*
X110284389Y-56398866D01*
X110293585Y-56406412D01*
X110301133Y-56415611D01*
X110306798Y-56426214D01*
X110310276Y-56437690D01*
X110315001Y-56485735D01*
X110315000Y-58736104D01*
X110318242Y-58769023D01*
X110318103Y-58788955D01*
X110319104Y-58799168D01*
X110384385Y-59420277D01*
X110397791Y-59485584D01*
X110410264Y-59550970D01*
X110413229Y-59560795D01*
X110597908Y-60157395D01*
X110623746Y-60218862D01*
X110648679Y-60280573D01*
X110653496Y-60289634D01*
X110950538Y-60839001D01*
X110987798Y-60894240D01*
X111024267Y-60949971D01*
X111030753Y-60957924D01*
X111428844Y-61439133D01*
X111476134Y-61486094D01*
X111522722Y-61533668D01*
X111530629Y-61540210D01*
X112014605Y-61934931D01*
X112070113Y-61971811D01*
X112125059Y-62009433D01*
X112134086Y-62014315D01*
X112685514Y-62307514D01*
X112747141Y-62332915D01*
X112808334Y-62359142D01*
X112818137Y-62362177D01*
X113416012Y-62542686D01*
X113481411Y-62555635D01*
X113546520Y-62569475D01*
X113556726Y-62570548D01*
X114178276Y-62631492D01*
X114213894Y-62635000D01*
X116464284Y-62635000D01*
X116512308Y-62639723D01*
X116523787Y-62643201D01*
X116534389Y-62648866D01*
X116543585Y-62656412D01*
X116551133Y-62665611D01*
X116556798Y-62676214D01*
X116560276Y-62687690D01*
X116565001Y-62735735D01*
X116564999Y-122807543D01*
X116501939Y-122795000D01*
X116298061Y-122795000D01*
X116172377Y-122820000D01*
X116167323Y-122820000D01*
X116127962Y-122772038D01*
X115993387Y-122661595D01*
X115839851Y-122579528D01*
X115673255Y-122528992D01*
X115500001Y-122511928D01*
X114799999Y-122511928D01*
X114626745Y-122528992D01*
X114460149Y-122579528D01*
X114306613Y-122661595D01*
X114172038Y-122772038D01*
X114150000Y-122798891D01*
X114136644Y-122782617D01*
X114145226Y-122761898D01*
X114185000Y-122561939D01*
X114185000Y-122358061D01*
X114145226Y-122158102D01*
X114067205Y-121969744D01*
X113953937Y-121800226D01*
X113809774Y-121656063D01*
X113640256Y-121542795D01*
X113451898Y-121464774D01*
X113251939Y-121425000D01*
X113048061Y-121425000D01*
X112848102Y-121464774D01*
X112659744Y-121542795D01*
X112490226Y-121656063D01*
X112346063Y-121800226D01*
X112232795Y-121969744D01*
X112154774Y-122158102D01*
X112115000Y-122358061D01*
X112115000Y-122561939D01*
X112154774Y-122761898D01*
X112163356Y-122782617D01*
X112061595Y-122906613D01*
X111979528Y-123060149D01*
X111928992Y-123226745D01*
X111911928Y-123399999D01*
X111911928Y-123590816D01*
X111908233Y-123602997D01*
X111890000Y-123788107D01*
X111890000Y-124918787D01*
X111854528Y-124985150D01*
X111803992Y-125151746D01*
X111786928Y-125325000D01*
X111786928Y-126000000D01*
X111803992Y-126173254D01*
X111854528Y-126339850D01*
X111936595Y-126493386D01*
X112020917Y-126596133D01*
X111989851Y-126579528D01*
X111823255Y-126528992D01*
X111650001Y-126511928D01*
X111567060Y-126511928D01*
X110957588Y-125902457D01*
X110980537Y-125874494D01*
X111039502Y-125764180D01*
X111075812Y-125644482D01*
X111088072Y-125520000D01*
X111088072Y-124520000D01*
X111075812Y-124395518D01*
X111039502Y-124275820D01*
X110997703Y-124197621D01*
X111003676Y-124186447D01*
X111068577Y-123972499D01*
X111090491Y-123750000D01*
X111068577Y-123527501D01*
X111003676Y-123313553D01*
X110898284Y-123116377D01*
X110897154Y-123115000D01*
X110898284Y-123113623D01*
X111003676Y-122916447D01*
X111068577Y-122702499D01*
X111090491Y-122480000D01*
X111068577Y-122257501D01*
X111003676Y-122043553D01*
X110898284Y-121846377D01*
X110756449Y-121673551D01*
X110583623Y-121531716D01*
X110386447Y-121426324D01*
X110172499Y-121361423D01*
X110005752Y-121345000D01*
X109394248Y-121345000D01*
X109227501Y-121361423D01*
X109013553Y-121426324D01*
X108816377Y-121531716D01*
X108643551Y-121673551D01*
X108501716Y-121846377D01*
X108396324Y-122043553D01*
X108331423Y-122257501D01*
X108309509Y-122480000D01*
X108331423Y-122702499D01*
X108359010Y-122793441D01*
X108296618Y-122812368D01*
X108121158Y-122906153D01*
X107967365Y-123032367D01*
X107935737Y-123070906D01*
X107200906Y-123805737D01*
X107163401Y-123836517D01*
X107129720Y-123725486D01*
X107012720Y-123506595D01*
X106855265Y-123314735D01*
X106663404Y-123157280D01*
X106444513Y-123040280D01*
X106207002Y-122968232D01*
X105960000Y-122943904D01*
X105712997Y-122968232D01*
X105475486Y-123040280D01*
X105256595Y-123157280D01*
X105064735Y-123314735D01*
X104907280Y-123506596D01*
X104790280Y-123725487D01*
X104718232Y-123962998D01*
X104700000Y-124148108D01*
X104700000Y-124780557D01*
X104689528Y-124800149D01*
X104638992Y-124966745D01*
X104621928Y-125139999D01*
X104621928Y-125840001D01*
X104638992Y-126013255D01*
X104689528Y-126179851D01*
X104771595Y-126333387D01*
X104882038Y-126467962D01*
X104908891Y-126490000D01*
X104882038Y-126512038D01*
X104771595Y-126646613D01*
X104689528Y-126800149D01*
X104638992Y-126966745D01*
X104621928Y-127139999D01*
X104621928Y-127840001D01*
X104638992Y-128013255D01*
X104689528Y-128179851D01*
X104771595Y-128333387D01*
X104882038Y-128467962D01*
X105016613Y-128578405D01*
X105170149Y-128660472D01*
X105336745Y-128711008D01*
X105509999Y-128728072D01*
X105631916Y-128728072D01*
X105742997Y-128761768D01*
X105928107Y-128780000D01*
X105928117Y-128780000D01*
X105989999Y-128786095D01*
X106051882Y-128780000D01*
X106636333Y-128780000D01*
X106609528Y-128830149D01*
X106558992Y-128996745D01*
X106541928Y-129169999D01*
X106541928Y-129729689D01*
X106342252Y-129530013D01*
X106074463Y-129351082D01*
X105776912Y-129227832D01*
X105461033Y-129165000D01*
X105138967Y-129165000D01*
X104823088Y-129227832D01*
X104525537Y-129351082D01*
X104257748Y-129530013D01*
X104030013Y-129757748D01*
X103851082Y-130025537D01*
X103727832Y-130323088D01*
X103665000Y-130638967D01*
X103665000Y-130961033D01*
X103727832Y-131276912D01*
X103851082Y-131574463D01*
X104030013Y-131842252D01*
X104257748Y-132069987D01*
X104265250Y-132075000D01*
X102326893Y-132075000D01*
X102265000Y-132068904D01*
X102203107Y-132075000D01*
X102017997Y-132093232D01*
X101780486Y-132165280D01*
X101561595Y-132282280D01*
X101369735Y-132439735D01*
X101330281Y-132487810D01*
X99853092Y-133965000D01*
X99838967Y-133965000D01*
X99523088Y-134027832D01*
X99225537Y-134151082D01*
X98957748Y-134330013D01*
X98730013Y-134557748D01*
X98551082Y-134825537D01*
X98427832Y-135123088D01*
X98365000Y-135438967D01*
X98365000Y-135761033D01*
X98427832Y-136076912D01*
X98551082Y-136374463D01*
X98730013Y-136642252D01*
X98957748Y-136869987D01*
X99225537Y-137048918D01*
X99523088Y-137172168D01*
X99838967Y-137235000D01*
X100161033Y-137235000D01*
X100476912Y-137172168D01*
X100774463Y-137048918D01*
X101042252Y-136869987D01*
X101176826Y-136735413D01*
X104344192Y-136735413D01*
X104439956Y-136999814D01*
X104729571Y-137140704D01*
X105041108Y-137222384D01*
X105362595Y-137241718D01*
X105681675Y-137197961D01*
X105986088Y-137092795D01*
X106160044Y-136999814D01*
X106255808Y-136735413D01*
X105300000Y-135779605D01*
X104344192Y-136735413D01*
X101176826Y-136735413D01*
X101269987Y-136642252D01*
X101448918Y-136374463D01*
X101572168Y-136076912D01*
X101635000Y-135761033D01*
X101635000Y-135746908D01*
X102786909Y-134595000D01*
X104115392Y-134595000D01*
X104164585Y-134644193D01*
X103900186Y-134739956D01*
X103759296Y-135029571D01*
X103677616Y-135341108D01*
X103658282Y-135662595D01*
X103702039Y-135981675D01*
X103807205Y-136286088D01*
X103900186Y-136460044D01*
X104164587Y-136555808D01*
X105120395Y-135600000D01*
X105106253Y-135585858D01*
X105285858Y-135406253D01*
X105300000Y-135420395D01*
X105314143Y-135406253D01*
X105493748Y-135585858D01*
X105479605Y-135600000D01*
X106435413Y-136555808D01*
X106699814Y-136460044D01*
X106800486Y-136253102D01*
X106916613Y-136348405D01*
X107070149Y-136430472D01*
X107236745Y-136481008D01*
X107409999Y-136498072D01*
X108110001Y-136498072D01*
X108283255Y-136481008D01*
X108449851Y-136430472D01*
X108603387Y-136348405D01*
X108684637Y-136281724D01*
X108708815Y-136311185D01*
X108805506Y-136390537D01*
X108915820Y-136449502D01*
X109035518Y-136485812D01*
X109160000Y-136498072D01*
X109474250Y-136495000D01*
X109633000Y-136336250D01*
X109633000Y-135287000D01*
X109887000Y-135287000D01*
X109887000Y-136336250D01*
X110045750Y-136495000D01*
X110360000Y-136498072D01*
X110484482Y-136485812D01*
X110604180Y-136449502D01*
X110714494Y-136390537D01*
X110811185Y-136311185D01*
X110890537Y-136214494D01*
X110949502Y-136104180D01*
X110985812Y-135984482D01*
X110998072Y-135860000D01*
X110995000Y-135445750D01*
X110836250Y-135287000D01*
X109887000Y-135287000D01*
X109633000Y-135287000D01*
X109613000Y-135287000D01*
X109613000Y-135033000D01*
X109633000Y-135033000D01*
X109633000Y-133983750D01*
X109887000Y-133983750D01*
X109887000Y-135033000D01*
X110836250Y-135033000D01*
X110995000Y-134874250D01*
X110998072Y-134460000D01*
X110985812Y-134335518D01*
X110949502Y-134215820D01*
X110890537Y-134105506D01*
X110811185Y-134008815D01*
X110714494Y-133929463D01*
X110604180Y-133870498D01*
X110484482Y-133834188D01*
X110360000Y-133821928D01*
X110045750Y-133825000D01*
X109887000Y-133983750D01*
X109633000Y-133983750D01*
X109474250Y-133825000D01*
X109258260Y-133822889D01*
X109273072Y-133672500D01*
X109273072Y-132997500D01*
X109256008Y-132824246D01*
X109205472Y-132657650D01*
X109123405Y-132504114D01*
X109012962Y-132369538D01*
X108925183Y-132297500D01*
X109012962Y-132225462D01*
X109123405Y-132090886D01*
X109205472Y-131937350D01*
X109256008Y-131770754D01*
X109273072Y-131597500D01*
X109273072Y-130922500D01*
X109256008Y-130749246D01*
X109205472Y-130582650D01*
X109170000Y-130516287D01*
X109170000Y-130350000D01*
X109861928Y-130350000D01*
X109874188Y-130474482D01*
X109910498Y-130594180D01*
X109969463Y-130704494D01*
X110048815Y-130801185D01*
X110145506Y-130880537D01*
X110255820Y-130939502D01*
X110375518Y-130975812D01*
X110500000Y-130988072D01*
X110914250Y-130985000D01*
X111073000Y-130826250D01*
X111073000Y-129877000D01*
X111327000Y-129877000D01*
X111327000Y-130826250D01*
X111485750Y-130985000D01*
X111900000Y-130988072D01*
X112024482Y-130975812D01*
X112144180Y-130939502D01*
X112254494Y-130880537D01*
X112351185Y-130801185D01*
X112430537Y-130704494D01*
X112489502Y-130594180D01*
X112525812Y-130474482D01*
X112538072Y-130350000D01*
X112535000Y-130035750D01*
X112376250Y-129877000D01*
X111327000Y-129877000D01*
X111073000Y-129877000D01*
X110023750Y-129877000D01*
X109865000Y-130035750D01*
X109861928Y-130350000D01*
X109170000Y-130350000D01*
X109170000Y-130145475D01*
X109201008Y-130043255D01*
X109218072Y-129870001D01*
X109218072Y-129169999D01*
X109201008Y-128996745D01*
X109150472Y-128830149D01*
X109068405Y-128676613D01*
X108957962Y-128542038D01*
X108931109Y-128520000D01*
X108957962Y-128497962D01*
X109068405Y-128363387D01*
X109150472Y-128209851D01*
X109201008Y-128043255D01*
X109218072Y-127870001D01*
X109218072Y-127373203D01*
X109861928Y-128017060D01*
X109861928Y-128100001D01*
X109878992Y-128273255D01*
X109929528Y-128439851D01*
X110011595Y-128593387D01*
X110078276Y-128674637D01*
X110048815Y-128698815D01*
X109969463Y-128795506D01*
X109910498Y-128905820D01*
X109874188Y-129025518D01*
X109861928Y-129150000D01*
X109865000Y-129464250D01*
X110023750Y-129623000D01*
X111073000Y-129623000D01*
X111073000Y-129603000D01*
X111327000Y-129603000D01*
X111327000Y-129623000D01*
X112376250Y-129623000D01*
X112535000Y-129464250D01*
X112538072Y-129150000D01*
X112525812Y-129025518D01*
X112501688Y-128945990D01*
X112501746Y-128946008D01*
X112675000Y-128963072D01*
X113625000Y-128963072D01*
X113798254Y-128946008D01*
X113964850Y-128895472D01*
X114118386Y-128813405D01*
X114252962Y-128702962D01*
X114363405Y-128568386D01*
X114445472Y-128414850D01*
X114496008Y-128248254D01*
X114513072Y-128075000D01*
X114513072Y-127400000D01*
X114496008Y-127226746D01*
X114445472Y-127060150D01*
X114363405Y-126906614D01*
X114252962Y-126772038D01*
X114165183Y-126700000D01*
X114252962Y-126627962D01*
X114363405Y-126493386D01*
X114445472Y-126339850D01*
X114496008Y-126173254D01*
X114513072Y-126000000D01*
X114513072Y-125325000D01*
X114496008Y-125151746D01*
X114489194Y-125129283D01*
X114626745Y-125171008D01*
X114799999Y-125188072D01*
X115500001Y-125188072D01*
X115673255Y-125171008D01*
X115839851Y-125120472D01*
X115993387Y-125038405D01*
X116127962Y-124927962D01*
X116196253Y-124844749D01*
X116298061Y-124865000D01*
X116501939Y-124865000D01*
X116564999Y-124852457D01*
X116564999Y-137214284D01*
X116560276Y-137262309D01*
X116556798Y-137273785D01*
X116551133Y-137284388D01*
X116543585Y-137293587D01*
X116534389Y-137301133D01*
X116523787Y-137306798D01*
X116512308Y-137310276D01*
X116464274Y-137315000D01*
X114213895Y-137315000D01*
X114180943Y-137318245D01*
X114160696Y-137318104D01*
X114150483Y-137319105D01*
X113519669Y-137385406D01*
X113454362Y-137398812D01*
X113388976Y-137411285D01*
X113379151Y-137414250D01*
X112773228Y-137601816D01*
X112711813Y-137627633D01*
X112650052Y-137652586D01*
X112640991Y-137657403D01*
X112083039Y-137959086D01*
X112027784Y-137996356D01*
X111972069Y-138032815D01*
X111964116Y-138039301D01*
X111475388Y-138443612D01*
X111428411Y-138490918D01*
X111380853Y-138537490D01*
X111374311Y-138545397D01*
X110973422Y-139036935D01*
X110936543Y-139092443D01*
X110898921Y-139147388D01*
X110894040Y-139156415D01*
X110596259Y-139716459D01*
X110570861Y-139778079D01*
X110544630Y-139839280D01*
X110541596Y-139849079D01*
X110541596Y-139849081D01*
X110541595Y-139849083D01*
X110358266Y-140456300D01*
X110345323Y-140521668D01*
X110331477Y-140586809D01*
X110330404Y-140597015D01*
X110268508Y-141228276D01*
X110268508Y-141228287D01*
X110265001Y-141263895D01*
X110265000Y-143514274D01*
X110260276Y-143562309D01*
X110256798Y-143573785D01*
X110251133Y-143584388D01*
X110243585Y-143593587D01*
X110234389Y-143601133D01*
X110223787Y-143606798D01*
X110212308Y-143610276D01*
X110164274Y-143615000D01*
X89735725Y-143615000D01*
X89687690Y-143610276D01*
X89676214Y-143606798D01*
X89665611Y-143601133D01*
X89656412Y-143593585D01*
X89648866Y-143584389D01*
X89643201Y-143573787D01*
X89639723Y-143562308D01*
X89634999Y-143514274D01*
X89634999Y-141263895D01*
X89631761Y-141231018D01*
X89631898Y-141211394D01*
X89630897Y-141201181D01*
X89566636Y-140589777D01*
X89553235Y-140524493D01*
X89540758Y-140459085D01*
X89537792Y-140449260D01*
X89472696Y-140238967D01*
X93065000Y-140238967D01*
X93065000Y-140561033D01*
X93127832Y-140876912D01*
X93251082Y-141174463D01*
X93430013Y-141442252D01*
X93657748Y-141669987D01*
X93925537Y-141848918D01*
X94223088Y-141972168D01*
X94538967Y-142035000D01*
X94861033Y-142035000D01*
X95176912Y-141972168D01*
X95474463Y-141848918D01*
X95742252Y-141669987D01*
X95969987Y-141442252D01*
X96148918Y-141174463D01*
X96272168Y-140876912D01*
X96335000Y-140561033D01*
X96335000Y-140239567D01*
X98365000Y-140239567D01*
X98365000Y-140561633D01*
X98427832Y-140877512D01*
X98551082Y-141175063D01*
X98730013Y-141442852D01*
X98957748Y-141670587D01*
X99225537Y-141849518D01*
X99523088Y-141972768D01*
X99838967Y-142035600D01*
X100161033Y-142035600D01*
X100476912Y-141972768D01*
X100774463Y-141849518D01*
X101042252Y-141670587D01*
X101269987Y-141442852D01*
X101448918Y-141175063D01*
X101572168Y-140877512D01*
X101635000Y-140561633D01*
X101635000Y-140239567D01*
X101634881Y-140238967D01*
X103665000Y-140238967D01*
X103665000Y-140561033D01*
X103727832Y-140876912D01*
X103851082Y-141174463D01*
X104030013Y-141442252D01*
X104257748Y-141669987D01*
X104525537Y-141848918D01*
X104823088Y-141972168D01*
X105138967Y-142035000D01*
X105461033Y-142035000D01*
X105776912Y-141972168D01*
X106074463Y-141848918D01*
X106342252Y-141669987D01*
X106569987Y-141442252D01*
X106748918Y-141174463D01*
X106872168Y-140876912D01*
X106935000Y-140561033D01*
X106935000Y-140238967D01*
X106872168Y-139923088D01*
X106748918Y-139625537D01*
X106569987Y-139357748D01*
X106342252Y-139130013D01*
X106074463Y-138951082D01*
X105776912Y-138827832D01*
X105461033Y-138765000D01*
X105138967Y-138765000D01*
X104823088Y-138827832D01*
X104525537Y-138951082D01*
X104257748Y-139130013D01*
X104030013Y-139357748D01*
X103851082Y-139625537D01*
X103727832Y-139923088D01*
X103665000Y-140238967D01*
X101634881Y-140238967D01*
X101572168Y-139923688D01*
X101448918Y-139626137D01*
X101269987Y-139358348D01*
X101042252Y-139130613D01*
X100774463Y-138951682D01*
X100476912Y-138828432D01*
X100161033Y-138765600D01*
X99838967Y-138765600D01*
X99523088Y-138828432D01*
X99225537Y-138951682D01*
X98957748Y-139130613D01*
X98730013Y-139358348D01*
X98551082Y-139626137D01*
X98427832Y-139923688D01*
X98365000Y-140239567D01*
X96335000Y-140239567D01*
X96335000Y-140238967D01*
X96272168Y-139923088D01*
X96148918Y-139625537D01*
X95969987Y-139357748D01*
X95742252Y-139130013D01*
X95474463Y-138951082D01*
X95176912Y-138827832D01*
X94861033Y-138765000D01*
X94538967Y-138765000D01*
X94223088Y-138827832D01*
X93925537Y-138951082D01*
X93657748Y-139130013D01*
X93430013Y-139357748D01*
X93251082Y-139625537D01*
X93127832Y-139923088D01*
X93065000Y-140238967D01*
X89472696Y-140238967D01*
X89355999Y-139861981D01*
X89330166Y-139800526D01*
X89305228Y-139738803D01*
X89300411Y-139729742D01*
X89008010Y-139188958D01*
X88970733Y-139133694D01*
X88934281Y-139077989D01*
X88927796Y-139070036D01*
X88535925Y-138596346D01*
X88488654Y-138549403D01*
X88442046Y-138501809D01*
X88434145Y-138495273D01*
X88434140Y-138495268D01*
X88434135Y-138495264D01*
X87957724Y-138106713D01*
X87902200Y-138069823D01*
X87847272Y-138032213D01*
X87838248Y-138027333D01*
X87838240Y-138027329D01*
X87295434Y-137738714D01*
X87233828Y-137713321D01*
X87172614Y-137687085D01*
X87162811Y-137684050D01*
X86574276Y-137506361D01*
X86508895Y-137493415D01*
X86443767Y-137479572D01*
X86433563Y-137478499D01*
X86433561Y-137478499D01*
X85821723Y-137418508D01*
X85786105Y-137415000D01*
X83535725Y-137415000D01*
X83487690Y-137410276D01*
X83476214Y-137406798D01*
X83465611Y-137401133D01*
X83456412Y-137393585D01*
X83448866Y-137384389D01*
X83443201Y-137373787D01*
X83439723Y-137362308D01*
X83435000Y-137314284D01*
X83435000Y-135438967D01*
X93065000Y-135438967D01*
X93065000Y-135761033D01*
X93127832Y-136076912D01*
X93251082Y-136374463D01*
X93430013Y-136642252D01*
X93657748Y-136869987D01*
X93925537Y-137048918D01*
X94223088Y-137172168D01*
X94538967Y-137235000D01*
X94861033Y-137235000D01*
X95176912Y-137172168D01*
X95474463Y-137048918D01*
X95742252Y-136869987D01*
X95969987Y-136642252D01*
X96148918Y-136374463D01*
X96272168Y-136076912D01*
X96335000Y-135761033D01*
X96335000Y-135438967D01*
X96272168Y-135123088D01*
X96148918Y-134825537D01*
X95969987Y-134557748D01*
X95742252Y-134330013D01*
X95474463Y-134151082D01*
X95176912Y-134027832D01*
X94861033Y-133965000D01*
X94538967Y-133965000D01*
X94223088Y-134027832D01*
X93925537Y-134151082D01*
X93657748Y-134330013D01*
X93430013Y-134557748D01*
X93251082Y-134825537D01*
X93127832Y-135123088D01*
X93065000Y-135438967D01*
X83435000Y-135438967D01*
X83435000Y-130638967D01*
X93065000Y-130638967D01*
X93065000Y-130961033D01*
X93127832Y-131276912D01*
X93251082Y-131574463D01*
X93430013Y-131842252D01*
X93657748Y-132069987D01*
X93925537Y-132248918D01*
X94223088Y-132372168D01*
X94538967Y-132435000D01*
X94861033Y-132435000D01*
X95176912Y-132372168D01*
X95474463Y-132248918D01*
X95742252Y-132069987D01*
X95969987Y-131842252D01*
X96148918Y-131574463D01*
X96272168Y-131276912D01*
X96335000Y-130961033D01*
X96335000Y-130638967D01*
X96334881Y-130638367D01*
X98365000Y-130638367D01*
X98365000Y-130960433D01*
X98427832Y-131276312D01*
X98551082Y-131573863D01*
X98730013Y-131841652D01*
X98957748Y-132069387D01*
X99225537Y-132248318D01*
X99523088Y-132371568D01*
X99838967Y-132434400D01*
X100161033Y-132434400D01*
X100476912Y-132371568D01*
X100774463Y-132248318D01*
X101042252Y-132069387D01*
X101269987Y-131841652D01*
X101448918Y-131573863D01*
X101572168Y-131276312D01*
X101635000Y-130960433D01*
X101635000Y-130638367D01*
X101572168Y-130322488D01*
X101448918Y-130024937D01*
X101269987Y-129757148D01*
X101042252Y-129529413D01*
X100774463Y-129350482D01*
X100476912Y-129227232D01*
X100161033Y-129164400D01*
X99838967Y-129164400D01*
X99523088Y-129227232D01*
X99225537Y-129350482D01*
X98957748Y-129529413D01*
X98730013Y-129757148D01*
X98551082Y-130024937D01*
X98427832Y-130322488D01*
X98365000Y-130638367D01*
X96334881Y-130638367D01*
X96272168Y-130323088D01*
X96148918Y-130025537D01*
X95969987Y-129757748D01*
X95742252Y-129530013D01*
X95474463Y-129351082D01*
X95176912Y-129227832D01*
X94861033Y-129165000D01*
X94538967Y-129165000D01*
X94223088Y-129227832D01*
X93925537Y-129351082D01*
X93657748Y-129530013D01*
X93430013Y-129757748D01*
X93251082Y-130025537D01*
X93127832Y-130323088D01*
X93065000Y-130638967D01*
X83435000Y-130638967D01*
X83435000Y-124777980D01*
X86801626Y-124777980D01*
X86921514Y-125062836D01*
X87245210Y-125223699D01*
X87594069Y-125318322D01*
X87954684Y-125343067D01*
X88313198Y-125296985D01*
X88655833Y-125181846D01*
X88878486Y-125062836D01*
X88998374Y-124777980D01*
X87900000Y-123679605D01*
X86801626Y-124777980D01*
X83435000Y-124777980D01*
X83435000Y-123554684D01*
X86056933Y-123554684D01*
X86103015Y-123913198D01*
X86218154Y-124255833D01*
X86337164Y-124478486D01*
X86622020Y-124598374D01*
X87720395Y-123500000D01*
X88079605Y-123500000D01*
X89177980Y-124598374D01*
X89462836Y-124478486D01*
X89623699Y-124154790D01*
X89718322Y-123805931D01*
X89743067Y-123445316D01*
X89726866Y-123319268D01*
X98765000Y-123319268D01*
X98765000Y-123680732D01*
X98835518Y-124035250D01*
X98973844Y-124369199D01*
X99174662Y-124669744D01*
X99430256Y-124925338D01*
X99730801Y-125126156D01*
X100064750Y-125264482D01*
X100419268Y-125335000D01*
X100780732Y-125335000D01*
X101135250Y-125264482D01*
X101469199Y-125126156D01*
X101769744Y-124925338D01*
X102025338Y-124669744D01*
X102226156Y-124369199D01*
X102364482Y-124035250D01*
X102435000Y-123680732D01*
X102435000Y-123319268D01*
X102364482Y-122964750D01*
X102226156Y-122630801D01*
X102025338Y-122330256D01*
X101769744Y-122074662D01*
X101469199Y-121873844D01*
X101135250Y-121735518D01*
X100780732Y-121665000D01*
X100419268Y-121665000D01*
X100064750Y-121735518D01*
X99730801Y-121873844D01*
X99430256Y-122074662D01*
X99174662Y-122330256D01*
X98973844Y-122630801D01*
X98835518Y-122964750D01*
X98765000Y-123319268D01*
X89726866Y-123319268D01*
X89696985Y-123086802D01*
X89581846Y-122744167D01*
X89462836Y-122521514D01*
X89177980Y-122401626D01*
X88079605Y-123500000D01*
X87720395Y-123500000D01*
X86622020Y-122401626D01*
X86337164Y-122521514D01*
X86176301Y-122845210D01*
X86081678Y-123194069D01*
X86056933Y-123554684D01*
X83435000Y-123554684D01*
X83435000Y-122222020D01*
X86801626Y-122222020D01*
X87900000Y-123320395D01*
X88998374Y-122222020D01*
X88878486Y-121937164D01*
X88554790Y-121776301D01*
X88205931Y-121681678D01*
X87845316Y-121656933D01*
X87486802Y-121703015D01*
X87144167Y-121818154D01*
X86921514Y-121937164D01*
X86801626Y-122222020D01*
X83435000Y-122222020D01*
X83435000Y-113377980D01*
X86801626Y-113377980D01*
X86921514Y-113662836D01*
X87245210Y-113823699D01*
X87594069Y-113918322D01*
X87954684Y-113943067D01*
X88313198Y-113896985D01*
X88655833Y-113781846D01*
X88878486Y-113662836D01*
X88998374Y-113377980D01*
X99501626Y-113377980D01*
X99621514Y-113662836D01*
X99945210Y-113823699D01*
X100294069Y-113918322D01*
X100654684Y-113943067D01*
X101013198Y-113896985D01*
X101355833Y-113781846D01*
X101578486Y-113662836D01*
X101698374Y-113377980D01*
X100600000Y-112279605D01*
X99501626Y-113377980D01*
X88998374Y-113377980D01*
X87900000Y-112279605D01*
X86801626Y-113377980D01*
X83435000Y-113377980D01*
X83435000Y-112154684D01*
X86056933Y-112154684D01*
X86103015Y-112513198D01*
X86218154Y-112855833D01*
X86337164Y-113078486D01*
X86622020Y-113198374D01*
X87720395Y-112100000D01*
X88079605Y-112100000D01*
X89177980Y-113198374D01*
X89462836Y-113078486D01*
X89623699Y-112754790D01*
X89718322Y-112405931D01*
X89735562Y-112154684D01*
X98756933Y-112154684D01*
X98803015Y-112513198D01*
X98918154Y-112855833D01*
X99037164Y-113078486D01*
X99322020Y-113198374D01*
X100420395Y-112100000D01*
X100779605Y-112100000D01*
X101877980Y-113198374D01*
X102162836Y-113078486D01*
X102323699Y-112754790D01*
X102418322Y-112405931D01*
X102443067Y-112045316D01*
X102396985Y-111686802D01*
X102281846Y-111344167D01*
X102162836Y-111121514D01*
X101877980Y-111001626D01*
X100779605Y-112100000D01*
X100420395Y-112100000D01*
X99322020Y-111001626D01*
X99037164Y-111121514D01*
X98876301Y-111445210D01*
X98781678Y-111794069D01*
X98756933Y-112154684D01*
X89735562Y-112154684D01*
X89743067Y-112045316D01*
X89696985Y-111686802D01*
X89581846Y-111344167D01*
X89462836Y-111121514D01*
X89177980Y-111001626D01*
X88079605Y-112100000D01*
X87720395Y-112100000D01*
X86622020Y-111001626D01*
X86337164Y-111121514D01*
X86176301Y-111445210D01*
X86081678Y-111794069D01*
X86056933Y-112154684D01*
X83435000Y-112154684D01*
X83435000Y-110822020D01*
X86801626Y-110822020D01*
X87900000Y-111920395D01*
X88998374Y-110822020D01*
X99501626Y-110822020D01*
X100600000Y-111920395D01*
X101698374Y-110822020D01*
X101578486Y-110537164D01*
X101254790Y-110376301D01*
X100905931Y-110281678D01*
X100545316Y-110256933D01*
X100186802Y-110303015D01*
X99844167Y-110418154D01*
X99621514Y-110537164D01*
X99501626Y-110822020D01*
X88998374Y-110822020D01*
X88878486Y-110537164D01*
X88554790Y-110376301D01*
X88205931Y-110281678D01*
X87845316Y-110256933D01*
X87486802Y-110303015D01*
X87144167Y-110418154D01*
X86921514Y-110537164D01*
X86801626Y-110822020D01*
X83435000Y-110822020D01*
X83435000Y-98700000D01*
X85461928Y-98700000D01*
X85465000Y-99014250D01*
X85623750Y-99173000D01*
X86673000Y-99173000D01*
X86673000Y-98223750D01*
X86514250Y-98065000D01*
X86100000Y-98061928D01*
X85975518Y-98074188D01*
X85855820Y-98110498D01*
X85745506Y-98169463D01*
X85648815Y-98248815D01*
X85569463Y-98345506D01*
X85510498Y-98455820D01*
X85474188Y-98575518D01*
X85461928Y-98700000D01*
X83435000Y-98700000D01*
X83435000Y-96250000D01*
X83686928Y-96250000D01*
X83699188Y-96374482D01*
X83735498Y-96494180D01*
X83794463Y-96604494D01*
X83873815Y-96701185D01*
X83970506Y-96780537D01*
X84080820Y-96839502D01*
X84200518Y-96875812D01*
X84325000Y-96888072D01*
X84639250Y-96885000D01*
X84798000Y-96726250D01*
X84798000Y-95677000D01*
X83848750Y-95677000D01*
X83690000Y-95835750D01*
X83686928Y-96250000D01*
X83435000Y-96250000D01*
X83435000Y-94850000D01*
X83686928Y-94850000D01*
X83690000Y-95264250D01*
X83848750Y-95423000D01*
X84798000Y-95423000D01*
X84798000Y-94373750D01*
X84639250Y-94215000D01*
X84325000Y-94211928D01*
X84200518Y-94224188D01*
X84080820Y-94260498D01*
X83970506Y-94319463D01*
X83873815Y-94398815D01*
X83794463Y-94495506D01*
X83735498Y-94605820D01*
X83699188Y-94725518D01*
X83686928Y-94850000D01*
X83435000Y-94850000D01*
X83434999Y-92795392D01*
X83435149Y-92795472D01*
X83601745Y-92846008D01*
X83774999Y-92863072D01*
X84675001Y-92863072D01*
X84848255Y-92846008D01*
X84983441Y-92805000D01*
X85379590Y-92805000D01*
X85385150Y-92807972D01*
X85551746Y-92858508D01*
X85725000Y-92875572D01*
X86675000Y-92875572D01*
X86848254Y-92858508D01*
X87014850Y-92807972D01*
X87020410Y-92805000D01*
X87436928Y-92805000D01*
X87436928Y-93440000D01*
X87449188Y-93564482D01*
X87485498Y-93684180D01*
X87544463Y-93794494D01*
X87623815Y-93891185D01*
X87720506Y-93970537D01*
X87765001Y-93994320D01*
X87765000Y-94359785D01*
X87614851Y-94279528D01*
X87448255Y-94228992D01*
X87275001Y-94211928D01*
X86574999Y-94211928D01*
X86401745Y-94228992D01*
X86235149Y-94279528D01*
X86081613Y-94361595D01*
X86000363Y-94428276D01*
X85976185Y-94398815D01*
X85879494Y-94319463D01*
X85769180Y-94260498D01*
X85649482Y-94224188D01*
X85525000Y-94211928D01*
X85210750Y-94215000D01*
X85052000Y-94373750D01*
X85052000Y-95423000D01*
X85072000Y-95423000D01*
X85072000Y-95677000D01*
X85052000Y-95677000D01*
X85052000Y-96726250D01*
X85210750Y-96885000D01*
X85525000Y-96888072D01*
X85649482Y-96875812D01*
X85769180Y-96839502D01*
X85879494Y-96780537D01*
X85976185Y-96701185D01*
X86000363Y-96671724D01*
X86081613Y-96738405D01*
X86235149Y-96820472D01*
X86401745Y-96871008D01*
X86574999Y-96888072D01*
X87275001Y-96888072D01*
X87448255Y-96871008D01*
X87481547Y-96860909D01*
X87453992Y-96951745D01*
X87436928Y-97124999D01*
X87436928Y-97825001D01*
X87453992Y-97998255D01*
X87473367Y-98062126D01*
X87085750Y-98065000D01*
X86927000Y-98223750D01*
X86927000Y-99173000D01*
X86947000Y-99173000D01*
X86947000Y-99427000D01*
X86927000Y-99427000D01*
X86927000Y-99447000D01*
X86673000Y-99447000D01*
X86673000Y-99427000D01*
X85623750Y-99427000D01*
X85465000Y-99585750D01*
X85461928Y-99900000D01*
X85474188Y-100024482D01*
X85510498Y-100144180D01*
X85569463Y-100254494D01*
X85648815Y-100351185D01*
X85678276Y-100375363D01*
X85611595Y-100456613D01*
X85529528Y-100610149D01*
X85478992Y-100776745D01*
X85461928Y-100949999D01*
X85461928Y-101650001D01*
X85478992Y-101823255D01*
X85529528Y-101989851D01*
X85611595Y-102143387D01*
X85722038Y-102277962D01*
X85856613Y-102388405D01*
X86010149Y-102470472D01*
X86176745Y-102521008D01*
X86349999Y-102538072D01*
X87250001Y-102538072D01*
X87423255Y-102521008D01*
X87589851Y-102470472D01*
X87656214Y-102435000D01*
X87917173Y-102435000D01*
X87960150Y-102457972D01*
X88126746Y-102508508D01*
X88300000Y-102525572D01*
X88317375Y-102525572D01*
X88295000Y-102638061D01*
X88295000Y-102745299D01*
X88173401Y-102721111D01*
X87731343Y-102721111D01*
X87297780Y-102807353D01*
X86889372Y-102976521D01*
X86521815Y-103222114D01*
X86209233Y-103534696D01*
X85963640Y-103902253D01*
X85794472Y-104310661D01*
X85708230Y-104744224D01*
X85708230Y-105186282D01*
X85794472Y-105619845D01*
X85963640Y-106028253D01*
X86209233Y-106395810D01*
X86521815Y-106708392D01*
X86889372Y-106953985D01*
X87297780Y-107123153D01*
X87731343Y-107209395D01*
X88173401Y-107209395D01*
X88606964Y-107123153D01*
X89015372Y-106953985D01*
X89382929Y-106708392D01*
X89695511Y-106395810D01*
X89941104Y-106028253D01*
X90110272Y-105619845D01*
X90196514Y-105186282D01*
X90196514Y-104750000D01*
X97111928Y-104750000D01*
X97111928Y-106750000D01*
X97124188Y-106874482D01*
X97160498Y-106994180D01*
X97219463Y-107104494D01*
X97298815Y-107201185D01*
X97395506Y-107280537D01*
X97505820Y-107339502D01*
X97625518Y-107375812D01*
X97750000Y-107388072D01*
X99750000Y-107388072D01*
X99874482Y-107375812D01*
X99994180Y-107339502D01*
X100104494Y-107280537D01*
X100201185Y-107201185D01*
X100280537Y-107104494D01*
X100305191Y-107058370D01*
X100515537Y-107198918D01*
X100813088Y-107322168D01*
X101128967Y-107385000D01*
X101451033Y-107385000D01*
X101766912Y-107322168D01*
X102064463Y-107198918D01*
X102332252Y-107019987D01*
X102342239Y-107010000D01*
X103206333Y-107010000D01*
X103179528Y-107060149D01*
X103128992Y-107226745D01*
X103111928Y-107399999D01*
X103111928Y-108100001D01*
X103128992Y-108273255D01*
X103179528Y-108439851D01*
X103261595Y-108593387D01*
X103372038Y-108727962D01*
X103440001Y-108783738D01*
X103440001Y-108822372D01*
X103415000Y-108948061D01*
X103415000Y-109151939D01*
X103454774Y-109351898D01*
X103532795Y-109540256D01*
X103646063Y-109709774D01*
X103790226Y-109853937D01*
X103959744Y-109967205D01*
X104148102Y-110045226D01*
X104348061Y-110085000D01*
X104551939Y-110085000D01*
X104751898Y-110045226D01*
X104940256Y-109967205D01*
X105109774Y-109853937D01*
X105253937Y-109709774D01*
X105367205Y-109540256D01*
X105445226Y-109351898D01*
X105485000Y-109151939D01*
X105485000Y-108948061D01*
X105460000Y-108822377D01*
X105460000Y-108783737D01*
X105527962Y-108727962D01*
X105638405Y-108593387D01*
X105720472Y-108439851D01*
X105771008Y-108273255D01*
X105788072Y-108100001D01*
X105788072Y-107399999D01*
X105771008Y-107226745D01*
X105720472Y-107060149D01*
X105638405Y-106906613D01*
X105527962Y-106772038D01*
X105501109Y-106750000D01*
X105527962Y-106727962D01*
X105638405Y-106593387D01*
X105720472Y-106439851D01*
X105771008Y-106273255D01*
X105788072Y-106100001D01*
X105788072Y-105399999D01*
X105771008Y-105226745D01*
X105720472Y-105060149D01*
X105638405Y-104906613D01*
X105527962Y-104772038D01*
X105494071Y-104744224D01*
X110203485Y-104744224D01*
X110203485Y-105186282D01*
X110289727Y-105619845D01*
X110458895Y-106028253D01*
X110704488Y-106395810D01*
X111017070Y-106708392D01*
X111384627Y-106953985D01*
X111793035Y-107123153D01*
X112226598Y-107209395D01*
X112668656Y-107209395D01*
X113102219Y-107123153D01*
X113510627Y-106953985D01*
X113878184Y-106708392D01*
X114190766Y-106395810D01*
X114436359Y-106028253D01*
X114605527Y-105619845D01*
X114691769Y-105186282D01*
X114691769Y-104744224D01*
X114605527Y-104310661D01*
X114436359Y-103902253D01*
X114190766Y-103534696D01*
X113878184Y-103222114D01*
X113510627Y-102976521D01*
X113102219Y-102807353D01*
X112668656Y-102721111D01*
X112226598Y-102721111D01*
X111793035Y-102807353D01*
X111384627Y-102976521D01*
X111017070Y-103222114D01*
X110704488Y-103534696D01*
X110458895Y-103902253D01*
X110289727Y-104310661D01*
X110203485Y-104744224D01*
X105494071Y-104744224D01*
X105393387Y-104661595D01*
X105239851Y-104579528D01*
X105073255Y-104528992D01*
X104900001Y-104511928D01*
X104709187Y-104511928D01*
X104697003Y-104508232D01*
X104511893Y-104490000D01*
X102342239Y-104490000D01*
X102332252Y-104480013D01*
X102064463Y-104301082D01*
X101766912Y-104177832D01*
X101451033Y-104115000D01*
X101128967Y-104115000D01*
X100813088Y-104177832D01*
X100515537Y-104301082D01*
X100305191Y-104441630D01*
X100280537Y-104395506D01*
X100201185Y-104298815D01*
X100104494Y-104219463D01*
X99994180Y-104160498D01*
X99874482Y-104124188D01*
X99750000Y-104111928D01*
X97750000Y-104111928D01*
X97625518Y-104124188D01*
X97505820Y-104160498D01*
X97395506Y-104219463D01*
X97298815Y-104298815D01*
X97219463Y-104395506D01*
X97160498Y-104505820D01*
X97124188Y-104625518D01*
X97111928Y-104750000D01*
X90196514Y-104750000D01*
X90196514Y-104744224D01*
X90110272Y-104310661D01*
X89941104Y-103902253D01*
X89786665Y-103671119D01*
X89820256Y-103657205D01*
X89989774Y-103543937D01*
X90133937Y-103399774D01*
X90247205Y-103230256D01*
X90325226Y-103041898D01*
X90365000Y-102841939D01*
X90365000Y-102638061D01*
X90340000Y-102512377D01*
X90340000Y-102222500D01*
X100846928Y-102222500D01*
X100859188Y-102346982D01*
X100895498Y-102466680D01*
X100954463Y-102576994D01*
X101033815Y-102673685D01*
X101130506Y-102753037D01*
X101240820Y-102812002D01*
X101360518Y-102848312D01*
X101485000Y-102860572D01*
X101924250Y-102857500D01*
X102083000Y-102698750D01*
X102083000Y-101762000D01*
X101008750Y-101762000D01*
X100850000Y-101920750D01*
X100846928Y-102222500D01*
X90340000Y-102222500D01*
X90340000Y-101904608D01*
X90344886Y-101855000D01*
X90325385Y-101657005D01*
X90267632Y-101466620D01*
X90173847Y-101291160D01*
X90138072Y-101247568D01*
X90138072Y-100962500D01*
X90121008Y-100789246D01*
X90070472Y-100622650D01*
X89988405Y-100469114D01*
X89877962Y-100334538D01*
X89790183Y-100262500D01*
X89877962Y-100190462D01*
X89988405Y-100055886D01*
X90070472Y-99902350D01*
X90121008Y-99735754D01*
X90138072Y-99562500D01*
X90138072Y-99319268D01*
X97565000Y-99319268D01*
X97565000Y-99680732D01*
X97635518Y-100035250D01*
X97773844Y-100369199D01*
X97974662Y-100669744D01*
X98230256Y-100925338D01*
X98530801Y-101126156D01*
X98864750Y-101264482D01*
X99219268Y-101335000D01*
X99580732Y-101335000D01*
X99935250Y-101264482D01*
X100269199Y-101126156D01*
X100569744Y-100925338D01*
X100825338Y-100669744D01*
X101004902Y-100401008D01*
X101107038Y-100525462D01*
X101113594Y-100530842D01*
X101033815Y-100596315D01*
X100954463Y-100693006D01*
X100895498Y-100803320D01*
X100859188Y-100923018D01*
X100846928Y-101047500D01*
X100850000Y-101349250D01*
X101008750Y-101508000D01*
X102083000Y-101508000D01*
X102083000Y-101488000D01*
X102337000Y-101488000D01*
X102337000Y-101508000D01*
X102357000Y-101508000D01*
X102357000Y-101762000D01*
X102337000Y-101762000D01*
X102337000Y-102698750D01*
X102495750Y-102857500D01*
X102935000Y-102860572D01*
X103059482Y-102848312D01*
X103135000Y-102825404D01*
X103135000Y-103021939D01*
X103174774Y-103221898D01*
X103252795Y-103410256D01*
X103366063Y-103579774D01*
X103510226Y-103723937D01*
X103679744Y-103837205D01*
X103868102Y-103915226D01*
X104068061Y-103955000D01*
X104271939Y-103955000D01*
X104471898Y-103915226D01*
X104660256Y-103837205D01*
X104829774Y-103723937D01*
X104973937Y-103579774D01*
X105087205Y-103410256D01*
X105165226Y-103221898D01*
X105205000Y-103021939D01*
X105205000Y-102818061D01*
X105190000Y-102742650D01*
X105190000Y-102633737D01*
X105257962Y-102577962D01*
X105368405Y-102443387D01*
X105450472Y-102289851D01*
X105501008Y-102123255D01*
X105518072Y-101950001D01*
X105518072Y-101249999D01*
X105501008Y-101076745D01*
X105450472Y-100910149D01*
X105368405Y-100756613D01*
X105257962Y-100622038D01*
X105231109Y-100600000D01*
X105257962Y-100577962D01*
X105368405Y-100443387D01*
X105450472Y-100289851D01*
X105501008Y-100123255D01*
X105518072Y-99950001D01*
X105518072Y-99249999D01*
X105501008Y-99076745D01*
X105483210Y-99018072D01*
X105750001Y-99018072D01*
X105923255Y-99001008D01*
X106089851Y-98950472D01*
X106243387Y-98868405D01*
X106377962Y-98757962D01*
X106488405Y-98623387D01*
X106519614Y-98565000D01*
X109036643Y-98565000D01*
X109117038Y-98662962D01*
X109251614Y-98773405D01*
X109405150Y-98855472D01*
X109571746Y-98906008D01*
X109745000Y-98923072D01*
X110352782Y-98923072D01*
X110335518Y-98964750D01*
X110265000Y-99319268D01*
X110265000Y-99680732D01*
X110335518Y-100035250D01*
X110473844Y-100369199D01*
X110674662Y-100669744D01*
X110930256Y-100925338D01*
X111230801Y-101126156D01*
X111564750Y-101264482D01*
X111919268Y-101335000D01*
X112280732Y-101335000D01*
X112635250Y-101264482D01*
X112969199Y-101126156D01*
X113269744Y-100925338D01*
X113525338Y-100669744D01*
X113726156Y-100369199D01*
X113864482Y-100035250D01*
X113935000Y-99680732D01*
X113935000Y-99319268D01*
X113864482Y-98964750D01*
X113726156Y-98630801D01*
X113525338Y-98330256D01*
X113269744Y-98074662D01*
X112969199Y-97873844D01*
X112728738Y-97774242D01*
X112765000Y-97591939D01*
X112765000Y-97388061D01*
X112725226Y-97188102D01*
X112647205Y-96999744D01*
X112533937Y-96830226D01*
X112389774Y-96686063D01*
X112220256Y-96572795D01*
X112031898Y-96494774D01*
X111831939Y-96455000D01*
X111628061Y-96455000D01*
X111428102Y-96494774D01*
X111384677Y-96512761D01*
X111433405Y-96453386D01*
X111515472Y-96299850D01*
X111566008Y-96133254D01*
X111583072Y-95960000D01*
X111583072Y-95285000D01*
X111566008Y-95111746D01*
X111515472Y-94945150D01*
X111433405Y-94791614D01*
X111322962Y-94657038D01*
X111188386Y-94546595D01*
X111034850Y-94464528D01*
X110868254Y-94413992D01*
X110695000Y-94396928D01*
X110444650Y-94396928D01*
X111305044Y-93536535D01*
X111361898Y-93525226D01*
X111550256Y-93447205D01*
X111719774Y-93333937D01*
X111863937Y-93189774D01*
X111977205Y-93020256D01*
X112055226Y-92831898D01*
X112095000Y-92631939D01*
X112095000Y-92428061D01*
X112055226Y-92228102D01*
X111977205Y-92039744D01*
X111863937Y-91870226D01*
X111719774Y-91726063D01*
X111550256Y-91612795D01*
X111361898Y-91534774D01*
X111161939Y-91495000D01*
X110958061Y-91495000D01*
X110758102Y-91534774D01*
X110569744Y-91612795D01*
X110400226Y-91726063D01*
X110256063Y-91870226D01*
X110142795Y-92039744D01*
X110064774Y-92228102D01*
X110053465Y-92284956D01*
X109093750Y-93244672D01*
X108832201Y-92983122D01*
X108871898Y-92975226D01*
X109060256Y-92897205D01*
X109229774Y-92783937D01*
X109373937Y-92639774D01*
X109487205Y-92470256D01*
X109565226Y-92281898D01*
X109605000Y-92081939D01*
X109605000Y-91878061D01*
X109565226Y-91678102D01*
X109487205Y-91489744D01*
X109373937Y-91320226D01*
X109229774Y-91176063D01*
X109060256Y-91062795D01*
X108871898Y-90984774D01*
X108671939Y-90945000D01*
X108468061Y-90945000D01*
X108268102Y-90984774D01*
X108079744Y-91062795D01*
X108031546Y-91095000D01*
X107831954Y-91095000D01*
X107750000Y-91086928D01*
X106423877Y-91086928D01*
X106376185Y-91028815D01*
X106279494Y-90949463D01*
X106169180Y-90890498D01*
X106049482Y-90854188D01*
X105925000Y-90841928D01*
X102975000Y-90841928D01*
X102850518Y-90854188D01*
X102730820Y-90890498D01*
X102620506Y-90949463D01*
X102523815Y-91028815D01*
X102476123Y-91086928D01*
X101150000Y-91086928D01*
X100996255Y-91102071D01*
X100848418Y-91146916D01*
X100712171Y-91219742D01*
X100592749Y-91317749D01*
X100494742Y-91437171D01*
X100421916Y-91573418D01*
X100377071Y-91721255D01*
X100370000Y-91793046D01*
X100370000Y-91612623D01*
X100395000Y-91486939D01*
X100395000Y-91283061D01*
X100355226Y-91083102D01*
X100277205Y-90894744D01*
X100163937Y-90725226D01*
X100019774Y-90581063D01*
X99850256Y-90467795D01*
X99661898Y-90389774D01*
X99461939Y-90350000D01*
X99258061Y-90350000D01*
X99058102Y-90389774D01*
X98869744Y-90467795D01*
X98700226Y-90581063D01*
X98556063Y-90725226D01*
X98442795Y-90894744D01*
X98364774Y-91083102D01*
X98325000Y-91283061D01*
X98325000Y-91486939D01*
X98350000Y-91612624D01*
X98350000Y-92192676D01*
X98302038Y-92232038D01*
X98191595Y-92366613D01*
X98109528Y-92520149D01*
X98058992Y-92686745D01*
X98041928Y-92859999D01*
X98041928Y-93560001D01*
X98058992Y-93733255D01*
X98109528Y-93899851D01*
X98191595Y-94053387D01*
X98302038Y-94187962D01*
X98328891Y-94210000D01*
X98302038Y-94232038D01*
X98191595Y-94366613D01*
X98109528Y-94520149D01*
X98058992Y-94686745D01*
X98041928Y-94859999D01*
X98041928Y-95560001D01*
X98058992Y-95733255D01*
X98109528Y-95899851D01*
X98191595Y-96053387D01*
X98290000Y-96173294D01*
X98290000Y-96412376D01*
X98265000Y-96538061D01*
X98265000Y-96741939D01*
X98304774Y-96941898D01*
X98382795Y-97130256D01*
X98496063Y-97299774D01*
X98640226Y-97443937D01*
X98809744Y-97557205D01*
X98998102Y-97635226D01*
X99183528Y-97672109D01*
X98864750Y-97735518D01*
X98530801Y-97873844D01*
X98230256Y-98074662D01*
X97974662Y-98330256D01*
X97773844Y-98630801D01*
X97635518Y-98964750D01*
X97565000Y-99319268D01*
X90138072Y-99319268D01*
X90138072Y-98887500D01*
X90121008Y-98714246D01*
X90070472Y-98547650D01*
X89988405Y-98394114D01*
X89944831Y-98341019D01*
X89963405Y-98318387D01*
X90045472Y-98164851D01*
X90096008Y-97998255D01*
X90113072Y-97825001D01*
X90113072Y-97124999D01*
X90096008Y-96951745D01*
X90045472Y-96785149D01*
X89963405Y-96631613D01*
X89852962Y-96497038D01*
X89826109Y-96475000D01*
X89852962Y-96452962D01*
X89963405Y-96318387D01*
X90045472Y-96164851D01*
X90096008Y-95998255D01*
X90113072Y-95825001D01*
X90113072Y-95124999D01*
X90096008Y-94951745D01*
X90045472Y-94785149D01*
X89963405Y-94631613D01*
X89852962Y-94497038D01*
X89785000Y-94441263D01*
X89785000Y-94039870D01*
X89819180Y-94029502D01*
X89929494Y-93970537D01*
X90026185Y-93891185D01*
X90105537Y-93794494D01*
X90164502Y-93684180D01*
X90200812Y-93564482D01*
X90213072Y-93440000D01*
X90213072Y-92440000D01*
X90200812Y-92315518D01*
X90164502Y-92195820D01*
X90122703Y-92117621D01*
X90128676Y-92106447D01*
X90193577Y-91892499D01*
X90215491Y-91670000D01*
X90193577Y-91447501D01*
X90128676Y-91233553D01*
X90023284Y-91036377D01*
X90022154Y-91035000D01*
X90023284Y-91033623D01*
X90128676Y-90836447D01*
X90193577Y-90622499D01*
X90215491Y-90400000D01*
X90193577Y-90177501D01*
X90128676Y-89963553D01*
X90023284Y-89766377D01*
X89881449Y-89593551D01*
X89708623Y-89451716D01*
X89511447Y-89346324D01*
X89297499Y-89281423D01*
X89130752Y-89265000D01*
X88519248Y-89265000D01*
X88352501Y-89281423D01*
X88138553Y-89346324D01*
X87941377Y-89451716D01*
X87768551Y-89593551D01*
X87626716Y-89766377D01*
X87563072Y-89885447D01*
X87563072Y-89852731D01*
X87564960Y-89846507D01*
X87585000Y-89643037D01*
X87585000Y-85968685D01*
X88844764Y-84708922D01*
X88948411Y-84665990D01*
X89191632Y-84503475D01*
X89398475Y-84296632D01*
X89515000Y-84122240D01*
X89631525Y-84296632D01*
X89838368Y-84503475D01*
X90081589Y-84665990D01*
X90351842Y-84777932D01*
X90638740Y-84835000D01*
X90931260Y-84835000D01*
X91218158Y-84777932D01*
X91488411Y-84665990D01*
X91731632Y-84503475D01*
X91863487Y-84371620D01*
X91885498Y-84444180D01*
X91944463Y-84554494D01*
X92023815Y-84651185D01*
X92120506Y-84730537D01*
X92127499Y-84734275D01*
X92049528Y-84880149D01*
X91998992Y-85046745D01*
X91981928Y-85219999D01*
X91981928Y-85920001D01*
X91998992Y-86093255D01*
X92049528Y-86259851D01*
X92131595Y-86413387D01*
X92242038Y-86547962D01*
X92268891Y-86570000D01*
X92242038Y-86592038D01*
X92131595Y-86726613D01*
X92049528Y-86880149D01*
X91998992Y-87046745D01*
X91981928Y-87219999D01*
X91981928Y-87920001D01*
X91998992Y-88093255D01*
X92049528Y-88259851D01*
X92131595Y-88413387D01*
X92146065Y-88431019D01*
X92106595Y-88479114D01*
X92024528Y-88632650D01*
X91973992Y-88799246D01*
X91956928Y-88972500D01*
X91956928Y-89647500D01*
X91973992Y-89820754D01*
X92024528Y-89987350D01*
X92106595Y-90140886D01*
X92217038Y-90275462D01*
X92304817Y-90347500D01*
X92217038Y-90419538D01*
X92106595Y-90554114D01*
X92024528Y-90707650D01*
X91973992Y-90874246D01*
X91956928Y-91047500D01*
X91956928Y-91722500D01*
X91973992Y-91895754D01*
X92024528Y-92062350D01*
X92106595Y-92215886D01*
X92217038Y-92350462D01*
X92351614Y-92460905D01*
X92505150Y-92542972D01*
X92671746Y-92593508D01*
X92845000Y-92610572D01*
X93795000Y-92610572D01*
X93968254Y-92593508D01*
X94134850Y-92542972D01*
X94288386Y-92460905D01*
X94368692Y-92395000D01*
X94512377Y-92395000D01*
X94638061Y-92420000D01*
X94841939Y-92420000D01*
X95041898Y-92380226D01*
X95230256Y-92302205D01*
X95399774Y-92188937D01*
X95543937Y-92044774D01*
X95657205Y-91875256D01*
X95735226Y-91686898D01*
X95775000Y-91486939D01*
X95775000Y-91283061D01*
X95735226Y-91083102D01*
X95657205Y-90894744D01*
X95543937Y-90725226D01*
X95399774Y-90581063D01*
X95230256Y-90467795D01*
X95041898Y-90389774D01*
X94841939Y-90350000D01*
X94638061Y-90350000D01*
X94512377Y-90375000D01*
X94368692Y-90375000D01*
X94335183Y-90347500D01*
X94422962Y-90275462D01*
X94533405Y-90140886D01*
X94615472Y-89987350D01*
X94666008Y-89820754D01*
X94683072Y-89647500D01*
X94683072Y-88972500D01*
X94666008Y-88799246D01*
X94615472Y-88632650D01*
X94533405Y-88479114D01*
X94493935Y-88431019D01*
X94508405Y-88413387D01*
X94590472Y-88259851D01*
X94641008Y-88093255D01*
X94658072Y-87920001D01*
X94658072Y-87919268D01*
X97565000Y-87919268D01*
X97565000Y-88280732D01*
X97635518Y-88635250D01*
X97773844Y-88969199D01*
X97974662Y-89269744D01*
X98230256Y-89525338D01*
X98530801Y-89726156D01*
X98864750Y-89864482D01*
X99219268Y-89935000D01*
X99580732Y-89935000D01*
X99935250Y-89864482D01*
X100269199Y-89726156D01*
X100569744Y-89525338D01*
X100717102Y-89377980D01*
X111001626Y-89377980D01*
X111121514Y-89662836D01*
X111445210Y-89823699D01*
X111794069Y-89918322D01*
X112154684Y-89943067D01*
X112513198Y-89896985D01*
X112855833Y-89781846D01*
X113078486Y-89662836D01*
X113198374Y-89377980D01*
X112100000Y-88279605D01*
X111001626Y-89377980D01*
X100717102Y-89377980D01*
X100825338Y-89269744D01*
X101026156Y-88969199D01*
X101164482Y-88635250D01*
X101235000Y-88280732D01*
X101235000Y-88154684D01*
X110256933Y-88154684D01*
X110303015Y-88513198D01*
X110418154Y-88855833D01*
X110537164Y-89078486D01*
X110822020Y-89198374D01*
X111920395Y-88100000D01*
X112279605Y-88100000D01*
X113377980Y-89198374D01*
X113662836Y-89078486D01*
X113823699Y-88754790D01*
X113918322Y-88405931D01*
X113943067Y-88045316D01*
X113896985Y-87686802D01*
X113781846Y-87344167D01*
X113662836Y-87121514D01*
X113377980Y-87001626D01*
X112279605Y-88100000D01*
X111920395Y-88100000D01*
X110822020Y-87001626D01*
X110537164Y-87121514D01*
X110376301Y-87445210D01*
X110281678Y-87794069D01*
X110256933Y-88154684D01*
X101235000Y-88154684D01*
X101235000Y-87919268D01*
X101164482Y-87564750D01*
X101026156Y-87230801D01*
X100825338Y-86930256D01*
X100717102Y-86822020D01*
X111001626Y-86822020D01*
X112100000Y-87920395D01*
X113198374Y-86822020D01*
X113078486Y-86537164D01*
X112754790Y-86376301D01*
X112405931Y-86281678D01*
X112045316Y-86256933D01*
X111686802Y-86303015D01*
X111344167Y-86418154D01*
X111121514Y-86537164D01*
X111001626Y-86822020D01*
X100717102Y-86822020D01*
X100569744Y-86674662D01*
X100269199Y-86473844D01*
X99935250Y-86335518D01*
X99580732Y-86265000D01*
X99219268Y-86265000D01*
X98864750Y-86335518D01*
X98530801Y-86473844D01*
X98230256Y-86674662D01*
X97974662Y-86930256D01*
X97773844Y-87230801D01*
X97635518Y-87564750D01*
X97565000Y-87919268D01*
X94658072Y-87919268D01*
X94658072Y-87219999D01*
X94641008Y-87046745D01*
X94590472Y-86880149D01*
X94508405Y-86726613D01*
X94397962Y-86592038D01*
X94371109Y-86570000D01*
X94397962Y-86547962D01*
X94508405Y-86413387D01*
X94590472Y-86259851D01*
X94641008Y-86093255D01*
X94658072Y-85920001D01*
X94658072Y-85219999D01*
X94641008Y-85046745D01*
X94590472Y-84880149D01*
X94514723Y-84738433D01*
X94529494Y-84730537D01*
X94626185Y-84651185D01*
X94705537Y-84554494D01*
X94764502Y-84444180D01*
X94800812Y-84324482D01*
X94813072Y-84200000D01*
X94813072Y-83453740D01*
X105135000Y-83453740D01*
X105135000Y-83746260D01*
X105192068Y-84033158D01*
X105304010Y-84303411D01*
X105466525Y-84546632D01*
X105673368Y-84753475D01*
X105916589Y-84915990D01*
X106186842Y-85027932D01*
X106473740Y-85085000D01*
X106766260Y-85085000D01*
X107053158Y-85027932D01*
X107323411Y-84915990D01*
X107566632Y-84753475D01*
X107773475Y-84546632D01*
X107890000Y-84372240D01*
X108006525Y-84546632D01*
X108213368Y-84753475D01*
X108456589Y-84915990D01*
X108726842Y-85027932D01*
X109013740Y-85085000D01*
X109306260Y-85085000D01*
X109593158Y-85027932D01*
X109863411Y-84915990D01*
X110106632Y-84753475D01*
X110238487Y-84621620D01*
X110260498Y-84694180D01*
X110319463Y-84804494D01*
X110398815Y-84901185D01*
X110495506Y-84980537D01*
X110605820Y-85039502D01*
X110725518Y-85075812D01*
X110850000Y-85088072D01*
X112550000Y-85088072D01*
X112674482Y-85075812D01*
X112794180Y-85039502D01*
X112896144Y-84985000D01*
X113656822Y-84985000D01*
X113628992Y-85076745D01*
X113611928Y-85249999D01*
X113611928Y-85950001D01*
X113628992Y-86123255D01*
X113679528Y-86289851D01*
X113761595Y-86443387D01*
X113872038Y-86577962D01*
X113940000Y-86633737D01*
X113940000Y-86682376D01*
X113915000Y-86808061D01*
X113915000Y-87011939D01*
X113954774Y-87211898D01*
X114032795Y-87400256D01*
X114146063Y-87569774D01*
X114290226Y-87713937D01*
X114459744Y-87827205D01*
X114648102Y-87905226D01*
X114848061Y-87945000D01*
X115051939Y-87945000D01*
X115251898Y-87905226D01*
X115440256Y-87827205D01*
X115609774Y-87713937D01*
X115753937Y-87569774D01*
X115867205Y-87400256D01*
X115945226Y-87211898D01*
X115985000Y-87011939D01*
X115985000Y-86808061D01*
X115960000Y-86682377D01*
X115960000Y-86633737D01*
X116027962Y-86577962D01*
X116138405Y-86443387D01*
X116220472Y-86289851D01*
X116271008Y-86123255D01*
X116288072Y-85950001D01*
X116288072Y-85249999D01*
X116271008Y-85076745D01*
X116220472Y-84910149D01*
X116138405Y-84756613D01*
X116027962Y-84622038D01*
X116001109Y-84600000D01*
X116027962Y-84577962D01*
X116138405Y-84443387D01*
X116220472Y-84289851D01*
X116271008Y-84123255D01*
X116286593Y-83965022D01*
X116314960Y-83871507D01*
X116341701Y-83600000D01*
X116314960Y-83328493D01*
X116286593Y-83234978D01*
X116271008Y-83076745D01*
X116220472Y-82910149D01*
X116138405Y-82756613D01*
X116027962Y-82622038D01*
X115893387Y-82511595D01*
X115739851Y-82429528D01*
X115643723Y-82400368D01*
X115482581Y-82314236D01*
X115221507Y-82235040D01*
X115018037Y-82215000D01*
X112896144Y-82215000D01*
X112794180Y-82160498D01*
X112674482Y-82124188D01*
X112550000Y-82111928D01*
X110850000Y-82111928D01*
X110725518Y-82124188D01*
X110605820Y-82160498D01*
X110495506Y-82219463D01*
X110398815Y-82298815D01*
X110319463Y-82395506D01*
X110260498Y-82505820D01*
X110238487Y-82578380D01*
X110106632Y-82446525D01*
X109863411Y-82284010D01*
X109593158Y-82172068D01*
X109306260Y-82115000D01*
X109013740Y-82115000D01*
X108726842Y-82172068D01*
X108456589Y-82284010D01*
X108213368Y-82446525D01*
X108006525Y-82653368D01*
X107890000Y-82827760D01*
X107773475Y-82653368D01*
X107566632Y-82446525D01*
X107323411Y-82284010D01*
X107053158Y-82172068D01*
X106766260Y-82115000D01*
X106473740Y-82115000D01*
X106186842Y-82172068D01*
X105916589Y-82284010D01*
X105673368Y-82446525D01*
X105466525Y-82653368D01*
X105304010Y-82896589D01*
X105192068Y-83166842D01*
X105135000Y-83453740D01*
X94813072Y-83453740D01*
X94813072Y-82500000D01*
X94800812Y-82375518D01*
X94764502Y-82255820D01*
X94705537Y-82145506D01*
X94626185Y-82048815D01*
X94529494Y-81969463D01*
X94419180Y-81910498D01*
X94299482Y-81874188D01*
X94175000Y-81861928D01*
X92475000Y-81861928D01*
X92350518Y-81874188D01*
X92230820Y-81910498D01*
X92120506Y-81969463D01*
X92023815Y-82048815D01*
X91944463Y-82145506D01*
X91885498Y-82255820D01*
X91863487Y-82328380D01*
X91731632Y-82196525D01*
X91488411Y-82034010D01*
X91218158Y-81922068D01*
X91119316Y-81902407D01*
X89519990Y-80303082D01*
X89519990Y-79603740D01*
X95890000Y-79603740D01*
X95890000Y-79896260D01*
X95947068Y-80183158D01*
X96059010Y-80453411D01*
X96221525Y-80696632D01*
X96428368Y-80903475D01*
X96671589Y-81065990D01*
X96941842Y-81177932D01*
X97228740Y-81235000D01*
X97521260Y-81235000D01*
X97808158Y-81177932D01*
X98078411Y-81065990D01*
X98321632Y-80903475D01*
X98528475Y-80696632D01*
X98645000Y-80522240D01*
X98761525Y-80696632D01*
X98968368Y-80903475D01*
X99211589Y-81065990D01*
X99481842Y-81177932D01*
X99768740Y-81235000D01*
X100061260Y-81235000D01*
X100348158Y-81177932D01*
X100618411Y-81065990D01*
X100861632Y-80903475D01*
X100993487Y-80771620D01*
X101015498Y-80844180D01*
X101074463Y-80954494D01*
X101153815Y-81051185D01*
X101250506Y-81130537D01*
X101360820Y-81189502D01*
X101480518Y-81225812D01*
X101605000Y-81238072D01*
X103305000Y-81238072D01*
X103429482Y-81225812D01*
X103549180Y-81189502D01*
X103659494Y-81130537D01*
X103756185Y-81051185D01*
X103835537Y-80954494D01*
X103894502Y-80844180D01*
X103930812Y-80724482D01*
X103943072Y-80600000D01*
X103943072Y-79340000D01*
X110281928Y-79340000D01*
X110281928Y-80940000D01*
X110294188Y-81064482D01*
X110330498Y-81184180D01*
X110389463Y-81294494D01*
X110468815Y-81391185D01*
X110565506Y-81470537D01*
X110675820Y-81529502D01*
X110795518Y-81565812D01*
X110920000Y-81578072D01*
X112520000Y-81578072D01*
X112644482Y-81565812D01*
X112764180Y-81529502D01*
X112874494Y-81470537D01*
X112971185Y-81391185D01*
X113050537Y-81294494D01*
X113109502Y-81184180D01*
X113145812Y-81064482D01*
X113151295Y-81008807D01*
X113195363Y-81074759D01*
X113395241Y-81274637D01*
X113630273Y-81431680D01*
X113891426Y-81539853D01*
X114168665Y-81595000D01*
X114451335Y-81595000D01*
X114728574Y-81539853D01*
X114989727Y-81431680D01*
X115224759Y-81274637D01*
X115424637Y-81074759D01*
X115581680Y-80839727D01*
X115689853Y-80578574D01*
X115745000Y-80301335D01*
X115745000Y-80018665D01*
X115689853Y-79741426D01*
X115581680Y-79480273D01*
X115424637Y-79245241D01*
X115226039Y-79046643D01*
X115234482Y-79045812D01*
X115354180Y-79009502D01*
X115464494Y-78950537D01*
X115561185Y-78871185D01*
X115640537Y-78774494D01*
X115699502Y-78664180D01*
X115735812Y-78544482D01*
X115748072Y-78420000D01*
X115748072Y-76820000D01*
X115735812Y-76695518D01*
X115699502Y-76575820D01*
X115640537Y-76465506D01*
X115561185Y-76368815D01*
X115464494Y-76289463D01*
X115354180Y-76230498D01*
X115234482Y-76194188D01*
X115110000Y-76181928D01*
X113510000Y-76181928D01*
X113385518Y-76194188D01*
X113265820Y-76230498D01*
X113155506Y-76289463D01*
X113058815Y-76368815D01*
X112979463Y-76465506D01*
X112920498Y-76575820D01*
X112884188Y-76695518D01*
X112878705Y-76751193D01*
X112834637Y-76685241D01*
X112634759Y-76485363D01*
X112399727Y-76328320D01*
X112138574Y-76220147D01*
X111861335Y-76165000D01*
X111578665Y-76165000D01*
X111301426Y-76220147D01*
X111040273Y-76328320D01*
X110805241Y-76485363D01*
X110605363Y-76685241D01*
X110448320Y-76920273D01*
X110340147Y-77181426D01*
X110285000Y-77458665D01*
X110285000Y-77741335D01*
X110340147Y-78018574D01*
X110448320Y-78279727D01*
X110605363Y-78514759D01*
X110803961Y-78713357D01*
X110795518Y-78714188D01*
X110675820Y-78750498D01*
X110565506Y-78809463D01*
X110468815Y-78888815D01*
X110389463Y-78985506D01*
X110330498Y-79095820D01*
X110294188Y-79215518D01*
X110281928Y-79340000D01*
X103943072Y-79340000D01*
X103943072Y-78900000D01*
X103930812Y-78775518D01*
X103894502Y-78655820D01*
X103835537Y-78545506D01*
X103756185Y-78448815D01*
X103659494Y-78369463D01*
X103549180Y-78310498D01*
X103429482Y-78274188D01*
X103305000Y-78261928D01*
X101605000Y-78261928D01*
X101480518Y-78274188D01*
X101360820Y-78310498D01*
X101250506Y-78369463D01*
X101153815Y-78448815D01*
X101074463Y-78545506D01*
X101060000Y-78572564D01*
X101060000Y-77973858D01*
X101169114Y-78063405D01*
X101322650Y-78145472D01*
X101489246Y-78196008D01*
X101662500Y-78213072D01*
X102337500Y-78213072D01*
X102510754Y-78196008D01*
X102677350Y-78145472D01*
X102830886Y-78063405D01*
X102965462Y-77952962D01*
X103075905Y-77818386D01*
X103157972Y-77664850D01*
X103208508Y-77498254D01*
X103225572Y-77325000D01*
X103225572Y-76375000D01*
X103208508Y-76201746D01*
X103157972Y-76035150D01*
X103135000Y-75992173D01*
X103135000Y-75684443D01*
X103145472Y-75664851D01*
X103196008Y-75498255D01*
X103213072Y-75325001D01*
X103213072Y-74424999D01*
X103196008Y-74251745D01*
X103145472Y-74085149D01*
X103063405Y-73931613D01*
X102952962Y-73797038D01*
X102818387Y-73686595D01*
X102664851Y-73604528D01*
X102498255Y-73553992D01*
X102325001Y-73536928D01*
X101624999Y-73536928D01*
X101451745Y-73553992D01*
X101285149Y-73604528D01*
X101131613Y-73686595D01*
X101050363Y-73753276D01*
X101026185Y-73723815D01*
X100929494Y-73644463D01*
X100819180Y-73585498D01*
X100699482Y-73549188D01*
X100575000Y-73536928D01*
X100260750Y-73540000D01*
X100102000Y-73698750D01*
X100102000Y-74748000D01*
X100122000Y-74748000D01*
X100122000Y-75002000D01*
X100102000Y-75002000D01*
X100102000Y-75022000D01*
X99848000Y-75022000D01*
X99848000Y-75002000D01*
X98898750Y-75002000D01*
X98740000Y-75160750D01*
X98736928Y-75575000D01*
X98749188Y-75699482D01*
X98785498Y-75819180D01*
X98833983Y-75909887D01*
X98767028Y-76035150D01*
X98716492Y-76201746D01*
X98699428Y-76375000D01*
X98699428Y-77325000D01*
X98716492Y-77498254D01*
X98767028Y-77664850D01*
X98790000Y-77707828D01*
X98790001Y-78774892D01*
X98761525Y-78803368D01*
X98645000Y-78977760D01*
X98528475Y-78803368D01*
X98321632Y-78596525D01*
X98078411Y-78434010D01*
X97808158Y-78322068D01*
X97521260Y-78265000D01*
X97228740Y-78265000D01*
X96941842Y-78322068D01*
X96671589Y-78434010D01*
X96428368Y-78596525D01*
X96221525Y-78803368D01*
X96059010Y-79046589D01*
X95947068Y-79316842D01*
X95890000Y-79603740D01*
X89519990Y-79603740D01*
X89519990Y-76497530D01*
X89524250Y-76497500D01*
X89683000Y-76338750D01*
X89683000Y-75402000D01*
X89937000Y-75402000D01*
X89937000Y-76338750D01*
X90095750Y-76497500D01*
X90535000Y-76500572D01*
X90659482Y-76488312D01*
X90779180Y-76452002D01*
X90823547Y-76428287D01*
X90825820Y-76429502D01*
X90945518Y-76465812D01*
X91070000Y-76478072D01*
X91484250Y-76475000D01*
X91643000Y-76316250D01*
X91643000Y-75367000D01*
X91897000Y-75367000D01*
X91897000Y-76316250D01*
X92055750Y-76475000D01*
X92470000Y-76478072D01*
X92594482Y-76465812D01*
X92714180Y-76429502D01*
X92824494Y-76370537D01*
X92921185Y-76291185D01*
X93000537Y-76194494D01*
X93059502Y-76084180D01*
X93095812Y-75964482D01*
X93108072Y-75840000D01*
X93105000Y-75525750D01*
X92946250Y-75367000D01*
X91897000Y-75367000D01*
X91643000Y-75367000D01*
X90593750Y-75367000D01*
X90558750Y-75402000D01*
X89937000Y-75402000D01*
X89683000Y-75402000D01*
X89663000Y-75402000D01*
X89663000Y-75148000D01*
X89683000Y-75148000D01*
X89683000Y-75128000D01*
X89937000Y-75128000D01*
X89937000Y-75148000D01*
X91011250Y-75148000D01*
X91046250Y-75113000D01*
X91643000Y-75113000D01*
X91643000Y-75093000D01*
X91897000Y-75093000D01*
X91897000Y-75113000D01*
X92946250Y-75113000D01*
X93105000Y-74954250D01*
X93108072Y-74640000D01*
X93095812Y-74515518D01*
X93059502Y-74395820D01*
X93000537Y-74285506D01*
X92921185Y-74188815D01*
X92904352Y-74175000D01*
X98736928Y-74175000D01*
X98740000Y-74589250D01*
X98898750Y-74748000D01*
X99848000Y-74748000D01*
X99848000Y-73698750D01*
X99689250Y-73540000D01*
X99375000Y-73536928D01*
X99250518Y-73549188D01*
X99130820Y-73585498D01*
X99020506Y-73644463D01*
X98923815Y-73723815D01*
X98844463Y-73820506D01*
X98785498Y-73930820D01*
X98749188Y-74050518D01*
X98736928Y-74175000D01*
X92904352Y-74175000D01*
X92891724Y-74164637D01*
X92958405Y-74083387D01*
X93040472Y-73929851D01*
X93091008Y-73763255D01*
X93108072Y-73590001D01*
X93108072Y-72889999D01*
X93091332Y-72720038D01*
X93454250Y-72717500D01*
X93613000Y-72558750D01*
X93613000Y-71622000D01*
X93867000Y-71622000D01*
X93867000Y-72558750D01*
X94025750Y-72717500D01*
X94465000Y-72720572D01*
X94589482Y-72708312D01*
X94709180Y-72672002D01*
X94819494Y-72613037D01*
X94916185Y-72533685D01*
X94995537Y-72436994D01*
X95054502Y-72326680D01*
X95090812Y-72206982D01*
X95103072Y-72082500D01*
X95100000Y-71780750D01*
X94941250Y-71622000D01*
X93867000Y-71622000D01*
X93613000Y-71622000D01*
X92538750Y-71622000D01*
X92518750Y-71642000D01*
X91897000Y-71642000D01*
X91897000Y-71662000D01*
X91643000Y-71662000D01*
X91643000Y-71642000D01*
X91623000Y-71642000D01*
X91623000Y-71388000D01*
X91643000Y-71388000D01*
X91643000Y-71368000D01*
X91897000Y-71368000D01*
X91897000Y-71388000D01*
X92971250Y-71388000D01*
X92991250Y-71368000D01*
X93613000Y-71368000D01*
X93613000Y-71348000D01*
X93867000Y-71348000D01*
X93867000Y-71368000D01*
X94941250Y-71368000D01*
X95100000Y-71209250D01*
X95103072Y-70907500D01*
X95090812Y-70783018D01*
X95054502Y-70663320D01*
X94995537Y-70553006D01*
X94916185Y-70456315D01*
X94836406Y-70390842D01*
X94842962Y-70385462D01*
X94953405Y-70250886D01*
X95035472Y-70097350D01*
X95086008Y-69930754D01*
X95103072Y-69757500D01*
X95103072Y-69082500D01*
X95086008Y-68909246D01*
X95035472Y-68742650D01*
X94953405Y-68589114D01*
X94842962Y-68454538D01*
X94776507Y-68400000D01*
X98061928Y-68400000D01*
X98074188Y-68524482D01*
X98110498Y-68644180D01*
X98169463Y-68754494D01*
X98248815Y-68851185D01*
X98345506Y-68930537D01*
X98455820Y-68989502D01*
X98575518Y-69025812D01*
X98700000Y-69038072D01*
X99714250Y-69035000D01*
X99873000Y-68876250D01*
X99873000Y-67527000D01*
X100127000Y-67527000D01*
X100127000Y-68876250D01*
X100285750Y-69035000D01*
X101300000Y-69038072D01*
X101424482Y-69025812D01*
X101544180Y-68989502D01*
X101654494Y-68930537D01*
X101751185Y-68851185D01*
X101830537Y-68754494D01*
X101889502Y-68644180D01*
X101925812Y-68524482D01*
X101938072Y-68400000D01*
X101935000Y-67685750D01*
X101776250Y-67527000D01*
X100127000Y-67527000D01*
X99873000Y-67527000D01*
X98223750Y-67527000D01*
X98065000Y-67685750D01*
X98061928Y-68400000D01*
X94776507Y-68400000D01*
X94708386Y-68344095D01*
X94668222Y-68322627D01*
X94733519Y-68263414D01*
X94901037Y-68037420D01*
X95021246Y-67783087D01*
X95061904Y-67649039D01*
X94939915Y-67427000D01*
X93797000Y-67427000D01*
X93797000Y-67447000D01*
X93543000Y-67447000D01*
X93543000Y-67427000D01*
X93523000Y-67427000D01*
X93523000Y-67173000D01*
X93543000Y-67173000D01*
X93543000Y-66029376D01*
X93320960Y-65908091D01*
X93056119Y-66002930D01*
X92814869Y-66147615D01*
X92606481Y-66336586D01*
X92558370Y-66401491D01*
X92555812Y-66375518D01*
X92519502Y-66255820D01*
X92460537Y-66145506D01*
X92381185Y-66048815D01*
X92284494Y-65969463D01*
X92174180Y-65910498D01*
X92054482Y-65874188D01*
X91930000Y-65861928D01*
X90330000Y-65861928D01*
X90205518Y-65874188D01*
X90144831Y-65892597D01*
X90110272Y-65718860D01*
X90102460Y-65700000D01*
X93661928Y-65700000D01*
X93674188Y-65824482D01*
X93710498Y-65944180D01*
X93769463Y-66054494D01*
X93797000Y-66088048D01*
X93797000Y-67173000D01*
X94939915Y-67173000D01*
X95061904Y-66950961D01*
X95021246Y-66816913D01*
X94901037Y-66562580D01*
X94780525Y-66400000D01*
X98061928Y-66400000D01*
X98065000Y-67114250D01*
X98223750Y-67273000D01*
X99873000Y-67273000D01*
X99873000Y-65923750D01*
X100127000Y-65923750D01*
X100127000Y-67273000D01*
X101776250Y-67273000D01*
X101935000Y-67114250D01*
X101938072Y-66400000D01*
X101925812Y-66275518D01*
X101889502Y-66155820D01*
X101887687Y-66152423D01*
X110203485Y-66152423D01*
X110203485Y-66594481D01*
X110289727Y-67028044D01*
X110458895Y-67436452D01*
X110704488Y-67804009D01*
X111017070Y-68116591D01*
X111384627Y-68362184D01*
X111793035Y-68531352D01*
X112226598Y-68617594D01*
X112668656Y-68617594D01*
X113102219Y-68531352D01*
X113510627Y-68362184D01*
X113878184Y-68116591D01*
X114190766Y-67804009D01*
X114436359Y-67436452D01*
X114605527Y-67028044D01*
X114691769Y-66594481D01*
X114691769Y-66152423D01*
X114605527Y-65718860D01*
X114436359Y-65310452D01*
X114190766Y-64942895D01*
X113878184Y-64630313D01*
X113510627Y-64384720D01*
X113102219Y-64215552D01*
X112668656Y-64129310D01*
X112226598Y-64129310D01*
X111793035Y-64215552D01*
X111384627Y-64384720D01*
X111017070Y-64630313D01*
X110704488Y-64942895D01*
X110458895Y-65310452D01*
X110289727Y-65718860D01*
X110203485Y-66152423D01*
X101887687Y-66152423D01*
X101830537Y-66045506D01*
X101751185Y-65948815D01*
X101654494Y-65869463D01*
X101544180Y-65810498D01*
X101424482Y-65774188D01*
X101300000Y-65761928D01*
X100285750Y-65765000D01*
X100127000Y-65923750D01*
X99873000Y-65923750D01*
X99714250Y-65765000D01*
X98700000Y-65761928D01*
X98575518Y-65774188D01*
X98455820Y-65810498D01*
X98345506Y-65869463D01*
X98248815Y-65948815D01*
X98169463Y-66045506D01*
X98110498Y-66155820D01*
X98074188Y-66275518D01*
X98061928Y-66400000D01*
X94780525Y-66400000D01*
X94733519Y-66336586D01*
X94733104Y-66336209D01*
X95014250Y-66335000D01*
X95173000Y-66176250D01*
X95173000Y-64527000D01*
X95427000Y-64527000D01*
X95427000Y-66176250D01*
X95585750Y-66335000D01*
X96300000Y-66338072D01*
X96424482Y-66325812D01*
X96544180Y-66289502D01*
X96654494Y-66230537D01*
X96751185Y-66151185D01*
X96830537Y-66054494D01*
X96889502Y-65944180D01*
X96925812Y-65824482D01*
X96938072Y-65700000D01*
X96935000Y-64685750D01*
X96776250Y-64527000D01*
X95427000Y-64527000D01*
X95173000Y-64527000D01*
X93823750Y-64527000D01*
X93665000Y-64685750D01*
X93661928Y-65700000D01*
X90102460Y-65700000D01*
X89941104Y-65310452D01*
X89695511Y-64942895D01*
X89382929Y-64630313D01*
X89015372Y-64384720D01*
X88606964Y-64215552D01*
X88173401Y-64129310D01*
X87731343Y-64129310D01*
X87297780Y-64215552D01*
X86889372Y-64384720D01*
X86521815Y-64630313D01*
X86209233Y-64942895D01*
X85963640Y-65310452D01*
X85794472Y-65718860D01*
X85708230Y-66152423D01*
X85708230Y-66594481D01*
X85794472Y-67028044D01*
X85963640Y-67436452D01*
X86209233Y-67804009D01*
X86521815Y-68116591D01*
X86889372Y-68362184D01*
X87297780Y-68531352D01*
X87731343Y-68617594D01*
X88173401Y-68617594D01*
X88606964Y-68531352D01*
X88707555Y-68489686D01*
X88611595Y-68606613D01*
X88529528Y-68760149D01*
X88478992Y-68926745D01*
X88461928Y-69099999D01*
X88461928Y-69800001D01*
X88478992Y-69973255D01*
X88529528Y-70139851D01*
X88611595Y-70293387D01*
X88722038Y-70427962D01*
X88748891Y-70450000D01*
X88722038Y-70472038D01*
X88611595Y-70606613D01*
X88529528Y-70760149D01*
X88478992Y-70926745D01*
X88461928Y-71099999D01*
X88461928Y-71800001D01*
X88478992Y-71973255D01*
X88510828Y-72078204D01*
X88381595Y-72147280D01*
X88189735Y-72304735D01*
X88150276Y-72352816D01*
X87412806Y-73090286D01*
X87364725Y-73129745D01*
X87307069Y-73200000D01*
X87207270Y-73321605D01*
X87140243Y-73447004D01*
X87090270Y-73540497D01*
X87018222Y-73778008D01*
X86999990Y-73963118D01*
X86999990Y-73963127D01*
X86993895Y-74025010D01*
X86999990Y-74086893D01*
X86999991Y-80763097D01*
X86993895Y-80824990D01*
X87018223Y-81071993D01*
X87090270Y-81309503D01*
X87207270Y-81528395D01*
X87261932Y-81595000D01*
X87364726Y-81720255D01*
X87412801Y-81759709D01*
X87644482Y-81991390D01*
X87541589Y-82034010D01*
X87298368Y-82196525D01*
X87091525Y-82403368D01*
X86929010Y-82646589D01*
X86886078Y-82750236D01*
X85268764Y-84367551D01*
X85215920Y-84410919D01*
X85172551Y-84463764D01*
X85172548Y-84463767D01*
X85042844Y-84621812D01*
X84914236Y-84862420D01*
X84835040Y-85123493D01*
X84808300Y-85395000D01*
X84815001Y-85463039D01*
X84815000Y-88387744D01*
X84510750Y-88390000D01*
X84352000Y-88548750D01*
X84352000Y-89498000D01*
X84372000Y-89498000D01*
X84372000Y-89752000D01*
X84352000Y-89752000D01*
X84352000Y-89772000D01*
X84098000Y-89772000D01*
X84098000Y-89752000D01*
X84078000Y-89752000D01*
X84078000Y-89498000D01*
X84098000Y-89498000D01*
X84098000Y-88548750D01*
X83939250Y-88390000D01*
X83525000Y-88386928D01*
X83434999Y-88395792D01*
X83434999Y-63100000D01*
X93661928Y-63100000D01*
X93665000Y-64114250D01*
X93823750Y-64273000D01*
X95173000Y-64273000D01*
X95173000Y-62623750D01*
X95427000Y-62623750D01*
X95427000Y-64273000D01*
X96776250Y-64273000D01*
X96935000Y-64114250D01*
X96938072Y-63100000D01*
X96925812Y-62975518D01*
X96889502Y-62855820D01*
X96830537Y-62745506D01*
X96751185Y-62648815D01*
X96654494Y-62569463D01*
X96544180Y-62510498D01*
X96424482Y-62474188D01*
X96300000Y-62461928D01*
X95585750Y-62465000D01*
X95427000Y-62623750D01*
X95173000Y-62623750D01*
X95014250Y-62465000D01*
X94300000Y-62461928D01*
X94175518Y-62474188D01*
X94055820Y-62510498D01*
X93945506Y-62569463D01*
X93848815Y-62648815D01*
X93769463Y-62745506D01*
X93710498Y-62855820D01*
X93674188Y-62975518D01*
X93661928Y-63100000D01*
X83434999Y-63100000D01*
X83434998Y-62735735D01*
X83439723Y-62687691D01*
X83443201Y-62676212D01*
X83448866Y-62665610D01*
X83456412Y-62656414D01*
X83465611Y-62648866D01*
X83476214Y-62643201D01*
X83487690Y-62639723D01*
X83535715Y-62635000D01*
X85786105Y-62635000D01*
X85819024Y-62631758D01*
X85838955Y-62631897D01*
X85849168Y-62630896D01*
X86470277Y-62565615D01*
X86535584Y-62552209D01*
X86600970Y-62539736D01*
X86610795Y-62536771D01*
X87207395Y-62352092D01*
X87268862Y-62326254D01*
X87330573Y-62301321D01*
X87339634Y-62296504D01*
X87889001Y-61999462D01*
X87944240Y-61962202D01*
X87999971Y-61925733D01*
X88007924Y-61919247D01*
X88489133Y-61521156D01*
X88536094Y-61473866D01*
X88583668Y-61427278D01*
X88590210Y-61419371D01*
X88984931Y-60935395D01*
X89021811Y-60879887D01*
X89059433Y-60824941D01*
X89064315Y-60815914D01*
X89285460Y-60400000D01*
X98061928Y-60400000D01*
X98061928Y-62400000D01*
X98074188Y-62524482D01*
X98110498Y-62644180D01*
X98169463Y-62754494D01*
X98248815Y-62851185D01*
X98345506Y-62930537D01*
X98455820Y-62989502D01*
X98575518Y-63025812D01*
X98700000Y-63038072D01*
X101300000Y-63038072D01*
X101424482Y-63025812D01*
X101544180Y-62989502D01*
X101654494Y-62930537D01*
X101751185Y-62851185D01*
X101830537Y-62754494D01*
X101889502Y-62644180D01*
X101925812Y-62524482D01*
X101938072Y-62400000D01*
X101938072Y-60400000D01*
X101925812Y-60275518D01*
X101889502Y-60155820D01*
X101830537Y-60045506D01*
X101751185Y-59948815D01*
X101654494Y-59869463D01*
X101544180Y-59810498D01*
X101424482Y-59774188D01*
X101300000Y-59761928D01*
X98700000Y-59761928D01*
X98575518Y-59774188D01*
X98455820Y-59810498D01*
X98345506Y-59869463D01*
X98248815Y-59948815D01*
X98169463Y-60045506D01*
X98110498Y-60155820D01*
X98074188Y-60275518D01*
X98061928Y-60400000D01*
X89285460Y-60400000D01*
X89357514Y-60264486D01*
X89382915Y-60202859D01*
X89409142Y-60141666D01*
X89412177Y-60131863D01*
X89592686Y-59533988D01*
X89605635Y-59468589D01*
X89619475Y-59403480D01*
X89620548Y-59393274D01*
X89681492Y-58771724D01*
X89681492Y-58771723D01*
X89685000Y-58736105D01*
X89685000Y-56485715D01*
X89689723Y-56437691D01*
X89693201Y-56426212D01*
X89698866Y-56415610D01*
X89706412Y-56406414D01*
X89715611Y-56398866D01*
X89726214Y-56393201D01*
X89737690Y-56389723D01*
X89785715Y-56385000D01*
X110214284Y-56385000D01*
X110262308Y-56389723D01*
G37*
%TD.AperFunction*%
%TD*%
M02*
