%TF.GenerationSoftware,KiCad,Pcbnew,5.1.9*%
%TF.CreationDate,2021-02-01T12:12:55-08:00*%
%TF.ProjectId,MainBoard,4d61696e-426f-4617-9264-2e6b69636164,rev?*%
%TF.SameCoordinates,Original*%
%TF.FileFunction,Legend,Bot*%
%TF.FilePolarity,Positive*%
%FSLAX46Y46*%
G04 Gerber Fmt 4.6, Leading zero omitted, Abs format (unit mm)*
G04 Created by KiCad (PCBNEW 5.1.9) date 2021-02-01 12:12:55*
%MOMM*%
%LPD*%
G01*
G04 APERTURE LIST*
%ADD10C,0.120000*%
%ADD11C,0.150000*%
G04 APERTURE END LIST*
D10*
%TO.C,R15*%
X108532936Y-134425000D02*
X108987064Y-134425000D01*
X108532936Y-135895000D02*
X108987064Y-135895000D01*
%TO.C,R11*%
X84960000Y-90852064D02*
X84960000Y-90397936D01*
X83490000Y-90852064D02*
X83490000Y-90397936D01*
%TO.C,C8*%
X92585000Y-90086248D02*
X92585000Y-90608752D01*
X94055000Y-90086248D02*
X94055000Y-90608752D01*
%TO.C,U2*%
X106160584Y-91370000D02*
X107900000Y-91370000D01*
X102739416Y-91370000D02*
X102500000Y-91370000D01*
X106160584Y-96490000D02*
X106400000Y-96490000D01*
X102739416Y-96490000D02*
X102500000Y-96490000D01*
%TO.C,R18*%
X111935000Y-128522936D02*
X111935000Y-128977064D01*
X110465000Y-128522936D02*
X110465000Y-128977064D01*
%TO.C,R17*%
X106695000Y-126262936D02*
X106695000Y-126717064D01*
X105225000Y-126262936D02*
X105225000Y-126717064D01*
%TO.C,R16*%
X108615000Y-128292936D02*
X108615000Y-128747064D01*
X107145000Y-128292936D02*
X107145000Y-128747064D01*
%TO.C,R14*%
X86065000Y-100527064D02*
X86065000Y-100072936D01*
X87535000Y-100527064D02*
X87535000Y-100072936D01*
%TO.C,R13*%
X88040000Y-96702064D02*
X88040000Y-96247936D01*
X89510000Y-96702064D02*
X89510000Y-96247936D01*
%TO.C,R12*%
X86152064Y-96285000D02*
X85697936Y-96285000D01*
X86152064Y-94815000D02*
X85697936Y-94815000D01*
%TO.C,R10*%
X94055000Y-86342936D02*
X94055000Y-86797064D01*
X92585000Y-86342936D02*
X92585000Y-86797064D01*
%TO.C,R9*%
X100115000Y-93982936D02*
X100115000Y-94437064D01*
X98645000Y-93982936D02*
X98645000Y-94437064D01*
%TO.C,R8*%
X101202064Y-75610000D02*
X100747936Y-75610000D01*
X101202064Y-74140000D02*
X100747936Y-74140000D01*
%TO.C,R7*%
X103445000Y-100827064D02*
X103445000Y-100372936D01*
X104915000Y-100827064D02*
X104915000Y-100372936D01*
%TO.C,R6*%
X104172936Y-96945000D02*
X104627064Y-96945000D01*
X104172936Y-98415000D02*
X104627064Y-98415000D01*
%TO.C,R5*%
X115685000Y-84372936D02*
X115685000Y-84827064D01*
X114215000Y-84372936D02*
X114215000Y-84827064D01*
%TO.C,R4*%
X114377064Y-124585000D02*
X113922936Y-124585000D01*
X114377064Y-123115000D02*
X113922936Y-123115000D01*
%TO.C,R3*%
X92505000Y-74012936D02*
X92505000Y-74467064D01*
X91035000Y-74012936D02*
X91035000Y-74467064D01*
%TO.C,R2*%
X89065000Y-70222936D02*
X89065000Y-70677064D01*
X90535000Y-70222936D02*
X90535000Y-70677064D01*
%TO.C,R1*%
X103715000Y-106977064D02*
X103715000Y-106522936D01*
X105185000Y-106977064D02*
X105185000Y-106522936D01*
%TO.C,C11*%
X108645000Y-132036248D02*
X108645000Y-132558752D01*
X107175000Y-132036248D02*
X107175000Y-132558752D01*
%TO.C,C10*%
X89510000Y-100001248D02*
X89510000Y-100523752D01*
X88040000Y-100001248D02*
X88040000Y-100523752D01*
%TO.C,C9*%
X85465000Y-90873752D02*
X85465000Y-90351248D01*
X86935000Y-90873752D02*
X86935000Y-90351248D01*
%TO.C,C7*%
X100701248Y-76115000D02*
X101223752Y-76115000D01*
X100701248Y-77585000D02*
X101223752Y-77585000D01*
%TO.C,C6*%
X102945000Y-100336248D02*
X102945000Y-100858752D01*
X101475000Y-100336248D02*
X101475000Y-100858752D01*
%TO.C,C5*%
X109485000Y-96921252D02*
X109485000Y-96398748D01*
X110955000Y-96921252D02*
X110955000Y-96398748D01*
%TO.C,C4*%
X112415000Y-126961252D02*
X112415000Y-126438748D01*
X113885000Y-126961252D02*
X113885000Y-126438748D01*
%TO.C,C3*%
X90545000Y-73976248D02*
X90545000Y-74498752D01*
X89075000Y-73976248D02*
X89075000Y-74498752D01*
%TO.C,C2*%
X91035000Y-70216248D02*
X91035000Y-70738752D01*
X92505000Y-70216248D02*
X92505000Y-70738752D01*
%TO.C,C1*%
X93005000Y-70196248D02*
X93005000Y-70718752D01*
X94475000Y-70196248D02*
X94475000Y-70718752D01*
%TO.C,R15*%
D11*
X109402857Y-137262380D02*
X109736190Y-136786190D01*
X109974285Y-137262380D02*
X109974285Y-136262380D01*
X109593333Y-136262380D01*
X109498095Y-136310000D01*
X109450476Y-136357619D01*
X109402857Y-136452857D01*
X109402857Y-136595714D01*
X109450476Y-136690952D01*
X109498095Y-136738571D01*
X109593333Y-136786190D01*
X109974285Y-136786190D01*
X108450476Y-137262380D02*
X109021904Y-137262380D01*
X108736190Y-137262380D02*
X108736190Y-136262380D01*
X108831428Y-136405238D01*
X108926666Y-136500476D01*
X109021904Y-136548095D01*
X107545714Y-136262380D02*
X108021904Y-136262380D01*
X108069523Y-136738571D01*
X108021904Y-136690952D01*
X107926666Y-136643333D01*
X107688571Y-136643333D01*
X107593333Y-136690952D01*
X107545714Y-136738571D01*
X107498095Y-136833809D01*
X107498095Y-137071904D01*
X107545714Y-137167142D01*
X107593333Y-137214761D01*
X107688571Y-137262380D01*
X107926666Y-137262380D01*
X108021904Y-137214761D01*
X108069523Y-137167142D01*
%TO.C,R11*%
X85442857Y-88542380D02*
X85776190Y-88066190D01*
X86014285Y-88542380D02*
X86014285Y-87542380D01*
X85633333Y-87542380D01*
X85538095Y-87590000D01*
X85490476Y-87637619D01*
X85442857Y-87732857D01*
X85442857Y-87875714D01*
X85490476Y-87970952D01*
X85538095Y-88018571D01*
X85633333Y-88066190D01*
X86014285Y-88066190D01*
X84490476Y-88542380D02*
X85061904Y-88542380D01*
X84776190Y-88542380D02*
X84776190Y-87542380D01*
X84871428Y-87685238D01*
X84966666Y-87780476D01*
X85061904Y-87828095D01*
X83538095Y-88542380D02*
X84109523Y-88542380D01*
X83823809Y-88542380D02*
X83823809Y-87542380D01*
X83919047Y-87685238D01*
X84014285Y-87780476D01*
X84109523Y-87828095D01*
%TO.C,C8*%
X91997142Y-90180833D02*
X92044761Y-90133214D01*
X92092380Y-89990357D01*
X92092380Y-89895119D01*
X92044761Y-89752261D01*
X91949523Y-89657023D01*
X91854285Y-89609404D01*
X91663809Y-89561785D01*
X91520952Y-89561785D01*
X91330476Y-89609404D01*
X91235238Y-89657023D01*
X91140000Y-89752261D01*
X91092380Y-89895119D01*
X91092380Y-89990357D01*
X91140000Y-90133214D01*
X91187619Y-90180833D01*
X91520952Y-90752261D02*
X91473333Y-90657023D01*
X91425714Y-90609404D01*
X91330476Y-90561785D01*
X91282857Y-90561785D01*
X91187619Y-90609404D01*
X91140000Y-90657023D01*
X91092380Y-90752261D01*
X91092380Y-90942738D01*
X91140000Y-91037976D01*
X91187619Y-91085595D01*
X91282857Y-91133214D01*
X91330476Y-91133214D01*
X91425714Y-91085595D01*
X91473333Y-91037976D01*
X91520952Y-90942738D01*
X91520952Y-90752261D01*
X91568571Y-90657023D01*
X91616190Y-90609404D01*
X91711428Y-90561785D01*
X91901904Y-90561785D01*
X91997142Y-90609404D01*
X92044761Y-90657023D01*
X92092380Y-90752261D01*
X92092380Y-90942738D01*
X92044761Y-91037976D01*
X91997142Y-91085595D01*
X91901904Y-91133214D01*
X91711428Y-91133214D01*
X91616190Y-91085595D01*
X91568571Y-91037976D01*
X91520952Y-90942738D01*
%TO.C,U2*%
X105211904Y-89982380D02*
X105211904Y-90791904D01*
X105164285Y-90887142D01*
X105116666Y-90934761D01*
X105021428Y-90982380D01*
X104830952Y-90982380D01*
X104735714Y-90934761D01*
X104688095Y-90887142D01*
X104640476Y-90791904D01*
X104640476Y-89982380D01*
X104211904Y-90077619D02*
X104164285Y-90030000D01*
X104069047Y-89982380D01*
X103830952Y-89982380D01*
X103735714Y-90030000D01*
X103688095Y-90077619D01*
X103640476Y-90172857D01*
X103640476Y-90268095D01*
X103688095Y-90410952D01*
X104259523Y-90982380D01*
X103640476Y-90982380D01*
%TO.C,R18*%
X112092857Y-131672380D02*
X112426190Y-131196190D01*
X112664285Y-131672380D02*
X112664285Y-130672380D01*
X112283333Y-130672380D01*
X112188095Y-130720000D01*
X112140476Y-130767619D01*
X112092857Y-130862857D01*
X112092857Y-131005714D01*
X112140476Y-131100952D01*
X112188095Y-131148571D01*
X112283333Y-131196190D01*
X112664285Y-131196190D01*
X111140476Y-131672380D02*
X111711904Y-131672380D01*
X111426190Y-131672380D02*
X111426190Y-130672380D01*
X111521428Y-130815238D01*
X111616666Y-130910476D01*
X111711904Y-130958095D01*
X110569047Y-131100952D02*
X110664285Y-131053333D01*
X110711904Y-131005714D01*
X110759523Y-130910476D01*
X110759523Y-130862857D01*
X110711904Y-130767619D01*
X110664285Y-130720000D01*
X110569047Y-130672380D01*
X110378571Y-130672380D01*
X110283333Y-130720000D01*
X110235714Y-130767619D01*
X110188095Y-130862857D01*
X110188095Y-130910476D01*
X110235714Y-131005714D01*
X110283333Y-131053333D01*
X110378571Y-131100952D01*
X110569047Y-131100952D01*
X110664285Y-131148571D01*
X110711904Y-131196190D01*
X110759523Y-131291428D01*
X110759523Y-131481904D01*
X110711904Y-131577142D01*
X110664285Y-131624761D01*
X110569047Y-131672380D01*
X110378571Y-131672380D01*
X110283333Y-131624761D01*
X110235714Y-131577142D01*
X110188095Y-131481904D01*
X110188095Y-131291428D01*
X110235714Y-131196190D01*
X110283333Y-131148571D01*
X110378571Y-131100952D01*
%TO.C,R17*%
X104762380Y-125847142D02*
X104286190Y-125513809D01*
X104762380Y-125275714D02*
X103762380Y-125275714D01*
X103762380Y-125656666D01*
X103810000Y-125751904D01*
X103857619Y-125799523D01*
X103952857Y-125847142D01*
X104095714Y-125847142D01*
X104190952Y-125799523D01*
X104238571Y-125751904D01*
X104286190Y-125656666D01*
X104286190Y-125275714D01*
X104762380Y-126799523D02*
X104762380Y-126228095D01*
X104762380Y-126513809D02*
X103762380Y-126513809D01*
X103905238Y-126418571D01*
X104000476Y-126323333D01*
X104048095Y-126228095D01*
X103762380Y-127132857D02*
X103762380Y-127799523D01*
X104762380Y-127370952D01*
%TO.C,R16*%
X109922380Y-127897142D02*
X109446190Y-127563809D01*
X109922380Y-127325714D02*
X108922380Y-127325714D01*
X108922380Y-127706666D01*
X108970000Y-127801904D01*
X109017619Y-127849523D01*
X109112857Y-127897142D01*
X109255714Y-127897142D01*
X109350952Y-127849523D01*
X109398571Y-127801904D01*
X109446190Y-127706666D01*
X109446190Y-127325714D01*
X109922380Y-128849523D02*
X109922380Y-128278095D01*
X109922380Y-128563809D02*
X108922380Y-128563809D01*
X109065238Y-128468571D01*
X109160476Y-128373333D01*
X109208095Y-128278095D01*
X108922380Y-129706666D02*
X108922380Y-129516190D01*
X108970000Y-129420952D01*
X109017619Y-129373333D01*
X109160476Y-129278095D01*
X109350952Y-129230476D01*
X109731904Y-129230476D01*
X109827142Y-129278095D01*
X109874761Y-129325714D01*
X109922380Y-129420952D01*
X109922380Y-129611428D01*
X109874761Y-129706666D01*
X109827142Y-129754285D01*
X109731904Y-129801904D01*
X109493809Y-129801904D01*
X109398571Y-129754285D01*
X109350952Y-129706666D01*
X109303333Y-129611428D01*
X109303333Y-129420952D01*
X109350952Y-129325714D01*
X109398571Y-129278095D01*
X109493809Y-129230476D01*
%TO.C,R14*%
X90882380Y-99557142D02*
X90406190Y-99223809D01*
X90882380Y-98985714D02*
X89882380Y-98985714D01*
X89882380Y-99366666D01*
X89930000Y-99461904D01*
X89977619Y-99509523D01*
X90072857Y-99557142D01*
X90215714Y-99557142D01*
X90310952Y-99509523D01*
X90358571Y-99461904D01*
X90406190Y-99366666D01*
X90406190Y-98985714D01*
X90882380Y-100509523D02*
X90882380Y-99938095D01*
X90882380Y-100223809D02*
X89882380Y-100223809D01*
X90025238Y-100128571D01*
X90120476Y-100033333D01*
X90168095Y-99938095D01*
X90215714Y-101366666D02*
X90882380Y-101366666D01*
X89834761Y-101128571D02*
X90549047Y-100890476D01*
X90549047Y-101509523D01*
%TO.C,R13*%
X90877380Y-95832142D02*
X90401190Y-95498809D01*
X90877380Y-95260714D02*
X89877380Y-95260714D01*
X89877380Y-95641666D01*
X89925000Y-95736904D01*
X89972619Y-95784523D01*
X90067857Y-95832142D01*
X90210714Y-95832142D01*
X90305952Y-95784523D01*
X90353571Y-95736904D01*
X90401190Y-95641666D01*
X90401190Y-95260714D01*
X90877380Y-96784523D02*
X90877380Y-96213095D01*
X90877380Y-96498809D02*
X89877380Y-96498809D01*
X90020238Y-96403571D01*
X90115476Y-96308333D01*
X90163095Y-96213095D01*
X89877380Y-97117857D02*
X89877380Y-97736904D01*
X90258333Y-97403571D01*
X90258333Y-97546428D01*
X90305952Y-97641666D01*
X90353571Y-97689285D01*
X90448809Y-97736904D01*
X90686904Y-97736904D01*
X90782142Y-97689285D01*
X90829761Y-97641666D01*
X90877380Y-97546428D01*
X90877380Y-97260714D01*
X90829761Y-97165476D01*
X90782142Y-97117857D01*
%TO.C,R12*%
X86567857Y-94352380D02*
X86901190Y-93876190D01*
X87139285Y-94352380D02*
X87139285Y-93352380D01*
X86758333Y-93352380D01*
X86663095Y-93400000D01*
X86615476Y-93447619D01*
X86567857Y-93542857D01*
X86567857Y-93685714D01*
X86615476Y-93780952D01*
X86663095Y-93828571D01*
X86758333Y-93876190D01*
X87139285Y-93876190D01*
X85615476Y-94352380D02*
X86186904Y-94352380D01*
X85901190Y-94352380D02*
X85901190Y-93352380D01*
X85996428Y-93495238D01*
X86091666Y-93590476D01*
X86186904Y-93638095D01*
X85234523Y-93447619D02*
X85186904Y-93400000D01*
X85091666Y-93352380D01*
X84853571Y-93352380D01*
X84758333Y-93400000D01*
X84710714Y-93447619D01*
X84663095Y-93542857D01*
X84663095Y-93638095D01*
X84710714Y-93780952D01*
X85282142Y-94352380D01*
X84663095Y-94352380D01*
%TO.C,R10*%
X92122380Y-85927142D02*
X91646190Y-85593809D01*
X92122380Y-85355714D02*
X91122380Y-85355714D01*
X91122380Y-85736666D01*
X91170000Y-85831904D01*
X91217619Y-85879523D01*
X91312857Y-85927142D01*
X91455714Y-85927142D01*
X91550952Y-85879523D01*
X91598571Y-85831904D01*
X91646190Y-85736666D01*
X91646190Y-85355714D01*
X92122380Y-86879523D02*
X92122380Y-86308095D01*
X92122380Y-86593809D02*
X91122380Y-86593809D01*
X91265238Y-86498571D01*
X91360476Y-86403333D01*
X91408095Y-86308095D01*
X91122380Y-87498571D02*
X91122380Y-87593809D01*
X91170000Y-87689047D01*
X91217619Y-87736666D01*
X91312857Y-87784285D01*
X91503333Y-87831904D01*
X91741428Y-87831904D01*
X91931904Y-87784285D01*
X92027142Y-87736666D01*
X92074761Y-87689047D01*
X92122380Y-87593809D01*
X92122380Y-87498571D01*
X92074761Y-87403333D01*
X92027142Y-87355714D01*
X91931904Y-87308095D01*
X91741428Y-87260476D01*
X91503333Y-87260476D01*
X91312857Y-87308095D01*
X91217619Y-87355714D01*
X91170000Y-87403333D01*
X91122380Y-87498571D01*
%TO.C,R9*%
X98182380Y-94043333D02*
X97706190Y-93710000D01*
X98182380Y-93471904D02*
X97182380Y-93471904D01*
X97182380Y-93852857D01*
X97230000Y-93948095D01*
X97277619Y-93995714D01*
X97372857Y-94043333D01*
X97515714Y-94043333D01*
X97610952Y-93995714D01*
X97658571Y-93948095D01*
X97706190Y-93852857D01*
X97706190Y-93471904D01*
X98182380Y-94519523D02*
X98182380Y-94710000D01*
X98134761Y-94805238D01*
X98087142Y-94852857D01*
X97944285Y-94948095D01*
X97753809Y-94995714D01*
X97372857Y-94995714D01*
X97277619Y-94948095D01*
X97230000Y-94900476D01*
X97182380Y-94805238D01*
X97182380Y-94614761D01*
X97230000Y-94519523D01*
X97277619Y-94471904D01*
X97372857Y-94424285D01*
X97610952Y-94424285D01*
X97706190Y-94471904D01*
X97753809Y-94519523D01*
X97801428Y-94614761D01*
X97801428Y-94805238D01*
X97753809Y-94900476D01*
X97706190Y-94948095D01*
X97610952Y-94995714D01*
%TO.C,R8*%
X104096666Y-75402380D02*
X104430000Y-74926190D01*
X104668095Y-75402380D02*
X104668095Y-74402380D01*
X104287142Y-74402380D01*
X104191904Y-74450000D01*
X104144285Y-74497619D01*
X104096666Y-74592857D01*
X104096666Y-74735714D01*
X104144285Y-74830952D01*
X104191904Y-74878571D01*
X104287142Y-74926190D01*
X104668095Y-74926190D01*
X103525238Y-74830952D02*
X103620476Y-74783333D01*
X103668095Y-74735714D01*
X103715714Y-74640476D01*
X103715714Y-74592857D01*
X103668095Y-74497619D01*
X103620476Y-74450000D01*
X103525238Y-74402380D01*
X103334761Y-74402380D01*
X103239523Y-74450000D01*
X103191904Y-74497619D01*
X103144285Y-74592857D01*
X103144285Y-74640476D01*
X103191904Y-74735714D01*
X103239523Y-74783333D01*
X103334761Y-74830952D01*
X103525238Y-74830952D01*
X103620476Y-74878571D01*
X103668095Y-74926190D01*
X103715714Y-75021428D01*
X103715714Y-75211904D01*
X103668095Y-75307142D01*
X103620476Y-75354761D01*
X103525238Y-75402380D01*
X103334761Y-75402380D01*
X103239523Y-75354761D01*
X103191904Y-75307142D01*
X103144285Y-75211904D01*
X103144285Y-75021428D01*
X103191904Y-74926190D01*
X103239523Y-74878571D01*
X103334761Y-74830952D01*
%TO.C,R7*%
X106282380Y-100433333D02*
X105806190Y-100100000D01*
X106282380Y-99861904D02*
X105282380Y-99861904D01*
X105282380Y-100242857D01*
X105330000Y-100338095D01*
X105377619Y-100385714D01*
X105472857Y-100433333D01*
X105615714Y-100433333D01*
X105710952Y-100385714D01*
X105758571Y-100338095D01*
X105806190Y-100242857D01*
X105806190Y-99861904D01*
X105282380Y-100766666D02*
X105282380Y-101433333D01*
X106282380Y-101004761D01*
%TO.C,R6*%
X107416666Y-98462380D02*
X107750000Y-97986190D01*
X107988095Y-98462380D02*
X107988095Y-97462380D01*
X107607142Y-97462380D01*
X107511904Y-97510000D01*
X107464285Y-97557619D01*
X107416666Y-97652857D01*
X107416666Y-97795714D01*
X107464285Y-97890952D01*
X107511904Y-97938571D01*
X107607142Y-97986190D01*
X107988095Y-97986190D01*
X106559523Y-97462380D02*
X106750000Y-97462380D01*
X106845238Y-97510000D01*
X106892857Y-97557619D01*
X106988095Y-97700476D01*
X107035714Y-97890952D01*
X107035714Y-98271904D01*
X106988095Y-98367142D01*
X106940476Y-98414761D01*
X106845238Y-98462380D01*
X106654761Y-98462380D01*
X106559523Y-98414761D01*
X106511904Y-98367142D01*
X106464285Y-98271904D01*
X106464285Y-98033809D01*
X106511904Y-97938571D01*
X106559523Y-97890952D01*
X106654761Y-97843333D01*
X106845238Y-97843333D01*
X106940476Y-97890952D01*
X106988095Y-97938571D01*
X107035714Y-98033809D01*
%TO.C,R5*%
X113782380Y-85423333D02*
X113306190Y-85090000D01*
X113782380Y-84851904D02*
X112782380Y-84851904D01*
X112782380Y-85232857D01*
X112830000Y-85328095D01*
X112877619Y-85375714D01*
X112972857Y-85423333D01*
X113115714Y-85423333D01*
X113210952Y-85375714D01*
X113258571Y-85328095D01*
X113306190Y-85232857D01*
X113306190Y-84851904D01*
X112782380Y-86328095D02*
X112782380Y-85851904D01*
X113258571Y-85804285D01*
X113210952Y-85851904D01*
X113163333Y-85947142D01*
X113163333Y-86185238D01*
X113210952Y-86280476D01*
X113258571Y-86328095D01*
X113353809Y-86375714D01*
X113591904Y-86375714D01*
X113687142Y-86328095D01*
X113734761Y-86280476D01*
X113782380Y-86185238D01*
X113782380Y-85947142D01*
X113734761Y-85851904D01*
X113687142Y-85804285D01*
%TO.C,R4*%
X114316666Y-122652380D02*
X114650000Y-122176190D01*
X114888095Y-122652380D02*
X114888095Y-121652380D01*
X114507142Y-121652380D01*
X114411904Y-121700000D01*
X114364285Y-121747619D01*
X114316666Y-121842857D01*
X114316666Y-121985714D01*
X114364285Y-122080952D01*
X114411904Y-122128571D01*
X114507142Y-122176190D01*
X114888095Y-122176190D01*
X113459523Y-121985714D02*
X113459523Y-122652380D01*
X113697619Y-121604761D02*
X113935714Y-122319047D01*
X113316666Y-122319047D01*
%TO.C,R3*%
X93952380Y-75003333D02*
X93476190Y-74670000D01*
X93952380Y-74431904D02*
X92952380Y-74431904D01*
X92952380Y-74812857D01*
X93000000Y-74908095D01*
X93047619Y-74955714D01*
X93142857Y-75003333D01*
X93285714Y-75003333D01*
X93380952Y-74955714D01*
X93428571Y-74908095D01*
X93476190Y-74812857D01*
X93476190Y-74431904D01*
X92952380Y-75336666D02*
X92952380Y-75955714D01*
X93333333Y-75622380D01*
X93333333Y-75765238D01*
X93380952Y-75860476D01*
X93428571Y-75908095D01*
X93523809Y-75955714D01*
X93761904Y-75955714D01*
X93857142Y-75908095D01*
X93904761Y-75860476D01*
X93952380Y-75765238D01*
X93952380Y-75479523D01*
X93904761Y-75384285D01*
X93857142Y-75336666D01*
%TO.C,R2*%
X88602380Y-70283333D02*
X88126190Y-69950000D01*
X88602380Y-69711904D02*
X87602380Y-69711904D01*
X87602380Y-70092857D01*
X87650000Y-70188095D01*
X87697619Y-70235714D01*
X87792857Y-70283333D01*
X87935714Y-70283333D01*
X88030952Y-70235714D01*
X88078571Y-70188095D01*
X88126190Y-70092857D01*
X88126190Y-69711904D01*
X87697619Y-70664285D02*
X87650000Y-70711904D01*
X87602380Y-70807142D01*
X87602380Y-71045238D01*
X87650000Y-71140476D01*
X87697619Y-71188095D01*
X87792857Y-71235714D01*
X87888095Y-71235714D01*
X88030952Y-71188095D01*
X88602380Y-70616666D01*
X88602380Y-71235714D01*
%TO.C,R1*%
X106552380Y-106583333D02*
X106076190Y-106250000D01*
X106552380Y-106011904D02*
X105552380Y-106011904D01*
X105552380Y-106392857D01*
X105600000Y-106488095D01*
X105647619Y-106535714D01*
X105742857Y-106583333D01*
X105885714Y-106583333D01*
X105980952Y-106535714D01*
X106028571Y-106488095D01*
X106076190Y-106392857D01*
X106076190Y-106011904D01*
X106552380Y-107535714D02*
X106552380Y-106964285D01*
X106552380Y-107250000D02*
X105552380Y-107250000D01*
X105695238Y-107154761D01*
X105790476Y-107059523D01*
X105838095Y-106964285D01*
%TO.C,C11*%
X109847142Y-131897142D02*
X109894761Y-131849523D01*
X109942380Y-131706666D01*
X109942380Y-131611428D01*
X109894761Y-131468571D01*
X109799523Y-131373333D01*
X109704285Y-131325714D01*
X109513809Y-131278095D01*
X109370952Y-131278095D01*
X109180476Y-131325714D01*
X109085238Y-131373333D01*
X108990000Y-131468571D01*
X108942380Y-131611428D01*
X108942380Y-131706666D01*
X108990000Y-131849523D01*
X109037619Y-131897142D01*
X109942380Y-132849523D02*
X109942380Y-132278095D01*
X109942380Y-132563809D02*
X108942380Y-132563809D01*
X109085238Y-132468571D01*
X109180476Y-132373333D01*
X109228095Y-132278095D01*
X109942380Y-133801904D02*
X109942380Y-133230476D01*
X109942380Y-133516190D02*
X108942380Y-133516190D01*
X109085238Y-133420952D01*
X109180476Y-133325714D01*
X109228095Y-133230476D01*
%TO.C,C10*%
X85557142Y-99587142D02*
X85604761Y-99539523D01*
X85652380Y-99396666D01*
X85652380Y-99301428D01*
X85604761Y-99158571D01*
X85509523Y-99063333D01*
X85414285Y-99015714D01*
X85223809Y-98968095D01*
X85080952Y-98968095D01*
X84890476Y-99015714D01*
X84795238Y-99063333D01*
X84700000Y-99158571D01*
X84652380Y-99301428D01*
X84652380Y-99396666D01*
X84700000Y-99539523D01*
X84747619Y-99587142D01*
X85652380Y-100539523D02*
X85652380Y-99968095D01*
X85652380Y-100253809D02*
X84652380Y-100253809D01*
X84795238Y-100158571D01*
X84890476Y-100063333D01*
X84938095Y-99968095D01*
X84652380Y-101158571D02*
X84652380Y-101253809D01*
X84700000Y-101349047D01*
X84747619Y-101396666D01*
X84842857Y-101444285D01*
X85033333Y-101491904D01*
X85271428Y-101491904D01*
X85461904Y-101444285D01*
X85557142Y-101396666D01*
X85604761Y-101349047D01*
X85652380Y-101253809D01*
X85652380Y-101158571D01*
X85604761Y-101063333D01*
X85557142Y-101015714D01*
X85461904Y-100968095D01*
X85271428Y-100920476D01*
X85033333Y-100920476D01*
X84842857Y-100968095D01*
X84747619Y-101015714D01*
X84700000Y-101063333D01*
X84652380Y-101158571D01*
%TO.C,C9*%
X88177142Y-88523333D02*
X88224761Y-88475714D01*
X88272380Y-88332857D01*
X88272380Y-88237619D01*
X88224761Y-88094761D01*
X88129523Y-87999523D01*
X88034285Y-87951904D01*
X87843809Y-87904285D01*
X87700952Y-87904285D01*
X87510476Y-87951904D01*
X87415238Y-87999523D01*
X87320000Y-88094761D01*
X87272380Y-88237619D01*
X87272380Y-88332857D01*
X87320000Y-88475714D01*
X87367619Y-88523333D01*
X88272380Y-88999523D02*
X88272380Y-89190000D01*
X88224761Y-89285238D01*
X88177142Y-89332857D01*
X88034285Y-89428095D01*
X87843809Y-89475714D01*
X87462857Y-89475714D01*
X87367619Y-89428095D01*
X87320000Y-89380476D01*
X87272380Y-89285238D01*
X87272380Y-89094761D01*
X87320000Y-88999523D01*
X87367619Y-88951904D01*
X87462857Y-88904285D01*
X87700952Y-88904285D01*
X87796190Y-88951904D01*
X87843809Y-88999523D01*
X87891428Y-89094761D01*
X87891428Y-89285238D01*
X87843809Y-89380476D01*
X87796190Y-89428095D01*
X87700952Y-89475714D01*
%TO.C,C7*%
X104246666Y-77307142D02*
X104294285Y-77354761D01*
X104437142Y-77402380D01*
X104532380Y-77402380D01*
X104675238Y-77354761D01*
X104770476Y-77259523D01*
X104818095Y-77164285D01*
X104865714Y-76973809D01*
X104865714Y-76830952D01*
X104818095Y-76640476D01*
X104770476Y-76545238D01*
X104675238Y-76450000D01*
X104532380Y-76402380D01*
X104437142Y-76402380D01*
X104294285Y-76450000D01*
X104246666Y-76497619D01*
X103913333Y-76402380D02*
X103246666Y-76402380D01*
X103675238Y-77402380D01*
%TO.C,C6*%
X100887142Y-100430833D02*
X100934761Y-100383214D01*
X100982380Y-100240357D01*
X100982380Y-100145119D01*
X100934761Y-100002261D01*
X100839523Y-99907023D01*
X100744285Y-99859404D01*
X100553809Y-99811785D01*
X100410952Y-99811785D01*
X100220476Y-99859404D01*
X100125238Y-99907023D01*
X100030000Y-100002261D01*
X99982380Y-100145119D01*
X99982380Y-100240357D01*
X100030000Y-100383214D01*
X100077619Y-100430833D01*
X99982380Y-101287976D02*
X99982380Y-101097500D01*
X100030000Y-101002261D01*
X100077619Y-100954642D01*
X100220476Y-100859404D01*
X100410952Y-100811785D01*
X100791904Y-100811785D01*
X100887142Y-100859404D01*
X100934761Y-100907023D01*
X100982380Y-101002261D01*
X100982380Y-101192738D01*
X100934761Y-101287976D01*
X100887142Y-101335595D01*
X100791904Y-101383214D01*
X100553809Y-101383214D01*
X100458571Y-101335595D01*
X100410952Y-101287976D01*
X100363333Y-101192738D01*
X100363333Y-101002261D01*
X100410952Y-100907023D01*
X100458571Y-100859404D01*
X100553809Y-100811785D01*
%TO.C,C5*%
X110236666Y-94547142D02*
X110284285Y-94594761D01*
X110427142Y-94642380D01*
X110522380Y-94642380D01*
X110665238Y-94594761D01*
X110760476Y-94499523D01*
X110808095Y-94404285D01*
X110855714Y-94213809D01*
X110855714Y-94070952D01*
X110808095Y-93880476D01*
X110760476Y-93785238D01*
X110665238Y-93690000D01*
X110522380Y-93642380D01*
X110427142Y-93642380D01*
X110284285Y-93690000D01*
X110236666Y-93737619D01*
X109331904Y-93642380D02*
X109808095Y-93642380D01*
X109855714Y-94118571D01*
X109808095Y-94070952D01*
X109712857Y-94023333D01*
X109474761Y-94023333D01*
X109379523Y-94070952D01*
X109331904Y-94118571D01*
X109284285Y-94213809D01*
X109284285Y-94451904D01*
X109331904Y-94547142D01*
X109379523Y-94594761D01*
X109474761Y-94642380D01*
X109712857Y-94642380D01*
X109808095Y-94594761D01*
X109855714Y-94547142D01*
%TO.C,C4*%
X115187142Y-126533333D02*
X115234761Y-126485714D01*
X115282380Y-126342857D01*
X115282380Y-126247619D01*
X115234761Y-126104761D01*
X115139523Y-126009523D01*
X115044285Y-125961904D01*
X114853809Y-125914285D01*
X114710952Y-125914285D01*
X114520476Y-125961904D01*
X114425238Y-126009523D01*
X114330000Y-126104761D01*
X114282380Y-126247619D01*
X114282380Y-126342857D01*
X114330000Y-126485714D01*
X114377619Y-126533333D01*
X114615714Y-127390476D02*
X115282380Y-127390476D01*
X114234761Y-127152380D02*
X114949047Y-126914285D01*
X114949047Y-127533333D01*
%TO.C,C3*%
X88487142Y-74070833D02*
X88534761Y-74023214D01*
X88582380Y-73880357D01*
X88582380Y-73785119D01*
X88534761Y-73642261D01*
X88439523Y-73547023D01*
X88344285Y-73499404D01*
X88153809Y-73451785D01*
X88010952Y-73451785D01*
X87820476Y-73499404D01*
X87725238Y-73547023D01*
X87630000Y-73642261D01*
X87582380Y-73785119D01*
X87582380Y-73880357D01*
X87630000Y-74023214D01*
X87677619Y-74070833D01*
X87582380Y-74404166D02*
X87582380Y-75023214D01*
X87963333Y-74689880D01*
X87963333Y-74832738D01*
X88010952Y-74927976D01*
X88058571Y-74975595D01*
X88153809Y-75023214D01*
X88391904Y-75023214D01*
X88487142Y-74975595D01*
X88534761Y-74927976D01*
X88582380Y-74832738D01*
X88582380Y-74547023D01*
X88534761Y-74451785D01*
X88487142Y-74404166D01*
%TO.C,C2*%
X93626666Y-73117142D02*
X93674285Y-73164761D01*
X93817142Y-73212380D01*
X93912380Y-73212380D01*
X94055238Y-73164761D01*
X94150476Y-73069523D01*
X94198095Y-72974285D01*
X94245714Y-72783809D01*
X94245714Y-72640952D01*
X94198095Y-72450476D01*
X94150476Y-72355238D01*
X94055238Y-72260000D01*
X93912380Y-72212380D01*
X93817142Y-72212380D01*
X93674285Y-72260000D01*
X93626666Y-72307619D01*
X93245714Y-72307619D02*
X93198095Y-72260000D01*
X93102857Y-72212380D01*
X92864761Y-72212380D01*
X92769523Y-72260000D01*
X92721904Y-72307619D01*
X92674285Y-72402857D01*
X92674285Y-72498095D01*
X92721904Y-72640952D01*
X93293333Y-73212380D01*
X92674285Y-73212380D01*
%TO.C,C1*%
X95947142Y-70373333D02*
X95994761Y-70325714D01*
X96042380Y-70182857D01*
X96042380Y-70087619D01*
X95994761Y-69944761D01*
X95899523Y-69849523D01*
X95804285Y-69801904D01*
X95613809Y-69754285D01*
X95470952Y-69754285D01*
X95280476Y-69801904D01*
X95185238Y-69849523D01*
X95090000Y-69944761D01*
X95042380Y-70087619D01*
X95042380Y-70182857D01*
X95090000Y-70325714D01*
X95137619Y-70373333D01*
X96042380Y-71325714D02*
X96042380Y-70754285D01*
X96042380Y-71040000D02*
X95042380Y-71040000D01*
X95185238Y-70944761D01*
X95280476Y-70849523D01*
X95328095Y-70754285D01*
%TD*%
M02*
