%TF.GenerationSoftware,KiCad,Pcbnew,5.1.9*%
%TF.CreationDate,2021-02-01T12:12:55-08:00*%
%TF.ProjectId,MainBoard,4d61696e-426f-4617-9264-2e6b69636164,rev?*%
%TF.SameCoordinates,Original*%
%TF.FileFunction,Copper,L1,Top*%
%TF.FilePolarity,Positive*%
%FSLAX46Y46*%
G04 Gerber Fmt 4.6, Leading zero omitted, Abs format (unit mm)*
G04 Created by KiCad (PCBNEW 5.1.9) date 2021-02-01 12:12:55*
%MOMM*%
%LPD*%
G01*
G04 APERTURE LIST*
%TA.AperFunction,ComponentPad*%
%ADD10C,2.000000*%
%TD*%
%TA.AperFunction,ComponentPad*%
%ADD11R,1.700000X1.700000*%
%TD*%
%TA.AperFunction,ComponentPad*%
%ADD12O,1.700000X1.700000*%
%TD*%
%TA.AperFunction,ComponentPad*%
%ADD13R,2.000000X2.000000*%
%TD*%
%TA.AperFunction,ComponentPad*%
%ADD14O,1.600000X1.600000*%
%TD*%
%TA.AperFunction,ComponentPad*%
%ADD15R,1.600000X1.600000*%
%TD*%
%TA.AperFunction,ComponentPad*%
%ADD16C,2.400000*%
%TD*%
%TA.AperFunction,ComponentPad*%
%ADD17R,1.500000X1.000000*%
%TD*%
%TA.AperFunction,ComponentPad*%
%ADD18O,1.500000X1.000000*%
%TD*%
%TA.AperFunction,ComponentPad*%
%ADD19R,2.600000X2.000000*%
%TD*%
%TA.AperFunction,ComponentPad*%
%ADD20R,2.000000X2.600000*%
%TD*%
%TA.AperFunction,ViaPad*%
%ADD21C,0.800000*%
%TD*%
%TA.AperFunction,Conductor*%
%ADD22C,0.254000*%
%TD*%
%TA.AperFunction,Conductor*%
%ADD23C,0.100000*%
%TD*%
G04 APERTURE END LIST*
D10*
%TO.P,U1,7*%
%TO.N,/EFFECT_OUT*%
X94700000Y-130800000D03*
%TO.P,U1,9*%
%TO.N,/PassThru*%
X94700000Y-140400000D03*
%TO.P,U1,8*%
%TO.N,/SIG_OUT*%
X94700000Y-135600000D03*
%TO.P,U1,1*%
%TO.N,Net-(D2-Pad1)*%
X105300000Y-130800000D03*
%TO.P,U1,3*%
%TO.N,Net-(U1-Pad3)*%
X105300000Y-140400000D03*
%TO.P,U1,2*%
%TO.N,GND*%
X105300000Y-135600000D03*
%TO.P,U1,4*%
%TO.N,/PassThru*%
X100000000Y-130799400D03*
%TO.P,U1,5*%
%TO.N,/SIG_IN*%
X100000000Y-135600000D03*
%TO.P,U1,6*%
%TO.N,Net-(U1-Pad3)*%
X100000000Y-140400600D03*
%TD*%
D11*
%TO.P,J6,1*%
%TO.N,Net-(J6-Pad1)*%
X93325000Y-83350000D03*
D12*
%TO.P,J6,2*%
%TO.N,VCC*%
X90785000Y-83350000D03*
%TO.P,J6,3*%
%TO.N,Net-(C9-Pad2)*%
X88245000Y-83350000D03*
%TD*%
D13*
%TO.P,D2,1*%
%TO.N,Net-(D2-Pad1)*%
X98750000Y-105750000D03*
D10*
%TO.P,D2,2*%
%TO.N,Net-(D2-Pad2)*%
X101290000Y-105750000D03*
%TD*%
D14*
%TO.P,D4,2*%
%TO.N,Net-(C5-Pad1)*%
X114310000Y-80160000D03*
D15*
%TO.P,D4,1*%
%TO.N,Net-(C5-Pad2)*%
X114310000Y-77620000D03*
%TD*%
D14*
%TO.P,D3,2*%
%TO.N,Net-(C5-Pad2)*%
X111720000Y-77600000D03*
D15*
%TO.P,D3,1*%
%TO.N,Net-(C5-Pad1)*%
X111720000Y-80140000D03*
%TD*%
D14*
%TO.P,D1,2*%
%TO.N,GND*%
X93670000Y-67300000D03*
D15*
%TO.P,D1,1*%
%TO.N,+9V*%
X91130000Y-67300000D03*
%TD*%
D16*
%TO.P,J1,T*%
%TO.N,/PassThru*%
X100600000Y-123500000D03*
%TO.P,J1,S*%
%TO.N,GND*%
X87900000Y-123500000D03*
%TO.P,J1,TN*%
X100600000Y-112100000D03*
%TO.P,J1,SN*%
X87900000Y-112100000D03*
%TD*%
D17*
%TO.P,Q2,1*%
%TO.N,/drive/IN*%
X109700000Y-125020000D03*
D18*
%TO.P,Q2,3*%
%TO.N,+9V*%
X109700000Y-122480000D03*
%TO.P,Q2,2*%
%TO.N,Net-(Q2-Pad2)*%
X109700000Y-123750000D03*
%TD*%
D17*
%TO.P,Q1,1*%
%TO.N,Net-(Q1-Pad1)*%
X88825000Y-92940000D03*
D18*
%TO.P,Q1,3*%
%TO.N,+9V*%
X88825000Y-90400000D03*
%TO.P,Q1,2*%
%TO.N,Net-(C9-Pad1)*%
X88825000Y-91670000D03*
%TD*%
D12*
%TO.P,J5,3*%
%TO.N,Net-(J5-Pad3)*%
X97375000Y-79750000D03*
%TO.P,J5,2*%
%TO.N,Net-(C7-Pad1)*%
X99915000Y-79750000D03*
D11*
%TO.P,J5,1*%
%TO.N,/tone/IN*%
X102455000Y-79750000D03*
%TD*%
D12*
%TO.P,J4,3*%
%TO.N,Net-(C5-Pad1)*%
X106620000Y-83600000D03*
%TO.P,J4,2*%
%TO.N,N/C*%
X109160000Y-83600000D03*
D11*
%TO.P,J4,1*%
%TO.N,Net-(J4-Pad1)*%
X111700000Y-83600000D03*
%TD*%
D16*
%TO.P,J3,T*%
%TO.N,/SIG_OUT*%
X99400000Y-88100000D03*
%TO.P,J3,S*%
%TO.N,GND*%
X112100000Y-88100000D03*
%TO.P,J3,TN*%
%TO.N,N/C*%
X99400000Y-99500000D03*
%TO.P,J3,SN*%
X112100000Y-99500000D03*
%TD*%
D19*
%TO.P,J2,2*%
%TO.N,+9V*%
X100000000Y-61400000D03*
%TO.P,J2,1*%
%TO.N,GND*%
X100000000Y-67400000D03*
D20*
%TO.P,J2,3*%
X95300000Y-64400000D03*
%TD*%
D21*
%TO.N,+9V*%
X104450000Y-109050000D03*
%TO.N,/EFFECT_OUT*%
X89330000Y-102740000D03*
%TO.N,VCC*%
X104170000Y-102920000D03*
X116400000Y-123830000D03*
X105960000Y-124210000D03*
%TO.N,Net-(C4-Pad2)*%
X108570000Y-95240000D03*
X113150000Y-122460000D03*
%TO.N,Net-(C5-Pad2)*%
X114950000Y-86910000D03*
X111060000Y-92530000D03*
%TO.N,Net-(C5-Pad1)*%
X111730000Y-97490000D03*
X108570000Y-91980000D03*
%TO.N,/tone/IN*%
X101570000Y-97150000D03*
%TO.N,/volume/IN*%
X94740000Y-91385000D03*
X99360000Y-91385000D03*
%TO.N,Net-(J5-Pad3)*%
X99300000Y-96640000D03*
%TD*%
D22*
%TO.N,GND*%
X110262308Y-56389723D02*
X110273787Y-56393201D01*
X110284389Y-56398866D01*
X110293585Y-56406412D01*
X110301133Y-56415611D01*
X110306798Y-56426214D01*
X110310276Y-56437690D01*
X110315001Y-56485735D01*
X110315000Y-58736104D01*
X110318242Y-58769023D01*
X110318103Y-58788955D01*
X110319104Y-58799168D01*
X110384385Y-59420277D01*
X110397791Y-59485584D01*
X110410264Y-59550970D01*
X110413229Y-59560795D01*
X110597908Y-60157395D01*
X110623746Y-60218862D01*
X110648679Y-60280573D01*
X110653496Y-60289634D01*
X110950538Y-60839001D01*
X110987798Y-60894240D01*
X111024267Y-60949971D01*
X111030753Y-60957924D01*
X111428844Y-61439133D01*
X111476134Y-61486094D01*
X111522722Y-61533668D01*
X111530629Y-61540210D01*
X112014605Y-61934931D01*
X112070113Y-61971811D01*
X112125059Y-62009433D01*
X112134086Y-62014315D01*
X112685514Y-62307514D01*
X112747141Y-62332915D01*
X112808334Y-62359142D01*
X112818137Y-62362177D01*
X113416012Y-62542686D01*
X113481411Y-62555635D01*
X113546520Y-62569475D01*
X113556726Y-62570548D01*
X114178276Y-62631492D01*
X114213894Y-62635000D01*
X116464284Y-62635000D01*
X116512308Y-62639723D01*
X116523787Y-62643201D01*
X116534389Y-62648866D01*
X116543585Y-62656412D01*
X116551133Y-62665611D01*
X116556798Y-62676214D01*
X116560276Y-62687690D01*
X116565001Y-62735735D01*
X116564999Y-122807543D01*
X116501939Y-122795000D01*
X116298061Y-122795000D01*
X116098102Y-122834774D01*
X115909744Y-122912795D01*
X115740226Y-123026063D01*
X115596063Y-123170226D01*
X115482795Y-123339744D01*
X115404774Y-123528102D01*
X115365000Y-123728061D01*
X115365000Y-123931939D01*
X115404774Y-124131898D01*
X115482795Y-124320256D01*
X115596063Y-124489774D01*
X115740226Y-124633937D01*
X115909744Y-124747205D01*
X116098102Y-124825226D01*
X116298061Y-124865000D01*
X116501939Y-124865000D01*
X116564999Y-124852457D01*
X116564999Y-137214284D01*
X116560276Y-137262309D01*
X116556798Y-137273785D01*
X116551133Y-137284388D01*
X116543585Y-137293587D01*
X116534389Y-137301133D01*
X116523787Y-137306798D01*
X116512308Y-137310276D01*
X116464274Y-137315000D01*
X114213895Y-137315000D01*
X114180943Y-137318245D01*
X114160696Y-137318104D01*
X114150483Y-137319105D01*
X113519669Y-137385406D01*
X113454362Y-137398812D01*
X113388976Y-137411285D01*
X113379151Y-137414250D01*
X112773228Y-137601816D01*
X112711813Y-137627633D01*
X112650052Y-137652586D01*
X112640991Y-137657403D01*
X112083039Y-137959086D01*
X112027784Y-137996356D01*
X111972069Y-138032815D01*
X111964116Y-138039301D01*
X111475388Y-138443612D01*
X111428411Y-138490918D01*
X111380853Y-138537490D01*
X111374311Y-138545397D01*
X110973422Y-139036935D01*
X110936543Y-139092443D01*
X110898921Y-139147388D01*
X110894040Y-139156415D01*
X110596259Y-139716459D01*
X110570861Y-139778079D01*
X110544630Y-139839280D01*
X110541596Y-139849079D01*
X110541596Y-139849081D01*
X110541595Y-139849083D01*
X110358266Y-140456300D01*
X110345323Y-140521668D01*
X110331477Y-140586809D01*
X110330404Y-140597015D01*
X110268508Y-141228276D01*
X110268508Y-141228287D01*
X110265001Y-141263895D01*
X110265000Y-143514274D01*
X110260276Y-143562309D01*
X110256798Y-143573785D01*
X110251133Y-143584388D01*
X110243585Y-143593587D01*
X110234389Y-143601133D01*
X110223787Y-143606798D01*
X110212308Y-143610276D01*
X110164274Y-143615000D01*
X89735725Y-143615000D01*
X89687690Y-143610276D01*
X89676214Y-143606798D01*
X89665611Y-143601133D01*
X89656412Y-143593585D01*
X89648866Y-143584389D01*
X89643201Y-143573787D01*
X89639723Y-143562308D01*
X89634999Y-143514274D01*
X89634999Y-141263895D01*
X89631761Y-141231018D01*
X89631898Y-141211394D01*
X89630897Y-141201181D01*
X89566636Y-140589777D01*
X89553235Y-140524493D01*
X89540758Y-140459085D01*
X89537792Y-140449260D01*
X89472696Y-140238967D01*
X93065000Y-140238967D01*
X93065000Y-140561033D01*
X93127832Y-140876912D01*
X93251082Y-141174463D01*
X93430013Y-141442252D01*
X93657748Y-141669987D01*
X93925537Y-141848918D01*
X94223088Y-141972168D01*
X94538967Y-142035000D01*
X94861033Y-142035000D01*
X95176912Y-141972168D01*
X95474463Y-141848918D01*
X95742252Y-141669987D01*
X95969987Y-141442252D01*
X96148918Y-141174463D01*
X96272168Y-140876912D01*
X96335000Y-140561033D01*
X96335000Y-140239567D01*
X98365000Y-140239567D01*
X98365000Y-140561633D01*
X98427832Y-140877512D01*
X98551082Y-141175063D01*
X98730013Y-141442852D01*
X98957748Y-141670587D01*
X99225537Y-141849518D01*
X99523088Y-141972768D01*
X99838967Y-142035600D01*
X100161033Y-142035600D01*
X100476912Y-141972768D01*
X100774463Y-141849518D01*
X101042252Y-141670587D01*
X101269987Y-141442852D01*
X101448918Y-141175063D01*
X101572168Y-140877512D01*
X101635000Y-140561633D01*
X101635000Y-140239567D01*
X101634881Y-140238967D01*
X103665000Y-140238967D01*
X103665000Y-140561033D01*
X103727832Y-140876912D01*
X103851082Y-141174463D01*
X104030013Y-141442252D01*
X104257748Y-141669987D01*
X104525537Y-141848918D01*
X104823088Y-141972168D01*
X105138967Y-142035000D01*
X105461033Y-142035000D01*
X105776912Y-141972168D01*
X106074463Y-141848918D01*
X106342252Y-141669987D01*
X106569987Y-141442252D01*
X106748918Y-141174463D01*
X106872168Y-140876912D01*
X106935000Y-140561033D01*
X106935000Y-140238967D01*
X106872168Y-139923088D01*
X106748918Y-139625537D01*
X106569987Y-139357748D01*
X106342252Y-139130013D01*
X106074463Y-138951082D01*
X105776912Y-138827832D01*
X105461033Y-138765000D01*
X105138967Y-138765000D01*
X104823088Y-138827832D01*
X104525537Y-138951082D01*
X104257748Y-139130013D01*
X104030013Y-139357748D01*
X103851082Y-139625537D01*
X103727832Y-139923088D01*
X103665000Y-140238967D01*
X101634881Y-140238967D01*
X101572168Y-139923688D01*
X101448918Y-139626137D01*
X101269987Y-139358348D01*
X101042252Y-139130613D01*
X100774463Y-138951682D01*
X100476912Y-138828432D01*
X100161033Y-138765600D01*
X99838967Y-138765600D01*
X99523088Y-138828432D01*
X99225537Y-138951682D01*
X98957748Y-139130613D01*
X98730013Y-139358348D01*
X98551082Y-139626137D01*
X98427832Y-139923688D01*
X98365000Y-140239567D01*
X96335000Y-140239567D01*
X96335000Y-140238967D01*
X96272168Y-139923088D01*
X96148918Y-139625537D01*
X95969987Y-139357748D01*
X95742252Y-139130013D01*
X95474463Y-138951082D01*
X95176912Y-138827832D01*
X94861033Y-138765000D01*
X94538967Y-138765000D01*
X94223088Y-138827832D01*
X93925537Y-138951082D01*
X93657748Y-139130013D01*
X93430013Y-139357748D01*
X93251082Y-139625537D01*
X93127832Y-139923088D01*
X93065000Y-140238967D01*
X89472696Y-140238967D01*
X89355999Y-139861981D01*
X89330166Y-139800526D01*
X89305228Y-139738803D01*
X89300411Y-139729742D01*
X89008010Y-139188958D01*
X88970733Y-139133694D01*
X88934281Y-139077989D01*
X88927796Y-139070036D01*
X88535925Y-138596346D01*
X88488654Y-138549403D01*
X88442046Y-138501809D01*
X88434145Y-138495273D01*
X88434140Y-138495268D01*
X88434135Y-138495264D01*
X87957724Y-138106713D01*
X87902200Y-138069823D01*
X87847272Y-138032213D01*
X87838248Y-138027333D01*
X87838240Y-138027329D01*
X87295434Y-137738714D01*
X87233828Y-137713321D01*
X87172614Y-137687085D01*
X87162811Y-137684050D01*
X86574276Y-137506361D01*
X86508895Y-137493415D01*
X86443767Y-137479572D01*
X86433563Y-137478499D01*
X86433561Y-137478499D01*
X85821723Y-137418508D01*
X85786105Y-137415000D01*
X83535725Y-137415000D01*
X83487690Y-137410276D01*
X83476214Y-137406798D01*
X83465611Y-137401133D01*
X83456412Y-137393585D01*
X83448866Y-137384389D01*
X83443201Y-137373787D01*
X83439723Y-137362308D01*
X83435000Y-137314284D01*
X83435000Y-135438967D01*
X93065000Y-135438967D01*
X93065000Y-135761033D01*
X93127832Y-136076912D01*
X93251082Y-136374463D01*
X93430013Y-136642252D01*
X93657748Y-136869987D01*
X93925537Y-137048918D01*
X94223088Y-137172168D01*
X94538967Y-137235000D01*
X94861033Y-137235000D01*
X95176912Y-137172168D01*
X95474463Y-137048918D01*
X95742252Y-136869987D01*
X95969987Y-136642252D01*
X96148918Y-136374463D01*
X96272168Y-136076912D01*
X96335000Y-135761033D01*
X96335000Y-135438967D01*
X98365000Y-135438967D01*
X98365000Y-135761033D01*
X98427832Y-136076912D01*
X98551082Y-136374463D01*
X98730013Y-136642252D01*
X98957748Y-136869987D01*
X99225537Y-137048918D01*
X99523088Y-137172168D01*
X99838967Y-137235000D01*
X100161033Y-137235000D01*
X100476912Y-137172168D01*
X100774463Y-137048918D01*
X101042252Y-136869987D01*
X101176826Y-136735413D01*
X104344192Y-136735413D01*
X104439956Y-136999814D01*
X104729571Y-137140704D01*
X105041108Y-137222384D01*
X105362595Y-137241718D01*
X105681675Y-137197961D01*
X105986088Y-137092795D01*
X106160044Y-136999814D01*
X106255808Y-136735413D01*
X105300000Y-135779605D01*
X104344192Y-136735413D01*
X101176826Y-136735413D01*
X101269987Y-136642252D01*
X101448918Y-136374463D01*
X101572168Y-136076912D01*
X101635000Y-135761033D01*
X101635000Y-135662595D01*
X103658282Y-135662595D01*
X103702039Y-135981675D01*
X103807205Y-136286088D01*
X103900186Y-136460044D01*
X104164587Y-136555808D01*
X105120395Y-135600000D01*
X105479605Y-135600000D01*
X106435413Y-136555808D01*
X106699814Y-136460044D01*
X106840704Y-136170429D01*
X106922384Y-135858892D01*
X106941718Y-135537405D01*
X106897961Y-135218325D01*
X106792795Y-134913912D01*
X106699814Y-134739956D01*
X106435413Y-134644192D01*
X105479605Y-135600000D01*
X105120395Y-135600000D01*
X104164587Y-134644192D01*
X103900186Y-134739956D01*
X103759296Y-135029571D01*
X103677616Y-135341108D01*
X103658282Y-135662595D01*
X101635000Y-135662595D01*
X101635000Y-135438967D01*
X101572168Y-135123088D01*
X101448918Y-134825537D01*
X101269987Y-134557748D01*
X101176826Y-134464587D01*
X104344192Y-134464587D01*
X105300000Y-135420395D01*
X106255808Y-134464587D01*
X106160044Y-134200186D01*
X105870429Y-134059296D01*
X105558892Y-133977616D01*
X105237405Y-133958282D01*
X104918325Y-134002039D01*
X104613912Y-134107205D01*
X104439956Y-134200186D01*
X104344192Y-134464587D01*
X101176826Y-134464587D01*
X101042252Y-134330013D01*
X100774463Y-134151082D01*
X100476912Y-134027832D01*
X100161033Y-133965000D01*
X99838967Y-133965000D01*
X99523088Y-134027832D01*
X99225537Y-134151082D01*
X98957748Y-134330013D01*
X98730013Y-134557748D01*
X98551082Y-134825537D01*
X98427832Y-135123088D01*
X98365000Y-135438967D01*
X96335000Y-135438967D01*
X96272168Y-135123088D01*
X96148918Y-134825537D01*
X95969987Y-134557748D01*
X95742252Y-134330013D01*
X95474463Y-134151082D01*
X95176912Y-134027832D01*
X94861033Y-133965000D01*
X94538967Y-133965000D01*
X94223088Y-134027832D01*
X93925537Y-134151082D01*
X93657748Y-134330013D01*
X93430013Y-134557748D01*
X93251082Y-134825537D01*
X93127832Y-135123088D01*
X93065000Y-135438967D01*
X83435000Y-135438967D01*
X83435000Y-130638967D01*
X93065000Y-130638967D01*
X93065000Y-130961033D01*
X93127832Y-131276912D01*
X93251082Y-131574463D01*
X93430013Y-131842252D01*
X93657748Y-132069987D01*
X93925537Y-132248918D01*
X94223088Y-132372168D01*
X94538967Y-132435000D01*
X94861033Y-132435000D01*
X95176912Y-132372168D01*
X95474463Y-132248918D01*
X95742252Y-132069987D01*
X95969987Y-131842252D01*
X96148918Y-131574463D01*
X96272168Y-131276912D01*
X96335000Y-130961033D01*
X96335000Y-130638967D01*
X96334881Y-130638367D01*
X98365000Y-130638367D01*
X98365000Y-130960433D01*
X98427832Y-131276312D01*
X98551082Y-131573863D01*
X98730013Y-131841652D01*
X98957748Y-132069387D01*
X99225537Y-132248318D01*
X99523088Y-132371568D01*
X99838967Y-132434400D01*
X100161033Y-132434400D01*
X100476912Y-132371568D01*
X100774463Y-132248318D01*
X101042252Y-132069387D01*
X101269987Y-131841652D01*
X101448918Y-131573863D01*
X101572168Y-131276312D01*
X101635000Y-130960433D01*
X101635000Y-130638967D01*
X103665000Y-130638967D01*
X103665000Y-130961033D01*
X103727832Y-131276912D01*
X103851082Y-131574463D01*
X104030013Y-131842252D01*
X104257748Y-132069987D01*
X104525537Y-132248918D01*
X104823088Y-132372168D01*
X105138967Y-132435000D01*
X105461033Y-132435000D01*
X105776912Y-132372168D01*
X106074463Y-132248918D01*
X106342252Y-132069987D01*
X106569987Y-131842252D01*
X106748918Y-131574463D01*
X106872168Y-131276912D01*
X106935000Y-130961033D01*
X106935000Y-130638967D01*
X106872168Y-130323088D01*
X106748918Y-130025537D01*
X106569987Y-129757748D01*
X106342252Y-129530013D01*
X106074463Y-129351082D01*
X105776912Y-129227832D01*
X105461033Y-129165000D01*
X105138967Y-129165000D01*
X104823088Y-129227832D01*
X104525537Y-129351082D01*
X104257748Y-129530013D01*
X104030013Y-129757748D01*
X103851082Y-130025537D01*
X103727832Y-130323088D01*
X103665000Y-130638967D01*
X101635000Y-130638967D01*
X101635000Y-130638367D01*
X101572168Y-130322488D01*
X101448918Y-130024937D01*
X101269987Y-129757148D01*
X101042252Y-129529413D01*
X100774463Y-129350482D01*
X100476912Y-129227232D01*
X100161033Y-129164400D01*
X99838967Y-129164400D01*
X99523088Y-129227232D01*
X99225537Y-129350482D01*
X98957748Y-129529413D01*
X98730013Y-129757148D01*
X98551082Y-130024937D01*
X98427832Y-130322488D01*
X98365000Y-130638367D01*
X96334881Y-130638367D01*
X96272168Y-130323088D01*
X96148918Y-130025537D01*
X95969987Y-129757748D01*
X95742252Y-129530013D01*
X95474463Y-129351082D01*
X95176912Y-129227832D01*
X94861033Y-129165000D01*
X94538967Y-129165000D01*
X94223088Y-129227832D01*
X93925537Y-129351082D01*
X93657748Y-129530013D01*
X93430013Y-129757748D01*
X93251082Y-130025537D01*
X93127832Y-130323088D01*
X93065000Y-130638967D01*
X83435000Y-130638967D01*
X83435000Y-124777980D01*
X86801626Y-124777980D01*
X86921514Y-125062836D01*
X87245210Y-125223699D01*
X87594069Y-125318322D01*
X87954684Y-125343067D01*
X88313198Y-125296985D01*
X88655833Y-125181846D01*
X88878486Y-125062836D01*
X88998374Y-124777980D01*
X87900000Y-123679605D01*
X86801626Y-124777980D01*
X83435000Y-124777980D01*
X83435000Y-123554684D01*
X86056933Y-123554684D01*
X86103015Y-123913198D01*
X86218154Y-124255833D01*
X86337164Y-124478486D01*
X86622020Y-124598374D01*
X87720395Y-123500000D01*
X88079605Y-123500000D01*
X89177980Y-124598374D01*
X89462836Y-124478486D01*
X89623699Y-124154790D01*
X89718322Y-123805931D01*
X89743067Y-123445316D01*
X89726866Y-123319268D01*
X98765000Y-123319268D01*
X98765000Y-123680732D01*
X98835518Y-124035250D01*
X98973844Y-124369199D01*
X99174662Y-124669744D01*
X99430256Y-124925338D01*
X99730801Y-125126156D01*
X100064750Y-125264482D01*
X100419268Y-125335000D01*
X100780732Y-125335000D01*
X101135250Y-125264482D01*
X101469199Y-125126156D01*
X101769744Y-124925338D01*
X102025338Y-124669744D01*
X102226156Y-124369199D01*
X102334322Y-124108061D01*
X104925000Y-124108061D01*
X104925000Y-124311939D01*
X104964774Y-124511898D01*
X105042795Y-124700256D01*
X105156063Y-124869774D01*
X105300226Y-125013937D01*
X105469744Y-125127205D01*
X105658102Y-125205226D01*
X105858061Y-125245000D01*
X106061939Y-125245000D01*
X106261898Y-125205226D01*
X106450256Y-125127205D01*
X106619774Y-125013937D01*
X106763937Y-124869774D01*
X106877205Y-124700256D01*
X106955226Y-124511898D01*
X106995000Y-124311939D01*
X106995000Y-124108061D01*
X106955226Y-123908102D01*
X106877205Y-123719744D01*
X106763937Y-123550226D01*
X106619774Y-123406063D01*
X106450256Y-123292795D01*
X106261898Y-123214774D01*
X106061939Y-123175000D01*
X105858061Y-123175000D01*
X105658102Y-123214774D01*
X105469744Y-123292795D01*
X105300226Y-123406063D01*
X105156063Y-123550226D01*
X105042795Y-123719744D01*
X104964774Y-123908102D01*
X104925000Y-124108061D01*
X102334322Y-124108061D01*
X102364482Y-124035250D01*
X102435000Y-123680732D01*
X102435000Y-123319268D01*
X102364482Y-122964750D01*
X102226156Y-122630801D01*
X102125394Y-122480000D01*
X108309509Y-122480000D01*
X108331423Y-122702499D01*
X108396324Y-122916447D01*
X108501716Y-123113623D01*
X108502846Y-123115000D01*
X108501716Y-123116377D01*
X108396324Y-123313553D01*
X108331423Y-123527501D01*
X108309509Y-123750000D01*
X108331423Y-123972499D01*
X108396324Y-124186447D01*
X108402297Y-124197621D01*
X108360498Y-124275820D01*
X108324188Y-124395518D01*
X108311928Y-124520000D01*
X108311928Y-125520000D01*
X108324188Y-125644482D01*
X108360498Y-125764180D01*
X108419463Y-125874494D01*
X108498815Y-125971185D01*
X108595506Y-126050537D01*
X108705820Y-126109502D01*
X108825518Y-126145812D01*
X108950000Y-126158072D01*
X110450000Y-126158072D01*
X110574482Y-126145812D01*
X110694180Y-126109502D01*
X110804494Y-126050537D01*
X110901185Y-125971185D01*
X110980537Y-125874494D01*
X111039502Y-125764180D01*
X111075812Y-125644482D01*
X111088072Y-125520000D01*
X111088072Y-124520000D01*
X111075812Y-124395518D01*
X111039502Y-124275820D01*
X110997703Y-124197621D01*
X111003676Y-124186447D01*
X111068577Y-123972499D01*
X111090491Y-123750000D01*
X111068577Y-123527501D01*
X111003676Y-123313553D01*
X110898284Y-123116377D01*
X110897154Y-123115000D01*
X110898284Y-123113623D01*
X111003676Y-122916447D01*
X111068577Y-122702499D01*
X111090491Y-122480000D01*
X111078482Y-122358061D01*
X112115000Y-122358061D01*
X112115000Y-122561939D01*
X112154774Y-122761898D01*
X112232795Y-122950256D01*
X112346063Y-123119774D01*
X112490226Y-123263937D01*
X112659744Y-123377205D01*
X112848102Y-123455226D01*
X113048061Y-123495000D01*
X113251939Y-123495000D01*
X113451898Y-123455226D01*
X113640256Y-123377205D01*
X113809774Y-123263937D01*
X113953937Y-123119774D01*
X114067205Y-122950256D01*
X114145226Y-122761898D01*
X114185000Y-122561939D01*
X114185000Y-122358061D01*
X114145226Y-122158102D01*
X114067205Y-121969744D01*
X113953937Y-121800226D01*
X113809774Y-121656063D01*
X113640256Y-121542795D01*
X113451898Y-121464774D01*
X113251939Y-121425000D01*
X113048061Y-121425000D01*
X112848102Y-121464774D01*
X112659744Y-121542795D01*
X112490226Y-121656063D01*
X112346063Y-121800226D01*
X112232795Y-121969744D01*
X112154774Y-122158102D01*
X112115000Y-122358061D01*
X111078482Y-122358061D01*
X111068577Y-122257501D01*
X111003676Y-122043553D01*
X110898284Y-121846377D01*
X110756449Y-121673551D01*
X110583623Y-121531716D01*
X110386447Y-121426324D01*
X110172499Y-121361423D01*
X110005752Y-121345000D01*
X109394248Y-121345000D01*
X109227501Y-121361423D01*
X109013553Y-121426324D01*
X108816377Y-121531716D01*
X108643551Y-121673551D01*
X108501716Y-121846377D01*
X108396324Y-122043553D01*
X108331423Y-122257501D01*
X108309509Y-122480000D01*
X102125394Y-122480000D01*
X102025338Y-122330256D01*
X101769744Y-122074662D01*
X101469199Y-121873844D01*
X101135250Y-121735518D01*
X100780732Y-121665000D01*
X100419268Y-121665000D01*
X100064750Y-121735518D01*
X99730801Y-121873844D01*
X99430256Y-122074662D01*
X99174662Y-122330256D01*
X98973844Y-122630801D01*
X98835518Y-122964750D01*
X98765000Y-123319268D01*
X89726866Y-123319268D01*
X89696985Y-123086802D01*
X89581846Y-122744167D01*
X89462836Y-122521514D01*
X89177980Y-122401626D01*
X88079605Y-123500000D01*
X87720395Y-123500000D01*
X86622020Y-122401626D01*
X86337164Y-122521514D01*
X86176301Y-122845210D01*
X86081678Y-123194069D01*
X86056933Y-123554684D01*
X83435000Y-123554684D01*
X83435000Y-122222020D01*
X86801626Y-122222020D01*
X87900000Y-123320395D01*
X88998374Y-122222020D01*
X88878486Y-121937164D01*
X88554790Y-121776301D01*
X88205931Y-121681678D01*
X87845316Y-121656933D01*
X87486802Y-121703015D01*
X87144167Y-121818154D01*
X86921514Y-121937164D01*
X86801626Y-122222020D01*
X83435000Y-122222020D01*
X83435000Y-113377980D01*
X86801626Y-113377980D01*
X86921514Y-113662836D01*
X87245210Y-113823699D01*
X87594069Y-113918322D01*
X87954684Y-113943067D01*
X88313198Y-113896985D01*
X88655833Y-113781846D01*
X88878486Y-113662836D01*
X88998374Y-113377980D01*
X99501626Y-113377980D01*
X99621514Y-113662836D01*
X99945210Y-113823699D01*
X100294069Y-113918322D01*
X100654684Y-113943067D01*
X101013198Y-113896985D01*
X101355833Y-113781846D01*
X101578486Y-113662836D01*
X101698374Y-113377980D01*
X100600000Y-112279605D01*
X99501626Y-113377980D01*
X88998374Y-113377980D01*
X87900000Y-112279605D01*
X86801626Y-113377980D01*
X83435000Y-113377980D01*
X83435000Y-112154684D01*
X86056933Y-112154684D01*
X86103015Y-112513198D01*
X86218154Y-112855833D01*
X86337164Y-113078486D01*
X86622020Y-113198374D01*
X87720395Y-112100000D01*
X88079605Y-112100000D01*
X89177980Y-113198374D01*
X89462836Y-113078486D01*
X89623699Y-112754790D01*
X89718322Y-112405931D01*
X89735562Y-112154684D01*
X98756933Y-112154684D01*
X98803015Y-112513198D01*
X98918154Y-112855833D01*
X99037164Y-113078486D01*
X99322020Y-113198374D01*
X100420395Y-112100000D01*
X100779605Y-112100000D01*
X101877980Y-113198374D01*
X102162836Y-113078486D01*
X102323699Y-112754790D01*
X102418322Y-112405931D01*
X102443067Y-112045316D01*
X102396985Y-111686802D01*
X102281846Y-111344167D01*
X102162836Y-111121514D01*
X101877980Y-111001626D01*
X100779605Y-112100000D01*
X100420395Y-112100000D01*
X99322020Y-111001626D01*
X99037164Y-111121514D01*
X98876301Y-111445210D01*
X98781678Y-111794069D01*
X98756933Y-112154684D01*
X89735562Y-112154684D01*
X89743067Y-112045316D01*
X89696985Y-111686802D01*
X89581846Y-111344167D01*
X89462836Y-111121514D01*
X89177980Y-111001626D01*
X88079605Y-112100000D01*
X87720395Y-112100000D01*
X86622020Y-111001626D01*
X86337164Y-111121514D01*
X86176301Y-111445210D01*
X86081678Y-111794069D01*
X86056933Y-112154684D01*
X83435000Y-112154684D01*
X83435000Y-110822020D01*
X86801626Y-110822020D01*
X87900000Y-111920395D01*
X88998374Y-110822020D01*
X99501626Y-110822020D01*
X100600000Y-111920395D01*
X101698374Y-110822020D01*
X101578486Y-110537164D01*
X101254790Y-110376301D01*
X100905931Y-110281678D01*
X100545316Y-110256933D01*
X100186802Y-110303015D01*
X99844167Y-110418154D01*
X99621514Y-110537164D01*
X99501626Y-110822020D01*
X88998374Y-110822020D01*
X88878486Y-110537164D01*
X88554790Y-110376301D01*
X88205931Y-110281678D01*
X87845316Y-110256933D01*
X87486802Y-110303015D01*
X87144167Y-110418154D01*
X86921514Y-110537164D01*
X86801626Y-110822020D01*
X83435000Y-110822020D01*
X83435000Y-108948061D01*
X103415000Y-108948061D01*
X103415000Y-109151939D01*
X103454774Y-109351898D01*
X103532795Y-109540256D01*
X103646063Y-109709774D01*
X103790226Y-109853937D01*
X103959744Y-109967205D01*
X104148102Y-110045226D01*
X104348061Y-110085000D01*
X104551939Y-110085000D01*
X104751898Y-110045226D01*
X104940256Y-109967205D01*
X105109774Y-109853937D01*
X105253937Y-109709774D01*
X105367205Y-109540256D01*
X105445226Y-109351898D01*
X105485000Y-109151939D01*
X105485000Y-108948061D01*
X105445226Y-108748102D01*
X105367205Y-108559744D01*
X105253937Y-108390226D01*
X105109774Y-108246063D01*
X104940256Y-108132795D01*
X104751898Y-108054774D01*
X104551939Y-108015000D01*
X104348061Y-108015000D01*
X104148102Y-108054774D01*
X103959744Y-108132795D01*
X103790226Y-108246063D01*
X103646063Y-108390226D01*
X103532795Y-108559744D01*
X103454774Y-108748102D01*
X103415000Y-108948061D01*
X83435000Y-108948061D01*
X83435000Y-104744224D01*
X85708230Y-104744224D01*
X85708230Y-105186282D01*
X85794472Y-105619845D01*
X85963640Y-106028253D01*
X86209233Y-106395810D01*
X86521815Y-106708392D01*
X86889372Y-106953985D01*
X87297780Y-107123153D01*
X87731343Y-107209395D01*
X88173401Y-107209395D01*
X88606964Y-107123153D01*
X89015372Y-106953985D01*
X89382929Y-106708392D01*
X89695511Y-106395810D01*
X89941104Y-106028253D01*
X90110272Y-105619845D01*
X90196514Y-105186282D01*
X90196514Y-104750000D01*
X97111928Y-104750000D01*
X97111928Y-106750000D01*
X97124188Y-106874482D01*
X97160498Y-106994180D01*
X97219463Y-107104494D01*
X97298815Y-107201185D01*
X97395506Y-107280537D01*
X97505820Y-107339502D01*
X97625518Y-107375812D01*
X97750000Y-107388072D01*
X99750000Y-107388072D01*
X99874482Y-107375812D01*
X99994180Y-107339502D01*
X100104494Y-107280537D01*
X100201185Y-107201185D01*
X100280537Y-107104494D01*
X100305191Y-107058370D01*
X100515537Y-107198918D01*
X100813088Y-107322168D01*
X101128967Y-107385000D01*
X101451033Y-107385000D01*
X101766912Y-107322168D01*
X102064463Y-107198918D01*
X102332252Y-107019987D01*
X102559987Y-106792252D01*
X102738918Y-106524463D01*
X102862168Y-106226912D01*
X102925000Y-105911033D01*
X102925000Y-105588967D01*
X102862168Y-105273088D01*
X102738918Y-104975537D01*
X102584360Y-104744224D01*
X110203485Y-104744224D01*
X110203485Y-105186282D01*
X110289727Y-105619845D01*
X110458895Y-106028253D01*
X110704488Y-106395810D01*
X111017070Y-106708392D01*
X111384627Y-106953985D01*
X111793035Y-107123153D01*
X112226598Y-107209395D01*
X112668656Y-107209395D01*
X113102219Y-107123153D01*
X113510627Y-106953985D01*
X113878184Y-106708392D01*
X114190766Y-106395810D01*
X114436359Y-106028253D01*
X114605527Y-105619845D01*
X114691769Y-105186282D01*
X114691769Y-104744224D01*
X114605527Y-104310661D01*
X114436359Y-103902253D01*
X114190766Y-103534696D01*
X113878184Y-103222114D01*
X113510627Y-102976521D01*
X113102219Y-102807353D01*
X112668656Y-102721111D01*
X112226598Y-102721111D01*
X111793035Y-102807353D01*
X111384627Y-102976521D01*
X111017070Y-103222114D01*
X110704488Y-103534696D01*
X110458895Y-103902253D01*
X110289727Y-104310661D01*
X110203485Y-104744224D01*
X102584360Y-104744224D01*
X102559987Y-104707748D01*
X102332252Y-104480013D01*
X102064463Y-104301082D01*
X101766912Y-104177832D01*
X101451033Y-104115000D01*
X101128967Y-104115000D01*
X100813088Y-104177832D01*
X100515537Y-104301082D01*
X100305191Y-104441630D01*
X100280537Y-104395506D01*
X100201185Y-104298815D01*
X100104494Y-104219463D01*
X99994180Y-104160498D01*
X99874482Y-104124188D01*
X99750000Y-104111928D01*
X97750000Y-104111928D01*
X97625518Y-104124188D01*
X97505820Y-104160498D01*
X97395506Y-104219463D01*
X97298815Y-104298815D01*
X97219463Y-104395506D01*
X97160498Y-104505820D01*
X97124188Y-104625518D01*
X97111928Y-104750000D01*
X90196514Y-104750000D01*
X90196514Y-104744224D01*
X90110272Y-104310661D01*
X89941104Y-103902253D01*
X89786665Y-103671119D01*
X89820256Y-103657205D01*
X89989774Y-103543937D01*
X90133937Y-103399774D01*
X90247205Y-103230256D01*
X90325226Y-103041898D01*
X90365000Y-102841939D01*
X90365000Y-102818061D01*
X103135000Y-102818061D01*
X103135000Y-103021939D01*
X103174774Y-103221898D01*
X103252795Y-103410256D01*
X103366063Y-103579774D01*
X103510226Y-103723937D01*
X103679744Y-103837205D01*
X103868102Y-103915226D01*
X104068061Y-103955000D01*
X104271939Y-103955000D01*
X104471898Y-103915226D01*
X104660256Y-103837205D01*
X104829774Y-103723937D01*
X104973937Y-103579774D01*
X105087205Y-103410256D01*
X105165226Y-103221898D01*
X105205000Y-103021939D01*
X105205000Y-102818061D01*
X105165226Y-102618102D01*
X105087205Y-102429744D01*
X104973937Y-102260226D01*
X104829774Y-102116063D01*
X104660256Y-102002795D01*
X104471898Y-101924774D01*
X104271939Y-101885000D01*
X104068061Y-101885000D01*
X103868102Y-101924774D01*
X103679744Y-102002795D01*
X103510226Y-102116063D01*
X103366063Y-102260226D01*
X103252795Y-102429744D01*
X103174774Y-102618102D01*
X103135000Y-102818061D01*
X90365000Y-102818061D01*
X90365000Y-102638061D01*
X90325226Y-102438102D01*
X90247205Y-102249744D01*
X90133937Y-102080226D01*
X89989774Y-101936063D01*
X89820256Y-101822795D01*
X89631898Y-101744774D01*
X89431939Y-101705000D01*
X89228061Y-101705000D01*
X89028102Y-101744774D01*
X88839744Y-101822795D01*
X88670226Y-101936063D01*
X88526063Y-102080226D01*
X88412795Y-102249744D01*
X88334774Y-102438102D01*
X88295000Y-102638061D01*
X88295000Y-102745299D01*
X88173401Y-102721111D01*
X87731343Y-102721111D01*
X87297780Y-102807353D01*
X86889372Y-102976521D01*
X86521815Y-103222114D01*
X86209233Y-103534696D01*
X85963640Y-103902253D01*
X85794472Y-104310661D01*
X85708230Y-104744224D01*
X83435000Y-104744224D01*
X83435000Y-99319268D01*
X97565000Y-99319268D01*
X97565000Y-99680732D01*
X97635518Y-100035250D01*
X97773844Y-100369199D01*
X97974662Y-100669744D01*
X98230256Y-100925338D01*
X98530801Y-101126156D01*
X98864750Y-101264482D01*
X99219268Y-101335000D01*
X99580732Y-101335000D01*
X99935250Y-101264482D01*
X100269199Y-101126156D01*
X100569744Y-100925338D01*
X100825338Y-100669744D01*
X101026156Y-100369199D01*
X101164482Y-100035250D01*
X101235000Y-99680732D01*
X101235000Y-99319268D01*
X110265000Y-99319268D01*
X110265000Y-99680732D01*
X110335518Y-100035250D01*
X110473844Y-100369199D01*
X110674662Y-100669744D01*
X110930256Y-100925338D01*
X111230801Y-101126156D01*
X111564750Y-101264482D01*
X111919268Y-101335000D01*
X112280732Y-101335000D01*
X112635250Y-101264482D01*
X112969199Y-101126156D01*
X113269744Y-100925338D01*
X113525338Y-100669744D01*
X113726156Y-100369199D01*
X113864482Y-100035250D01*
X113935000Y-99680732D01*
X113935000Y-99319268D01*
X113864482Y-98964750D01*
X113726156Y-98630801D01*
X113525338Y-98330256D01*
X113269744Y-98074662D01*
X112969199Y-97873844D01*
X112728738Y-97774242D01*
X112765000Y-97591939D01*
X112765000Y-97388061D01*
X112725226Y-97188102D01*
X112647205Y-96999744D01*
X112533937Y-96830226D01*
X112389774Y-96686063D01*
X112220256Y-96572795D01*
X112031898Y-96494774D01*
X111831939Y-96455000D01*
X111628061Y-96455000D01*
X111428102Y-96494774D01*
X111239744Y-96572795D01*
X111070226Y-96686063D01*
X110926063Y-96830226D01*
X110812795Y-96999744D01*
X110734774Y-97188102D01*
X110695000Y-97388061D01*
X110695000Y-97591939D01*
X110734774Y-97791898D01*
X110812795Y-97980256D01*
X110897657Y-98107261D01*
X110674662Y-98330256D01*
X110473844Y-98630801D01*
X110335518Y-98964750D01*
X110265000Y-99319268D01*
X101235000Y-99319268D01*
X101164482Y-98964750D01*
X101026156Y-98630801D01*
X100825338Y-98330256D01*
X100569744Y-98074662D01*
X100269199Y-97873844D01*
X99935250Y-97735518D01*
X99580732Y-97665000D01*
X99452213Y-97665000D01*
X99601898Y-97635226D01*
X99790256Y-97557205D01*
X99959774Y-97443937D01*
X100103937Y-97299774D01*
X100217205Y-97130256D01*
X100251251Y-97048061D01*
X100535000Y-97048061D01*
X100535000Y-97251939D01*
X100574774Y-97451898D01*
X100652795Y-97640256D01*
X100766063Y-97809774D01*
X100910226Y-97953937D01*
X101079744Y-98067205D01*
X101268102Y-98145226D01*
X101468061Y-98185000D01*
X101671939Y-98185000D01*
X101871898Y-98145226D01*
X102060256Y-98067205D01*
X102229774Y-97953937D01*
X102373937Y-97809774D01*
X102487205Y-97640256D01*
X102565226Y-97451898D01*
X102605000Y-97251939D01*
X102605000Y-97048061D01*
X102565226Y-96848102D01*
X102487205Y-96659744D01*
X102373937Y-96490226D01*
X102229774Y-96346063D01*
X102060256Y-96232795D01*
X101871898Y-96154774D01*
X101671939Y-96115000D01*
X101468061Y-96115000D01*
X101268102Y-96154774D01*
X101079744Y-96232795D01*
X100910226Y-96346063D01*
X100766063Y-96490226D01*
X100652795Y-96659744D01*
X100574774Y-96848102D01*
X100535000Y-97048061D01*
X100251251Y-97048061D01*
X100295226Y-96941898D01*
X100335000Y-96741939D01*
X100335000Y-96538061D01*
X100295226Y-96338102D01*
X100217205Y-96149744D01*
X100103937Y-95980226D01*
X99959774Y-95836063D01*
X99790256Y-95722795D01*
X99601898Y-95644774D01*
X99401939Y-95605000D01*
X99198061Y-95605000D01*
X98998102Y-95644774D01*
X98809744Y-95722795D01*
X98640226Y-95836063D01*
X98496063Y-95980226D01*
X98382795Y-96149744D01*
X98304774Y-96338102D01*
X98265000Y-96538061D01*
X98265000Y-96741939D01*
X98304774Y-96941898D01*
X98382795Y-97130256D01*
X98496063Y-97299774D01*
X98640226Y-97443937D01*
X98809744Y-97557205D01*
X98998102Y-97635226D01*
X99183528Y-97672109D01*
X98864750Y-97735518D01*
X98530801Y-97873844D01*
X98230256Y-98074662D01*
X97974662Y-98330256D01*
X97773844Y-98630801D01*
X97635518Y-98964750D01*
X97565000Y-99319268D01*
X83435000Y-99319268D01*
X83435000Y-95138061D01*
X107535000Y-95138061D01*
X107535000Y-95341939D01*
X107574774Y-95541898D01*
X107652795Y-95730256D01*
X107766063Y-95899774D01*
X107910226Y-96043937D01*
X108079744Y-96157205D01*
X108268102Y-96235226D01*
X108468061Y-96275000D01*
X108671939Y-96275000D01*
X108871898Y-96235226D01*
X109060256Y-96157205D01*
X109229774Y-96043937D01*
X109373937Y-95899774D01*
X109487205Y-95730256D01*
X109565226Y-95541898D01*
X109605000Y-95341939D01*
X109605000Y-95138061D01*
X109565226Y-94938102D01*
X109487205Y-94749744D01*
X109373937Y-94580226D01*
X109229774Y-94436063D01*
X109060256Y-94322795D01*
X108871898Y-94244774D01*
X108671939Y-94205000D01*
X108468061Y-94205000D01*
X108268102Y-94244774D01*
X108079744Y-94322795D01*
X107910226Y-94436063D01*
X107766063Y-94580226D01*
X107652795Y-94749744D01*
X107574774Y-94938102D01*
X107535000Y-95138061D01*
X83435000Y-95138061D01*
X83435000Y-90400000D01*
X87434509Y-90400000D01*
X87456423Y-90622499D01*
X87521324Y-90836447D01*
X87626716Y-91033623D01*
X87627846Y-91035000D01*
X87626716Y-91036377D01*
X87521324Y-91233553D01*
X87456423Y-91447501D01*
X87434509Y-91670000D01*
X87456423Y-91892499D01*
X87521324Y-92106447D01*
X87527297Y-92117621D01*
X87485498Y-92195820D01*
X87449188Y-92315518D01*
X87436928Y-92440000D01*
X87436928Y-93440000D01*
X87449188Y-93564482D01*
X87485498Y-93684180D01*
X87544463Y-93794494D01*
X87623815Y-93891185D01*
X87720506Y-93970537D01*
X87830820Y-94029502D01*
X87950518Y-94065812D01*
X88075000Y-94078072D01*
X89575000Y-94078072D01*
X89699482Y-94065812D01*
X89819180Y-94029502D01*
X89929494Y-93970537D01*
X90026185Y-93891185D01*
X90105537Y-93794494D01*
X90164502Y-93684180D01*
X90200812Y-93564482D01*
X90213072Y-93440000D01*
X90213072Y-92440000D01*
X90200812Y-92315518D01*
X90164502Y-92195820D01*
X90122703Y-92117621D01*
X90128676Y-92106447D01*
X90193577Y-91892499D01*
X90215491Y-91670000D01*
X90193577Y-91447501D01*
X90143695Y-91283061D01*
X93705000Y-91283061D01*
X93705000Y-91486939D01*
X93744774Y-91686898D01*
X93822795Y-91875256D01*
X93936063Y-92044774D01*
X94080226Y-92188937D01*
X94249744Y-92302205D01*
X94438102Y-92380226D01*
X94638061Y-92420000D01*
X94841939Y-92420000D01*
X95041898Y-92380226D01*
X95230256Y-92302205D01*
X95399774Y-92188937D01*
X95543937Y-92044774D01*
X95657205Y-91875256D01*
X95735226Y-91686898D01*
X95775000Y-91486939D01*
X95775000Y-91283061D01*
X98325000Y-91283061D01*
X98325000Y-91486939D01*
X98364774Y-91686898D01*
X98442795Y-91875256D01*
X98556063Y-92044774D01*
X98700226Y-92188937D01*
X98869744Y-92302205D01*
X99058102Y-92380226D01*
X99258061Y-92420000D01*
X99461939Y-92420000D01*
X99661898Y-92380226D01*
X99850256Y-92302205D01*
X100019774Y-92188937D01*
X100163937Y-92044774D01*
X100275330Y-91878061D01*
X107535000Y-91878061D01*
X107535000Y-92081939D01*
X107574774Y-92281898D01*
X107652795Y-92470256D01*
X107766063Y-92639774D01*
X107910226Y-92783937D01*
X108079744Y-92897205D01*
X108268102Y-92975226D01*
X108468061Y-93015000D01*
X108671939Y-93015000D01*
X108871898Y-92975226D01*
X109060256Y-92897205D01*
X109229774Y-92783937D01*
X109373937Y-92639774D01*
X109487205Y-92470256D01*
X109504682Y-92428061D01*
X110025000Y-92428061D01*
X110025000Y-92631939D01*
X110064774Y-92831898D01*
X110142795Y-93020256D01*
X110256063Y-93189774D01*
X110400226Y-93333937D01*
X110569744Y-93447205D01*
X110758102Y-93525226D01*
X110958061Y-93565000D01*
X111161939Y-93565000D01*
X111361898Y-93525226D01*
X111550256Y-93447205D01*
X111719774Y-93333937D01*
X111863937Y-93189774D01*
X111977205Y-93020256D01*
X112055226Y-92831898D01*
X112095000Y-92631939D01*
X112095000Y-92428061D01*
X112055226Y-92228102D01*
X111977205Y-92039744D01*
X111863937Y-91870226D01*
X111719774Y-91726063D01*
X111550256Y-91612795D01*
X111361898Y-91534774D01*
X111161939Y-91495000D01*
X110958061Y-91495000D01*
X110758102Y-91534774D01*
X110569744Y-91612795D01*
X110400226Y-91726063D01*
X110256063Y-91870226D01*
X110142795Y-92039744D01*
X110064774Y-92228102D01*
X110025000Y-92428061D01*
X109504682Y-92428061D01*
X109565226Y-92281898D01*
X109605000Y-92081939D01*
X109605000Y-91878061D01*
X109565226Y-91678102D01*
X109487205Y-91489744D01*
X109373937Y-91320226D01*
X109229774Y-91176063D01*
X109060256Y-91062795D01*
X108871898Y-90984774D01*
X108671939Y-90945000D01*
X108468061Y-90945000D01*
X108268102Y-90984774D01*
X108079744Y-91062795D01*
X107910226Y-91176063D01*
X107766063Y-91320226D01*
X107652795Y-91489744D01*
X107574774Y-91678102D01*
X107535000Y-91878061D01*
X100275330Y-91878061D01*
X100277205Y-91875256D01*
X100355226Y-91686898D01*
X100395000Y-91486939D01*
X100395000Y-91283061D01*
X100355226Y-91083102D01*
X100277205Y-90894744D01*
X100163937Y-90725226D01*
X100019774Y-90581063D01*
X99850256Y-90467795D01*
X99661898Y-90389774D01*
X99461939Y-90350000D01*
X99258061Y-90350000D01*
X99058102Y-90389774D01*
X98869744Y-90467795D01*
X98700226Y-90581063D01*
X98556063Y-90725226D01*
X98442795Y-90894744D01*
X98364774Y-91083102D01*
X98325000Y-91283061D01*
X95775000Y-91283061D01*
X95735226Y-91083102D01*
X95657205Y-90894744D01*
X95543937Y-90725226D01*
X95399774Y-90581063D01*
X95230256Y-90467795D01*
X95041898Y-90389774D01*
X94841939Y-90350000D01*
X94638061Y-90350000D01*
X94438102Y-90389774D01*
X94249744Y-90467795D01*
X94080226Y-90581063D01*
X93936063Y-90725226D01*
X93822795Y-90894744D01*
X93744774Y-91083102D01*
X93705000Y-91283061D01*
X90143695Y-91283061D01*
X90128676Y-91233553D01*
X90023284Y-91036377D01*
X90022154Y-91035000D01*
X90023284Y-91033623D01*
X90128676Y-90836447D01*
X90193577Y-90622499D01*
X90215491Y-90400000D01*
X90193577Y-90177501D01*
X90128676Y-89963553D01*
X90023284Y-89766377D01*
X89881449Y-89593551D01*
X89708623Y-89451716D01*
X89511447Y-89346324D01*
X89297499Y-89281423D01*
X89130752Y-89265000D01*
X88519248Y-89265000D01*
X88352501Y-89281423D01*
X88138553Y-89346324D01*
X87941377Y-89451716D01*
X87768551Y-89593551D01*
X87626716Y-89766377D01*
X87521324Y-89963553D01*
X87456423Y-90177501D01*
X87434509Y-90400000D01*
X83435000Y-90400000D01*
X83435000Y-87919268D01*
X97565000Y-87919268D01*
X97565000Y-88280732D01*
X97635518Y-88635250D01*
X97773844Y-88969199D01*
X97974662Y-89269744D01*
X98230256Y-89525338D01*
X98530801Y-89726156D01*
X98864750Y-89864482D01*
X99219268Y-89935000D01*
X99580732Y-89935000D01*
X99935250Y-89864482D01*
X100269199Y-89726156D01*
X100569744Y-89525338D01*
X100717102Y-89377980D01*
X111001626Y-89377980D01*
X111121514Y-89662836D01*
X111445210Y-89823699D01*
X111794069Y-89918322D01*
X112154684Y-89943067D01*
X112513198Y-89896985D01*
X112855833Y-89781846D01*
X113078486Y-89662836D01*
X113198374Y-89377980D01*
X112100000Y-88279605D01*
X111001626Y-89377980D01*
X100717102Y-89377980D01*
X100825338Y-89269744D01*
X101026156Y-88969199D01*
X101164482Y-88635250D01*
X101235000Y-88280732D01*
X101235000Y-88154684D01*
X110256933Y-88154684D01*
X110303015Y-88513198D01*
X110418154Y-88855833D01*
X110537164Y-89078486D01*
X110822020Y-89198374D01*
X111920395Y-88100000D01*
X112279605Y-88100000D01*
X113377980Y-89198374D01*
X113662836Y-89078486D01*
X113823699Y-88754790D01*
X113918322Y-88405931D01*
X113943067Y-88045316D01*
X113896985Y-87686802D01*
X113781846Y-87344167D01*
X113662836Y-87121514D01*
X113377980Y-87001626D01*
X112279605Y-88100000D01*
X111920395Y-88100000D01*
X110822020Y-87001626D01*
X110537164Y-87121514D01*
X110376301Y-87445210D01*
X110281678Y-87794069D01*
X110256933Y-88154684D01*
X101235000Y-88154684D01*
X101235000Y-87919268D01*
X101164482Y-87564750D01*
X101026156Y-87230801D01*
X100825338Y-86930256D01*
X100717102Y-86822020D01*
X111001626Y-86822020D01*
X112100000Y-87920395D01*
X113198374Y-86822020D01*
X113192500Y-86808061D01*
X113915000Y-86808061D01*
X113915000Y-87011939D01*
X113954774Y-87211898D01*
X114032795Y-87400256D01*
X114146063Y-87569774D01*
X114290226Y-87713937D01*
X114459744Y-87827205D01*
X114648102Y-87905226D01*
X114848061Y-87945000D01*
X115051939Y-87945000D01*
X115251898Y-87905226D01*
X115440256Y-87827205D01*
X115609774Y-87713937D01*
X115753937Y-87569774D01*
X115867205Y-87400256D01*
X115945226Y-87211898D01*
X115985000Y-87011939D01*
X115985000Y-86808061D01*
X115945226Y-86608102D01*
X115867205Y-86419744D01*
X115753937Y-86250226D01*
X115609774Y-86106063D01*
X115440256Y-85992795D01*
X115251898Y-85914774D01*
X115051939Y-85875000D01*
X114848061Y-85875000D01*
X114648102Y-85914774D01*
X114459744Y-85992795D01*
X114290226Y-86106063D01*
X114146063Y-86250226D01*
X114032795Y-86419744D01*
X113954774Y-86608102D01*
X113915000Y-86808061D01*
X113192500Y-86808061D01*
X113078486Y-86537164D01*
X112754790Y-86376301D01*
X112405931Y-86281678D01*
X112045316Y-86256933D01*
X111686802Y-86303015D01*
X111344167Y-86418154D01*
X111121514Y-86537164D01*
X111001626Y-86822020D01*
X100717102Y-86822020D01*
X100569744Y-86674662D01*
X100269199Y-86473844D01*
X99935250Y-86335518D01*
X99580732Y-86265000D01*
X99219268Y-86265000D01*
X98864750Y-86335518D01*
X98530801Y-86473844D01*
X98230256Y-86674662D01*
X97974662Y-86930256D01*
X97773844Y-87230801D01*
X97635518Y-87564750D01*
X97565000Y-87919268D01*
X83435000Y-87919268D01*
X83435000Y-83203740D01*
X86760000Y-83203740D01*
X86760000Y-83496260D01*
X86817068Y-83783158D01*
X86929010Y-84053411D01*
X87091525Y-84296632D01*
X87298368Y-84503475D01*
X87541589Y-84665990D01*
X87811842Y-84777932D01*
X88098740Y-84835000D01*
X88391260Y-84835000D01*
X88678158Y-84777932D01*
X88948411Y-84665990D01*
X89191632Y-84503475D01*
X89398475Y-84296632D01*
X89515000Y-84122240D01*
X89631525Y-84296632D01*
X89838368Y-84503475D01*
X90081589Y-84665990D01*
X90351842Y-84777932D01*
X90638740Y-84835000D01*
X90931260Y-84835000D01*
X91218158Y-84777932D01*
X91488411Y-84665990D01*
X91731632Y-84503475D01*
X91863487Y-84371620D01*
X91885498Y-84444180D01*
X91944463Y-84554494D01*
X92023815Y-84651185D01*
X92120506Y-84730537D01*
X92230820Y-84789502D01*
X92350518Y-84825812D01*
X92475000Y-84838072D01*
X94175000Y-84838072D01*
X94299482Y-84825812D01*
X94419180Y-84789502D01*
X94529494Y-84730537D01*
X94626185Y-84651185D01*
X94705537Y-84554494D01*
X94764502Y-84444180D01*
X94800812Y-84324482D01*
X94813072Y-84200000D01*
X94813072Y-83453740D01*
X105135000Y-83453740D01*
X105135000Y-83746260D01*
X105192068Y-84033158D01*
X105304010Y-84303411D01*
X105466525Y-84546632D01*
X105673368Y-84753475D01*
X105916589Y-84915990D01*
X106186842Y-85027932D01*
X106473740Y-85085000D01*
X106766260Y-85085000D01*
X107053158Y-85027932D01*
X107323411Y-84915990D01*
X107566632Y-84753475D01*
X107773475Y-84546632D01*
X107890000Y-84372240D01*
X108006525Y-84546632D01*
X108213368Y-84753475D01*
X108456589Y-84915990D01*
X108726842Y-85027932D01*
X109013740Y-85085000D01*
X109306260Y-85085000D01*
X109593158Y-85027932D01*
X109863411Y-84915990D01*
X110106632Y-84753475D01*
X110238487Y-84621620D01*
X110260498Y-84694180D01*
X110319463Y-84804494D01*
X110398815Y-84901185D01*
X110495506Y-84980537D01*
X110605820Y-85039502D01*
X110725518Y-85075812D01*
X110850000Y-85088072D01*
X112550000Y-85088072D01*
X112674482Y-85075812D01*
X112794180Y-85039502D01*
X112904494Y-84980537D01*
X113001185Y-84901185D01*
X113080537Y-84804494D01*
X113139502Y-84694180D01*
X113175812Y-84574482D01*
X113188072Y-84450000D01*
X113188072Y-82750000D01*
X113175812Y-82625518D01*
X113139502Y-82505820D01*
X113080537Y-82395506D01*
X113001185Y-82298815D01*
X112904494Y-82219463D01*
X112794180Y-82160498D01*
X112674482Y-82124188D01*
X112550000Y-82111928D01*
X110850000Y-82111928D01*
X110725518Y-82124188D01*
X110605820Y-82160498D01*
X110495506Y-82219463D01*
X110398815Y-82298815D01*
X110319463Y-82395506D01*
X110260498Y-82505820D01*
X110238487Y-82578380D01*
X110106632Y-82446525D01*
X109863411Y-82284010D01*
X109593158Y-82172068D01*
X109306260Y-82115000D01*
X109013740Y-82115000D01*
X108726842Y-82172068D01*
X108456589Y-82284010D01*
X108213368Y-82446525D01*
X108006525Y-82653368D01*
X107890000Y-82827760D01*
X107773475Y-82653368D01*
X107566632Y-82446525D01*
X107323411Y-82284010D01*
X107053158Y-82172068D01*
X106766260Y-82115000D01*
X106473740Y-82115000D01*
X106186842Y-82172068D01*
X105916589Y-82284010D01*
X105673368Y-82446525D01*
X105466525Y-82653368D01*
X105304010Y-82896589D01*
X105192068Y-83166842D01*
X105135000Y-83453740D01*
X94813072Y-83453740D01*
X94813072Y-82500000D01*
X94800812Y-82375518D01*
X94764502Y-82255820D01*
X94705537Y-82145506D01*
X94626185Y-82048815D01*
X94529494Y-81969463D01*
X94419180Y-81910498D01*
X94299482Y-81874188D01*
X94175000Y-81861928D01*
X92475000Y-81861928D01*
X92350518Y-81874188D01*
X92230820Y-81910498D01*
X92120506Y-81969463D01*
X92023815Y-82048815D01*
X91944463Y-82145506D01*
X91885498Y-82255820D01*
X91863487Y-82328380D01*
X91731632Y-82196525D01*
X91488411Y-82034010D01*
X91218158Y-81922068D01*
X90931260Y-81865000D01*
X90638740Y-81865000D01*
X90351842Y-81922068D01*
X90081589Y-82034010D01*
X89838368Y-82196525D01*
X89631525Y-82403368D01*
X89515000Y-82577760D01*
X89398475Y-82403368D01*
X89191632Y-82196525D01*
X88948411Y-82034010D01*
X88678158Y-81922068D01*
X88391260Y-81865000D01*
X88098740Y-81865000D01*
X87811842Y-81922068D01*
X87541589Y-82034010D01*
X87298368Y-82196525D01*
X87091525Y-82403368D01*
X86929010Y-82646589D01*
X86817068Y-82916842D01*
X86760000Y-83203740D01*
X83435000Y-83203740D01*
X83435000Y-79603740D01*
X95890000Y-79603740D01*
X95890000Y-79896260D01*
X95947068Y-80183158D01*
X96059010Y-80453411D01*
X96221525Y-80696632D01*
X96428368Y-80903475D01*
X96671589Y-81065990D01*
X96941842Y-81177932D01*
X97228740Y-81235000D01*
X97521260Y-81235000D01*
X97808158Y-81177932D01*
X98078411Y-81065990D01*
X98321632Y-80903475D01*
X98528475Y-80696632D01*
X98645000Y-80522240D01*
X98761525Y-80696632D01*
X98968368Y-80903475D01*
X99211589Y-81065990D01*
X99481842Y-81177932D01*
X99768740Y-81235000D01*
X100061260Y-81235000D01*
X100348158Y-81177932D01*
X100618411Y-81065990D01*
X100861632Y-80903475D01*
X100993487Y-80771620D01*
X101015498Y-80844180D01*
X101074463Y-80954494D01*
X101153815Y-81051185D01*
X101250506Y-81130537D01*
X101360820Y-81189502D01*
X101480518Y-81225812D01*
X101605000Y-81238072D01*
X103305000Y-81238072D01*
X103429482Y-81225812D01*
X103549180Y-81189502D01*
X103659494Y-81130537D01*
X103756185Y-81051185D01*
X103835537Y-80954494D01*
X103894502Y-80844180D01*
X103930812Y-80724482D01*
X103943072Y-80600000D01*
X103943072Y-79340000D01*
X110281928Y-79340000D01*
X110281928Y-80940000D01*
X110294188Y-81064482D01*
X110330498Y-81184180D01*
X110389463Y-81294494D01*
X110468815Y-81391185D01*
X110565506Y-81470537D01*
X110675820Y-81529502D01*
X110795518Y-81565812D01*
X110920000Y-81578072D01*
X112520000Y-81578072D01*
X112644482Y-81565812D01*
X112764180Y-81529502D01*
X112874494Y-81470537D01*
X112971185Y-81391185D01*
X113050537Y-81294494D01*
X113109502Y-81184180D01*
X113145812Y-81064482D01*
X113151295Y-81008807D01*
X113195363Y-81074759D01*
X113395241Y-81274637D01*
X113630273Y-81431680D01*
X113891426Y-81539853D01*
X114168665Y-81595000D01*
X114451335Y-81595000D01*
X114728574Y-81539853D01*
X114989727Y-81431680D01*
X115224759Y-81274637D01*
X115424637Y-81074759D01*
X115581680Y-80839727D01*
X115689853Y-80578574D01*
X115745000Y-80301335D01*
X115745000Y-80018665D01*
X115689853Y-79741426D01*
X115581680Y-79480273D01*
X115424637Y-79245241D01*
X115226039Y-79046643D01*
X115234482Y-79045812D01*
X115354180Y-79009502D01*
X115464494Y-78950537D01*
X115561185Y-78871185D01*
X115640537Y-78774494D01*
X115699502Y-78664180D01*
X115735812Y-78544482D01*
X115748072Y-78420000D01*
X115748072Y-76820000D01*
X115735812Y-76695518D01*
X115699502Y-76575820D01*
X115640537Y-76465506D01*
X115561185Y-76368815D01*
X115464494Y-76289463D01*
X115354180Y-76230498D01*
X115234482Y-76194188D01*
X115110000Y-76181928D01*
X113510000Y-76181928D01*
X113385518Y-76194188D01*
X113265820Y-76230498D01*
X113155506Y-76289463D01*
X113058815Y-76368815D01*
X112979463Y-76465506D01*
X112920498Y-76575820D01*
X112884188Y-76695518D01*
X112878705Y-76751193D01*
X112834637Y-76685241D01*
X112634759Y-76485363D01*
X112399727Y-76328320D01*
X112138574Y-76220147D01*
X111861335Y-76165000D01*
X111578665Y-76165000D01*
X111301426Y-76220147D01*
X111040273Y-76328320D01*
X110805241Y-76485363D01*
X110605363Y-76685241D01*
X110448320Y-76920273D01*
X110340147Y-77181426D01*
X110285000Y-77458665D01*
X110285000Y-77741335D01*
X110340147Y-78018574D01*
X110448320Y-78279727D01*
X110605363Y-78514759D01*
X110803961Y-78713357D01*
X110795518Y-78714188D01*
X110675820Y-78750498D01*
X110565506Y-78809463D01*
X110468815Y-78888815D01*
X110389463Y-78985506D01*
X110330498Y-79095820D01*
X110294188Y-79215518D01*
X110281928Y-79340000D01*
X103943072Y-79340000D01*
X103943072Y-78900000D01*
X103930812Y-78775518D01*
X103894502Y-78655820D01*
X103835537Y-78545506D01*
X103756185Y-78448815D01*
X103659494Y-78369463D01*
X103549180Y-78310498D01*
X103429482Y-78274188D01*
X103305000Y-78261928D01*
X101605000Y-78261928D01*
X101480518Y-78274188D01*
X101360820Y-78310498D01*
X101250506Y-78369463D01*
X101153815Y-78448815D01*
X101074463Y-78545506D01*
X101015498Y-78655820D01*
X100993487Y-78728380D01*
X100861632Y-78596525D01*
X100618411Y-78434010D01*
X100348158Y-78322068D01*
X100061260Y-78265000D01*
X99768740Y-78265000D01*
X99481842Y-78322068D01*
X99211589Y-78434010D01*
X98968368Y-78596525D01*
X98761525Y-78803368D01*
X98645000Y-78977760D01*
X98528475Y-78803368D01*
X98321632Y-78596525D01*
X98078411Y-78434010D01*
X97808158Y-78322068D01*
X97521260Y-78265000D01*
X97228740Y-78265000D01*
X96941842Y-78322068D01*
X96671589Y-78434010D01*
X96428368Y-78596525D01*
X96221525Y-78803368D01*
X96059010Y-79046589D01*
X95947068Y-79316842D01*
X95890000Y-79603740D01*
X83435000Y-79603740D01*
X83434999Y-66152423D01*
X85708230Y-66152423D01*
X85708230Y-66594481D01*
X85794472Y-67028044D01*
X85963640Y-67436452D01*
X86209233Y-67804009D01*
X86521815Y-68116591D01*
X86889372Y-68362184D01*
X87297780Y-68531352D01*
X87731343Y-68617594D01*
X88173401Y-68617594D01*
X88606964Y-68531352D01*
X89015372Y-68362184D01*
X89382929Y-68116591D01*
X89691928Y-67807592D01*
X89691928Y-68100000D01*
X89704188Y-68224482D01*
X89740498Y-68344180D01*
X89799463Y-68454494D01*
X89878815Y-68551185D01*
X89975506Y-68630537D01*
X90085820Y-68689502D01*
X90205518Y-68725812D01*
X90330000Y-68738072D01*
X91930000Y-68738072D01*
X92054482Y-68725812D01*
X92174180Y-68689502D01*
X92284494Y-68630537D01*
X92381185Y-68551185D01*
X92460537Y-68454494D01*
X92519502Y-68344180D01*
X92555812Y-68224482D01*
X92558370Y-68198509D01*
X92606481Y-68263414D01*
X92814869Y-68452385D01*
X93056119Y-68597070D01*
X93320960Y-68691909D01*
X93543000Y-68570624D01*
X93543000Y-67427000D01*
X93797000Y-67427000D01*
X93797000Y-68570624D01*
X94019040Y-68691909D01*
X94283881Y-68597070D01*
X94525131Y-68452385D01*
X94582898Y-68400000D01*
X98061928Y-68400000D01*
X98074188Y-68524482D01*
X98110498Y-68644180D01*
X98169463Y-68754494D01*
X98248815Y-68851185D01*
X98345506Y-68930537D01*
X98455820Y-68989502D01*
X98575518Y-69025812D01*
X98700000Y-69038072D01*
X99714250Y-69035000D01*
X99873000Y-68876250D01*
X99873000Y-67527000D01*
X100127000Y-67527000D01*
X100127000Y-68876250D01*
X100285750Y-69035000D01*
X101300000Y-69038072D01*
X101424482Y-69025812D01*
X101544180Y-68989502D01*
X101654494Y-68930537D01*
X101751185Y-68851185D01*
X101830537Y-68754494D01*
X101889502Y-68644180D01*
X101925812Y-68524482D01*
X101938072Y-68400000D01*
X101935000Y-67685750D01*
X101776250Y-67527000D01*
X100127000Y-67527000D01*
X99873000Y-67527000D01*
X98223750Y-67527000D01*
X98065000Y-67685750D01*
X98061928Y-68400000D01*
X94582898Y-68400000D01*
X94733519Y-68263414D01*
X94901037Y-68037420D01*
X95021246Y-67783087D01*
X95061904Y-67649039D01*
X94939915Y-67427000D01*
X93797000Y-67427000D01*
X93543000Y-67427000D01*
X93523000Y-67427000D01*
X93523000Y-67173000D01*
X93543000Y-67173000D01*
X93543000Y-66029376D01*
X93320960Y-65908091D01*
X93056119Y-66002930D01*
X92814869Y-66147615D01*
X92606481Y-66336586D01*
X92558370Y-66401491D01*
X92555812Y-66375518D01*
X92519502Y-66255820D01*
X92460537Y-66145506D01*
X92381185Y-66048815D01*
X92284494Y-65969463D01*
X92174180Y-65910498D01*
X92054482Y-65874188D01*
X91930000Y-65861928D01*
X90330000Y-65861928D01*
X90205518Y-65874188D01*
X90144831Y-65892597D01*
X90110272Y-65718860D01*
X90102460Y-65700000D01*
X93661928Y-65700000D01*
X93674188Y-65824482D01*
X93710498Y-65944180D01*
X93769463Y-66054494D01*
X93797000Y-66088048D01*
X93797000Y-67173000D01*
X94939915Y-67173000D01*
X95061904Y-66950961D01*
X95021246Y-66816913D01*
X94901037Y-66562580D01*
X94780525Y-66400000D01*
X98061928Y-66400000D01*
X98065000Y-67114250D01*
X98223750Y-67273000D01*
X99873000Y-67273000D01*
X99873000Y-65923750D01*
X100127000Y-65923750D01*
X100127000Y-67273000D01*
X101776250Y-67273000D01*
X101935000Y-67114250D01*
X101938072Y-66400000D01*
X101925812Y-66275518D01*
X101889502Y-66155820D01*
X101887687Y-66152423D01*
X110203485Y-66152423D01*
X110203485Y-66594481D01*
X110289727Y-67028044D01*
X110458895Y-67436452D01*
X110704488Y-67804009D01*
X111017070Y-68116591D01*
X111384627Y-68362184D01*
X111793035Y-68531352D01*
X112226598Y-68617594D01*
X112668656Y-68617594D01*
X113102219Y-68531352D01*
X113510627Y-68362184D01*
X113878184Y-68116591D01*
X114190766Y-67804009D01*
X114436359Y-67436452D01*
X114605527Y-67028044D01*
X114691769Y-66594481D01*
X114691769Y-66152423D01*
X114605527Y-65718860D01*
X114436359Y-65310452D01*
X114190766Y-64942895D01*
X113878184Y-64630313D01*
X113510627Y-64384720D01*
X113102219Y-64215552D01*
X112668656Y-64129310D01*
X112226598Y-64129310D01*
X111793035Y-64215552D01*
X111384627Y-64384720D01*
X111017070Y-64630313D01*
X110704488Y-64942895D01*
X110458895Y-65310452D01*
X110289727Y-65718860D01*
X110203485Y-66152423D01*
X101887687Y-66152423D01*
X101830537Y-66045506D01*
X101751185Y-65948815D01*
X101654494Y-65869463D01*
X101544180Y-65810498D01*
X101424482Y-65774188D01*
X101300000Y-65761928D01*
X100285750Y-65765000D01*
X100127000Y-65923750D01*
X99873000Y-65923750D01*
X99714250Y-65765000D01*
X98700000Y-65761928D01*
X98575518Y-65774188D01*
X98455820Y-65810498D01*
X98345506Y-65869463D01*
X98248815Y-65948815D01*
X98169463Y-66045506D01*
X98110498Y-66155820D01*
X98074188Y-66275518D01*
X98061928Y-66400000D01*
X94780525Y-66400000D01*
X94733519Y-66336586D01*
X94733104Y-66336209D01*
X95014250Y-66335000D01*
X95173000Y-66176250D01*
X95173000Y-64527000D01*
X95427000Y-64527000D01*
X95427000Y-66176250D01*
X95585750Y-66335000D01*
X96300000Y-66338072D01*
X96424482Y-66325812D01*
X96544180Y-66289502D01*
X96654494Y-66230537D01*
X96751185Y-66151185D01*
X96830537Y-66054494D01*
X96889502Y-65944180D01*
X96925812Y-65824482D01*
X96938072Y-65700000D01*
X96935000Y-64685750D01*
X96776250Y-64527000D01*
X95427000Y-64527000D01*
X95173000Y-64527000D01*
X93823750Y-64527000D01*
X93665000Y-64685750D01*
X93661928Y-65700000D01*
X90102460Y-65700000D01*
X89941104Y-65310452D01*
X89695511Y-64942895D01*
X89382929Y-64630313D01*
X89015372Y-64384720D01*
X88606964Y-64215552D01*
X88173401Y-64129310D01*
X87731343Y-64129310D01*
X87297780Y-64215552D01*
X86889372Y-64384720D01*
X86521815Y-64630313D01*
X86209233Y-64942895D01*
X85963640Y-65310452D01*
X85794472Y-65718860D01*
X85708230Y-66152423D01*
X83434999Y-66152423D01*
X83434999Y-63100000D01*
X93661928Y-63100000D01*
X93665000Y-64114250D01*
X93823750Y-64273000D01*
X95173000Y-64273000D01*
X95173000Y-62623750D01*
X95427000Y-62623750D01*
X95427000Y-64273000D01*
X96776250Y-64273000D01*
X96935000Y-64114250D01*
X96938072Y-63100000D01*
X96925812Y-62975518D01*
X96889502Y-62855820D01*
X96830537Y-62745506D01*
X96751185Y-62648815D01*
X96654494Y-62569463D01*
X96544180Y-62510498D01*
X96424482Y-62474188D01*
X96300000Y-62461928D01*
X95585750Y-62465000D01*
X95427000Y-62623750D01*
X95173000Y-62623750D01*
X95014250Y-62465000D01*
X94300000Y-62461928D01*
X94175518Y-62474188D01*
X94055820Y-62510498D01*
X93945506Y-62569463D01*
X93848815Y-62648815D01*
X93769463Y-62745506D01*
X93710498Y-62855820D01*
X93674188Y-62975518D01*
X93661928Y-63100000D01*
X83434999Y-63100000D01*
X83434998Y-62735735D01*
X83439723Y-62687691D01*
X83443201Y-62676212D01*
X83448866Y-62665610D01*
X83456412Y-62656414D01*
X83465611Y-62648866D01*
X83476214Y-62643201D01*
X83487690Y-62639723D01*
X83535715Y-62635000D01*
X85786105Y-62635000D01*
X85819024Y-62631758D01*
X85838955Y-62631897D01*
X85849168Y-62630896D01*
X86470277Y-62565615D01*
X86535584Y-62552209D01*
X86600970Y-62539736D01*
X86610795Y-62536771D01*
X87207395Y-62352092D01*
X87268862Y-62326254D01*
X87330573Y-62301321D01*
X87339634Y-62296504D01*
X87889001Y-61999462D01*
X87944240Y-61962202D01*
X87999971Y-61925733D01*
X88007924Y-61919247D01*
X88489133Y-61521156D01*
X88536094Y-61473866D01*
X88583668Y-61427278D01*
X88590210Y-61419371D01*
X88984931Y-60935395D01*
X89021811Y-60879887D01*
X89059433Y-60824941D01*
X89064315Y-60815914D01*
X89285460Y-60400000D01*
X98061928Y-60400000D01*
X98061928Y-62400000D01*
X98074188Y-62524482D01*
X98110498Y-62644180D01*
X98169463Y-62754494D01*
X98248815Y-62851185D01*
X98345506Y-62930537D01*
X98455820Y-62989502D01*
X98575518Y-63025812D01*
X98700000Y-63038072D01*
X101300000Y-63038072D01*
X101424482Y-63025812D01*
X101544180Y-62989502D01*
X101654494Y-62930537D01*
X101751185Y-62851185D01*
X101830537Y-62754494D01*
X101889502Y-62644180D01*
X101925812Y-62524482D01*
X101938072Y-62400000D01*
X101938072Y-60400000D01*
X101925812Y-60275518D01*
X101889502Y-60155820D01*
X101830537Y-60045506D01*
X101751185Y-59948815D01*
X101654494Y-59869463D01*
X101544180Y-59810498D01*
X101424482Y-59774188D01*
X101300000Y-59761928D01*
X98700000Y-59761928D01*
X98575518Y-59774188D01*
X98455820Y-59810498D01*
X98345506Y-59869463D01*
X98248815Y-59948815D01*
X98169463Y-60045506D01*
X98110498Y-60155820D01*
X98074188Y-60275518D01*
X98061928Y-60400000D01*
X89285460Y-60400000D01*
X89357514Y-60264486D01*
X89382915Y-60202859D01*
X89409142Y-60141666D01*
X89412177Y-60131863D01*
X89592686Y-59533988D01*
X89605635Y-59468589D01*
X89619475Y-59403480D01*
X89620548Y-59393274D01*
X89681492Y-58771724D01*
X89681492Y-58771723D01*
X89685000Y-58736105D01*
X89685000Y-56485715D01*
X89689723Y-56437691D01*
X89693201Y-56426212D01*
X89698866Y-56415610D01*
X89706412Y-56406414D01*
X89715611Y-56398866D01*
X89726214Y-56393201D01*
X89737690Y-56389723D01*
X89785715Y-56385000D01*
X110214284Y-56385000D01*
X110262308Y-56389723D01*
%TA.AperFunction,Conductor*%
D23*
G36*
X110262308Y-56389723D02*
G01*
X110273787Y-56393201D01*
X110284389Y-56398866D01*
X110293585Y-56406412D01*
X110301133Y-56415611D01*
X110306798Y-56426214D01*
X110310276Y-56437690D01*
X110315001Y-56485735D01*
X110315000Y-58736104D01*
X110318242Y-58769023D01*
X110318103Y-58788955D01*
X110319104Y-58799168D01*
X110384385Y-59420277D01*
X110397791Y-59485584D01*
X110410264Y-59550970D01*
X110413229Y-59560795D01*
X110597908Y-60157395D01*
X110623746Y-60218862D01*
X110648679Y-60280573D01*
X110653496Y-60289634D01*
X110950538Y-60839001D01*
X110987798Y-60894240D01*
X111024267Y-60949971D01*
X111030753Y-60957924D01*
X111428844Y-61439133D01*
X111476134Y-61486094D01*
X111522722Y-61533668D01*
X111530629Y-61540210D01*
X112014605Y-61934931D01*
X112070113Y-61971811D01*
X112125059Y-62009433D01*
X112134086Y-62014315D01*
X112685514Y-62307514D01*
X112747141Y-62332915D01*
X112808334Y-62359142D01*
X112818137Y-62362177D01*
X113416012Y-62542686D01*
X113481411Y-62555635D01*
X113546520Y-62569475D01*
X113556726Y-62570548D01*
X114178276Y-62631492D01*
X114213894Y-62635000D01*
X116464284Y-62635000D01*
X116512308Y-62639723D01*
X116523787Y-62643201D01*
X116534389Y-62648866D01*
X116543585Y-62656412D01*
X116551133Y-62665611D01*
X116556798Y-62676214D01*
X116560276Y-62687690D01*
X116565001Y-62735735D01*
X116564999Y-122807543D01*
X116501939Y-122795000D01*
X116298061Y-122795000D01*
X116098102Y-122834774D01*
X115909744Y-122912795D01*
X115740226Y-123026063D01*
X115596063Y-123170226D01*
X115482795Y-123339744D01*
X115404774Y-123528102D01*
X115365000Y-123728061D01*
X115365000Y-123931939D01*
X115404774Y-124131898D01*
X115482795Y-124320256D01*
X115596063Y-124489774D01*
X115740226Y-124633937D01*
X115909744Y-124747205D01*
X116098102Y-124825226D01*
X116298061Y-124865000D01*
X116501939Y-124865000D01*
X116564999Y-124852457D01*
X116564999Y-137214284D01*
X116560276Y-137262309D01*
X116556798Y-137273785D01*
X116551133Y-137284388D01*
X116543585Y-137293587D01*
X116534389Y-137301133D01*
X116523787Y-137306798D01*
X116512308Y-137310276D01*
X116464274Y-137315000D01*
X114213895Y-137315000D01*
X114180943Y-137318245D01*
X114160696Y-137318104D01*
X114150483Y-137319105D01*
X113519669Y-137385406D01*
X113454362Y-137398812D01*
X113388976Y-137411285D01*
X113379151Y-137414250D01*
X112773228Y-137601816D01*
X112711813Y-137627633D01*
X112650052Y-137652586D01*
X112640991Y-137657403D01*
X112083039Y-137959086D01*
X112027784Y-137996356D01*
X111972069Y-138032815D01*
X111964116Y-138039301D01*
X111475388Y-138443612D01*
X111428411Y-138490918D01*
X111380853Y-138537490D01*
X111374311Y-138545397D01*
X110973422Y-139036935D01*
X110936543Y-139092443D01*
X110898921Y-139147388D01*
X110894040Y-139156415D01*
X110596259Y-139716459D01*
X110570861Y-139778079D01*
X110544630Y-139839280D01*
X110541596Y-139849079D01*
X110541596Y-139849081D01*
X110541595Y-139849083D01*
X110358266Y-140456300D01*
X110345323Y-140521668D01*
X110331477Y-140586809D01*
X110330404Y-140597015D01*
X110268508Y-141228276D01*
X110268508Y-141228287D01*
X110265001Y-141263895D01*
X110265000Y-143514274D01*
X110260276Y-143562309D01*
X110256798Y-143573785D01*
X110251133Y-143584388D01*
X110243585Y-143593587D01*
X110234389Y-143601133D01*
X110223787Y-143606798D01*
X110212308Y-143610276D01*
X110164274Y-143615000D01*
X89735725Y-143615000D01*
X89687690Y-143610276D01*
X89676214Y-143606798D01*
X89665611Y-143601133D01*
X89656412Y-143593585D01*
X89648866Y-143584389D01*
X89643201Y-143573787D01*
X89639723Y-143562308D01*
X89634999Y-143514274D01*
X89634999Y-141263895D01*
X89631761Y-141231018D01*
X89631898Y-141211394D01*
X89630897Y-141201181D01*
X89566636Y-140589777D01*
X89553235Y-140524493D01*
X89540758Y-140459085D01*
X89537792Y-140449260D01*
X89472696Y-140238967D01*
X93065000Y-140238967D01*
X93065000Y-140561033D01*
X93127832Y-140876912D01*
X93251082Y-141174463D01*
X93430013Y-141442252D01*
X93657748Y-141669987D01*
X93925537Y-141848918D01*
X94223088Y-141972168D01*
X94538967Y-142035000D01*
X94861033Y-142035000D01*
X95176912Y-141972168D01*
X95474463Y-141848918D01*
X95742252Y-141669987D01*
X95969987Y-141442252D01*
X96148918Y-141174463D01*
X96272168Y-140876912D01*
X96335000Y-140561033D01*
X96335000Y-140239567D01*
X98365000Y-140239567D01*
X98365000Y-140561633D01*
X98427832Y-140877512D01*
X98551082Y-141175063D01*
X98730013Y-141442852D01*
X98957748Y-141670587D01*
X99225537Y-141849518D01*
X99523088Y-141972768D01*
X99838967Y-142035600D01*
X100161033Y-142035600D01*
X100476912Y-141972768D01*
X100774463Y-141849518D01*
X101042252Y-141670587D01*
X101269987Y-141442852D01*
X101448918Y-141175063D01*
X101572168Y-140877512D01*
X101635000Y-140561633D01*
X101635000Y-140239567D01*
X101634881Y-140238967D01*
X103665000Y-140238967D01*
X103665000Y-140561033D01*
X103727832Y-140876912D01*
X103851082Y-141174463D01*
X104030013Y-141442252D01*
X104257748Y-141669987D01*
X104525537Y-141848918D01*
X104823088Y-141972168D01*
X105138967Y-142035000D01*
X105461033Y-142035000D01*
X105776912Y-141972168D01*
X106074463Y-141848918D01*
X106342252Y-141669987D01*
X106569987Y-141442252D01*
X106748918Y-141174463D01*
X106872168Y-140876912D01*
X106935000Y-140561033D01*
X106935000Y-140238967D01*
X106872168Y-139923088D01*
X106748918Y-139625537D01*
X106569987Y-139357748D01*
X106342252Y-139130013D01*
X106074463Y-138951082D01*
X105776912Y-138827832D01*
X105461033Y-138765000D01*
X105138967Y-138765000D01*
X104823088Y-138827832D01*
X104525537Y-138951082D01*
X104257748Y-139130013D01*
X104030013Y-139357748D01*
X103851082Y-139625537D01*
X103727832Y-139923088D01*
X103665000Y-140238967D01*
X101634881Y-140238967D01*
X101572168Y-139923688D01*
X101448918Y-139626137D01*
X101269987Y-139358348D01*
X101042252Y-139130613D01*
X100774463Y-138951682D01*
X100476912Y-138828432D01*
X100161033Y-138765600D01*
X99838967Y-138765600D01*
X99523088Y-138828432D01*
X99225537Y-138951682D01*
X98957748Y-139130613D01*
X98730013Y-139358348D01*
X98551082Y-139626137D01*
X98427832Y-139923688D01*
X98365000Y-140239567D01*
X96335000Y-140239567D01*
X96335000Y-140238967D01*
X96272168Y-139923088D01*
X96148918Y-139625537D01*
X95969987Y-139357748D01*
X95742252Y-139130013D01*
X95474463Y-138951082D01*
X95176912Y-138827832D01*
X94861033Y-138765000D01*
X94538967Y-138765000D01*
X94223088Y-138827832D01*
X93925537Y-138951082D01*
X93657748Y-139130013D01*
X93430013Y-139357748D01*
X93251082Y-139625537D01*
X93127832Y-139923088D01*
X93065000Y-140238967D01*
X89472696Y-140238967D01*
X89355999Y-139861981D01*
X89330166Y-139800526D01*
X89305228Y-139738803D01*
X89300411Y-139729742D01*
X89008010Y-139188958D01*
X88970733Y-139133694D01*
X88934281Y-139077989D01*
X88927796Y-139070036D01*
X88535925Y-138596346D01*
X88488654Y-138549403D01*
X88442046Y-138501809D01*
X88434145Y-138495273D01*
X88434140Y-138495268D01*
X88434135Y-138495264D01*
X87957724Y-138106713D01*
X87902200Y-138069823D01*
X87847272Y-138032213D01*
X87838248Y-138027333D01*
X87838240Y-138027329D01*
X87295434Y-137738714D01*
X87233828Y-137713321D01*
X87172614Y-137687085D01*
X87162811Y-137684050D01*
X86574276Y-137506361D01*
X86508895Y-137493415D01*
X86443767Y-137479572D01*
X86433563Y-137478499D01*
X86433561Y-137478499D01*
X85821723Y-137418508D01*
X85786105Y-137415000D01*
X83535725Y-137415000D01*
X83487690Y-137410276D01*
X83476214Y-137406798D01*
X83465611Y-137401133D01*
X83456412Y-137393585D01*
X83448866Y-137384389D01*
X83443201Y-137373787D01*
X83439723Y-137362308D01*
X83435000Y-137314284D01*
X83435000Y-135438967D01*
X93065000Y-135438967D01*
X93065000Y-135761033D01*
X93127832Y-136076912D01*
X93251082Y-136374463D01*
X93430013Y-136642252D01*
X93657748Y-136869987D01*
X93925537Y-137048918D01*
X94223088Y-137172168D01*
X94538967Y-137235000D01*
X94861033Y-137235000D01*
X95176912Y-137172168D01*
X95474463Y-137048918D01*
X95742252Y-136869987D01*
X95969987Y-136642252D01*
X96148918Y-136374463D01*
X96272168Y-136076912D01*
X96335000Y-135761033D01*
X96335000Y-135438967D01*
X98365000Y-135438967D01*
X98365000Y-135761033D01*
X98427832Y-136076912D01*
X98551082Y-136374463D01*
X98730013Y-136642252D01*
X98957748Y-136869987D01*
X99225537Y-137048918D01*
X99523088Y-137172168D01*
X99838967Y-137235000D01*
X100161033Y-137235000D01*
X100476912Y-137172168D01*
X100774463Y-137048918D01*
X101042252Y-136869987D01*
X101176826Y-136735413D01*
X104344192Y-136735413D01*
X104439956Y-136999814D01*
X104729571Y-137140704D01*
X105041108Y-137222384D01*
X105362595Y-137241718D01*
X105681675Y-137197961D01*
X105986088Y-137092795D01*
X106160044Y-136999814D01*
X106255808Y-136735413D01*
X105300000Y-135779605D01*
X104344192Y-136735413D01*
X101176826Y-136735413D01*
X101269987Y-136642252D01*
X101448918Y-136374463D01*
X101572168Y-136076912D01*
X101635000Y-135761033D01*
X101635000Y-135662595D01*
X103658282Y-135662595D01*
X103702039Y-135981675D01*
X103807205Y-136286088D01*
X103900186Y-136460044D01*
X104164587Y-136555808D01*
X105120395Y-135600000D01*
X105479605Y-135600000D01*
X106435413Y-136555808D01*
X106699814Y-136460044D01*
X106840704Y-136170429D01*
X106922384Y-135858892D01*
X106941718Y-135537405D01*
X106897961Y-135218325D01*
X106792795Y-134913912D01*
X106699814Y-134739956D01*
X106435413Y-134644192D01*
X105479605Y-135600000D01*
X105120395Y-135600000D01*
X104164587Y-134644192D01*
X103900186Y-134739956D01*
X103759296Y-135029571D01*
X103677616Y-135341108D01*
X103658282Y-135662595D01*
X101635000Y-135662595D01*
X101635000Y-135438967D01*
X101572168Y-135123088D01*
X101448918Y-134825537D01*
X101269987Y-134557748D01*
X101176826Y-134464587D01*
X104344192Y-134464587D01*
X105300000Y-135420395D01*
X106255808Y-134464587D01*
X106160044Y-134200186D01*
X105870429Y-134059296D01*
X105558892Y-133977616D01*
X105237405Y-133958282D01*
X104918325Y-134002039D01*
X104613912Y-134107205D01*
X104439956Y-134200186D01*
X104344192Y-134464587D01*
X101176826Y-134464587D01*
X101042252Y-134330013D01*
X100774463Y-134151082D01*
X100476912Y-134027832D01*
X100161033Y-133965000D01*
X99838967Y-133965000D01*
X99523088Y-134027832D01*
X99225537Y-134151082D01*
X98957748Y-134330013D01*
X98730013Y-134557748D01*
X98551082Y-134825537D01*
X98427832Y-135123088D01*
X98365000Y-135438967D01*
X96335000Y-135438967D01*
X96272168Y-135123088D01*
X96148918Y-134825537D01*
X95969987Y-134557748D01*
X95742252Y-134330013D01*
X95474463Y-134151082D01*
X95176912Y-134027832D01*
X94861033Y-133965000D01*
X94538967Y-133965000D01*
X94223088Y-134027832D01*
X93925537Y-134151082D01*
X93657748Y-134330013D01*
X93430013Y-134557748D01*
X93251082Y-134825537D01*
X93127832Y-135123088D01*
X93065000Y-135438967D01*
X83435000Y-135438967D01*
X83435000Y-130638967D01*
X93065000Y-130638967D01*
X93065000Y-130961033D01*
X93127832Y-131276912D01*
X93251082Y-131574463D01*
X93430013Y-131842252D01*
X93657748Y-132069987D01*
X93925537Y-132248918D01*
X94223088Y-132372168D01*
X94538967Y-132435000D01*
X94861033Y-132435000D01*
X95176912Y-132372168D01*
X95474463Y-132248918D01*
X95742252Y-132069987D01*
X95969987Y-131842252D01*
X96148918Y-131574463D01*
X96272168Y-131276912D01*
X96335000Y-130961033D01*
X96335000Y-130638967D01*
X96334881Y-130638367D01*
X98365000Y-130638367D01*
X98365000Y-130960433D01*
X98427832Y-131276312D01*
X98551082Y-131573863D01*
X98730013Y-131841652D01*
X98957748Y-132069387D01*
X99225537Y-132248318D01*
X99523088Y-132371568D01*
X99838967Y-132434400D01*
X100161033Y-132434400D01*
X100476912Y-132371568D01*
X100774463Y-132248318D01*
X101042252Y-132069387D01*
X101269987Y-131841652D01*
X101448918Y-131573863D01*
X101572168Y-131276312D01*
X101635000Y-130960433D01*
X101635000Y-130638967D01*
X103665000Y-130638967D01*
X103665000Y-130961033D01*
X103727832Y-131276912D01*
X103851082Y-131574463D01*
X104030013Y-131842252D01*
X104257748Y-132069987D01*
X104525537Y-132248918D01*
X104823088Y-132372168D01*
X105138967Y-132435000D01*
X105461033Y-132435000D01*
X105776912Y-132372168D01*
X106074463Y-132248918D01*
X106342252Y-132069987D01*
X106569987Y-131842252D01*
X106748918Y-131574463D01*
X106872168Y-131276912D01*
X106935000Y-130961033D01*
X106935000Y-130638967D01*
X106872168Y-130323088D01*
X106748918Y-130025537D01*
X106569987Y-129757748D01*
X106342252Y-129530013D01*
X106074463Y-129351082D01*
X105776912Y-129227832D01*
X105461033Y-129165000D01*
X105138967Y-129165000D01*
X104823088Y-129227832D01*
X104525537Y-129351082D01*
X104257748Y-129530013D01*
X104030013Y-129757748D01*
X103851082Y-130025537D01*
X103727832Y-130323088D01*
X103665000Y-130638967D01*
X101635000Y-130638967D01*
X101635000Y-130638367D01*
X101572168Y-130322488D01*
X101448918Y-130024937D01*
X101269987Y-129757148D01*
X101042252Y-129529413D01*
X100774463Y-129350482D01*
X100476912Y-129227232D01*
X100161033Y-129164400D01*
X99838967Y-129164400D01*
X99523088Y-129227232D01*
X99225537Y-129350482D01*
X98957748Y-129529413D01*
X98730013Y-129757148D01*
X98551082Y-130024937D01*
X98427832Y-130322488D01*
X98365000Y-130638367D01*
X96334881Y-130638367D01*
X96272168Y-130323088D01*
X96148918Y-130025537D01*
X95969987Y-129757748D01*
X95742252Y-129530013D01*
X95474463Y-129351082D01*
X95176912Y-129227832D01*
X94861033Y-129165000D01*
X94538967Y-129165000D01*
X94223088Y-129227832D01*
X93925537Y-129351082D01*
X93657748Y-129530013D01*
X93430013Y-129757748D01*
X93251082Y-130025537D01*
X93127832Y-130323088D01*
X93065000Y-130638967D01*
X83435000Y-130638967D01*
X83435000Y-124777980D01*
X86801626Y-124777980D01*
X86921514Y-125062836D01*
X87245210Y-125223699D01*
X87594069Y-125318322D01*
X87954684Y-125343067D01*
X88313198Y-125296985D01*
X88655833Y-125181846D01*
X88878486Y-125062836D01*
X88998374Y-124777980D01*
X87900000Y-123679605D01*
X86801626Y-124777980D01*
X83435000Y-124777980D01*
X83435000Y-123554684D01*
X86056933Y-123554684D01*
X86103015Y-123913198D01*
X86218154Y-124255833D01*
X86337164Y-124478486D01*
X86622020Y-124598374D01*
X87720395Y-123500000D01*
X88079605Y-123500000D01*
X89177980Y-124598374D01*
X89462836Y-124478486D01*
X89623699Y-124154790D01*
X89718322Y-123805931D01*
X89743067Y-123445316D01*
X89726866Y-123319268D01*
X98765000Y-123319268D01*
X98765000Y-123680732D01*
X98835518Y-124035250D01*
X98973844Y-124369199D01*
X99174662Y-124669744D01*
X99430256Y-124925338D01*
X99730801Y-125126156D01*
X100064750Y-125264482D01*
X100419268Y-125335000D01*
X100780732Y-125335000D01*
X101135250Y-125264482D01*
X101469199Y-125126156D01*
X101769744Y-124925338D01*
X102025338Y-124669744D01*
X102226156Y-124369199D01*
X102334322Y-124108061D01*
X104925000Y-124108061D01*
X104925000Y-124311939D01*
X104964774Y-124511898D01*
X105042795Y-124700256D01*
X105156063Y-124869774D01*
X105300226Y-125013937D01*
X105469744Y-125127205D01*
X105658102Y-125205226D01*
X105858061Y-125245000D01*
X106061939Y-125245000D01*
X106261898Y-125205226D01*
X106450256Y-125127205D01*
X106619774Y-125013937D01*
X106763937Y-124869774D01*
X106877205Y-124700256D01*
X106955226Y-124511898D01*
X106995000Y-124311939D01*
X106995000Y-124108061D01*
X106955226Y-123908102D01*
X106877205Y-123719744D01*
X106763937Y-123550226D01*
X106619774Y-123406063D01*
X106450256Y-123292795D01*
X106261898Y-123214774D01*
X106061939Y-123175000D01*
X105858061Y-123175000D01*
X105658102Y-123214774D01*
X105469744Y-123292795D01*
X105300226Y-123406063D01*
X105156063Y-123550226D01*
X105042795Y-123719744D01*
X104964774Y-123908102D01*
X104925000Y-124108061D01*
X102334322Y-124108061D01*
X102364482Y-124035250D01*
X102435000Y-123680732D01*
X102435000Y-123319268D01*
X102364482Y-122964750D01*
X102226156Y-122630801D01*
X102125394Y-122480000D01*
X108309509Y-122480000D01*
X108331423Y-122702499D01*
X108396324Y-122916447D01*
X108501716Y-123113623D01*
X108502846Y-123115000D01*
X108501716Y-123116377D01*
X108396324Y-123313553D01*
X108331423Y-123527501D01*
X108309509Y-123750000D01*
X108331423Y-123972499D01*
X108396324Y-124186447D01*
X108402297Y-124197621D01*
X108360498Y-124275820D01*
X108324188Y-124395518D01*
X108311928Y-124520000D01*
X108311928Y-125520000D01*
X108324188Y-125644482D01*
X108360498Y-125764180D01*
X108419463Y-125874494D01*
X108498815Y-125971185D01*
X108595506Y-126050537D01*
X108705820Y-126109502D01*
X108825518Y-126145812D01*
X108950000Y-126158072D01*
X110450000Y-126158072D01*
X110574482Y-126145812D01*
X110694180Y-126109502D01*
X110804494Y-126050537D01*
X110901185Y-125971185D01*
X110980537Y-125874494D01*
X111039502Y-125764180D01*
X111075812Y-125644482D01*
X111088072Y-125520000D01*
X111088072Y-124520000D01*
X111075812Y-124395518D01*
X111039502Y-124275820D01*
X110997703Y-124197621D01*
X111003676Y-124186447D01*
X111068577Y-123972499D01*
X111090491Y-123750000D01*
X111068577Y-123527501D01*
X111003676Y-123313553D01*
X110898284Y-123116377D01*
X110897154Y-123115000D01*
X110898284Y-123113623D01*
X111003676Y-122916447D01*
X111068577Y-122702499D01*
X111090491Y-122480000D01*
X111078482Y-122358061D01*
X112115000Y-122358061D01*
X112115000Y-122561939D01*
X112154774Y-122761898D01*
X112232795Y-122950256D01*
X112346063Y-123119774D01*
X112490226Y-123263937D01*
X112659744Y-123377205D01*
X112848102Y-123455226D01*
X113048061Y-123495000D01*
X113251939Y-123495000D01*
X113451898Y-123455226D01*
X113640256Y-123377205D01*
X113809774Y-123263937D01*
X113953937Y-123119774D01*
X114067205Y-122950256D01*
X114145226Y-122761898D01*
X114185000Y-122561939D01*
X114185000Y-122358061D01*
X114145226Y-122158102D01*
X114067205Y-121969744D01*
X113953937Y-121800226D01*
X113809774Y-121656063D01*
X113640256Y-121542795D01*
X113451898Y-121464774D01*
X113251939Y-121425000D01*
X113048061Y-121425000D01*
X112848102Y-121464774D01*
X112659744Y-121542795D01*
X112490226Y-121656063D01*
X112346063Y-121800226D01*
X112232795Y-121969744D01*
X112154774Y-122158102D01*
X112115000Y-122358061D01*
X111078482Y-122358061D01*
X111068577Y-122257501D01*
X111003676Y-122043553D01*
X110898284Y-121846377D01*
X110756449Y-121673551D01*
X110583623Y-121531716D01*
X110386447Y-121426324D01*
X110172499Y-121361423D01*
X110005752Y-121345000D01*
X109394248Y-121345000D01*
X109227501Y-121361423D01*
X109013553Y-121426324D01*
X108816377Y-121531716D01*
X108643551Y-121673551D01*
X108501716Y-121846377D01*
X108396324Y-122043553D01*
X108331423Y-122257501D01*
X108309509Y-122480000D01*
X102125394Y-122480000D01*
X102025338Y-122330256D01*
X101769744Y-122074662D01*
X101469199Y-121873844D01*
X101135250Y-121735518D01*
X100780732Y-121665000D01*
X100419268Y-121665000D01*
X100064750Y-121735518D01*
X99730801Y-121873844D01*
X99430256Y-122074662D01*
X99174662Y-122330256D01*
X98973844Y-122630801D01*
X98835518Y-122964750D01*
X98765000Y-123319268D01*
X89726866Y-123319268D01*
X89696985Y-123086802D01*
X89581846Y-122744167D01*
X89462836Y-122521514D01*
X89177980Y-122401626D01*
X88079605Y-123500000D01*
X87720395Y-123500000D01*
X86622020Y-122401626D01*
X86337164Y-122521514D01*
X86176301Y-122845210D01*
X86081678Y-123194069D01*
X86056933Y-123554684D01*
X83435000Y-123554684D01*
X83435000Y-122222020D01*
X86801626Y-122222020D01*
X87900000Y-123320395D01*
X88998374Y-122222020D01*
X88878486Y-121937164D01*
X88554790Y-121776301D01*
X88205931Y-121681678D01*
X87845316Y-121656933D01*
X87486802Y-121703015D01*
X87144167Y-121818154D01*
X86921514Y-121937164D01*
X86801626Y-122222020D01*
X83435000Y-122222020D01*
X83435000Y-113377980D01*
X86801626Y-113377980D01*
X86921514Y-113662836D01*
X87245210Y-113823699D01*
X87594069Y-113918322D01*
X87954684Y-113943067D01*
X88313198Y-113896985D01*
X88655833Y-113781846D01*
X88878486Y-113662836D01*
X88998374Y-113377980D01*
X99501626Y-113377980D01*
X99621514Y-113662836D01*
X99945210Y-113823699D01*
X100294069Y-113918322D01*
X100654684Y-113943067D01*
X101013198Y-113896985D01*
X101355833Y-113781846D01*
X101578486Y-113662836D01*
X101698374Y-113377980D01*
X100600000Y-112279605D01*
X99501626Y-113377980D01*
X88998374Y-113377980D01*
X87900000Y-112279605D01*
X86801626Y-113377980D01*
X83435000Y-113377980D01*
X83435000Y-112154684D01*
X86056933Y-112154684D01*
X86103015Y-112513198D01*
X86218154Y-112855833D01*
X86337164Y-113078486D01*
X86622020Y-113198374D01*
X87720395Y-112100000D01*
X88079605Y-112100000D01*
X89177980Y-113198374D01*
X89462836Y-113078486D01*
X89623699Y-112754790D01*
X89718322Y-112405931D01*
X89735562Y-112154684D01*
X98756933Y-112154684D01*
X98803015Y-112513198D01*
X98918154Y-112855833D01*
X99037164Y-113078486D01*
X99322020Y-113198374D01*
X100420395Y-112100000D01*
X100779605Y-112100000D01*
X101877980Y-113198374D01*
X102162836Y-113078486D01*
X102323699Y-112754790D01*
X102418322Y-112405931D01*
X102443067Y-112045316D01*
X102396985Y-111686802D01*
X102281846Y-111344167D01*
X102162836Y-111121514D01*
X101877980Y-111001626D01*
X100779605Y-112100000D01*
X100420395Y-112100000D01*
X99322020Y-111001626D01*
X99037164Y-111121514D01*
X98876301Y-111445210D01*
X98781678Y-111794069D01*
X98756933Y-112154684D01*
X89735562Y-112154684D01*
X89743067Y-112045316D01*
X89696985Y-111686802D01*
X89581846Y-111344167D01*
X89462836Y-111121514D01*
X89177980Y-111001626D01*
X88079605Y-112100000D01*
X87720395Y-112100000D01*
X86622020Y-111001626D01*
X86337164Y-111121514D01*
X86176301Y-111445210D01*
X86081678Y-111794069D01*
X86056933Y-112154684D01*
X83435000Y-112154684D01*
X83435000Y-110822020D01*
X86801626Y-110822020D01*
X87900000Y-111920395D01*
X88998374Y-110822020D01*
X99501626Y-110822020D01*
X100600000Y-111920395D01*
X101698374Y-110822020D01*
X101578486Y-110537164D01*
X101254790Y-110376301D01*
X100905931Y-110281678D01*
X100545316Y-110256933D01*
X100186802Y-110303015D01*
X99844167Y-110418154D01*
X99621514Y-110537164D01*
X99501626Y-110822020D01*
X88998374Y-110822020D01*
X88878486Y-110537164D01*
X88554790Y-110376301D01*
X88205931Y-110281678D01*
X87845316Y-110256933D01*
X87486802Y-110303015D01*
X87144167Y-110418154D01*
X86921514Y-110537164D01*
X86801626Y-110822020D01*
X83435000Y-110822020D01*
X83435000Y-108948061D01*
X103415000Y-108948061D01*
X103415000Y-109151939D01*
X103454774Y-109351898D01*
X103532795Y-109540256D01*
X103646063Y-109709774D01*
X103790226Y-109853937D01*
X103959744Y-109967205D01*
X104148102Y-110045226D01*
X104348061Y-110085000D01*
X104551939Y-110085000D01*
X104751898Y-110045226D01*
X104940256Y-109967205D01*
X105109774Y-109853937D01*
X105253937Y-109709774D01*
X105367205Y-109540256D01*
X105445226Y-109351898D01*
X105485000Y-109151939D01*
X105485000Y-108948061D01*
X105445226Y-108748102D01*
X105367205Y-108559744D01*
X105253937Y-108390226D01*
X105109774Y-108246063D01*
X104940256Y-108132795D01*
X104751898Y-108054774D01*
X104551939Y-108015000D01*
X104348061Y-108015000D01*
X104148102Y-108054774D01*
X103959744Y-108132795D01*
X103790226Y-108246063D01*
X103646063Y-108390226D01*
X103532795Y-108559744D01*
X103454774Y-108748102D01*
X103415000Y-108948061D01*
X83435000Y-108948061D01*
X83435000Y-104744224D01*
X85708230Y-104744224D01*
X85708230Y-105186282D01*
X85794472Y-105619845D01*
X85963640Y-106028253D01*
X86209233Y-106395810D01*
X86521815Y-106708392D01*
X86889372Y-106953985D01*
X87297780Y-107123153D01*
X87731343Y-107209395D01*
X88173401Y-107209395D01*
X88606964Y-107123153D01*
X89015372Y-106953985D01*
X89382929Y-106708392D01*
X89695511Y-106395810D01*
X89941104Y-106028253D01*
X90110272Y-105619845D01*
X90196514Y-105186282D01*
X90196514Y-104750000D01*
X97111928Y-104750000D01*
X97111928Y-106750000D01*
X97124188Y-106874482D01*
X97160498Y-106994180D01*
X97219463Y-107104494D01*
X97298815Y-107201185D01*
X97395506Y-107280537D01*
X97505820Y-107339502D01*
X97625518Y-107375812D01*
X97750000Y-107388072D01*
X99750000Y-107388072D01*
X99874482Y-107375812D01*
X99994180Y-107339502D01*
X100104494Y-107280537D01*
X100201185Y-107201185D01*
X100280537Y-107104494D01*
X100305191Y-107058370D01*
X100515537Y-107198918D01*
X100813088Y-107322168D01*
X101128967Y-107385000D01*
X101451033Y-107385000D01*
X101766912Y-107322168D01*
X102064463Y-107198918D01*
X102332252Y-107019987D01*
X102559987Y-106792252D01*
X102738918Y-106524463D01*
X102862168Y-106226912D01*
X102925000Y-105911033D01*
X102925000Y-105588967D01*
X102862168Y-105273088D01*
X102738918Y-104975537D01*
X102584360Y-104744224D01*
X110203485Y-104744224D01*
X110203485Y-105186282D01*
X110289727Y-105619845D01*
X110458895Y-106028253D01*
X110704488Y-106395810D01*
X111017070Y-106708392D01*
X111384627Y-106953985D01*
X111793035Y-107123153D01*
X112226598Y-107209395D01*
X112668656Y-107209395D01*
X113102219Y-107123153D01*
X113510627Y-106953985D01*
X113878184Y-106708392D01*
X114190766Y-106395810D01*
X114436359Y-106028253D01*
X114605527Y-105619845D01*
X114691769Y-105186282D01*
X114691769Y-104744224D01*
X114605527Y-104310661D01*
X114436359Y-103902253D01*
X114190766Y-103534696D01*
X113878184Y-103222114D01*
X113510627Y-102976521D01*
X113102219Y-102807353D01*
X112668656Y-102721111D01*
X112226598Y-102721111D01*
X111793035Y-102807353D01*
X111384627Y-102976521D01*
X111017070Y-103222114D01*
X110704488Y-103534696D01*
X110458895Y-103902253D01*
X110289727Y-104310661D01*
X110203485Y-104744224D01*
X102584360Y-104744224D01*
X102559987Y-104707748D01*
X102332252Y-104480013D01*
X102064463Y-104301082D01*
X101766912Y-104177832D01*
X101451033Y-104115000D01*
X101128967Y-104115000D01*
X100813088Y-104177832D01*
X100515537Y-104301082D01*
X100305191Y-104441630D01*
X100280537Y-104395506D01*
X100201185Y-104298815D01*
X100104494Y-104219463D01*
X99994180Y-104160498D01*
X99874482Y-104124188D01*
X99750000Y-104111928D01*
X97750000Y-104111928D01*
X97625518Y-104124188D01*
X97505820Y-104160498D01*
X97395506Y-104219463D01*
X97298815Y-104298815D01*
X97219463Y-104395506D01*
X97160498Y-104505820D01*
X97124188Y-104625518D01*
X97111928Y-104750000D01*
X90196514Y-104750000D01*
X90196514Y-104744224D01*
X90110272Y-104310661D01*
X89941104Y-103902253D01*
X89786665Y-103671119D01*
X89820256Y-103657205D01*
X89989774Y-103543937D01*
X90133937Y-103399774D01*
X90247205Y-103230256D01*
X90325226Y-103041898D01*
X90365000Y-102841939D01*
X90365000Y-102818061D01*
X103135000Y-102818061D01*
X103135000Y-103021939D01*
X103174774Y-103221898D01*
X103252795Y-103410256D01*
X103366063Y-103579774D01*
X103510226Y-103723937D01*
X103679744Y-103837205D01*
X103868102Y-103915226D01*
X104068061Y-103955000D01*
X104271939Y-103955000D01*
X104471898Y-103915226D01*
X104660256Y-103837205D01*
X104829774Y-103723937D01*
X104973937Y-103579774D01*
X105087205Y-103410256D01*
X105165226Y-103221898D01*
X105205000Y-103021939D01*
X105205000Y-102818061D01*
X105165226Y-102618102D01*
X105087205Y-102429744D01*
X104973937Y-102260226D01*
X104829774Y-102116063D01*
X104660256Y-102002795D01*
X104471898Y-101924774D01*
X104271939Y-101885000D01*
X104068061Y-101885000D01*
X103868102Y-101924774D01*
X103679744Y-102002795D01*
X103510226Y-102116063D01*
X103366063Y-102260226D01*
X103252795Y-102429744D01*
X103174774Y-102618102D01*
X103135000Y-102818061D01*
X90365000Y-102818061D01*
X90365000Y-102638061D01*
X90325226Y-102438102D01*
X90247205Y-102249744D01*
X90133937Y-102080226D01*
X89989774Y-101936063D01*
X89820256Y-101822795D01*
X89631898Y-101744774D01*
X89431939Y-101705000D01*
X89228061Y-101705000D01*
X89028102Y-101744774D01*
X88839744Y-101822795D01*
X88670226Y-101936063D01*
X88526063Y-102080226D01*
X88412795Y-102249744D01*
X88334774Y-102438102D01*
X88295000Y-102638061D01*
X88295000Y-102745299D01*
X88173401Y-102721111D01*
X87731343Y-102721111D01*
X87297780Y-102807353D01*
X86889372Y-102976521D01*
X86521815Y-103222114D01*
X86209233Y-103534696D01*
X85963640Y-103902253D01*
X85794472Y-104310661D01*
X85708230Y-104744224D01*
X83435000Y-104744224D01*
X83435000Y-99319268D01*
X97565000Y-99319268D01*
X97565000Y-99680732D01*
X97635518Y-100035250D01*
X97773844Y-100369199D01*
X97974662Y-100669744D01*
X98230256Y-100925338D01*
X98530801Y-101126156D01*
X98864750Y-101264482D01*
X99219268Y-101335000D01*
X99580732Y-101335000D01*
X99935250Y-101264482D01*
X100269199Y-101126156D01*
X100569744Y-100925338D01*
X100825338Y-100669744D01*
X101026156Y-100369199D01*
X101164482Y-100035250D01*
X101235000Y-99680732D01*
X101235000Y-99319268D01*
X110265000Y-99319268D01*
X110265000Y-99680732D01*
X110335518Y-100035250D01*
X110473844Y-100369199D01*
X110674662Y-100669744D01*
X110930256Y-100925338D01*
X111230801Y-101126156D01*
X111564750Y-101264482D01*
X111919268Y-101335000D01*
X112280732Y-101335000D01*
X112635250Y-101264482D01*
X112969199Y-101126156D01*
X113269744Y-100925338D01*
X113525338Y-100669744D01*
X113726156Y-100369199D01*
X113864482Y-100035250D01*
X113935000Y-99680732D01*
X113935000Y-99319268D01*
X113864482Y-98964750D01*
X113726156Y-98630801D01*
X113525338Y-98330256D01*
X113269744Y-98074662D01*
X112969199Y-97873844D01*
X112728738Y-97774242D01*
X112765000Y-97591939D01*
X112765000Y-97388061D01*
X112725226Y-97188102D01*
X112647205Y-96999744D01*
X112533937Y-96830226D01*
X112389774Y-96686063D01*
X112220256Y-96572795D01*
X112031898Y-96494774D01*
X111831939Y-96455000D01*
X111628061Y-96455000D01*
X111428102Y-96494774D01*
X111239744Y-96572795D01*
X111070226Y-96686063D01*
X110926063Y-96830226D01*
X110812795Y-96999744D01*
X110734774Y-97188102D01*
X110695000Y-97388061D01*
X110695000Y-97591939D01*
X110734774Y-97791898D01*
X110812795Y-97980256D01*
X110897657Y-98107261D01*
X110674662Y-98330256D01*
X110473844Y-98630801D01*
X110335518Y-98964750D01*
X110265000Y-99319268D01*
X101235000Y-99319268D01*
X101164482Y-98964750D01*
X101026156Y-98630801D01*
X100825338Y-98330256D01*
X100569744Y-98074662D01*
X100269199Y-97873844D01*
X99935250Y-97735518D01*
X99580732Y-97665000D01*
X99452213Y-97665000D01*
X99601898Y-97635226D01*
X99790256Y-97557205D01*
X99959774Y-97443937D01*
X100103937Y-97299774D01*
X100217205Y-97130256D01*
X100251251Y-97048061D01*
X100535000Y-97048061D01*
X100535000Y-97251939D01*
X100574774Y-97451898D01*
X100652795Y-97640256D01*
X100766063Y-97809774D01*
X100910226Y-97953937D01*
X101079744Y-98067205D01*
X101268102Y-98145226D01*
X101468061Y-98185000D01*
X101671939Y-98185000D01*
X101871898Y-98145226D01*
X102060256Y-98067205D01*
X102229774Y-97953937D01*
X102373937Y-97809774D01*
X102487205Y-97640256D01*
X102565226Y-97451898D01*
X102605000Y-97251939D01*
X102605000Y-97048061D01*
X102565226Y-96848102D01*
X102487205Y-96659744D01*
X102373937Y-96490226D01*
X102229774Y-96346063D01*
X102060256Y-96232795D01*
X101871898Y-96154774D01*
X101671939Y-96115000D01*
X101468061Y-96115000D01*
X101268102Y-96154774D01*
X101079744Y-96232795D01*
X100910226Y-96346063D01*
X100766063Y-96490226D01*
X100652795Y-96659744D01*
X100574774Y-96848102D01*
X100535000Y-97048061D01*
X100251251Y-97048061D01*
X100295226Y-96941898D01*
X100335000Y-96741939D01*
X100335000Y-96538061D01*
X100295226Y-96338102D01*
X100217205Y-96149744D01*
X100103937Y-95980226D01*
X99959774Y-95836063D01*
X99790256Y-95722795D01*
X99601898Y-95644774D01*
X99401939Y-95605000D01*
X99198061Y-95605000D01*
X98998102Y-95644774D01*
X98809744Y-95722795D01*
X98640226Y-95836063D01*
X98496063Y-95980226D01*
X98382795Y-96149744D01*
X98304774Y-96338102D01*
X98265000Y-96538061D01*
X98265000Y-96741939D01*
X98304774Y-96941898D01*
X98382795Y-97130256D01*
X98496063Y-97299774D01*
X98640226Y-97443937D01*
X98809744Y-97557205D01*
X98998102Y-97635226D01*
X99183528Y-97672109D01*
X98864750Y-97735518D01*
X98530801Y-97873844D01*
X98230256Y-98074662D01*
X97974662Y-98330256D01*
X97773844Y-98630801D01*
X97635518Y-98964750D01*
X97565000Y-99319268D01*
X83435000Y-99319268D01*
X83435000Y-95138061D01*
X107535000Y-95138061D01*
X107535000Y-95341939D01*
X107574774Y-95541898D01*
X107652795Y-95730256D01*
X107766063Y-95899774D01*
X107910226Y-96043937D01*
X108079744Y-96157205D01*
X108268102Y-96235226D01*
X108468061Y-96275000D01*
X108671939Y-96275000D01*
X108871898Y-96235226D01*
X109060256Y-96157205D01*
X109229774Y-96043937D01*
X109373937Y-95899774D01*
X109487205Y-95730256D01*
X109565226Y-95541898D01*
X109605000Y-95341939D01*
X109605000Y-95138061D01*
X109565226Y-94938102D01*
X109487205Y-94749744D01*
X109373937Y-94580226D01*
X109229774Y-94436063D01*
X109060256Y-94322795D01*
X108871898Y-94244774D01*
X108671939Y-94205000D01*
X108468061Y-94205000D01*
X108268102Y-94244774D01*
X108079744Y-94322795D01*
X107910226Y-94436063D01*
X107766063Y-94580226D01*
X107652795Y-94749744D01*
X107574774Y-94938102D01*
X107535000Y-95138061D01*
X83435000Y-95138061D01*
X83435000Y-90400000D01*
X87434509Y-90400000D01*
X87456423Y-90622499D01*
X87521324Y-90836447D01*
X87626716Y-91033623D01*
X87627846Y-91035000D01*
X87626716Y-91036377D01*
X87521324Y-91233553D01*
X87456423Y-91447501D01*
X87434509Y-91670000D01*
X87456423Y-91892499D01*
X87521324Y-92106447D01*
X87527297Y-92117621D01*
X87485498Y-92195820D01*
X87449188Y-92315518D01*
X87436928Y-92440000D01*
X87436928Y-93440000D01*
X87449188Y-93564482D01*
X87485498Y-93684180D01*
X87544463Y-93794494D01*
X87623815Y-93891185D01*
X87720506Y-93970537D01*
X87830820Y-94029502D01*
X87950518Y-94065812D01*
X88075000Y-94078072D01*
X89575000Y-94078072D01*
X89699482Y-94065812D01*
X89819180Y-94029502D01*
X89929494Y-93970537D01*
X90026185Y-93891185D01*
X90105537Y-93794494D01*
X90164502Y-93684180D01*
X90200812Y-93564482D01*
X90213072Y-93440000D01*
X90213072Y-92440000D01*
X90200812Y-92315518D01*
X90164502Y-92195820D01*
X90122703Y-92117621D01*
X90128676Y-92106447D01*
X90193577Y-91892499D01*
X90215491Y-91670000D01*
X90193577Y-91447501D01*
X90143695Y-91283061D01*
X93705000Y-91283061D01*
X93705000Y-91486939D01*
X93744774Y-91686898D01*
X93822795Y-91875256D01*
X93936063Y-92044774D01*
X94080226Y-92188937D01*
X94249744Y-92302205D01*
X94438102Y-92380226D01*
X94638061Y-92420000D01*
X94841939Y-92420000D01*
X95041898Y-92380226D01*
X95230256Y-92302205D01*
X95399774Y-92188937D01*
X95543937Y-92044774D01*
X95657205Y-91875256D01*
X95735226Y-91686898D01*
X95775000Y-91486939D01*
X95775000Y-91283061D01*
X98325000Y-91283061D01*
X98325000Y-91486939D01*
X98364774Y-91686898D01*
X98442795Y-91875256D01*
X98556063Y-92044774D01*
X98700226Y-92188937D01*
X98869744Y-92302205D01*
X99058102Y-92380226D01*
X99258061Y-92420000D01*
X99461939Y-92420000D01*
X99661898Y-92380226D01*
X99850256Y-92302205D01*
X100019774Y-92188937D01*
X100163937Y-92044774D01*
X100275330Y-91878061D01*
X107535000Y-91878061D01*
X107535000Y-92081939D01*
X107574774Y-92281898D01*
X107652795Y-92470256D01*
X107766063Y-92639774D01*
X107910226Y-92783937D01*
X108079744Y-92897205D01*
X108268102Y-92975226D01*
X108468061Y-93015000D01*
X108671939Y-93015000D01*
X108871898Y-92975226D01*
X109060256Y-92897205D01*
X109229774Y-92783937D01*
X109373937Y-92639774D01*
X109487205Y-92470256D01*
X109504682Y-92428061D01*
X110025000Y-92428061D01*
X110025000Y-92631939D01*
X110064774Y-92831898D01*
X110142795Y-93020256D01*
X110256063Y-93189774D01*
X110400226Y-93333937D01*
X110569744Y-93447205D01*
X110758102Y-93525226D01*
X110958061Y-93565000D01*
X111161939Y-93565000D01*
X111361898Y-93525226D01*
X111550256Y-93447205D01*
X111719774Y-93333937D01*
X111863937Y-93189774D01*
X111977205Y-93020256D01*
X112055226Y-92831898D01*
X112095000Y-92631939D01*
X112095000Y-92428061D01*
X112055226Y-92228102D01*
X111977205Y-92039744D01*
X111863937Y-91870226D01*
X111719774Y-91726063D01*
X111550256Y-91612795D01*
X111361898Y-91534774D01*
X111161939Y-91495000D01*
X110958061Y-91495000D01*
X110758102Y-91534774D01*
X110569744Y-91612795D01*
X110400226Y-91726063D01*
X110256063Y-91870226D01*
X110142795Y-92039744D01*
X110064774Y-92228102D01*
X110025000Y-92428061D01*
X109504682Y-92428061D01*
X109565226Y-92281898D01*
X109605000Y-92081939D01*
X109605000Y-91878061D01*
X109565226Y-91678102D01*
X109487205Y-91489744D01*
X109373937Y-91320226D01*
X109229774Y-91176063D01*
X109060256Y-91062795D01*
X108871898Y-90984774D01*
X108671939Y-90945000D01*
X108468061Y-90945000D01*
X108268102Y-90984774D01*
X108079744Y-91062795D01*
X107910226Y-91176063D01*
X107766063Y-91320226D01*
X107652795Y-91489744D01*
X107574774Y-91678102D01*
X107535000Y-91878061D01*
X100275330Y-91878061D01*
X100277205Y-91875256D01*
X100355226Y-91686898D01*
X100395000Y-91486939D01*
X100395000Y-91283061D01*
X100355226Y-91083102D01*
X100277205Y-90894744D01*
X100163937Y-90725226D01*
X100019774Y-90581063D01*
X99850256Y-90467795D01*
X99661898Y-90389774D01*
X99461939Y-90350000D01*
X99258061Y-90350000D01*
X99058102Y-90389774D01*
X98869744Y-90467795D01*
X98700226Y-90581063D01*
X98556063Y-90725226D01*
X98442795Y-90894744D01*
X98364774Y-91083102D01*
X98325000Y-91283061D01*
X95775000Y-91283061D01*
X95735226Y-91083102D01*
X95657205Y-90894744D01*
X95543937Y-90725226D01*
X95399774Y-90581063D01*
X95230256Y-90467795D01*
X95041898Y-90389774D01*
X94841939Y-90350000D01*
X94638061Y-90350000D01*
X94438102Y-90389774D01*
X94249744Y-90467795D01*
X94080226Y-90581063D01*
X93936063Y-90725226D01*
X93822795Y-90894744D01*
X93744774Y-91083102D01*
X93705000Y-91283061D01*
X90143695Y-91283061D01*
X90128676Y-91233553D01*
X90023284Y-91036377D01*
X90022154Y-91035000D01*
X90023284Y-91033623D01*
X90128676Y-90836447D01*
X90193577Y-90622499D01*
X90215491Y-90400000D01*
X90193577Y-90177501D01*
X90128676Y-89963553D01*
X90023284Y-89766377D01*
X89881449Y-89593551D01*
X89708623Y-89451716D01*
X89511447Y-89346324D01*
X89297499Y-89281423D01*
X89130752Y-89265000D01*
X88519248Y-89265000D01*
X88352501Y-89281423D01*
X88138553Y-89346324D01*
X87941377Y-89451716D01*
X87768551Y-89593551D01*
X87626716Y-89766377D01*
X87521324Y-89963553D01*
X87456423Y-90177501D01*
X87434509Y-90400000D01*
X83435000Y-90400000D01*
X83435000Y-87919268D01*
X97565000Y-87919268D01*
X97565000Y-88280732D01*
X97635518Y-88635250D01*
X97773844Y-88969199D01*
X97974662Y-89269744D01*
X98230256Y-89525338D01*
X98530801Y-89726156D01*
X98864750Y-89864482D01*
X99219268Y-89935000D01*
X99580732Y-89935000D01*
X99935250Y-89864482D01*
X100269199Y-89726156D01*
X100569744Y-89525338D01*
X100717102Y-89377980D01*
X111001626Y-89377980D01*
X111121514Y-89662836D01*
X111445210Y-89823699D01*
X111794069Y-89918322D01*
X112154684Y-89943067D01*
X112513198Y-89896985D01*
X112855833Y-89781846D01*
X113078486Y-89662836D01*
X113198374Y-89377980D01*
X112100000Y-88279605D01*
X111001626Y-89377980D01*
X100717102Y-89377980D01*
X100825338Y-89269744D01*
X101026156Y-88969199D01*
X101164482Y-88635250D01*
X101235000Y-88280732D01*
X101235000Y-88154684D01*
X110256933Y-88154684D01*
X110303015Y-88513198D01*
X110418154Y-88855833D01*
X110537164Y-89078486D01*
X110822020Y-89198374D01*
X111920395Y-88100000D01*
X112279605Y-88100000D01*
X113377980Y-89198374D01*
X113662836Y-89078486D01*
X113823699Y-88754790D01*
X113918322Y-88405931D01*
X113943067Y-88045316D01*
X113896985Y-87686802D01*
X113781846Y-87344167D01*
X113662836Y-87121514D01*
X113377980Y-87001626D01*
X112279605Y-88100000D01*
X111920395Y-88100000D01*
X110822020Y-87001626D01*
X110537164Y-87121514D01*
X110376301Y-87445210D01*
X110281678Y-87794069D01*
X110256933Y-88154684D01*
X101235000Y-88154684D01*
X101235000Y-87919268D01*
X101164482Y-87564750D01*
X101026156Y-87230801D01*
X100825338Y-86930256D01*
X100717102Y-86822020D01*
X111001626Y-86822020D01*
X112100000Y-87920395D01*
X113198374Y-86822020D01*
X113192500Y-86808061D01*
X113915000Y-86808061D01*
X113915000Y-87011939D01*
X113954774Y-87211898D01*
X114032795Y-87400256D01*
X114146063Y-87569774D01*
X114290226Y-87713937D01*
X114459744Y-87827205D01*
X114648102Y-87905226D01*
X114848061Y-87945000D01*
X115051939Y-87945000D01*
X115251898Y-87905226D01*
X115440256Y-87827205D01*
X115609774Y-87713937D01*
X115753937Y-87569774D01*
X115867205Y-87400256D01*
X115945226Y-87211898D01*
X115985000Y-87011939D01*
X115985000Y-86808061D01*
X115945226Y-86608102D01*
X115867205Y-86419744D01*
X115753937Y-86250226D01*
X115609774Y-86106063D01*
X115440256Y-85992795D01*
X115251898Y-85914774D01*
X115051939Y-85875000D01*
X114848061Y-85875000D01*
X114648102Y-85914774D01*
X114459744Y-85992795D01*
X114290226Y-86106063D01*
X114146063Y-86250226D01*
X114032795Y-86419744D01*
X113954774Y-86608102D01*
X113915000Y-86808061D01*
X113192500Y-86808061D01*
X113078486Y-86537164D01*
X112754790Y-86376301D01*
X112405931Y-86281678D01*
X112045316Y-86256933D01*
X111686802Y-86303015D01*
X111344167Y-86418154D01*
X111121514Y-86537164D01*
X111001626Y-86822020D01*
X100717102Y-86822020D01*
X100569744Y-86674662D01*
X100269199Y-86473844D01*
X99935250Y-86335518D01*
X99580732Y-86265000D01*
X99219268Y-86265000D01*
X98864750Y-86335518D01*
X98530801Y-86473844D01*
X98230256Y-86674662D01*
X97974662Y-86930256D01*
X97773844Y-87230801D01*
X97635518Y-87564750D01*
X97565000Y-87919268D01*
X83435000Y-87919268D01*
X83435000Y-83203740D01*
X86760000Y-83203740D01*
X86760000Y-83496260D01*
X86817068Y-83783158D01*
X86929010Y-84053411D01*
X87091525Y-84296632D01*
X87298368Y-84503475D01*
X87541589Y-84665990D01*
X87811842Y-84777932D01*
X88098740Y-84835000D01*
X88391260Y-84835000D01*
X88678158Y-84777932D01*
X88948411Y-84665990D01*
X89191632Y-84503475D01*
X89398475Y-84296632D01*
X89515000Y-84122240D01*
X89631525Y-84296632D01*
X89838368Y-84503475D01*
X90081589Y-84665990D01*
X90351842Y-84777932D01*
X90638740Y-84835000D01*
X90931260Y-84835000D01*
X91218158Y-84777932D01*
X91488411Y-84665990D01*
X91731632Y-84503475D01*
X91863487Y-84371620D01*
X91885498Y-84444180D01*
X91944463Y-84554494D01*
X92023815Y-84651185D01*
X92120506Y-84730537D01*
X92230820Y-84789502D01*
X92350518Y-84825812D01*
X92475000Y-84838072D01*
X94175000Y-84838072D01*
X94299482Y-84825812D01*
X94419180Y-84789502D01*
X94529494Y-84730537D01*
X94626185Y-84651185D01*
X94705537Y-84554494D01*
X94764502Y-84444180D01*
X94800812Y-84324482D01*
X94813072Y-84200000D01*
X94813072Y-83453740D01*
X105135000Y-83453740D01*
X105135000Y-83746260D01*
X105192068Y-84033158D01*
X105304010Y-84303411D01*
X105466525Y-84546632D01*
X105673368Y-84753475D01*
X105916589Y-84915990D01*
X106186842Y-85027932D01*
X106473740Y-85085000D01*
X106766260Y-85085000D01*
X107053158Y-85027932D01*
X107323411Y-84915990D01*
X107566632Y-84753475D01*
X107773475Y-84546632D01*
X107890000Y-84372240D01*
X108006525Y-84546632D01*
X108213368Y-84753475D01*
X108456589Y-84915990D01*
X108726842Y-85027932D01*
X109013740Y-85085000D01*
X109306260Y-85085000D01*
X109593158Y-85027932D01*
X109863411Y-84915990D01*
X110106632Y-84753475D01*
X110238487Y-84621620D01*
X110260498Y-84694180D01*
X110319463Y-84804494D01*
X110398815Y-84901185D01*
X110495506Y-84980537D01*
X110605820Y-85039502D01*
X110725518Y-85075812D01*
X110850000Y-85088072D01*
X112550000Y-85088072D01*
X112674482Y-85075812D01*
X112794180Y-85039502D01*
X112904494Y-84980537D01*
X113001185Y-84901185D01*
X113080537Y-84804494D01*
X113139502Y-84694180D01*
X113175812Y-84574482D01*
X113188072Y-84450000D01*
X113188072Y-82750000D01*
X113175812Y-82625518D01*
X113139502Y-82505820D01*
X113080537Y-82395506D01*
X113001185Y-82298815D01*
X112904494Y-82219463D01*
X112794180Y-82160498D01*
X112674482Y-82124188D01*
X112550000Y-82111928D01*
X110850000Y-82111928D01*
X110725518Y-82124188D01*
X110605820Y-82160498D01*
X110495506Y-82219463D01*
X110398815Y-82298815D01*
X110319463Y-82395506D01*
X110260498Y-82505820D01*
X110238487Y-82578380D01*
X110106632Y-82446525D01*
X109863411Y-82284010D01*
X109593158Y-82172068D01*
X109306260Y-82115000D01*
X109013740Y-82115000D01*
X108726842Y-82172068D01*
X108456589Y-82284010D01*
X108213368Y-82446525D01*
X108006525Y-82653368D01*
X107890000Y-82827760D01*
X107773475Y-82653368D01*
X107566632Y-82446525D01*
X107323411Y-82284010D01*
X107053158Y-82172068D01*
X106766260Y-82115000D01*
X106473740Y-82115000D01*
X106186842Y-82172068D01*
X105916589Y-82284010D01*
X105673368Y-82446525D01*
X105466525Y-82653368D01*
X105304010Y-82896589D01*
X105192068Y-83166842D01*
X105135000Y-83453740D01*
X94813072Y-83453740D01*
X94813072Y-82500000D01*
X94800812Y-82375518D01*
X94764502Y-82255820D01*
X94705537Y-82145506D01*
X94626185Y-82048815D01*
X94529494Y-81969463D01*
X94419180Y-81910498D01*
X94299482Y-81874188D01*
X94175000Y-81861928D01*
X92475000Y-81861928D01*
X92350518Y-81874188D01*
X92230820Y-81910498D01*
X92120506Y-81969463D01*
X92023815Y-82048815D01*
X91944463Y-82145506D01*
X91885498Y-82255820D01*
X91863487Y-82328380D01*
X91731632Y-82196525D01*
X91488411Y-82034010D01*
X91218158Y-81922068D01*
X90931260Y-81865000D01*
X90638740Y-81865000D01*
X90351842Y-81922068D01*
X90081589Y-82034010D01*
X89838368Y-82196525D01*
X89631525Y-82403368D01*
X89515000Y-82577760D01*
X89398475Y-82403368D01*
X89191632Y-82196525D01*
X88948411Y-82034010D01*
X88678158Y-81922068D01*
X88391260Y-81865000D01*
X88098740Y-81865000D01*
X87811842Y-81922068D01*
X87541589Y-82034010D01*
X87298368Y-82196525D01*
X87091525Y-82403368D01*
X86929010Y-82646589D01*
X86817068Y-82916842D01*
X86760000Y-83203740D01*
X83435000Y-83203740D01*
X83435000Y-79603740D01*
X95890000Y-79603740D01*
X95890000Y-79896260D01*
X95947068Y-80183158D01*
X96059010Y-80453411D01*
X96221525Y-80696632D01*
X96428368Y-80903475D01*
X96671589Y-81065990D01*
X96941842Y-81177932D01*
X97228740Y-81235000D01*
X97521260Y-81235000D01*
X97808158Y-81177932D01*
X98078411Y-81065990D01*
X98321632Y-80903475D01*
X98528475Y-80696632D01*
X98645000Y-80522240D01*
X98761525Y-80696632D01*
X98968368Y-80903475D01*
X99211589Y-81065990D01*
X99481842Y-81177932D01*
X99768740Y-81235000D01*
X100061260Y-81235000D01*
X100348158Y-81177932D01*
X100618411Y-81065990D01*
X100861632Y-80903475D01*
X100993487Y-80771620D01*
X101015498Y-80844180D01*
X101074463Y-80954494D01*
X101153815Y-81051185D01*
X101250506Y-81130537D01*
X101360820Y-81189502D01*
X101480518Y-81225812D01*
X101605000Y-81238072D01*
X103305000Y-81238072D01*
X103429482Y-81225812D01*
X103549180Y-81189502D01*
X103659494Y-81130537D01*
X103756185Y-81051185D01*
X103835537Y-80954494D01*
X103894502Y-80844180D01*
X103930812Y-80724482D01*
X103943072Y-80600000D01*
X103943072Y-79340000D01*
X110281928Y-79340000D01*
X110281928Y-80940000D01*
X110294188Y-81064482D01*
X110330498Y-81184180D01*
X110389463Y-81294494D01*
X110468815Y-81391185D01*
X110565506Y-81470537D01*
X110675820Y-81529502D01*
X110795518Y-81565812D01*
X110920000Y-81578072D01*
X112520000Y-81578072D01*
X112644482Y-81565812D01*
X112764180Y-81529502D01*
X112874494Y-81470537D01*
X112971185Y-81391185D01*
X113050537Y-81294494D01*
X113109502Y-81184180D01*
X113145812Y-81064482D01*
X113151295Y-81008807D01*
X113195363Y-81074759D01*
X113395241Y-81274637D01*
X113630273Y-81431680D01*
X113891426Y-81539853D01*
X114168665Y-81595000D01*
X114451335Y-81595000D01*
X114728574Y-81539853D01*
X114989727Y-81431680D01*
X115224759Y-81274637D01*
X115424637Y-81074759D01*
X115581680Y-80839727D01*
X115689853Y-80578574D01*
X115745000Y-80301335D01*
X115745000Y-80018665D01*
X115689853Y-79741426D01*
X115581680Y-79480273D01*
X115424637Y-79245241D01*
X115226039Y-79046643D01*
X115234482Y-79045812D01*
X115354180Y-79009502D01*
X115464494Y-78950537D01*
X115561185Y-78871185D01*
X115640537Y-78774494D01*
X115699502Y-78664180D01*
X115735812Y-78544482D01*
X115748072Y-78420000D01*
X115748072Y-76820000D01*
X115735812Y-76695518D01*
X115699502Y-76575820D01*
X115640537Y-76465506D01*
X115561185Y-76368815D01*
X115464494Y-76289463D01*
X115354180Y-76230498D01*
X115234482Y-76194188D01*
X115110000Y-76181928D01*
X113510000Y-76181928D01*
X113385518Y-76194188D01*
X113265820Y-76230498D01*
X113155506Y-76289463D01*
X113058815Y-76368815D01*
X112979463Y-76465506D01*
X112920498Y-76575820D01*
X112884188Y-76695518D01*
X112878705Y-76751193D01*
X112834637Y-76685241D01*
X112634759Y-76485363D01*
X112399727Y-76328320D01*
X112138574Y-76220147D01*
X111861335Y-76165000D01*
X111578665Y-76165000D01*
X111301426Y-76220147D01*
X111040273Y-76328320D01*
X110805241Y-76485363D01*
X110605363Y-76685241D01*
X110448320Y-76920273D01*
X110340147Y-77181426D01*
X110285000Y-77458665D01*
X110285000Y-77741335D01*
X110340147Y-78018574D01*
X110448320Y-78279727D01*
X110605363Y-78514759D01*
X110803961Y-78713357D01*
X110795518Y-78714188D01*
X110675820Y-78750498D01*
X110565506Y-78809463D01*
X110468815Y-78888815D01*
X110389463Y-78985506D01*
X110330498Y-79095820D01*
X110294188Y-79215518D01*
X110281928Y-79340000D01*
X103943072Y-79340000D01*
X103943072Y-78900000D01*
X103930812Y-78775518D01*
X103894502Y-78655820D01*
X103835537Y-78545506D01*
X103756185Y-78448815D01*
X103659494Y-78369463D01*
X103549180Y-78310498D01*
X103429482Y-78274188D01*
X103305000Y-78261928D01*
X101605000Y-78261928D01*
X101480518Y-78274188D01*
X101360820Y-78310498D01*
X101250506Y-78369463D01*
X101153815Y-78448815D01*
X101074463Y-78545506D01*
X101015498Y-78655820D01*
X100993487Y-78728380D01*
X100861632Y-78596525D01*
X100618411Y-78434010D01*
X100348158Y-78322068D01*
X100061260Y-78265000D01*
X99768740Y-78265000D01*
X99481842Y-78322068D01*
X99211589Y-78434010D01*
X98968368Y-78596525D01*
X98761525Y-78803368D01*
X98645000Y-78977760D01*
X98528475Y-78803368D01*
X98321632Y-78596525D01*
X98078411Y-78434010D01*
X97808158Y-78322068D01*
X97521260Y-78265000D01*
X97228740Y-78265000D01*
X96941842Y-78322068D01*
X96671589Y-78434010D01*
X96428368Y-78596525D01*
X96221525Y-78803368D01*
X96059010Y-79046589D01*
X95947068Y-79316842D01*
X95890000Y-79603740D01*
X83435000Y-79603740D01*
X83434999Y-66152423D01*
X85708230Y-66152423D01*
X85708230Y-66594481D01*
X85794472Y-67028044D01*
X85963640Y-67436452D01*
X86209233Y-67804009D01*
X86521815Y-68116591D01*
X86889372Y-68362184D01*
X87297780Y-68531352D01*
X87731343Y-68617594D01*
X88173401Y-68617594D01*
X88606964Y-68531352D01*
X89015372Y-68362184D01*
X89382929Y-68116591D01*
X89691928Y-67807592D01*
X89691928Y-68100000D01*
X89704188Y-68224482D01*
X89740498Y-68344180D01*
X89799463Y-68454494D01*
X89878815Y-68551185D01*
X89975506Y-68630537D01*
X90085820Y-68689502D01*
X90205518Y-68725812D01*
X90330000Y-68738072D01*
X91930000Y-68738072D01*
X92054482Y-68725812D01*
X92174180Y-68689502D01*
X92284494Y-68630537D01*
X92381185Y-68551185D01*
X92460537Y-68454494D01*
X92519502Y-68344180D01*
X92555812Y-68224482D01*
X92558370Y-68198509D01*
X92606481Y-68263414D01*
X92814869Y-68452385D01*
X93056119Y-68597070D01*
X93320960Y-68691909D01*
X93543000Y-68570624D01*
X93543000Y-67427000D01*
X93797000Y-67427000D01*
X93797000Y-68570624D01*
X94019040Y-68691909D01*
X94283881Y-68597070D01*
X94525131Y-68452385D01*
X94582898Y-68400000D01*
X98061928Y-68400000D01*
X98074188Y-68524482D01*
X98110498Y-68644180D01*
X98169463Y-68754494D01*
X98248815Y-68851185D01*
X98345506Y-68930537D01*
X98455820Y-68989502D01*
X98575518Y-69025812D01*
X98700000Y-69038072D01*
X99714250Y-69035000D01*
X99873000Y-68876250D01*
X99873000Y-67527000D01*
X100127000Y-67527000D01*
X100127000Y-68876250D01*
X100285750Y-69035000D01*
X101300000Y-69038072D01*
X101424482Y-69025812D01*
X101544180Y-68989502D01*
X101654494Y-68930537D01*
X101751185Y-68851185D01*
X101830537Y-68754494D01*
X101889502Y-68644180D01*
X101925812Y-68524482D01*
X101938072Y-68400000D01*
X101935000Y-67685750D01*
X101776250Y-67527000D01*
X100127000Y-67527000D01*
X99873000Y-67527000D01*
X98223750Y-67527000D01*
X98065000Y-67685750D01*
X98061928Y-68400000D01*
X94582898Y-68400000D01*
X94733519Y-68263414D01*
X94901037Y-68037420D01*
X95021246Y-67783087D01*
X95061904Y-67649039D01*
X94939915Y-67427000D01*
X93797000Y-67427000D01*
X93543000Y-67427000D01*
X93523000Y-67427000D01*
X93523000Y-67173000D01*
X93543000Y-67173000D01*
X93543000Y-66029376D01*
X93320960Y-65908091D01*
X93056119Y-66002930D01*
X92814869Y-66147615D01*
X92606481Y-66336586D01*
X92558370Y-66401491D01*
X92555812Y-66375518D01*
X92519502Y-66255820D01*
X92460537Y-66145506D01*
X92381185Y-66048815D01*
X92284494Y-65969463D01*
X92174180Y-65910498D01*
X92054482Y-65874188D01*
X91930000Y-65861928D01*
X90330000Y-65861928D01*
X90205518Y-65874188D01*
X90144831Y-65892597D01*
X90110272Y-65718860D01*
X90102460Y-65700000D01*
X93661928Y-65700000D01*
X93674188Y-65824482D01*
X93710498Y-65944180D01*
X93769463Y-66054494D01*
X93797000Y-66088048D01*
X93797000Y-67173000D01*
X94939915Y-67173000D01*
X95061904Y-66950961D01*
X95021246Y-66816913D01*
X94901037Y-66562580D01*
X94780525Y-66400000D01*
X98061928Y-66400000D01*
X98065000Y-67114250D01*
X98223750Y-67273000D01*
X99873000Y-67273000D01*
X99873000Y-65923750D01*
X100127000Y-65923750D01*
X100127000Y-67273000D01*
X101776250Y-67273000D01*
X101935000Y-67114250D01*
X101938072Y-66400000D01*
X101925812Y-66275518D01*
X101889502Y-66155820D01*
X101887687Y-66152423D01*
X110203485Y-66152423D01*
X110203485Y-66594481D01*
X110289727Y-67028044D01*
X110458895Y-67436452D01*
X110704488Y-67804009D01*
X111017070Y-68116591D01*
X111384627Y-68362184D01*
X111793035Y-68531352D01*
X112226598Y-68617594D01*
X112668656Y-68617594D01*
X113102219Y-68531352D01*
X113510627Y-68362184D01*
X113878184Y-68116591D01*
X114190766Y-67804009D01*
X114436359Y-67436452D01*
X114605527Y-67028044D01*
X114691769Y-66594481D01*
X114691769Y-66152423D01*
X114605527Y-65718860D01*
X114436359Y-65310452D01*
X114190766Y-64942895D01*
X113878184Y-64630313D01*
X113510627Y-64384720D01*
X113102219Y-64215552D01*
X112668656Y-64129310D01*
X112226598Y-64129310D01*
X111793035Y-64215552D01*
X111384627Y-64384720D01*
X111017070Y-64630313D01*
X110704488Y-64942895D01*
X110458895Y-65310452D01*
X110289727Y-65718860D01*
X110203485Y-66152423D01*
X101887687Y-66152423D01*
X101830537Y-66045506D01*
X101751185Y-65948815D01*
X101654494Y-65869463D01*
X101544180Y-65810498D01*
X101424482Y-65774188D01*
X101300000Y-65761928D01*
X100285750Y-65765000D01*
X100127000Y-65923750D01*
X99873000Y-65923750D01*
X99714250Y-65765000D01*
X98700000Y-65761928D01*
X98575518Y-65774188D01*
X98455820Y-65810498D01*
X98345506Y-65869463D01*
X98248815Y-65948815D01*
X98169463Y-66045506D01*
X98110498Y-66155820D01*
X98074188Y-66275518D01*
X98061928Y-66400000D01*
X94780525Y-66400000D01*
X94733519Y-66336586D01*
X94733104Y-66336209D01*
X95014250Y-66335000D01*
X95173000Y-66176250D01*
X95173000Y-64527000D01*
X95427000Y-64527000D01*
X95427000Y-66176250D01*
X95585750Y-66335000D01*
X96300000Y-66338072D01*
X96424482Y-66325812D01*
X96544180Y-66289502D01*
X96654494Y-66230537D01*
X96751185Y-66151185D01*
X96830537Y-66054494D01*
X96889502Y-65944180D01*
X96925812Y-65824482D01*
X96938072Y-65700000D01*
X96935000Y-64685750D01*
X96776250Y-64527000D01*
X95427000Y-64527000D01*
X95173000Y-64527000D01*
X93823750Y-64527000D01*
X93665000Y-64685750D01*
X93661928Y-65700000D01*
X90102460Y-65700000D01*
X89941104Y-65310452D01*
X89695511Y-64942895D01*
X89382929Y-64630313D01*
X89015372Y-64384720D01*
X88606964Y-64215552D01*
X88173401Y-64129310D01*
X87731343Y-64129310D01*
X87297780Y-64215552D01*
X86889372Y-64384720D01*
X86521815Y-64630313D01*
X86209233Y-64942895D01*
X85963640Y-65310452D01*
X85794472Y-65718860D01*
X85708230Y-66152423D01*
X83434999Y-66152423D01*
X83434999Y-63100000D01*
X93661928Y-63100000D01*
X93665000Y-64114250D01*
X93823750Y-64273000D01*
X95173000Y-64273000D01*
X95173000Y-62623750D01*
X95427000Y-62623750D01*
X95427000Y-64273000D01*
X96776250Y-64273000D01*
X96935000Y-64114250D01*
X96938072Y-63100000D01*
X96925812Y-62975518D01*
X96889502Y-62855820D01*
X96830537Y-62745506D01*
X96751185Y-62648815D01*
X96654494Y-62569463D01*
X96544180Y-62510498D01*
X96424482Y-62474188D01*
X96300000Y-62461928D01*
X95585750Y-62465000D01*
X95427000Y-62623750D01*
X95173000Y-62623750D01*
X95014250Y-62465000D01*
X94300000Y-62461928D01*
X94175518Y-62474188D01*
X94055820Y-62510498D01*
X93945506Y-62569463D01*
X93848815Y-62648815D01*
X93769463Y-62745506D01*
X93710498Y-62855820D01*
X93674188Y-62975518D01*
X93661928Y-63100000D01*
X83434999Y-63100000D01*
X83434998Y-62735735D01*
X83439723Y-62687691D01*
X83443201Y-62676212D01*
X83448866Y-62665610D01*
X83456412Y-62656414D01*
X83465611Y-62648866D01*
X83476214Y-62643201D01*
X83487690Y-62639723D01*
X83535715Y-62635000D01*
X85786105Y-62635000D01*
X85819024Y-62631758D01*
X85838955Y-62631897D01*
X85849168Y-62630896D01*
X86470277Y-62565615D01*
X86535584Y-62552209D01*
X86600970Y-62539736D01*
X86610795Y-62536771D01*
X87207395Y-62352092D01*
X87268862Y-62326254D01*
X87330573Y-62301321D01*
X87339634Y-62296504D01*
X87889001Y-61999462D01*
X87944240Y-61962202D01*
X87999971Y-61925733D01*
X88007924Y-61919247D01*
X88489133Y-61521156D01*
X88536094Y-61473866D01*
X88583668Y-61427278D01*
X88590210Y-61419371D01*
X88984931Y-60935395D01*
X89021811Y-60879887D01*
X89059433Y-60824941D01*
X89064315Y-60815914D01*
X89285460Y-60400000D01*
X98061928Y-60400000D01*
X98061928Y-62400000D01*
X98074188Y-62524482D01*
X98110498Y-62644180D01*
X98169463Y-62754494D01*
X98248815Y-62851185D01*
X98345506Y-62930537D01*
X98455820Y-62989502D01*
X98575518Y-63025812D01*
X98700000Y-63038072D01*
X101300000Y-63038072D01*
X101424482Y-63025812D01*
X101544180Y-62989502D01*
X101654494Y-62930537D01*
X101751185Y-62851185D01*
X101830537Y-62754494D01*
X101889502Y-62644180D01*
X101925812Y-62524482D01*
X101938072Y-62400000D01*
X101938072Y-60400000D01*
X101925812Y-60275518D01*
X101889502Y-60155820D01*
X101830537Y-60045506D01*
X101751185Y-59948815D01*
X101654494Y-59869463D01*
X101544180Y-59810498D01*
X101424482Y-59774188D01*
X101300000Y-59761928D01*
X98700000Y-59761928D01*
X98575518Y-59774188D01*
X98455820Y-59810498D01*
X98345506Y-59869463D01*
X98248815Y-59948815D01*
X98169463Y-60045506D01*
X98110498Y-60155820D01*
X98074188Y-60275518D01*
X98061928Y-60400000D01*
X89285460Y-60400000D01*
X89357514Y-60264486D01*
X89382915Y-60202859D01*
X89409142Y-60141666D01*
X89412177Y-60131863D01*
X89592686Y-59533988D01*
X89605635Y-59468589D01*
X89619475Y-59403480D01*
X89620548Y-59393274D01*
X89681492Y-58771724D01*
X89681492Y-58771723D01*
X89685000Y-58736105D01*
X89685000Y-56485715D01*
X89689723Y-56437691D01*
X89693201Y-56426212D01*
X89698866Y-56415610D01*
X89706412Y-56406414D01*
X89715611Y-56398866D01*
X89726214Y-56393201D01*
X89737690Y-56389723D01*
X89785715Y-56385000D01*
X110214284Y-56385000D01*
X110262308Y-56389723D01*
G37*
%TD.AperFunction*%
%TD*%
M02*
