M48
; DRILL file {KiCad 5.1.9} date Mon Feb  1 12:12:53 2021
; FORMAT={-:-/ absolute / inch / decimal}
; #@! TF.CreationDate,2021-02-01T12:12:53-08:00
; #@! TF.GenerationSoftware,Kicad,Pcbnew,5.1.9
; #@! TF.FileFunction,Plated,1,4,PTH
FMAT,2
INCH
T1C0.0157
T2C0.0217
T3C0.0315
T4C0.0394
T5C0.0470
T6C0.0472
T7C0.0571
%
G90
G05
T1
X3.5169Y-4.0449
X3.7299Y-3.5978
X3.9094Y-3.8047
X3.9118Y-3.5978
X3.9988Y-3.8248
X4.1012Y-4.052
X4.1122Y-4.2933
X4.1717Y-4.8902
X4.2744Y-3.6213
X4.2744Y-3.7496
X4.3724Y-3.6429
X4.3988Y-3.8382
X4.4547Y-4.8213
X4.5256Y-3.4217
X4.5827Y-4.8752
T2
X3.497Y-3.5591
X3.497Y-3.6091
X3.497Y-3.6591
X4.3189Y-4.822
X4.3189Y-4.872
X4.3189Y-4.922
T3
X3.5878Y-2.6496
X3.6878Y-2.6496
X4.3984Y-3.0551
X4.3984Y-3.1551
X4.5004Y-3.0559
X4.5004Y-3.1559
T4
X3.4742Y-3.2815
X3.5742Y-3.2815
X3.6742Y-3.2815
X3.8337Y-3.1398
X3.8878Y-4.1634
X3.9337Y-3.1398
X3.9878Y-4.1634
X4.0337Y-3.1398
X4.1976Y-3.2913
X4.2976Y-3.2913
X4.3976Y-3.2913
T5
X3.937Y-5.1496
X3.937Y-5.3386
T6
X3.7283Y-5.1496
X3.7283Y-5.3386
X3.7283Y-5.5276
X3.937Y-5.5276
X4.1457Y-5.1496
X4.1457Y-5.3386
X4.1457Y-5.5276
T7
X3.4606Y-4.4134
X3.4606Y-4.8622
X3.9134Y-3.4685
X3.9134Y-3.9173
X3.9606Y-4.4134
X3.9606Y-4.8622
X4.4134Y-3.4685
X4.4134Y-3.9173
T4
G00X3.752Y-2.5236
M15
G01X3.752Y-2.5472
M16
G05
G00X3.9252Y-2.4173
M15
G01X3.9488Y-2.4173
M16
G05
G00X3.9252Y-2.6535
M15
G01X3.9488Y-2.6535
M16
G05
T0
M30
