%TF.GenerationSoftware,KiCad,Pcbnew,5.1.9*%
%TF.CreationDate,2021-02-01T12:12:55-08:00*%
%TF.ProjectId,MainBoard,4d61696e-426f-4617-9264-2e6b69636164,rev?*%
%TF.SameCoordinates,Original*%
%TF.FileFunction,Soldermask,Bot*%
%TF.FilePolarity,Negative*%
%FSLAX46Y46*%
G04 Gerber Fmt 4.6, Leading zero omitted, Abs format (unit mm)*
G04 Created by KiCad (PCBNEW 5.1.9) date 2021-02-01 12:12:55*
%MOMM*%
%LPD*%
G01*
G04 APERTURE LIST*
%ADD10C,2.000000*%
%ADD11R,1.700000X1.700000*%
%ADD12O,1.700000X1.700000*%
%ADD13R,2.000000X2.000000*%
%ADD14O,1.600000X1.600000*%
%ADD15R,1.600000X1.600000*%
%ADD16C,2.400000*%
%ADD17R,2.400000X3.100000*%
%ADD18R,1.500000X1.000000*%
%ADD19O,1.500000X1.000000*%
%ADD20R,2.600000X2.000000*%
%ADD21R,2.000000X2.600000*%
G04 APERTURE END LIST*
D10*
%TO.C,U1*%
X94700000Y-130800000D03*
X94700000Y-140400000D03*
X94700000Y-135600000D03*
X105300000Y-130800000D03*
X105300000Y-140400000D03*
X105300000Y-135600000D03*
X100000000Y-130799400D03*
X100000000Y-135600000D03*
X100000000Y-140400600D03*
%TD*%
%TO.C,R15*%
G36*
G01*
X109160000Y-135610001D02*
X109160000Y-134709999D01*
G75*
G02*
X109409999Y-134460000I249999J0D01*
G01*
X110110001Y-134460000D01*
G75*
G02*
X110360000Y-134709999I0J-249999D01*
G01*
X110360000Y-135610001D01*
G75*
G02*
X110110001Y-135860000I-249999J0D01*
G01*
X109409999Y-135860000D01*
G75*
G02*
X109160000Y-135610001I0J249999D01*
G01*
G37*
G36*
G01*
X107160000Y-135610001D02*
X107160000Y-134709999D01*
G75*
G02*
X107409999Y-134460000I249999J0D01*
G01*
X108110001Y-134460000D01*
G75*
G02*
X108360000Y-134709999I0J-249999D01*
G01*
X108360000Y-135610001D01*
G75*
G02*
X108110001Y-135860000I-249999J0D01*
G01*
X107409999Y-135860000D01*
G75*
G02*
X107160000Y-135610001I0J249999D01*
G01*
G37*
%TD*%
D11*
%TO.C,J6*%
X93325000Y-83350000D03*
D12*
X90785000Y-83350000D03*
X88245000Y-83350000D03*
%TD*%
%TO.C,R11*%
G36*
G01*
X84675001Y-90225000D02*
X83774999Y-90225000D01*
G75*
G02*
X83525000Y-89975001I0J249999D01*
G01*
X83525000Y-89274999D01*
G75*
G02*
X83774999Y-89025000I249999J0D01*
G01*
X84675001Y-89025000D01*
G75*
G02*
X84925000Y-89274999I0J-249999D01*
G01*
X84925000Y-89975001D01*
G75*
G02*
X84675001Y-90225000I-249999J0D01*
G01*
G37*
G36*
G01*
X84675001Y-92225000D02*
X83774999Y-92225000D01*
G75*
G02*
X83525000Y-91975001I0J249999D01*
G01*
X83525000Y-91274999D01*
G75*
G02*
X83774999Y-91025000I249999J0D01*
G01*
X84675001Y-91025000D01*
G75*
G02*
X84925000Y-91274999I0J-249999D01*
G01*
X84925000Y-91975001D01*
G75*
G02*
X84675001Y-92225000I-249999J0D01*
G01*
G37*
%TD*%
%TO.C,C8*%
G36*
G01*
X92845000Y-90797500D02*
X93795000Y-90797500D01*
G75*
G02*
X94045000Y-91047500I0J-250000D01*
G01*
X94045000Y-91722500D01*
G75*
G02*
X93795000Y-91972500I-250000J0D01*
G01*
X92845000Y-91972500D01*
G75*
G02*
X92595000Y-91722500I0J250000D01*
G01*
X92595000Y-91047500D01*
G75*
G02*
X92845000Y-90797500I250000J0D01*
G01*
G37*
G36*
G01*
X92845000Y-88722500D02*
X93795000Y-88722500D01*
G75*
G02*
X94045000Y-88972500I0J-250000D01*
G01*
X94045000Y-89647500D01*
G75*
G02*
X93795000Y-89897500I-250000J0D01*
G01*
X92845000Y-89897500D01*
G75*
G02*
X92595000Y-89647500I0J250000D01*
G01*
X92595000Y-88972500D01*
G75*
G02*
X92845000Y-88722500I250000J0D01*
G01*
G37*
%TD*%
D13*
%TO.C,D2*%
X98750000Y-105750000D03*
D10*
X101290000Y-105750000D03*
%TD*%
D14*
%TO.C,D4*%
X114310000Y-80160000D03*
D15*
X114310000Y-77620000D03*
%TD*%
D14*
%TO.C,D3*%
X111720000Y-77600000D03*
D15*
X111720000Y-80140000D03*
%TD*%
D14*
%TO.C,D1*%
X93670000Y-67300000D03*
D15*
X91130000Y-67300000D03*
%TD*%
D16*
%TO.C,J1*%
X100600000Y-123500000D03*
X87900000Y-123500000D03*
X100600000Y-112100000D03*
X87900000Y-112100000D03*
%TD*%
D17*
%TO.C,U2*%
X104450000Y-93930000D03*
G36*
G01*
X102775000Y-91875000D02*
X102775000Y-92175000D01*
G75*
G02*
X102625000Y-92325000I-150000J0D01*
G01*
X101150000Y-92325000D01*
G75*
G02*
X101000000Y-92175000I0J150000D01*
G01*
X101000000Y-91875000D01*
G75*
G02*
X101150000Y-91725000I150000J0D01*
G01*
X102625000Y-91725000D01*
G75*
G02*
X102775000Y-91875000I0J-150000D01*
G01*
G37*
G36*
G01*
X102775000Y-93145000D02*
X102775000Y-93445000D01*
G75*
G02*
X102625000Y-93595000I-150000J0D01*
G01*
X101150000Y-93595000D01*
G75*
G02*
X101000000Y-93445000I0J150000D01*
G01*
X101000000Y-93145000D01*
G75*
G02*
X101150000Y-92995000I150000J0D01*
G01*
X102625000Y-92995000D01*
G75*
G02*
X102775000Y-93145000I0J-150000D01*
G01*
G37*
G36*
G01*
X102775000Y-94415000D02*
X102775000Y-94715000D01*
G75*
G02*
X102625000Y-94865000I-150000J0D01*
G01*
X101150000Y-94865000D01*
G75*
G02*
X101000000Y-94715000I0J150000D01*
G01*
X101000000Y-94415000D01*
G75*
G02*
X101150000Y-94265000I150000J0D01*
G01*
X102625000Y-94265000D01*
G75*
G02*
X102775000Y-94415000I0J-150000D01*
G01*
G37*
G36*
G01*
X102775000Y-95685000D02*
X102775000Y-95985000D01*
G75*
G02*
X102625000Y-96135000I-150000J0D01*
G01*
X101150000Y-96135000D01*
G75*
G02*
X101000000Y-95985000I0J150000D01*
G01*
X101000000Y-95685000D01*
G75*
G02*
X101150000Y-95535000I150000J0D01*
G01*
X102625000Y-95535000D01*
G75*
G02*
X102775000Y-95685000I0J-150000D01*
G01*
G37*
G36*
G01*
X107900000Y-95685000D02*
X107900000Y-95985000D01*
G75*
G02*
X107750000Y-96135000I-150000J0D01*
G01*
X106275000Y-96135000D01*
G75*
G02*
X106125000Y-95985000I0J150000D01*
G01*
X106125000Y-95685000D01*
G75*
G02*
X106275000Y-95535000I150000J0D01*
G01*
X107750000Y-95535000D01*
G75*
G02*
X107900000Y-95685000I0J-150000D01*
G01*
G37*
G36*
G01*
X107900000Y-94415000D02*
X107900000Y-94715000D01*
G75*
G02*
X107750000Y-94865000I-150000J0D01*
G01*
X106275000Y-94865000D01*
G75*
G02*
X106125000Y-94715000I0J150000D01*
G01*
X106125000Y-94415000D01*
G75*
G02*
X106275000Y-94265000I150000J0D01*
G01*
X107750000Y-94265000D01*
G75*
G02*
X107900000Y-94415000I0J-150000D01*
G01*
G37*
G36*
G01*
X107900000Y-93145000D02*
X107900000Y-93445000D01*
G75*
G02*
X107750000Y-93595000I-150000J0D01*
G01*
X106275000Y-93595000D01*
G75*
G02*
X106125000Y-93445000I0J150000D01*
G01*
X106125000Y-93145000D01*
G75*
G02*
X106275000Y-92995000I150000J0D01*
G01*
X107750000Y-92995000D01*
G75*
G02*
X107900000Y-93145000I0J-150000D01*
G01*
G37*
G36*
G01*
X107900000Y-91875000D02*
X107900000Y-92175000D01*
G75*
G02*
X107750000Y-92325000I-150000J0D01*
G01*
X106275000Y-92325000D01*
G75*
G02*
X106125000Y-92175000I0J150000D01*
G01*
X106125000Y-91875000D01*
G75*
G02*
X106275000Y-91725000I150000J0D01*
G01*
X107750000Y-91725000D01*
G75*
G02*
X107900000Y-91875000I0J-150000D01*
G01*
G37*
%TD*%
%TO.C,R18*%
G36*
G01*
X110749999Y-129150000D02*
X111650001Y-129150000D01*
G75*
G02*
X111900000Y-129399999I0J-249999D01*
G01*
X111900000Y-130100001D01*
G75*
G02*
X111650001Y-130350000I-249999J0D01*
G01*
X110749999Y-130350000D01*
G75*
G02*
X110500000Y-130100001I0J249999D01*
G01*
X110500000Y-129399999D01*
G75*
G02*
X110749999Y-129150000I249999J0D01*
G01*
G37*
G36*
G01*
X110749999Y-127150000D02*
X111650001Y-127150000D01*
G75*
G02*
X111900000Y-127399999I0J-249999D01*
G01*
X111900000Y-128100001D01*
G75*
G02*
X111650001Y-128350000I-249999J0D01*
G01*
X110749999Y-128350000D01*
G75*
G02*
X110500000Y-128100001I0J249999D01*
G01*
X110500000Y-127399999D01*
G75*
G02*
X110749999Y-127150000I249999J0D01*
G01*
G37*
%TD*%
%TO.C,R17*%
G36*
G01*
X105509999Y-126890000D02*
X106410001Y-126890000D01*
G75*
G02*
X106660000Y-127139999I0J-249999D01*
G01*
X106660000Y-127840001D01*
G75*
G02*
X106410001Y-128090000I-249999J0D01*
G01*
X105509999Y-128090000D01*
G75*
G02*
X105260000Y-127840001I0J249999D01*
G01*
X105260000Y-127139999D01*
G75*
G02*
X105509999Y-126890000I249999J0D01*
G01*
G37*
G36*
G01*
X105509999Y-124890000D02*
X106410001Y-124890000D01*
G75*
G02*
X106660000Y-125139999I0J-249999D01*
G01*
X106660000Y-125840001D01*
G75*
G02*
X106410001Y-126090000I-249999J0D01*
G01*
X105509999Y-126090000D01*
G75*
G02*
X105260000Y-125840001I0J249999D01*
G01*
X105260000Y-125139999D01*
G75*
G02*
X105509999Y-124890000I249999J0D01*
G01*
G37*
%TD*%
%TO.C,R16*%
G36*
G01*
X107429999Y-128920000D02*
X108330001Y-128920000D01*
G75*
G02*
X108580000Y-129169999I0J-249999D01*
G01*
X108580000Y-129870001D01*
G75*
G02*
X108330001Y-130120000I-249999J0D01*
G01*
X107429999Y-130120000D01*
G75*
G02*
X107180000Y-129870001I0J249999D01*
G01*
X107180000Y-129169999D01*
G75*
G02*
X107429999Y-128920000I249999J0D01*
G01*
G37*
G36*
G01*
X107429999Y-126920000D02*
X108330001Y-126920000D01*
G75*
G02*
X108580000Y-127169999I0J-249999D01*
G01*
X108580000Y-127870001D01*
G75*
G02*
X108330001Y-128120000I-249999J0D01*
G01*
X107429999Y-128120000D01*
G75*
G02*
X107180000Y-127870001I0J249999D01*
G01*
X107180000Y-127169999D01*
G75*
G02*
X107429999Y-126920000I249999J0D01*
G01*
G37*
%TD*%
%TO.C,R14*%
G36*
G01*
X87250001Y-99900000D02*
X86349999Y-99900000D01*
G75*
G02*
X86100000Y-99650001I0J249999D01*
G01*
X86100000Y-98949999D01*
G75*
G02*
X86349999Y-98700000I249999J0D01*
G01*
X87250001Y-98700000D01*
G75*
G02*
X87500000Y-98949999I0J-249999D01*
G01*
X87500000Y-99650001D01*
G75*
G02*
X87250001Y-99900000I-249999J0D01*
G01*
G37*
G36*
G01*
X87250001Y-101900000D02*
X86349999Y-101900000D01*
G75*
G02*
X86100000Y-101650001I0J249999D01*
G01*
X86100000Y-100949999D01*
G75*
G02*
X86349999Y-100700000I249999J0D01*
G01*
X87250001Y-100700000D01*
G75*
G02*
X87500000Y-100949999I0J-249999D01*
G01*
X87500000Y-101650001D01*
G75*
G02*
X87250001Y-101900000I-249999J0D01*
G01*
G37*
%TD*%
%TO.C,R13*%
G36*
G01*
X89225001Y-96075000D02*
X88324999Y-96075000D01*
G75*
G02*
X88075000Y-95825001I0J249999D01*
G01*
X88075000Y-95124999D01*
G75*
G02*
X88324999Y-94875000I249999J0D01*
G01*
X89225001Y-94875000D01*
G75*
G02*
X89475000Y-95124999I0J-249999D01*
G01*
X89475000Y-95825001D01*
G75*
G02*
X89225001Y-96075000I-249999J0D01*
G01*
G37*
G36*
G01*
X89225001Y-98075000D02*
X88324999Y-98075000D01*
G75*
G02*
X88075000Y-97825001I0J249999D01*
G01*
X88075000Y-97124999D01*
G75*
G02*
X88324999Y-96875000I249999J0D01*
G01*
X89225001Y-96875000D01*
G75*
G02*
X89475000Y-97124999I0J-249999D01*
G01*
X89475000Y-97825001D01*
G75*
G02*
X89225001Y-98075000I-249999J0D01*
G01*
G37*
%TD*%
%TO.C,R12*%
G36*
G01*
X85525000Y-95099999D02*
X85525000Y-96000001D01*
G75*
G02*
X85275001Y-96250000I-249999J0D01*
G01*
X84574999Y-96250000D01*
G75*
G02*
X84325000Y-96000001I0J249999D01*
G01*
X84325000Y-95099999D01*
G75*
G02*
X84574999Y-94850000I249999J0D01*
G01*
X85275001Y-94850000D01*
G75*
G02*
X85525000Y-95099999I0J-249999D01*
G01*
G37*
G36*
G01*
X87525000Y-95099999D02*
X87525000Y-96000001D01*
G75*
G02*
X87275001Y-96250000I-249999J0D01*
G01*
X86574999Y-96250000D01*
G75*
G02*
X86325000Y-96000001I0J249999D01*
G01*
X86325000Y-95099999D01*
G75*
G02*
X86574999Y-94850000I249999J0D01*
G01*
X87275001Y-94850000D01*
G75*
G02*
X87525000Y-95099999I0J-249999D01*
G01*
G37*
%TD*%
%TO.C,R10*%
G36*
G01*
X92869999Y-86970000D02*
X93770001Y-86970000D01*
G75*
G02*
X94020000Y-87219999I0J-249999D01*
G01*
X94020000Y-87920001D01*
G75*
G02*
X93770001Y-88170000I-249999J0D01*
G01*
X92869999Y-88170000D01*
G75*
G02*
X92620000Y-87920001I0J249999D01*
G01*
X92620000Y-87219999D01*
G75*
G02*
X92869999Y-86970000I249999J0D01*
G01*
G37*
G36*
G01*
X92869999Y-84970000D02*
X93770001Y-84970000D01*
G75*
G02*
X94020000Y-85219999I0J-249999D01*
G01*
X94020000Y-85920001D01*
G75*
G02*
X93770001Y-86170000I-249999J0D01*
G01*
X92869999Y-86170000D01*
G75*
G02*
X92620000Y-85920001I0J249999D01*
G01*
X92620000Y-85219999D01*
G75*
G02*
X92869999Y-84970000I249999J0D01*
G01*
G37*
%TD*%
%TO.C,R9*%
G36*
G01*
X98929999Y-94610000D02*
X99830001Y-94610000D01*
G75*
G02*
X100080000Y-94859999I0J-249999D01*
G01*
X100080000Y-95560001D01*
G75*
G02*
X99830001Y-95810000I-249999J0D01*
G01*
X98929999Y-95810000D01*
G75*
G02*
X98680000Y-95560001I0J249999D01*
G01*
X98680000Y-94859999D01*
G75*
G02*
X98929999Y-94610000I249999J0D01*
G01*
G37*
G36*
G01*
X98929999Y-92610000D02*
X99830001Y-92610000D01*
G75*
G02*
X100080000Y-92859999I0J-249999D01*
G01*
X100080000Y-93560001D01*
G75*
G02*
X99830001Y-93810000I-249999J0D01*
G01*
X98929999Y-93810000D01*
G75*
G02*
X98680000Y-93560001I0J249999D01*
G01*
X98680000Y-92859999D01*
G75*
G02*
X98929999Y-92610000I249999J0D01*
G01*
G37*
%TD*%
%TO.C,R8*%
G36*
G01*
X100575000Y-74424999D02*
X100575000Y-75325001D01*
G75*
G02*
X100325001Y-75575000I-249999J0D01*
G01*
X99624999Y-75575000D01*
G75*
G02*
X99375000Y-75325001I0J249999D01*
G01*
X99375000Y-74424999D01*
G75*
G02*
X99624999Y-74175000I249999J0D01*
G01*
X100325001Y-74175000D01*
G75*
G02*
X100575000Y-74424999I0J-249999D01*
G01*
G37*
G36*
G01*
X102575000Y-74424999D02*
X102575000Y-75325001D01*
G75*
G02*
X102325001Y-75575000I-249999J0D01*
G01*
X101624999Y-75575000D01*
G75*
G02*
X101375000Y-75325001I0J249999D01*
G01*
X101375000Y-74424999D01*
G75*
G02*
X101624999Y-74175000I249999J0D01*
G01*
X102325001Y-74175000D01*
G75*
G02*
X102575000Y-74424999I0J-249999D01*
G01*
G37*
%TD*%
%TO.C,R7*%
G36*
G01*
X104630001Y-100200000D02*
X103729999Y-100200000D01*
G75*
G02*
X103480000Y-99950001I0J249999D01*
G01*
X103480000Y-99249999D01*
G75*
G02*
X103729999Y-99000000I249999J0D01*
G01*
X104630001Y-99000000D01*
G75*
G02*
X104880000Y-99249999I0J-249999D01*
G01*
X104880000Y-99950001D01*
G75*
G02*
X104630001Y-100200000I-249999J0D01*
G01*
G37*
G36*
G01*
X104630001Y-102200000D02*
X103729999Y-102200000D01*
G75*
G02*
X103480000Y-101950001I0J249999D01*
G01*
X103480000Y-101249999D01*
G75*
G02*
X103729999Y-101000000I249999J0D01*
G01*
X104630001Y-101000000D01*
G75*
G02*
X104880000Y-101249999I0J-249999D01*
G01*
X104880000Y-101950001D01*
G75*
G02*
X104630001Y-102200000I-249999J0D01*
G01*
G37*
%TD*%
%TO.C,R6*%
G36*
G01*
X104800000Y-98130001D02*
X104800000Y-97229999D01*
G75*
G02*
X105049999Y-96980000I249999J0D01*
G01*
X105750001Y-96980000D01*
G75*
G02*
X106000000Y-97229999I0J-249999D01*
G01*
X106000000Y-98130001D01*
G75*
G02*
X105750001Y-98380000I-249999J0D01*
G01*
X105049999Y-98380000D01*
G75*
G02*
X104800000Y-98130001I0J249999D01*
G01*
G37*
G36*
G01*
X102800000Y-98130001D02*
X102800000Y-97229999D01*
G75*
G02*
X103049999Y-96980000I249999J0D01*
G01*
X103750001Y-96980000D01*
G75*
G02*
X104000000Y-97229999I0J-249999D01*
G01*
X104000000Y-98130001D01*
G75*
G02*
X103750001Y-98380000I-249999J0D01*
G01*
X103049999Y-98380000D01*
G75*
G02*
X102800000Y-98130001I0J249999D01*
G01*
G37*
%TD*%
%TO.C,R5*%
G36*
G01*
X114499999Y-85000000D02*
X115400001Y-85000000D01*
G75*
G02*
X115650000Y-85249999I0J-249999D01*
G01*
X115650000Y-85950001D01*
G75*
G02*
X115400001Y-86200000I-249999J0D01*
G01*
X114499999Y-86200000D01*
G75*
G02*
X114250000Y-85950001I0J249999D01*
G01*
X114250000Y-85249999D01*
G75*
G02*
X114499999Y-85000000I249999J0D01*
G01*
G37*
G36*
G01*
X114499999Y-83000000D02*
X115400001Y-83000000D01*
G75*
G02*
X115650000Y-83249999I0J-249999D01*
G01*
X115650000Y-83950001D01*
G75*
G02*
X115400001Y-84200000I-249999J0D01*
G01*
X114499999Y-84200000D01*
G75*
G02*
X114250000Y-83950001I0J249999D01*
G01*
X114250000Y-83249999D01*
G75*
G02*
X114499999Y-83000000I249999J0D01*
G01*
G37*
%TD*%
%TO.C,R4*%
G36*
G01*
X113750000Y-123399999D02*
X113750000Y-124300001D01*
G75*
G02*
X113500001Y-124550000I-249999J0D01*
G01*
X112799999Y-124550000D01*
G75*
G02*
X112550000Y-124300001I0J249999D01*
G01*
X112550000Y-123399999D01*
G75*
G02*
X112799999Y-123150000I249999J0D01*
G01*
X113500001Y-123150000D01*
G75*
G02*
X113750000Y-123399999I0J-249999D01*
G01*
G37*
G36*
G01*
X115750000Y-123399999D02*
X115750000Y-124300001D01*
G75*
G02*
X115500001Y-124550000I-249999J0D01*
G01*
X114799999Y-124550000D01*
G75*
G02*
X114550000Y-124300001I0J249999D01*
G01*
X114550000Y-123399999D01*
G75*
G02*
X114799999Y-123150000I249999J0D01*
G01*
X115500001Y-123150000D01*
G75*
G02*
X115750000Y-123399999I0J-249999D01*
G01*
G37*
%TD*%
%TO.C,R3*%
G36*
G01*
X91319999Y-74640000D02*
X92220001Y-74640000D01*
G75*
G02*
X92470000Y-74889999I0J-249999D01*
G01*
X92470000Y-75590001D01*
G75*
G02*
X92220001Y-75840000I-249999J0D01*
G01*
X91319999Y-75840000D01*
G75*
G02*
X91070000Y-75590001I0J249999D01*
G01*
X91070000Y-74889999D01*
G75*
G02*
X91319999Y-74640000I249999J0D01*
G01*
G37*
G36*
G01*
X91319999Y-72640000D02*
X92220001Y-72640000D01*
G75*
G02*
X92470000Y-72889999I0J-249999D01*
G01*
X92470000Y-73590001D01*
G75*
G02*
X92220001Y-73840000I-249999J0D01*
G01*
X91319999Y-73840000D01*
G75*
G02*
X91070000Y-73590001I0J249999D01*
G01*
X91070000Y-72889999D01*
G75*
G02*
X91319999Y-72640000I249999J0D01*
G01*
G37*
%TD*%
%TO.C,R2*%
G36*
G01*
X89349999Y-68850000D02*
X90250001Y-68850000D01*
G75*
G02*
X90500000Y-69099999I0J-249999D01*
G01*
X90500000Y-69800001D01*
G75*
G02*
X90250001Y-70050000I-249999J0D01*
G01*
X89349999Y-70050000D01*
G75*
G02*
X89100000Y-69800001I0J249999D01*
G01*
X89100000Y-69099999D01*
G75*
G02*
X89349999Y-68850000I249999J0D01*
G01*
G37*
G36*
G01*
X89349999Y-70850000D02*
X90250001Y-70850000D01*
G75*
G02*
X90500000Y-71099999I0J-249999D01*
G01*
X90500000Y-71800001D01*
G75*
G02*
X90250001Y-72050000I-249999J0D01*
G01*
X89349999Y-72050000D01*
G75*
G02*
X89100000Y-71800001I0J249999D01*
G01*
X89100000Y-71099999D01*
G75*
G02*
X89349999Y-70850000I249999J0D01*
G01*
G37*
%TD*%
%TO.C,R1*%
G36*
G01*
X104900001Y-106350000D02*
X103999999Y-106350000D01*
G75*
G02*
X103750000Y-106100001I0J249999D01*
G01*
X103750000Y-105399999D01*
G75*
G02*
X103999999Y-105150000I249999J0D01*
G01*
X104900001Y-105150000D01*
G75*
G02*
X105150000Y-105399999I0J-249999D01*
G01*
X105150000Y-106100001D01*
G75*
G02*
X104900001Y-106350000I-249999J0D01*
G01*
G37*
G36*
G01*
X104900001Y-108350000D02*
X103999999Y-108350000D01*
G75*
G02*
X103750000Y-108100001I0J249999D01*
G01*
X103750000Y-107399999D01*
G75*
G02*
X103999999Y-107150000I249999J0D01*
G01*
X104900001Y-107150000D01*
G75*
G02*
X105150000Y-107399999I0J-249999D01*
G01*
X105150000Y-108100001D01*
G75*
G02*
X104900001Y-108350000I-249999J0D01*
G01*
G37*
%TD*%
D18*
%TO.C,Q2*%
X109700000Y-125020000D03*
D19*
X109700000Y-122480000D03*
X109700000Y-123750000D03*
%TD*%
D18*
%TO.C,Q1*%
X88825000Y-92940000D03*
D19*
X88825000Y-90400000D03*
X88825000Y-91670000D03*
%TD*%
D12*
%TO.C,J5*%
X97375000Y-79750000D03*
X99915000Y-79750000D03*
D11*
X102455000Y-79750000D03*
%TD*%
D12*
%TO.C,J4*%
X106620000Y-83600000D03*
X109160000Y-83600000D03*
D11*
X111700000Y-83600000D03*
%TD*%
D16*
%TO.C,J3*%
X99400000Y-88100000D03*
X112100000Y-88100000D03*
X99400000Y-99500000D03*
X112100000Y-99500000D03*
%TD*%
D20*
%TO.C,J2*%
X100000000Y-61400000D03*
X100000000Y-67400000D03*
D21*
X95300000Y-64400000D03*
%TD*%
%TO.C,C11*%
G36*
G01*
X107435000Y-132747500D02*
X108385000Y-132747500D01*
G75*
G02*
X108635000Y-132997500I0J-250000D01*
G01*
X108635000Y-133672500D01*
G75*
G02*
X108385000Y-133922500I-250000J0D01*
G01*
X107435000Y-133922500D01*
G75*
G02*
X107185000Y-133672500I0J250000D01*
G01*
X107185000Y-132997500D01*
G75*
G02*
X107435000Y-132747500I250000J0D01*
G01*
G37*
G36*
G01*
X107435000Y-130672500D02*
X108385000Y-130672500D01*
G75*
G02*
X108635000Y-130922500I0J-250000D01*
G01*
X108635000Y-131597500D01*
G75*
G02*
X108385000Y-131847500I-250000J0D01*
G01*
X107435000Y-131847500D01*
G75*
G02*
X107185000Y-131597500I0J250000D01*
G01*
X107185000Y-130922500D01*
G75*
G02*
X107435000Y-130672500I250000J0D01*
G01*
G37*
%TD*%
%TO.C,C10*%
G36*
G01*
X88300000Y-100712500D02*
X89250000Y-100712500D01*
G75*
G02*
X89500000Y-100962500I0J-250000D01*
G01*
X89500000Y-101637500D01*
G75*
G02*
X89250000Y-101887500I-250000J0D01*
G01*
X88300000Y-101887500D01*
G75*
G02*
X88050000Y-101637500I0J250000D01*
G01*
X88050000Y-100962500D01*
G75*
G02*
X88300000Y-100712500I250000J0D01*
G01*
G37*
G36*
G01*
X88300000Y-98637500D02*
X89250000Y-98637500D01*
G75*
G02*
X89500000Y-98887500I0J-250000D01*
G01*
X89500000Y-99562500D01*
G75*
G02*
X89250000Y-99812500I-250000J0D01*
G01*
X88300000Y-99812500D01*
G75*
G02*
X88050000Y-99562500I0J250000D01*
G01*
X88050000Y-98887500D01*
G75*
G02*
X88300000Y-98637500I250000J0D01*
G01*
G37*
%TD*%
%TO.C,C9*%
G36*
G01*
X86675000Y-90162500D02*
X85725000Y-90162500D01*
G75*
G02*
X85475000Y-89912500I0J250000D01*
G01*
X85475000Y-89237500D01*
G75*
G02*
X85725000Y-88987500I250000J0D01*
G01*
X86675000Y-88987500D01*
G75*
G02*
X86925000Y-89237500I0J-250000D01*
G01*
X86925000Y-89912500D01*
G75*
G02*
X86675000Y-90162500I-250000J0D01*
G01*
G37*
G36*
G01*
X86675000Y-92237500D02*
X85725000Y-92237500D01*
G75*
G02*
X85475000Y-91987500I0J250000D01*
G01*
X85475000Y-91312500D01*
G75*
G02*
X85725000Y-91062500I250000J0D01*
G01*
X86675000Y-91062500D01*
G75*
G02*
X86925000Y-91312500I0J-250000D01*
G01*
X86925000Y-91987500D01*
G75*
G02*
X86675000Y-92237500I-250000J0D01*
G01*
G37*
%TD*%
%TO.C,C7*%
G36*
G01*
X101412500Y-77325000D02*
X101412500Y-76375000D01*
G75*
G02*
X101662500Y-76125000I250000J0D01*
G01*
X102337500Y-76125000D01*
G75*
G02*
X102587500Y-76375000I0J-250000D01*
G01*
X102587500Y-77325000D01*
G75*
G02*
X102337500Y-77575000I-250000J0D01*
G01*
X101662500Y-77575000D01*
G75*
G02*
X101412500Y-77325000I0J250000D01*
G01*
G37*
G36*
G01*
X99337500Y-77325000D02*
X99337500Y-76375000D01*
G75*
G02*
X99587500Y-76125000I250000J0D01*
G01*
X100262500Y-76125000D01*
G75*
G02*
X100512500Y-76375000I0J-250000D01*
G01*
X100512500Y-77325000D01*
G75*
G02*
X100262500Y-77575000I-250000J0D01*
G01*
X99587500Y-77575000D01*
G75*
G02*
X99337500Y-77325000I0J250000D01*
G01*
G37*
%TD*%
%TO.C,C6*%
G36*
G01*
X101735000Y-101047500D02*
X102685000Y-101047500D01*
G75*
G02*
X102935000Y-101297500I0J-250000D01*
G01*
X102935000Y-101972500D01*
G75*
G02*
X102685000Y-102222500I-250000J0D01*
G01*
X101735000Y-102222500D01*
G75*
G02*
X101485000Y-101972500I0J250000D01*
G01*
X101485000Y-101297500D01*
G75*
G02*
X101735000Y-101047500I250000J0D01*
G01*
G37*
G36*
G01*
X101735000Y-98972500D02*
X102685000Y-98972500D01*
G75*
G02*
X102935000Y-99222500I0J-250000D01*
G01*
X102935000Y-99897500D01*
G75*
G02*
X102685000Y-100147500I-250000J0D01*
G01*
X101735000Y-100147500D01*
G75*
G02*
X101485000Y-99897500I0J250000D01*
G01*
X101485000Y-99222500D01*
G75*
G02*
X101735000Y-98972500I250000J0D01*
G01*
G37*
%TD*%
%TO.C,C5*%
G36*
G01*
X110695000Y-96210000D02*
X109745000Y-96210000D01*
G75*
G02*
X109495000Y-95960000I0J250000D01*
G01*
X109495000Y-95285000D01*
G75*
G02*
X109745000Y-95035000I250000J0D01*
G01*
X110695000Y-95035000D01*
G75*
G02*
X110945000Y-95285000I0J-250000D01*
G01*
X110945000Y-95960000D01*
G75*
G02*
X110695000Y-96210000I-250000J0D01*
G01*
G37*
G36*
G01*
X110695000Y-98285000D02*
X109745000Y-98285000D01*
G75*
G02*
X109495000Y-98035000I0J250000D01*
G01*
X109495000Y-97360000D01*
G75*
G02*
X109745000Y-97110000I250000J0D01*
G01*
X110695000Y-97110000D01*
G75*
G02*
X110945000Y-97360000I0J-250000D01*
G01*
X110945000Y-98035000D01*
G75*
G02*
X110695000Y-98285000I-250000J0D01*
G01*
G37*
%TD*%
%TO.C,C4*%
G36*
G01*
X113625000Y-126250000D02*
X112675000Y-126250000D01*
G75*
G02*
X112425000Y-126000000I0J250000D01*
G01*
X112425000Y-125325000D01*
G75*
G02*
X112675000Y-125075000I250000J0D01*
G01*
X113625000Y-125075000D01*
G75*
G02*
X113875000Y-125325000I0J-250000D01*
G01*
X113875000Y-126000000D01*
G75*
G02*
X113625000Y-126250000I-250000J0D01*
G01*
G37*
G36*
G01*
X113625000Y-128325000D02*
X112675000Y-128325000D01*
G75*
G02*
X112425000Y-128075000I0J250000D01*
G01*
X112425000Y-127400000D01*
G75*
G02*
X112675000Y-127150000I250000J0D01*
G01*
X113625000Y-127150000D01*
G75*
G02*
X113875000Y-127400000I0J-250000D01*
G01*
X113875000Y-128075000D01*
G75*
G02*
X113625000Y-128325000I-250000J0D01*
G01*
G37*
%TD*%
%TO.C,C3*%
G36*
G01*
X89335000Y-74687500D02*
X90285000Y-74687500D01*
G75*
G02*
X90535000Y-74937500I0J-250000D01*
G01*
X90535000Y-75612500D01*
G75*
G02*
X90285000Y-75862500I-250000J0D01*
G01*
X89335000Y-75862500D01*
G75*
G02*
X89085000Y-75612500I0J250000D01*
G01*
X89085000Y-74937500D01*
G75*
G02*
X89335000Y-74687500I250000J0D01*
G01*
G37*
G36*
G01*
X89335000Y-72612500D02*
X90285000Y-72612500D01*
G75*
G02*
X90535000Y-72862500I0J-250000D01*
G01*
X90535000Y-73537500D01*
G75*
G02*
X90285000Y-73787500I-250000J0D01*
G01*
X89335000Y-73787500D01*
G75*
G02*
X89085000Y-73537500I0J250000D01*
G01*
X89085000Y-72862500D01*
G75*
G02*
X89335000Y-72612500I250000J0D01*
G01*
G37*
%TD*%
%TO.C,C2*%
G36*
G01*
X91295000Y-68852500D02*
X92245000Y-68852500D01*
G75*
G02*
X92495000Y-69102500I0J-250000D01*
G01*
X92495000Y-69777500D01*
G75*
G02*
X92245000Y-70027500I-250000J0D01*
G01*
X91295000Y-70027500D01*
G75*
G02*
X91045000Y-69777500I0J250000D01*
G01*
X91045000Y-69102500D01*
G75*
G02*
X91295000Y-68852500I250000J0D01*
G01*
G37*
G36*
G01*
X91295000Y-70927500D02*
X92245000Y-70927500D01*
G75*
G02*
X92495000Y-71177500I0J-250000D01*
G01*
X92495000Y-71852500D01*
G75*
G02*
X92245000Y-72102500I-250000J0D01*
G01*
X91295000Y-72102500D01*
G75*
G02*
X91045000Y-71852500I0J250000D01*
G01*
X91045000Y-71177500D01*
G75*
G02*
X91295000Y-70927500I250000J0D01*
G01*
G37*
%TD*%
%TO.C,C1*%
G36*
G01*
X93265000Y-68832500D02*
X94215000Y-68832500D01*
G75*
G02*
X94465000Y-69082500I0J-250000D01*
G01*
X94465000Y-69757500D01*
G75*
G02*
X94215000Y-70007500I-250000J0D01*
G01*
X93265000Y-70007500D01*
G75*
G02*
X93015000Y-69757500I0J250000D01*
G01*
X93015000Y-69082500D01*
G75*
G02*
X93265000Y-68832500I250000J0D01*
G01*
G37*
G36*
G01*
X93265000Y-70907500D02*
X94215000Y-70907500D01*
G75*
G02*
X94465000Y-71157500I0J-250000D01*
G01*
X94465000Y-71832500D01*
G75*
G02*
X94215000Y-72082500I-250000J0D01*
G01*
X93265000Y-72082500D01*
G75*
G02*
X93015000Y-71832500I0J250000D01*
G01*
X93015000Y-71157500D01*
G75*
G02*
X93265000Y-70907500I250000J0D01*
G01*
G37*
%TD*%
M02*
