%TF.GenerationSoftware,KiCad,Pcbnew,5.1.10*%
%TF.CreationDate,2021-09-21T18:29:05-07:00*%
%TF.ProjectId,PotBoard,506f7442-6f61-4726-942e-6b696361645f,rev?*%
%TF.SameCoordinates,Original*%
%TF.FileFunction,Copper,L1,Top*%
%TF.FilePolarity,Positive*%
%FSLAX46Y46*%
G04 Gerber Fmt 4.6, Leading zero omitted, Abs format (unit mm)*
G04 Created by KiCad (PCBNEW 5.1.10) date 2021-09-21 18:29:05*
%MOMM*%
%LPD*%
G01*
G04 APERTURE LIST*
%TA.AperFunction,ComponentPad*%
%ADD10C,1.524000*%
%TD*%
%TA.AperFunction,ComponentPad*%
%ADD11C,1.800000*%
%TD*%
%TA.AperFunction,ComponentPad*%
%ADD12R,2.286000X2.540000*%
%TD*%
%TA.AperFunction,Conductor*%
%ADD13C,1.500000*%
%TD*%
G04 APERTURE END LIST*
D10*
%TO.P,J3,3*%
%TO.N,Net-(J3-Pad3)*%
X139954000Y-122428000D03*
%TO.P,J3,2*%
%TO.N,Net-(J3-Pad2)*%
X137414000Y-122428000D03*
%TO.P,J3,1*%
%TO.N,Net-(J3-Pad1)*%
X134874000Y-122428000D03*
%TD*%
%TO.P,J2,3*%
%TO.N,Net-(J2-Pad3)*%
X134874000Y-118440200D03*
%TO.P,J2,2*%
%TO.N,Net-(J2-Pad2)*%
X137414000Y-118440200D03*
%TO.P,J2,1*%
%TO.N,Net-(J2-Pad1)*%
X139954000Y-118440200D03*
%TD*%
%TO.P,J1,3*%
%TO.N,Net-(J1-Pad3)*%
X139954000Y-126441200D03*
%TO.P,J1,2*%
%TO.N,Net-(J1-Pad2)*%
X137414000Y-126441200D03*
%TO.P,J1,1*%
%TO.N,Net-(J1-Pad1)*%
X134874000Y-126441200D03*
%TD*%
D11*
%TO.P,RV3,3*%
%TO.N,Net-(J3-Pad3)*%
X144146260Y-121666000D03*
%TO.P,RV3,2*%
%TO.N,Net-(J3-Pad2)*%
X146646260Y-121666000D03*
%TO.P,RV3,1*%
%TO.N,Net-(J3-Pad1)*%
X149146260Y-121666000D03*
D12*
%TO.P,RV3,*%
%TO.N,*%
X151902160Y-114655600D03*
X141310360Y-114655600D03*
%TD*%
D11*
%TO.P,RV2,3*%
%TO.N,Net-(J2-Pad3)*%
X134865100Y-108663740D03*
%TO.P,RV2,2*%
%TO.N,Net-(J2-Pad2)*%
X137365100Y-108663740D03*
%TO.P,RV2,1*%
%TO.N,Net-(J2-Pad1)*%
X139865100Y-108663740D03*
D12*
%TO.P,RV2,*%
%TO.N,*%
X142621000Y-101653340D03*
X132029200Y-101653340D03*
%TD*%
D11*
%TO.P,RV1,3*%
%TO.N,Net-(J1-Pad3)*%
X125670300Y-121630440D03*
%TO.P,RV1,2*%
%TO.N,Net-(J1-Pad2)*%
X128170300Y-121630440D03*
%TO.P,RV1,1*%
%TO.N,Net-(J1-Pad1)*%
X130670300Y-121630440D03*
D12*
%TO.P,RV1,*%
%TO.N,*%
X133426200Y-114620040D03*
X122834400Y-114620040D03*
%TD*%
D13*
%TO.N,Net-(J1-Pad3)*%
X137027210Y-129367990D02*
X139954000Y-126441200D01*
X132741110Y-129367990D02*
X137027210Y-129367990D01*
X125670300Y-122297180D02*
X132741110Y-129367990D01*
X125670300Y-121630440D02*
X125670300Y-122297180D01*
%TO.N,Net-(J1-Pad1)*%
X130670300Y-122237500D02*
X134874000Y-126441200D01*
X130670300Y-121630440D02*
X130670300Y-122237500D01*
%TO.N,Net-(J2-Pad3)*%
X135635999Y-109434639D02*
X134865100Y-108663740D01*
X135635999Y-117678201D02*
X135635999Y-109434639D01*
X134874000Y-118440200D02*
X135635999Y-117678201D01*
%TO.N,Net-(J2-Pad1)*%
X139217359Y-117703559D02*
X139954000Y-118440200D01*
X139217359Y-109311481D02*
X139217359Y-117703559D01*
X139865100Y-108663740D02*
X139217359Y-109311481D01*
%TO.N,Net-(J3-Pad3)*%
X140716000Y-121666000D02*
X139954000Y-122428000D01*
X144146260Y-121666000D02*
X140716000Y-121666000D01*
%TO.N,Net-(J3-Pad1)*%
X147326420Y-124140001D02*
X149146260Y-122320161D01*
X136586001Y-124140001D02*
X147326420Y-124140001D01*
X149146260Y-122320161D02*
X149146260Y-121666000D01*
X134874000Y-122428000D02*
X136586001Y-124140001D01*
%TD*%
M02*
