M48
; DRILL file {KiCad 5.1.10} date Tue Sep 21 18:29:07 2021
; FORMAT={-:-/ absolute / inch / decimal}
; #@! TF.CreationDate,2021-09-21T18:29:07-07:00
; #@! TF.GenerationSoftware,Kicad,Pcbnew,5.1.10
; #@! TF.FileFunction,Plated,1,2,PTH
FMAT,2
INCH
T1C0.0394
T2C0.0400
T3C0.0710
%
G90
G05
T1
X4.9476Y-4.7886
X5.0461Y-4.7886
X5.1445Y-4.7886
X5.3096Y-4.2781
X5.4081Y-4.2781
X5.5065Y-4.2781
X5.675Y-4.79
X5.7735Y-4.79
X5.8719Y-4.79
T2
X5.31Y-4.663
X5.31Y-4.82
X5.31Y-4.978
X5.41Y-4.663
X5.41Y-4.82
X5.41Y-4.978
X5.51Y-4.663
X5.51Y-4.82
X5.51Y-4.978
T3
G00X4.836Y-4.5206
M15
G01X4.836Y-4.5046
M16
G05
G00X5.198Y-4.0101
M15
G01X5.198Y-3.9941
M16
G05
G00X5.253Y-4.5206
M15
G01X5.253Y-4.5046
M16
G05
G00X5.5634Y-4.522
M15
G01X5.5634Y-4.506
M16
G05
G00X5.615Y-4.0101
M15
G01X5.615Y-3.9941
M16
G05
G00X5.9804Y-4.522
M15
G01X5.9804Y-4.506
M16
G05
T0
M30
