%TF.GenerationSoftware,KiCad,Pcbnew,5.1.10*%
%TF.CreationDate,2021-09-21T18:29:05-07:00*%
%TF.ProjectId,PotBoard,506f7442-6f61-4726-942e-6b696361645f,rev?*%
%TF.SameCoordinates,Original*%
%TF.FileFunction,Legend,Bot*%
%TF.FilePolarity,Positive*%
%FSLAX46Y46*%
G04 Gerber Fmt 4.6, Leading zero omitted, Abs format (unit mm)*
G04 Created by KiCad (PCBNEW 5.1.10) date 2021-09-21 18:29:05*
%MOMM*%
%LPD*%
G01*
G04 APERTURE LIST*
%ADD10C,0.300000*%
%ADD11C,0.120000*%
%ADD12C,0.150000*%
G04 APERTURE END LIST*
D10*
X151245831Y-117448248D02*
X151245831Y-117591105D01*
X151317260Y-117733962D01*
X151388688Y-117805391D01*
X151531545Y-117876820D01*
X151817260Y-117948248D01*
X152174402Y-117948248D01*
X152460117Y-117876820D01*
X152602974Y-117805391D01*
X152674402Y-117733962D01*
X152745831Y-117591105D01*
X152745831Y-117448248D01*
X152674402Y-117305391D01*
X152602974Y-117233962D01*
X152460117Y-117162534D01*
X152174402Y-117091105D01*
X151817260Y-117091105D01*
X151531545Y-117162534D01*
X151388688Y-117233962D01*
X151317260Y-117305391D01*
X151245831Y-117448248D01*
X151888688Y-118805391D02*
X151817260Y-118662534D01*
X151745831Y-118591105D01*
X151602974Y-118519677D01*
X151531545Y-118519677D01*
X151388688Y-118591105D01*
X151317260Y-118662534D01*
X151245831Y-118805391D01*
X151245831Y-119091105D01*
X151317260Y-119233962D01*
X151388688Y-119305391D01*
X151531545Y-119376820D01*
X151602974Y-119376820D01*
X151745831Y-119305391D01*
X151817260Y-119233962D01*
X151888688Y-119091105D01*
X151888688Y-118805391D01*
X151960117Y-118662534D01*
X152031545Y-118591105D01*
X152174402Y-118519677D01*
X152460117Y-118519677D01*
X152602974Y-118591105D01*
X152674402Y-118662534D01*
X152745831Y-118805391D01*
X152745831Y-119091105D01*
X152674402Y-119233962D01*
X152602974Y-119305391D01*
X152460117Y-119376820D01*
X152174402Y-119376820D01*
X152031545Y-119305391D01*
X151960117Y-119233962D01*
X151888688Y-119091105D01*
X151174402Y-121091105D02*
X153102974Y-119805391D01*
X151388688Y-121519677D02*
X151317260Y-121591105D01*
X151245831Y-121733962D01*
X151245831Y-122091105D01*
X151317260Y-122233962D01*
X151388688Y-122305391D01*
X151531545Y-122376820D01*
X151674402Y-122376820D01*
X151888688Y-122305391D01*
X152745831Y-121448248D01*
X152745831Y-122376820D01*
X151245831Y-123305391D02*
X151245831Y-123448248D01*
X151317260Y-123591105D01*
X151388688Y-123662534D01*
X151531545Y-123733962D01*
X151817260Y-123805391D01*
X152174402Y-123805391D01*
X152460117Y-123733962D01*
X152602974Y-123662534D01*
X152674402Y-123591105D01*
X152745831Y-123448248D01*
X152745831Y-123305391D01*
X152674402Y-123162534D01*
X152602974Y-123091105D01*
X152460117Y-123019677D01*
X152174402Y-122948248D01*
X151817260Y-122948248D01*
X151531545Y-123019677D01*
X151388688Y-123091105D01*
X151317260Y-123162534D01*
X151245831Y-123305391D01*
X151388688Y-124376820D02*
X151317260Y-124448248D01*
X151245831Y-124591105D01*
X151245831Y-124948248D01*
X151317260Y-125091105D01*
X151388688Y-125162534D01*
X151531545Y-125233962D01*
X151674402Y-125233962D01*
X151888688Y-125162534D01*
X152745831Y-124305391D01*
X152745831Y-125233962D01*
X151388688Y-125805391D02*
X151317260Y-125876820D01*
X151245831Y-126019677D01*
X151245831Y-126376820D01*
X151317260Y-126519677D01*
X151388688Y-126591105D01*
X151531545Y-126662534D01*
X151674402Y-126662534D01*
X151888688Y-126591105D01*
X152745831Y-125733962D01*
X152745831Y-126662534D01*
X132385000Y-111676571D02*
X132385000Y-110176571D01*
X131813571Y-110176571D01*
X131670714Y-110248000D01*
X131599285Y-110319428D01*
X131527857Y-110462285D01*
X131527857Y-110676571D01*
X131599285Y-110819428D01*
X131670714Y-110890857D01*
X131813571Y-110962285D01*
X132385000Y-110962285D01*
X130670714Y-111676571D02*
X130813571Y-111605142D01*
X130885000Y-111533714D01*
X130956428Y-111390857D01*
X130956428Y-110962285D01*
X130885000Y-110819428D01*
X130813571Y-110748000D01*
X130670714Y-110676571D01*
X130456428Y-110676571D01*
X130313571Y-110748000D01*
X130242142Y-110819428D01*
X130170714Y-110962285D01*
X130170714Y-111390857D01*
X130242142Y-111533714D01*
X130313571Y-111605142D01*
X130456428Y-111676571D01*
X130670714Y-111676571D01*
X129742142Y-110676571D02*
X129170714Y-110676571D01*
X129527857Y-110176571D02*
X129527857Y-111462285D01*
X129456428Y-111605142D01*
X129313571Y-111676571D01*
X129170714Y-111676571D01*
X128170714Y-110890857D02*
X127956428Y-110962285D01*
X127885000Y-111033714D01*
X127813571Y-111176571D01*
X127813571Y-111390857D01*
X127885000Y-111533714D01*
X127956428Y-111605142D01*
X128099285Y-111676571D01*
X128670714Y-111676571D01*
X128670714Y-110176571D01*
X128170714Y-110176571D01*
X128027857Y-110248000D01*
X127956428Y-110319428D01*
X127885000Y-110462285D01*
X127885000Y-110605142D01*
X127956428Y-110748000D01*
X128027857Y-110819428D01*
X128170714Y-110890857D01*
X128670714Y-110890857D01*
X126956428Y-111676571D02*
X127099285Y-111605142D01*
X127170714Y-111533714D01*
X127242142Y-111390857D01*
X127242142Y-110962285D01*
X127170714Y-110819428D01*
X127099285Y-110748000D01*
X126956428Y-110676571D01*
X126742142Y-110676571D01*
X126599285Y-110748000D01*
X126527857Y-110819428D01*
X126456428Y-110962285D01*
X126456428Y-111390857D01*
X126527857Y-111533714D01*
X126599285Y-111605142D01*
X126742142Y-111676571D01*
X126956428Y-111676571D01*
X125170714Y-111676571D02*
X125170714Y-110890857D01*
X125242142Y-110748000D01*
X125385000Y-110676571D01*
X125670714Y-110676571D01*
X125813571Y-110748000D01*
X125170714Y-111605142D02*
X125313571Y-111676571D01*
X125670714Y-111676571D01*
X125813571Y-111605142D01*
X125885000Y-111462285D01*
X125885000Y-111319428D01*
X125813571Y-111176571D01*
X125670714Y-111105142D01*
X125313571Y-111105142D01*
X125170714Y-111033714D01*
X124456428Y-111676571D02*
X124456428Y-110676571D01*
X124456428Y-110962285D02*
X124385000Y-110819428D01*
X124313571Y-110748000D01*
X124170714Y-110676571D01*
X124027857Y-110676571D01*
X122885000Y-111676571D02*
X122885000Y-110176571D01*
X122885000Y-111605142D02*
X123027857Y-111676571D01*
X123313571Y-111676571D01*
X123456428Y-111605142D01*
X123527857Y-111533714D01*
X123599285Y-111390857D01*
X123599285Y-110962285D01*
X123527857Y-110819428D01*
X123456428Y-110748000D01*
X123313571Y-110676571D01*
X123027857Y-110676571D01*
X122885000Y-110748000D01*
X144152142Y-95825571D02*
X144152142Y-96897000D01*
X144223571Y-97111285D01*
X144366428Y-97254142D01*
X144580714Y-97325571D01*
X144723571Y-97325571D01*
X143223571Y-97325571D02*
X143366428Y-97254142D01*
X143437857Y-97182714D01*
X143509285Y-97039857D01*
X143509285Y-96611285D01*
X143437857Y-96468428D01*
X143366428Y-96397000D01*
X143223571Y-96325571D01*
X143009285Y-96325571D01*
X142866428Y-96397000D01*
X142795000Y-96468428D01*
X142723571Y-96611285D01*
X142723571Y-97039857D01*
X142795000Y-97182714D01*
X142866428Y-97254142D01*
X143009285Y-97325571D01*
X143223571Y-97325571D01*
X142080714Y-97325571D02*
X142080714Y-95825571D01*
X141437857Y-97325571D02*
X141437857Y-96539857D01*
X141509285Y-96397000D01*
X141652142Y-96325571D01*
X141866428Y-96325571D01*
X142009285Y-96397000D01*
X142080714Y-96468428D01*
X140723571Y-96325571D02*
X140723571Y-97325571D01*
X140723571Y-96468428D02*
X140652142Y-96397000D01*
X140509285Y-96325571D01*
X140295000Y-96325571D01*
X140152142Y-96397000D01*
X140080714Y-96539857D01*
X140080714Y-97325571D01*
X138223571Y-97325571D02*
X138223571Y-95825571D01*
X137723571Y-96897000D01*
X137223571Y-95825571D01*
X137223571Y-97325571D01*
X135866428Y-97254142D02*
X136009285Y-97325571D01*
X136295000Y-97325571D01*
X136437857Y-97254142D01*
X136509285Y-97182714D01*
X136580714Y-97039857D01*
X136580714Y-96611285D01*
X136509285Y-96468428D01*
X136437857Y-96397000D01*
X136295000Y-96325571D01*
X136009285Y-96325571D01*
X135866428Y-96397000D01*
X135295000Y-96897000D02*
X134580714Y-96897000D01*
X135437857Y-97325571D02*
X134937857Y-95825571D01*
X134437857Y-97325571D01*
X134080714Y-96325571D02*
X133723571Y-97325571D01*
X133366428Y-96325571D01*
X132580714Y-97325571D02*
X132723571Y-97254142D01*
X132795000Y-97182714D01*
X132866428Y-97039857D01*
X132866428Y-96611285D01*
X132795000Y-96468428D01*
X132723571Y-96397000D01*
X132580714Y-96325571D01*
X132366428Y-96325571D01*
X132223571Y-96397000D01*
X132152142Y-96468428D01*
X132080714Y-96611285D01*
X132080714Y-97039857D01*
X132152142Y-97182714D01*
X132223571Y-97254142D01*
X132366428Y-97325571D01*
X132580714Y-97325571D01*
X131580714Y-96325571D02*
X131223571Y-97325571D01*
X130866428Y-96325571D02*
X131223571Y-97325571D01*
X131366428Y-97682714D01*
X131437857Y-97754142D01*
X131580714Y-97825571D01*
X149460491Y-129542622D02*
X149246205Y-129614051D01*
X148889062Y-129614051D01*
X148746205Y-129542622D01*
X148674777Y-129471194D01*
X148603348Y-129328337D01*
X148603348Y-129185480D01*
X148674777Y-129042622D01*
X148746205Y-128971194D01*
X148889062Y-128899765D01*
X149174777Y-128828337D01*
X149317634Y-128756908D01*
X149389062Y-128685480D01*
X149460491Y-128542622D01*
X149460491Y-128399765D01*
X149389062Y-128256908D01*
X149317634Y-128185480D01*
X149174777Y-128114051D01*
X148817634Y-128114051D01*
X148603348Y-128185480D01*
X147317634Y-129542622D02*
X147460491Y-129614051D01*
X147746205Y-129614051D01*
X147889062Y-129542622D01*
X147960491Y-129471194D01*
X148031920Y-129328337D01*
X148031920Y-128899765D01*
X147960491Y-128756908D01*
X147889062Y-128685480D01*
X147746205Y-128614051D01*
X147460491Y-128614051D01*
X147317634Y-128685480D01*
X146674777Y-129614051D02*
X146674777Y-128614051D01*
X146674777Y-128899765D02*
X146603348Y-128756908D01*
X146531920Y-128685480D01*
X146389062Y-128614051D01*
X146246205Y-128614051D01*
X145174777Y-129542622D02*
X145317634Y-129614051D01*
X145603348Y-129614051D01*
X145746205Y-129542622D01*
X145817634Y-129399765D01*
X145817634Y-128828337D01*
X145746205Y-128685480D01*
X145603348Y-128614051D01*
X145317634Y-128614051D01*
X145174777Y-128685480D01*
X145103348Y-128828337D01*
X145103348Y-128971194D01*
X145817634Y-129114051D01*
X143817634Y-129614051D02*
X143817634Y-128828337D01*
X143889062Y-128685480D01*
X144031920Y-128614051D01*
X144317634Y-128614051D01*
X144460491Y-128685480D01*
X143817634Y-129542622D02*
X143960491Y-129614051D01*
X144317634Y-129614051D01*
X144460491Y-129542622D01*
X144531920Y-129399765D01*
X144531920Y-129256908D01*
X144460491Y-129114051D01*
X144317634Y-129042622D01*
X143960491Y-129042622D01*
X143817634Y-128971194D01*
X143103348Y-129614051D02*
X143103348Y-128614051D01*
X143103348Y-128756908D02*
X143031920Y-128685480D01*
X142889062Y-128614051D01*
X142674777Y-128614051D01*
X142531920Y-128685480D01*
X142460491Y-128828337D01*
X142460491Y-129614051D01*
X142460491Y-128828337D02*
X142389062Y-128685480D01*
X142246205Y-128614051D01*
X142031920Y-128614051D01*
X141889062Y-128685480D01*
X141817634Y-128828337D01*
X141817634Y-129614051D01*
X141103348Y-129614051D02*
X141103348Y-128614051D01*
X141103348Y-128114051D02*
X141174777Y-128185480D01*
X141103348Y-128256908D01*
X141031920Y-128185480D01*
X141103348Y-128114051D01*
X141103348Y-128256908D01*
X140389062Y-128614051D02*
X140389062Y-129614051D01*
X140389062Y-128756908D02*
X140317634Y-128685480D01*
X140174777Y-128614051D01*
X139960491Y-128614051D01*
X139817634Y-128685480D01*
X139746205Y-128828337D01*
X139746205Y-129614051D01*
X138389062Y-128614051D02*
X138389062Y-129828337D01*
X138460491Y-129971194D01*
X138531920Y-130042622D01*
X138674777Y-130114051D01*
X138889062Y-130114051D01*
X139031920Y-130042622D01*
X138389062Y-129542622D02*
X138531920Y-129614051D01*
X138817634Y-129614051D01*
X138960491Y-129542622D01*
X139031920Y-129471194D01*
X139103348Y-129328337D01*
X139103348Y-128899765D01*
X139031920Y-128756908D01*
X138960491Y-128685480D01*
X138817634Y-128614051D01*
X138531920Y-128614051D01*
X138389062Y-128685480D01*
X136531920Y-129614051D02*
X136531920Y-128114051D01*
X135960491Y-128114051D01*
X135817634Y-128185480D01*
X135746205Y-128256908D01*
X135674777Y-128399765D01*
X135674777Y-128614051D01*
X135746205Y-128756908D01*
X135817634Y-128828337D01*
X135960491Y-128899765D01*
X136531920Y-128899765D01*
X134389062Y-129614051D02*
X134389062Y-128828337D01*
X134460491Y-128685480D01*
X134603348Y-128614051D01*
X134889062Y-128614051D01*
X135031920Y-128685480D01*
X134389062Y-129542622D02*
X134531920Y-129614051D01*
X134889062Y-129614051D01*
X135031920Y-129542622D01*
X135103348Y-129399765D01*
X135103348Y-129256908D01*
X135031920Y-129114051D01*
X134889062Y-129042622D01*
X134531920Y-129042622D01*
X134389062Y-128971194D01*
X133674777Y-128614051D02*
X133674777Y-129614051D01*
X133674777Y-128756908D02*
X133603348Y-128685480D01*
X133460491Y-128614051D01*
X133246205Y-128614051D01*
X133103348Y-128685480D01*
X133031920Y-128828337D01*
X133031920Y-129614051D01*
X131674777Y-129614051D02*
X131674777Y-128114051D01*
X131674777Y-129542622D02*
X131817634Y-129614051D01*
X132103348Y-129614051D01*
X132246205Y-129542622D01*
X132317634Y-129471194D01*
X132389062Y-129328337D01*
X132389062Y-128899765D01*
X132317634Y-128756908D01*
X132246205Y-128685480D01*
X132103348Y-128614051D01*
X131817634Y-128614051D01*
X131674777Y-128685480D01*
X130317634Y-129614051D02*
X130317634Y-128828337D01*
X130389062Y-128685480D01*
X130531920Y-128614051D01*
X130817634Y-128614051D01*
X130960491Y-128685480D01*
X130317634Y-129542622D02*
X130460491Y-129614051D01*
X130817634Y-129614051D01*
X130960491Y-129542622D01*
X131031920Y-129399765D01*
X131031920Y-129256908D01*
X130960491Y-129114051D01*
X130817634Y-129042622D01*
X130460491Y-129042622D01*
X130317634Y-128971194D01*
X127674777Y-129614051D02*
X128531920Y-129614051D01*
X128103348Y-129614051D02*
X128103348Y-128114051D01*
X128246205Y-128328337D01*
X128389062Y-128471194D01*
X128531920Y-128542622D01*
X127174777Y-128614051D02*
X126817634Y-129614051D01*
X126460491Y-128614051D01*
X125603348Y-128114051D02*
X125460491Y-128114051D01*
X125317634Y-128185480D01*
X125246205Y-128256908D01*
X125174777Y-128399765D01*
X125103348Y-128685480D01*
X125103348Y-129042622D01*
X125174777Y-129328337D01*
X125246205Y-129471194D01*
X125317634Y-129542622D01*
X125460491Y-129614051D01*
X125603348Y-129614051D01*
X125746205Y-129542622D01*
X125817634Y-129471194D01*
X125889062Y-129328337D01*
X125960491Y-129042622D01*
X125960491Y-128685480D01*
X125889062Y-128399765D01*
X125817634Y-128256908D01*
X125746205Y-128185480D01*
X125603348Y-128114051D01*
D11*
%TO.C,J3*%
X133604000Y-121158000D02*
X133604000Y-123698000D01*
X141224000Y-121158000D02*
X133604000Y-121158000D01*
X141224000Y-123698000D02*
X141224000Y-121158000D01*
X133604000Y-123698000D02*
X141224000Y-123698000D01*
%TO.C,J2*%
X141224000Y-119710200D02*
X141224000Y-117170200D01*
X133604000Y-119710200D02*
X141224000Y-119710200D01*
X133604000Y-117170200D02*
X133604000Y-119710200D01*
X141224000Y-117170200D02*
X133604000Y-117170200D01*
%TO.C,J1*%
X133604000Y-125171200D02*
X133604000Y-127711200D01*
X141224000Y-125171200D02*
X133604000Y-125171200D01*
X141224000Y-127711200D02*
X141224000Y-125171200D01*
X133604000Y-127711200D02*
X141224000Y-127711200D01*
%TO.C,J3*%
D12*
X142700333Y-122261380D02*
X142700333Y-122975666D01*
X142747952Y-123118523D01*
X142843190Y-123213761D01*
X142986047Y-123261380D01*
X143081285Y-123261380D01*
X142319380Y-122261380D02*
X141700333Y-122261380D01*
X142033666Y-122642333D01*
X141890809Y-122642333D01*
X141795571Y-122689952D01*
X141747952Y-122737571D01*
X141700333Y-122832809D01*
X141700333Y-123070904D01*
X141747952Y-123166142D01*
X141795571Y-123213761D01*
X141890809Y-123261380D01*
X142176523Y-123261380D01*
X142271761Y-123213761D01*
X142319380Y-123166142D01*
%TO.C,J2*%
X142700333Y-117943380D02*
X142700333Y-118657666D01*
X142747952Y-118800523D01*
X142843190Y-118895761D01*
X142986047Y-118943380D01*
X143081285Y-118943380D01*
X142271761Y-118038619D02*
X142224142Y-117991000D01*
X142128904Y-117943380D01*
X141890809Y-117943380D01*
X141795571Y-117991000D01*
X141747952Y-118038619D01*
X141700333Y-118133857D01*
X141700333Y-118229095D01*
X141747952Y-118371952D01*
X142319380Y-118943380D01*
X141700333Y-118943380D01*
%TO.C,J1*%
X142573333Y-125944380D02*
X142573333Y-126658666D01*
X142620952Y-126801523D01*
X142716190Y-126896761D01*
X142859047Y-126944380D01*
X142954285Y-126944380D01*
X141573333Y-126944380D02*
X142144761Y-126944380D01*
X141859047Y-126944380D02*
X141859047Y-125944380D01*
X141954285Y-126087238D01*
X142049523Y-126182476D01*
X142144761Y-126230095D01*
%TD*%
M02*
